<?xml version="1.0" standalone="no"?><!-- Generator: Gravit.io --><svg xmlns="http://www.w3.org/2000/svg" xmlns:xlink="http://www.w3.org/1999/xlink" style="isolation:isolate" viewBox="356.25 224.697 21.677 23.1" width="21.677" height="23.1"><g id="Group"><path d=" M 377.927 243.348 L 377.927 241.963 L 377.179 241.697 C 376.893 241.596 376.663 241.378 376.548 241.098 C 376.548 241.098 376.548 241.098 376.548 241.098 C 376.431 240.817 376.44 240.501 376.57 240.227 L 376.911 239.509 L 375.931 238.53 L 375.214 238.871 C 374.94 239.001 374.623 239.01 374.343 238.893 L 374.343 238.893 C 374.062 238.777 373.846 238.548 373.743 238.262 L 373.478 237.514 L 372.093 237.514 L 371.826 238.262 C 371.725 238.547 371.507 238.777 371.228 238.893 L 371.227 238.893 C 370.947 239.01 370.631 239.001 370.356 238.871 L 369.639 238.53 L 368.66 239.509 L 369.001 240.227 C 369.13 240.5 369.139 240.818 369.023 241.098 C 369.023 241.098 369.023 241.098 369.022 241.098 C 368.907 241.378 368.677 241.596 368.392 241.697 L 367.644 241.963 L 367.644 243.348 L 368.392 243.614 C 368.677 243.716 368.907 243.933 369.022 244.213 C 369.023 244.213 369.023 244.213 369.023 244.213 C 369.139 244.494 369.131 244.81 369.001 245.084 L 368.66 245.801 L 369.639 246.781 L 370.356 246.44 C 370.629 246.31 370.947 246.302 371.227 246.418 C 371.228 246.418 371.228 246.418 371.228 246.418 C 371.508 246.534 371.725 246.763 371.826 247.049 L 372.093 247.797 L 373.478 247.797 L 373.742 247.053 C 373.845 246.766 374.064 246.534 374.347 246.417 L 374.347 246.416 C 374.624 246.301 374.938 246.309 375.209 246.437 L 375.931 246.781 L 376.91 245.801 L 376.569 245.084 C 376.44 244.81 376.431 244.494 376.547 244.214 L 376.547 244.213 C 376.664 243.933 376.893 243.716 377.179 243.614 L 377.927 243.348 Z  M 372.786 244.541 C 371.744 244.541 370.9 243.697 370.9 242.656 C 370.9 241.614 371.744 240.77 372.786 240.77 C 373.827 240.77 374.671 241.614 374.671 242.656 C 374.671 243.697 373.827 244.541 372.786 244.541 Z " fill="rgb(255,255,255)"/><path d=" M 360.826 230.881 M 370.186 236.156 C 369.805 235.816 369.393 235.521 368.948 235.287 C 369.845 234.323 370.739 233.067 370.739 230.881 C 370.739 227.472 368.059 224.697 364.766 224.697 C 361.471 224.697 358.792 227.472 358.792 230.881 C 358.792 233.07 359.833 234.297 360.668 235.265 C 357.976 236.671 356.25 240.248 356.25 242.656 C 356.25 245.523 362.16 245.833 364.703 245.833 C 365.164 245.833 365.738 245.823 366.368 245.788 L 366.368 245.788 C 365.723 244.796 365.349 243.611 365.349 242.34 C 365.349 239.353 367.41 236.843 370.186 236.156 Z " fill-rule="evenodd" fill="rgb(255,255,255)"/></g></svg>