<?xml version="1.0" standalone="no"?><!-- Generator: Gravit.io --><svg xmlns="http://www.w3.org/2000/svg" xmlns:xlink="http://www.w3.org/1999/xlink" style="isolation:isolate" viewBox="452.575 144.787 24.741 24.741" width="24.741" height="24.741"><g id="Group"><path d=" M 452.575 157.158 C 452.575 150.331 458.118 144.787 464.946 144.787 C 471.773 144.787 477.316 150.331 477.316 157.158 C 477.316 163.986 471.773 169.529 464.946 169.529 C 458.118 169.529 452.575 163.986 452.575 157.158 Z " fill="#584DBD"/><path d="M 459.723 153.707 L 470.168 153.707 C 470.368 153.707 470.531 153.87 470.531 154.07 L 470.531 161.412 C 470.531 161.612 470.368 161.775 470.168 161.775 L 459.723 161.775 C 459.523 161.775 459.36 161.612 459.36 161.412 L 459.36 154.07 C 459.36 153.87 459.523 153.707 459.723 153.707 Z" style="stroke:none;fill:#FFFFFF;stroke-miterlimit:10;"/><path d="M 467.984 152.541 L 469.363 152.541 C 469.69 152.541 469.956 152.807 469.956 153.133 L 469.956 154.281 C 469.956 154.608 469.69 154.873 469.363 154.873 L 467.984 154.873 C 467.657 154.873 467.391 154.608 467.391 154.281 L 467.391 153.133 C 467.391 152.807 467.657 152.541 467.984 152.541 Z" style="stroke:none;fill:#FFFFFF;stroke-miterlimit:10;"/><path d=" M 462.447 157.839 C 462.447 156.475 463.555 155.367 464.919 155.367 C 466.284 155.367 467.391 156.475 467.391 157.839 C 467.391 159.203 466.284 160.311 464.919 160.311 C 463.555 160.311 462.447 159.203 462.447 157.839 Z " fill="#584DBD"/><path d=" M 463.296 157.741 C 463.296 156.845 464.023 156.118 464.919 156.118 C 465.815 156.118 466.543 156.845 466.543 157.741 C 466.543 158.637 465.815 159.364 464.919 159.364 C 464.023 159.364 463.296 158.637 463.296 157.741 Z " fill="rgb(255,255,255)"/></g></svg>