<?xml version="1.0" standalone="no"?><!-- Generator: Gravit.io --><svg xmlns="http://www.w3.org/2000/svg" xmlns:xlink="http://www.w3.org/1999/xlink" style="isolation:isolate" viewBox="123 268.2 21 23" width="21" height="23"><path d=" M 130 278.2 L 137 278.2 L 137 277.164 L 137 274.544 C 136.99 273.699 136.64 272.896 136.03 272.332 C 135.34 271.675 134.43 271.32 133.5 271.331 C 132.57 271.32 131.66 271.675 130.97 272.332 C 130.36 272.896 130.01 273.699 130 274.544 L 130 277.164 L 130 278.2 L 130 278.2 L 130 278.2 Z  M 130.439 288.245 L 128.979 288.245 L 128.979 286.515 L 128.979 286.515 Q 128.979 286.315 129.004 286.11 L 129.004 286.11 L 129.004 286.11 Q 129.029 285.905 129.089 285.735 L 129.089 285.735 L 129.089 285.735 Q 128.959 285.875 128.799 285.985 L 128.799 285.985 L 128.799 285.985 Q 128.639 286.095 128.459 286.205 L 128.459 286.205 L 126.999 287.055 L 126.279 285.865 L 127.739 285.015 L 127.739 285.015 Q 127.929 284.905 128.119 284.825 L 128.119 284.825 L 128.119 284.825 Q 128.309 284.745 128.509 284.705 L 128.509 284.705 L 128.509 284.705 Q 128.309 284.665 128.119 284.58 L 128.119 284.58 L 128.119 284.58 Q 127.929 284.495 127.739 284.385 L 127.739 284.385 L 126.279 283.515 L 126.999 282.315 L 128.459 283.195 L 128.459 283.195 Q 128.639 283.305 128.804 283.42 L 128.804 283.42 L 128.804 283.42 Q 128.969 283.535 129.099 283.675 L 129.099 283.675 L 129.099 283.675 Q 128.979 283.335 128.979 282.905 L 128.979 282.905 L 128.979 281.155 L 130.439 281.155 L 130.439 282.885 L 130.439 282.885 Q 130.439 283.095 130.414 283.295 L 130.414 283.295 L 130.414 283.295 Q 130.389 283.495 130.329 283.675 L 130.329 283.675 L 130.329 283.675 Q 130.459 283.535 130.619 283.42 L 130.619 283.42 L 130.619 283.42 Q 130.779 283.305 130.959 283.195 L 130.959 283.195 L 132.419 282.335 L 133.139 283.535 L 131.679 284.385 L 131.679 284.385 Q 131.479 284.495 131.289 284.575 L 131.289 284.575 L 131.289 284.575 Q 131.099 284.655 130.899 284.695 L 130.899 284.695 L 130.899 284.695 Q 131.099 284.735 131.294 284.82 L 131.294 284.82 L 131.294 284.82 Q 131.489 284.905 131.679 285.015 L 131.679 285.015 L 133.139 285.885 L 132.419 287.075 L 130.959 286.205 L 130.959 286.205 Q 130.769 286.095 130.609 285.98 L 130.609 285.98 L 130.609 285.98 Q 130.449 285.865 130.309 285.725 L 130.309 285.725 L 130.309 285.725 Q 130.439 286.075 130.439 286.495 L 130.439 286.495 L 130.439 288.245 L 130.439 288.245 Z  M 127 278.2 L 125.365 278.2 C 124.06 278.2 123 279.26 123 280.565 L 123 288.835 C 123 290.14 124.06 291.2 125.365 291.2 L 141.635 291.2 C 142.94 291.2 144 290.14 144 288.835 L 144 280.565 C 144 279.26 142.94 278.2 141.635 278.2 L 140 278.2 L 140 277.164 L 140 274.534 C 140 274.524 140 274.524 140 274.513 C 139.98 272.791 139.27 271.153 138.04 269.995 C 136.79 268.826 135.17 268.19 133.5 268.2 C 131.83 268.19 130.21 268.826 128.96 269.995 C 127.73 271.153 127.02 272.791 127 274.513 C 127 274.524 127 274.524 127 274.534 L 127 277.164 L 127 278.2 L 127 278.2 L 127 278.2 Z  M 138.439 288.245 L 136.979 288.245 L 136.979 286.515 L 136.979 286.515 Q 136.979 286.315 137.004 286.11 L 137.004 286.11 L 137.004 286.11 Q 137.029 285.905 137.089 285.735 L 137.089 285.735 L 137.089 285.735 Q 136.959 285.875 136.799 285.985 L 136.799 285.985 L 136.799 285.985 Q 136.639 286.095 136.459 286.205 L 136.459 286.205 L 134.999 287.055 L 134.279 285.865 L 135.739 285.015 L 135.739 285.015 Q 135.929 284.905 136.119 284.825 L 136.119 284.825 L 136.119 284.825 Q 136.309 284.745 136.509 284.705 L 136.509 284.705 L 136.509 284.705 Q 136.309 284.665 136.119 284.58 L 136.119 284.58 L 136.119 284.58 Q 135.929 284.495 135.739 284.385 L 135.739 284.385 L 134.279 283.515 L 134.999 282.315 L 136.459 283.195 L 136.459 283.195 Q 136.639 283.305 136.804 283.42 L 136.804 283.42 L 136.804 283.42 Q 136.969 283.535 137.099 283.675 L 137.099 283.675 L 137.099 283.675 Q 136.979 283.335 136.979 282.905 L 136.979 282.905 L 136.979 281.155 L 138.439 281.155 L 138.439 282.885 L 138.439 282.885 Q 138.439 283.095 138.414 283.295 L 138.414 283.295 L 138.414 283.295 Q 138.389 283.495 138.329 283.675 L 138.329 283.675 L 138.329 283.675 Q 138.459 283.535 138.619 283.42 L 138.619 283.42 L 138.619 283.42 Q 138.779 283.305 138.959 283.195 L 138.959 283.195 L 140.419 282.335 L 141.139 283.535 L 139.679 284.385 L 139.679 284.385 Q 139.479 284.495 139.289 284.575 L 139.289 284.575 L 139.289 284.575 Q 139.099 284.655 138.899 284.695 L 138.899 284.695 L 138.899 284.695 Q 139.099 284.735 139.294 284.82 L 139.294 284.82 L 139.294 284.82 Q 139.489 284.905 139.679 285.015 L 139.679 285.015 L 141.139 285.885 L 140.419 287.075 L 138.959 286.205 L 138.959 286.205 Q 138.769 286.095 138.609 285.98 L 138.609 285.98 L 138.609 285.98 Q 138.449 285.865 138.309 285.725 L 138.309 285.725 L 138.309 285.725 Q 138.439 286.075 138.439 286.495 L 138.439 286.495 L 138.439 288.245 Z " fill-rule="evenodd" fill="rgb(255,255,255)"/></svg>