<svg viewBox="0 0 139 184" xmlns="http://www.w3.org/2000/svg" fill-rule="evenodd" clip-rule="evenodd" stroke-linejoin="round" stroke-miterlimit="1.414"><g transform="translate(-8195.834 -5255.6)"><path d="M8256.4 5414.128l-16.78 13.19-18.05-9.6 24.57-27.73 10.26 24.14zM8262.52 5282.288l26.69-26.69v26.69h-26.69zM8307.163 5283.265l26.69-26.69v26.69h-26.69z" fill="#8576AE"/><path d="M8315.286 5282.737l15.47-18.456v18.457h-15.47zM8267.284 5282.364l19.09-20.042v20.042h-19.09z" fill-opacity=".082"/><path d="M8333.93 5280.81v133.13l-43.29.25h-.81l-.04.06s-24.04.42-33.76 0l-.02-.01-14.38-35.08.09-3.32-2.69-2.58 1.88-3.2-4.04-3.39 19.16-14.28-27.12-6 25.71-3.69h-11.66v-61.89h90.97z" fill="#B78EDA"/><clipPath id="a"><path d="M8333.93 5280.81v133.13l-43.29.25h-.81l-.04.06s-24.04.42-33.76 0l-.02-.01-14.38-35.08.09-3.32-2.69-2.58 1.88-3.2-4.04-3.39 19.16-14.28-27.12-6 25.71-3.69h-11.66v-61.89h90.97z"/></clipPath><g clip-path="url(#a)"><path d="M8228.91 5346.388l27.12 6-29.65 9.37 21.54 60.44c9.73.42 41.87-7.94 41.87-7.94s22.08-39.34 9.88-61.87c-13.78-25.46-31.98-11.56-31.98-11.56l-38.78 5.56z" fill="#CAC0E1" fill-opacity=".973"/><path fill="#9A80C1" fill-opacity=".361" d="M8316.793 5274.37h30.78v157.492h-30.78z"/><path d="M8267.17 5352.54c6.56-1.48 11.12-4.56 16.81-9.03 14.11 11.66 16.12 28.85 11.17 49.2l-8.55 19.16-13.29.53-6.14-59.86z" fill="#fff" fill-opacity=".224"/></g><path d="M8255.497 5287.43c0 4.815 3.446 8.72 7.697 8.72 4.25 0 7.695-3.905 7.695-8.72h-15.393zM8288.527 5287.25c0 4.815 3.446 8.72 7.697 8.72 4.25 0 7.695-3.905 7.695-8.72h-15.393z" fill="#4A3D70"/><ellipse cx="8822.84" cy="5442.75" rx="2.698" ry="2.935" fill="#fff" transform="translate(-555.21 -154.712)"/><ellipse cx="8822.84" cy="5442.75" rx="2.698" ry="2.935" fill="#fff" transform="translate(-522.313 -154.964)"/><path d="M8197.77 5302.533c0 25.593 20.655 46.356 46.135 46.356 25.47 0 46.125-20.764 46.125-46.357h-92.259z" fill="#8576AE"/><path fill="#E33D72" d="M8195.837 5299.438h16.396v13.605h-16.396z"/><path fill="#fff" fill-opacity=".345" d="M8195.84 5299.44h8.178v6.544h-8.178z"/><path d="M8333.937 5330.27l-27.69 54.918h27.69v-54.92" fill="#8576AE" fill-opacity=".573"/><path d="M8296.44 5375.024s-4.53.23-5.66 5.51c-.88 4.14-2.41 35.01-2.41 35.01h4.3v16.66c0 2.14 5.04 3.07 4.99 0l-1.22-57.18M8233.14 5403.305s-4.41-5.78-4.41-9.62v-16.16c0-.22.09-.44.25-.6.16-.16.38-.25.6-.25.23 0 .44.09.6.25.16.16.25.38.25.6v10.82c0 .26.11.51.29.7.19.18.44.29.7.29.27 0 .52-.11.71-.29.18-.19.29-.44.29-.7v-10.62c0-.28.11-.54.3-.74.2-.2.47-.31.74-.31h.01c.27 0 .54.11.74.31.19.2.3.46.3.74v10.62c0 .26.11.51.29.7.19.18.44.29.71.29.26 0 .51-.11.7-.29.19-.19.29-.44.29-.7v-10.74c0-.24.1-.48.27-.66.18-.17.41-.27.66-.27.25 0 .48.1.66.27.17.18.27.42.27.66v10.74c0 .26.1.51.29.7.19.18.44.29.7.29.27 0 .52-.11.7-.29.19-.19.3-.44.3-.7v-10.74c0-.51.41-.93.92-.93h.01c.24 0 .48.1.65.28.18.17.27.41.27.65v16.08c0 3.7-4.08 9.62-4.08 9.62v17.92h-4.98v-17.92z" fill="#fff"/><path d="M8247.645 5427.364c0-5.337-4.33-9.654-9.65-9.654h-16.46v19.295h16.46c5.32 0 9.65-4.317 9.65-9.64zM8293.96 5420.13l4.72-.1 35.06-65.58.33 59.38-23.55 25.34-16.56.26c-5.32 0-9.65-4.33-9.65-9.65 0-5.33 4.33-9.65 9.65-9.65z" fill="#8576AE"/><path d="M8218.58 5306.27l64.99.95c-3.15 12.6-9.08 23.82-19.74 32.69l-45.25-33.64z" fill="#9A80C1"/><path d="M8295.31 5429.99c.19 3.02 2.69 5.38 5.72 5.38h6.79l21.55-21.56v-40.67l-25.65 50.37h-2.32c-1.68 0-3.29.7-4.45 1.93-1.15 1.22-1.74 2.87-1.64 4.55zM8225.59 5421.33v11.83h9.48c1.54 0 3.02-.61 4.11-1.7 1.09-1.09 1.7-2.57 1.7-4.11 0-3.09-2.45-5.62-5.53-5.72-4.38-.13-9.76-.3-9.76-.3z" fill="#fff" fill-opacity=".031"/></g></svg>