<?xml version="1.0" encoding="UTF-8" standalone="no"?>
<!DOCTYPE svg PUBLIC "-//W3C//DTD SVG 1.1//EN" "http://www.w3.org/Graphics/SVG/1.1/DTD/svg11.dtd">
<svg width="100%" height="100%" viewBox="0 0 21 20" version="1.1" xmlns="http://www.w3.org/2000/svg" xmlns:xlink="http://www.w3.org/1999/xlink" xml:space="preserve" style="fill-rule:evenodd;clip-rule:evenodd;stroke-linecap:round;stroke-linejoin:round;stroke-miterlimit:1.5;">
    <g transform="matrix(1,0,0,1,-7814.49,-9760.5)">
        <g transform="matrix(1,0,0,1,1.6291,1.69182)">
            <g>
                <g id="Folder" transform="matrix(1,0,0,1,7810.97,9756.81)">
                    <path d="M10,4L4,4C2.9,4 2.01,4.9 2.01,6L2,18C2,19.1 2.9,20 4,20L20,20C21.1,20 22,19.1 22,18L22,8C22,6.9 21.1,6 20,6L12,6L10,4Z" style="fill:url(#_Linear1);fill-rule:nonzero;stroke:url(#_Linear2);stroke-width:0.22px;"/>
                </g>
                <g transform="matrix(0.73916,0,0,0.73916,2038.05,2544.24)">
                    <rect x="7812.83" y="9760.5" width="27.058" height="27.058" style="fill:none;"/>
                </g>
            </g>
        </g>
    </g>
    <defs>
        <linearGradient id="_Linear1" x1="0" y1="0" x2="1" y2="0" gradientUnits="userSpaceOnUse" gradientTransform="matrix(4.24067e-16,16.3548,-6.92554,1.00144e-15,12.4103,3.78831)"><stop offset="0" style="stop-color:rgb(237,101,153);stop-opacity:1"/><stop offset="1" style="stop-color:rgb(207,24,94);stop-opacity:1"/></linearGradient>
        <linearGradient id="_Linear2" x1="0" y1="0" x2="1" y2="0" gradientUnits="userSpaceOnUse" gradientTransform="matrix(3.75264e-15,22.1227,-61.2853,1.35463e-15,2111.71,1525.1)"><stop offset="0" style="stop-color:rgb(227,30,105);stop-opacity:1"/><stop offset="1" style="stop-color:rgb(168,0,64);stop-opacity:1"/></linearGradient>
    </defs>
</svg>
