<?xml version="1.0" standalone="no"?><!-- Generator: Gravit.io --><svg xmlns="http://www.w3.org/2000/svg" xmlns:xlink="http://www.w3.org/1999/xlink" style="isolation:isolate" viewBox="510 210 16 16" width="16" height="16"><path d=" M 518 210 C 513.585 210 510 213.585 510 218 C 510 222.415 513.585 226 518 226 C 522.415 226 526 222.415 526 218 C 526 213.585 522.415 210 518 210 Z  M 518 210.64 C 522.069 210.64 525.36 213.931 525.36 218 C 525.36 222.069 522.069 225.36 518 225.36 C 513.931 225.36 510.64 222.069 510.64 218 C 510.64 213.931 513.931 210.64 518 210.64 Z  M 518.09 214 C 516.896 214 516.103 214.729 515.93 215.83 C 515.919 215.899 515.961 215.939 516.03 215.95 L 516.75 216.08 C 516.819 216.091 516.868 216.059 516.88 215.99 C 517.018 215.29 517.427 214.9 518.07 214.9 C 518.725 214.9 519.18 215.316 519.18 215.97 C 519.18 216.36 519.041 216.619 518.64 217.17 L 517.87 218.23 C 517.629 218.563 517.53 218.8 517.53 219.26 L 517.53 219.73 C 517.53 219.799 517.581 219.841 517.65 219.84 L 518.4 219.84 C 518.469 219.84 518.52 219.799 518.52 219.73 L 518.52 219.36 C 518.52 218.97 518.59 218.81 518.82 218.5 L 519.58 217.45 C 519.97 216.91 520.17 216.501 520.17 215.95 C 520.17 214.814 519.329 214 518.09 214 Z  M 517.59 220.72 C 517.521 220.72 517.47 220.761 517.47 220.83 L 517.47 221.82 C 517.47 221.889 517.52 221.93 517.59 221.93 L 518.46 221.93 C 518.529 221.93 518.58 221.889 518.58 221.82 L 518.58 220.83 C 518.58 220.761 518.529 220.72 518.46 220.72 L 517.59 220.72 Z " fill="rgb(166,166,166)"/></svg>