<?xml version="1.0" standalone="no"?><!-- Generator: Gravit.io --><svg xmlns="http://www.w3.org/2000/svg" xmlns:xlink="http://www.w3.org/1999/xlink" style="isolation:isolate" viewBox="184 142 21.844 21" width="21.844" height="21"><path d=" M 189.156 148.094 L 197.547 142.047 C 197.594 142 197.594 142 197.594 142 C 197.641 142 197.641 142 197.641 142 C 197.688 142 197.688 142 197.688 142 C 197.688 142 197.734 142 197.734 142 C 197.734 142 197.781 142.047 197.781 142.047 C 197.828 142.047 197.828 142.047 197.828 142.094 L 205.094 151.703 L 205.609 151.703 C 205.656 151.703 205.656 151.703 205.703 151.703 C 205.797 151.75 205.844 151.797 205.844 151.891 C 205.844 151.938 205.844 151.938 205.797 151.984 L 201.484 162.859 C 201.484 162.859 201.438 162.906 201.438 162.906 C 201.438 162.953 201.391 163 201.297 163 C 201.297 163 201.297 163 201.297 163 L 184.234 163 C 184.188 163 184.188 163 184.141 163 C 184.094 162.953 184 162.859 184 162.813 C 184 162.813 184 162.766 184 162.766 L 184 148.281 C 184 148.234 184 148.234 184.047 148.188 C 184.047 148.141 184.094 148.094 184.141 148.047 C 184.188 148.047 184.188 148.047 184.234 148.047 L 189.156 148.047 L 189.156 148.094 Z  M 204.578 151.703 L 197.641 142.516 L 189.391 148.422 L 184.516 151.938 L 184.516 161.359 L 188.078 151.563 C 188.078 151.563 188.078 151.563 188.078 151.563 C 188.125 151.516 188.172 151.469 188.219 151.469 C 188.219 151.422 188.266 151.469 188.266 151.422 L 191.031 151.469 L 190 150.297 L 190.328 150.016 L 191.594 151.516 L 194.219 151.516 L 191.969 148.844 L 192.25 148.563 C 193.094 149.547 194.828 151.563 194.828 151.563 L 197.313 151.563 L 193.844 147.297 L 194.172 147.063 C 195.391 148.516 197.875 151.563 197.875 151.563 L 200.359 151.609 L 195.719 145.844 L 196.047 145.609 C 197.641 147.578 200.922 151.609 200.922 151.609 L 204.578 151.703 Z " fill="rgb(255,255,255)"/></svg>