<?xml version="1.0" standalone="no"?><!-- Generator: Gravit.io --><svg xmlns="http://www.w3.org/2000/svg" xmlns:xlink="http://www.w3.org/1999/xlink" style="isolation:isolate" viewBox="413.336 702.129 10.018 10.071" width="10.018" height="10.071"><path d=" M 419.927 706.136 L 423.354 706.136 L 423.354 702.709 L 422.174 703.895 C 422.084 703.79 421.987 703.688 421.889 703.589 C 419.92 701.631 416.742 701.644 414.792 703.619 C 412.839 705.594 412.852 708.782 414.822 710.74 C 416.789 712.698 419.966 712.685 421.919 710.71 C 421.919 710.71 422.571 709.937 422.787 709.524 L 421.703 709.046 C 421.544 709.327 421.079 709.875 421.079 709.875 C 419.586 711.386 417.158 711.396 415.655 709.898 C 414.148 708.402 414.138 705.963 415.632 704.455 C 417.122 702.943 419.55 702.933 421.056 704.432 C 421.156 704.531 421.249 704.636 421.336 704.743 L 419.927 706.136 Z " fill-rule="evenodd" fill="rgb(255,255,255)"/></svg>