<?xml version="1.0" standalone="no"?><!-- Generator: Gravit.io --><svg xmlns="http://www.w3.org/2000/svg" xmlns:xlink="http://www.w3.org/1999/xlink" style="isolation:isolate" viewBox="607 787 16 16" width="16" height="16"><path d=" M 615 787 C 610.585 787.007 607.007 790.585 607 795 C 607.007 799.415 610.585 802.993 615 803 C 619.415 802.993 622.993 799.415 623 795 C 622.993 790.585 619.415 787.007 615 787 L 615 787 Z  M 615 788.231 C 618.745 788.231 621.769 791.255 621.769 795 C 621.769 798.745 618.745 801.769 615 801.769 C 613.204 801.772 611.481 801.059 610.211 799.789 C 608.941 798.519 608.228 796.796 608.231 795 C 608.231 791.255 611.255 788.231 615 788.231 Z  M 614.385 790.692 L 614.385 791.923 L 615.615 791.923 L 615.615 790.692 L 614.385 790.692 Z  M 614.385 793.154 L 614.385 799.308 L 615.615 799.308 L 615.615 793.154 L 614.385 793.154 Z " fill="rgb(166,166,166)"/></svg>