<?xml version="1.0" standalone="no"?><!-- Generator: Gravit.io --><svg xmlns="http://www.w3.org/2000/svg" xmlns:xlink="http://www.w3.org/1999/xlink" style="isolation:isolate" viewBox="553.706 1214.732 40.575 40.896" width="40.575" height="40.896"><g id="Group"><defs><filter id="b4VZibuwggSUBEdOVGRjJCjHhh8RzjgL" x="-200%" y="-200%" width="400%" height="400%"><feOffset xmlns="http://www.w3.org/2000/svg" in="SourceAlpha" result="offOut" dx="0" dy="1"/><feGaussianBlur xmlns="http://www.w3.org/2000/svg" in="offOut" result="blurOut" stdDeviation="1"/><feComponentTransfer xmlns="http://www.w3.org/2000/svg" in="blurOut" result="opacOut"><feFuncA xmlns="http://www.w3.org/2000/svg" type="table" tableValues="0 0.5"/></feComponentTransfer><feBlend xmlns="http://www.w3.org/2000/svg" in="SourceGraphic" in2="opacOut" mode="normal"/></filter><linearGradient id="_lgradient_0" x1="0.542923280252392" y1="0.05177981428333933" x2="0.5429232802523921" y2="0.9933131309212799"><stop offset="2.1739130434782608%" style="stop-color:#A540E8"/><stop offset="98.26086956521739%" style="stop-color:#7D27B7"/></linearGradient></defs><g filter="url(#b4VZibuwggSUBEdOVGRjJCjHhh8RzjgL)"><path d="M 565.706 1215.732 L 582.282 1215.732 C 587.801 1215.732 592.282 1220.213 592.282 1225.732 L 592.282 1242.629 C 592.282 1248.148 587.801 1252.629 582.282 1252.629 L 565.706 1252.629 C 560.187 1252.629 555.706 1248.148 555.706 1242.629 L 555.706 1225.732 C 555.706 1220.213 560.187 1215.732 565.706 1215.732 Z" style="stroke:none;fill:url(#_lgradient_0);stroke-miterlimit:10;"/></g><path d=" M 572.908 1228.387 L 582.567 1228.387 C 583.428 1228.387 584.126 1229.085 584.126 1229.946 L 584.126 1241.002 C 584.126 1241.863 583.428 1242.562 582.567 1242.562 L 565.421 1242.562 C 564.56 1242.562 563.861 1241.863 563.861 1241.002 L 563.861 1231.435 L 563.861 1229.946 L 563.861 1226.995 C 563.861 1226.335 564.397 1225.8 565.057 1225.8 L 571.712 1225.8 C 572.372 1225.8 572.908 1226.335 572.908 1226.995 L 572.908 1228.387 Z " fill="rgb(255,255,255)"/><path d=" M 571.292 1232.683 L 571.292 1231.486 C 571.292 1231.273 571.12 1231.101 570.908 1231.101 L 570.908 1231.101 C 570.696 1231.101 570.523 1231.273 570.523 1231.486 L 570.529 1233.696 C 570.529 1233.798 570.57 1233.896 570.642 1233.968 C 570.714 1234.04 570.812 1234.081 570.914 1234.081 L 573.125 1234.087 L 573.125 1234.087 C 573.337 1234.087 573.509 1233.915 573.509 1233.702 C 573.509 1233.49 573.337 1233.318 573.125 1233.318 L 571.746 1233.318 C 572.789 1232.377 574.325 1232.228 575.53 1232.952 C 576.734 1233.676 577.324 1235.102 576.983 1236.465 C 576.641 1237.828 575.449 1238.807 574.045 1238.878 C 572.642 1238.948 571.357 1238.093 570.881 1236.771 C 570.809 1236.572 570.589 1236.468 570.389 1236.54 C 570.189 1236.612 570.085 1236.832 570.157 1237.032 C 570.748 1238.666 572.333 1239.725 574.069 1239.645 C 574.936 1239.605 575.74 1239.285 576.383 1238.765 C 577.025 1238.245 577.505 1237.525 577.724 1236.685 C 578.163 1235.004 577.457 1233.233 575.982 1232.316 C 574.507 1231.398 572.606 1231.547 571.292 1232.683 L 571.292 1232.683 Z " fill="rgb(145,51,207)" vector-effect="non-scaling-stroke" stroke-width="0.597" stroke="rgb(143,51,206)" stroke-linejoin="miter" stroke-linecap="butt" stroke-miterlimit="4"/></g></svg>