<?xml version="1.0" standalone="no"?><!-- Generator: Gravit.io --><svg xmlns="http://www.w3.org/2000/svg" xmlns:xlink="http://www.w3.org/1999/xlink" style="isolation:isolate" viewBox="356.25 278.606 18.318 22" width="18.318" height="22"><g id="Group"><path d=" M 359.477 298.185 L 364.5 298.185 C 364.233 297.506 364.063 296.754 364.063 295.977 C 364.063 292.751 366.683 290.106 369.934 290.106 C 370.783 290.106 371.56 290.276 372.288 290.616 L 372.288 283.555 L 369.109 283.555 C 369.109 283.531 369.109 283.482 369.109 283.458 C 369.109 280.789 366.926 278.606 364.257 278.606 C 361.588 278.606 359.405 280.789 359.405 283.458 C 359.405 283.482 359.405 283.531 359.405 283.555 L 356.25 283.555 L 356.25 295.08 C 356.25 296.754 357.779 298.185 359.477 298.185 Z  M 364.257 280.377 C 365.955 280.377 367.314 281.76 367.314 283.434 C 367.314 283.458 367.314 283.507 367.314 283.531 L 361.2 283.531 C 361.2 283.507 361.2 283.458 361.2 283.434 C 361.2 281.76 362.583 280.377 364.257 280.377 Z  M 365.276 295.977" fill="rgb(255,255,255)"/><path d=" M 364.524 298.18 M 374.568 295.972 C 374.568 293.424 372.506 291.338 369.934 291.338 C 367.387 291.338 365.3 293.4 365.3 295.972 C 365.3 298.543 367.363 300.606 369.934 300.606 C 372.506 300.606 374.568 298.519 374.568 295.972 Z  M 372.118 295.171 L 369.716 297.573 C 369.498 297.791 369.158 297.791 368.94 297.573 L 367.775 296.408 C 367.678 296.311 367.605 296.166 367.605 296.02 C 367.605 295.875 367.654 295.729 367.775 295.632 C 367.993 295.414 368.333 295.414 368.551 295.632 L 369.328 296.408 L 371.342 294.395 C 371.56 294.176 371.9 294.176 372.118 294.395 C 372.215 294.492 372.288 294.637 372.288 294.783 C 372.288 294.928 372.239 295.05 372.118 295.171 Z " fill="rgb(255,255,255)"/></g></svg>