<?xml version="1.0" standalone="no"?><!-- Generator: Gravit.io --><svg xmlns="http://www.w3.org/2000/svg" xmlns:xlink="http://www.w3.org/1999/xlink" style="isolation:isolate" viewBox="2020.055 -247.709 18 18" width="18" height="18"><g id="Descending"><path d=" M 2027.482 -243.632 L 2037.523 -243.632 C 2037.637 -243.632 2037.729 -243.724 2037.729 -243.838 L 2037.729 -245.06 C 2037.729 -245.173 2037.637 -245.265 2037.523 -245.265 L 2027.482 -245.265 C 2027.368 -245.265 2027.276 -245.173 2027.276 -245.06 L 2027.276 -243.838 C 2027.276 -243.724 2027.368 -243.632 2027.482 -243.632 Z  M 2027.492 -239.806 L 2035.764 -239.806 C 2035.883 -239.806 2035.979 -239.902 2035.979 -240.021 L 2035.979 -241.223 C 2035.979 -241.342 2035.883 -241.439 2035.764 -241.439 L 2027.492 -241.439 C 2027.373 -241.439 2027.276 -241.342 2027.276 -241.223 L 2027.276 -240.021 C 2027.276 -239.902 2027.373 -239.806 2027.492 -239.806 Z  M 2027.463 -235.979 L 2033.647 -235.979 C 2033.751 -235.979 2033.835 -236.063 2033.835 -236.166 L 2033.835 -237.425 C 2033.835 -237.528 2033.751 -237.612 2033.647 -237.612 L 2027.463 -237.612 C 2027.36 -237.612 2027.276 -237.528 2027.276 -237.425 L 2027.276 -236.166 C 2027.276 -236.063 2027.36 -235.979 2027.463 -235.979 Z  M 2027.482 -232.153 L 2031.414 -232.153 C 2031.527 -232.153 2031.62 -232.245 2031.62 -232.358 L 2031.62 -233.58 C 2031.62 -233.694 2031.527 -233.786 2031.414 -233.786 L 2027.482 -233.786 C 2027.368 -233.786 2027.276 -233.694 2027.276 -233.58 L 2027.276 -232.358 C 2027.276 -232.245 2027.368 -232.153 2027.482 -232.153 Z  M 2023.214 -232.153 L 2025.862 -235.371 L 2025.862 -235.371 C 2026.213 -235.797 2026.049 -236.143 2025.497 -236.143 L 2023.936 -236.143 L 2023.936 -245.265 L 2023.214 -245.265 L 2023.214 -245.265 L 2022.491 -245.265 L 2022.491 -236.143 L 2020.93 -236.143 C 2020.378 -236.143 2020.215 -235.797 2020.565 -235.371 L 2020.565 -235.371 L 2023.214 -232.153 Z " fill-rule="evenodd" fill="rgb(55,55,55)"/><rect x="2020.055" y="-247.709" width="18" height="18" transform="matrix(1,0,0,1,0,0)" fill="none"/></g></svg>