<?xml version="1.0" standalone="no"?><!-- Generator: Gravit.io --><svg xmlns="http://www.w3.org/2000/svg" xmlns:xlink="http://www.w3.org/1999/xlink" style="isolation:isolate" viewBox="2020.055 -275.867 18 18" width="18" height="18"><g id="Ascending"><path d=" M 2027.482 -261.943 L 2037.523 -261.943 C 2037.637 -261.943 2037.729 -261.851 2037.729 -261.738 L 2037.729 -260.516 C 2037.729 -260.403 2037.637 -260.31 2037.523 -260.31 L 2027.482 -260.31 C 2027.368 -260.31 2027.276 -260.403 2027.276 -260.516 L 2027.276 -261.738 C 2027.276 -261.851 2027.368 -261.943 2027.482 -261.943 Z  M 2027.492 -265.77 L 2035.764 -265.77 C 2035.883 -265.77 2035.979 -265.673 2035.979 -265.554 L 2035.979 -264.353 C 2035.979 -264.234 2035.883 -264.137 2035.764 -264.137 L 2027.492 -264.137 C 2027.373 -264.137 2027.276 -264.234 2027.276 -264.353 L 2027.276 -265.554 C 2027.276 -265.673 2027.373 -265.77 2027.492 -265.77 Z  M 2027.463 -269.596 L 2033.647 -269.596 C 2033.751 -269.596 2033.835 -269.512 2033.835 -269.409 L 2033.835 -268.151 C 2033.835 -268.047 2033.751 -267.963 2033.647 -267.963 L 2027.463 -267.963 C 2027.36 -267.963 2027.276 -268.047 2027.276 -268.151 L 2027.276 -269.409 C 2027.276 -269.512 2027.36 -269.596 2027.463 -269.596 Z  M 2027.482 -273.423 L 2031.414 -273.423 C 2031.527 -273.423 2031.62 -273.331 2031.62 -273.217 L 2031.62 -271.995 C 2031.62 -271.882 2031.527 -271.79 2031.414 -271.79 L 2027.482 -271.79 C 2027.368 -271.79 2027.276 -271.882 2027.276 -271.995 L 2027.276 -273.217 C 2027.276 -273.331 2027.368 -273.423 2027.482 -273.423 Z  M 2023.214 -273.423 L 2025.862 -270.205 L 2025.862 -270.205 C 2026.213 -269.779 2026.049 -269.433 2025.497 -269.433 L 2023.936 -269.433 L 2023.936 -260.31 L 2023.214 -260.31 L 2023.214 -260.31 L 2022.492 -260.31 L 2022.492 -269.433 L 2020.93 -269.433 C 2020.378 -269.433 2020.215 -269.779 2020.565 -270.205 L 2020.565 -270.205 L 2023.214 -273.423 Z " fill-rule="evenodd" fill="rgb(55,55,55)"/><rect x="2020.055" y="-275.867" width="18" height="18" transform="matrix(1,0,0,1,0,0)" fill="none"/></g></svg>