<?xml version="1.0" encoding="UTF-8" standalone="no"?>
<!DOCTYPE svg PUBLIC "-//W3C//DTD SVG 1.1//EN" "http://www.w3.org/Graphics/SVG/1.1/DTD/svg11.dtd">
<svg width="100%" height="100%" viewBox="0 0 12 12" version="1.1" xmlns="http://www.w3.org/2000/svg" xmlns:xlink="http://www.w3.org/1999/xlink" xml:space="preserve" style="fill-rule:evenodd;clip-rule:evenodd;stroke-linejoin:round;stroke-miterlimit:1.41421;">
    <g transform="matrix(1,0,0,1,-8018.22,-9609.35)">
        <g transform="matrix(1,0,0,1,1.6291,1.69182)">
            <g transform="matrix(1,0,0,1,0,0.282973)">
                <g transform="matrix(1,0,0,1,-10.4612,0.985034)">
                    <path d="M8033.06,9610.98L8035.53,9608.5L8036.95,9609.92L8034.47,9612.39L8036.95,9614.87L8035.53,9616.28L8033.06,9613.81L8030.58,9616.28L8029.17,9614.87L8031.64,9612.39L8029.17,9609.92L8030.58,9608.5L8033.06,9610.98Z" style="fill:rgb(199,199,199);"/>
                </g>
                <g transform="matrix(1.04187,0,0,1.04187,-292.883,-405.174)">
                    <rect x="7975.54" y="9610.17" width="11.518" height="11.518" style="fill:white;fill-opacity:0;"/>
                </g>
            </g>
        </g>
    </g>
</svg>
