<?xml version="1.0" standalone="no"?><!-- Generator: Gravit.io --><svg xmlns="http://www.w3.org/2000/svg" xmlns:xlink="http://www.w3.org/1999/xlink" style="isolation:isolate" viewBox="61.365 45.976 25 25" width="18" height="18"><g><rect x="61.365" y="45.976" width="18" height="18" transform="matrix(1,0,0,1,0,0)" fill="none"/><path d=" M 70.038 50.136 L 68.292 50.136 L 68.292 50.136 C 67.305 50.136 66.504 50.937 66.504 51.923 L 66.504 65.029 C 66.504 66.016 67.305 66.817 68.292 66.817 L 70.038 66.817 L 70.038 64.815 L 68.505 64.815 L 68.505 52.138 L 68.505 52.138 L 70.038 52.138 L 70.038 50.136 L 70.038 50.136 Z  M 65.326 52.282 L 63.891 52.282 L 63.891 52.282 C 62.88 52.282 62.06 53.102 62.06 54.113 L 62.06 62.84 C 62.06 63.85 62.88 64.671 63.891 64.671 L 65.326 64.671 L 65.326 62.925 L 63.716 62.925 L 63.716 54.028 L 63.716 54.028 L 65.326 54.028 L 65.326 52.282 L 65.326 52.282 Z  M 73.143 50.526 L 83.744 50.526 L 83.744 66.667 L 73.143 66.667 L 73.143 50.526 L 73.143 50.526 Z  M 73.127 48.217 L 83.76 48.217 C 84.814 48.217 85.671 49.074 85.671 50.129 L 85.671 66.824 C 85.671 67.879 84.814 68.735 83.76 68.735 L 73.127 68.735 C 72.072 68.735 71.216 67.879 71.216 66.824 L 71.216 50.129 C 71.216 49.074 72.072 48.217 73.127 48.217 L 73.127 48.217 Z " fill-rule="evenodd" fill="rgb(117,117,117)"/></g></svg>