<?xml version="1.0" standalone="no"?><!-- Generator: Gravit.io -->
<svg xmlns="http://www.w3.org/2000/svg" xmlns:xlink="http://www.w3.org/1999/xlink" style="isolation:isolate"
     viewBox="250.519 225.803 16 16" width="16" height="16">
    <path d=" M 264.283 241.803 L 258.519 241.803 L 252.754 241.803 C 250.828 241.803 249.984 240.417 250.872 238.709 L 253.891 232.897 L 256.911 227.084 C 257.798 225.376 259.239 225.376 260.126 227.084 L 263.146 232.897 L 266.166 238.709 C 267.053 240.417 266.21 241.803 264.283 241.803 Z  M 258.493 236.833 C 258.058 235.675 257.749 234.677 257.458 233.483 C 257.182 232.351 256.878 231.305 256.847 230.228 C 256.845 230.199 256.844 230.17 256.844 230.141 C 256.844 230.135 256.844 230.128 256.845 230.122 C 256.845 230.117 256.844 230.111 256.844 230.106 L 256.845 230.106 C 256.865 229.29 257.596 228.634 258.493 228.634 C 259.39 228.634 260.121 229.29 260.141 230.106 L 260.142 230.106 C 260.142 230.111 260.142 230.117 260.141 230.122 C 260.142 230.128 260.142 230.135 260.142 230.141 C 260.142 230.169 260.141 230.197 260.139 230.225 C 260.109 231.304 259.805 232.35 259.528 233.483 C 259.237 234.677 258.928 235.675 258.493 236.833 Z  M 256.87 238.771 C 256.87 237.933 257.614 237.253 258.531 237.253 C 259.448 237.253 260.193 237.933 260.193 238.771 C 260.193 239.609 259.448 240.289 258.531 240.289 C 257.614 240.289 256.87 239.609 256.87 238.771 Z "
          fill-rule="evenodd"/>
</svg>