<svg width="19" height="19" fill="none" xmlns="http://www.w3.org/2000/svg"><path fill-rule="evenodd" clip-rule="evenodd" d="M16.61 10.502c0-.286.097-.572.097-.954s0-.669-.097-.955l2.036-1.623c.193-.191.193-.382.096-.573l-1.938-3.342c-.097-.095-.29-.19-.581-.095l-2.423.955c-.485-.382-1.066-.669-1.648-.955L11.765.477C11.862.191 11.57 0 11.377 0H7.5c-.193 0-.484.191-.484.382L6.628 2.96c-.581.19-1.066.573-1.647.955L2.655 2.96c-.291-.096-.485 0-.679.19L.038 6.493c-.097.096 0 .382.194.573l2.035 1.528c0 .286-.097.573-.097.955s0 .668.097.954L.232 12.127c-.194.19-.194.382-.097.572l1.938 3.342c.097.096.291.191.582.096l2.423-.955c.484.382 1.066.668 1.647.955l.388 2.482c0 .191.194.382.484.382h3.877c.194 0 .485-.191.485-.382l.387-2.482c.582-.287 1.163-.573 1.648-.955l2.423.955c.193.095.484 0 .581-.191l1.938-3.342c.097-.19.097-.477-.097-.573l-2.229-1.527ZM9.5 13C7.6 13 6 11.4 6 9.5S7.6 6 9.5 6 13 7.6 13 9.5 11.4 13 9.5 13Z" fill="#fff"/></svg>