<svg version="1.0" xmlns="http://www.w3.org/2000/svg"
 width="457.000000pt" height="457.000000pt" viewBox="0 0 457.000000 457.000000"
 preserveAspectRatio="xMidYMid meet">
<g transform="translate(0.000000,457.000000) scale(0.100000,-0.100000)"
fill="#000" stroke="none">
<path d="M500 3858 c1 -18 9 -57 19 -87 l19 -55 -59 -61 c-51 -54 -62 -72 -88
-152 -34 -103 -67 -172 -152 -319 -33 -55 -59 -108 -59 -116 0 -22 75 -135 99
-147 11 -6 27 -8 36 -5 9 4 27 1 41 -6 21 -12 27 -11 45 5 11 11 30 41 41 67
13 30 43 69 78 101 49 46 75 60 185 101 103 39 129 46 136 35 14 -22 57 -167
89 -304 17 -71 43 -155 57 -189 21 -50 29 -95 44 -251 25 -262 39 -313 104
-390 39 -45 55 -75 65 -115 7 -30 35 -125 62 -210 26 -85 55 -198 64 -250 8
-52 29 -147 46 -210 27 -97 32 -133 32 -230 1 -167 -13 -200 -115 -285 -52
-43 -79 -72 -77 -83 7 -35 128 -55 177 -29 18 9 28 26 36 65 7 29 22 62 33 72
23 22 28 58 37 250 8 194 17 290 25 285 4 -2 18 -39 31 -82 20 -66 24 -99 24
-213 -1 -158 -7 -178 -83 -261 -29 -31 -52 -59 -52 -62 0 -9 90 -27 139 -27
57 0 64 8 75 82 4 28 15 53 25 60 28 21 30 38 15 174 -34 324 -47 516 -48 726
-1 124 2 229 5 233 7 7 540 37 654 37 114 0 647 -30 654 -37 3 -4 6 -109 5
-233 -1 -210 -14 -402 -48 -726 -15 -136 -13 -153 15 -174 10 -7 21 -32 25
-60 11 -74 18 -82 75 -82 49 0 139 18 139 27 0 3 -23 31 -52 62 -76 83 -82
103 -83 261 0 114 4 147 24 213 13 43 27 80 31 82 8 5 17 -91 25 -285 9 -192
14 -228 37 -250 11 -10 26 -43 33 -72 8 -39 18 -56 36 -65 49 -26 170 -6 177
29 2 11 -25 40 -77 83 -102 85 -116 118 -115 285 0 97 5 133 32 230 17 63 38
158 46 210 9 52 38 165 64 250 27 85 55 180 62 210 10 40 26 70 65 115 65 77
79 128 104 390 15 156 23 201 44 251 14 34 40 118 57 189 32 137 75 282 89
304 7 11 33 4 136 -35 110 -41 136 -55 185 -101 35 -32 65 -71 78 -101 11 -26
30 -56 41 -67 18 -16 24 -17 45 -5 14 7 32 10 41 6 9 -3 25 -1 36 5 24 12 99
125 99 147 0 8 -26 61 -59 116 -85 147 -118 216 -152 319 -26 80 -37 98 -88
152 l-59 61 19 55 c19 56 25 119 11 119 -5 0 -23 -22 -41 -50 -32 -49 -57 -66
-47 -32 12 45 17 82 10 82 -5 0 -31 -23 -59 -50 l-51 -50 -100 -10 c-139 -13
-186 -25 -281 -70 -166 -80 -256 -165 -460 -430 -45 -58 -91 -115 -104 -127
-31 -28 -130 -77 -199 -97 -266 -79 -762 -68 -990 21 -95 38 -138 70 -205 155
-33 41 -100 126 -149 188 -105 132 -210 220 -341 285 -102 50 -146 62 -289 75
l-100 10 -51 50 c-28 27 -54 50 -59 50 -7 0 -2 -37 10 -82 10 -34 -15 -17 -47
32 -18 28 -36 50 -41 50 -4 0 -8 -15 -8 -32z"/>
</g>
</svg>
