<svg height="48" viewBox="0 0 1024 1024" width="48" xmlns="http://www.w3.org/2000/svg"><g fill="#2c2c2c"><path d="m351.12 597.252 141.953 113.563 208.197-274.442-146.684-108.83zm383.272-255.514-94.635-70.977c-4.731-4.731-14.195-9.463-23.658-4.731-9.464 0-14.196 4.731-23.66 14.195l-18.926 23.659 146.684 108.83 18.927-23.659c14.195-18.927 9.464-37.854-4.732-47.317zm-435.32 468.442 170.342-70.976-141.952-104.099z"/><path d="m502.536 999.451c-260.246 0-473.175-212.928-473.175-473.175s212.93-473.175 473.175-473.175 473.176 212.929 473.176 473.175-212.93 473.175-473.176 473.175zm0-884.837c-227.124 0-411.662 184.538-411.662 411.662s184.538 411.664 411.662 411.664 411.664-184.54 411.664-411.664-184.539-411.662-411.664-411.662z"/></g></svg>