<svg height="16" viewBox="0 0 1024 1024" width="16" xmlns="http://www.w3.org/2000/svg"><path d="m512.72916667 280.53125c-42.65625-.09375001-77.0625-34.50000001-76.96875-77.25.09375-42.56249999 34.6875-77.15625 77.34375-77.0625 42.46875 0 77.0625 34.78125 76.96875 77.4375-.09375 42.56249999-34.59375 76.875-77.34375 76.875zm77.24999999 540.9375c0 42.65624999-34.5 77.34375-77.06249999 77.34375-42.56249999.09375-77.25-34.5-77.25-77.15625 0-42.75000001 34.3125-77.25 77.0625-77.25s77.25 34.3125 77.24999999 77.0625zm-154.31249999-309.09375c0-42.56249999 34.96875-77.4375 77.25-77.25 42.65625.28125 77.0625 34.78125 77.0625 77.4375 0 42.56249999-34.78125 77.34375-77.25 77.15625-42.56249999-.09375-77.0625-34.6875-77.0625-77.34375z" fill="#515151"/></svg>