<?xml version="1.0" standalone="no"?><!DOCTYPE svg PUBLIC "-//W3C//DTD SVG 1.1//EN" "http://www.w3.org/Graphics/SVG/1.1/DTD/svg11.dtd"><svg t="1590725448800" class="icon" viewBox="0 0 1024 1024" version="1.1" xmlns="http://www.w3.org/2000/svg" p-id="2606" width="32" height="32" xmlns:xlink="http://www.w3.org/1999/xlink"><defs><style type="text/css"></style></defs><path d="M511.95 0C229.178 0 0 229.178 0 511.95s229.178 511.95 511.95 511.95 511.95-229.178 511.95-511.95S794.622 0 511.95 0z m0 947.108c-240.377 0-435.157-194.781-435.157-435.158S271.573 76.793 511.95 76.793s435.158 194.78 435.158 435.157S752.227 947.108 511.95 947.108z m97.99-300.271c-12.398 0-61.094 71.893-87.691 71.893-7.1 0-10.599-5.9-10.599-11.799 0-13.499 9.7-34.697 14.999-47.395l63.793-164.984c31.897-82.092-8.899-104.09-46.895-104.09-51.395 0-97.39 24.497-132.887 56.694-11.499 11-40.096 53.695-40.096 69.894 0 5.399 5.4 11.698 11.699 11.698 16.198 0 47.895-82.492 80.592-82.492 7.1 0 15.098 7.6 8.899 22.798L409.76 617.94c-6.2 14.398-36.296 63.693-36.296 104.39 0 32.096 22.097 66.593 53.994 66.593 89.492 0 193.081-104.89 193.081-129.487 0-7.5-6.199-12.6-10.599-12.6z m-17.798-412.06c-38.996 0-72.593 30.497-72.593 67.693 0 34.697 23.898 57.595 60.194 57.595 39.796 0 73.493-28.797 73.493-67.694 0.1-34.696-25.597-57.594-61.094-57.594z" fill="" p-id="2607"></path></svg>