<svg viewBox="0 0 96 32" xmlns="http://www.w3.org/2000/svg"><g><path d="M2.688370664105155,4.766925069762853 C2.6085016583683296,3.757093117917437 2.9889300542085238,2.7671211610740585 3.7170982919985676,2.0886894330905568 C4.506143880230016,1.3535384966719737 5.644774860294606,1.0551509204224734 6.820074389466406,1.0730298635377689 C7.9621788286680015,1.0904038348475344 9.062481249758095,1.4068285310406354 9.832963012123617,2.130084358441956 C10.555745508123278,2.8085645999086286 10.939251715509798,3.7829463717795155 10.846844895507576,4.766925069762853 C10.772163191230442,5.562160812492934 10.38516126190605,6.311163966523224 9.784000012999524,6.866048580167509 C9.009558841327124,7.580874246517943 7.934036349943072,7.920058479278824 6.820074389466406,7.944165169299309 C5.608105729300309,7.970392772971398 4.4353756685613615,7.621915139503426 3.6436537933123967,6.841769154951623 C3.0814575216020943,6.287792843804648 2.746167931630674,5.545545658890096 2.688370664105155,4.766925069762853 Z M80.6769422615491,24.172601592668133 L80.46176409831152,24.09780465818613 C79.74428994620375,25.482418048537824 78.71021507690881,26.61833328176846 77.46176201037667,27.48420719966585 C75.52622760221651,28.826611496748573 73.21505149595626,29.47395217683009 70.83213589065979,29.480837263070526 C68.35077227215561,29.488006800451252 65.79318379419955,28.672559544568767 64.10254683968165,27.3320004725795 C63.60000430589143,26.93351873412427 63.16943914481722,26.505231252835127 62.85080885871753,25.96279099437087 C62.21275362003057,26.89651018586161 61.39114017686428,27.6566014095695 60.447672827732646,28.231675625911357 C59.27609357247243,28.945791512085112 57.949407953012255,29.36369749391227 56.58229470299954,29.465423738190978 C54.98844518203242,29.58402132014836 53.405518143166034,29.283636500698428 52.155766383960795,28.429007427425464 C50.91649412174782,27.581544643567096 50.07694628111035,26.21078153141155 49.334152853360976,24.759782591518444 C48.61171420558158,23.348545398370575 48.03955057397101,21.874178967003317 47.56983179096742,20.351896581451562 L47.56983179096742,18.740592384351157 C48.719677759009045,18.355463371490526 49.76995157310293,17.798737619669904 50.66822250530533,17.012776427226573 C51.59808713668811,16.19917165800555 52.3655813447904,15.23098957503284 52.81049696639425,14.106159100374432 C53.12345619803049,13.314939228612829 53.278722908255986,12.50809318481898 52.930492377998654,11.997158682221365 C52.66102486618182,11.601787693311776 52.129823437603335,11.40226652561851 51.5288715749772,11.437094813035706 C50.42435272129737,11.501107427832453 49.240732849372904,12.338389527301972 48.35479484715316,13.507267829770479 C47.10347357182827,15.158221152102044 46.5345491599922,17.289095068194932 46.53460002785339,19.569658153790158 L46.53481337312816,29.134584747637053 L39.389093036451385,29.134584747637053 L39.38922789007344,25.050820615445556 L39.138920791743615,24.96611033887329 C38.00288894866349,27.140701599854314 36.21704038430866,28.673005926164425 34.07645862013501,29.28400640979239 C31.9883420665875,29.88003139956035 29.819569495146407,29.597032096480305 28.59867664540208,28.234942172161354 C27.678617231440136,27.20847727166267 27.426582713983485,25.620621123187778 27.426583845748052,23.765700094649812 L27.42658670812209,19.07437298481227 C27.426587837634784,17.22314269372053 27.340714639242687,15.592458665697944 26.66101125446951,14.880517879853663 C26.371841489486528,14.577633188771694 25.98900749395591,14.452840357858207 25.590732618470398,14.422746149105157 C25.03154301542873,14.380492997620376 24.47447191338391,14.53597876697725 24.010825981467864,14.929190198694478 C23.078805760514097,15.719623113647776 22.614245670502072,17.363071232958287 22.614245670502086,19.200303433959476 L22.61424567050215,29.134584747636982 L15.478322771032303,29.134584747636982 L15.477677367711607,25.090523811361845 L15.276791129068876,25.025380181286028 C14.454678862345649,26.63453265624707 13.33604750291114,27.99344117388633 11.911636768698518,28.767181554251774 C10.959941043100553,29.284142986112496 9.897637613699075,29.523788602796824 8.815675822589714,29.568191426556403 C7.14854839147602,29.636608967838153 5.534363602030321,29.242845125477753 4.520979514786742,28.197772308039102 C3.4147960144793683,27.056998220679162 3.124760287826604,25.213586740742958 3.1247602599594666,23.11285404244222 L3.1247601639351616,15.874170264717709 C3.1247601551626936,15.212867656458876 2.960703119848082,14.614300259877346 2.5962504218285076,14.156017451604 C2.1113575869905916,13.546286610623346 1.3160976056058886,13.223903215884912 0.420056608877205,13.215578220167526 L0.420056608877205,9.697713339383515 L10.189777039300612,9.697713339383515 L10.189776758948959,21.602894804217843 C10.189776736744681,22.545803282286776 10.374202069647236,23.31390552234008 10.885637218220182,23.621980744202936 C11.336909845499282,23.89381562914889 11.98181038093654,23.803029122744015 12.582021811673513,23.451872653000063 C13.597575220244096,22.857718440788197 14.337034532911156,21.583084561973156 14.765054581529395,20.156454443101573 C15.085582032569361,19.088107020930693 15.23708431557103,17.97825414933854 15.329194348894443,16.845125974719984 C15.454831674895125,15.299548487246417 15.478251030790162,13.732908617517282 15.478278931286102,12.168596797179475 L15.478323001063615,9.697713339383515 L20.04615553396044,9.697713339383478 L20.936277766690903,11.505588097537364 C22.35344118560774,9.796866167938601 24.263399498866022,8.78027874817215 26.32333953582999,8.557293045949239 C28.45026491057923,8.327056272182178 30.5650387793889,8.925782360680278 32.02165687089925,10.353311041368231 C33.40564132093522,11.70965661167756 34.06873799103331,13.718107206972661 34.06873799103331,15.975730558531534 L34.06873799103331,21.107793769944085 C34.06873799103331,22.183653000042238 34.22295590940677,23.05718792841379 34.76414489264716,23.400288645601222 C35.2030952521758,23.678572549797146 35.83773477946999,23.616206792800757 36.43102477449666,23.243350363641763 C37.61938024800822,22.496521692773744 38.40742736025579,20.623880030208504 38.850555216790845,18.55606764429679 C39.40747271584298,15.957267127724279 39.38927036854825,13.23363038721482 39.38922789007344,10.460527681566605 L39.389093036451385,1.6569407865708812 L46.53481337312816,1.6569407865708812 L46.53331058677823,6.351689722607038 C46.53286877607968,7.731919391976666 46.45906460393101,9.109348448119164 46.311897753630255,10.484966277365121 L46.5327953371299,10.566974432474794 C47.65415843295155,9.21689572535027 49.14414009462933,8.376162408347788 50.77259159896143,7.983395097830283 C53.4401072273648,7.340015214337147 56.10891634384787,7.8314983124791855 57.56741336047249,9.568986952026735 C58.51538071916084,10.698288210520026 58.84728894221694,12.242724807636165 58.57425760313451,13.792878698136809 C58.17047162336881,16.085400902975884 56.46679694255276,18.16511801772816 54.09574798675203,19.720968009192134 C54.36634856666268,20.65221516702533 54.71858862321791,21.54324629828446 55.20332554254731,22.36826123829652 C55.60695565097591,23.055233607046496 56.079636215657,23.68910699573652 56.71355982203398,24.096430459726303 C57.28242188563514,24.46194905525973 57.95219008481593,24.64633079174298 58.61455520052984,24.564404816137166 C59.55080838253639,24.44860243836964 60.42100873939312,23.825168130921245 61.06055566103837,22.909855853839353 C60.55527431624661,21.727429101428886 60.33986504821739,20.4744708127897 60.309079269449654,19.214833128157604 C60.237071936169365,16.26856526681757 61.07922953264022,13.457946902996298 62.9805201312248,11.466752549677254 C64.75675388989926,9.606528429766172 67.2900910820461,8.608601467337209 69.96364045625617,8.595729817508845 C71.88617075354723,8.586473905869488 73.76757431248203,9.091246919043488 75.08564754943238,10.300749663695001 C76.23366110981381,11.354200650524184 76.88780097683872,12.888313871912354 77.0493779486993,14.520702501399146 C77.17774683371725,15.817594662888608 76.9817488241492,17.12688228668818 76.43037539857859,18.308115681697632 C75.59505127341482,20.097670104418295 73.98856594448951,21.472665687272812 72.08064436405249,22.3828527809246 C70.93176956015287,22.930931396656618 69.6959590731045,23.269056314760682 68.39852479321499,23.339067755241896 C69.22650818658495,24.08234675906032 70.23105475616471,24.518060056594315 71.28957433543795,24.693399853021276 C72.8367533476965,24.949684250927017 74.4536343370896,24.626930891938134 75.8603602075621,23.855438911584386 C77.20231883586847,23.11946729022141 78.31298975766082,22.006661633554984 79.08595879261938,20.664051752531233 C79.81423143205166,19.39907735179934 80.22893844481153,17.965915462977318 80.44478058213437,16.48676974283524 C80.67810186701935,14.887841080266115 80.6773523429222,13.25919693538238 80.67754382512356,11.614033407197516 L80.6777668675013,9.697713339383515 L85.19099573376269,9.697713339383515 L86.11503898566738,11.464419927379259 C86.6216379711821,10.877936797286631 87.21539440474061,10.391393076606212 87.87336257413332,10.003517211302308 C88.83035342388587,9.439365826474255 89.87841617432844,9.079123742290687 90.94940115530316,9.065885746898687 C92.25859065849498,9.04970340548552 93.51176235054564,9.521918698615154 94.38389654314376,10.435024386415762 C95.20830456212049,11.298161799883676 95.62446758373542,12.487473374564802 95.5519592011385,13.709530813964248 C95.5000998400721,14.583569314395373 95.19193851308763,15.427637000695649 94.64081519500921,16.093264260070907 C94.04464907458393,16.813292623694956 93.20358639941989,17.277798012928866 92.29426389753094,17.355141577284126 C91.49062324368458,17.423496239684045 90.69462229309045,17.18000246109408 90.16304140495464,16.636078601514306 C89.77769213616284,16.241781766835913 89.55778962221767,15.709228716109537 89.54269523649145,15.155841384104951 C89.52668555197333,14.568897551979791 89.74125323846575,13.985550438561733 90.16328528845393,13.511683219528852 L89.81663123279456,12.987677649992792 C89.25625139029017,13.285074569810297 88.8228912726091,13.730796199778103 88.50948170520438,14.281107787768258 C87.98391021180304,15.203951610090217 87.82754193601721,16.401664055185122 87.82754193601721,17.64973462285309 L87.82754193601721,29.13458474763712 L80.67776686562338,29.13458474763712 L80.6769422615491,24.172601592668133 Z M66.95843176771113,20.482861339968128 C68.37025085852244,20.324967481062675 69.65554261397385,19.842981246266792 70.66848573785111,18.970245424033468 C71.53677104436666,18.222144496101432 72.16934449879516,17.26039405367637 72.29644011917878,16.190107831124195 C72.41473392914115,15.193942623906434 72.11259300905554,14.21984706987583 71.39535835829635,13.7487769803067 C70.79126629504803,13.352017423247979 69.96523292454049,13.360546851807417 69.22435203574351,13.709129382827866 C68.12293693356483,14.227342323432943 67.40131014042593,15.44923083697313 67.01009378866844,16.842491026003074 C66.67820228613252,18.02447438504037 66.66633496801317,19.254302126023 66.95843176771113,20.482861339968128 Z" fill="rgb(255,255,255)" opacity="1"/></g></svg>