<?xml version="1.0" standalone="no"?><!-- Generator: Gravit.io --><svg xmlns="http://www.w3.org/2000/svg" xmlns:xlink="http://www.w3.org/1999/xlink" style="isolation:isolate" viewBox="0 0 234.33 72.577" width="234.33" height="72.577"><defs><clipPath id="_clipPath_5yQb7jipLc9jYv8Gn0nryIQ5HjcD5lCk"><rect width="234.33" height="72.577"/></clipPath></defs><g clip-path="url(#_clipPath_5yQb7jipLc9jYv8Gn0nryIQ5HjcD5lCk)"><rect width="234.33" height="72.577" style="fill:rgb(0,0,0)" fill-opacity="0"/><g><g><radialGradient id="_rgradient_0" fx="0.5" fy="0.5" cx="0.5" cy="0.5" r="1" gradientTransform="matrix(54.407,0,0,54.348,0.005,0)" gradientUnits="userSpaceOnUse"><stop offset="0%" stop-opacity="1" style="stop-color:rgb(255,241,1)"/><stop offset="100%" stop-opacity="1" style="stop-color:rgb(230,218,26)"/></radialGradient><path d=" M 27.208 0 C 42.233 0 54.412 12.166 54.412 27.179 C 54.412 42.187 42.227 54.348 27.208 54.348 C 12.181 54.348 0.005 42.185 0.005 27.179 C 0.005 12.173 12.185 0 27.208 0 L 27.208 0 Z " fill-rule="evenodd" fill="url(#_rgradient_0)"/></g><g><path d=" M 53.938 32.224 C 50.934 34.43 47.851 36.884 45.163 39.402 C 39.061 45.129 35.55 49.611 31.647 53.981 C 42.911 52.137 51.837 43.386 53.938 32.224 Z " fill-rule="evenodd" fill="rgb(136,160,62)"/></g><g><linearGradient id="_lgradient_0" x1="0.00684108184550114" y1="0.7432097226550327" x2="0.8456454256269963" y2="-0.19227168647130022" gradientTransform="matrix(25.552,0,0,36.19,0.027,1.638)" gradientUnits="userSpaceOnUse"><stop offset="0%" stop-opacity="1" style="stop-color:rgb(207,220,94)"/><stop offset="100%" stop-opacity="1" style="stop-color:rgb(191,202,101)"/></linearGradient><path d=" M 17.835 8.464 L 0.027 28.388 C 0.174 31.727 0.921 34.907 2.168 37.828 C 9.971 25.763 17.774 13.699 25.579 1.638 C 22.998 3.916 20.415 6.194 17.835 8.461" fill-rule="evenodd" fill="url(#_lgradient_0)"/></g><g><path d=" M 0.185 24.028 C 0.068 25.062 0 26.109 0 27.175 C 0 27.581 0.011 27.985 0.03 28.388 L 17.838 8.464 C 11.955 13.652 6.072 18.842 0.186 24.027" fill-rule="evenodd" fill="rgb(136,160,62)"/></g><g><linearGradient id="_lgradient_1" x1="0.006841103710751639" y1="0.7432091346153846" x2="0.9944909609895339" y2="-0.025363653205737968" gradientTransform="matrix(23.736,0,0,23.458,0.235,0.198)" gradientUnits="userSpaceOnUse"><stop offset="0%" stop-opacity="1" style="stop-color:rgb(207,220,94)"/><stop offset="100%" stop-opacity="1" style="stop-color:rgb(191,202,101)"/></linearGradient><path d=" M 0.235 23.656 C 8.151 15.836 16.055 8.017 23.971 0.198 C 11.629 1.661 1.827 11.369 0.235 23.656 L 0.235 23.656 Z " fill-rule="evenodd" fill="url(#_lgradient_1)"/></g><g><linearGradient id="_lgradient_2" x1="0.3203395974711444" y1="0.9089681253376554" x2="0.7002062206160401" y2="-0.04509838298932556" gradientTransform="matrix(38.938,0,0,54.276,0.174,0.005)" gradientUnits="userSpaceOnUse"><stop offset="0%" stop-opacity="1" style="stop-color:rgb(217,25,99)"/><stop offset="100%" stop-opacity="1" style="stop-color:rgb(152,18,69)"/></linearGradient><path d=" M 23.917 0.198 C 16.001 8.019 8.119 15.836 0.208 23.656 C 0.192 23.78 0.189 23.904 0.174 24.028 C 6.057 18.841 11.948 13.653 17.832 8.465 C 20.412 6.187 22.999 3.909 25.578 1.642 C 17.775 13.703 9.972 25.765 2.169 37.833 L 2.175 37.839 C 2.395 38.358 2.638 38.866 2.891 39.366 C 2.944 39.472 2.998 39.576 3.052 39.68 C 3.298 40.156 3.556 40.625 3.831 41.083 L 3.874 41.162 C 4.174 41.656 4.489 42.139 4.816 42.613 L 4.978 42.839 C 5.268 43.249 5.57 43.651 5.881 44.045 C 5.934 44.11 5.983 44.174 6.035 44.237 C 6.403 44.692 6.782 45.136 7.175 45.562 L 7.203 45.591 C 7.583 46.002 7.978 46.403 8.381 46.786 L 8.566 46.961 C 9.417 47.761 10.317 48.506 11.265 49.194 L 11.401 49.29 C 11.873 49.628 12.354 49.949 12.846 50.254 L 12.861 50.265 C 13.896 50.908 14.978 51.483 16.102 51.985 L 16.175 52.019 C 17.298 52.515 18.456 52.938 19.655 53.282 L 19.705 53.299 C 21.519 53.812 23.409 54.15 25.362 54.28 C 25.437 38.659 30.823 19.151 39.112 2.737 C 35.516 0.988 31.425 0.005 27.157 0.005 C 26.507 0.005 24.487 0.106 23.92 0.203" fill-rule="evenodd" fill="url(#_lgradient_2)"/></g><path d=" M 81.097 21.151 C 81.49 21.151 81.851 21.131 82.18 21.088 C 82.509 21.046 82.818 20.982 83.11 20.897 C 83.402 20.813 83.675 20.711 83.933 20.591 C 84.191 20.472 84.448 20.335 84.706 20.181 L 84.706 16.531 L 82.449 16.531 C 82.32 16.531 82.217 16.49 82.139 16.405 C 82.061 16.32 82.022 16.216 82.022 16.093 L 82.022 14.823 L 86.495 14.823 L 86.495 21.175 C 86.129 21.475 85.748 21.736 85.352 21.96 C 84.955 22.183 84.531 22.37 84.08 22.52 C 83.63 22.67 83.147 22.782 82.632 22.855 C 82.117 22.928 81.558 22.964 80.954 22.964 C 79.897 22.964 78.928 22.759 78.046 22.347 C 77.165 21.935 76.406 21.357 75.77 20.615 C 75.132 19.871 74.636 18.98 74.28 17.941 C 73.924 16.901 73.746 15.758 73.746 14.511 C 73.746 13.248 73.921 12.097 74.269 11.058 C 74.619 10.018 75.117 9.127 75.764 8.384 C 76.412 7.641 77.194 7.065 78.113 6.657 C 79.031 6.249 80.06 6.045 81.199 6.045 C 81.775 6.045 82.31 6.093 82.805 6.19 C 83.299 6.286 83.759 6.424 84.183 6.605 C 84.606 6.787 84.997 7.006 85.357 7.264 C 85.716 7.522 86.052 7.812 86.363 8.136 L 85.804 9.152 C 85.689 9.36 85.54 9.464 85.357 9.464 C 85.248 9.464 85.13 9.421 85.001 9.337 C 84.831 9.229 84.642 9.098 84.431 8.944 C 84.221 8.79 83.966 8.642 83.663 8.5 C 83.362 8.357 83.006 8.236 82.597 8.136 C 82.186 8.036 81.7 7.986 81.137 7.986 C 80.318 7.986 79.575 8.138 78.911 8.442 C 78.246 8.746 77.681 9.181 77.213 9.747 C 76.746 10.312 76.386 10.998 76.135 11.803 C 75.884 12.607 75.759 13.51 75.759 14.511 C 75.759 15.558 75.89 16.491 76.151 17.311 C 76.412 18.131 76.779 18.826 77.253 19.396 C 77.728 19.966 78.291 20.401 78.941 20.701 C 79.592 21.001 80.311 21.151 81.097 21.151 Z " fill="rgb(255,255,255)"/><path d=" M 94.944 15.874 L 94.944 22.779 L 92.981 22.779 L 92.981 6.23 L 97.099 6.23 C 98.021 6.23 98.818 6.336 99.489 6.548 C 100.159 6.76 100.713 7.065 101.151 7.466 C 101.588 7.866 101.911 8.349 102.122 8.916 C 102.332 9.481 102.437 10.115 102.437 10.815 C 102.437 11.4 102.356 11.947 102.193 12.455 C 102.03 12.964 101.794 13.419 101.486 13.823 C 101.178 14.227 100.802 14.572 100.358 14.857 C 99.914 15.142 99.411 15.358 98.848 15.504 C 99.092 15.666 99.309 15.9 99.499 16.208 L 103.748 22.779 L 101.999 22.779 C 101.64 22.779 101.376 22.622 101.206 22.307 L 97.425 16.393 C 97.309 16.208 97.184 16.075 97.049 15.995 C 96.913 15.914 96.71 15.874 96.439 15.874 L 94.944 15.874 Z  M 94.944 14.245 L 97.008 14.245 C 97.584 14.245 98.091 14.166 98.527 14.008 C 98.965 13.851 99.331 13.627 99.626 13.339 C 99.921 13.05 100.142 12.705 100.292 12.305 C 100.441 11.904 100.516 11.462 100.516 10.977 C 100.516 9.992 100.229 9.248 99.656 8.748 C 99.084 8.248 98.231 7.997 97.099 7.997 L 94.944 7.997 L 94.944 14.245 Z " fill="rgb(255,255,255)"/><path d=" M 121.114 22.779 L 119.588 22.779 C 119.412 22.779 119.27 22.73 119.161 22.63 C 119.053 22.53 118.971 22.403 118.917 22.248 L 117.555 18.252 L 111.017 18.252 L 109.655 22.248 C 109.608 22.387 109.527 22.511 109.412 22.618 C 109.296 22.726 109.154 22.779 108.984 22.779 L 107.46 22.779 L 113.285 6.23 L 115.288 6.23 L 121.114 22.779 Z  M 111.567 16.635 L 117.006 16.635 L 114.718 9.903 C 114.57 9.487 114.424 8.968 114.282 8.344 C 114.207 8.66 114.134 8.95 114.063 9.216 C 113.991 9.481 113.922 9.714 113.854 9.914 L 111.567 16.635 Z " fill="rgb(255,255,255)"/><path d=" M 122.948 6.23 L 124.524 6.23 C 124.7 6.23 124.843 6.28 124.951 6.38 C 125.06 6.48 125.141 6.608 125.195 6.761 L 129.313 18.437 C 129.408 18.699 129.494 18.984 129.572 19.292 C 129.65 19.6 129.726 19.919 129.801 20.251 C 129.862 19.919 129.927 19.6 129.998 19.292 C 130.07 18.984 130.153 18.699 130.248 18.437 L 134.345 6.761 C 134.392 6.631 134.474 6.509 134.589 6.398 C 134.704 6.286 134.847 6.23 135.016 6.23 L 136.602 6.23 L 130.665 22.779 L 128.886 22.779 L 122.948 6.23 Z " fill="rgb(255,255,255)"/><rect x="142.082" y="6.23" width="1.973" height="16.549" transform="matrix(1,0,0,1,0,0)" fill="rgb(255,255,255)"/><path d=" M 161.135 6.23 L 161.135 8.112 L 156.428 8.112 L 156.428 22.779 L 154.455 22.779 L 154.455 8.112 L 149.727 8.112 L 149.727 6.23 L 161.135 6.23 Z " fill="rgb(255,255,255)"/><path d=" M 89.782 39.294 C 89.782 40.591 89.566 41.78 89.134 42.865 C 88.701 43.949 88.094 44.883 87.311 45.665 C 86.528 46.448 85.586 47.055 84.485 47.487 C 83.384 47.919 82.165 48.135 80.827 48.135 L 74.075 48.135 L 74.075 30.453 L 80.827 30.453 C 82.165 30.453 83.384 30.671 84.485 31.107 C 85.586 31.543 86.528 32.15 87.311 32.929 C 88.094 33.708 88.701 34.64 89.134 35.723 C 89.566 36.807 89.782 37.998 89.782 39.294 Z  M 86.418 39.294 C 86.418 38.324 86.287 37.453 86.026 36.684 C 85.765 35.913 85.394 35.261 84.913 34.727 C 84.432 34.193 83.847 33.783 83.158 33.498 C 82.469 33.213 81.692 33.07 80.827 33.07 L 77.39 33.07 L 77.39 45.518 L 80.827 45.518 C 81.692 45.518 82.469 45.376 83.158 45.09 C 83.847 44.805 84.432 44.395 84.913 43.861 C 85.394 43.327 85.765 42.675 86.026 41.905 C 86.287 41.134 86.418 40.264 86.418 39.294 Z " fill="rgb(255,255,255)"/><path d=" M 106.455 30.453 L 106.455 33.07 L 98.614 33.07 L 98.614 37.973 L 104.791 37.973 L 104.791 40.505 L 98.614 40.505 L 98.614 45.506 L 106.455 45.506 L 106.455 48.135 L 95.299 48.135 L 95.299 30.453 L 106.455 30.453 Z " fill="rgb(255,255,255)"/><path d=" M 121.722 33.669 C 121.632 33.848 121.528 33.975 121.41 34.048 C 121.291 34.122 121.151 34.158 120.988 34.158 C 120.825 34.158 120.642 34.095 120.438 33.968 C 120.233 33.842 119.993 33.701 119.716 33.547 C 119.438 33.392 119.114 33.251 118.743 33.125 C 118.372 32.998 117.933 32.935 117.428 32.935 C 116.971 32.935 116.573 32.99 116.235 33.101 C 115.897 33.21 115.611 33.363 115.379 33.559 C 115.147 33.755 114.973 33.989 114.859 34.262 C 114.745 34.535 114.688 34.835 114.688 35.161 C 114.688 35.577 114.804 35.923 115.037 36.2 C 115.269 36.477 115.577 36.714 115.96 36.91 C 116.343 37.106 116.78 37.281 117.269 37.436 C 117.758 37.591 118.258 37.755 118.767 37.93 C 119.277 38.106 119.777 38.31 120.266 38.542 C 120.756 38.774 121.192 39.068 121.575 39.422 C 121.958 39.777 122.266 40.211 122.499 40.725 C 122.731 41.238 122.847 41.862 122.847 42.595 C 122.847 43.395 122.711 44.142 122.438 44.84 C 122.164 45.537 121.765 46.144 121.239 46.662 C 120.713 47.18 120.07 47.587 119.312 47.884 C 118.554 48.182 117.685 48.331 116.706 48.331 C 116.144 48.331 115.589 48.276 115.043 48.166 C 114.496 48.055 113.972 47.899 113.471 47.695 C 112.969 47.491 112.5 47.246 112.064 46.961 C 111.628 46.676 111.238 46.358 110.895 46.008 L 111.85 44.43 C 111.939 44.316 112.048 44.22 112.174 44.142 C 112.301 44.065 112.441 44.027 112.596 44.027 C 112.8 44.027 113.02 44.11 113.257 44.277 C 113.493 44.444 113.773 44.63 114.095 44.834 C 114.417 45.038 114.796 45.223 115.232 45.39 C 115.668 45.557 116.193 45.641 116.804 45.641 C 117.742 45.641 118.468 45.418 118.982 44.974 C 119.495 44.53 119.753 43.892 119.753 43.06 C 119.753 42.595 119.636 42.216 119.404 41.923 C 119.171 41.63 118.863 41.383 118.48 41.183 C 118.097 40.984 117.66 40.815 117.171 40.676 C 116.682 40.537 116.185 40.387 115.679 40.223 C 115.173 40.06 114.676 39.865 114.187 39.636 C 113.697 39.408 113.261 39.111 112.877 38.744 C 112.494 38.377 112.186 37.918 111.954 37.368 C 111.721 36.818 111.605 36.139 111.605 35.332 C 111.605 34.688 111.734 34.06 111.991 33.449 C 112.247 32.837 112.623 32.295 113.116 31.823 C 113.609 31.35 114.215 30.971 114.932 30.686 C 115.65 30.4 116.47 30.257 117.391 30.257 C 118.435 30.257 119.397 30.42 120.278 30.747 C 121.159 31.073 121.91 31.529 122.529 32.116 L 121.722 33.669 Z " fill="rgb(255,255,255)"/><rect x="128.706" y="30.453" width="3.303" height="17.682" transform="matrix(1,0,0,1,0,0)" fill="rgb(255,255,255)"/><path d=" M 147.044 45.714 C 147.786 45.714 148.432 45.647 148.983 45.512 C 149.533 45.377 150.057 45.192 150.554 44.956 L 150.554 41.739 L 148.34 41.739 C 148.128 41.739 147.961 41.681 147.839 41.562 C 147.716 41.444 147.656 41.3 147.656 41.128 L 147.656 39.27 L 153.539 39.27 L 153.539 46.423 C 153.091 46.749 152.624 47.033 152.138 47.273 C 151.653 47.513 151.135 47.711 150.586 47.866 C 150.035 48.021 149.445 48.137 148.817 48.215 C 148.19 48.292 147.512 48.331 146.787 48.331 C 145.498 48.331 144.312 48.107 143.227 47.658 C 142.142 47.21 141.204 46.586 140.414 45.787 C 139.623 44.989 139.005 44.035 138.56 42.926 C 138.116 41.817 137.894 40.606 137.894 39.294 C 137.894 37.965 138.11 36.747 138.542 35.638 C 138.974 34.529 139.588 33.575 140.383 32.776 C 141.178 31.978 142.142 31.358 143.276 30.918 C 144.41 30.477 145.682 30.257 147.092 30.257 C 148.536 30.257 149.786 30.471 150.842 30.899 C 151.898 31.327 152.794 31.884 153.527 32.569 L 152.573 34.06 C 152.385 34.362 152.137 34.513 151.827 34.513 C 151.631 34.513 151.431 34.447 151.227 34.317 C 150.966 34.163 150.699 34.008 150.426 33.853 C 150.153 33.698 149.851 33.563 149.521 33.449 C 149.191 33.335 148.82 33.241 148.408 33.168 C 147.996 33.095 147.521 33.058 146.983 33.058 C 146.11 33.058 145.321 33.204 144.616 33.498 C 143.91 33.791 143.309 34.211 142.811 34.757 C 142.314 35.303 141.931 35.96 141.661 36.726 C 141.392 37.493 141.258 38.349 141.258 39.294 C 141.258 40.313 141.4 41.22 141.686 42.015 C 141.972 42.81 142.371 43.48 142.885 44.027 C 143.398 44.573 144.01 44.99 144.72 45.28 C 145.429 45.569 146.204 45.714 147.044 45.714 Z " fill="rgb(255,255,255)"/><path d=" M 161.27 30.453 C 161.417 30.453 161.54 30.46 161.637 30.471 C 161.735 30.484 161.823 30.508 161.901 30.545 C 161.978 30.581 162.054 30.635 162.127 30.704 C 162.201 30.773 162.282 30.864 162.371 30.979 L 171.656 42.804 C 171.624 42.518 171.601 42.239 171.589 41.966 C 171.577 41.693 171.571 41.438 171.571 41.202 L 171.571 30.453 L 174.47 30.453 L 174.47 48.135 L 172.77 48.135 C 172.508 48.135 172.293 48.094 172.121 48.012 C 171.95 47.932 171.783 47.785 171.62 47.573 L 162.371 35.797 C 162.396 36.058 162.414 36.316 162.427 36.573 C 162.439 36.83 162.445 37.065 162.445 37.276 L 162.445 48.135 L 159.546 48.135 L 159.546 30.453 L 161.27 30.453 Z " fill="rgb(255,255,255)"/><path d=" M 192.134 30.453 L 192.134 33.07 L 184.293 33.07 L 184.293 37.973 L 190.47 37.973 L 190.47 40.505 L 184.293 40.505 L 184.293 45.506 L 192.134 45.506 L 192.134 48.135 L 180.978 48.135 L 180.978 30.453 L 192.134 30.453 Z " fill="rgb(255,255,255)"/><path d=" M 201.321 46.628 L 201.321 41.226 L 201.321 41.226 L 202.728 41.226 C 203.054 41.226 203.3 41.271 203.468 41.36 C 203.635 41.45 203.788 41.601 203.927 41.813 L 206.436 45.634 L 209.713 44.997 L 207.413 41.605 C 207.111 41.165 206.752 40.826 206.336 40.591 C 206.956 40.395 207.509 40.134 207.994 39.807 C 208.479 39.482 208.887 39.103 209.217 38.67 C 209.548 38.238 209.801 37.757 209.976 37.227 C 210.151 36.698 210.238 36.135 210.238 35.54 C 210.238 34.79 210.11 34.103 209.853 33.48 C 209.597 32.856 209.193 32.32 208.642 31.872 C 208.092 31.423 207.386 31.074 206.526 30.826 C 205.666 30.577 204.632 30.453 203.425 30.453 L 198.03 30.453 L 198.03 47.268 L 201.321 46.628 Z  M 201.321 38.866 L 203.376 38.866 C 203.996 38.866 204.536 38.788 204.997 38.633 C 205.457 38.479 205.837 38.265 206.135 37.992 C 206.432 37.719 206.655 37.395 206.801 37.02 C 206.948 36.645 207.021 36.233 207.021 35.785 C 207.021 34.888 206.726 34.199 206.135 33.718 C 205.543 33.237 204.64 32.997 203.425 32.997 L 201.321 32.997 L 201.321 38.866 L 201.321 38.866 Z " fill-rule="evenodd" fill="rgb(255,255,255)"/><radialGradient id="_rgradient_1" fx="0.5" fy="0.5" cx="0.5" cy="0.5" r="1" gradientTransform="matrix(22.31,0,0,14.017,200.865,51.551)" gradientUnits="userSpaceOnUse"><stop offset="0%" stop-opacity="1" style="stop-color:rgb(255,241,1)"/><stop offset="100%" stop-opacity="1" style="stop-color:rgb(230,218,26)"/></radialGradient><path d=" M 191.516 51.77 L 228.488 44.584 C 229.697 44.349 230.869 45.139 231.104 46.348 L 234.289 62.733 C 234.524 63.942 233.734 65.114 232.525 65.349 L 195.553 72.536 C 194.344 72.771 193.172 71.98 192.937 70.771 L 189.752 54.386 C 189.517 53.177 190.307 52.005 191.516 51.77 Z  M 198.534 57.5 L 199.252 61.194 L 200.66 60.921 L 200.66 60.921 Q 201.715 60.716 202.081 60.122 L 202.081 60.122 L 202.081 60.122 Q 202.447 59.528 202.271 58.624 L 202.271 58.624 L 202.271 58.624 Q 202.194 58.224 202.01 57.92 L 202.01 57.92 L 202.01 57.92 Q 201.826 57.615 201.536 57.427 L 201.536 57.427 L 201.536 57.427 Q 201.247 57.238 200.85 57.183 L 200.85 57.183 L 200.85 57.183 Q 200.453 57.127 199.942 57.226 L 199.942 57.226 L 198.534 57.5 L 198.534 57.5 Z  M 208.738 55.517 L 209.409 58.971 L 210.496 58.76 L 210.496 58.76 Q 211.048 58.652 211.409 58.437 L 211.409 58.437 L 211.409 58.437 Q 211.769 58.222 211.969 57.926 L 211.969 57.926 L 211.969 57.926 Q 212.169 57.63 212.216 57.276 L 212.216 57.276 L 212.216 57.276 Q 212.264 56.922 212.189 56.539 L 212.189 56.539 L 212.189 56.539 Q 212.04 55.771 211.456 55.436 L 211.456 55.436 L 211.456 55.436 Q 210.873 55.102 209.825 55.305 L 209.825 55.305 L 208.738 55.517 L 208.738 55.517 Z  M 226.14 56.076 L 226.14 56.076 L 226.14 56.076 Q 225.972 55.212 225.614 54.564 L 225.614 54.564 L 225.614 54.564 Q 225.256 53.916 224.743 53.518 L 224.743 53.518 L 224.743 53.518 Q 224.229 53.119 223.572 52.982 L 223.572 52.982 L 223.572 52.982 Q 222.915 52.844 222.139 52.995 L 222.139 52.995 L 222.139 52.995 Q 221.355 53.147 220.793 53.522 L 220.793 53.522 L 220.793 53.522 Q 220.231 53.897 219.905 54.458 L 219.905 54.458 L 219.905 54.458 Q 219.578 55.019 219.489 55.755 L 219.489 55.755 L 219.489 55.755 Q 219.399 56.49 219.567 57.353 L 219.567 57.353 L 219.567 57.353 Q 219.737 58.225 220.095 58.873 L 220.095 58.873 L 220.095 58.873 Q 220.453 59.521 220.966 59.92 L 220.966 59.92 L 220.966 59.92 Q 221.479 60.318 222.14 60.451 L 222.14 60.451 L 222.14 60.451 Q 222.801 60.584 223.584 60.431 L 223.584 60.431 L 223.584 60.431 Q 224.36 60.281 224.919 59.911 L 224.919 59.911 L 224.919 59.911 Q 225.478 59.541 225.804 58.979 L 225.804 58.979 L 225.804 58.979 Q 226.131 58.418 226.22 57.683 L 226.22 57.683 L 226.22 57.683 Q 226.31 56.947 226.14 56.076 L 226.14 56.076 Z  M 201.056 62.96 L 199.649 63.233 L 200.406 67.128 L 197.703 67.653 L 195.438 56.002 L 199.548 55.203 L 199.548 55.203 Q 200.78 54.964 201.72 55.084 L 201.72 55.084 L 201.72 55.084 Q 202.66 55.204 203.332 55.605 L 203.332 55.605 L 203.332 55.605 Q 204.003 56.006 204.41 56.648 L 204.41 56.648 L 204.41 56.648 Q 204.817 57.291 204.974 58.099 L 204.974 58.099 L 204.974 58.099 Q 205.143 58.97 205.005 59.752 L 205.005 59.752 L 205.005 59.752 Q 204.867 60.535 204.392 61.166 L 204.392 61.166 L 204.392 61.166 Q 203.917 61.798 203.09 62.262 L 203.09 62.262 L 203.09 62.262 Q 202.263 62.725 201.056 62.96 L 201.056 62.96 L 201.056 62.96 Z  M 210.459 60.701 L 209.771 60.834 L 210.609 65.144 L 207.906 65.67 L 205.642 54.019 L 209.432 53.282 L 209.432 53.282 Q 210.695 53.037 211.637 53.123 L 211.637 53.123 L 211.637 53.123 Q 212.579 53.21 213.233 53.564 L 213.233 53.564 L 213.233 53.564 Q 213.887 53.918 214.266 54.5 L 214.266 54.5 L 214.266 54.5 Q 214.645 55.082 214.789 55.826 L 214.789 55.826 L 214.789 55.826 Q 214.899 56.394 214.845 56.927 L 214.845 56.927 L 214.845 56.927 Q 214.791 57.46 214.575 57.946 L 214.575 57.946 L 214.575 57.946 Q 214.358 58.432 213.987 58.853 L 213.987 58.853 L 213.987 58.853 Q 213.617 59.273 213.091 59.6 L 213.091 59.6 L 213.091 59.6 Q 213.389 59.683 213.664 59.837 L 213.664 59.837 L 213.664 59.837 Q 213.939 59.991 214.171 60.245 L 214.171 60.245 L 217.438 63.817 L 214.991 64.293 L 214.991 64.293 Q 214.311 64.425 213.916 63.97 L 213.916 63.97 L 211.323 60.964 L 211.323 60.964 Q 211.152 60.765 210.961 60.703 L 210.961 60.703 L 210.961 60.703 Q 210.771 60.64 210.459 60.701 L 210.459 60.701 L 210.459 60.701 Z  M 228.907 55.538 L 228.907 55.538 L 228.907 55.538 Q 229.152 56.801 228.928 57.974 L 228.928 57.974 L 228.928 57.974 Q 228.704 59.146 228.068 60.103 L 228.068 60.103 L 228.068 60.103 Q 227.433 61.061 226.406 61.733 L 226.406 61.733 L 226.406 61.733 Q 225.379 62.406 224.02 62.67 L 224.02 62.67 L 224.02 62.67 Q 222.66 62.935 221.452 62.696 L 221.452 62.696 L 221.452 62.696 Q 220.244 62.458 219.292 61.809 L 219.292 61.809 L 219.292 61.809 Q 218.34 61.16 217.693 60.157 L 217.693 60.157 L 217.693 60.157 Q 217.046 59.155 216.8 57.891 L 216.8 57.891 L 216.8 57.891 Q 216.555 56.628 216.779 55.456 L 216.779 55.456 L 216.779 55.456 Q 217.004 54.283 217.644 53.329 L 217.644 53.329 L 217.644 53.329 Q 218.284 52.375 219.315 51.701 L 219.315 51.701 L 219.315 51.701 Q 220.346 51.028 221.705 50.764 L 221.705 50.764 L 221.705 50.764 Q 223.065 50.5 224.269 50.742 L 224.269 50.742 L 224.269 50.742 Q 225.474 50.985 226.421 51.631 L 226.421 51.631 L 226.421 51.631 Q 227.368 52.277 228.016 53.28 L 228.016 53.28 L 228.016 53.28 Q 228.663 54.283 228.907 55.538 L 228.907 55.538 Z " fill-rule="evenodd" fill="url(#_rgradient_1)"/></g></g></svg>