<?xml version="1.0" encoding="UTF-8" standalone="no"?>
<!DOCTYPE svg PUBLIC "-//W3C//DTD SVG 1.1//EN" "http://www.w3.org/Graphics/SVG/1.1/DTD/svg11.dtd">
<svg width="100%" height="100%" viewBox="0 0 215 60" version="1.1" xmlns="http://www.w3.org/2000/svg" xmlns:xlink="http://www.w3.org/1999/xlink" xml:space="preserve" style="fill-rule:evenodd;clip-rule:evenodd;">
    <g transform="matrix(1,0,0,1,-7818.1,-9386.62)">
        <g transform="matrix(1,0,0,1,1.6291,1.69182)">
            <g transform="matrix(1,0,0,1,4452.89,3555.1)">
                <g transform="matrix(0.0564614,0,0,0.056389,3348.74,5821.05)">
                    <path d="M785.88,197C1052,197 1267.7,412.76 1267.7,679C1267.7,945.14 1051.9,1160.8 785.88,1160.8C519.74,1160.8 304.08,945.1 304.08,679C304.08,412.88 519.82,197 785.88,197L785.88,197Z" style="fill:url(#_Radial1);stroke:black;stroke-opacity:0;stroke-width:20px;"/>
                </g>
                <g transform="matrix(0.0564614,0,0,0.056389,3348.74,5821.05)">
                    <path d="M1259.3,768.46C1206.1,807.58 1151.5,851.1 1103.9,895.76C995.82,997.32 933.64,1076.8 864.5,1154.3C1064,1121.6 1222.1,966.4 1259.3,768.46Z" style="fill:rgb(136,160,62);stroke:black;stroke-opacity:0;stroke-width:20px;"/>
                </g>
                <g transform="matrix(0.0564614,0,0,0.056389,3348.74,5821.05)">
                    <path d="M619.88,347.1L304.48,700.44C307.08,759.64 320.32,816.04 342.4,867.84C480.6,653.88 618.8,439.94 757.04,226.04C711.32,266.44 665.58,306.84 619.88,347.04" style="fill:url(#_Linear2);stroke:black;stroke-opacity:0;stroke-width:20px;"/>
                </g>
                <g transform="matrix(0.0564614,0,0,0.056389,3348.74,5821.05)">
                    <path d="M307.28,623.12C305.2,641.44 304,660.02 304,678.92C304,686.12 304.2,693.28 304.54,700.44L619.94,347.1C515.74,439.1 411.54,531.14 307.3,623.1" style="fill:rgb(136,160,62);stroke:black;stroke-opacity:0;stroke-width:20px;"/>
                </g>
                <g transform="matrix(0.0564614,0,0,0.056389,3348.74,5821.05)">
                    <path d="M308.16,616.52C448.36,477.84 588.36,339.18 728.56,200.52C509.96,226.46 336.36,398.62 308.16,616.52L308.16,616.52Z" style="fill:url(#_Linear3);stroke:black;stroke-opacity:0;stroke-width:20px;"/>
                </g>
                <g transform="matrix(0.0564614,0,0,0.056389,3348.74,5821.05)">
                    <path d="M727.6,200.52C587.4,339.2 447.8,477.84 307.68,616.52C307.4,618.72 307.34,620.92 307.08,623.12C411.28,531.12 515.62,439.12 619.82,347.12C665.52,306.72 711.34,266.32 757.02,226.12C618.82,440 480.62,653.92 342.42,867.92L342.52,868.04C346.42,877.24 350.72,886.24 355.2,895.12C356.14,897 357.1,898.84 358.06,900.68C362.42,909.12 366.98,917.44 371.86,925.56L372.62,926.96C377.92,935.72 383.5,944.3 389.3,952.7L392.16,956.7C397.3,963.98 402.66,971.1 408.16,978.1C409.1,979.24 409.96,980.38 410.88,981.5C417.4,989.56 424.12,997.44 431.08,1005L431.58,1005.5C438.3,1012.8 445.3,1019.9 452.44,1026.7L455.72,1029.8C470.78,1044 486.72,1057.2 503.52,1069.4L505.92,1071.1C514.28,1077.1 522.8,1082.8 531.52,1088.2L531.78,1088.4C550.12,1099.8 569.28,1110 589.18,1118.9L590.48,1119.5C610.36,1128.3 630.88,1135.8 652.12,1141.9L653,1142.2C685.12,1151.3 718.6,1157.3 753.2,1159.6C754.52,882.58 849.92,536.62 996.72,245.54C933.04,214.52 860.58,197.08 784.98,197.08C773.48,197.08 737.7,198.88 727.66,200.6" style="fill:url(#_Linear4);stroke:black;stroke-opacity:0;stroke-width:20px;"/>
                </g>
                <g transform="matrix(0.704254,0,0,0.799988,3064.85,5614.3)">
                    <path d="M542.632,298.767C543.191,298.767 543.703,298.741 544.17,298.688C544.637,298.635 545.077,298.555 545.491,298.449C545.905,298.344 546.294,298.216 546.66,298.067C547.026,297.918 547.391,297.747 547.757,297.554L547.757,292.992L544.552,292.992C544.369,292.992 544.223,292.94 544.112,292.834C544.001,292.728 543.946,292.598 543.946,292.444L543.946,290.856L550.298,290.856L550.298,298.796C549.778,299.171 549.237,299.498 548.674,299.778C548.111,300.057 547.509,300.29 546.869,300.478C546.229,300.665 545.544,300.805 544.812,300.896C544.081,300.988 543.287,301.033 542.43,301.033C540.929,301.033 539.553,300.776 538.301,300.261C537.05,299.746 535.972,299.024 535.068,298.096C534.163,297.167 533.458,296.053 532.953,294.754C532.447,293.454 532.195,292.025 532.195,290.466C532.195,288.888 532.443,287.449 532.938,286.15C533.434,284.85 534.141,283.736 535.06,282.808C535.98,281.879 537.091,281.159 538.395,280.649C539.699,280.139 541.16,279.884 542.777,279.884C543.595,279.884 544.355,279.944 545.058,280.065C545.76,280.185 546.412,280.358 547.014,280.584C547.615,280.811 548.171,281.085 548.681,281.407C549.191,281.73 549.668,282.093 550.11,282.497L549.316,283.768C549.153,284.027 548.941,284.157 548.681,284.157C548.527,284.157 548.359,284.104 548.176,283.999C547.935,283.864 547.666,283.7 547.367,283.508C547.069,283.315 546.706,283.13 546.277,282.952C545.849,282.774 545.344,282.622 544.762,282.497C544.179,282.372 543.489,282.31 542.69,282.31C541.526,282.31 540.472,282.5 539.529,282.88C538.585,283.26 537.782,283.804 537.118,284.511C536.454,285.218 535.943,286.075 535.587,287.081C535.231,288.086 535.053,289.215 535.053,290.466C535.053,291.775 535.239,292.942 535.609,293.967C535.98,294.992 536.502,295.86 537.175,296.573C537.849,297.285 538.648,297.829 539.572,298.204C540.496,298.579 541.516,298.767 542.632,298.767Z" style="fill:white;fill-rule:nonzero;"/>
                </g>
                <g transform="matrix(0.704254,0,0,0.799988,3064.85,5614.3)">
                    <path d="M562.295,292.17L562.295,300.802L559.508,300.802L559.508,280.115L565.355,280.115C566.664,280.115 567.795,280.248 568.748,280.512C569.7,280.777 570.487,281.159 571.108,281.66C571.729,282.16 572.188,282.764 572.487,283.472C572.785,284.179 572.934,284.971 572.934,285.846C572.934,286.578 572.819,287.261 572.588,287.896C572.357,288.532 572.022,289.102 571.584,289.607C571.146,290.112 570.612,290.543 569.982,290.899C569.352,291.255 568.637,291.525 567.838,291.708C568.185,291.91 568.493,292.203 568.762,292.588L574.796,300.802L572.313,300.802C571.803,300.802 571.428,300.605 571.187,300.211L565.817,292.819C565.653,292.588 565.475,292.422 565.283,292.321C565.09,292.22 564.802,292.17 564.417,292.17L562.295,292.17ZM562.295,290.134L565.225,290.134C566.043,290.134 566.763,290.035 567.383,289.838C568.004,289.641 568.524,289.362 568.943,289.001C569.361,288.64 569.676,288.209 569.888,287.709C570.1,287.208 570.206,286.655 570.206,286.049C570.206,284.817 569.799,283.888 568.986,283.262C568.173,282.637 566.962,282.324 565.355,282.324L562.295,282.324L562.295,290.134Z" style="fill:white;fill-rule:nonzero;"/>
                </g>
                <g transform="matrix(0.704254,0,0,0.799988,3064.85,5614.3)">
                    <path d="M599.454,300.802L597.288,300.802C597.038,300.802 596.836,300.74 596.682,300.615C596.528,300.49 596.412,300.331 596.335,300.138L594.401,295.143L585.118,295.143L583.184,300.138C583.117,300.312 583.001,300.466 582.838,300.6C582.674,300.735 582.472,300.802 582.231,300.802L580.066,300.802L588.338,280.115L591.182,280.115L599.454,300.802ZM585.898,293.122L593.621,293.122L590.373,284.706C590.162,284.186 589.955,283.537 589.753,282.757C589.647,283.152 589.543,283.515 589.442,283.847C589.341,284.179 589.242,284.47 589.146,284.72L585.898,293.122Z" style="fill:white;fill-rule:nonzero;"/>
                </g>
                <g transform="matrix(0.704254,0,0,0.799988,3064.85,5614.3)">
                    <path d="M602.059,280.115L604.296,280.115C604.547,280.115 604.749,280.178 604.903,280.303C605.057,280.428 605.172,280.587 605.249,280.779L611.096,295.374C611.231,295.702 611.353,296.058 611.464,296.443C611.575,296.828 611.683,297.227 611.789,297.641C611.876,297.227 611.969,296.828 612.07,296.443C612.171,296.058 612.289,295.702 612.424,295.374L618.242,280.779C618.309,280.616 618.425,280.464 618.588,280.325C618.752,280.185 618.954,280.115 619.195,280.115L621.447,280.115L613.016,300.802L610.49,300.802L602.059,280.115Z" style="fill:white;fill-rule:nonzero;"/>
                </g>
                <g transform="matrix(0.704254,0,0,0.799988,3064.85,5614.3)">
                    <rect x="629.228" y="280.115" width="2.801" height="20.687" style="fill:white;fill-rule:nonzero;"/>
                </g>
                <g transform="matrix(0.704254,0,0,0.799988,3064.85,5614.3)">
                    <path d="M656.282,280.115L656.282,282.468L649.598,282.468L649.598,300.802L646.797,300.802L646.797,282.468L640.084,282.468L640.084,280.115L656.282,280.115Z" style="fill:white;fill-rule:nonzero;"/>
                </g>
                <g transform="matrix(0.741941,0,0,0.741662,3044.3,5654.8)">
                    <path d="M554.473,292.118C554.473,293.866 554.182,295.47 553.599,296.932C553.016,298.394 552.198,299.653 551.142,300.708C550.087,301.763 548.818,302.582 547.334,303.165C545.85,303.747 544.207,304.038 542.404,304.038L533.303,304.038L533.303,280.197L542.404,280.197C544.207,280.197 545.85,280.491 547.334,281.079C548.818,281.667 550.087,282.486 551.142,283.536C552.198,284.586 553.016,285.842 553.599,287.303C554.182,288.765 554.473,290.37 554.473,292.118ZM549.939,292.118C549.939,290.81 549.763,289.636 549.411,288.598C549.059,287.559 548.559,286.68 547.911,285.96C547.262,285.24 546.474,284.687 545.545,284.303C544.616,283.918 543.569,283.726 542.404,283.726L537.771,283.726L537.771,300.51L542.404,300.51C543.569,300.51 544.616,300.318 545.545,299.933C546.474,299.548 547.262,298.996 547.911,298.276C548.559,297.556 549.059,296.677 549.411,295.638C549.763,294.599 549.939,293.426 549.939,292.118Z" style="fill:white;fill-rule:nonzero;"/>
                </g>
                <g transform="matrix(0.741941,0,0,0.741662,3044.3,5654.8)">
                    <path d="M576.945,280.197L576.945,283.726L566.377,283.726L566.377,290.337L574.703,290.337L574.703,293.75L566.377,293.75L566.377,300.494L576.945,300.494L576.945,304.038L561.909,304.038L561.909,280.197L576.945,280.197Z" style="fill:white;fill-rule:nonzero;"/>
                </g>
                <g transform="matrix(0.741941,0,0,0.741662,3044.3,5654.8)">
                    <path d="M597.522,284.534C597.401,284.775 597.261,284.946 597.102,285.045C596.942,285.144 596.753,285.193 596.533,285.193C596.313,285.193 596.066,285.108 595.791,284.937C595.516,284.767 595.192,284.577 594.818,284.369C594.444,284.16 594.007,283.97 593.507,283.8C593.007,283.629 592.416,283.544 591.735,283.544C591.119,283.544 590.583,283.618 590.127,283.767C589.671,283.915 589.286,284.121 588.973,284.385C588.66,284.649 588.426,284.965 588.272,285.333C588.119,285.701 588.042,286.105 588.042,286.545C588.042,287.106 588.198,287.573 588.512,287.946C588.825,288.32 589.24,288.639 589.756,288.903C590.273,289.167 590.861,289.403 591.521,289.612C592.18,289.821 592.853,290.043 593.54,290.279C594.227,290.516 594.901,290.791 595.56,291.104C596.22,291.417 596.808,291.813 597.324,292.291C597.841,292.769 598.256,293.354 598.569,294.047C598.882,294.739 599.039,295.58 599.039,296.569C599.039,297.647 598.855,298.655 598.487,299.595C598.118,300.535 597.58,301.354 596.871,302.052C596.162,302.75 595.296,303.299 594.274,303.7C593.252,304.102 592.081,304.302 590.762,304.302C590.004,304.302 589.256,304.228 588.52,304.08C587.783,303.931 587.077,303.72 586.401,303.445C585.725,303.17 585.093,302.84 584.505,302.456C583.917,302.071 583.392,301.642 582.93,301.17L584.217,299.043C584.337,298.889 584.483,298.76 584.653,298.655C584.824,298.551 585.013,298.499 585.222,298.499C585.497,298.499 585.794,298.611 586.113,298.837C586.431,299.062 586.808,299.312 587.242,299.587C587.676,299.862 588.187,300.112 588.775,300.337C589.363,300.562 590.07,300.675 590.894,300.675C592.158,300.675 593.136,300.375 593.829,299.776C594.521,299.177 594.868,298.317 594.868,297.196C594.868,296.569 594.711,296.058 594.398,295.663C594.084,295.267 593.669,294.934 593.153,294.665C592.636,294.396 592.048,294.168 591.389,293.981C590.729,293.794 590.059,293.591 589.377,293.371C588.696,293.151 588.025,292.887 587.366,292.579C586.706,292.272 586.118,291.871 585.601,291.376C585.085,290.881 584.67,290.263 584.357,289.521C584.043,288.779 583.887,287.864 583.887,286.776C583.887,285.907 584.06,285.061 584.406,284.237C584.752,283.412 585.258,282.681 585.923,282.044C586.588,281.406 587.404,280.895 588.371,280.511C589.339,280.126 590.443,279.933 591.685,279.933C593.092,279.933 594.389,280.153 595.576,280.593C596.764,281.033 597.775,281.648 598.61,282.44L597.522,284.534Z" style="fill:white;fill-rule:nonzero;"/>
                </g>
                <g transform="matrix(0.741941,0,0,0.741662,3044.3,5654.8)">
                    <rect x="606.936" y="280.197" width="4.452" height="23.841" style="fill:white;fill-rule:nonzero;"/>
                </g>
                <g transform="matrix(0.741941,0,0,0.741662,3044.3,5654.8)">
                    <path d="M631.651,300.774C632.652,300.774 633.523,300.683 634.265,300.502C635.007,300.32 635.713,300.07 636.383,299.752L636.383,295.415L633.399,295.415C633.113,295.415 632.888,295.336 632.723,295.176C632.558,295.017 632.476,294.822 632.476,294.591L632.476,292.085L640.406,292.085L640.406,301.73C639.802,302.17 639.172,302.552 638.518,302.876C637.864,303.2 637.166,303.467 636.425,303.676C635.683,303.884 634.888,304.041 634.042,304.146C633.196,304.25 632.283,304.302 631.305,304.302C629.568,304.302 627.969,304 626.507,303.395C625.045,302.791 623.781,301.95 622.715,300.873C621.649,299.796 620.816,298.51 620.217,297.015C619.618,295.52 619.319,293.887 619.319,292.118C619.319,290.326 619.61,288.683 620.193,287.188C620.775,285.693 621.602,284.407 622.674,283.33C623.746,282.253 625.045,281.417 626.573,280.824C628.101,280.23 629.816,279.933 631.717,279.933C633.663,279.933 635.347,280.222 636.771,280.799C638.194,281.376 639.401,282.126 640.39,283.05L639.104,285.061C638.851,285.468 638.516,285.671 638.098,285.671C637.834,285.671 637.565,285.583 637.29,285.407C636.938,285.199 636.578,284.99 636.21,284.781C635.842,284.572 635.435,284.391 634.99,284.237C634.545,284.083 634.045,283.956 633.49,283.858C632.935,283.759 632.294,283.709 631.569,283.709C630.393,283.709 629.329,283.907 628.379,284.303C627.428,284.698 626.617,285.264 625.947,286.001C625.276,286.737 624.76,287.622 624.397,288.655C624.034,289.689 623.853,290.843 623.853,292.118C623.853,293.492 624.045,294.715 624.43,295.786C624.815,296.858 625.353,297.762 626.046,298.499C626.738,299.235 627.562,299.798 628.519,300.189C629.475,300.579 630.519,300.774 631.651,300.774Z" style="fill:white;fill-rule:nonzero;"/>
                </g>
                <g transform="matrix(0.741941,0,0,0.741662,3044.3,5654.8)">
                    <path d="M650.826,280.197C651.024,280.197 651.189,280.206 651.321,280.222C651.453,280.239 651.571,280.271 651.676,280.321C651.78,280.37 651.882,280.442 651.981,280.535C652.08,280.629 652.189,280.752 652.31,280.906L664.824,296.85C664.781,296.465 664.75,296.089 664.734,295.72C664.717,295.352 664.709,295.009 664.709,294.69L664.709,280.197L668.617,280.197L668.617,304.038L666.325,304.038C665.973,304.038 665.682,303.983 665.451,303.873C665.22,303.764 664.995,303.566 664.775,303.28L652.31,287.402C652.343,287.754 652.368,288.103 652.385,288.449C652.401,288.796 652.409,289.112 652.409,289.397L652.409,304.038L648.502,304.038L648.502,280.197L650.826,280.197Z" style="fill:white;fill-rule:nonzero;"/>
                </g>
                <g transform="matrix(0.741941,0,0,0.741662,3044.3,5654.8)">
                    <path d="M692.425,280.197L692.425,283.726L681.856,283.726L681.856,290.337L690.182,290.337L690.182,293.75L681.856,293.75L681.856,300.494L692.425,300.494L692.425,304.038L677.388,304.038L677.388,280.197L692.425,280.197Z" style="fill:white;fill-rule:nonzero;"/>
                </g>
                <g transform="matrix(0.741941,0,0,0.741662,3044.3,5654.8)">
                    <path d="M704.807,294.723L704.807,304.038L700.372,304.038L700.372,280.197L707.643,280.197C709.27,280.197 710.663,280.365 711.822,280.7C712.982,281.035 713.933,281.505 714.675,282.11C715.417,282.714 715.961,283.437 716.307,284.278C716.653,285.119 716.826,286.045 716.826,287.056C716.826,287.859 716.708,288.617 716.472,289.331C716.236,290.046 715.895,290.694 715.45,291.277C715.005,291.86 714.455,292.371 713.801,292.81C713.147,293.25 712.402,293.602 711.567,293.866C712.127,294.184 712.611,294.64 713.018,295.234L718.986,304.038L714.996,304.038C714.612,304.038 714.285,303.961 714.015,303.808C713.746,303.654 713.518,303.434 713.331,303.148L708.319,295.514C708.132,295.228 707.926,295.025 707.701,294.904C707.475,294.783 707.143,294.723 706.703,294.723L704.807,294.723ZM704.807,291.541L707.577,291.541C708.412,291.541 709.14,291.436 709.761,291.227C710.382,291.019 710.894,290.73 711.295,290.362C711.696,289.994 711.996,289.557 712.193,289.051C712.391,288.546 712.49,287.99 712.49,287.386C712.49,286.177 712.092,285.248 711.295,284.599C710.498,283.951 709.281,283.627 707.643,283.627L704.807,283.627L704.807,291.541Z" style="fill:white;fill-rule:nonzero;"/>
                </g>
            </g>
        </g>
    </g>
    <defs>
        <radialGradient id="_Radial1" cx="0" cy="0" r="1" gradientUnits="userSpaceOnUse" gradientTransform="matrix(963.62,0,0,963.62,785.89,678.9)"><stop offset="0" style="stop-color:rgb(255,241,1);stop-opacity:1"/><stop offset="1" style="stop-color:rgb(230,218,26);stop-opacity:1"/></radialGradient>
        <linearGradient id="_Linear2" x1="0" y1="0" x2="1" y2="0" gradientUnits="userSpaceOnUse" gradientTransform="matrix(446.971,-498.487,498.487,446.971,307.576,703.032)"><stop offset="0" style="stop-color:rgb(207,220,94);stop-opacity:1"/><stop offset="1" style="stop-color:rgb(191,202,101);stop-opacity:1"/></linearGradient>
        <linearGradient id="_Linear3" x1="0" y1="0" x2="1" y2="0" gradientUnits="userSpaceOnUse" gradientTransform="matrix(415.208,-323.108,323.108,415.208,311.036,509.695)"><stop offset="0" style="stop-color:rgb(207,220,94);stop-opacity:1"/><stop offset="1" style="stop-color:rgb(191,202,101);stop-opacity:1"/></linearGradient>
        <linearGradient id="_Linear4" x1="0" y1="0" x2="1" y2="0" gradientUnits="userSpaceOnUse" gradientTransform="matrix(343.999,-863.982,863.982,343.999,527.999,1071.98)"><stop offset="0" style="stop-color:rgb(217,25,99);stop-opacity:1"/><stop offset="1" style="stop-color:rgb(152,18,69);stop-opacity:1"/></linearGradient>
    </defs>
</svg>
