<?xml version="1.0" standalone="no"?><!-- Generator: Gravit.io --><svg xmlns="http://www.w3.org/2000/svg" xmlns:xlink="http://www.w3.org/1999/xlink" style="isolation:isolate" width="963.6800000000001" height="963.8000000000002"><g transform="translate(-304,-197)"><radialGradient id="_rgradient_0" fx="50%" fy="50%" cx="50%" cy="50%" r="50%"><stop offset="0%" style="stop-color:rgb(255,241,1)"/><stop offset="100%" style="stop-color:rgb(230,218,26)"/></radialGradient><path d=" M 785.8799999999999 197 C 1052.02 197 1267.68 412.76000000000005 1267.68 679 C 1267.68 945.1400000000001 1051.92 1160.8000000000002 785.88 1160.8000000000002 C 519.74 1160.8 304.08 945.1000000000001 304.08 679 C 304.08 412.88 519.8199999999999 197 785.8799999999999 197 Z " fill-rule="evenodd" fill="url(#_rgradient_0)" stroke-width="20" stroke="rgba(0,0,0,0)" stroke-linecap="butt"/><path d=" M 1259.34 768.46 C 1206.1 807.5799999999999 1151.48 851.0999999999999 1103.94 895.76 C 995.82 997.3200000000002 933.64 1076.7600000000002 864.5 1154.3200000000002 C 1063.98 1121.56 1222.1 966.4000000000001 1259.34 768.46 Z " fill-rule="evenodd" fill="rgb(136,160,62)" stroke-width="20" stroke="rgba(0,0,0,0)" stroke-linecap="butt"/><linearGradient id="_lgradient_0" x1="0.6840546172347528%" y1="74.32070785763526%" x2="99.44879232487503%" y2="-3.349103374033291%"><stop offset="0%" style="stop-color:rgb(207,220,94)"/><stop offset="100%" style="stop-color:rgb(191,202,101)"/></linearGradient><path d=" M 619.88 347.1 L 304.47999999999996 700.44 C 307.08 759.6400000000001 320.32 816.04 342.4 867.8400000000001 C 480.59999999999997 653.8800000000001 618.8 439.94000000000005 757.04 226.04 C 711.3199999999999 266.44 665.5799999999999 306.84000000000003 619.8799999999999 347.04" fill-rule="evenodd" fill="url(#_lgradient_0)" stroke-width="20" stroke="rgba(0,0,0,0)" stroke-linecap="butt"/><path d=" M 307.28 623.1199999999999 C 305.2 641.44 304 660.02 304 678.92 C 304 686.1199999999999 304.2 693.28 304.53999999999996 700.44 L 619.94 347.0999999999999 C 515.74 439.0999999999999 411.53999999999996 531.1399999999999 307.3 623.0999999999999" fill-rule="evenodd" fill="rgb(136,160,62)" stroke-width="20" stroke="rgba(0,0,0,0)" stroke-linecap="butt"/><linearGradient id="_lgradient_1" x1="0.6840546172347528%" y1="74.32070785763526%" x2="99.44879232487503%" y2="-3.349103374033291%"><stop offset="0%" style="stop-color:rgb(207,220,94)"/><stop offset="100%" style="stop-color:rgb(191,202,101)"/></linearGradient><path d=" M 308.15999999999997 616.52 C 448.35999999999996 477.84 588.36 339.18 728.56 200.51999999999998 C 509.9599999999999 226.45999999999998 336.35999999999996 398.62 308.15999999999997 616.52 Z " fill-rule="evenodd" fill="url(#_lgradient_1)" stroke-width="20" stroke="rgba(0,0,0,0)" stroke-linecap="butt"/><linearGradient id="_lgradient_2" x1="32.034104750304515%" y1="90.89700168304694%" x2="81.91520213444701%" y2="1.1344983065638914%"><stop offset="0%" style="stop-color:rgb(217,25,99)"/><stop offset="100%" style="stop-color:rgb(152,18,69)"/></linearGradient><path d=" M 727.5999999999999 200.52 C 587.4 339.20000000000005 447.79999999999995 477.84000000000003 307.67999999999995 616.52 C 307.4 618.72 307.34 620.9200000000001 307.08 623.1199999999999 C 411.28 531.1199999999999 515.62 439.12 619.8199999999999 347.11999999999995 C 665.52 306.71999999999997 711.34 266.31999999999994 757.02 226.11999999999995 C 618.8199999999999 440 480.62 653.92 342.41999999999996 867.9200000000001 L 342.52 868.04 C 346.41999999999996 877.24 350.71999999999997 886.24 355.2 895.1199999999999 C 356.14 897 357.09999999999997 898.8399999999999 358.05999999999995 900.6800000000001 C 362.41999999999996 909.1199999999999 366.97999999999996 917.44 371.85999999999996 925.56 L 372.61999999999995 926.96 C 377.91999999999996 935.72 383.49999999999994 944.3 389.29999999999995 952.7 L 392.15999999999997 956.7 C 397.29999999999995 963.98 402.65999999999997 971.0999999999999 408.15999999999997 978.0999999999999 C 409.09999999999997 979.24 409.9599999999999 980.3799999999999 410.87999999999994 981.5 C 417.4 989.56 424.11999999999995 997.44 431.0799999999999 1005.04 L 431.5799999999999 1005.54 C 438.29999999999995 1012.8400000000001 445.29999999999995 1019.8600000000001 452.43999999999994 1026.74 L 455.71999999999997 1029.8400000000001 C 470.78 1044.0400000000002 486.71999999999997 1057.24 503.52 1069.38 L 505.91999999999996 1071.08 C 514.28 1077.08 522.8 1082.8 531.52 1088.24 L 531.78 1088.4 C 550.1199999999999 1099.8 569.28 1110 589.18 1118.88 L 590.4799999999999 1119.48 C 610.3599999999999 1128.28 630.8799999999999 1135.8200000000002 652.1199999999999 1141.92 L 652.9999999999999 1142.18 C 685.1199999999999 1151.34 718.5999999999999 1157.3 753.1999999999999 1159.6200000000001 C 754.52 882.5800000000002 849.9199999999998 536.6200000000001 996.72 245.54000000000002 C 933.04 214.52 860.58 197.08 784.98 197.08 C 773.48 197.08 737.6999999999999 198.88000000000002 727.66 200.60000000000002" fill-rule="evenodd" fill="url(#_lgradient_2)" stroke-width="20" stroke="rgba(0,0,0,0)" stroke-linecap="butt"/></g></svg>