<?xml version="1.0" encoding="utf-8"?><svg preserveAspectRatio="none" width="1088" height="16" viewBox="0 0 1088 16" xmlns="http://www.w3.org/2000/svg" xmlns:xlink="http://www.w3.org/1999/xlink"><svg width="16" height="16" viewBox="0 0 16 16" id="addLayer" xmlns="http://www.w3.org/2000/svg"><path d="M0 7l5-5h10l-5 5zm0 4l3-3h8l2-2h2l-5 5zm0 4l3-3h8l2-2h2l-5 5z" fill="#fff"/></svg><svg width="16" height="16" viewBox="0 0 16 16" id="bringBack" x="16" xmlns="http://www.w3.org/2000/svg"><path d="M8 14L2 8V6l6 6 6-6v2z" fill="#fff"/><path d="M8 10L2 4V2l6 6 6-6v2z" fill="#fff"/></svg><svg width="16" height="16" viewBox="0 0 16 16" id="bringBackward" x="32" xmlns="http://www.w3.org/2000/svg"><path d="M8 13L2 7V4l6 6 6-6v3z" fill="#fff"/></svg><svg width="16" height="16" viewBox="0 0 16 16" id="bringForward" x="48" xmlns="http://www.w3.org/2000/svg"><path d="M8 3L2 9v3l6-6 6 6V9z" fill="#fff"/></svg><svg width="16" height="16" viewBox="0 0 16 16" id="bringFront" x="64" xmlns="http://www.w3.org/2000/svg"><path d="M8 2L2 8v2l6-6 6 6V8z" fill="#fff"/><path d="M8 6l-6 6v2l6-6 6 6v-2z" fill="#fff"/></svg><svg width="16" height="16" viewBox="0 0 16 16" id="browseTool" x="80" xmlns="http://www.w3.org/2000/svg"><path d="M2 14l4-8 8-4-4 8zM1 9q0-8 8-8v1Q2 2 2 9zm6 5q7 0 7-7h1q0 8-8 8z" fill="#fff"/></svg><svg width="16" height="16" viewBox="0 0 16 16" id="browseTool_all" x="96" xmlns="http://www.w3.org/2000/svg"><path d="M0 2v13h15V2zm1 1h13v11H1zm1 1h5v5H2zm6 4h5v5H8z" fill="#fff"/></svg><svg width="16" height="16" viewBox="0 0 16 16" id="browseTool_center" x="112" xmlns="http://www.w3.org/2000/svg"><path d="M0 2v13h15V2zm1 1h13v11H1zm3 5h3V5h1v3h3v1H8v3H7V9H4z" fill="#fff"/></svg><svg width="16" height="16" viewBox="0 0 16 16" id="brush" x="128" xmlns="http://www.w3.org/2000/svg"><path d="M0 15q11 0 11-6l5-5-2-2-5 5q-4 0-9 8z" fill="#fff"/></svg><svg width="16" height="16" viewBox="0 0 16 16" id="copy" x="144" xmlns="http://www.w3.org/2000/svg"><path d="M1 1h9v2H5v9H1zm5 3h9v11H6z" fill="#fff"/></svg><svg width="16" height="16" viewBox="0 0 16 16" id="cut" x="160" xmlns="http://www.w3.org/2000/svg"><path d="M6 3l3-3v7h7l-3 3H8v1q2 0 2 2.5T7.5 16Q5 16 5 13.5T7 11v-1L6 9H5q0 2-2.5 2T0 8.5Q0 6 2.5 6T5 8h1zM1 8.5Q1 10 2.5 10T4 8.5Q4 7 2.5 7T1 8.5zm5 5Q6 15 7.5 15T9 13.5Q9 12 7.5 12T6 13.5z" fill="#fff"/></svg><svg width="16" height="16" viewBox="0 0 16 16" id="delete" x="176" xmlns="http://www.w3.org/2000/svg"><path d="M1 4l1-2h4V1h3v1h4l1 2zm1 1h11v10H2zm3 2v6h1V7zm4 0v6h1V7z" fill="#fff"/></svg><svg width="16" height="16" viewBox="0 0 16 16" id="deselect" x="192" xmlns="http://www.w3.org/2000/svg"><path d="M2 1h3v1H2zm12 9h1v3h-1zm-3 4h3v1h-3zm-5 0h3v1H6zm-5 0h3v1H1zM0 9h1v3H0zm0-5h1v3H0zm6-4h2l3 3 3-3h2l-4 4 4 4h-2l-3-3-3 3H6l4-4z" fill="#fff"/></svg><svg width="16" height="16" viewBox="0 0 16 16" id="down" x="208" xmlns="http://www.w3.org/2000/svg"><path d="M8 13L2 7V4l6 6 6-6v3z" fill="#fff"/></svg><svg width="16" height="16" viewBox="0 0 16 16" id="eraser" x="224" xmlns="http://www.w3.org/2000/svg"><path d="M0 10L10 0l6 6L6 16zm2 0l4 4 5-5-4-4z" fill="#fff"/></svg><svg width="16" height="16" viewBox="0 0 16 16" id="gradientLinear" x="240" xmlns="http://www.w3.org/2000/svg"><path d="M15 1v14h-4V1zM8 1v14H6V1zM2 1v14H1V1z" fill="#fff"/></svg><svg width="16" height="16" viewBox="0 0 16 16" id="gradientRadial" x="256" xmlns="http://www.w3.org/2000/svg"><path d="M8 15q0-7 7-7v7zm-4 0Q4 4 15 4v2q-9 0-9 9zm-4 0Q0 0 15 0v1Q1 1 1 15z" fill="#fff"/></svg><svg width="16" height="16" viewBox="0 0 16 16" id="group" x="272" xmlns="http://www.w3.org/2000/svg"><path d="M4 7h5v5H4zm3-3h5v5h-2V6H7zM0 1h2v2H0zm7 0h2v2H7zm7 0h2v2h-2zm0 6h2v2h-2zm0 6h2v2h-2zm-7 0h2v2H7zm-7 0h2v2H0zm0-6h2v2H0z" fill="#fff"/></svg><svg width="16" height="16" viewBox="0 0 16 16" id="help" x="288" xmlns="http://www.w3.org/2000/svg"><path d="M0 8q0 8 8 8t8-8q0-8-8-8T0 8zm4-5q2-1 4-1 5 0 5 4 0 2-2 3t-2 2H7q0-2 2-3t2-2q0-2-3-2-2 0-4 1zm3 9h2v2H7z" fill="#fff"/></svg><svg width="16" height="16" viewBox="0 0 16 16" id="inker_small" x="304" xmlns="http://www.w3.org/2000/svg"><path d="M3.5 5H9v6.5q0 .5.5.5t1-2h2q-1 5-4.5 5-3 0-3-3V8q0-1-1.5-1zM7 0q2.5 0 2.5 2T7 4Q4.5 4 4.5 2T7 0z" fill="#fff"/></svg><svg width="16" height="16" viewBox="0 0 16 16" id="left" x="320" xmlns="http://www.w3.org/2000/svg"><path d="M3 8l6-6h3L6 8l6 6H9z" fill="#fff"/></svg><svg width="16" height="16" viewBox="0 0 16 16" id="menu" x="336" xmlns="http://www.w3.org/2000/svg"><path d="M1 2h14v2H1zm0 5h14v2H1zm0 5h14v2H1z" fill="#fff"/></svg><svg width="16" height="16" viewBox="0 0 16 16" id="new" x="352" xmlns="http://www.w3.org/2000/svg"><path d="M1 1h8v4h2v2h2v8H1zm9 1h2V0h2v2h2v2h-2v2h-2V4h-2z" fill="#fff"/></svg><svg width="16" height="16" viewBox="0 0 16 16" id="open" x="368" xmlns="http://www.w3.org/2000/svg"><path d="M1 1h12v4h-1V2H2v10l2-6h12l-3 9H1z" fill="#fff"/></svg><svg width="16" height="16" viewBox="0 0 16 16" id="paste" x="384" xmlns="http://www.w3.org/2000/svg"><path d="M1 3h3l1-2h5l1 2h3v2H7v8H1zm7 3h7v9H8z" fill="#fff"/></svg><svg width="16" height="16" viewBox="0 0 16 16" id="pathTool" x="400" xmlns="http://www.w3.org/2000/svg"><path d="M4 1l10 10H8l-4 4z" fill="#fff"/></svg><svg width="16" height="16" viewBox="0 0 16 16" id="pathTool_align" x="416" xmlns="http://www.w3.org/2000/svg"><path d="M.5 14.5l14-14 1 1L1 16zM1 9h2v2H1zm8-8h2v2H9zm0 8h2v2H9z" fill="#fff"/></svg><svg width="16" height="16" viewBox="0 0 16 16" id="pathTool_backMFront" x="432" xmlns="http://www.w3.org/2000/svg"><path d="M0 5h4v1H1v9h9v-3h1v4H0zm5-5h11v11h-5V5H5z" fill="#fff"/></svg><svg width="16" height="16" viewBox="0 0 16 16" id="pathTool_close" x="448" xmlns="http://www.w3.org/2000/svg"><path d="M0 7h4V4h2q0-3 2-3t2 3h2v3h4v2h-4v3H4V9H0zm7-3h2q0-2-1-2T7 4z" fill="#fff"/></svg><svg width="16" height="16" viewBox="0 0 16 16" id="pathTool_distort" x="464" xmlns="http://www.w3.org/2000/svg"><path d="M0 3h2v2H0zm14-3h2v2h-2zm-3 14h2v2h-2zM0 14h2v2H0zM4 3l8-2v1L4 4zm10 1h1l-2 8h-1l2-8zM1 7h1v5H1zm3 7h5v1H4z" fill="#fff"/></svg><svg width="16" height="16" viewBox="0 0 16 16" id="pathTool_frontMBack" x="480" xmlns="http://www.w3.org/2000/svg"><path d="M0 5h5v6h6v5H0zm5-5h11v11h-4v-1h3V1H6v3H5z" fill="#fff"/></svg><svg width="16" height="16" viewBox="0 0 16 16" id="pathTool_intersection" x="496" xmlns="http://www.w3.org/2000/svg"><path d="M0 5h4v1H1v9h9v-3h1v4H0zm5-5h11v11h-4v-1h3V1H6v3H5zm0 5h6v6H5z" fill="#fff"/></svg><svg width="16" height="16" viewBox="0 0 16 16" id="pathTool_join" x="512" xmlns="http://www.w3.org/2000/svg"><path d="M0 5h4v7h7v4H0zm5-5h11v11h-4V4H5zm0 5h6v6H5z" fill="#fff"/></svg><svg width="16" height="16" viewBox="0 0 16 16" id="pathTool_open" x="528" xmlns="http://www.w3.org/2000/svg"><path d="M0 8q4 0 8-4l1.5 1.5Q5 10-3 10zm10 0h6v2h-6z" fill="#fff"/></svg><svg width="16" height="16" viewBox="0 0 16 16" id="pathTool_reverse" x="544" xmlns="http://www.w3.org/2000/svg"><path d="M0 4l3-3h3L4 3h11v2H4l2 2H3zm1 7h11l-2-2h3l3 3-3 3h-3l2-2H1z" fill="#fff"/></svg><svg width="16" height="16" fill="#fff" viewBox="0 0 16 16" id="pathTool_simplify" x="560" xmlns="http://www.w3.org/2000/svg"><path d="M1 15Q1 1 15 1v1Q2 2 2 15zm5 0q0-9 9-9v1q-8 0-8 8z"/><path d="M0 13h3v3H0zM5 13h3v3H5zM13 0h3v3h-3zM13 5h3v3h-3z"/></svg><svg width="16" height="16" viewBox="0 0 16 16" id="pathTool_split" x="576" xmlns="http://www.w3.org/2000/svg"><path d="M0 9h7v7H0zm9-9h7v7H9zM3 4l1-1 9 9-1 1z" fill="#fff"/></svg><svg width="16" height="16" fill="#fff" viewBox="0 0 16 16" id="pathTool_strokeToPath" x="592" xmlns="http://www.w3.org/2000/svg"><path d="M1 15Q1 1 15 1v1Q2 2 2 15zm5 0q0-9 9-9v1q-8 0-8 8z"/><path d="M0 13h3v3H0zM5 13h3v3H5zM13 0h3v3h-3zM13 5h3v3h-3z"/><circle cx="5" cy="5" r="2"/><circle cx="9" cy="9" r="2"/></svg><svg width="16" height="16" viewBox="0 0 16 16" id="pathTool_union" x="608" xmlns="http://www.w3.org/2000/svg"><path d="M1 6h5V1h9v9h-5v5H1z" fill="#fff"/></svg><svg width="16" height="16" viewBox="0 0 16 16" id="pencil" x="624" xmlns="http://www.w3.org/2000/svg"><path d="M1 15l2-6 9-9 4 4-9 9zM12.5 2.5l-8 8 1 1 8-8z" fill="#fff"/></svg><svg width="16" height="16" viewBox="0 0 16 16" id="plus" x="640" xmlns="http://www.w3.org/2000/svg"><path d="M1 6h5V1h4v5h5v4h-5v5H6v-5H1z" fill="#fff"/></svg><svg width="16" height="16" viewBox="0 0 16 16" id="redo" x="656" xmlns="http://www.w3.org/2000/svg"><path d="M2 6h7L5 2h4l6 6-6 6H5l4-4H2z" fill="#fff"/></svg><svg width="16" height="16" viewBox="0 0 16 16" id="right" x="672" xmlns="http://www.w3.org/2000/svg"><path d="M4 2h3l6 6-6 6H4l6-6-6-6z" fill="#fff"/></svg><svg width="16" height="16" viewBox="0 0 16 16" id="rulerTool" x="688" xmlns="http://www.w3.org/2000/svg"><path d="M0 14L14 0v5l-6 6h6v3z" fill="#fff"/></svg><svg width="16" height="16" viewBox="0 0 16 16" id="save" x="704" xmlns="http://www.w3.org/2000/svg"><path d="M1 1h3v6h8V1h1l2 2v12H1zm8 1h2v4H9z" fill="#fff"/></svg><svg width="16" height="16" viewBox="0 0 16 16" id="select" x="720" xmlns="http://www.w3.org/2000/svg"><path d="M1 1h3v1H1zm5 0h3v1H6zm5 0h3v1h-3zm3 3h1v3h-1zm0 5h1v3h-1zm-3 5h3v1h-3zm-5 0h3v1H6zm-5 0h3v1H1zM0 9h1v3H0zm0-5h1v3H0zM3 7h5v5H3zm4-3h5v5H9V6H7z" fill="#fff"/></svg><svg width="16" height="16" viewBox="0 0 16 16" id="selectTool" x="736" xmlns="http://www.w3.org/2000/svg"><path d="M1 2l9 9H6l2 4-2 1-2-4-3 3zm4-1h3v1H5zm5 0h3v1h-3zm4 3h1v3h-1zm0 5h1v3h-1zm-4 5h3v1h-3z" fill="#fff"/></svg><svg width="16" height="16" viewBox="0 0 16 16" id="selectTool_flipX" x="752" xmlns="http://www.w3.org/2000/svg"><path d="M1 2h6v1H2v5h4v6h1v1H5V9H1zm7 0h7v7h-5v6H8" fill="#fff"/></svg><svg width="16" height="16" viewBox="0 0 16 16" id="selectTool_flipY" x="768" xmlns="http://www.w3.org/2000/svg"><path d="M1 5h6V1h7v6h-1V2H8v4H2v1H1zm0 3h13v7H7v-5H1z" fill="#fff"/></svg><svg width="16" height="16" viewBox="0 0 16 16" id="shapeTool" x="784" xmlns="http://www.w3.org/2000/svg"><path d="M1 6h9v9H1zm5-1q0-5 5-5t5 5q0 5-5 5V5z" fill="#fff"/></svg><svg width="16" height="16" viewBox="0 0 16 16" id="shapeTool_ellipse" x="800" xmlns="http://www.w3.org/2000/svg"><circle cx="8" cy="8" r="7" fill="#fff"/></svg><svg width="16" height="16" viewBox="0 0 16 16" id="shapeTool_rectangle" x="816" xmlns="http://www.w3.org/2000/svg"><path d="M2 2h12v12H2z" fill="#fff"/></svg><svg width="16" height="16" viewBox="0 0 16 16" id="textTool" x="832" xmlns="http://www.w3.org/2000/svg"><path d="M5 1h3v4h4v2H8v3q0 2 2 2h2v2h-2q-5 0-5-4V7H3V5h2z" fill="#fff"/></svg><svg width="16" height="16" viewBox="0 0 16 16" id="textTool_anchorLeft" x="848" xmlns="http://www.w3.org/2000/svg"><path d="M1 2h14v2H1zm7 5h7v2H8zm-3 5h10v2H5z" fill="#fff"/></svg><svg width="16" height="16" viewBox="0 0 16 16" id="textTool_anchorMiddle" x="864" xmlns="http://www.w3.org/2000/svg"><path d="M1 2h14v2H1zm3 5h8v2H4zm-1 5h10v2H3z" fill="#fff"/></svg><svg width="16" height="16" viewBox="0 0 16 16" id="textTool_anchorRight" x="880" xmlns="http://www.w3.org/2000/svg"><path d="M1 2h14v2H1zm0 5h7v2H1zm0 5h10v2H1z" fill="#fff"/></svg><svg width="16" height="16" viewBox="0 0 16 16" id="textTool_weightBold" x="896" xmlns="http://www.w3.org/2000/svg"><path d="M1 1h7q6 0 6 4 0 1-1 3 2 1 2 3 0 4-6 4H1zm5 3v8h3q1 0 1-2T8 8q1-1 1-2 0-2-1-2z" fill="#fff"/></svg><svg width="16" height="16" viewBox="0 0 16 16" id="textTool_weightLight" x="912" xmlns="http://www.w3.org/2000/svg"><path d="M4 1h1v13h8v1H4z" fill="#fff"/></svg><svg width="16" height="16" viewBox="0 0 16 16" id="textTool_weightNormal" x="928" xmlns="http://www.w3.org/2000/svg"><path d="M3 1h4l5 10V1h3v14h-4L6 5v10H3z" fill="#fff"/></svg><svg width="16" height="16" viewBox="0 0 16 16" id="undo" x="944" xmlns="http://www.w3.org/2000/svg"><path d="M1 8l6-6h4L7 6h7v4H7l4 4H7z" fill="#fff"/></svg><svg width="16" height="16" viewBox="0 0 16 16" id="ungroup" x="960" xmlns="http://www.w3.org/2000/svg"><path d="M3 9h5v5H3zm3-3h5v5H9V8H6zM0 1h2v1H1v1H0zm14 13h1v2h-2v-1h1zM0 14h1v1h1v1H0zM9.5 0h1l2 2 2-2h1L13 2.5 15.5 5h-1l-2-2-2 2h-1L12 2.5z" fill="#fff"/></svg><svg width="16" height="16" viewBox="0 0 16 16" id="up" x="976" xmlns="http://www.w3.org/2000/svg"><path d="M8 3L2 9v3l6-6 6 6V9z" fill="#fff"/></svg><svg width="16" height="16" viewBox="0 0 16 16" id="window_close" x="992" xmlns="http://www.w3.org/2000/svg"><path d="M1.5 2h2l5 5 5-5h2l-6 6 6 6h-2l-5-5-5 5h-2l6-6z" fill="#fff"/></svg><svg width="16" height="16" viewBox="0 0 16 16" id="window_maximize" x="1008" xmlns="http://www.w3.org/2000/svg"><path d="M1 2h14v12H1zm1 2v9h12V4z" fill="#fff"/></svg><svg width="16" height="16" viewBox="0 0 16 16" id="window_minimize" x="1024" xmlns="http://www.w3.org/2000/svg"><path d="M2 14h12v2H2z" fill="#fff"/></svg><svg width="16" height="16" viewBox="0 0 16 16" id="window_restore" x="1040" xmlns="http://www.w3.org/2000/svg"><path d="M1 6h10v9H1zm1 2v6h8V8zm3-7h10v9h-3V9h2V3H6v2H5z" fill="#fff"/></svg><svg width="16" height="16" viewBox="0 0 16 16" id="zoomIn" x="1056" xmlns="http://www.w3.org/2000/svg"><path d="M0 7q0-7 7-7t7 7q0 2-1 3.5l3 3-2.5 2.5-3-3Q9 14 7 14q-7 0-7-7zm2 0q0 5 5 5t5-5q0-5-5-5T2 7zm2-1h2V4h2v2h2v2H8v2H6V8H4z" fill="#fff"/></svg><svg width="16" height="16" viewBox="0 0 16 16" id="zoomOut" x="1072" xmlns="http://www.w3.org/2000/svg"><path d="M0 7q0-7 7-7t7 7q0 2-1 3.5l3 3-2.5 2.5-3-3Q9 14 7 14q-7 0-7-7zm2 0q0 5 5 5t5-5q0-5-5-5T2 7zm2-1h6v2H4z" fill="#fff"/></svg></svg>