<?xml version="1.0" standalone="no"?>
<!-- Generator: Gravit.io -->
<svg xmlns="http://www.w3.org/2000/svg" xmlns:xlink="http://www.w3.org/1999/xlink" style="isolation:isolate" viewBox="21.084 92.263 151.434 43.049" width="151.434" height="43.049">
    <g id="gravit-cloud">
        <path d=" M 92.386 100.186 C 92.656 100.186 92.875 100.272 93.044 100.44 C 93.213 100.608 93.315 100.831 93.315 101.109 L 93.315 113.989 C 93.315 115.537 92.977 116.86 92.318 117.962 C 91.642 119.062 90.73 119.899 89.582 120.475 C 88.433 121.05 87.099 121.337 85.612 121.337 C 84.903 121.337 84.143 121.249 83.366 121.07 C 82.572 120.891 81.896 120.663 81.339 120.385 C 80.781 120.108 80.46 119.821 80.376 119.522 C 80.224 119.385 80.156 119.226 80.156 119.047 C 80.156 118.849 80.258 118.689 80.444 118.571 C 80.511 118.511 80.612 118.481 80.748 118.481 C 80.866 118.481 81.102 118.552 81.44 118.689 L 82.099 118.958 C 83.366 119.434 84.548 119.672 85.646 119.672 C 87.47 119.672 88.889 119.172 89.92 118.17 C 90.95 117.168 91.474 115.814 91.474 114.109 L 91.474 112.264 C 90.967 113.335 90.156 114.173 89.041 114.778 C 87.943 115.383 86.795 115.686 85.579 115.686 C 84.176 115.686 82.91 115.343 81.761 114.66 C 80.629 113.974 79.734 113.028 79.092 111.818 C 78.434 110.609 78.113 109.249 78.113 107.743 C 78.113 106.256 78.434 104.906 79.092 103.696 C 79.734 102.487 80.629 101.541 81.761 100.857 C 82.91 100.172 84.16 99.831 85.545 99.831 C 86.845 99.831 88.028 100.142 89.092 100.767 C 90.173 101.391 90.967 102.141 91.474 103.013 L 91.474 101.109 C 91.474 100.852 91.558 100.632 91.727 100.455 C 91.896 100.277 92.115 100.186 92.386 100.186 Z  M 85.73 114.02 C 86.862 114.02 87.876 113.756 88.754 113.232 C 89.649 112.705 90.342 111.963 90.849 111 C 91.338 110.038 91.592 108.953 91.592 107.743 C 91.592 106.533 91.338 105.452 90.849 104.5 C 90.342 103.549 89.649 102.809 88.754 102.283 C 87.876 101.759 86.862 101.496 85.73 101.496 C 84.633 101.496 83.636 101.768 82.758 102.314 C 81.862 102.859 81.17 103.608 80.663 104.56 C 80.156 105.511 79.92 106.572 79.92 107.743 C 79.92 108.933 80.156 110.004 80.663 110.956 C 81.17 111.907 81.862 112.656 82.758 113.202 C 83.636 113.746 84.633 114.02 85.73 114.02 Z  M 108.348 99.831 C 108.753 99.831 109.125 99.909 109.446 100.068 C 109.784 100.226 109.936 100.465 109.936 100.781 C 109.936 101.06 109.868 101.283 109.699 101.45 C 109.53 101.619 109.344 101.704 109.108 101.704 C 109.007 101.704 108.804 101.654 108.517 101.555 C 108.23 101.455 107.943 101.406 107.672 101.406 C 106.912 101.406 106.169 101.69 105.426 102.254 C 104.682 102.819 104.058 103.549 103.585 104.441 C 103.095 105.333 102.858 106.236 102.858 107.148 L 102.858 114.496 C 102.858 114.753 102.774 114.966 102.605 115.135 C 102.419 115.304 102.216 115.388 101.946 115.388 C 101.676 115.388 101.456 115.304 101.287 115.135 C 101.118 114.966 101.017 114.753 101.017 114.496 L 101.017 101.168 C 101.017 100.911 101.118 100.698 101.287 100.529 C 101.456 100.36 101.676 100.277 101.946 100.277 C 102.216 100.277 102.419 100.36 102.605 100.529 C 102.774 100.698 102.858 100.911 102.858 101.168 L 102.858 103.787 C 103.331 102.655 104.041 101.719 104.987 100.975 C 105.949 100.232 107.064 99.85 108.348 99.831 Z  M 128.415 100.186 C 128.685 100.186 128.905 100.277 129.074 100.455 C 129.243 100.632 129.344 100.852 129.344 101.109 L 129.344 114.496 C 129.344 114.753 129.243 114.966 129.074 115.135 C 128.905 115.304 128.685 115.388 128.415 115.388 C 128.145 115.388 127.925 115.304 127.756 115.135 C 127.587 114.966 127.503 114.753 127.503 114.496 L 127.503 112.502 C 126.979 113.394 126.219 114.148 125.205 114.763 C 124.175 115.378 123.06 115.686 121.861 115.686 C 120.493 115.686 119.26 115.338 118.162 114.645 C 117.064 113.95 116.219 112.999 115.594 111.789 C 114.969 110.579 114.648 109.22 114.648 107.713 C 114.648 106.207 114.969 104.852 115.611 103.652 C 116.236 102.452 117.098 101.516 118.196 100.84 C 119.293 100.167 120.493 99.831 121.827 99.831 C 123.06 99.831 124.175 100.117 125.205 100.693 C 126.219 101.268 126.979 102.021 127.503 102.954 L 127.503 101.109 C 127.503 100.852 127.587 100.632 127.756 100.455 C 127.925 100.277 128.145 100.186 128.415 100.186 Z  M 122.047 114.02 C 123.094 114.02 124.057 113.746 124.901 113.202 C 125.746 112.656 126.422 111.902 126.895 110.941 C 127.384 109.979 127.621 108.903 127.621 107.713 C 127.621 106.562 127.384 105.511 126.895 104.56 C 126.422 103.608 125.746 102.859 124.901 102.314 C 124.057 101.768 123.094 101.496 122.047 101.496 C 120.983 101.496 120.02 101.764 119.175 102.3 C 118.331 102.834 117.655 103.574 117.182 104.515 C 116.709 105.457 116.456 106.523 116.456 107.713 C 116.456 108.903 116.692 109.979 117.165 110.941 C 117.638 111.902 118.297 112.656 119.142 113.202 C 119.986 113.746 120.966 114.02 122.047 114.02 Z  M 148.853 99.89 C 149.056 99.89 149.242 99.958 149.428 100.098 C 149.613 100.237 149.715 100.414 149.715 100.632 C 149.715 100.811 149.664 100.98 149.58 101.139 L 143.583 114.822 C 143.499 114.981 143.381 115.115 143.229 115.224 C 143.076 115.333 142.908 115.388 142.756 115.388 C 142.553 115.407 142.367 115.368 142.198 115.27 C 142.029 115.17 141.911 115.02 141.826 114.822 L 135.796 101.139 C 135.796 101.1 135.779 101.039 135.746 100.96 C 135.712 100.881 135.695 100.801 135.695 100.722 C 135.695 100.485 135.779 100.281 135.948 100.113 C 136.117 99.944 136.337 99.86 136.658 99.86 C 136.844 99.86 137.012 99.914 137.164 100.024 C 137.317 100.132 137.435 100.277 137.502 100.455 L 142.722 112.502 L 147.958 100.455 C 148.043 100.277 148.161 100.132 148.313 100.024 C 148.465 99.914 148.651 99.87 148.853 99.89 Z  M 157.89 114.496 C 157.89 114.753 157.789 114.966 157.62 115.135 C 157.451 115.304 157.231 115.388 156.961 115.388 C 156.708 115.388 156.471 115.304 156.302 115.135 C 156.134 114.966 156.049 114.753 156.049 114.496 L 156.049 100.811 C 156.049 100.554 156.134 100.34 156.302 100.172 C 156.471 100.003 156.708 99.919 156.961 99.919 C 157.231 99.919 157.451 100.003 157.62 100.172 C 157.789 100.34 157.89 100.554 157.89 100.811 L 157.89 114.496 Z  M 156.961 97.925 C 156.556 97.925 156.235 97.832 156.015 97.644 C 155.796 97.455 155.677 97.183 155.677 96.825 L 155.677 96.529 C 155.677 96.171 155.796 95.897 156.032 95.711 C 156.269 95.522 156.589 95.427 156.995 95.427 C 157.806 95.427 158.228 95.794 158.228 96.529 L 158.228 96.825 C 158.228 97.183 158.11 97.455 157.907 97.644 C 157.687 97.832 157.367 97.925 156.961 97.925 Z  M 168.599 101.913 L 168.599 111.877 C 168.599 112.632 168.751 113.142 169.038 113.41 C 169.326 113.678 169.697 113.81 170.17 113.81 C 170.288 113.81 170.44 113.786 170.626 113.737 C 170.812 113.687 170.947 113.663 171.048 113.663 C 171.234 113.663 171.403 113.737 171.538 113.886 C 171.657 114.035 171.724 114.207 171.724 114.406 C 171.724 114.684 171.572 114.917 171.234 115.106 C 170.913 115.294 170.525 115.388 170.069 115.388 C 169.528 115.388 169.038 115.338 168.599 115.238 C 168.177 115.14 167.755 114.843 167.366 114.347 C 166.961 113.851 166.758 113.058 166.758 111.968 L 166.758 101.913 L 164.528 101.913 C 164.275 101.913 164.072 101.832 163.903 101.675 C 163.718 101.516 163.633 101.318 163.633 101.08 C 163.633 100.84 163.718 100.644 163.903 100.485 C 164.072 100.326 164.275 100.247 164.528 100.247 L 166.758 100.247 L 166.758 96.945 C 166.758 96.686 166.859 96.473 167.028 96.304 C 167.197 96.137 167.417 96.052 167.687 96.052 C 167.941 96.052 168.177 96.137 168.346 96.304 C 168.515 96.473 168.599 96.686 168.599 96.945 L 168.599 100.247 L 171.673 100.247 C 171.893 100.247 172.096 100.336 172.265 100.514 C 172.433 100.693 172.518 100.891 172.518 101.109 C 172.518 101.347 172.45 101.541 172.282 101.69 C 172.113 101.837 171.91 101.913 171.673 101.913 L 168.599 101.913 Z "
            fill-rule="evenodd"/>
        <path d=" M 124.429 123.123 C 125.239 123.123 125.915 123.246 126.438 123.495 C 126.979 123.742 127.249 124.059 127.249 124.446 C 127.249 124.615 127.199 124.765 127.08 124.9 C 126.962 125.034 126.827 125.1 126.658 125.1 C 126.523 125.1 126.422 125.08 126.337 125.041 C 126.253 125.001 126.151 124.938 126.016 124.847 C 125.965 124.788 125.864 124.72 125.729 124.639 C 125.611 124.58 125.442 124.531 125.205 124.49 C 124.986 124.451 124.783 124.431 124.597 124.431 C 124.057 124.431 123.601 124.551 123.179 124.788 C 122.773 125.026 122.469 125.356 122.233 125.777 C 122.013 126.198 121.895 126.667 121.895 127.184 C 121.895 127.708 122.013 128.179 122.233 128.595 C 122.452 129.012 122.756 129.34 123.162 129.577 C 123.55 129.815 124.006 129.935 124.513 129.935 C 125.053 129.935 125.476 129.854 125.814 129.697 C 125.881 129.658 125.982 129.592 126.101 129.504 C 126.202 129.423 126.287 129.364 126.371 129.325 C 126.438 129.285 126.54 129.266 126.658 129.266 C 126.861 129.266 127.013 129.326 127.131 129.451 C 127.249 129.576 127.317 129.736 127.317 129.935 C 127.317 130.143 127.182 130.348 126.911 130.551 C 126.624 130.754 126.27 130.922 125.814 131.05 C 125.357 131.179 124.868 131.243 124.361 131.243 C 123.567 131.243 122.891 131.068 122.3 130.715 C 121.709 130.363 121.253 129.877 120.932 129.258 C 120.611 128.638 120.442 127.946 120.442 127.184 C 120.442 126.42 120.611 125.728 120.949 125.108 C 121.287 124.488 121.76 124.003 122.351 123.651 C 122.959 123.298 123.651 123.123 124.429 123.123 Z  M 133.263 130.381 C 133.263 130.579 133.195 130.748 133.043 130.886 C 132.908 131.025 132.739 131.095 132.519 131.095 C 132.317 131.095 132.148 131.025 132.013 130.886 C 131.877 130.748 131.81 130.579 131.81 130.381 L 131.81 120.801 C 131.81 120.604 131.877 120.436 132.013 120.296 C 132.165 120.157 132.334 120.088 132.536 120.088 C 132.756 120.088 132.925 120.157 133.06 120.296 C 133.195 120.436 133.263 120.604 133.263 120.801 L 133.263 130.381 Z  M 146.032 127.198 C 146.032 127.971 145.863 128.666 145.492 129.281 C 145.137 129.895 144.647 130.376 144.039 130.723 C 143.414 131.069 142.739 131.243 141.996 131.243 C 141.252 131.243 140.56 131.069 139.952 130.723 C 139.327 130.376 138.837 129.895 138.482 129.281 C 138.127 128.666 137.942 127.971 137.942 127.198 C 137.942 126.425 138.127 125.725 138.482 125.1 C 138.837 124.475 139.327 123.99 139.952 123.642 C 140.56 123.296 141.252 123.123 141.996 123.123 C 142.739 123.123 143.414 123.296 144.039 123.642 C 144.647 123.99 145.137 124.475 145.492 125.1 C 145.863 125.725 146.032 126.425 146.032 127.198 Z  M 144.58 127.198 C 144.58 126.662 144.462 126.184 144.242 125.762 C 144.005 125.341 143.701 125.013 143.296 124.78 C 142.908 124.547 142.468 124.431 141.996 124.431 C 141.506 124.431 141.066 124.547 140.678 124.78 C 140.289 125.013 139.968 125.341 139.749 125.762 C 139.512 126.184 139.394 126.662 139.394 127.198 C 139.394 127.723 139.512 128.194 139.749 128.61 C 139.968 129.026 140.289 129.353 140.678 129.585 C 141.066 129.818 141.506 129.935 141.996 129.935 C 142.468 129.935 142.908 129.818 143.296 129.585 C 143.701 129.353 144.005 129.026 144.242 128.61 C 144.462 128.194 144.58 127.723 144.58 127.198 Z  M 156.573 123.301 C 156.792 123.301 156.961 123.37 157.096 123.51 C 157.231 123.647 157.316 123.816 157.316 124.015 L 157.316 127.971 C 157.316 129.002 157.012 129.804 156.421 130.374 C 155.846 130.943 155.002 131.228 153.938 131.228 C 152.873 131.228 152.046 130.943 151.472 130.374 C 150.88 129.804 150.593 129.002 150.593 127.971 L 150.593 124.015 C 150.593 123.816 150.661 123.647 150.796 123.51 C 150.948 123.37 151.117 123.301 151.319 123.301 C 151.522 123.301 151.708 123.37 151.843 123.51 C 151.978 123.647 152.046 123.816 152.046 124.015 L 152.046 127.971 C 152.046 129.271 152.671 129.92 153.938 129.92 C 154.563 129.92 155.036 129.756 155.356 129.428 C 155.694 129.102 155.846 128.615 155.846 127.971 L 155.846 124.015 C 155.846 123.816 155.914 123.647 156.049 123.51 C 156.201 123.37 156.37 123.301 156.573 123.301 Z  M 168.869 120.088 C 169.089 120.088 169.258 120.155 169.393 120.29 C 169.528 120.422 169.596 120.593 169.596 120.801 L 169.596 130.381 C 169.596 130.579 169.528 130.748 169.393 130.886 C 169.258 131.025 169.089 131.095 168.869 131.095 C 168.65 131.095 168.481 131.028 168.346 130.894 C 168.211 130.759 168.143 130.589 168.143 130.381 L 168.143 129.964 C 167.89 130.322 167.535 130.623 167.062 130.871 C 166.606 131.12 166.099 131.243 165.576 131.243 C 164.883 131.243 164.258 131.069 163.684 130.723 C 163.126 130.376 162.687 129.892 162.349 129.272 C 162.029 128.653 161.859 127.956 161.859 127.184 C 161.859 126.41 162.029 125.713 162.349 125.093 C 162.67 124.474 163.11 123.99 163.667 123.642 C 164.241 123.296 164.849 123.123 165.525 123.123 C 166.066 123.123 166.572 123.231 167.028 123.449 C 167.484 123.667 167.856 123.951 168.143 124.297 L 168.143 120.801 C 168.143 120.593 168.211 120.422 168.346 120.29 C 168.481 120.155 168.65 120.088 168.869 120.088 Z  M 165.745 129.935 C 166.218 129.935 166.657 129.815 167.028 129.577 C 167.4 129.34 167.687 129.012 167.89 128.595 C 168.109 128.179 168.211 127.708 168.211 127.184 C 168.211 126.667 168.109 126.198 167.89 125.777 C 167.687 125.356 167.4 125.026 167.028 124.788 C 166.657 124.551 166.218 124.431 165.745 124.431 C 165.272 124.431 164.832 124.551 164.461 124.788 C 164.089 125.026 163.802 125.356 163.582 125.777 C 163.38 126.198 163.279 126.667 163.279 127.184 C 163.279 127.708 163.38 128.179 163.582 128.595 C 163.802 129.012 164.089 129.34 164.461 129.577 C 164.832 129.815 165.272 129.935 165.745 129.935 Z "
            fill-rule="evenodd"/>
        <path d=" M 26.79 100.382 L 26.79 100.382 C 27.713 101.083 27.917 102.37 27.246 103.254 L 27.246 103.254 C 26.574 104.139 25.279 104.287 24.356 103.586 L 24.356 103.586 C 23.433 102.885 23.228 101.598 23.9 100.713 L 23.9 100.713 C 24.572 99.829 25.866 99.68 26.79 100.382 Z  M 36.306 100.306 C 36.306 100.306 36.306 100.306 36.306 100.306 L 32.387 97.33 C 31.291 96.498 29.856 96.54 29.185 97.424 C 28.513 98.308 28.857 99.701 29.952 100.534 L 33.697 103.378 C 34.126 103.703 34.231 104.287 33.932 104.681 C 33.633 105.075 33.042 105.13 32.614 104.805 L 31.608 104.041 C 31.608 104.041 31.608 104.041 31.608 104.041 L 31.157 103.699 C 30.061 102.866 28.626 102.908 27.954 103.792 C 27.283 104.676 27.627 106.069 28.722 106.901 L 30.447 108.212 C 31.001 108.632 31.109 109.422 30.688 109.976 C 30.268 110.529 29.478 110.637 28.925 110.217 L 25.629 107.713 C 25.629 107.713 25.628 107.713 25.628 107.713 L 24.63 106.955 C 23.534 106.122 22.099 106.164 21.427 107.049 C 20.756 107.933 21.101 109.327 22.197 110.159 L 26.959 113.776 C 26.959 113.776 26.959 113.776 26.959 113.776 L 29.513 115.716 C 30.317 116.326 30.493 117.449 29.906 118.222 C 29.319 118.994 28.19 119.126 27.387 118.516 L 25.019 116.718 C 23.923 115.886 22.489 115.928 21.817 116.812 C 21.146 117.696 21.49 119.09 22.586 119.922 L 25.904 122.442 C 26.671 123.078 27.28 123.664 27.945 124.406 C 28.538 125.068 29.03 125.692 29.497 126.384 C 29.657 126.656 29.829 126.923 30.013 127.182 C 30.033 127.221 30.058 127.257 30.088 127.29 C 31.173 128.862 32.525 130.29 34.129 131.508 C 42.345 137.748 54.081 136.144 60.321 127.928 C 66.561 119.712 64.957 107.975 56.741 101.735 C 54.328 99.902 51.611 98.746 48.818 98.24 C 47.697 97.956 46.586 97.665 45.44 97.188 C 44.366 96.742 43.683 96.514 42.483 95.723 L 38.628 92.795 C 37.532 91.963 36.005 92.125 35.221 93.158 C 34.437 94.19 34.69 95.704 35.785 96.537 L 38.977 98.961 C 38.977 98.961 38.977 98.961 38.977 98.961 L 39.083 99.042 C 39.082 99.042 39.08 99.043 39.078 99.043 C 39.579 99.508 39.656 100.288 39.234 100.843 C 38.785 101.434 37.942 101.549 37.351 101.1 L 36.306 100.306 Z  M 49.905 121.111 L 49.905 118.826 C 48.726 120.486 46.904 121.551 44.862 121.551 C 41.31 121.551 38.427 118.329 38.427 114.361 C 38.427 110.393 41.31 107.171 44.862 107.171 C 46.904 107.171 48.726 108.236 49.905 109.896 L 49.905 107.46 L 52.975 107.46 Q 53.028 121.478 52.994 121.685 C 52.539 124.442 50.809 126.648 48.19 127.77 C 45.107 129.091 41.741 128.467 39.337 126.129 L 40.787 123.686 C 42.223 125.465 44.534 126.08 46.664 125.251 C 48.471 124.548 49.657 123.032 49.905 121.111 Z  M 41.461 114.243 C 41.461 111.672 43.329 109.585 45.63 109.585 C 47.93 109.585 49.798 111.672 49.798 114.243 C 49.798 116.813 47.93 118.9 45.63 118.9 C 43.329 118.9 41.461 116.813 41.461 114.243 Z "
        fill-rule="evenodd"/>
    </g>
</svg>
