<?xml version="1.0" standalone="no"?><!-- Generator: Gravit.io --><svg xmlns="http://www.w3.org/2000/svg" xmlns:xlink="http://www.w3.org/1999/xlink" style="isolation:isolate" viewBox="21.084 156.95 151.434 43.05" width="151.434" height="43.05"><g id="null"><g id="null"><linearGradient id="_lgradient_6" x1="39.138298442489685%" y1="7.658647108805174%" x2="76.40324759223272%" y2="89.01190364544047%"><stop offset="0%" stop-opacity="1" style="stop-color:rgb(213,24,119)"/><stop offset="100%" stop-opacity="1" style="stop-color:rgb(136,6,104)"/></linearGradient><path d=" M 36.312 164.993 C 36.312 164.993 36.312 164.993 36.312 164.993 L 32.394 162.017 C 31.298 161.185 29.862 161.227 29.191 162.111 C 28.52 162.995 28.864 164.388 29.959 165.22 L 33.704 168.065 C 34.132 168.39 34.238 168.974 33.939 169.368 C 33.639 169.762 33.049 169.817 32.62 169.492 L 31.614 168.728 C 31.614 168.728 31.614 168.728 31.614 168.728 L 31.163 168.386 C 30.067 167.553 28.632 167.595 27.96 168.479 C 27.289 169.363 27.633 170.756 28.728 171.589 L 30.454 172.899 C 31.007 173.319 31.115 174.11 30.695 174.663 C 30.275 175.216 29.484 175.324 28.931 174.904 L 25.635 172.4 C 25.635 172.4 25.634 172.4 25.634 172.4 L 24.636 171.642 C 23.54 170.809 22.105 170.852 21.434 171.736 C 20.762 172.62 21.107 174.014 22.203 174.846 L 26.965 178.463 C 26.965 178.463 26.965 178.463 26.965 178.463 L 29.519 180.403 C 30.323 181.014 30.499 182.136 29.912 182.909 C 29.325 183.682 28.197 183.813 27.393 183.203 L 25.025 181.405 C 23.929 180.573 22.495 180.615 21.823 181.499 C 21.152 182.384 21.496 183.777 22.592 184.61 L 25.91 187.129 C 26.677 187.765 27.286 188.352 27.951 189.093 C 28.544 189.755 29.036 190.379 29.503 191.071 C 29.663 191.344 29.835 191.61 30.019 191.87 C 30.039 191.909 30.064 191.944 30.094 191.977 C 31.18 193.55 32.531 194.977 34.135 196.196 C 42.352 202.436 54.088 200.831 60.328 192.615 C 66.569 184.399 64.964 172.662 56.748 166.422 C 54.335 164.589 51.618 163.433 48.825 162.927 C 47.703 162.643 46.593 162.351 45.447 161.875 C 44.372 161.428 43.689 161.201 42.49 160.41 L 38.634 157.482 C 37.538 156.649 36.011 156.812 35.227 157.845 C 34.443 158.877 34.696 160.391 35.791 161.223 L 38.983 163.647 C 38.983 163.648 38.983 163.648 38.983 163.648 L 39.09 163.728 C 39.088 163.729 39.086 163.73 39.085 163.73 C 39.585 164.195 39.662 164.975 39.24 165.53 C 38.792 166.12 37.948 166.236 37.358 165.787 L 36.312 164.993 Z  M 49.912 185.799 L 49.912 183.513 C 48.733 185.173 46.911 186.238 44.869 186.238 C 41.317 186.238 38.433 183.017 38.433 179.048 C 38.433 175.08 41.317 171.858 44.869 171.858 C 46.911 171.858 48.733 172.924 49.912 174.583 L 49.912 172.147 L 52.982 172.147 Q 53.035 186.165 53.001 186.373 C 52.546 189.13 50.815 191.335 48.197 192.457 C 45.114 193.779 41.748 193.155 39.343 190.816 L 40.793 188.374 C 42.229 190.152 44.54 190.768 46.67 189.939 C 48.478 189.235 49.664 187.72 49.912 185.799 Z  M 41.468 178.93 C 41.468 176.36 43.335 174.273 45.636 174.273 C 47.937 174.273 49.805 176.36 49.805 178.93 C 49.805 181.501 47.937 183.588 45.636 183.588 C 43.335 183.588 41.468 181.501 41.468 178.93 Z " fill-rule="evenodd" fill="url(#_lgradient_6)"/><path d="M 24.705 181.162 L 24.705 181.162 C 25.625 181.86 25.826 183.145 25.154 184.029 L 25.154 184.029 C 24.482 184.913 23.191 185.064 22.272 184.366 L 22.272 184.366 C 21.353 183.668 21.152 182.384 21.823 181.499 L 21.823 181.499 C 22.495 180.615 23.786 180.464 24.705 181.162 Z" style="stroke:none;fill:#D51877;stroke-miterlimit:10;"/><path d="M 24.596 171.611 L 24.596 171.611 C 25.67 172.427 25.997 173.807 25.325 174.691 L 25.325 174.691 C 24.653 175.576 23.236 175.631 22.162 174.816 L 22.162 174.816 C 21.089 174 20.762 172.62 21.434 171.736 L 21.434 171.736 C 22.105 170.852 23.522 170.796 24.596 171.611 Z" style="stroke:none;fill:#880668;stroke-miterlimit:10;"/><path d="M 26.796 165.069 L 26.796 165.069 C 27.719 165.77 27.924 167.057 27.252 167.941 L 27.252 167.941 C 26.58 168.826 25.286 168.974 24.362 168.273 L 24.362 168.273 C 23.439 167.572 23.235 166.284 23.906 165.4 L 23.906 165.4 C 24.578 164.516 25.873 164.367 26.796 165.069 Z" style="stroke:none;fill:#880668;stroke-miterlimit:10;"/><path d="M 32.251 161.909 L 33.497 162.855 C 34.514 163.628 34.795 164.973 34.124 165.857 L 34.124 165.857 C 33.452 166.742 32.081 166.832 31.063 166.06 L 29.817 165.113 C 28.8 164.34 28.519 162.995 29.191 162.111 L 29.191 162.111 C 29.862 161.227 31.234 161.136 32.251 161.909 Z" style="stroke:none;fill:#880668;stroke-miterlimit:10;"/></g><g id="null"><path d=" M 92.386 164.874 C 92.656 164.874 92.875 164.959 93.044 165.128 C 93.213 165.296 93.315 165.518 93.315 165.797 L 93.315 178.677 C 93.315 180.225 92.977 181.548 92.318 182.649 C 91.642 183.749 90.73 184.587 89.582 185.163 C 88.433 185.738 87.099 186.025 85.612 186.025 C 84.903 186.025 84.143 185.937 83.366 185.758 C 82.572 185.579 81.896 185.351 81.339 185.073 C 80.781 184.795 80.46 184.509 80.376 184.21 C 80.224 184.072 80.156 183.913 80.156 183.735 C 80.156 183.536 80.258 183.377 80.444 183.259 C 80.511 183.199 80.612 183.169 80.748 183.169 C 80.866 183.169 81.102 183.24 81.44 183.377 L 82.099 183.646 C 83.366 184.122 84.548 184.359 85.646 184.359 C 87.47 184.359 88.889 183.859 89.92 182.858 C 90.95 181.856 91.474 180.502 91.474 178.797 L 91.474 176.952 C 90.967 178.023 90.156 178.861 89.041 179.466 C 87.943 180.07 86.795 180.374 85.579 180.374 C 84.176 180.374 82.91 180.031 81.761 179.347 C 80.629 178.662 79.734 177.716 79.092 176.506 C 78.434 175.296 78.113 173.937 78.113 172.431 C 78.113 170.944 78.434 169.594 79.092 168.384 C 79.734 167.174 80.629 166.228 81.761 165.545 C 82.91 164.859 84.16 164.518 85.545 164.518 C 86.845 164.518 88.028 164.83 89.092 165.455 C 90.173 166.079 90.967 166.828 91.474 167.701 L 91.474 165.797 C 91.474 165.54 91.558 165.32 91.727 165.143 C 91.896 164.964 92.115 164.874 92.386 164.874 Z  M 85.73 178.708 C 86.862 178.708 87.876 178.444 88.754 177.919 C 89.649 177.393 90.342 176.651 90.849 175.688 C 91.338 174.726 91.592 173.64 91.592 172.431 C 91.592 171.221 91.338 170.14 90.849 169.188 C 90.342 168.237 89.649 167.497 88.754 166.971 C 87.876 166.446 86.862 166.184 85.73 166.184 C 84.633 166.184 83.636 166.456 82.758 167.002 C 81.862 167.547 81.17 168.296 80.663 169.248 C 80.156 170.199 79.92 171.26 79.92 172.431 C 79.92 173.621 80.156 174.691 80.663 175.644 C 81.17 176.595 81.862 177.344 82.758 177.89 C 83.636 178.434 84.633 178.708 85.73 178.708 Z  M 108.348 164.518 C 108.753 164.518 109.125 164.597 109.446 164.756 C 109.784 164.914 109.936 165.153 109.936 165.469 C 109.936 165.748 109.868 165.971 109.699 166.138 C 109.53 166.307 109.344 166.392 109.108 166.392 C 109.007 166.392 108.804 166.341 108.517 166.243 C 108.23 166.143 107.943 166.094 107.672 166.094 C 106.912 166.094 106.169 166.378 105.426 166.942 C 104.682 167.507 104.058 168.237 103.585 169.129 C 103.095 170.02 102.858 170.924 102.858 171.835 L 102.858 179.184 C 102.858 179.441 102.774 179.654 102.605 179.823 C 102.419 179.992 102.216 180.075 101.946 180.075 C 101.676 180.075 101.456 179.992 101.287 179.823 C 101.118 179.654 101.017 179.441 101.017 179.184 L 101.017 165.856 C 101.017 165.599 101.118 165.386 101.287 165.217 C 101.456 165.048 101.676 164.964 101.946 164.964 C 102.216 164.964 102.419 165.048 102.605 165.217 C 102.774 165.386 102.858 165.599 102.858 165.856 L 102.858 168.474 C 103.331 167.343 104.041 166.407 104.987 165.663 C 105.949 164.92 107.064 164.538 108.348 164.518 Z  M 128.415 164.874 C 128.685 164.874 128.905 164.964 129.074 165.143 C 129.243 165.32 129.344 165.54 129.344 165.797 L 129.344 179.184 C 129.344 179.441 129.243 179.654 129.074 179.823 C 128.905 179.992 128.685 180.075 128.415 180.075 C 128.145 180.075 127.925 179.992 127.756 179.823 C 127.587 179.654 127.503 179.441 127.503 179.184 L 127.503 177.19 C 126.979 178.082 126.219 178.836 125.205 179.451 C 124.175 180.066 123.06 180.374 121.861 180.374 C 120.493 180.374 119.26 180.026 118.162 179.333 C 117.064 178.638 116.219 177.687 115.594 176.477 C 114.969 175.267 114.648 173.908 114.648 172.401 C 114.648 170.894 114.969 169.54 115.611 168.34 C 116.236 167.14 117.098 166.204 118.196 165.528 C 119.293 164.854 120.493 164.518 121.827 164.518 C 123.06 164.518 124.175 164.805 125.205 165.381 C 126.219 165.956 126.979 166.709 127.503 167.642 L 127.503 165.797 C 127.503 165.54 127.587 165.32 127.756 165.143 C 127.925 164.964 128.145 164.874 128.415 164.874 Z  M 122.047 178.708 C 123.094 178.708 124.057 178.434 124.901 177.89 C 125.746 177.344 126.422 176.59 126.895 175.629 C 127.384 174.667 127.621 173.591 127.621 172.401 C 127.621 171.25 127.384 170.199 126.895 169.248 C 126.422 168.296 125.746 167.547 124.901 167.002 C 124.057 166.456 123.094 166.184 122.047 166.184 C 120.983 166.184 120.02 166.451 119.175 166.987 C 118.331 167.522 117.655 168.261 117.182 169.202 C 116.709 170.145 116.456 171.211 116.456 172.401 C 116.456 173.591 116.692 174.667 117.165 175.629 C 117.638 176.59 118.297 177.344 119.142 177.89 C 119.986 178.434 120.966 178.708 122.047 178.708 Z  M 148.853 164.577 C 149.056 164.577 149.242 164.646 149.428 164.786 C 149.613 164.925 149.715 165.102 149.715 165.32 C 149.715 165.499 149.664 165.668 149.58 165.827 L 143.583 179.51 C 143.499 179.669 143.381 179.803 143.229 179.911 C 143.076 180.021 142.908 180.075 142.756 180.075 C 142.553 180.095 142.367 180.056 142.198 179.957 C 142.029 179.857 141.911 179.708 141.826 179.51 L 135.796 165.827 C 135.796 165.787 135.779 165.727 135.746 165.648 C 135.712 165.569 135.695 165.489 135.695 165.41 C 135.695 165.173 135.779 164.969 135.948 164.8 C 136.117 164.632 136.337 164.548 136.658 164.548 C 136.844 164.548 137.012 164.602 137.164 164.712 C 137.317 164.82 137.435 164.964 137.502 165.143 L 142.722 177.19 L 147.958 165.143 C 148.043 164.964 148.161 164.82 148.313 164.712 C 148.465 164.602 148.651 164.558 148.853 164.577 Z  M 157.89 179.184 C 157.89 179.441 157.789 179.654 157.62 179.823 C 157.451 179.992 157.231 180.075 156.961 180.075 C 156.708 180.075 156.471 179.992 156.302 179.823 C 156.134 179.654 156.049 179.441 156.049 179.184 L 156.049 165.499 C 156.049 165.241 156.134 165.028 156.302 164.859 C 156.471 164.691 156.708 164.607 156.961 164.607 C 157.231 164.607 157.451 164.691 157.62 164.859 C 157.789 165.028 157.89 165.241 157.89 165.499 L 157.89 179.184 Z  M 156.961 162.613 C 156.556 162.613 156.235 162.52 156.015 162.331 C 155.796 162.143 155.677 161.871 155.677 161.513 L 155.677 161.216 C 155.677 160.859 155.796 160.585 156.032 160.398 C 156.269 160.21 156.589 160.115 156.995 160.115 C 157.806 160.115 158.228 160.482 158.228 161.216 L 158.228 161.513 C 158.228 161.871 158.11 162.143 157.907 162.331 C 157.687 162.52 157.367 162.613 156.961 162.613 Z  M 168.599 166.601 L 168.599 176.565 C 168.599 177.319 168.751 177.829 169.038 178.098 C 169.326 178.365 169.697 178.498 170.17 178.498 C 170.288 178.498 170.44 178.474 170.626 178.424 C 170.812 178.375 170.947 178.351 171.048 178.351 C 171.234 178.351 171.403 178.424 171.538 178.574 C 171.657 178.723 171.724 178.895 171.724 179.093 C 171.724 179.372 171.572 179.605 171.234 179.793 C 170.913 179.982 170.525 180.075 170.069 180.075 C 169.528 180.075 169.038 180.026 168.599 179.926 C 168.177 179.828 167.755 179.531 167.366 179.034 C 166.961 178.539 166.758 177.746 166.758 176.655 L 166.758 166.601 L 164.528 166.601 C 164.275 166.601 164.072 166.52 163.903 166.363 C 163.718 166.204 163.633 166.005 163.633 165.768 C 163.633 165.528 163.718 165.332 163.903 165.173 C 164.072 165.014 164.275 164.935 164.528 164.935 L 166.758 164.935 L 166.758 161.633 C 166.758 161.374 166.859 161.161 167.028 160.992 C 167.197 160.825 167.417 160.739 167.687 160.739 C 167.941 160.739 168.177 160.825 168.346 160.992 C 168.515 161.161 168.599 161.374 168.599 161.633 L 168.599 164.935 L 171.673 164.935 C 171.893 164.935 172.096 165.023 172.265 165.202 C 172.433 165.381 172.518 165.579 172.518 165.797 C 172.518 166.035 172.45 166.228 172.282 166.378 C 172.113 166.525 171.91 166.601 171.673 166.601 L 168.599 166.601 Z " fill-rule="evenodd" fill="rgb(104,32,102)"/><path d=" M 124.429 187.81 C 125.239 187.81 125.915 187.933 126.438 188.183 C 126.979 188.43 127.249 188.747 127.249 189.134 C 127.249 189.302 127.199 189.453 127.08 189.588 C 126.962 189.722 126.827 189.788 126.658 189.788 C 126.523 189.788 126.422 189.768 126.337 189.729 C 126.253 189.689 126.151 189.625 126.016 189.535 C 125.965 189.476 125.864 189.407 125.729 189.327 C 125.611 189.268 125.442 189.219 125.205 189.178 C 124.986 189.138 124.783 189.119 124.597 189.119 C 124.057 189.119 123.601 189.238 123.179 189.476 C 122.773 189.714 122.469 190.043 122.233 190.465 C 122.013 190.886 121.895 191.355 121.895 191.871 C 121.895 192.396 122.013 192.867 122.233 193.283 C 122.452 193.699 122.756 194.027 123.162 194.265 C 123.55 194.503 124.006 194.623 124.513 194.623 C 125.053 194.623 125.476 194.542 125.814 194.385 C 125.881 194.345 125.982 194.28 126.101 194.191 C 126.202 194.111 126.287 194.052 126.371 194.013 C 126.438 193.973 126.54 193.954 126.658 193.954 C 126.861 193.954 127.013 194.014 127.131 194.139 C 127.249 194.263 127.317 194.424 127.317 194.623 C 127.317 194.831 127.182 195.036 126.911 195.239 C 126.624 195.442 126.27 195.609 125.814 195.737 C 125.357 195.867 124.868 195.931 124.361 195.931 C 123.567 195.931 122.891 195.755 122.3 195.403 C 121.709 195.05 121.253 194.565 120.932 193.945 C 120.611 193.326 120.442 192.634 120.442 191.871 C 120.442 191.107 120.611 190.416 120.949 189.796 C 121.287 189.176 121.76 188.691 122.351 188.338 C 122.959 187.986 123.651 187.81 124.429 187.81 Z  M 133.263 195.068 C 133.263 195.267 133.195 195.436 133.043 195.573 C 132.908 195.713 132.739 195.783 132.519 195.783 C 132.317 195.783 132.148 195.713 132.013 195.573 C 131.877 195.436 131.81 195.267 131.81 195.068 L 131.81 185.489 C 131.81 185.292 131.877 185.123 132.013 184.984 C 132.165 184.845 132.334 184.776 132.536 184.776 C 132.756 184.776 132.925 184.845 133.06 184.984 C 133.195 185.123 133.263 185.292 133.263 185.489 L 133.263 195.068 Z  M 146.032 191.886 C 146.032 192.658 145.863 193.354 145.492 193.968 C 145.137 194.583 144.647 195.064 144.039 195.411 C 143.414 195.757 142.739 195.931 141.996 195.931 C 141.252 195.931 140.56 195.757 139.952 195.411 C 139.327 195.064 138.837 194.583 138.482 193.968 C 138.127 193.354 137.942 192.658 137.942 191.886 C 137.942 191.112 138.127 190.412 138.482 189.788 C 138.837 189.163 139.327 188.678 139.952 188.33 C 140.56 187.984 141.252 187.81 141.996 187.81 C 142.739 187.81 143.414 187.984 144.039 188.33 C 144.647 188.678 145.137 189.163 145.492 189.788 C 145.863 190.412 146.032 191.112 146.032 191.886 Z  M 144.58 191.886 C 144.58 191.35 144.462 190.871 144.242 190.45 C 144.005 190.029 143.701 189.701 143.296 189.468 C 142.908 189.235 142.468 189.119 141.996 189.119 C 141.506 189.119 141.066 189.235 140.678 189.468 C 140.289 189.701 139.968 190.029 139.749 190.45 C 139.512 190.871 139.394 191.35 139.394 191.886 C 139.394 192.411 139.512 192.881 139.749 193.298 C 139.968 193.714 140.289 194.04 140.678 194.273 C 141.066 194.506 141.506 194.623 141.996 194.623 C 142.468 194.623 142.908 194.506 143.296 194.273 C 143.701 194.04 144.005 193.714 144.242 193.298 C 144.462 192.881 144.58 192.411 144.58 191.886 Z  M 156.573 187.989 C 156.792 187.989 156.961 188.058 157.096 188.197 C 157.231 188.335 157.316 188.504 157.316 188.702 L 157.316 192.658 C 157.316 193.69 157.012 194.491 156.421 195.062 C 155.846 195.631 155.002 195.916 153.938 195.916 C 152.873 195.916 152.046 195.631 151.472 195.062 C 150.88 194.491 150.593 193.69 150.593 192.658 L 150.593 188.702 C 150.593 188.504 150.661 188.335 150.796 188.197 C 150.948 188.058 151.117 187.989 151.319 187.989 C 151.522 187.989 151.708 188.058 151.843 188.197 C 151.978 188.335 152.046 188.504 152.046 188.702 L 152.046 192.658 C 152.046 193.959 152.671 194.608 153.938 194.608 C 154.563 194.608 155.036 194.444 155.356 194.116 C 155.694 193.79 155.846 193.303 155.846 192.658 L 155.846 188.702 C 155.846 188.504 155.914 188.335 156.049 188.197 C 156.201 188.058 156.37 187.989 156.573 187.989 Z  M 168.869 184.776 C 169.089 184.776 169.258 184.843 169.393 184.977 C 169.528 185.11 169.596 185.281 169.596 185.489 L 169.596 195.068 C 169.596 195.267 169.528 195.436 169.393 195.573 C 169.258 195.713 169.089 195.783 168.869 195.783 C 168.65 195.783 168.481 195.716 168.346 195.582 C 168.211 195.447 168.143 195.277 168.143 195.068 L 168.143 194.652 C 167.89 195.009 167.535 195.311 167.062 195.559 C 166.606 195.808 166.099 195.931 165.576 195.931 C 164.883 195.931 164.258 195.757 163.684 195.411 C 163.126 195.064 162.687 194.58 162.349 193.96 C 162.029 193.34 161.859 192.644 161.859 191.871 C 161.859 191.098 162.029 190.401 162.349 189.781 C 162.67 189.161 163.11 188.678 163.667 188.33 C 164.241 187.984 164.849 187.81 165.525 187.81 C 166.066 187.81 166.572 187.919 167.028 188.137 C 167.484 188.355 167.856 188.638 168.143 188.984 L 168.143 185.489 C 168.143 185.281 168.211 185.11 168.346 184.977 C 168.481 184.843 168.65 184.776 168.869 184.776 Z  M 165.745 194.623 C 166.218 194.623 166.657 194.503 167.028 194.265 C 167.4 194.027 167.687 193.699 167.89 193.283 C 168.109 192.867 168.211 192.396 168.211 191.871 C 168.211 191.355 168.109 190.886 167.89 190.465 C 167.687 190.043 167.4 189.714 167.028 189.476 C 166.657 189.238 166.218 189.119 165.745 189.119 C 165.272 189.119 164.832 189.238 164.461 189.476 C 164.089 189.714 163.802 190.043 163.582 190.465 C 163.38 190.886 163.279 191.355 163.279 191.871 C 163.279 192.396 163.38 192.867 163.582 193.283 C 163.802 193.699 164.089 194.027 164.461 194.265 C 164.832 194.503 165.272 194.623 165.745 194.623 Z " fill-rule="evenodd" fill="rgb(104,32,102)"/></g></g></svg>