<?xml version="1.0" standalone="no"?><!-- Generator: Gravit.io --><svg xmlns="http://www.w3.org/2000/svg" xmlns:xlink="http://www.w3.org/1999/xlink" style="isolation:isolate" viewBox="191 97 850 800" width="850" height="800"><g><clipPath id="_clipPath_lsHoZ2mrzWpP6r0jwQuc6cG0BroXQAUH"><path d="M 195 97 L 1037 97 C 1039.208 97 1041 98.792 1041 101 L 1041 893 C 1041 895.208 1039.208 897 1037 897 L 195 897 C 192.792 897 191 895.208 191 893 L 191 101 C 191 98.792 192.792 97 195 97 Z" style="stroke:none;fill:#FFFFFF;stroke-miterlimit:10;"/></clipPath><g clip-path="url(#_clipPath_lsHoZ2mrzWpP6r0jwQuc6cG0BroXQAUH)"><g><radialGradient id="_rgradient_0" fx="0.5" fy="0.5" cx="0.5" cy="0.5" r="0.5" gradientTransform="matrix(1298.943,0,0,1299.212,19.047,-154.485)" gradientUnits="userSpaceOnUse"><stop offset="1.3043478260869565%" stop-opacity="100" style="stop-color:rgb(255,241,1)"/><stop offset="98.26086956521739%" stop-opacity="100" style="stop-color:rgb(230,218,26)"/></radialGradient><path d=" M 668.518 -154.485 C 1027.278 -154.485 1317.99 136.362 1317.99 495.256 C 1317.99 854.015 1027.143 1144.727 668.518 1144.727 C 309.759 1144.727 19.047 853.961 19.047 495.256 C 19.047 136.524 309.867 -154.485 668.518 -154.485 Z " fill-rule="evenodd" fill="url(#_rgradient_0)"/><path d=" M 1306.747 615.849 C 1234.979 668.583 1161.351 727.248 1097.266 787.451 C 951.52 924.355 867.7 1031.44 774.499 1135.992 C 1043.4 1091.831 1256.547 882.674 1306.747 615.849 Z " fill-rule="evenodd" fill="rgb(136,160,62)"/><linearGradient id="_lgradient_0" x1="0" y1="0.5" x2="0.6675882758790613" y2="-0.24453065343800473" gradientTransform="matrix(610.055,0,0,865.153,19.586,-115.339)" gradientUnits="userSpaceOnUse"><stop offset="10.877993669309628%" stop-opacity="100" style="stop-color:rgb(207,220,94)"/><stop offset="100%" stop-opacity="100" style="stop-color:rgb(191,202,101)"/></linearGradient><path d=" M 444.749 47.851 L 19.586 524.157 C 23.091 603.96 40.939 679.987 70.703 749.814 C 256.998 461.394 443.293 173.001 629.642 -115.339 C 568.011 -60.879 506.353 -6.419 444.749 47.771" fill-rule="evenodd" fill="url(#_lgradient_0)"/><path d=" M 23.361 419.929 C 20.557 444.625 18.939 469.671 18.939 495.148 C 18.939 504.854 19.209 514.506 19.667 524.157 L 444.83 47.851 C 304.367 171.868 163.904 295.939 23.388 419.902" fill-rule="evenodd" fill="rgb(136,160,62)"/><linearGradient id="_lgradient_1" x1="0" y1="0.5" x2="0.7891977472985527" y2="-0.11413916636124877" gradientTransform="matrix(566.703,0,0,560.772,24.547,-149.74)" gradientUnits="userSpaceOnUse"><stop offset="6.956521739130435%" stop-opacity="100" style="stop-color:rgb(207,220,94)"/><stop offset="99.1304347826087%" stop-opacity="100" style="stop-color:rgb(191,202,101)"/></linearGradient><path d=" M 24.547 411.032 C 213.538 224.09 402.26 37.175 591.251 -149.74 C 296.576 -114.772 62.561 117.301 24.547 411.032 Z " fill-rule="evenodd" fill="url(#_lgradient_1)"/><linearGradient id="_lgradient_2" x1="0" y1="0.5" x2="0.3699070147828837" y2="-0.4290687813151486" gradientTransform="matrix(929.642,0,0,1297.514,23.091,-154.377)" gradientUnits="userSpaceOnUse"><stop offset="11.304347826086957%" stop-opacity="100" style="stop-color:rgb(217,25,99)"/><stop offset="100%" stop-opacity="100" style="stop-color:rgb(145,17,66)"/></linearGradient><path d=" M 589.956 -149.74 C 400.965 37.202 212.783 224.09 23.9 411.032 C 23.523 413.998 23.442 416.964 23.091 419.929 C 163.554 295.912 304.205 171.895 444.668 47.878 C 506.272 -6.581 568.038 -61.041 629.615 -115.231 C 443.32 173.082 257.025 461.448 70.73 749.922 L 70.865 750.084 C 76.122 762.485 81.918 774.618 87.958 786.588 C 89.225 789.122 90.519 791.603 91.813 794.083 C 97.69 805.46 103.837 816.675 110.415 827.621 L 111.44 829.509 C 118.584 841.317 126.106 852.883 133.925 864.206 L 137.78 869.598 C 144.709 879.412 151.934 889.01 159.348 898.446 C 160.615 899.982 161.775 901.519 163.015 903.029 C 171.804 913.894 180.862 924.516 190.244 934.761 L 190.918 935.435 C 199.977 945.276 209.413 954.739 219.038 964.013 L 223.459 968.192 C 243.761 987.334 265.248 1005.127 287.894 1021.492 L 291.13 1023.784 C 302.399 1031.872 313.884 1039.582 325.639 1046.916 L 325.989 1047.131 C 350.712 1062.499 376.54 1076.248 403.365 1088.219 L 405.117 1089.027 C 431.916 1100.89 459.577 1111.054 488.209 1119.277 L 489.395 1119.627 C 532.693 1131.975 577.824 1140.009 624.466 1143.137 C 626.245 769.684 754.845 303.326 952.733 -89.052 C 866.892 -130.868 769.215 -154.377 667.305 -154.377 C 651.803 -154.377 603.571 -151.951 590.037 -149.632" fill-rule="evenodd" fill="url(#_lgradient_2)"/></g></g><defs><linearGradient id="_lgradient_3" x1="0.4999999999999999" y1="1" x2="0.5000000000000002" y2="0"><stop offset="2.1739130434782608%" style="stop-color:#2A0042"/><stop offset="98.26086956521739%" style="stop-color:rgba(227,0,110,0.6)"/></linearGradient></defs><path d="M 195 97 L 1037 97 C 1039.208 97 1041 98.792 1041 101 L 1041 893 C 1041 895.208 1039.208 897 1037 897 L 195 897 C 192.792 897 191 895.208 191 893 L 191 101 C 191 98.792 192.792 97 195 97 Z" style="stroke:none;fill:url(#_lgradient_3);stroke-miterlimit:10;"/></g></svg>