<?xml version="1.0" standalone="no"?><!-- Generator: Gravit.io --><svg xmlns="http://www.w3.org/2000/svg" xmlns:xlink="http://www.w3.org/1999/xlink" style="isolation:isolate" viewBox="903 656 77 80" width="77" height="80"><g><path d=" M 966 707 L 966 732 C 966 733.06 965.58 734.08 964.83 734.83 C 964.08 735.58 963.06 736 962 736 L 922 736 C 920.94 736 919.92 735.58 919.17 734.83 C 918.42 734.08 918 733.06 918 732 L 918 707 L 920 707 L 920 732 C 920 732.53 920.21 733.04 920.59 733.41 C 920.96 733.79 921.47 734 922 734 L 962 734 C 962.53 734 963.04 733.79 963.41 733.41 C 963.79 733.04 964 732.53 964 732 L 964 707 L 966 707 Z " fill="rgb(202,71,72)"/><path d=" M 938 706 L 946 706 L 946 736 L 938 736 L 938 706 Z  M 940 707.875 L 944 707.875 L 944 734.125 L 940 734.125 L 940 707.875 Z " fill-rule="evenodd" fill="rgb(202,71,72)"/><path d=" M 935 696 L 949 696 L 949 708 L 935 708 L 935 696 Z  M 937 698 L 947 698 L 947 706 L 937 706 L 937 698 Z " fill-rule="evenodd" fill="rgb(202,71,72)"/><path d=" M 938 690 L 946 690 L 946 698 L 938 698 L 938 690 Z  M 940 692 L 944 692 L 944 696 L 940 696 L 940 692 Z " fill-rule="evenodd" fill="rgb(202,71,72)"/><path d=" M 919 696 L 965 696 C 965.8 696 966.56 696.32 967.12 696.88 C 967.68 697.44 968 698.2 968 699 L 968 705 C 968 705.8 967.68 706.56 967.12 707.12 C 966.56 707.68 965.8 708 965 708 L 919 708 C 918.2 708 917.44 707.68 916.88 707.12 C 916.32 706.56 916 705.8 916 705 L 916 699 C 916 698.2 916.32 697.44 916.88 696.88 C 917.44 696.32 918.2 696 919 696 Z  M 918 705 L 918 699 C 918 698.73 918.11 698.48 918.29 698.29 C 918.48 698.11 918.73 698 919 698 L 965 698 C 965.27 698 965.52 698.11 965.71 698.29 C 965.89 698.48 966 698.73 966 699 L 966 705 C 966 705.27 965.89 705.52 965.71 705.71 C 965.52 705.89 965.27 706 965 706 L 919 706 C 918.73 706 918.48 705.89 918.29 705.71 C 918.11 705.52 918 705.27 918 705 Z " fill-rule="evenodd" fill="rgb(202,71,72)"/><path d=" M 941.884 692 C 940.531 690.979 939.159 689.996 937.75 689.05 C 936.79 688.4 935.79 687.78 934.78 687.21 C 934.42 687 934.05 686.8 933.68 686.61 C 933.37 686.45 933.05 686.29 932.73 686.14 C 932 685.8 931.24 685.52 930.47 685.29 C 929.95 685.13 929.42 685.04 928.88 685.01 C 928.51 684.99 928.14 685.01 927.78 685.08 C 927.46 685.13 927.15 685.24 926.87 685.39 C 926.59 685.53 926.35 685.72 926.13 685.93 C 925.91 686.16 925.73 686.42 925.58 686.7 C 925.04 687.75 924.65 688.86 924.4 690.02 C 924.14 691.2 924 692.4 924 693.6 C 924 694.119 924.028 694.638 924.093 695.152 L 924.093 695.152 C 924.031 695.412 924.004 695.68 924 695.95 C 924 695.967 924 695.983 924.001 696 L 926.271 696 C 926.214 695.787 926.167 695.569 926.13 695.35 C 926.127 695.328 926.123 695.306 926.122 695.284 L 926.122 695.284 L 926.122 695.284 C 926.165 695.098 926.24 694.923 926.33 694.76 C 926.39 694.65 926.46 694.55 926.55 694.47 C 926.63 694.38 926.73 694.31 926.83 694.26 C 926.96 694.19 927.09 694.14 927.23 694.1 C 927.46 694.05 927.69 694.01 927.93 694 C 928.33 693.99 928.74 694.01 929.15 694.08 C 929.85 694.21 930.55 694.37 931.24 694.59 C 931.55 694.68 931.85 694.79 932.15 694.89 C 932.51 695.02 932.87 695.16 933.23 695.3 C 933.777 695.522 934.321 695.756 934.863 696 L 939.377 696 C 938.629 695.6 937.872 695.215 937.11 694.84 C 936.08 694.34 935.03 693.87 933.97 693.45 C 933.59 693.29 933.21 693.15 932.83 693.01 C 932.5 692.89 932.17 692.78 931.84 692.68 C 931.07 692.44 930.28 692.25 929.49 692.11 C 928.94 692.02 928.39 691.98 927.84 692.01 C 927.48 692.02 927.11 692.07 926.76 692.16 C 926.517 692.215 926.28 692.301 926.061 692.41 L 926.061 692.41 L 926.061 692.41 C 926.108 691.747 926.21 691.088 926.36 690.44 C 926.56 689.46 926.9 688.51 927.35 687.62 C 927.41 687.51 927.48 687.42 927.56 687.33 C 927.63 687.26 927.71 687.21 927.8 687.16 C 927.9 687.1 928.02 687.07 928.13 687.04 C 928.34 687.01 928.56 686.99 928.77 687.01 C 929.15 687.03 929.53 687.09 929.89 687.2 C 930.58 687.41 931.24 687.66 931.89 687.96 C 932.18 688.09 932.47 688.24 932.76 688.39 C 933.11 688.57 933.45 688.75 933.79 688.95 C 934.76 689.5 935.71 690.08 936.63 690.71 C 937.773 691.483 938.894 692.277 940 693.092 L 940 692 L 941.884 692 Z  M 942.116 692 C 943.96 690.61 945.861 689.287 947.81 688.04 C 948.93 687.32 950.1 686.68 951.32 686.12 C 952.04 685.79 952.79 685.51 953.56 685.28 C 954.07 685.13 954.6 685.04 955.13 685.01 C 955.5 684.99 955.87 685.01 956.23 685.08 C 956.55 685.13 956.85 685.24 957.14 685.39 C 957.41 685.53 957.65 685.72 957.87 685.94 C 958.09 686.16 958.27 686.42 958.42 686.7 C 958.96 687.75 959.35 688.86 959.6 690.02 C 959.86 691.2 960 692.4 960 693.6 C 960 694.119 959.972 694.638 959.907 695.152 L 959.907 695.152 C 959.969 695.412 959.996 695.68 960 695.95 C 960 695.967 960 695.983 959.999 696 L 957.729 696 C 957.786 695.787 957.833 695.569 957.87 695.35 C 957.873 695.328 957.877 695.306 957.878 695.284 C 957.835 695.098 957.76 694.923 957.67 694.76 C 957.61 694.65 957.54 694.56 957.46 694.47 C 957.38 694.39 957.28 694.32 957.18 694.26 C 957.05 694.19 956.92 694.14 956.77 694.1 C 956.54 694.04 956.29 694.01 956.05 694 C 955.64 693.99 955.23 694.02 954.83 694.09 C 954.13 694.21 953.44 694.38 952.76 694.59 C 951.58 694.96 950.43 695.4 949.31 695.92 C 949.253 695.947 949.196 695.973 949.139 696 L 949.139 696 L 944.655 696 L 944.655 696 C 945.905 695.33 947.176 694.704 948.46 694.11 C 949.67 693.55 950.9 693.07 952.17 692.68 C 952.93 692.44 953.7 692.25 954.49 692.12 C 955.03 692.02 955.57 691.99 956.12 692 C 956.5 692.02 956.88 692.07 957.25 692.16 C 957.483 692.22 957.716 692.303 957.939 692.411 C 957.893 691.748 957.79 691.088 957.64 690.44 C 957.44 689.46 957.1 688.51 956.65 687.62 C 956.59 687.51 956.52 687.42 956.44 687.33 C 956.37 687.26 956.29 687.21 956.21 687.16 C 956.1 687.11 955.99 687.07 955.87 687.04 C 955.66 687.01 955.45 686.99 955.24 687 C 954.86 687.02 954.49 687.09 954.13 687.2 C 953.45 687.4 952.79 687.64 952.15 687.94 C 951.02 688.46 949.93 689.06 948.88 689.73 C 947.22 690.798 945.591 691.914 944 693.09 L 944 692 L 942.116 692 Z  M 944 695.83 L 944 695.83 C 944.002 695.887 944.002 695.943 944.001 696 L 940.004 696 L 940.004 696 L 944 696 L 944 695.83 Z " fill-rule="evenodd" fill="rgb(202,71,72)"/><path d=" M 903 694 C 903 692.94 903.42 691.92 904.17 691.17 C 904.92 690.42 905.94 690 907 690 C 908.06 690 909.08 690.42 909.83 691.17 C 910.58 691.92 911 692.94 911 694 C 911 695.06 910.58 696.08 909.83 696.83 C 909.08 697.58 908.06 698 907 698 C 905.94 698 904.92 697.58 904.17 696.83 C 903.42 696.08 903 695.06 903 694 Z  M 905 694 C 905 693.47 905.21 692.96 905.59 692.59 C 905.96 692.21 906.47 692 907 692 C 907.53 692 908.04 692.21 908.41 692.59 C 908.79 692.96 909 693.47 909 694 C 909 694.53 908.79 695.04 908.41 695.41 C 908.04 695.79 907.53 696 907 696 C 906.47 696 905.96 695.79 905.59 695.41 C 905.21 695.04 905 694.53 905 694 Z " fill-rule="evenodd" fill="rgb(202,71,72)"/><path d=" M 968 711 C 968 709.94 968.42 708.92 969.17 708.17 C 969.92 707.42 970.94 707 972 707 C 973.06 707 974.08 707.42 974.83 708.17 C 975.58 708.92 976 709.94 976 711 C 976 712.06 975.58 713.08 974.83 713.83 C 974.08 714.58 973.06 715 972 715 C 970.94 715 969.92 714.58 969.17 713.83 C 968.42 713.08 968 712.06 968 711 Z  M 970 711 C 970 710.47 970.21 709.96 970.59 709.59 C 970.96 709.21 971.47 709 972 709 C 972.53 709 973.04 709.21 973.41 709.59 C 973.79 709.96 974 710.47 974 711 C 974 711.53 973.79 712.04 973.41 712.41 C 973.04 712.79 972.53 713 972 713 C 971.47 713 970.96 712.79 970.59 712.41 C 970.21 712.04 970 711.53 970 711 Z " fill-rule="evenodd" fill="rgb(202,71,72)"/><path d=" M 974 670 C 974 669.2 974.32 668.44 974.88 667.88 C 975.44 667.32 976.2 667 977 667 C 977.8 667 978.56 667.32 979.12 667.88 C 979.68 668.44 980 669.2 980 670 C 980 670.8 979.68 671.56 979.12 672.12 C 978.56 672.68 977.8 673 977 673 C 976.2 673 975.44 672.68 974.88 672.12 C 974.32 671.56 974 670.8 974 670 Z  M 976 670 C 976 669.73 976.11 669.48 976.29 669.29 C 976.48 669.11 976.73 669 977 669 C 977.27 669 977.52 669.11 977.71 669.29 C 977.89 669.48 978 669.73 978 670 C 978 670.27 977.89 670.52 977.71 670.71 C 977.52 670.89 977.27 671 977 671 C 976.73 671 976.48 670.89 976.29 670.71 C 976.11 670.52 976 670.27 976 670 Z " fill-rule="evenodd" fill="rgb(202,71,72)"/><path d=" M 938 683 C 938 682.2 938.32 681.44 938.88 680.88 C 939.44 680.32 940.2 680 941 680 C 941.8 680 942.56 680.32 943.12 680.88 C 943.68 681.44 944 682.2 944 683 C 944 683.8 943.68 684.56 943.12 685.12 C 942.56 685.68 941.8 686 941 686 C 940.2 686 939.44 685.68 938.88 685.12 C 938.32 684.56 938 683.8 938 683 Z  M 940 683 C 940 682.73 940.11 682.48 940.29 682.29 C 940.48 682.11 940.73 682 941 682 C 941.27 682 941.52 682.11 941.71 682.29 C 941.89 682.48 942 682.73 942 683 C 942 683.27 941.89 683.52 941.71 683.71 C 941.52 683.89 941.27 684 941 684 C 940.73 684 940.48 683.89 940.29 683.71 C 940.11 683.52 940 683.27 940 683 Z " fill-rule="evenodd" fill="rgb(202,71,72)"/><path d=" M 931 666 C 931 666.27 930.89 666.52 930.71 666.71 C 930.52 666.89 930.27 667 930 667 C 929.73 667 929.48 666.89 929.29 666.71 C 929.11 666.52 929 666.27 929 666 L 929 665 C 929 664.73 929.11 664.48 929.29 664.29 C 929.48 664.11 929.73 664 930 664 C 930.27 664 930.52 664.11 930.71 664.29 C 930.89 664.48 931 664.73 931 665 L 931 666 Z " fill="rgb(202,71,72)"/><path d=" M 927 668 C 927.27 668 927.52 668.11 927.71 668.29 C 927.89 668.48 928 668.73 928 669 C 928 669.27 927.89 669.52 927.71 669.71 C 927.52 669.89 927.27 670 927 670 L 926 670 C 925.73 670 925.48 669.89 925.29 669.71 C 925.11 669.52 925 669.27 925 669 C 925 668.73 925.11 668.48 925.29 668.29 C 925.48 668.11 925.73 668 926 668 L 927 668 Z " fill="rgb(202,71,72)"/><path d=" M 931 673 C 931 673.27 930.89 673.52 930.71 673.71 C 930.52 673.89 930.27 674 930 674 C 929.73 674 929.48 673.89 929.29 673.71 C 929.11 673.52 929 673.27 929 673 L 929 672 C 929 671.73 929.11 671.48 929.29 671.29 C 929.48 671.11 929.73 671 930 671 C 930.27 671 930.52 671.11 930.71 671.29 C 930.89 671.48 931 671.73 931 672 L 931 673 Z " fill="rgb(202,71,72)"/><path d=" M 934 668 C 934.27 668 934.52 668.11 934.71 668.29 C 934.89 668.48 935 668.73 935 669 C 935 669.27 934.89 669.52 934.71 669.71 C 934.52 669.89 934.27 670 934 670 L 933 670 C 932.73 670 932.48 669.89 932.29 669.71 C 932.11 669.52 932 669.27 932 669 C 932 668.73 932.11 668.48 932.29 668.29 C 932.48 668.11 932.73 668 933 668 L 934 668 Z " fill="rgb(202,71,72)"/><path d=" M 959.366 670.902 C 959.231 671.136 959.011 671.297 958.76 671.372 C 958.505 671.433 958.234 671.403 958 671.268 C 957.766 671.133 957.605 670.913 957.53 670.662 C 957.469 670.407 957.499 670.136 957.634 669.902 L 958.134 669.036 C 958.269 668.802 958.489 668.641 958.74 668.566 C 958.995 668.505 959.266 668.535 959.5 668.67 C 959.734 668.805 959.895 669.025 959.97 669.276 C 960.031 669.531 960.001 669.802 959.866 670.036 L 959.366 670.902 Z " fill="rgb(202,71,72)"/><path d=" M 954.902 670.634 C 955.136 670.769 955.297 670.989 955.372 671.24 C 955.433 671.495 955.403 671.766 955.268 672 C 955.133 672.234 954.913 672.395 954.662 672.47 C 954.407 672.531 954.136 672.501 953.902 672.366 L 953.036 671.866 C 952.802 671.731 952.641 671.511 952.566 671.26 C 952.505 671.005 952.535 670.734 952.67 670.5 C 952.805 670.266 953.025 670.105 953.276 670.03 C 953.531 669.969 953.802 669.999 954.036 670.134 L 954.902 670.634 Z " fill="rgb(202,71,72)"/><path d=" M 955.866 676.964 C 955.731 677.198 955.511 677.359 955.26 677.434 C 955.005 677.495 954.734 677.465 954.5 677.33 C 954.266 677.195 954.105 676.975 954.03 676.724 C 953.969 676.469 953.999 676.198 954.134 675.964 L 954.634 675.098 C 954.769 674.864 954.989 674.703 955.24 674.628 C 955.495 674.567 955.766 674.597 956 674.732 C 956.234 674.867 956.395 675.087 956.47 675.338 C 956.531 675.593 956.501 675.864 956.366 676.098 L 955.866 676.964 Z " fill="rgb(202,71,72)"/><path d=" M 960.964 674.134 C 961.198 674.269 961.359 674.489 961.434 674.74 C 961.495 674.995 961.465 675.266 961.33 675.5 C 961.195 675.734 960.975 675.895 960.724 675.97 C 960.469 676.031 960.198 676.001 959.964 675.866 L 959.098 675.366 C 958.864 675.231 958.703 675.011 958.628 674.76 C 958.567 674.505 958.597 674.234 958.732 674 C 958.867 673.766 959.087 673.605 959.338 673.53 C 959.593 673.469 959.864 673.499 960.098 673.634 L 960.964 674.134 Z " fill="rgb(202,71,72)"/><path d=" M 920.634 687.83 C 920.4 687.965 920.129 687.995 919.874 687.934 C 919.623 687.859 919.403 687.698 919.268 687.464 C 919.133 687.23 919.103 686.959 919.164 686.704 C 919.239 686.453 919.4 686.233 919.634 686.098 L 920.5 685.598 C 920.734 685.463 921.005 685.433 921.26 685.494 C 921.511 685.569 921.731 685.73 921.866 685.964 C 922.001 686.198 922.031 686.469 921.97 686.724 C 921.895 686.975 921.734 687.195 921.5 687.33 L 920.634 687.83 Z " fill="rgb(202,71,72)"/><path d=" M 916.902 685.366 C 917.037 685.6 917.067 685.871 917.006 686.126 C 916.931 686.377 916.77 686.597 916.536 686.732 C 916.302 686.867 916.031 686.897 915.776 686.836 C 915.525 686.761 915.305 686.6 915.17 686.366 L 914.67 685.5 C 914.535 685.266 914.505 684.995 914.566 684.74 C 914.641 684.489 914.802 684.269 915.036 684.134 C 915.27 683.999 915.541 683.969 915.796 684.03 C 916.047 684.105 916.267 684.266 916.402 684.5 L 916.902 685.366 Z " fill="rgb(202,71,72)"/><path d=" M 914.572 691.33 C 914.338 691.465 914.066 691.495 913.812 691.434 C 913.561 691.359 913.341 691.198 913.206 690.964 C 913.071 690.73 913.041 690.459 913.102 690.204 C 913.176 689.953 913.338 689.733 913.572 689.598 L 914.438 689.098 C 914.672 688.963 914.943 688.933 915.198 688.994 C 915.449 689.069 915.669 689.23 915.804 689.464 C 915.939 689.698 915.969 689.969 915.908 690.224 C 915.833 690.475 915.672 690.695 915.438 690.83 L 914.572 691.33 Z " fill="rgb(202,71,72)"/><path d=" M 920.402 691.428 C 920.537 691.662 920.567 691.934 920.506 692.188 C 920.431 692.439 920.27 692.659 920.036 692.794 C 919.802 692.929 919.531 692.959 919.276 692.898 C 919.025 692.824 918.805 692.662 918.67 692.428 L 918.17 691.562 C 918.035 691.328 918.005 691.057 918.066 690.802 C 918.141 690.551 918.302 690.331 918.536 690.196 C 918.77 690.061 919.041 690.031 919.296 690.092 C 919.547 690.167 919.767 690.328 919.902 690.562 L 920.402 691.428 Z " fill="rgb(202,71,72)"/><path d=" M 943.725 673.931 L 942.653 672.199 C 942.653 672.199 942.653 672.199 942.653 672.199 C 942.303 671.634 942.196 670.951 942.348 670.309 C 942.499 669.666 942.898 669.103 943.463 668.753 C 943.463 668.753 943.463 668.753 943.463 668.753 L 944.522 668.098 C 944.64 668.033 944.718 667.918 944.748 667.792 C 944.778 667.665 944.759 667.527 944.682 667.417 L 944.027 666.359 C 944.027 666.359 944.027 666.359 944.027 666.359 C 943.677 665.793 943.57 665.111 943.722 664.468 C 943.873 663.826 944.272 663.262 944.837 662.913 C 944.837 662.913 944.837 662.913 944.837 662.913 L 945.896 662.257 C 946.014 662.193 946.092 662.078 946.122 661.951 C 946.152 661.825 946.133 661.687 946.056 661.576 L 945.401 660.518 C 945.401 660.518 945.401 660.518 945.401 660.518 C 945.051 659.953 944.944 659.27 945.095 658.628 C 945.247 657.985 945.646 657.422 946.211 657.072 C 946.211 657.072 946.211 657.072 946.211 657.072 L 947.943 656 L 949 657.707 L 947.269 658.78 C 947.151 658.844 947.072 658.959 947.042 659.086 C 947.013 659.212 947.031 659.35 947.108 659.461 L 947.763 660.519 C 947.763 660.519 947.763 660.519 947.763 660.519 C 948.113 661.084 948.22 661.767 948.069 662.409 C 947.917 663.052 947.518 663.615 946.953 663.965 C 946.953 663.965 946.953 663.965 946.953 663.965 L 945.895 664.62 C 945.777 664.685 945.698 664.8 945.668 664.926 C 945.639 665.053 945.657 665.191 945.734 665.301 L 946.389 666.36 C 946.389 666.36 946.389 666.36 946.389 666.36 C 946.739 666.925 946.846 667.607 946.695 668.25 C 946.543 668.892 946.144 669.456 945.579 669.806 C 945.579 669.806 945.579 669.806 945.579 669.806 L 944.521 670.461 C 944.403 670.525 944.324 670.64 944.294 670.767 C 944.265 670.894 944.283 671.032 944.36 671.142 L 945.432 672.873 L 943.725 673.931 Z " fill="rgb(202,71,72)"/><path d=" M 965.953 679.987 L 967.961 680.326 C 967.961 680.326 967.961 680.326 967.961 680.326 C 968.616 680.437 969.199 680.808 969.582 681.346 C 969.964 681.884 970.123 682.556 970.012 683.212 C 970.012 683.212 970.012 683.212 970.012 683.212 L 969.805 684.439 C 969.776 684.57 969.81 684.705 969.886 684.811 C 969.961 684.917 970.077 684.994 970.211 685.009 L 971.438 685.217 C 971.438 685.217 971.438 685.217 971.438 685.217 C 972.093 685.327 972.676 685.698 973.058 686.236 C 973.441 686.774 973.6 687.446 973.489 688.102 C 973.489 688.102 973.489 688.102 973.489 688.102 L 973.282 689.329 C 973.252 689.46 973.287 689.595 973.362 689.701 C 973.437 689.807 973.553 689.884 973.687 689.899 L 974.914 690.107 C 974.914 690.107 974.914 690.107 974.914 690.107 C 975.57 690.217 976.152 690.588 976.535 691.126 C 976.917 691.664 977.076 692.337 976.965 692.992 C 976.965 692.992 976.965 692.992 976.965 692.992 L 976.626 695 L 974.646 694.665 L 974.985 692.657 C 975.015 692.526 974.98 692.391 974.905 692.285 C 974.829 692.179 974.713 692.102 974.58 692.087 L 973.353 691.88 C 973.353 691.88 973.353 691.88 973.353 691.88 C 972.697 691.769 972.115 691.398 971.732 690.86 C 971.35 690.322 971.191 689.65 971.301 688.994 C 971.301 688.994 971.301 688.994 971.301 688.994 L 971.509 687.767 C 971.538 687.636 971.504 687.501 971.428 687.395 C 971.353 687.289 971.237 687.212 971.103 687.197 L 969.876 686.989 C 969.876 686.989 969.876 686.989 969.876 686.989 C 969.221 686.879 968.638 686.508 968.255 685.97 C 967.873 685.432 967.714 684.76 967.825 684.104 C 967.825 684.104 967.825 684.104 967.825 684.104 L 968.032 682.877 C 968.062 682.746 968.027 682.611 967.952 682.505 C 967.876 682.399 967.76 682.322 967.627 682.307 L 965.619 681.967 L 965.953 679.987 Z " fill="rgb(202,71,72)"/><path d=" M 906 665.209 L 908.027 665.012 C 908.027 665.012 908.027 665.012 908.027 665.012 C 908.688 664.947 909.348 665.153 909.858 665.572 C 910.367 665.991 910.697 666.599 910.761 667.26 C 910.761 667.26 910.761 667.26 910.761 667.26 L 910.882 668.499 C 910.888 668.633 910.957 668.754 911.057 668.837 C 911.157 668.919 911.29 668.963 911.423 668.943 L 912.661 668.822 C 912.661 668.822 912.661 668.822 912.661 668.822 C 913.323 668.758 913.982 668.964 914.492 669.383 C 915.002 669.802 915.331 670.409 915.396 671.071 C 915.396 671.071 915.396 671.071 915.396 671.071 L 915.516 672.31 C 915.522 672.444 915.591 672.565 915.691 672.648 C 915.792 672.73 915.924 672.774 916.057 672.754 L 917.296 672.633 C 917.296 672.633 917.296 672.633 917.296 672.633 C 917.957 672.569 918.617 672.774 919.126 673.194 C 919.636 673.613 919.965 674.22 920.03 674.882 C 920.03 674.882 920.03 674.882 920.03 674.882 L 920.228 676.909 L 918.229 677.103 L 918.031 675.077 C 918.025 674.942 917.957 674.821 917.856 674.738 C 917.756 674.656 917.624 674.612 917.491 674.632 L 916.252 674.753 C 916.252 674.753 916.252 674.753 916.252 674.753 C 915.59 674.817 914.931 674.612 914.421 674.192 C 913.911 673.773 913.582 673.166 913.518 672.504 C 913.518 672.504 913.518 672.504 913.518 672.504 L 913.397 671.266 C 913.391 671.131 913.322 671.01 913.222 670.928 C 913.121 670.845 912.989 670.801 912.856 670.821 L 911.618 670.942 C 911.618 670.942 911.618 670.942 911.618 670.942 C 910.956 671.007 910.297 670.801 909.787 670.382 C 909.277 669.962 908.948 669.355 908.883 668.694 C 908.883 668.694 908.883 668.694 908.883 668.694 L 908.762 667.455 C 908.756 667.321 908.688 667.199 908.587 667.117 C 908.487 667.034 908.355 666.99 908.222 667.01 L 906.195 667.208 L 906 665.209 Z " fill="rgb(202,71,72)"/><path d=" M 905.893 720.237 L 905.118 718.354 C 905.118 718.354 905.118 718.354 905.118 718.354 C 904.865 717.739 904.871 717.048 905.125 716.439 C 905.379 715.83 905.865 715.339 906.48 715.086 C 906.48 715.086 906.48 715.086 906.48 715.086 L 907.631 714.612 C 907.758 714.568 907.854 714.467 907.904 714.347 C 907.954 714.227 907.958 714.088 907.9 713.966 L 907.426 712.815 C 907.426 712.815 907.426 712.815 907.426 712.815 C 907.173 712.201 907.18 711.51 907.434 710.901 C 907.688 710.292 908.174 709.801 908.788 709.548 C 908.788 709.548 908.788 709.548 908.788 709.548 L 909.939 709.074 C 910.066 709.03 910.162 708.929 910.212 708.809 C 910.262 708.689 910.266 708.55 910.209 708.428 L 909.735 707.277 C 909.735 707.277 909.735 707.277 909.735 707.277 C 909.482 706.663 909.488 705.972 909.742 705.363 C 909.996 704.753 910.482 704.263 911.097 704.01 C 911.097 704.01 911.097 704.01 911.097 704.01 L 912.98 703.235 L 913.744 705.092 L 911.861 705.867 C 911.734 705.911 911.638 706.012 911.588 706.132 C 911.538 706.252 911.534 706.391 911.592 706.513 L 912.066 707.664 C 912.066 707.664 912.066 707.664 912.066 707.664 C 912.319 708.278 912.312 708.969 912.058 709.578 C 911.804 710.188 911.318 710.678 910.704 710.931 C 910.704 710.931 910.704 710.931 910.704 710.931 L 909.553 711.405 C 909.426 711.45 909.33 711.55 909.28 711.67 C 909.23 711.79 909.226 711.93 909.283 712.051 L 909.757 713.202 C 909.757 713.202 909.757 713.202 909.757 713.202 C 910.01 713.817 910.004 714.507 909.75 715.117 C 909.496 715.726 909.01 716.216 908.395 716.469 C 908.395 716.469 908.395 716.469 908.395 716.469 L 907.244 716.943 C 907.117 716.988 907.021 717.088 906.971 717.208 C 906.921 717.328 906.917 717.468 906.975 717.589 L 907.75 719.472 L 905.893 720.237 Z " fill="rgb(202,71,72)"/></g></svg>