<?xml version="1.0" standalone="no"?><!-- Generator: Gravit.io --><svg xmlns="http://www.w3.org/2000/svg" xmlns:xlink="http://www.w3.org/1999/xlink" style="isolation:isolate" viewBox="0 0 764 361" width="764" height="361"><defs><clipPath id="_clipPath_qlXIv5UkLb4cIxXzoH8FV3051GMa6I84"><rect width="764" height="361"/></clipPath></defs><g clip-path="url(#_clipPath_qlXIv5UkLb4cIxXzoH8FV3051GMa6I84)"><g><defs><filter id="DvGBZH4mIRwNsC3ia3qNB9K4jxsNZc4F" x="-20" y="-18" width="804" height="401" filterUnits="userSpaceOnUse"><feGaussianBlur xmlns="http://www.w3.org/2000/svg" in="SourceGraphic" stdDeviation="6.440413594258542"/><feOffset xmlns="http://www.w3.org/2000/svg" dx="0" dy="2" result="pf_100_offsetBlur"/><feFlood xmlns="http://www.w3.org/2000/svg" flood-color="#000000" flood-opacity="0.35"/><feComposite xmlns="http://www.w3.org/2000/svg" in2="pf_100_offsetBlur" operator="in" result="pf_100_dropShadow"/><feBlend xmlns="http://www.w3.org/2000/svg" in="SourceGraphic" in2="pf_100_dropShadow" mode="normal"/></filter></defs><g filter="url(#DvGBZH4mIRwNsC3ia3qNB9K4jxsNZc4F)"><path d="M 0 0 L 764 0 L 764 357 C 764 359.208 762.208 361 760 361 L 4 361 C 1.792 361 0 359.208 0 357 L 0 0 Z" style="stroke:none;fill:#E3006E;stroke-miterlimit:10;"/><clipPath id="_clipPath_ayTxR9cZJqBjMPiXn6y0512yheTcRrUV"><path d="M 0 0 L 764 0 L 764 357 C 764 359.208 762.208 361 760 361 L 4 361 C 1.792 361 0 359.208 0 357 L 0 0 Z" style="stroke:none;fill:#E3006E;stroke-miterlimit:10;"/></clipPath><g clip-path="url(#_clipPath_ayTxR9cZJqBjMPiXn6y0512yheTcRrUV)"><path d=" M 659.25 -35 C 655.25 134 296.25 14 296.25 160 C 296.25 272.004 481.25 399 290.25 399 C 61.195 399 13.241 272.997 -13.75 112 C -40.741 -48.997 363.25 -174 444.25 -188 C 525.25 -202 663.852 -229.44 659.25 -35 Z " fill="rgb(241,228,15)" fill-opacity="0.3"/><defs><filter id="boLgt21v2Fm2ATgV5J4q76cpGdmldlDr" x="-7.725" y="-143.333" width="802.284" height="531.419" filterUnits="userSpaceOnUse"><feGaussianBlur xmlns="http://www.w3.org/2000/svg" in="SourceGraphic" stdDeviation="2.146804531419514"/><feOffset xmlns="http://www.w3.org/2000/svg" dx="5" dy="16" result="pf_100_offsetBlur"/><feFlood xmlns="http://www.w3.org/2000/svg" flood-color="#000000" flood-opacity="0.65"/><feComposite xmlns="http://www.w3.org/2000/svg" in2="pf_100_offsetBlur" operator="in" result="pf_100_dropShadow"/><feBlend xmlns="http://www.w3.org/2000/svg" in="SourceGraphic" in2="pf_100_dropShadow" mode="normal"/></filter></defs><g filter="url(#boLgt21v2Fm2ATgV5J4q76cpGdmldlDr)"><path d=" M 723.25 20 C 649.888 106.364 355.907 40.209 335.25 137 C 314.593 233.791 474.25 377 285.413 364.296 C 96.351 351.577 -23.75 229.656 25.25 77 C 74.25 -75.656 178.25 -88 394.25 -88 C 465.583 -88 920.831 -212.598 723.25 20 Z " fill="rgb(241,228,15)" fill-opacity="0.3"/></g><circle vector-effect="non-scaling-stroke" cx="0" cy="0" r="1" transform="matrix(60.5,0,0,60.5,656.5,321.5)" fill="rgb(241,228,15)"/></g></g><linearGradient id="_lgradient_0" x1="0.6282021316379953" y1="0.9710254254056193" x2="0.6443296559461484" y2="-0.010251780767708496" gradientTransform="matrix(764,0,0,361,0,0)" gradientUnits="userSpaceOnUse"><stop offset="0.43478260869565216%" stop-opacity="1" style="stop-color:rgb(42,0,66)"/><stop offset="97.82608695652173%" stop-opacity="0.6" style="stop-color:rgb(227,0,110)"/></linearGradient><rect x="0" y="0" width="764" height="361" transform="matrix(1,0,0,1,0,0)" fill="url(#_lgradient_0)"/><circle vector-effect="non-scaling-stroke" cx="0" cy="0" r="1" transform="matrix(3,0,0,3,17.375,158.349)" fill="rgb(241,228,15)"/><circle vector-effect="non-scaling-stroke" cx="0" cy="0" r="1" transform="matrix(3,0,0,3,709.375,34.835)" fill="rgb(241,228,15)"/><g opacity="0.5"><circle vector-effect="non-scaling-stroke" cx="0" cy="0" r="1" transform="matrix(3,0,0,3,651.375,261.248)" fill="rgb(241,228,15)"/></g><g opacity="0.27"><rect x="9" y="108" width="4" height="4" transform="matrix(1,0,0,1,0,0)" fill="none" vector-effect="non-scaling-stroke" stroke-width="1" stroke="rgb(251,229,38)" stroke-linejoin="miter" stroke-linecap="square" stroke-miterlimit="3"/></g><g opacity="0.27"><rect x="735" y="11" width="4" height="4" transform="matrix(1,0,0,1,0,0)" fill="none" vector-effect="non-scaling-stroke" stroke-width="1" stroke="rgb(251,229,38)" stroke-linejoin="miter" stroke-linecap="square" stroke-miterlimit="3"/></g><g opacity="0.27"><rect x="679" y="259" width="4" height="4" transform="matrix(1,0,0,1,0,0)" fill="none" vector-effect="non-scaling-stroke" stroke-width="1" stroke="rgb(251,229,38)" stroke-linejoin="miter" stroke-linecap="square" stroke-miterlimit="3"/></g><g opacity="0.27"><rect x="29" y="277.864" width="4" height="4" transform="matrix(1,0,0,1,0,0)" fill="none" vector-effect="non-scaling-stroke" stroke-width="1" stroke="rgb(251,229,38)" stroke-linejoin="miter" stroke-linecap="square" stroke-miterlimit="3"/></g><g opacity="0.27"><rect x="677" y="55.587" width="4" height="4" transform="matrix(1,0,0,1,0,0)" fill="none" vector-effect="non-scaling-stroke" stroke-width="1" stroke="rgb(251,229,38)" stroke-linejoin="miter" stroke-linecap="square" stroke-miterlimit="3"/></g><g opacity="0.27"><rect x="619" y="259" width="4" height="4" transform="matrix(1,0,0,1,0,0)" fill="none" vector-effect="non-scaling-stroke" stroke-width="1" stroke="rgb(251,229,38)" stroke-linejoin="miter" stroke-linecap="square" stroke-miterlimit="3"/></g><g opacity="0.31"><radialGradient id="_rgradient_0" fx="0.5" fy="0.5" cx="0.5" cy="0.5" r="0.5" gradientTransform="matrix(1,0,0,1,-0.171,-0.202)" gradientUnits="userSpaceOnUse"><stop offset="0%" stop-opacity="1" style="stop-color:rgb(251,229,38)"/><stop offset="97.3913043478261%" stop-opacity="0.3" style="stop-color:rgb(251,229,38)"/></radialGradient><line x1="12" y1="113" x2="31" y2="278" vector-effect="non-scaling-stroke" stroke-width="1" stroke="url(#_rgradient_0)" stroke-linejoin="miter" stroke-linecap="square" stroke-miterlimit="3"/></g><g opacity="0.41"><radialGradient id="_rgradient_1" fx="0.5" fy="0.5" cx="0.5" cy="0.5" r="0.5" gradientTransform="matrix(1,0,0,1,0.041,-0.031)" gradientUnits="userSpaceOnUse"><stop offset="0%" stop-opacity="1" style="stop-color:rgb(251,229,38)"/><stop offset="98.26086956521739%" stop-opacity="0.3" style="stop-color:rgb(251,229,38)"/></radialGradient><line x1="734" y1="15" x2="681" y2="56" vector-effect="non-scaling-stroke" stroke-width="1" stroke="url(#_rgradient_1)" stroke-linejoin="miter" stroke-linecap="square" stroke-miterlimit="3"/></g><g opacity="0.41"><radialGradient id="_rgradient_2" fx="0.5" fy="0.5" cx="0.5" cy="0.5" r="0.5" gradientTransform="matrix(1,0,0,1,0.041,-0.031)" gradientUnits="userSpaceOnUse"><stop offset="0%" stop-opacity="1" style="stop-color:rgb(251,229,38)"/><stop offset="98.26086956521739%" stop-opacity="0.3" style="stop-color:rgb(251,229,38)"/></radialGradient><line x1="678.75" y1="261" x2="623" y2="261" vector-effect="non-scaling-stroke" stroke-width="1" stroke="url(#_rgradient_2)" stroke-linejoin="miter" stroke-linecap="square" stroke-miterlimit="3"/></g></g></g></svg>