<?xml version="1.0" standalone="no"?><!-- Generator: Gravit.io --><svg xmlns="http://www.w3.org/2000/svg" xmlns:xlink="http://www.w3.org/1999/xlink" style="isolation:isolate" viewBox="412.714 2871.543 206.423 14.438" width="206.423" height="14.438"><g><g opacity="0.6"><linearGradient id="_lgradient_1" x1="0" y1="0.5" x2="1" y2="0.5" gradientTransform="matrix(177.688,-10.266,0.836,23.475,412.242,2872.745)" gradientUnits="userSpaceOnUse"><stop offset="0%" stop-opacity="1" style="stop-color:rgb(227,34,0)"/><stop offset="97.82608695652173%" stop-opacity="0.22" style="stop-color:rgb(227,34,0)"/></linearGradient><path d=" M 516.136 2880.961 C 513.242 2881.088 489.151 2882.347 462.64 2883.759 C 409.672 2886.567 412.041 2886.51 413.084 2884.724 C 414.621 2881.993 413.996 2882.214 420.629 2882.004 C 423.892 2881.895 434.521 2881.427 444.201 2880.961 C 453.881 2880.494 461.829 2880.221 461.834 2880.354 C 461.838 2880.473 462.368 2880.548 462.946 2880.515 C 463.578 2880.479 463.731 2880.337 463.304 2880.189 C 462.717 2879.997 470.079 2879.532 493.014 2878.353 C 509.794 2877.49 530.203 2876.39 538.354 2875.906 C 547.189 2875.395 553.504 2875.124 553.877 2875.261 C 554.251 2875.386 555.832 2875.401 557.357 2875.299 C 559.144 2875.169 559.51 2875.095 558.351 2875.083 C 555.662 2875.065 557.172 2874.54 560.485 2874.348 C 562.694 2874.234 562.959 2874.272 561.757 2874.541 C 560.397 2874.845 560.451 2874.868 562.029 2874.79 C 563.028 2874.733 563.865 2874.538 563.858 2874.353 C 563.903 2874.124 564.219 2874.133 565.017 2874.352 C 565.87 2874.608 566.291 2874.597 566.65 2874.324 C 566.959 2874.12 568.847 2873.865 570.846 2873.75 C 573.002 2873.625 574.215 2873.661 573.853 2873.842 C 573.49 2874.009 573.912 2874.024 574.856 2873.89 C 575.747 2873.746 576.477 2873.531 576.472 2873.398 C 576.467 2873.266 577.415 2873.251 578.579 2873.356 C 580.218 2873.527 580.902 2873.488 581.944 2873.162 C 583.456 2872.689 585.243 2872.546 584.362 2872.969 C 583.999 2873.149 585.055 2873.194 586.948 2873.085 C 590.104 2872.903 591.439 2873.397 589.137 2873.888 C 588.562 2874.014 588.095 2874.227 588.101 2874.373 C 588.106 2874.519 588.476 2874.564 588.947 2874.47 C 590.516 2874.127 589.825 2875.442 588.206 2875.841 C 584.654 2876.736 540.077 2879.896 516.136 2880.961 Z  M 490.3 2880.568 C 490.295 2880.449 488.661 2880.423 486.609 2880.529 C 484.61 2880.618 482.931 2880.821 482.936 2880.967 C 482.94 2881.099 484.628 2881.121 486.626 2881.006 C 488.677 2880.887 490.304 2880.687 490.3 2880.568 Z  M 464.519 2881.752 C 458.46 2881.797 414.903 2884.008 415.964 2884.199 C 416.707 2884.355 440.225 2883.262 462.422 2882.059 C 468.207 2881.738 468.417 2881.713 464.519 2881.752 Z " fill="url(#_lgradient_1)"/></g><g opacity="0.6"><linearGradient id="_lgradient_2" x1="0" y1="0.5" x2="1" y2="0.5" gradientTransform="matrix(181.037,-10.46,0.178,4.99,438.025,2880.212)" gradientUnits="userSpaceOnUse"><stop offset="0%" stop-opacity="1" style="stop-color:rgb(227,34,0)"/><stop offset="97.82608695652173%" stop-opacity="0.22" style="stop-color:rgb(227,34,0)"/></linearGradient><path d=" M 504.922 2881.155 C 495.645 2881.554 479.817 2882.117 469.798 2882.406 C 459.779 2882.694 450.022 2883.013 448.115 2883.108 C 443.953 2883.303 442.47 2883.098 442.442 2882.321 C 442.43 2881.986 441.858 2881.759 441.165 2881.799 C 439.865 2881.874 438.057 2881.093 438.034 2880.437 C 438.019 2880.041 444.609 2879.767 467.947 2879.182 C 475.104 2878.998 485.469 2878.674 490.932 2878.465 C 496.439 2878.254 506.759 2877.872 513.913 2877.611 C 526.531 2877.157 548.02 2875.855 594.497 2872.787 C 616.112 2871.355 620.232 2871.224 618.916 2872.064 C 618.661 2872.231 613.427 2872.778 607.366 2873.266 C 582.255 2875.251 580.613 2875.468 597.945 2874.498 C 612.981 2873.659 617.321 2873.623 615.61 2874.348 C 614.156 2874.951 531.67 2880.022 504.922 2881.155 Z " fill="url(#_lgradient_2)"/></g></g></svg>