<svg xmlns="http://www.w3.org/2000/svg" xmlns:xlink="http://www.w3.org/1999/xlink" style="isolation:isolate" viewBox="105.534 9.749 68.803 68.816" width="32" height="32"><path d=" M 114.654 22.726 L 114.654 22.726 C 116.13 23.847 116.457 25.905 115.383 27.318 L 115.383 27.318 C 114.309 28.732 112.24 28.969 110.764 27.848 L 110.764 27.848 C 109.288 26.727 108.961 24.67 110.034 23.256 L 110.034 23.256 C 111.108 21.843 113.178 21.605 114.654 22.726 Z  M 129.866 22.606 C 129.866 22.606 129.866 22.606 129.866 22.606 L 123.602 17.848 C 121.85 16.518 119.556 16.585 118.482 17.998 C 117.409 19.411 117.959 21.638 119.71 22.969 L 125.696 27.516 C 126.381 28.036 126.549 28.97 126.071 29.599 C 125.593 30.229 124.649 30.317 123.963 29.797 L 122.355 28.575 C 122.355 28.575 122.355 28.575 122.355 28.575 L 121.635 28.028 C 119.883 26.698 117.589 26.765 116.515 28.178 C 115.442 29.591 115.992 31.817 117.742 33.148 L 120.501 35.244 C 121.385 35.915 121.558 37.178 120.886 38.063 C 120.214 38.947 118.951 39.119 118.067 38.448 L 112.798 34.446 C 112.798 34.446 112.797 34.445 112.796 34.445 L 111.202 33.234 C 109.45 31.903 107.155 31.97 106.082 33.384 C 105.008 34.797 105.559 37.025 107.311 38.356 L 114.924 44.138 C 114.924 44.138 114.924 44.138 114.924 44.138 L 119.007 47.239 C 120.292 48.214 120.573 50.009 119.635 51.244 C 118.697 52.479 116.893 52.69 115.608 51.714 L 111.824 48.84 C 110.072 47.51 107.778 47.577 106.705 48.991 C 105.631 50.404 106.182 52.632 107.934 53.963 L 113.238 57.991 C 114.463 59.007 115.437 59.944 116.5 61.13 C 117.448 62.188 118.235 63.185 118.981 64.292 C 119.236 64.727 119.512 65.153 119.807 65.568 C 119.838 65.63 119.878 65.687 119.926 65.74 C 121.661 68.254 123.822 70.536 126.386 72.483 C 139.519 82.458 158.281 79.893 168.256 66.759 C 178.231 53.626 175.666 34.865 162.532 24.89 C 158.675 21.96 154.331 20.112 149.867 19.302 C 148.074 18.849 146.3 18.383 144.467 17.621 C 142.75 16.907 141.658 16.544 139.74 15.28 L 133.577 10.599 C 131.825 9.268 129.385 9.528 128.131 11.179 C 126.878 12.829 127.282 15.249 129.033 16.58 L 134.135 20.454 C 134.135 20.455 134.135 20.455 134.136 20.455 L 134.305 20.584 C 134.303 20.585 134.3 20.586 134.298 20.587 C 135.097 21.33 135.22 22.576 134.546 23.464 C 133.829 24.408 132.481 24.592 131.537 23.875 L 129.866 22.606 Z  M 151.605 55.863 L 151.605 52.21 C 149.719 54.863 146.808 56.566 143.543 56.566 C 137.866 56.566 133.256 51.416 133.256 45.073 C 133.256 38.729 137.866 33.58 143.543 33.58 C 146.808 33.58 149.719 35.282 151.605 37.936 L 151.605 34.042 L 156.512 34.042 Q 156.597 56.449 156.543 56.781 C 155.815 61.188 153.049 64.714 148.863 66.507 C 143.935 68.619 138.554 67.622 134.71 63.884 L 137.028 59.98 C 139.324 62.823 143.018 63.806 146.423 62.481 C 149.312 61.357 151.208 58.934 151.605 55.863 Z  M 138.106 44.884 C 138.106 40.775 141.092 37.439 144.77 37.439 C 148.448 37.439 151.434 40.775 151.434 44.884 C 151.434 48.993 148.448 52.329 144.77 52.329 C 141.092 52.329 138.106 48.993 138.106 44.884 Z " fill-rule="evenodd" fill="rgb(255,255,255)"/></svg>
