<svg xmlns="http://www.w3.org/2000/svg" id="logoSvg0" width="128" height="128" viewBox="0 0 128 128">
        <defs>
          <clipPath id="cliplogoSvg0">
            <rect x="0" y="0" width="128" height="128" rx="16" ry="16"></rect>
          </clipPath>
        </defs>
        <g clip-path="url(#cliplogoSvg0)">
          
        <rect x="0" y="0" width="128" height="128" fill="#73c1e9"></rect>
      
        <path fill="#fbbc54" d="M 0 29.468288288288292                        L 64 103.84666666666666                        L 84.78310077519382 128                        L 0,128                        Z"></path>
      
        <path fill="#a0d272" d="M 128 65.57666666666667                         L 128,128                         L 43.21689922480619,128                         L 96.93 65.57666666666667                         Z"></path>
      
        <path fill="#002252" d="M 47.5 65 L 47.5 33 C 47.5 31 49.5 29 51.5 29 L 76.5 29 C 78.5 29 80.5 31 80.5 33 L 80.5 65 "></path>
      
        <path fill="#002252" d="M 97.08654851209747 68.54806524269753 L 67.91345148790253 102.45193475730245 C 65.95672574395127 104.72596737865123 62.04327425604873 104.72596737865123 60.086548512097465 102.45193475730245 L 30.913451487902535 68.54806524269753 C 28.956725743951267 66.27403262134877 30 64 33 64 L 95 64 C 98 64 99.04327425604873 66.27403262134877 97.08654851209747 68.54806524269753 Z "></path>
      
        </g>
      </svg>