<svg xmlns="http://www.w3.org/2000/svg" id="logoSvg3" width="32" height="32" viewBox="0 0 32 32">
        <defs>
          <clipPath id="cliplogoSvg3">
            <rect x="0" y="0" width="32" height="32" rx="4" ry="4"></rect>
          </clipPath>
        </defs>
        <g clip-path="url(#cliplogoSvg3)">
          
        <rect x="0" y="0" width="32" height="32" fill="#73c1e9"></rect>
      
        <path fill="#fbbc54" d="M 0 7.85640350877193                        L 16 25.961666666666666                        L 21.336201550387596 32                        L 0,32                        Z"></path>
      
        <path fill="#a0d272" d="M 32 16.394166666666667                         L 32,32                         L 10.663798449612404,32                         L 24.455 16.394166666666667                         Z"></path>
      
        <path fill="#002252" d="M 12 17 L 12 8.5 C 12 8 12.5 7.5 13 7.5 L 19 7.5 C 19.5 7.5 20 8 20 8.5 L 20 17 "></path>
      
        <path fill="#002252" d="M 24.506703305292433 17.12399362822172 L 16.993296694707567 25.62600637177828 C 16.496648347353783 26.18800318588914 15.503351652646217 26.18800318588914 15.006703305292435 25.62600637177828 L 7.493296694707566 17.12399362822172 C 6.9966483473537835 16.56199681411086 7.25 16 8 16 L 24 16 C 24.75 16 25.003351652646217 16.56199681411086 24.506703305292433 17.12399362822172 Z "></path>
      
        </g>
      </svg>