<svg xmlns="http://www.w3.org/2000/svg" id="logoSvg1" width="48" height="48" viewBox="0 0 48 48">
        <defs>
          <clipPath id="cliplogoSvg1">
            <rect x="0" y="0" width="48" height="48" rx="6" ry="6"></rect>
          </clipPath>
        </defs>
        <g clip-path="url(#cliplogoSvg1)">
          
        <rect x="0" y="0" width="48" height="48" fill="#73c1e9"></rect>
      
        <path fill="#fbbc54" d="M 0 11.050608108108108                        L 24 38.9425                        L 31.793662790697674 48                        L 0,48                        Z"></path>
      
        <path fill="#a0d272" d="M 48 24.59125                         L 48,48                         L 16.206337209302326,48                         L 36.34875 24.59125                         Z"></path>
      
        <path fill="#002252" d="M 18 25 L 18 13 C 18 12.25 18.75 11.5 19.5 11.5 L 28.5 11.5 C 29.25 11.5 30 12.25 30 13 L 30 25 "></path>
      
        <path fill="#002252" d="M 36.40745569203655 25.70552446601158 L 25.46754430796345 38.419475533988425 C 24.733772153981725 39.27223776699421 23.266227846018275 39.27223776699421 22.53245569203655 38.419475533988425 L 11.59254430796345 25.70552446601158 C 10.858772153981725 24.85276223300579 11.25 24 12.375 24 L 35.625 24 C 36.75 24 37.141227846018275 24.85276223300579 36.40745569203655 25.70552446601158 Z "></path>
      
        </g>
      </svg>