<svg id="Layer_1" data-name="Layer 1" xmlns="http://www.w3.org/2000/svg" xmlns:xlink="http://www.w3.org/1999/xlink" viewBox="0 0 24 24"><defs><style>.cls-1{fill:none;clip-rule:evenodd;}.cls-2{fill:#4a4a4a;}.cls-3{clip-path:url(#clip-path);}</style><clipPath id="clip-path"><path class="cls-1" d="M115-3.43h-1.5l-.43-.43h-2.14l-.43.43H109v.86h6ZM109.43,3a.86.86,0,0,0,.86.86h3.43a.86.86,0,0,0,.86-.86V-2.14h-5.14Z"/></clipPath></defs><title>Artboard 1</title><path class="cls-2" d="M12.07,9.48H10.92s-.06-.1-.06-.15V7.52A1.11,1.11,0,0,0,9.81,6.34v0H8.55a4.5,4.5,0,0,0-4.45,4H1a.5.5,0,0,0-.51.44V14a.5.5,0,0,0,.51.44H4.1a4.5,4.5,0,0,0,4.45,4H9.81a1.11,1.11,0,0,0,1.05-1.18V15.42s.06-.1.06-.15h1.15c.24,0,.37-.2.37-.44V9.92C12.44,9.67,12.31,9.48,12.07,9.48Z"/><path class="cls-2" d="M23.13,10.36H20a4.38,4.38,0,0,0-4.37-4h-2a.5.5,0,0,0-.51.44V8.86a.5.5,0,0,0,.51.44h1.08v6.15H13.65a.5.5,0,0,0-.51.44V18a.5.5,0,0,0,.51.44h2.14l.35,0,.15,0,.16,0a4.41,4.41,0,0,0,3.58-4h3.09c.24,0,.37-.2.37-.44V10.79C23.5,10.55,23.37,10.36,23.13,10.36Z"/></svg>