<?xml version="1.0" encoding="utf-8"?>
<!-- Generator: Adobe Illustrator 19.2.1, SVG Export Plug-In . SVG Version: 6.00 Build 0)  -->
<svg version="1.1" id="Layer_1" xmlns="http://www.w3.org/2000/svg" xmlns:xlink="http://www.w3.org/1999/xlink" x="0px" y="0px"
	 viewBox="0 0 115 115" style="enable-background:new 0 0 115 115;" xml:space="preserve">
<style type="text/css">
	.st0{fill:#747474;}
	.st1{fill:#2196F3;}
	.st2{fill:#FFFFFF;}
	.st3{fill:#34474F;}
</style>
<path class="st1" d="M38.4,92.3c-1.1-0.3-4.4-1.5-4.8-3.6c-0.5-2.4-0.4-6.2-0.3-9.5c0.2-7.2,0.9-14.2-6.9-21.2
	c7.4-8,7.1-14,6.9-21.2c-0.1-3.3-0.2-7.1,0.3-9.5c0.4-2.1,3.7-3.3,4.8-3.6c4.6-1,7.6-5.6,6.8-10.6c-0.7-4.5-4.3-6-8.5-6
	c-0.5,0-1,0.1-1.5,0.2c-5.7,1.1-16.2,6.6-18.4,16c-1.1,4.6-0.9,9.5-0.8,14.1l0,0.1c0.1,2.2,0.2,7.3-0.3,8.8
	c-1.9,2.1-5.1,2.6-5.3,2.6c-0.1,0-0.3,0-0.4,0.1c-0.3,0.1-0.6,0.1-0.8,0.2l0,0C9,49,8.7,49,8.5,49.1c-0.4,0.1-0.7,0.3-1,0.5l0,0l0,0
	c-0.2,0.1-0.3,0.2-0.5,0.3c-0.4,0.2-0.7,0.5-1,0.7c-0.1,0.1-0.3,0.2-0.4,0.4c-0.3,0.3-0.6,0.6-0.8,0.8c-0.1,0.1-0.2,0.2-0.4,0.4
	c-0.2,0.3-0.4,0.6-0.6,0.9l0,0c-0.1,0.2-0.2,0.3-0.3,0.5l0,0l0,0c-0.2,0.3-0.3,0.7-0.4,0.9l0,0C3,54.7,2.9,55,2.9,55.3l0,0l0,0
	c-0.1,0.3-0.1,0.6-0.2,0.8c0,0.2-0.1,0.5-0.1,0.8c0,0.1,0,0.2,0,0.3l0,0l0,0c0,0.3,0,0.5,0,0.7c0,0.2,0,0.4,0,0.7l0,0l0,0
	c0,0.1,0,0.2,0,0.3c0,0.2,0.1,0.5,0.1,0.6l0,0.1l0,0.1c0,0.2,0.1,0.5,0.2,0.8c0.1,0.3,0.2,0.6,0.3,0.8c0.1,0.2,0.2,0.5,0.3,0.8
	c0.1,0.3,0.3,0.5,0.4,0.7c0.1,0.2,0.3,0.5,0.5,0.8c0.2,0.2,0.3,0.4,0.5,0.6c0.2,0.2,0.4,0.4,0.6,0.6l0,0l0,0
	c0.2,0.2,0.4,0.4,0.6,0.5l0,0l0,0c0.2,0.1,0.4,0.3,0.7,0.5c0.2,0.1,0.4,0.3,0.7,0.4c0.3,0.1,0.6,0.3,0.9,0.4
	c0.2,0.1,0.5,0.2,0.7,0.2c0.3,0.1,0.6,0.1,0.8,0.2c0.1,0,0.3,0.1,0.5,0.1c1,0.1,3.8,0.8,5.4,2.6c0.5,1.5,0.4,6.6,0.3,8.8l0,0
	c-0.1,4.7-0.4,9.5,0.8,14.1c1.9,7.9,12.7,13.9,18.4,15.1c0.5,0.1,1,0.2,1.5,0.2c4.2,0,7.8-0.6,8.5-5C45.9,97.9,43,93.3,38.4,92.3z"
	/>
<path class="st1" d="M76.6,92.3c1.1-0.3,4.4-1.5,4.8-3.6c0.5-2.4,0.4-6.2,0.3-9.5c-0.2-7.2-0.9-14.2,6.9-21.2
	c-7.4-8-7.1-14-6.9-21.2c0.1-3.3,0.2-7.1-0.3-9.5c-0.4-2.1-3.7-3.3-4.8-3.6c-4.6-1-7.6-5.6-6.8-10.6c0.7-4.5,4.3-6,8.5-6
	c0.5,0,1,0.1,1.5,0.2c5.7,1.1,15.7,6.6,17.9,16c1.1,4.6,0.3,9.5,0.3,14.1v0.1c0,2.2,0.3,7.3,0.8,8.8c1.9,2.1,5.4,2.6,5.6,2.6
	c0.1,0,0.4,0,0.5,0.1c0.3,0.1,0.7,0.1,0.9,0.2l0.1,0c0.1,0,0.4,0.1,0.7,0.2c0.4,0.1,0.8,0.3,1.1,0.5l0,0l0,0
	c0.2,0.1,0.3,0.2,0.5,0.3c0.4,0.2,0.7,0.5,1,0.7c0.1,0.1,0.3,0.2,0.4,0.4c0.3,0.3,0.6,0.6,0.8,0.8c0.1,0.1,0.2,0.2,0.4,0.4
	c0.2,0.3,0.4,0.6,0.6,0.9l0,0c0.1,0.2,0.2,0.3,0.3,0.5l0,0l0,0c0.2,0.3,0.3,0.7,0.4,0.9l0,0c0.1,0.2,0.2,0.4,0.2,0.7l0,0l0,0
	c0.1,0.3,0.1,0.6,0.2,0.8c0,0.2,0.1,0.5,0.1,0.8c0,0.1,0,0.2,0,0.3l0,0l0,0c0,0.3,0,0.5,0,0.7c0,0.2,0,0.4,0,0.7l0,0l0,0
	c0,0.1,0,0.2,0,0.3c0,0.2-0.1,0.5-0.1,0.6l0,0.1l0,0.1c0,0.2-0.1,0.5-0.2,0.8c-0.1,0.3-0.2,0.6-0.3,0.8c-0.1,0.2-0.2,0.5-0.3,0.8
	c-0.1,0.3-0.3,0.5-0.4,0.7c-0.1,0.2-0.3,0.5-0.5,0.8c-0.2,0.2-0.3,0.4-0.5,0.6c-0.2,0.2-0.4,0.4-0.6,0.6l0,0l0,0
	c-0.2,0.2-0.4,0.4-0.6,0.5l0,0l0,0c-0.2,0.1-0.4,0.3-0.7,0.5c-0.2,0.1-0.4,0.3-0.7,0.4c-0.3,0.1-0.6,0.3-0.9,0.4
	c-0.2,0.1-0.5,0.2-0.7,0.2c-0.3,0.1-0.6,0.1-0.8,0.2c-0.1,0-0.3,0.1-0.5,0.1c-1,0.1-4.2,0.8-5.8,2.6c-0.5,1.5-0.8,6.6-0.8,8.8v0
	c0,4.7,0.8,9.5-0.3,14.1c-1.9,7.9-12.5,13.9-18.1,15.1c-0.5,0.1-0.9,0.2-1.4,0.2c-4.2,0-7.7-0.6-8.4-5C69,97.9,72,93.3,76.6,92.3z"
	/>
</svg>
