<?xml version="1.0" standalone="no"?><!-- Generator: Gravit.io --><svg xmlns="http://www.w3.org/2000/svg" xmlns:xlink="http://www.w3.org/1999/xlink" style="isolation:isolate" viewBox="247 1001.5 60 70.5" width="60" height="70.5"><g><g opacity="0.42"><path d=" M 277.004 1038.125 L 277.039 1014 C 281.436 1014.006 285.597 1015.028 289.3 1016.843 L 278.339 1039.262 L 277.004 1038.125 Z " fill="rgb(166,166,166)"/></g><path d=" M 276 1068.982 C 269.468 1068.74 263.247 1066.137 258.509 1061.655 L 258.509 1061.655 L 262.681 1057.483 L 261.267 1056.069 L 257.104 1060.232 C 252.713 1055.466 250.191 1049.255 250.01 1042.75 L 250.01 1042.75 L 255.75 1042.75 L 255.75 1040.75 L 250.029 1040.75 C 250.327 1034.31 252.92 1028.187 257.345 1023.509 L 257.345 1023.509 L 261.267 1027.431 L 262.681 1026.017 L 258.768 1022.104 C 263.472 1017.77 269.586 1015.256 276 1015.018 L 276 1015.018 L 276 1020.5 L 278 1020.5 L 278 1015.018 C 284.414 1015.256 290.528 1017.77 295.232 1022.104 L 291.319 1026.017 L 292.733 1027.431 L 296.655 1023.509 L 296.655 1023.509 C 301.08 1028.187 303.673 1034.31 303.971 1040.75 L 298.25 1040.75 L 298.25 1042.75 L 303.99 1042.75 L 303.99 1042.75 C 303.809 1049.255 301.287 1055.466 296.896 1060.232 L 292.733 1056.069 L 291.319 1057.483 L 295.491 1061.655 L 295.491 1061.655 C 290.753 1066.137 284.532 1068.74 278 1068.982 L 278 1063 L 276 1063 L 276 1068.982 Z  M 274.5 1042 C 274.5 1041.34 274.76 1040.7 275.23 1040.23 C 275.7 1039.76 276.34 1039.5 277 1039.5 C 277.66 1039.5 278.3 1039.76 278.77 1040.23 C 279.24 1040.7 279.5 1041.34 279.5 1042 C 279.5 1042.66 279.24 1043.3 278.77 1043.77 C 278.3 1044.24 277.66 1044.5 277 1044.5 C 276.34 1044.5 275.7 1044.24 275.23 1043.77 C 274.76 1043.3 274.5 1042.66 274.5 1042 L 274.5 1042 L 274.5 1042 L 274.5 1042 L 274.5 1042 L 274.5 1042 L 274.5 1042 L 274.5 1042 L 274.5 1042 L 274.5 1042 L 274.5 1042 L 274.5 1042 L 274.5 1042 L 274.5 1042 L 274.5 1042 L 274.5 1042 L 274.5 1042 Z  M 273.19 1004.5 L 280.81 1004.5 C 280.99 1004.5 281.17 1004.57 281.3 1004.7 C 281.43 1004.83 281.5 1005.01 281.5 1005.19 L 281.5 1006.81 C 281.5 1006.99 281.43 1007.17 281.3 1007.3 C 281.17 1007.43 280.99 1007.5 280.81 1007.5 L 273.19 1007.5 C 273.01 1007.5 272.83 1007.43 272.7 1007.3 C 272.57 1007.17 272.5 1006.99 272.5 1006.81 L 272.5 1005.19 C 272.5 1005.01 272.57 1004.83 272.7 1004.7 C 272.83 1004.57 273.01 1004.5 273.19 1004.5 L 273.19 1004.5 L 273.19 1004.5 L 273.19 1004.5 L 273.19 1004.5 L 273.19 1004.5 L 273.19 1004.5 L 273.19 1004.5 L 273.19 1004.5 L 273.19 1004.5 L 273.19 1004.5 L 273.19 1004.5 L 273.19 1004.5 L 273.19 1004.5 L 273.19 1004.5 Z  M 276 1037.612 C 275.181 1037.798 274.421 1038.212 273.82 1038.82 C 272.97 1039.66 272.5 1040.81 272.5 1042 L 272.5 1042 C 272.5 1043.19 272.97 1044.34 273.82 1045.18 C 274.66 1046.03 275.81 1046.5 277 1046.5 C 278.19 1046.5 279.34 1046.03 280.18 1045.18 C 281.03 1044.34 281.5 1043.19 281.5 1042 C 281.5 1040.81 281.03 1039.66 280.18 1038.82 C 279.579 1038.212 278.819 1037.798 278 1037.612 L 278 1025.907 C 278 1025.407 277.593 1025 277.093 1025 L 276.907 1025 C 276.407 1025 276 1025.407 276 1025.907 L 276 1037.612 L 276 1037.612 L 276 1037.612 L 276 1037.612 L 276 1037.612 L 276 1037.612 L 276 1037.612 L 276 1037.612 L 276 1037.612 L 276 1037.612 L 276 1037.612 L 276 1037.612 L 276 1037.612 L 276 1037.612 L 276 1037.612 L 276 1037.612 Z  M 299.451 1019.128 L 297.997 1020.581 C 303.552 1026.027 307 1033.614 307 1042 C 307 1058.557 293.557 1072 277 1072 C 260.443 1072 247 1058.557 247 1042 L 247 1042 C 247 1033.614 250.448 1026.027 256.003 1020.581 L 256.003 1020.581 L 254.549 1019.128 L 252.428 1021.249 L 250.307 1019.128 L 257.378 1012.057 L 259.499 1014.178 L 257.378 1016.299 L 257.378 1016.299 L 259.047 1017.969 C 263.555 1014.595 269.041 1012.459 275 1012.066 L 275 1012.066 L 275 1010.5 L 275 1010.5 L 275 1010.5 L 273.19 1010.5 C 272.21 1010.5 271.27 1010.11 270.58 1009.42 C 269.89 1008.73 269.5 1007.79 269.5 1006.81 L 269.5 1005.19 C 269.5 1004.21 269.89 1003.27 270.58 1002.58 C 271.27 1001.89 272.21 1001.5 273.19 1001.5 L 273.19 1001.5 L 280.81 1001.5 C 281.79 1001.5 282.73 1001.89 283.42 1002.58 C 284.11 1003.27 284.5 1004.21 284.5 1005.19 L 284.5 1006.81 C 284.5 1007.79 284.11 1008.73 283.42 1009.42 C 282.73 1010.11 281.79 1010.5 280.81 1010.5 L 279 1010.5 L 279 1012.066 C 284.959 1012.459 290.445 1014.595 294.953 1017.969 L 294.953 1017.969 L 296.622 1016.299 L 294.501 1014.178 L 296.622 1012.057 L 303.693 1019.128 L 301.572 1021.249 L 299.451 1019.128 L 299.451 1019.128 L 299.451 1019.128 L 299.451 1019.128 L 299.451 1019.128 L 299.451 1019.128 L 299.451 1019.128 L 299.451 1019.128 L 299.451 1019.128 Z " fill-rule="evenodd" fill="rgb(166,166,166)"/></g></svg>