<?xml version="1.0" standalone="no"?><!-- Generator: Gravit.io --><svg xmlns="http://www.w3.org/2000/svg" xmlns:xlink="http://www.w3.org/1999/xlink" style="isolation:isolate" viewBox="235.313 497 100.815 72.2" width="100.815" height="72.2"><g><path d=" M 308.542 540.238 L 291.532 527.466 L 313.719 510.813 C 314.166 510.487 314.45 510 314.491 509.472 C 314.572 508.944 314.45 508.416 314.125 507.969 C 313.8 507.522 313.313 507.238 312.784 507.197 C 312.256 507.116 311.728 507.238 311.281 507.562 L 280 531.003 L 248.719 507.562 C 248.272 507.238 247.744 507.116 247.216 507.197 C 246.687 507.238 246.2 507.522 245.875 507.969 C 245.55 508.416 245.428 508.944 245.509 509.472 C 245.55 510 245.834 510.487 246.281 510.813 L 268.487 527.48 L 246.281 544.125 C 245.834 544.45 245.55 544.937 245.509 545.466 C 245.428 545.994 245.55 546.522 245.875 546.969 C 246.2 547.416 246.687 547.7 247.216 547.741 C 247.744 547.822 248.272 547.7 248.719 547.375 L 271.871 530.02 L 280 536.122 L 288.148 530.006 L 288.148 530.006 L 305.827 543.279 C 306.62 542.17 307.532 541.15 308.542 540.238 Z  M 324.688 535.737 L 324.688 505.686 C 324.688 500.892 320.795 497 316.002 497 L 243.998 497 L 243.998 497 C 239.205 497 235.313 500.892 235.313 505.686 L 235.313 553.314 C 235.313 558.108 239.205 562 243.998 562 L 304.019 562 C 303.432 560.717 302.986 559.356 302.699 557.937 L 244.006 557.937 C 242.787 557.938 241.609 557.45 240.716 556.597 C 239.862 555.703 239.375 554.525 239.375 553.306 L 239.375 505.694 C 239.375 504.475 239.862 503.297 240.716 502.403 C 241.609 501.55 242.787 501.063 244.006 501.062 L 244.006 501.062 L 315.994 501.062 C 317.213 501.063 318.391 501.55 319.284 502.403 C 320.138 503.297 320.625 504.475 320.625 505.694 L 320.625 535.407 C 320.792 535.402 320.959 535.4 321.127 535.4 C 322.344 535.4 323.535 535.516 324.688 535.737 Z " fill-rule="evenodd" fill="rgb(166,166,166)"/><path d=" M 318.566 558.7 L 318.566 558.7 L 319.627 559.761 L 330.052 549.336 L 328.991 548.275 L 319.627 557.639 L 314.763 552.775 L 313.703 553.836 L 318.566 558.7 Z  M 307.627 554.2 C 307.627 550.615 309.052 547.18 311.587 544.66 C 314.107 542.125 317.542 540.7 321.127 540.7 C 324.712 540.7 328.147 542.125 330.667 544.66 C 333.202 547.18 334.627 550.615 334.627 554.2 C 334.627 557.785 333.202 561.22 330.667 563.74 C 328.147 566.275 324.712 567.7 321.127 567.7 C 317.542 567.7 314.107 566.275 311.587 563.74 C 309.052 561.22 307.627 557.785 307.627 554.2 L 307.627 554.2 Z  M 306.127 554.2 C 306.127 545.921 312.848 539.2 321.127 539.2 C 329.406 539.2 336.127 545.921 336.127 554.2 C 336.127 562.479 329.406 569.2 321.127 569.2 C 312.848 569.2 306.127 562.479 306.127 554.2 L 306.127 554.2 Z " fill-rule="evenodd" fill="rgb(166,166,166)"/></g></svg>