<?xml version="1.0" standalone="no"?><!-- Generator: Gravit.io --><svg xmlns="http://www.w3.org/2000/svg" xmlns:xlink="http://www.w3.org/1999/xlink" style="isolation:isolate" viewBox="247 684 60 60" width="60" height="60"><path d=" M 271.879 723 L 271.879 723 L 274 725.121 L 294.849 704.272 L 292.728 702.151 L 274 720.879 L 264.272 711.151 L 262.151 713.272 L 271.879 723 Z  M 250 714 C 250 706.83 252.85 699.96 257.92 694.92 C 262.96 689.85 269.83 687 277 687 C 284.17 687 291.04 689.85 296.08 694.92 C 301.15 699.96 304 706.83 304 714 C 304 721.17 301.15 728.04 296.08 733.08 C 291.04 738.15 284.17 741 277 741 C 269.83 741 262.96 738.15 257.92 733.08 C 252.85 728.04 250 721.17 250 714 L 250 714 Z  M 247 714 C 247 697.443 260.443 684 277 684 C 293.557 684 307 697.443 307 714 C 307 730.557 293.557 744 277 744 C 260.443 744 247 730.557 247 714 L 247 714 Z " fill-rule="evenodd" fill="rgb(54,170,1)"/></svg>