<?xml version="1.0" encoding="UTF-8"?>
<svg width="150px" height="38px" viewBox="0 0 150 38" version="1.1" xmlns="http://www.w3.org/2000/svg" xmlns:xlink="http://www.w3.org/1999/xlink">
    <!-- Generator: Sketch 45.2 (43514) - http://www.bohemiancoding.com/sketch -->
    <title>Group</title>
    <desc>Created with Sketch.</desc>
    <defs></defs>
    <g id="v3.1-SFTP,-Login-+-History" stroke="none" stroke-width="1" fill="none" fill-rule="evenodd">
        <g id="Group" transform="translate(1.000000, 1.000000)" fill="#FFFFFF">
            <path d="M58.3060606,8.52121212 L54.5969697,8.52121212 L54.5969697,10.2666667 C54.5969697,11.5212121 53.9151515,12.4757576 52.4969697,12.4757576 L51.8151515,12.4757576 L51.8151515,16.1030303 L54.2151515,16.1030303 L54.2151515,21.9121212 C54.2151515,24.6121212 55.9333333,26.2757576 58.7424242,26.2757576 C60.0515152,26.2757576 60.7333333,25.9757576 60.8969697,25.8939394 L60.8969697,22.4575758 C60.6515152,22.5121212 60.2424242,22.5939394 59.8060606,22.5939394 C58.9060606,22.5939394 58.3060606,22.2939394 58.3060606,21.1757576 L58.3060606,16.1030303 L60.9515152,16.1030303 L60.9515152,12.4757576 L58.3060606,12.4757576 L58.3060606,8.52121212 Z M66.8969697,17.630303 L72.3242424,17.630303 C72.269697,16.5939394 71.5606061,15.3393939 69.5969697,15.3393939 C67.8515152,15.3393939 66.9787879,16.6212121 66.8969697,17.630303 Z M72.6242424,21.1484848 L76.0878788,22.130303 C75.4333333,24.4757576 73.2787879,26.4393939 69.8424242,26.4393939 C66.1060606,26.4393939 62.7787879,23.7666667 62.7787879,19.2121212 C62.7787879,14.8484848 66.0242424,12.0666667 69.5424242,12.0666667 C73.7424242,12.0666667 76.3333333,14.6575758 76.3333333,19.0212121 C76.3333333,19.5939394 76.2787879,20.2212121 76.2515152,20.3030303 L66.8151515,20.3030303 C66.8969697,21.830303 68.2878788,22.9212121 69.8969697,22.9212121 C71.3969697,22.9212121 72.2424242,22.2121212 72.6242424,21.1484848 Z M87.6242424,12.4757576 C87.3515152,12.3939394 86.9424242,12.3393939 86.5333333,12.3393939 C85.4424242,12.3393939 83.7242424,12.7757576 83.0151515,14.3030303 L83.0151515,12.4757576 L79.0060606,12.4757576 L79.0060606,26.030303 L83.1515152,26.030303 L83.1515152,20.1121212 C83.1515152,17.4121212 84.6515152,16.430303 86.3151515,16.430303 C86.7242424,16.430303 87.1606061,16.4575758 87.6242424,16.5666667 L87.6242424,12.4757576 Z M94.1424242,26.030303 L94.1424242,18.230303 C94.1424242,17.0030303 94.9333333,15.8848485 96.3787879,15.8848485 C97.8787879,15.8848485 98.5606061,16.8939394 98.5606061,18.1757576 L98.5606061,26.030303 L102.651515,26.030303 L102.651515,18.2030303 C102.651515,17.0030303 103.442424,15.8848485 104.915152,15.8848485 C106.387879,15.8848485 107.069697,16.8939394 107.069697,18.1757576 L107.069697,26.030303 L111.078788,26.030303 L111.078788,17.2484848 C111.078788,13.5666667 108.624242,12.0666667 106.060606,12.0666667 C104.233333,12.0666667 102.924242,12.6666667 101.860606,14.1939394 C101.178788,12.8575758 99.7878788,12.0666667 97.8515152,12.0666667 C96.3787879,12.0666667 94.6333333,12.830303 93.9515152,14.030303 L93.9515152,12.4757576 L89.9969697,12.4757576 L89.9969697,26.030303 L94.1424242,26.030303 Z M118.715152,26.030303 L118.715152,12.4757576 L114.569697,12.4757576 L114.569697,26.030303 L118.715152,26.030303 Z M114.215152,8.33030303 C114.215152,9.66666667 115.306061,10.7575758 116.615152,10.7575758 C117.978788,10.7575758 119.069697,9.66666667 119.069697,8.33030303 C119.069697,6.99393939 117.978788,5.9030303 116.615152,5.9030303 C115.306061,5.9030303 114.215152,6.99393939 114.215152,8.33030303 Z M131.09697,26.030303 L135.078788,26.030303 C135.051515,25.8121212 134.942424,24.830303 134.942424,23.6030303 L134.942424,12.4757576 L130.79697,12.4757576 L130.79697,20.1939394 C130.79697,21.5575758 129.924242,22.5121212 128.533333,22.5121212 C127.060606,22.5121212 126.351515,21.4757576 126.351515,20.1666667 L126.351515,12.4757576 L122.206061,12.4757576 L122.206061,21.0393939 C122.206061,23.930303 124.060606,26.330303 127.360606,26.330303 C128.724242,26.330303 130.278788,25.8393939 130.987879,24.6666667 C130.987879,25.0212121 131.042424,25.7848485 131.09697,26.030303 Z M137.478788,22.1848485 C137.587879,23.6848485 138.951515,26.4393939 143.206061,26.4393939 C146.833333,26.4393939 148.606061,24.1757576 148.606061,21.8575758 C148.606061,19.8666667 147.242424,18.1757576 144.433333,17.6030303 L142.633333,17.2484848 C142.033333,17.1393939 141.569697,16.8121212 141.569697,16.2393939 C141.569697,15.530303 142.251515,15.0666667 143.042424,15.0666667 C144.29697,15.0666667 144.869697,15.830303 144.978788,16.730303 L148.415152,16.1030303 C148.278788,14.5212121 146.915152,12.0666667 142.987879,12.0666667 C139.960606,12.0666667 137.778788,14.0848485 137.778788,16.5666667 C137.778788,18.4757576 138.924242,20.1121212 141.815152,20.7393939 L143.369697,21.0939394 C144.378788,21.3121212 144.706061,21.7212121 144.706061,22.2121212 C144.706061,22.8121212 144.187879,23.3848485 143.124242,23.3848485 C141.706061,23.3848485 141.051515,22.4848485 140.99697,21.5575758 L137.478788,22.1848485 Z" id="termius"></path>
            <g id="Logo" transform="translate(0.000000, 0.272727)">
                <g id="Group-3" transform="translate(0.000000, 0.121491)">
                    <path d="M31.5352185,30.7160592 C37.5838963,30.7160592 42.5032398,25.7966682 42.5032398,19.748038 C42.5032398,16.6637785 41.1569721,13.6621159 38.8695121,11.594897 C38.8700819,11.5503324 38.8703673,11.5058018 38.8703673,11.4613462 C38.8703673,5.60070074 34.1038179,0.834199134 28.2430806,0.834199134 C26.4250914,0.834199134 24.6593826,1.29357409 23.0841368,2.17019941 C21.0932425,0.155617644 18.3896911,-0.981888004 15.5297724,-0.981888004 C9.72690995,-0.981888004 4.99693531,3.69096692 4.90415372,9.4720901 C1.29181151,11.3680365 -1.00004189,15.1221379 -1.00004189,19.2372155 C-1.00004189,25.3172183 3.94466948,30.2620723 10.0245357,30.2620723 C10.4203304,30.2620723 10.8165535,30.2408766 11.2097607,30.1987584 C13.204171,33.7827873 17.0159686,36.0509286 21.1485407,36.0509286 L21.1485407,34.0509286 C17.5409154,34.0509286 14.2236617,31.947624 12.6774077,28.6817952 L12.3511272,27.9926611 L11.6002034,28.124866 C11.0828541,28.2159486 10.5531122,28.2620723 10.0245357,28.2620723 C5.0492519,28.2620723 0.999958106,24.2126617 0.999958106,19.2372155 C0.999958106,15.6863571 3.08521866,12.4630192 6.32393581,11.004175 L6.94397407,10.7248856 L6.91214223,10.0455943 C6.90590741,9.91254321 6.90276498,9.77817272 6.90276498,9.64525904 C6.90276498,4.88912546 10.7736622,1.018112 15.5297724,1.018112 C18.0886626,1.018112 20.4883809,2.136618 22.1357863,4.09619234 L22.7118314,4.78139305 L23.456385,4.28443432 C24.8794893,3.33457107 26.5305723,2.83419913 28.2430806,2.83419913 C32.9992529,2.83419913 36.8703673,6.70527473 36.8703673,11.4613462 C36.8703673,11.6331632 36.8650886,11.8066052 36.8546409,11.9772505 L36.8234423,12.4868275 L37.2178786,12.8109604 C39.2748241,14.5012804 40.5032398,17.0948952 40.5032398,19.748038 C40.5032398,24.692103 36.4793225,28.7160592 31.5352185,28.7160592 C31.1533903,28.7160592 30.76675,28.6912831 30.3852364,28.6423517 L29.7067848,28.5553364 L29.3797362,29.1560921 C27.733648,32.1797927 24.5880854,34.0509286 21.1485407,34.0509286 L21.1485407,36.0509286 C25.0967145,36.0509286 28.7286724,34.0166711 30.7989303,30.6912779 C31.0446151,30.7077648 31.2905454,30.7160592 31.5352185,30.7160592 Z" id="Combined-Shape" fill-rule="nonzero"></path>
                    <path d="M23.8877671,21.816548 C22.9356654,21.816548 21.9962715,21.6213238 21.0959782,21.2363217 C20.8359587,21.1280966 20.6530233,21.0519899 20.6530233,20.6713169 L20.6530233,20.1554671 C20.6530233,19.8020249 20.8345622,19.5992599 21.1508588,19.5992599 L21.1775311,19.5992599 L21.2022483,19.6088954 C22.0676302,19.9501885 22.9707164,20.123209 23.886231,20.123209 C24.803561,20.123209 25.7620863,19.9496299 26.7352744,19.6072197 L26.7577573,19.5992599 L26.7816366,19.5992599 C27.0980729,19.5992599 27.2796118,19.8020249 27.2796118,20.1554671 L27.2796118,20.6713169 C27.2796118,21.0454266 27.1031001,21.1213937 26.8587208,21.2265466 L26.8369362,21.2360425 C25.8282782,21.6218824 24.8379137,21.816548 23.8877671,21.816548" id="Fill-4"></path>
                    <path d="M14.2781595,18.3991901 C14.0756738,18.3991901 13.9548806,18.2640134 13.9548806,18.0375087 L13.9548806,17.1726854 C13.9548806,16.7847507 14.1826421,16.6788996 14.318517,16.6502723 L17.8018294,15.7358749 L14.311814,14.8198017 C14.1784527,14.7848904 13.9548806,14.6706605 13.9548806,14.2989247 L13.9548806,13.4208351 C13.9548806,13.0872225 14.1879486,13.0612484 14.259447,13.0612484 C14.3200531,13.0612484 14.3865242,13.075213 14.4629102,13.1038402 L19.4326072,14.7115766 C19.7313085,14.8111437 19.8885491,15.0409999 19.8885491,15.3765675 L19.8885491,16.0950426 C19.8885491,16.4307499 19.7313085,16.6606061 19.433864,16.7597542 L14.4567658,18.3698645 C14.3882,18.3901131 14.331085,18.3991901 14.2781595,18.3991901" id="Fill-6"></path>
                </g>
            </g>
        </g>
    </g>
</svg>