<?xml version="1.0" encoding="utf-8"?>
<!-- Generator: Adobe Illustrator 16.0.0, SVG Export Plug-In . SVG Version: 6.00 Build 0)  -->
<!DOCTYPE svg PUBLIC "-//W3C//DTD SVG 1.1//EN" "http://www.w3.org/Graphics/SVG/1.1/DTD/svg11.dtd">
<svg version="1.1" id="HEX" xmlns="http://www.w3.org/2000/svg" xmlns:xlink="http://www.w3.org/1999/xlink" x="0px" y="0px"
	 width="512px" height="512px" viewBox="0 0 512 512" enable-background="new 0 0 512 512" xml:space="preserve">
<circle fill="#FFFFFF" cx="256" cy="256" r="256"/>
<g opacity="0.7">
	<polygon fill="#FF00FF" points="256,256 156.049,82.877 56.096,256 	"/>
	<polygon fill="#0000FF" points="256,255.999 56.096,255.998 156.049,429.121 	"/>
	<polygon fill="#00FFFF" points="256,255.999 156.047,429.121 355.952,429.12 	"/>
	<polygon fill="#00FF00" points="256,255.999 355.951,429.121 455.903,255.998 	"/>
	<polygon fill="#FFFF00" points="256,255.999 455.903,256 355.951,82.877 	"/>
	<polygon fill="#FF0000" points="256,256 355.952,82.877 156.047,82.877 	"/>
</g>
<g display="none">
	<path display="inline" d="M258.623,285.078h-24.837l-10.335,63.247h-30.698l10.335-63.247h-34.246v-28.229h38.874l6.787-40.726
		h-34.092v-28.23h38.72l10.644-64.172h30.543l-10.489,64.172h24.836l10.645-64.172h30.697l-10.645,64.172h35.635v28.23h-40.262
		l-6.787,40.726h35.324v28.229H289.32l-10.336,63.247h-30.698L258.623,285.078z M238.414,256.849h24.836l6.787-40.726h-24.835
		L238.414,256.849z"/>
</g>
<g display="none">
	<path display="inline" fill="#333333" d="M259.703,305.055h-24.837l-10.336,63.248h-30.697l10.335-63.248h-34.246v-28.229h38.874
		l6.787-40.726h-34.092v-28.23h38.72l10.645-64.172h30.543l-10.489,64.172h24.837l10.645-64.172h30.697l-10.645,64.172h35.635v28.23
		h-40.262l-6.787,40.726h35.324v28.229H290.4l-10.336,63.248h-30.698L259.703,305.055z M239.494,276.826h24.836l6.787-40.726
		h-24.836L239.494,276.826z"/>
</g>
<g>
</g>
<g>
</g>
<g>
</g>
<g>
</g>
<g>
</g>
<g>
</g>
<g>
</g>
<g>
</g>
<g>
</g>
<g>
</g>
<g>
</g>
</svg>
