<?xml version="1.0" encoding="UTF-8"?>
<svg width="43px" height="43px" viewBox="0 0 43 43" version="1.1" xmlns="http://www.w3.org/2000/svg" xmlns:xlink="http://www.w3.org/1999/xlink">
    <!-- Generator: Sketch 44 (41411) - http://www.bohemiancoding.com/sketch -->
    <title>android_active</title>
    <desc>Created with Sketch.</desc>
    <defs></defs>
    <g id="V3.1-assets" stroke="none" stroke-width="1" fill="none" fill-rule="evenodd">
        <g id="Host-icons" transform="translate(-343.000000, -106.000000)">
            <g id="android_active" transform="translate(343.000000, 106.000000)">
                <circle id="Oval-3" fill="#13CD62" cx="21.5" cy="21.5" r="21.5"></circle>
                <g transform="translate(11.000000, 9.000000)" id="Group" fill-rule="nonzero" fill="#FFFFFF">
                    <g transform="translate(0.777778, 0.833333)">
                        <path d="M1.70846511,7.75365617 C0.952979417,7.75327136 0.340662875,8.3668201 0.340488556,9.12165683 L0.341487125,14.85072 C0.341662319,15.6081435 0.954242236,16.2193113 1.70978257,16.2191963 C2.46579861,16.2192574 3.07819857,15.6077356 3.0774346,14.8507812 L3.07752453,9.12092242 C3.07722975,8.36626107 2.46406582,7.75312679 1.70846511,7.75365617 L1.70846511,7.75365617 Z M12.7410478,2.60896514 L13.6959039,0.865161792 C13.7468489,0.774051153 13.7134128,0.657999806 13.6210449,0.606523556 C13.5279056,0.557225667 13.4128552,0.590716972 13.3636106,0.682471028 L12.399121,2.44446436 C11.5873386,2.08338482 10.6793127,1.88068815 9.71834461,1.88177714 C8.75990218,1.88095289 7.8520821,2.08279517 7.0438619,2.44185249 L6.07836736,0.684498792 C6.0280955,0.591745681 5.91263332,0.558224722 5.82143839,0.608726125 C5.72850493,0.658733736 5.69457467,0.774959889 5.7460445,0.865895722 L6.70137533,2.60838112 C4.82433058,3.57645701 3.55622011,5.41977635 3.55718806,7.53609646 L15.8807947,7.53483364 C15.881149,5.41880724 14.6152711,3.57936911 12.7410478,2.60896514 L12.7410478,2.60896514 Z M6.91543883,5.30352035 C6.63165582,5.30290094 6.40046176,5.07220574 6.40040149,4.78721921 C6.40052204,4.50334529 6.6311561,4.26994915 6.9159089,4.26997881 C7.20162975,4.26974421 7.43276917,4.50334529 7.43311868,4.78709865 C7.43323924,5.0718571 7.20160564,5.30333951 6.91543883,5.30352035 L6.91543883,5.30352035 Z M12.5268035,5.30252178 C12.241932,5.30284076 12.0100082,5.07179682 12.010062,4.78592489 C12.0110077,4.50287619 12.2415815,4.26918518 12.5270372,4.26821626 C12.8103826,4.26904051 13.0428404,4.50261097 13.0426048,4.78625029 C13.0432484,5.07153169 12.8116157,5.30257554 12.5268035,5.30252178 L12.5268035,5.30252178 Z M3.60751465,8.01196949 L3.60960269,16.8904733 C3.60898329,17.6980797 4.26216729,18.3499101 5.06935742,18.3500844 L6.06332485,18.3504997 L6.06446808,21.3818367 C6.06429376,22.1364378 6.67781285,22.7500719 7.43153046,22.7500719 C8.187515,22.7500719 8.79994558,22.1359688 8.80015694,21.3808984 L8.79939297,18.3501437 L10.6464071,18.349795 L10.6471711,21.3810134 C10.6469968,22.1352659 11.2608701,22.7498383 12.0147684,22.7486033 C12.7706639,22.7490725 13.3834728,22.1349711 13.3833578,21.3797784 L13.3825345,18.3493797 L14.3799372,18.3486157 C15.1851903,18.3489106 15.8401916,17.6961419 15.8403715,16.8885356 L15.8388434,8.00988154 L3.60751465,8.01196949 Z M19.1025178,9.11957531 C19.1023972,8.36402846 18.4899964,7.7516284 17.7344568,7.75180272 C16.9790304,7.75121949 16.3666852,8.36467839 16.3668651,9.120279 L16.3678034,14.8494275 C16.3677441,15.6057922 16.9798557,16.2170786 17.7358643,16.2173142 C18.4912907,16.2171992 19.1033411,15.6057922 19.1035172,14.8488434 L19.1025178,9.11957531 Z" id="Shape"></path>
                    </g>
                </g>
            </g>
        </g>
    </g>
</svg>