<?xml version="1.0" encoding="UTF-8"?>
<svg width="43px" height="43px" viewBox="0 0 43 43" version="1.1" xmlns="http://www.w3.org/2000/svg" xmlns:xlink="http://www.w3.org/1999/xlink">
    <!-- Generator: Sketch 44 (41411) - http://www.bohemiancoding.com/sketch -->
    <title>arch_active</title>
    <desc>Created with Sketch.</desc>
    <defs></defs>
    <g id="V3.1-assets" stroke="none" stroke-width="1" fill="none" fill-rule="evenodd">
        <g id="Host-icons" transform="translate(-864.000000, -106.000000)">
            <g id="arch_active" transform="translate(864.000000, 106.000000)">
                <circle id="Oval-3" fill="#175277" cx="21.5" cy="21.5" r="21.5"></circle>
                <g transform="translate(11.000000, 9.000000)" id="Shape" fill-rule="nonzero" fill="#FFFFFF">
                    <path d="M7.98236435,7.44870501 C8.90193831,8.21140887 9.94066374,8.74536168 11.0308181,9.19094561 C10.5434368,8.82914381 10.0641497,8.45831686 9.60879325,8.05721083 C9.15109106,7.65403815 8.72013246,7.22409582 8.29678801,6.77544754 C9.27019149,4.72908524 10.0843567,2.61976493 10.9467615,0.509233139 C10.9716638,0.566357417 10.9874538,0.601952417 11.0027504,0.637756931 C11.526635,1.86396764 12.044007,3.09301082 12.5758691,4.31575147 C13.3274068,6.04353172 14.1531655,7.73640258 15.0034447,9.417424 C16.0381164,11.4629917 17.1086293,13.4898516 18.1853692,15.5134571 C18.5210856,16.1443979 18.8594723,16.7739203 19.1965591,17.4041342 C19.2163674,17.4411678 19.235486,17.478574 19.2439511,17.5274514 C19.0151761,17.4102536 18.7895238,17.2863634 18.5567451,17.177729 C18.3212813,17.0678447 18.0811483,16.9668949 17.8386768,16.8734052 C17.596274,16.7799377 17.3499362,16.6959052 17.1025693,16.6162861 C16.856022,16.5369303 16.606057,16.4681908 16.3575904,16.394795 C16.3552056,16.4009163 16.3528209,16.4070357 16.3504362,16.413157 C16.3714424,16.4266865 16.3914993,16.4420517 16.4135904,16.4534839 C17.4421668,16.9857725 18.3915173,17.6365829 19.2857634,18.3702594 C19.5175963,18.5604637 19.7535423,18.74565 19.9856552,18.9355167 C20.0227314,18.965843 20.0572579,19.0045455 20.0799516,19.0464263 C20.6699203,20.1352716 21.2581698,21.2250513 21.8466624,22.314694 C21.8574772,22.3347175 21.8676817,22.3550691 21.8828412,22.3842587 C21.8371495,22.3850691 21.8104671,22.3603392 21.7815705,22.3444325 C21.0285159,21.9299111 20.2804329,21.5060621 19.5216909,21.1022386 C18.4834124,20.5496373 17.4207509,20.047421 16.3250965,19.6172171 C15.379629,19.2459822 14.4147,18.9391568 13.4183711,18.7356938 C13.3933501,18.7305831 13.3689522,18.7224072 13.3373556,18.713777 C13.3437884,18.6771607 13.3488249,18.6455382 13.3549406,18.6141271 C13.4522856,18.1140118 13.4924233,17.6091642 13.4706901,17.1003147 C13.4386337,16.3498098 13.2928842,15.6240237 12.9807034,14.9368102 C12.8036113,14.5469723 12.5784059,14.1884157 12.2745586,13.8833872 C12.0388167,13.6467292 11.7705214,13.4587632 11.4494804,13.3566747 C10.9710686,13.2045424 10.5193745,13.2748786 10.0941312,13.5332846 C9.76083286,13.7358185 9.50455013,14.0167088 9.29073046,14.3386082 C8.99005975,14.791261 8.79742996,15.2899781 8.67114578,15.8156948 C8.52463228,16.425622 8.48080431,17.0449545 8.5159446,17.6699891 C8.52554189,17.8407281 8.54620696,18.0112315 8.57010136,18.1806706 C8.59395221,18.3497963 8.6282246,18.5174551 8.65907943,18.6922718 C8.64864486,18.6976477 8.635592,18.7084845 8.62098893,18.7113087 C7.12143863,19.0012742 5.70060799,19.5262232 4.31376789,20.1529009 C3.17838179,20.6659466 2.07623889,21.2440826 0.988911486,21.8511578 C0.698445319,22.0133314 0.40969775,22.1785832 0.120153153,22.3424074 C0.0916928056,22.3585107 0.0631726667,22.3745083 0.0199427083,22.3816736 C0.0348165417,22.3520112 0.0486483472,22.3217701 0.0647159722,22.2927678 C0.54998475,21.4169097 1.03691729,20.5419693 1.52065949,19.6652711 C3.03551296,16.9198645 4.54084993,14.1692767 5.99405683,11.3905694 C6.65491419,10.1269317 7.30163476,8.85603858 7.92035533,7.57108669 C7.93860774,7.53317975 7.95835678,7.4959905 7.98236435,7.44870501 Z"></path>
                </g>
            </g>
        </g>
    </g>
</svg>