<?xml version="1.0" encoding="UTF-8"?>
<svg width="43px" height="43px" viewBox="0 0 43 43" version="1.1" xmlns="http://www.w3.org/2000/svg" xmlns:xlink="http://www.w3.org/1999/xlink">
    <!-- Generator: Sketch 44 (41411) - http://www.bohemiancoding.com/sketch -->
    <title>centos_active</title>
    <desc>Created with Sketch.</desc>
    <defs></defs>
    <g id="V3.1-assets" stroke="none" stroke-width="1" fill="none" fill-rule="evenodd">
        <g id="Host-icons" transform="translate(-760.000000, -106.000000)">
            <g id="centos_active" transform="translate(760.000000, 106.000000)">
                <circle id="Oval-3" fill="#175277" cx="21.5" cy="21.5" r="21.5"></circle>
                <g transform="translate(9.000000, 9.000000)" id="Group" fill-rule="nonzero" fill="#FFFFFF">
                    <g transform="translate(0.833333, 0.833333)">
                        <path d="M2.88555128,8.9814936 C2.88555128,9.58894057 2.88555128,10.201754 2.88555128,10.8241575 C2.92738853,10.8261991 2.96113339,10.829257 2.99488107,10.8292774 C3.49801715,10.8295852 4.00115411,10.8294925 4.50429107,10.8294925 C6.13363411,10.8294925 7.76297803,10.8302046 9.39231738,10.827514 C9.4796274,10.8273711 9.53972746,10.8546266 9.59904031,10.9152533 C9.82813436,11.1494265 10.0614304,11.3794903 10.2930222,11.6112231 C10.3135427,11.6317565 10.333071,11.6532801 10.3555088,11.6769252 C10.3403215,11.6949923 10.3285333,11.7113107 10.3144883,11.7253797 C10.0933699,11.9468542 9.87062524,12.166732 9.65162363,12.3902778 C9.60203504,12.4408946 9.54991907,12.4579937 9.48089392,12.4579492 C7.32501175,12.4565993 5.16912968,12.4568384 3.01324849,12.4568347 C2.97560025,12.4568347 2.93795376,12.4568347 2.88733696,12.4568347 C2.88483358,12.5885893 2.8864394,12.7133456 2.88616222,12.838009 C2.88587668,12.9667188 2.88609922,13.0954267 2.88609922,13.2241383 C2.88609922,13.3499219 2.88609922,13.4757053 2.88609922,13.6014908 C2.88609922,13.7302006 2.88609922,13.8589084 2.88609922,13.9876182 C2.88609922,14.1123411 2.88609922,14.2370638 2.88609922,14.367296 C2.82162942,14.3308874 0.25437825,11.7725474 0.184228528,11.6811624 C1.08379804,10.782143 1.98241536,9.8840769 2.88555128,8.9814936 Z" id="Shape"></path>
                        <path d="M20.4792924,10.8290418 C20.4792924,10.2104232 20.4792924,9.60709108 20.4792924,9.00841346 C21.3699577,9.89938289 22.2577728,10.7875003 23.1491038,11.6791355 C23.1265455,11.7192918 20.5688472,14.2823122 20.4809519,14.3422231 C20.4795556,14.3054993 20.477412,14.2752508 20.4774045,14.2450042 C20.4772154,13.6863113 20.4772802,13.1276184 20.4772933,12.5689274 C20.4772933,12.5347829 20.4772914,12.5006403 20.4772914,12.4571999 C20.4241935,12.4571999 20.3839148,12.4571999 20.3436342,12.4571999 C18.1849177,12.4572017 16.026203,12.4567734 13.8674883,12.4588281 C13.7842996,12.4589078 13.7252863,12.43433 13.6677638,12.3751572 C13.4618734,12.1633681 13.2514751,11.9559534 13.0420003,11.747671 C13.0193048,11.7251052 12.991517,11.7076592 12.9580939,11.6816036 C12.9902691,11.6463929 13.0101219,11.6229259 13.031768,11.6012484 C13.2611698,11.3715275 13.4924779,11.1436797 13.7193356,10.9114758 C13.7768655,10.8525904 13.8355877,10.8273228 13.9189433,10.8274044 C16.0630308,10.8294831 18.2071237,10.8290455 20.351213,10.8290418 C20.3888159,10.8290418 20.4264207,10.8290418 20.4792924,10.8290418 Z" id="Shape"></path>
                        <path d="M12.4852528,20.4320449 C13.1178607,20.4320449 13.7362513,20.4320449 14.3592053,20.4320449 C14.3549866,20.4498375 14.3557561,20.4603944 14.3508606,20.4652825 C13.4528019,21.3619041 12.5543408,22.2581269 11.6555163,23.1547411 C11.5945151,23.1205484 8.99284974,20.5253826 8.93436386,20.4358111 C9.02043431,20.4269955 9.10102783,20.4324714 9.18110958,20.4314589 C9.2600759,20.4304594 9.33906458,20.4312401 9.41804383,20.4312401 C9.4999484,20.4312401 9.58185307,20.4312401 9.66375667,20.4312401 C9.74273689,20.4312401 9.82171624,20.4312401 9.90069558,20.4312401 C9.98259928,20.4312401 10.0645029,20.4312401 10.1464084,20.4312401 C10.2253878,20.4312401 10.3043671,20.4312401 10.3833465,20.4312401 C10.4652502,20.4312401 10.5471538,20.4312401 10.6290593,20.4312401 C10.7075843,20.4312401 10.7861075,20.4312401 10.874086,20.4312401 C10.8755843,20.3885637 10.8778263,20.3544618 10.8778318,20.3203564 C10.878008,19.3813812 10.8779524,18.4424058 10.8779468,17.5034306 C10.8779394,16.292416 10.8782992,15.0813996 10.876927,13.870385 C10.8768565,13.8080987 10.8898445,13.7595495 10.9360293,13.7141101 C11.1610196,13.4927506 11.3831005,13.2684334 11.6063551,13.0453067 C11.6186607,13.0330086 11.6322513,13.0219955 11.6500977,13.0060535 C11.67011,13.0239314 11.6900148,13.0400459 11.7080281,13.0580537 C11.9438183,13.2937956 12.1779636,13.5312083 12.416042,13.7646119 C12.4660562,13.8136432 12.4869048,13.8624149 12.4867194,13.9326694 C12.4844682,14.7751083 12.4852637,15.6175582 12.4852618,16.4600044 C12.4852618,17.7412216 12.4852544,19.0224406 12.4852508,20.3036596 C12.4852509,20.3411124 12.4852528,20.378565 12.4852528,20.4320449 Z" id="Shape"></path>
                        <path d="M14.3271044,2.85488379 C13.7098692,2.85488379 13.1054661,2.85488379 12.4948473,2.85488379 C12.4909401,2.883391 12.4860464,2.90543565 12.4852788,2.92762322 C12.4838657,2.96851664 12.4848745,3.00949347 12.4848745,3.05043511 C12.4848763,5.18525622 12.4845574,7.32007646 12.4863079,9.45489669 C12.4863636,9.52451519 12.4688287,9.57557514 12.4187979,9.62459721 C12.1870447,9.85167556 11.9584532,10.0819842 11.728458,10.3108631 C11.7102667,10.3289654 11.6900003,10.3449834 11.6661012,10.3660194 C11.6417979,10.3432663 11.6203892,10.3243203 11.600197,10.3041577 C11.3829412,10.087219 11.167399,9.8685336 10.947649,9.65415675 C10.8953782,9.6031635 10.8740399,9.55222129 10.8741067,9.47860667 C10.876065,7.32039272 10.8756941,5.16217596 10.8756959,3.0039591 C10.8756959,2.96676324 10.8756959,2.92956747 10.8756959,2.8793521 C10.5532772,2.87876614 10.2415489,2.87912304 9.92982608,2.87906189 C9.61801244,2.87900074 9.30619978,2.87904886 8.99935954,2.87904886 C8.99325962,2.86591997 8.99139597,2.86336274 8.99097685,2.86058772 C8.99057162,2.85792296 8.99064396,2.85406217 8.99224521,2.85238032 C9.04849089,2.79328447 9.10385399,2.73329661 9.1615266,2.67561749 C9.99430969,1.84273979 10.8274062,1.01017506 11.6593697,0.178593042 C11.7379745,0.229865028 14.2884631,2.78419069 14.3271044,2.85488379 Z" id="Shape"></path>
                        <path d="M12.8767467,12.8404659 C12.9234878,12.8381369 12.9550547,12.8352904 12.9866309,12.8352052 C13.153331,12.8347434 13.3200868,12.8374359 13.4867072,12.8337995 C13.556563,12.8322753 13.6071093,12.8554585 13.6563335,12.9047995 C14.6435168,13.8942933 15.6320945,14.8823964 16.6203867,15.8707831 C17.0793832,16.3298259 17.5383408,16.788906 17.9974673,17.2478191 C18.0177428,17.2680854 18.0395446,17.2868257 18.0699693,17.3148897 C18.7398055,16.649287 19.402354,15.9829907 20.0654329,15.3216828 C20.074829,15.3252024 20.0775289,15.3257513 20.0796856,15.3271457 C20.0821019,15.3287071 20.0857883,15.3309454 20.0858959,15.3330445 C20.0873923,15.3621804 20.0893301,15.3913421 20.0893228,15.4204983 C20.0889667,16.9529582 20.0884493,18.4854179 20.0874981,20.0178796 C20.0874944,20.0257328 20.0810616,20.0335823 20.072817,20.0524468 C18.49955,20.0524468 16.9226707,20.0524468 15.3457915,20.0524468 C15.34301,20.0454244 15.3402265,20.0384 15.337445,20.0313775 C15.5465341,19.8133373 15.7633281,19.602761 15.9766007,19.3887857 C16.1933558,19.1713185 16.4105132,18.9542464 16.6277801,18.737291 C16.8427995,18.5225813 17.0581767,18.3082332 17.2792451,18.0878918 C17.2565921,18.0633752 17.2383525,18.0422206 17.2186592,18.0225198 C15.7962653,16.5997531 14.3740514,15.1768086 12.9501592,13.7555441 C12.8955573,13.7010442 12.8738334,13.6460474 12.8753261,13.5703002 C12.8794206,13.3627354 12.8767447,13.1550371 12.8767466,12.9473925 C12.8767467,12.9158404 12.8767467,12.8842902 12.8767467,12.8404659 Z" id="Shape"></path>
                        <path d="M18.0718385,6.02644058 C18.0436948,6.05255564 18.0240904,6.06965013 18.005708,6.08796942 C17.5502403,6.54178019 17.0943721,6.99519236 16.6396721,7.44976906 C16.0692318,8.02004894 15.5000766,8.59161674 14.9297698,9.16203196 C14.5185696,9.57330918 14.1058673,9.98308529 13.6954552,10.3951459 C13.6526045,10.4381691 13.6080682,10.4567369 13.548148,10.4560304 C13.3522175,10.4537179 13.1562387,10.455667 12.9602822,10.4548973 C12.8783785,10.4545765 12.8745827,10.4508512 12.8742786,10.3714434 C12.8735275,10.1754869 12.8760198,9.97949147 12.8727895,9.78358694 C12.8718085,9.7241971 12.8979107,9.68567454 12.9367874,9.64695161 C13.2662138,9.31883254 13.5946092,8.98967786 13.923381,8.66089953 C15.0337536,7.55051403 16.1441613,6.44016372 17.2544522,5.32969656 C17.2725935,5.31155158 17.2894367,5.29210947 17.3127684,5.26692435 C16.6400691,4.59420461 15.9712101,3.92532992 15.3053089,3.25941107 C15.3098112,3.24749026 15.3104566,3.24475326 15.3118251,3.24244365 C15.3132845,3.23997829 15.315226,3.23619168 15.317301,3.23595154 C15.3346283,3.23394419 15.3520333,3.2312841 15.3694161,3.23128128 C16.9368103,3.23107731 18.5042027,3.23109218 20.0763367,3.23109218 C20.0818553,3.25490599 20.0877559,3.27363225 20.0901721,3.29279903 C20.0923509,3.31007804 20.0907525,3.32783821 20.0907525,3.34538701 C20.090747,4.87503557 20.0907525,6.40468413 20.0905504,7.93433268 C20.0905448,7.96236982 20.0880062,7.99040599 20.0856326,8.03953646 C19.4072291,7.36136858 18.7427836,6.69715394 18.0718385,6.02644058 Z" id="Shape"></path>
                        <path d="M7.95768565,20.0559534 C7.92938057,20.0559534 7.90107646,20.0559534 7.87277137,20.0559534 C6.37802015,20.0559589 4.88326796,20.0559644 3.38851674,20.0559701 C3.38266619,20.0559701 3.37681565,20.0560183 3.37096608,20.0559627 C3.27473096,20.0550336 3.27359511,20.0544792 3.27358033,19.9570563 C3.27342546,18.988834 3.27348117,18.0206079 3.27347835,17.0523836 C3.2734765,16.5170799 3.2734765,15.981778 3.27347553,15.4464761 C3.27347553,15.4152764 3.27347553,15.3840767 3.27347553,15.3528788 C3.28001129,15.3498339 3.28654793,15.3467891 3.2930836,15.3437461 C3.42389435,15.4705755 3.5513904,15.6009078 3.68052203,15.7294952 C3.81315929,15.8615724 3.94546649,15.9939834 4.07785165,16.1263147 C4.20816822,16.2565784 4.33840876,16.3869181 4.46867244,16.5172375 C4.60100287,16.6496226 4.73342781,16.7819187 4.86560987,16.9144503 C4.99555651,17.0447436 5.12525368,17.1752856 5.26256306,17.3132559 C5.28996504,17.2888153 5.31395035,17.269441 5.33564461,17.2477708 C5.7743034,16.8095858 6.21270815,16.3711487 6.65114537,15.9327448 C7.66452342,14.9194428 8.67798954,13.9062298 9.69086135,12.8924234 C9.72759268,12.8556588 9.76470969,12.8298775 9.81987524,12.8303393 C10.0246214,12.8320564 10.2293881,12.8309512 10.4341491,12.8313573 C10.4481941,12.8313851 10.4622334,12.8351384 10.4820066,12.8379848 C10.4850589,12.8621379 10.4902734,12.8844831 10.4903382,12.9068467 C10.4909706,13.1233051 10.4890031,13.3397913 10.4919849,13.5562108 C10.4927192,13.6095164 10.4689518,13.642615 10.4345625,13.6768763 C10.0802654,14.0298995 9.72670631,14.3836663 9.37312114,14.7374034 C8.27309136,15.8378996 7.17312828,16.9384625 6.07327739,18.0391386 C6.05929265,18.0531317 6.04713268,18.0689476 6.03009662,18.0885445 C6.67832385,18.7380958 7.32391985,19.385012 7.96951663,20.0319283 C7.96557232,20.0399373 7.96162899,20.0479444 7.95768565,20.0559534 Z" id="Shape"></path>
                        <path d="M8.00730389,3.28406585 C7.34690269,3.94426774 6.68650063,4.6044705 6.02130861,5.26946117 C6.053747,5.30312903 6.07726788,5.32835304 6.10164353,5.35272228 C7.53505783,6.78577599 8.96823492,8.21906886 10.4031216,9.65064557 C10.4615063,9.70889588 10.4896018,9.76631542 10.4866108,9.84999186 C10.4804487,10.0223627 10.4852423,10.1951081 10.4844986,10.367694 C10.4841537,10.4475319 10.479375,10.4527538 10.4000563,10.4530653 C10.1865149,10.4539016 9.97295299,10.4518006 9.75943753,10.4542576 C9.69463765,10.4550031 9.65053425,10.4268908 9.60700582,10.3831834 C9.14259733,9.91687511 8.67682025,9.45193064 8.21162825,8.98640303 C7.28124707,8.05535519 6.35103457,7.12414131 5.42059311,6.19315375 C5.36906951,6.14159953 5.31609954,6.09148993 5.2566606,6.03377094 C4.60205249,6.68873324 3.95050026,7.34063964 3.29894814,7.99254594 C3.2925376,7.99028456 3.28612706,7.98802219 3.27971651,7.98575993 C3.27834801,7.95547258 3.27582325,7.92518426 3.27579078,7.89489507 C3.27548851,7.61114638 3.27561364,7.32739583 3.27561364,7.04364714 C3.27561461,5.82965075 3.27561461,4.61565524 3.27561267,3.40165885 C3.27561267,3.38703342 3.27549863,3.37240526 3.2756219,3.35778081 C3.2764341,3.26144 3.2771341,3.25999081 3.37392193,3.25997962 C4.89212724,3.259809 6.41033342,3.25983039 7.9285396,3.26002785 C7.95107017,3.26003067 7.97360074,3.26281492 7.99613131,3.26430125 C7.99985492,3.27088961 8.00358028,3.27747729 8.00730389,3.28406585 Z" id="Shape"></path>
                        <path d="M14.1649419,12.8402657 C16.1347485,12.8402657 18.1045569,12.8402657 20.0806573,12.8402657 C20.0838135,12.8653386 20.0890484,12.8876132 20.089065,12.9098952 C20.0895267,13.5007781 20.0889315,14.0916609 20.0904317,14.6825401 C20.0905559,14.7308667 20.0744489,14.7649907 20.0413632,14.7980115 C19.3996429,15.4385394 18.7586161,16.0797664 18.117276,16.7206764 C18.1031143,16.7348289 18.0869405,16.7469695 18.0553606,16.7740821 C16.7536897,15.4692477 15.453443,14.1658412 14.1531981,12.8624364 C14.1571127,12.8550468 14.1610273,12.8476572 14.1649419,12.8402657 Z" id="Shape"></path>
                        <path d="M9.18529315,12.8309994 C9.1743014,12.8552898 9.17222639,12.8673784 9.16514453,12.8744639 C7.86921382,14.1710909 6.5729299,15.4673637 5.27170408,16.7686006 C5.24707157,16.7471808 5.22684876,16.7316283 5.20895326,16.7137447 C4.58418742,16.0893888 3.95991769,15.4645357 3.33444251,14.8408918 C3.29217963,14.798755 3.27209497,14.7555446 3.27229807,14.6945508 C3.27423678,14.1066293 3.2734765,13.5186987 3.27353211,12.9307718 C3.27353396,12.9132295 3.27369156,12.895676 3.27433974,12.8781468 C3.27535872,12.8505018 3.29006844,12.8344319 3.31749824,12.8326147 C3.34372082,12.830879 3.37009361,12.8310422 3.39640156,12.8310422 C5.29181285,12.8309847 7.18722599,12.830994 9.08263728,12.8309995 C9.11351243,12.8310013 9.14438671,12.8309994 9.18529315,12.8309994 Z" id="Shape"></path>
                        <path d="M12.8785306,9.13874014 C12.8769285,9.10727708 12.8742285,9.07899893 12.8742266,9.05071981 C12.874017,7.14670794 12.8740226,5.24269618 12.8740467,3.33868432 C12.8740485,3.31821953 12.8741301,3.29773986 12.874896,3.27729364 C12.8759382,3.24936131 12.8915724,3.23445131 12.9187833,3.23250424 C12.9391665,3.23104483 12.9596869,3.23113661 12.9801462,3.23113476 C13.5299974,3.23107079 14.0798561,3.23211292 14.6297,3.2298525 C14.7029771,3.22955121 14.7562624,3.25328704 14.807365,3.30458625 C15.4409706,3.94064144 16.0761302,4.57515197 16.7107464,5.21020121 C16.7289359,5.22840179 16.7455696,5.24815735 16.7619622,5.266128 C16.7112599,5.34327335 12.9382504,9.10733921 12.8785306,9.13874014 Z" id="Shape"></path>
                        <path d="M6.57805439,18.0956022 C7.88313079,16.7904563 9.18148418,15.4920287 10.4813313,14.192112 C10.4776374,14.1902076 10.480354,14.1911625 10.4825052,14.1928426 C10.4846377,14.194506 10.4877901,14.1968981 10.487792,14.1989713 C10.488912,16.1289127 10.4898132,18.0588542 10.4904883,19.9887938 C10.4904938,20.0032208 10.4880127,20.017772 10.4853072,20.0320005 C10.4843114,20.0372317 10.4792917,20.0416951 10.4698492,20.0559701 C10.4475281,20.0559701 10.4189802,20.0559701 10.3904304,20.0559701 C9.80557239,20.0559701 9.22071344,20.0551783 8.63586004,20.0570234 C8.56680524,20.0572422 8.51375369,20.0390305 8.46411699,19.9891925 C7.85123393,19.3738431 7.23679046,18.7600515 6.62290417,18.1457017 C6.60667476,18.1294611 6.59219118,18.1114719 6.57805439,18.0956022 Z" id="Shape"></path>
                        <path d="M6.57624644,5.26787849 C6.58999561,5.25177236 6.60357056,5.2334939 6.61949031,5.21756025 C7.24971353,4.58681874 7.88050511,3.95664374 8.50984283,3.32502042 C8.55699104,3.27770071 8.60698008,3.25868599 8.67309294,3.25888442 C9.24324304,3.26059319 9.8134015,3.25979306 10.3835562,3.2600786 C10.4120652,3.2600925 10.4405743,3.26321897 10.4600822,3.26436678 C10.4708672,3.2735431 10.4734949,3.27513696 10.4752102,3.27741692 C10.4769236,3.2796959 10.4783125,3.28255356 10.4788262,3.28534529 C10.4809216,3.29671446 10.4842428,3.30815674 10.4842447,3.31957315 C10.4845747,5.25225254 10.4846656,7.18493203 10.4845117,9.11761044 C10.4845117,9.12898331 10.4811905,9.14040244 10.4788596,9.15168625 C10.4783923,9.15394676 10.4753753,9.15567965 10.4736099,9.15757111 C10.4192082,9.12861717 6.64652139,5.36449288 6.57624644,5.26787849 Z" id="Shape"></path>
                        <path d="M14.1973079,10.4268371 C15.482716,9.13879954 16.7681222,7.85076289 18.057838,6.55841015 C18.0972599,6.59619382 18.1205156,6.61767663 18.1428885,6.64004406 C18.7714316,7.26846488 19.3994518,7.89740486 20.0292541,8.52456276 C20.0744765,8.5695961 20.0925492,8.61462097 20.0922877,8.67823503 C20.0900013,9.23380053 20.0910638,9.78938178 20.0907096,10.3449556 C20.0906892,10.3790036 20.0870695,10.4130479 20.0849314,10.4505173 C18.1216169,10.4505173 16.1671366,10.4505173 14.2126583,10.4505173 C14.2075422,10.4426233 14.2024242,10.4347293 14.1973079,10.4268371 Z" id="Shape"></path>
                        <path d="M3.28030519,10.4320942 C3.27895983,10.411303 3.27585378,10.3855736 3.275839,10.3598443 C3.27554782,9.78659101 3.27624976,9.21333758 3.27457706,8.64009076 C3.27440925,8.58267861 3.29251621,8.54074492 3.33258353,8.50078425 C3.95789819,7.87713665 4.58222732,7.2525006 5.20689857,6.62820667 C5.22121707,6.61389653 5.23686236,6.60091406 5.24448011,6.59401769 C6.529509,7.87926446 7.81217724,9.16214872 9.09598958,10.4461762 C9.100644,10.4398566 9.09913647,10.4424323 9.09711143,10.4445036 C9.09518935,10.4464693 9.09282043,10.4492174 9.0904941,10.4493787 C9.06726907,10.450979 9.04401157,10.4532284 9.02076437,10.4532246 C7.12260772,10.4530503 5.2244501,10.452698 3.32629432,10.4521194 C3.31775772,10.4521157 3.30893656,10.4495233 3.30079031,10.4466175 C3.29554624,10.4447447 3.29129792,10.4400828 3.28030519,10.4320942 Z" id="Shape"></path>
                        <path d="M12.889705,20.04744 C12.8695647,19.9473079 12.8729786,14.324525 12.894977,14.2466638 C14.1751335,15.5259654 15.4493523,16.8008407 16.7288672,18.0802684 C16.7096466,18.1028008 16.6945892,18.1231043 16.6769134,18.1407912 C16.0607777,18.7573033 15.4440099,19.3731866 14.8288311,19.9906555 C14.7835419,20.0361134 14.7356566,20.0534073 14.6731237,20.0532553 C14.1086118,20.0518831 13.5440962,20.0525228 12.9795806,20.0522465 C12.9509139,20.0522317 12.9222491,20.0492536 12.889705,20.04744 Z" id="Shape"></path>
                    </g>
                </g>
            </g>
        </g>
    </g>
</svg>