<?xml version="1.0" encoding="UTF-8"?>
<svg width="43px" height="43px" viewBox="0 0 43 43" version="1.1" xmlns="http://www.w3.org/2000/svg" xmlns:xlink="http://www.w3.org/1999/xlink">
    <!-- Generator: Sketch 44 (41411) - http://www.bohemiancoding.com/sketch -->
    <title>debian_active</title>
    <desc>Created with Sketch.</desc>
    <defs></defs>
    <g id="V3.1-assets" stroke="none" stroke-width="1" fill="none" fill-rule="evenodd">
        <g id="Host-icons" transform="translate(-603.000000, -106.000000)">
            <g id="debian_active" transform="translate(603.000000, 106.000000)">
                <circle id="Oval-3" fill="#F15F5E" cx="21.5" cy="21.5" r="21.5"></circle>
                <g transform="translate(11.000000, 8.000000)" id="Group" fill-rule="nonzero" fill="#FFFFFF">
                    <g transform="translate(0.777778, 0.861111)">
                        <path d="M1.82655774,6.45775142 C1.95967071,6.49027604 2.04399796,6.42683261 2.10606268,6.33623939 C2.17046482,6.24223415 2.22950787,6.14268336 2.27656703,6.03905118 C2.38468494,5.80095882 2.48248612,5.55820465 2.58788649,5.31884393 C2.62665754,5.23079579 2.67387624,5.14634983 2.71968929,5.06158392 C2.73455856,5.03407528 2.75574376,4.99046985 2.77655253,4.98896417 C2.88316282,4.9812491 2.88703664,4.89549482 2.914765,4.82594768 C3.00845319,4.59095583 3.16163031,4.39394054 3.33745864,4.21925263 C3.65992462,3.89887458 3.99437918,3.59054072 4.32459086,3.27798537 C4.49444994,3.11720811 4.66594081,2.95815071 4.84687603,2.78878444 C4.86245268,2.83813658 4.87622324,2.881767 4.89114344,2.92903625 C4.9081619,2.92202215 4.92259075,2.91986178 4.93176153,2.91175539 C5.4111051,2.48791249 5.9595304,2.17148983 6.53541321,1.90375733 C7.13377836,1.62557354 7.74101028,1.36646154 8.35722281,1.09331007 C8.38007226,1.19743507 8.44440771,1.19814761 8.51655554,1.18438406 C8.71468539,1.14658697 8.91278364,1.10853439 9.11137704,1.07330096 C9.22377021,1.05336097 9.33710906,1.03877171 9.45002333,1.02177231 C9.45412329,1.03092179 9.45822519,1.04007031 9.46232525,1.04921921 C9.3422105,1.11887154 9.2220976,1.18852387 9.09052842,1.26481804 C9.28626426,1.26481804 9.46258299,1.25717618 9.63792638,1.26697978 C9.81128001,1.27667167 9.98364899,1.30398508 10.1504845,1.32289267 C10.0722598,1.35415865 9.98332446,1.38970553 9.89439267,1.42525182 C9.89637503,1.43568444 9.89835544,1.44611765 9.90033781,1.45655076 C9.93894018,1.46167758 9.97739789,1.46918129 10.0161708,1.47153776 C10.2331373,1.48472226 10.4482179,1.46390144 10.658529,1.4135976 C10.92935,1.34882135 11.1947859,1.3551336 11.4590981,1.44088272 C11.4671015,1.44347885 11.4770094,1.44019799 11.4977375,1.43895422 C11.4923209,1.38227269 11.486934,1.32584113 11.4802768,1.25612803 C11.5143619,1.264984 11.5433902,1.27112844 11.571532,1.28005354 C11.8554578,1.37008958 12.1377425,1.46567701 12.4234114,1.54976792 C12.8699707,1.68122024 13.2933338,1.86673949 13.7030709,2.08461925 C13.7854587,2.12842778 13.8641135,2.14401833 13.9531453,2.11929735 C14.0413909,2.09479326 14.1311219,2.07554122 14.2190485,2.05001543 C14.4072778,1.99537508 14.5828715,2.04751342 14.7548585,2.11510969 C14.7875677,2.12796646 14.8190215,2.16889371 14.8314995,2.20385083 C14.875511,2.3270869 14.9600219,2.41583319 15.0625925,2.48786514 C15.1998361,2.58424726 15.3416747,2.67408808 15.4909753,2.75607383 C15.4687562,2.61623833 15.3446936,2.55471183 15.2636096,2.43681492 C15.2987924,2.450063 15.319567,2.45448146 15.3367606,2.4648469 C16.6477942,3.25518035 17.6660919,4.31905921 18.341825,5.69845588 C18.4561392,5.93180943 18.5400679,6.1800479 18.6258342,6.4285516 C18.5494843,6.39554106 18.5417684,6.29533207 18.4391978,6.26411751 C18.4440543,6.33951694 18.4483917,6.40082139 18.4518798,6.46217318 C18.4603672,6.61149232 18.5225034,6.75713063 18.4743399,6.91138146 C18.4641538,6.94401186 18.4936049,6.98917217 18.5052152,7.02843283 C18.615728,7.40212579 18.726456,7.77575371 18.8365923,8.14955789 C18.842784,8.17058268 18.8442416,8.19300388 18.8391051,8.21759828 C18.6233346,7.54272186 18.4140509,6.86599025 18.0121447,6.24871975 C17.9585387,6.39493283 17.8546738,6.39431907 17.7351078,6.37749904 C17.6044659,6.35912229 17.5671653,6.39051204 17.5837841,6.51800625 C17.6020125,6.65787374 17.6405574,6.7958766 17.6805227,6.93166911 C17.6933512,6.97525413 17.7388092,7.00923446 17.7768496,7.05704844 C17.8133343,7.01233692 17.8399296,6.97974268 17.8758783,6.93568575 C17.9636381,7.06021021 18.0336701,7.17388661 18.0531094,7.3237639 C18.0807468,7.53692333 18.1341267,7.74674036 18.1763692,7.95801388 C18.1931271,8.04179882 18.2095067,8.12565979 18.2319575,8.23935933 C18.0903748,8.13784757 18.0732312,7.97266157 17.9455246,7.89285049 C17.9167838,8.0745701 18.0729344,8.48633314 18.2629143,8.74035167 C18.1556726,8.77388886 18.1379059,8.86301335 18.1432428,8.95466921 C18.1512203,9.09171521 18.1620869,9.22971535 18.1874565,9.36434518 C18.2203158,9.53870663 18.2539782,9.55373533 18.4365165,9.50199483 C18.4311777,9.54059167 18.4320197,9.57492151 18.421281,9.60513565 C18.3751888,9.73481892 18.3255011,9.86322361 18.2774601,9.99221893 C18.182179,10.2480547 18.122283,10.5104162 18.1155553,10.7936587 C18.074062,10.696119 18.0325668,10.5985793 17.9786437,10.4718296 C17.9305136,10.6003223 17.9590579,10.7083781 17.9451408,10.8085418 C17.9092606,10.8260637 17.868179,10.8359401 17.8434083,10.8615749 C17.8249221,10.8807045 17.8207349,10.9204269 17.8217549,10.9505882 C17.8324008,11.2657915 17.7474152,11.5590578 17.6185942,11.8418691 C17.5558313,11.9796559 17.4874274,12.1148764 17.4213359,12.2511427 C17.3076428,12.4855643 17.1844888,12.7167964 17.1622976,12.9975252 C17.0983795,12.9124599 17.0344632,12.8273945 16.9631609,12.7324991 C16.8500945,12.8891319 16.748262,13.0367784 16.6912365,13.2074822 C16.6689897,13.2740706 16.6664196,13.3531408 16.6766408,13.4233583 C16.6942109,13.5440553 16.671966,13.6504348 16.6077993,13.7527606 C16.5578649,13.6835797 16.5578649,13.6835797 16.6095165,13.4963017 C16.5293967,13.5624265 16.4643993,13.6102692 16.4061091,13.6652233 C16.2022104,13.85746 16.0077689,14.0603333 15.7968903,14.244457 C14.9965196,14.9432807 14.074905,15.3915775 13.0207494,15.5504893 C12.3654273,15.6492752 11.7108507,15.6280056 11.0643907,15.4809988 C10.7522432,15.4100173 10.4460539,15.3128726 10.1371276,15.2277145 C10.0782625,15.2114888 10.0338338,15.1868814 10.0055899,15.1227982 C9.98524382,15.0766299 9.93298221,15.0420146 9.8899256,15.0087602 C9.52617118,14.7277977 9.16765899,14.4407176 8.83893733,14.1184917 C8.42197738,13.7097652 8.06871129,13.2565487 7.84223193,12.711923 C7.64898935,12.2472262 7.55935853,11.761026 7.55524088,11.2619695 C7.55259565,10.9414367 7.58726947,10.6205312 7.60780106,10.2999584 C7.6100291,10.2651667 7.62614815,10.229906 7.64149769,10.1975528 C7.70210399,10.0698064 7.77136733,9.94579201 7.82554082,9.8154559 C7.91350457,9.60382072 7.98569139,9.38552096 8.07655528,9.17522744 C8.16301325,8.9751339 8.28566113,8.79809379 8.46589256,8.66688433 C8.49073361,8.64879779 8.51256515,8.62203738 8.52682153,8.59462985 C8.80356721,8.06270286 9.24348794,7.70716985 9.76941787,7.44569204 C10.2178798,7.22273135 10.6963676,7.12050199 11.1942465,7.1344069 C12.1347943,7.16067771 12.8904877,7.57606422 13.5076784,8.27057651 C12.925246,7.82475244 12.2705136,7.59262836 11.5360026,7.58406124 C10.7983318,7.57545697 10.12709,7.79084163 9.53928539,8.22334304 C8.53925508,8.95915485 8.12888932,9.98152381 8.14982506,11.2174073 C8.18335019,11.2068373 8.19967604,11.203748 8.21398239,11.1966105 C8.22879137,11.1892227 8.24164026,11.177913 8.25898412,11.1657724 C8.28384375,11.3701459 8.29726567,11.5672985 8.33316069,11.7602731 C8.47489183,12.5222268 8.82716771,13.1779049 9.36247142,13.7344171 C9.95128847,14.3465658 10.6563688,14.7573785 11.4961688,14.9129246 C12.052655,15.0159941 12.6018331,14.9808612 13.1326252,14.7652855 C13.1862369,14.7435078 13.2412318,14.6893529 13.30655,14.7512071 C13.3157013,14.7598726 13.3490669,14.7439362 13.3708854,14.7381042 C13.6815196,14.6550656 13.9657477,14.5257384 14.1931877,14.2882683 C14.2778914,14.1998298 14.3755739,14.1238248 14.4856992,14.0572216 C14.4408235,14.1187421 14.395946,14.1802625 14.3507068,14.24228 C14.4209817,14.2931601 14.4715577,14.2612427 14.515764,14.2324389 C14.6309981,14.1573518 14.7498462,14.0852726 14.8543992,13.9968045 C15.2050062,13.7001225 15.5504061,13.3972747 15.8968964,13.0957528 C16.0032499,13.0032051 16.0269227,12.8816235 16.0169666,12.7464717 C16.0116538,12.6742979 16.0076948,12.5981557 16.0245435,12.529025 C16.0591738,12.3868989 16.1235426,12.2633573 16.2831479,12.2193921 C16.4084512,12.1848749 16.4728497,12.0963808 16.5110959,11.9716691 C16.5903126,11.713367 16.6902407,11.461353 16.767273,11.2024741 C16.8082248,11.0648541 16.8191081,10.9182905 16.8028397,10.7428693 C16.7553382,10.8234526 16.7223064,10.8794916 16.6755133,10.9588715 C16.7060583,10.763946 16.7454099,10.5977623 16.7555273,10.4298188 C16.7742861,10.1183983 16.7803518,9.80599219 16.7834578,9.49391431 C16.7863377,9.20457835 16.7786717,8.91513311 16.7749741,8.62574339 C16.7746273,8.59862694 16.7782044,8.55383569 16.7650514,8.54731296 C16.6659689,8.49818521 16.6957333,8.40486325 16.6887294,8.32928026 C16.6196765,7.58393426 16.365797,6.89987229 15.9997265,6.25433015 C15.5715624,5.49928769 15.0198977,4.8471115 14.3535365,4.28993551 C13.7193542,3.75966451 12.9915467,3.4324606 12.1874173,3.26241232 C11.5828975,3.13457501 10.9720839,3.07153583 10.3548579,3.10095907 C10.0809438,3.1140166 9.80846504,3.15720203 9.52338217,3.188003 C9.51751869,3.16543724 9.51379324,3.11855979 9.448768,3.13110088 C9.20598875,3.17792835 8.96057264,3.21225275 8.71939736,3.26588004 C8.52589976,3.30890603 8.34773217,3.39720996 8.1817015,3.50633675 C7.89970611,3.69168158 7.59991711,3.83698797 7.27190469,3.92140058 C7.21108237,3.93705326 7.21181212,3.93988953 7.16090414,4.0231905 C7.32393171,4.05050071 7.46306118,3.95355722 7.62996996,3.95201528 C7.57130247,4.03531897 7.49896078,4.07647946 7.41644983,4.09270886 C7.26831097,4.12184743 7.11926999,4.15309912 6.96917939,4.1642475 C6.65137064,4.18785636 6.37051936,4.2994735 6.12529789,4.49804367 C5.98279626,4.61343721 5.85012565,4.74100006 5.71373231,4.86386571 C5.69822701,4.8778309 5.68725753,4.89683075 5.66522483,4.92491242 C5.79203382,4.95323792 5.86002511,4.85382061 5.9537031,4.83407721 C5.90611175,4.98996731 5.84596162,5.03963561 5.69799981,5.05027503 C5.52934696,5.06240165 5.37866671,5.13058486 5.23211519,5.20750212 C4.91258182,5.37520637 4.63142556,5.59754592 4.36382926,5.83640964 C3.83451979,6.30888563 3.35343954,6.82653669 2.93074124,7.39716522 C2.86831494,7.48143696 2.81303624,7.57100186 2.749068,7.66612165 C2.81923726,7.68523457 2.87598733,7.70069358 2.94460172,7.71938281 C2.9019235,7.81943517 2.86538136,7.91771381 2.81908608,8.01116089 C2.70294432,8.24558622 2.58264319,8.47795317 2.46346489,8.71086533 C2.42373133,8.78851322 2.38168175,8.86497617 2.34181753,8.94255824 C2.21069246,9.19774878 2.12179965,9.4627016 2.0972701,9.75324933 C2.0412701,10.4165471 1.96099361,11.0778513 1.90883681,11.7414012 C1.87105226,12.2220549 1.85758028,12.705301 1.94990736,13.1835663 C1.98667574,13.3740357 2.04531085,13.5562625 2.15588207,13.7196545 C2.17887347,13.7536264 2.18964637,13.8039633 2.18710401,13.8455993 C2.17956044,13.9691892 2.16488037,14.0925157 2.14846178,14.2153378 C2.13713442,14.3000805 2.14667969,14.3769477 2.18810346,14.4540913 C2.25059187,14.5704602 2.30427857,14.6915578 2.36614301,14.8198485 C2.32850304,14.8319667 2.29603772,14.8424179 2.25748269,14.8548311 C2.3365649,15.10859 2.42110458,15.354837 2.54710235,15.5850325 C2.63847344,15.7519644 2.76099707,15.8675118 2.9677515,15.8690955 C3.06639822,15.8698502 3.1573781,15.9146183 3.22324061,15.989442 C3.29873007,16.0752065 3.37815907,16.1619908 3.43215357,16.2612365 C3.5394064,16.4583779 3.63062826,16.6642627 3.72761997,16.8669394 C3.73473149,16.8817948 3.73497717,16.8999361 3.7407405,16.9277904 C3.57103162,16.886642 3.46856951,16.7707608 3.36616768,16.6547942 C3.35770342,16.6598752 3.34923915,16.664958 3.34077304,16.670039 C3.36191742,16.7418845 3.37769629,16.8158515 3.40515019,16.8851974 C3.51399874,17.1601313 3.66893946,17.4095214 3.8384675,17.6504073 C3.86454269,17.6874594 3.89017096,17.7248231 3.91985008,17.767581 C3.87756775,17.8210165 3.83836269,17.8705614 3.79487412,17.9255212 C3.87492894,18.1104423 4.01318497,18.2482217 4.18350858,18.3843638 C4.14388537,18.3935707 4.11730122,18.3997476 4.08278121,18.4077696 C4.08278121,18.436199 4.07393865,18.4699558 4.08447142,18.4958205 C4.11379267,18.5678181 4.14293124,18.6422172 4.18669057,18.7056291 C4.45499794,19.0944137 4.72733304,19.4804169 5.00843554,19.8817778 C5.05027746,19.8271352 5.07860481,19.7901368 5.11589614,19.7414356 C5.18465976,20.1344371 5.4229385,20.4212372 5.64507767,20.7179952 C5.691868,20.780504 5.74207035,20.8059367 5.81816608,20.7994371 C5.88642999,20.7936088 5.95558211,20.7982076 6.03407282,20.7982076 C6.26358406,21.1259465 6.53464982,21.4188215 6.94372408,21.5640889 C6.88554329,21.6458571 6.83066057,21.7229896 6.77125225,21.8064843 C6.8112871,21.8228731 6.84362729,21.8379696 6.87718296,21.8495371 C7.05669679,21.9114266 7.2201954,21.9996759 7.36875699,22.1200966 C7.54927124,22.2664154 7.7630454,22.3513473 7.98154826,22.4238697 C7.98832971,22.4261209 7.99812446,22.4192932 8.01512347,22.4140397 C7.97906161,22.342157 7.94348372,22.2712386 7.90790399,22.2003202 C7.91263258,22.1965169 7.91736128,22.1927137 7.92208987,22.1889103 C7.95074729,22.2136142 7.98138328,22.2363896 8.00771893,22.2633613 C8.11363292,22.3718362 8.2229071,22.4775184 8.32245507,22.5916342 C8.69042446,23.0134452 9.15666422,23.2587779 9.70016056,23.365404 C9.99699828,23.4236404 10.2956385,23.4726699 10.5925616,23.5305039 C10.7298534,23.5572439 10.8649736,23.5951155 11.0010804,23.6279379 C11.0000105,23.6374489 10.9989442,23.64696 10.9978742,23.656471 C10.9508809,23.656471 10.9038059,23.658266 10.8569072,23.6561873 C10.4853124,23.6397113 10.1135824,23.6255235 9.74222696,23.6047361 C9.28534065,23.5791606 8.84822196,23.4588976 8.41503629,23.3197013 C7.39524868,22.9920125 6.46358786,22.4937349 5.6143324,21.8462772 C3.49652508,20.2317004 2.04388003,18.1466264 1.24703639,15.6069766 C1.01411956,14.8646383 0.864921847,14.1030092 0.817951653,13.3253526 C0.794721278,12.9407316 0.800037778,12.5543724 0.793052361,12.1687903 C0.790057528,12.003466 0.785366944,11.8380806 0.787111014,11.6727824 C0.792007514,11.2087976 0.802102681,10.7448629 0.80552675,10.2808725 C0.807120611,10.0651558 0.798365167,9.84935117 0.793323125,9.63361039 C0.792684278,9.60625381 0.792891069,9.57559935 0.781128833,9.55231958 C0.709445528,9.41042433 0.758912583,9.27725303 0.800866694,9.14058435 C1.05425289,8.31519646 1.33205372,7.49902193 1.70224658,6.71714118 C1.74141353,6.63441421 1.78134172,6.55204696 1.82655774,6.45775142 Z" id="Shape"></path>
                        <path d="M7.95587858,13.8351483 C8.02012312,13.8997061 8.08701386,13.9618627 8.14810782,14.0292726 C8.32698562,14.2266347 8.49899108,14.4304371 8.68268285,14.6231447 C8.79947639,14.745672 8.93116982,14.8541969 9.05860744,14.9662433 C9.09435965,14.9976786 9.13869571,15.0193488 9.18944415,15.0328893 C9.01859019,14.8437902 8.84464875,14.6613761 8.71415514,14.4400835 C9.0886111,14.7911726 9.490712,15.100416 9.96360147,15.3231348 C9.98308344,15.2960109 9.99976717,15.2727794 10.0156925,15.2506031 C10.0932736,15.320229 10.1672443,15.3881637 10.2428654,15.4542052 C10.5664153,15.7367699 10.9592962,15.8507504 11.3713903,15.9205654 C11.7985716,15.9929376 12.2287679,16.0111419 12.660891,16.0029642 C12.7140686,16.0019572 12.7672797,16.002825 12.821455,16.0121822 C12.6536218,16.090073 12.4762907,16.1238893 12.2946814,16.1376932 C11.6446647,16.1871028 11.0276427,16.04557 10.4274379,15.8107776 C9.68302465,15.5195697 9.01725689,15.1055192 8.45192542,14.5367201 C8.27008992,14.353772 8.10897879,14.1535968 7.97251972,13.9342457 C7.95637374,13.9082957 7.94362683,13.8802317 7.92930551,13.8531468 C7.93816197,13.8471479 7.94702028,13.841149 7.95587858,13.8351483 Z" id="Shape"></path>
                        <path d="M12.4456305,12.8895677 C12.3490402,12.9720036 12.2539019,13.0562512 12.1547508,13.1354845 C12.1326839,13.1531196 12.0949493,13.1636783 12.0670912,13.1595505 C11.8588884,13.1287013 11.6548859,13.0809384 11.4639213,12.9885149 C11.443794,12.978772 11.4245605,12.9671804 11.4049135,12.9564473 C11.4101837,12.9441714 11.4154538,12.9318936 11.4207276,12.9196177 C11.4813431,12.9163929 11.5420978,12.9088289 11.6025557,12.9106852 C11.881089,12.9192412 12.1595129,12.9298463 12.4342243,12.8634118 C12.4380276,12.8721311 12.4418272,12.8808486 12.4456305,12.8895677 Z" id="Shape"></path>
                        <path d="M7.42254139,13.4399586 C7.65786797,13.8376201 7.87779494,14.2092574 8.09772094,14.580893 C8.08973793,14.5870699 8.08175482,14.5932468 8.07377181,14.5994236 C8.02398946,14.5487939 7.96760563,14.5030855 7.92557267,14.4466831 C7.75041565,14.2116625 7.57819319,13.9744019 7.40892289,13.7351125 C7.38801399,13.7055558 7.38290515,13.6583751 7.38533901,13.6203124 C7.38872419,13.5673518 7.40614603,13.5152886 7.42254139,13.4399586 Z" id="Shape"></path>
                        <path d="M13.6027423,12.3462698 C13.5397773,12.3155245 13.4882352,12.2893667 13.4358623,12.2650003 C13.3406684,12.2207162 13.3259577,12.1898725 13.356998,12.0945525 C13.395439,11.9765072 13.5327679,11.7699511 13.6511655,11.6636792 C13.5787099,11.8697494 13.4213575,12.0127137 13.3743883,12.2356086 C13.5400333,12.1996636 13.6671149,12.1512387 13.7457401,12.0223119 C13.8098084,11.9172509 13.865827,11.8072758 13.9304146,11.6904377 C13.9007038,11.8673463 13.7560317,12.1529576 13.6027423,12.3462698 Z" id="Shape"></path>
                        <path d="M1.12814576,6.2625534 C1.16744163,6.11221615 1.20539222,5.96702206 1.24691428,5.80816406 C1.28828612,5.80243961 1.34456525,5.79465503 1.41987203,5.78423718 C1.40448437,6.00928397 1.32744656,6.17268799 1.12814576,6.2625534 Z" id="Shape"></path>
                        <path d="M14.2601747,10.5217407 C14.221259,10.4302417 14.1777574,10.3403503 14.14495,10.2467122 C14.1205651,10.1771206 14.1902132,10.0572209 14.2882795,9.9940399 C14.3511111,10.1730845 14.3449916,10.3451828 14.3003052,10.5178846 C14.2869314,10.5191707 14.2735521,10.5204566 14.2601747,10.5217407 Z" id="Shape"></path>
                        <path d="M0.795167333,7.50883438 C0.746245403,7.73197406 0.700811611,7.93919214 0.650191111,8.170071 C0.551114083,7.94784171 0.608414917,7.66008483 0.795167333,7.50883438 Z" id="Shape"></path>
                        <path d="M8.05268392,13.6086523 C8.02737551,13.568036 7.99963237,13.5287142 7.97721118,13.4865626 C7.90697892,13.3545447 7.83875672,13.2214623 7.78329446,13.0817062 C7.87790432,13.2544905 8.04496603,13.3879232 8.05268392,13.6086523 Z" id="Shape"></path>
                        <path d="M10.6426594,1.18508269 C10.5078154,1.29783704 10.4040377,1.157989 10.2841695,1.14873014 C10.4036668,1.16084792 10.5231621,1.17296531 10.6426594,1.18508269 Z" id="Shape"></path>
                        <path d="M18.2971273,11.6406221 C18.3149478,11.5128321 18.3327682,11.3850422 18.350585,11.2572503 C18.3608618,11.2591491 18.3711369,11.2610461 18.3814157,11.2629432 C18.3551653,11.3885321 18.3606431,11.5205593 18.2942253,11.6379945 L18.2971273,11.6406221 Z" id="Shape"></path>
                        <path d="M18.2942252,11.6379945 C18.2871712,11.7092708 18.2801154,11.780547 18.2730576,11.8518215 C18.2629235,11.8499393 18.2527876,11.8480572 18.2426534,11.8461768 C18.2609116,11.7777469 18.2791659,11.7093189 18.2972757,11.6407556 L18.2942252,11.6379945 Z" id="Shape"></path>
                        <path d="M10.1380565,0.928219444 C10.1892445,0.925887083 10.2241771,0.924295653 10.2642128,0.922470889 C10.2567397,0.933369889 10.2535427,0.942706236 10.2496133,0.943026097 C10.2172658,0.945658389 10.1802211,0.981903903 10.1380565,0.928219444 Z" id="Shape"></path>
                    </g>
                </g>
            </g>
        </g>
    </g>
</svg>