<?xml version="1.0" encoding="UTF-8"?>
<svg width="43px" height="43px" viewBox="0 0 43 43" version="1.1" xmlns="http://www.w3.org/2000/svg" xmlns:xlink="http://www.w3.org/1999/xlink">
    <!-- Generator: Sketch 44 (41411) - http://www.bohemiancoding.com/sketch -->
    <title>host_active</title>
    <desc>Created with Sketch.</desc>
    <defs></defs>
    <g id="V3.1-assets" stroke="none" stroke-width="1" fill="none" fill-rule="evenodd">
        <g id="Host-icons" transform="translate(-656.000000, -106.000000)">
            <g id="host_active" transform="translate(656.000000, 106.000000)">
                <circle id="Oval-3" fill="#175277" cx="21.5" cy="21.5" r="21.5"></circle>
                <g transform="translate(12.000000, 11.000000)" id="Group" fill-rule="nonzero" fill="#FFFFFF">
                    <g transform="translate(0.750000, 0.777778)">
                        <path d="M0.114122361,10.2053088 L0.114122361,16.7515405 C0.114122361,17.5987042 0.807248458,18.2918312 1.65441218,18.2918312 L15.9020921,18.2918312 C16.7492558,18.2918312 17.4423829,17.5987042 17.4423829,16.7515405 L17.4423829,10.2053088 L0.114122361,10.2053088 Z M2.98956836,16.2563801 C2.5414375,16.2586368 2.16412117,15.91493 2.16205257,15.4883737 L2.15006692,13.0172039 C2.14802156,12.5906717 2.52200093,12.2430151 2.96996681,12.2407601 C3.41809767,12.2384793 3.79543811,12.5822102 3.7974826,13.0087646 L3.80946922,15.4799141 C3.81151361,15.9064685 3.43755825,16.2541233 2.98956836,16.2563801 Z M5.56528087,16.2563801 C5.11715001,16.2586368 4.73981044,15.91493 4.73776508,15.4883737 L4.72575532,13.0172039 C4.72373407,12.5906717 5.09768933,12.2430151 5.54565618,12.2407601 C5.99378704,12.2384793 6.37115072,12.5822102 6.37317197,13.0087646 L6.38518174,15.4799141 C6.38722622,15.9064685 6.01324772,16.2541233 5.56528087,16.2563801 Z M8.20217183,16.2563801 C7.75406411,16.2586368 7.37672464,15.91493 7.37467918,15.4883737 L7.36267029,13.0172039 C7.36064904,12.5906717 7.73460431,12.2430151 8.18256931,12.2407601 C8.63070114,12.2384793 9.00804061,12.5822102 9.01008597,13.0087646 L9.0220726,15.4799141 C9.02414032,15.9064685 8.65016085,16.2541233 8.20217183,16.2563801 Z M13.5154611,15.9475037 C12.6882281,15.9475037 12.0178059,15.2560938 12.0178059,14.4030072 C12.0178059,13.5499447 12.6882281,12.8585348 13.5154611,12.8585348 C14.3426718,12.8585348 15.0131162,13.5499447 15.0131162,14.4030072 C15.0131162,15.2560939 14.3426718,15.9475037 13.5154611,15.9475037 Z" id="Shape"></path>
                        <path d="M17.442383,9.05009214 L17.442383,2.50386053 C17.442383,1.65669681 16.7492559,0.963570708 15.9020922,0.963570708 L1.65441218,0.963570708 C0.807248458,0.963570708 0.114122361,1.65669681 0.114122361,2.50386053 L0.114122361,9.05009214 L17.442383,9.05009214 Z M13.7121333,3.61679578 C14.539344,3.61679578 15.2097903,4.30820571 15.2097903,5.16126907 C15.2097903,6.01435567 14.539344,6.70576647 13.7121333,6.70576647 C12.8849003,6.70576647 12.2144781,6.01435567 12.2144781,5.16126907 C12.2144781,4.30820571 12.8849003,3.61679578 13.7121333,3.61679578 Z M8.37924344,2.99902099 C8.82737343,2.99674103 9.2047129,3.34047204 9.20675826,3.76702735 L9.21874489,6.23817503 C9.22081251,6.66473033 8.84683499,7.01238611 8.39884403,7.01464196 C7.95071404,7.01689868 7.57339683,6.6731909 7.57132921,6.2466356 L7.55934258,3.77546478 C7.55729732,3.34893251 7.93127669,3.00127674 8.37924344,2.99902099 Z M5.74232847,2.99902099 C6.19045933,2.99674103 6.56779978,3.34047204 6.56984426,3.76702735 L6.58183089,6.23817503 C6.58389939,6.66473033 6.20992001,7.01238611 5.76193003,7.01464196 C5.31382328,7.01689868 4.93648283,6.6731909 4.93443835,6.2466356 L4.92242858,3.77546478 C4.92040724,3.34893251 5.2943626,3.00127674 5.74232847,2.99902099 Z M3.16663997,2.99902099 C3.61477083,2.99674103 3.9921104,3.34047204 3.99415576,3.76702735 L4.00614142,6.23817503 C4.00818678,6.66473033 3.6342074,7.01238611 3.18624153,7.01464196 C2.73811067,7.01689868 2.36077022,6.6731909 2.35872574,6.2466356 L2.34673911,3.77546478 C2.34469463,3.34893251 2.71864999,3.00127674 3.16663997,2.99902099 Z" id="Shape"></path>
                    </g>
                </g>
            </g>
        </g>
    </g>
</svg>