<?xml version="1.0" encoding="UTF-8"?>
<svg width="43px" height="43px" viewBox="0 0 43 43" version="1.1" xmlns="http://www.w3.org/2000/svg" xmlns:xlink="http://www.w3.org/1999/xlink">
    <!-- Generator: Sketch 44 (41411) - http://www.bohemiancoding.com/sketch -->
    <title>fedora_active</title>
    <desc>Created with Sketch.</desc>
    <defs></defs>
    <g id="V3.1-assets" stroke="none" stroke-width="1" fill="none" fill-rule="evenodd">
        <g id="Host-icons" transform="translate(-186.000000, -106.000000)">
            <g id="fedora_active" transform="translate(186.000000, 106.000000)">
                <circle id="Oval-3" fill="#175277" cx="21.5" cy="21.5" r="21.5"></circle>
                <g transform="translate(10.000000, 9.000000)" id="Group" fill-rule="nonzero" fill="#FFFFFF">
                    <g transform="translate(0.805556, 0.833333)">
                        <path d="M16.3293234,0.943917139 C12.7795611,0.943917139 9.89161483,3.83180399 9.89161483,7.38162571 L9.89161483,10.7985857 L6.48883706,10.7985857 C2.93907474,10.7985857 0.0511284861,13.6865912 0.0511284861,17.2362943 C0.0511284861,20.7860566 2.93907474,23.6740621 6.48883706,23.6740621 C10.0386587,23.6740621 12.9265456,20.7860566 12.9265456,17.2362943 L12.9265456,13.8193936 L16.3293234,13.8193936 C19.8790263,13.8193936 22.7670913,10.931388 22.7670913,7.38162571 C22.7670914,3.83180408 19.8790264,0.943917139 16.3293234,0.943917139 Z M9.91541017,17.2362943 C9.91541017,19.1256714 8.37827365,20.662808 6.48883715,20.662808 C4.59945996,20.662808 3.06232344,19.1256714 3.06232344,17.2362943 C3.06232344,15.3469171 4.59945996,13.8097805 6.48883715,13.8097805 L9.89161493,13.8097805 L9.89161493,13.8193936 L9.91541017,13.8193936 L9.91541017,17.2362943 Z M16.3293234,10.8081987 L12.9265456,10.8081987 L12.9265456,10.7985857 L12.9028097,10.7985857 L12.9028097,7.38162571 C12.9028097,5.49218921 14.4399462,3.95505269 16.3293234,3.95505269 C18.2187006,3.95505269 19.7558371,5.49218921 19.7558371,7.38162571 C19.7558371,9.27106221 18.2187006,10.8081987 16.3293234,10.8081987 Z" id="Shape" opacity="0.5"></path>
                        <path d="M17.7521123,1.13920421 C17.2525904,1.00859743 16.868959,0.947714931 16.3293235,0.947714931 C12.7722624,0.947714931 9.88841058,3.83162607 9.88841058,7.38850914 L9.88841058,10.8023835 L7.19088553,10.8023835 C6.34980412,10.8023835 5.67012678,11.4633688 5.67054221,12.3029667 C5.67054221,13.1373427 6.34286139,13.8010577 7.1749825,13.8010577 L9.40841144,13.8015324 C9.6735414,13.8015324 9.8886479,14.0159862 9.8886479,14.2807008 L9.8886479,17.2348108 C9.88532485,19.1100651 8.36421007,20.6291031 6.48889646,20.6291031 C5.85366464,20.6291031 5.6962956,20.5458494 5.26270014,20.5458494 C4.35159783,20.5458494 3.7421194,21.156574 3.7421194,21.9962313 C3.74241612,22.6909216 4.33765296,23.2881166 5.06604826,23.4787158 C5.56562951,23.6093226 5.94926092,23.6702645 6.48889646,23.6702645 C10.0458982,23.6702645 12.9298094,20.7862941 12.9298094,17.229411 L12.9298094,13.8155367 L15.6273344,13.8155367 C16.4684158,13.8155367 17.1480932,13.1545514 17.1476184,12.3149535 C17.1476184,11.4805775 16.4752993,10.8168625 15.6431782,10.8168625 L13.4098085,10.8164472 C13.1446786,10.8164472 12.9295721,10.601934 12.9295721,10.3372788 L12.9295721,7.38316872 C12.9328357,5.50785511 14.4540099,3.9888765 16.3293235,3.9888765 C16.9645553,3.9888765 17.121865,4.07213012 17.5555198,4.07213012 C18.4665628,4.07213012 19.0760412,3.46134619 19.0760412,2.621689 C19.0758037,1.9270579 18.4805075,1.32980351 17.7521123,1.13920421 Z" id="Shape"></path>
                    </g>
                </g>
            </g>
        </g>
    </g>
</svg>