<?xml version="1.0" encoding="UTF-8"?>
<svg width="43px" height="43px" viewBox="0 0 43 43" version="1.1" xmlns="http://www.w3.org/2000/svg" xmlns:xlink="http://www.w3.org/1999/xlink">
    <!-- Generator: Sketch 44 (41411) - http://www.bohemiancoding.com/sketch -->
    <title>freeBSD_active</title>
    <desc>Created with Sketch.</desc>
    <defs></defs>
    <g id="V3.1-assets" stroke="none" stroke-width="1" fill="none" fill-rule="evenodd">
        <g id="Host-icons" transform="translate(-239.000000, -106.000000)">
            <g id="freeBSD_active" transform="translate(239.000000, 106.000000)">
                <circle id="Oval-3" fill="#F15F5E" cx="21.5" cy="21.5" r="21.5"></circle>
                <g transform="translate(11.000000, 12.000000)" id="g7898_1_" fill-rule="nonzero" fill="#FFFFFF">
                    <g transform="translate(0.373875, 0.759760)">
                        <path d="M19.2084677,0.393109762 C20.1877641,1.37198263 17.4729387,5.67483765 17.0139881,6.13375801 C16.5550223,6.59207354 15.389318,6.17041357 14.4102485,5.19135924 C13.4309521,4.21254683 13.0090956,3.04658537 13.4680614,2.58760455 C13.927012,2.12844218 18.2293982,-0.586126117 19.2084677,0.393109762 Z" id="path123_1_"></path>
                        <path d="M5.4759086,1.42878059 C3.98086372,0.580500728 1.85372197,-0.363107886 1.17695507,0.313689336 C0.491039375,0.999136275 1.46942832,3.17439595 2.32641845,4.67219302 C3.08904777,3.34587869 4.17437906,2.22945668 5.4759086,1.42878059 L5.4759086,1.42878059 Z" id="path125_1_"></path>
                        <path d="M17.7150257,5.79617601 C17.8526656,6.26320171 17.8276992,6.64905296 17.6046356,6.87170828 C17.082929,7.39341491 15.6742152,6.83825861 14.4045172,5.62947182 C14.3156608,5.54999094 14.2279536,5.46754619 14.1416073,5.38098826 C13.6826416,4.92158398 13.325144,4.43235918 13.0968179,3.98233055 C12.6520517,3.18467889 12.5407542,2.47975492 12.8769602,2.14374558 C13.0601624,1.96052825 13.3533162,1.91062587 13.7108137,1.97522682 C13.9441905,1.82793921 14.2192433,1.66353352 14.5210922,1.49519621 C13.293766,0.85505455 11.8985712,0.493458977 10.4181794,0.493458977 C5.50888952,0.493458977 1.52873656,4.47294655 1.52873656,9.38291693 C1.52873656,14.2919799 5.50888952,18.271891 10.4181794,18.271891 C15.3277111,18.271891 19.3078641,14.2919799 19.3078641,9.38291693 C19.3078641,7.79741263 18.8917236,6.31056377 18.1645855,5.02163083 C18.0072571,5.30816106 17.8544953,5.57085928 17.7150257,5.79617601 L17.7150257,5.79617601 Z" id="path127_1_"></path>
                    </g>
                </g>
            </g>
        </g>
    </g>
</svg>