<?xml version="1.0" encoding="UTF-8"?>
<svg width="43px" height="43px" viewBox="0 0 43 43" version="1.1" xmlns="http://www.w3.org/2000/svg" xmlns:xlink="http://www.w3.org/1999/xlink">
    <!-- Generator: Sketch 44 (41411) - http://www.bohemiancoding.com/sketch -->
    <title>gentoo_active</title>
    <desc>Created with Sketch.</desc>
    <defs></defs>
    <g id="V3.1-assets" stroke="none" stroke-width="1" fill="none" fill-rule="evenodd">
        <g id="Host-icons" transform="translate(-447.000000, -106.000000)">
            <g id="gentoo_active" transform="translate(447.000000, 106.000000)">
                <circle id="Oval-3" fill="#0F364E" cx="21.5" cy="21.5" r="21.5"></circle>
                <g transform="translate(12.000000, 11.000000)" id="Shape" fill-rule="nonzero" fill="#FFFFFF">
                    <path d="M19.9922387,8.56553201 C19.4501109,6.60061442 15.0437795,2.57637158 11.4407302,0.956515486 C10.2922689,0.440200444 8.89683576,0.279745764 7.68137987,0.502032417 C4.02860468,1.17001986 1.45877878,4.32974208 1.24112068,6.41173594 C1.13430914,7.43332878 1.68492253,8.19792128 1.98868267,8.53538642 C2.80964792,9.44749837 4.44582247,10.1439689 5.49785656,10.7212259 C3.9769791,12.0179771 3.27926256,12.6511914 2.59228644,13.3725846 C1.56434422,14.4520337 0.840874194,15.6401932 0.838678625,16.4911843 C0.837907167,16.7653339 0.79363975,17.6395268 1.15021226,18.3295293 C1.28432011,18.5890219 1.66581525,19.4547293 2.81498853,20.1031939 C3.54949581,20.5176226 4.59612997,20.6701258 5.62057122,20.5239127 C8.791033,20.0714472 13.0370284,17.3824671 16.0670934,14.8782709 C17.9981864,13.2822694 19.4097007,11.7355792 19.817424,10.9740724 C20.1464033,10.3596096 20.1830753,9.25719599 19.9922387,8.56553201 Z M14.4988627,7.04079658 C14.1987224,9.23951272 12.2794973,10.1312109 10.0528925,9.82169485 C8.75459839,9.64124272 6.1580705,8.17905142 6.35389171,5.64874576 C6.54223604,3.21474854 9.33618717,2.76157097 10.6231474,3.11398967 C12.1642002,3.53607314 14.7274988,5.36599194 14.4988627,7.04079658 Z"></path>
                </g>
            </g>
        </g>
    </g>
</svg>