<?xml version="1.0" encoding="UTF-8"?>
<svg width="43px" height="43px" viewBox="0 0 43 43" version="1.1" xmlns="http://www.w3.org/2000/svg" xmlns:xlink="http://www.w3.org/1999/xlink">
    <!-- Generator: Sketch 44 (41411) - http://www.bohemiancoding.com/sketch -->
    <title>linux_active</title>
    <desc>Created with Sketch.</desc>
    <defs></defs>
    <g id="V3.1-assets" stroke="none" stroke-width="1" fill="none" fill-rule="evenodd">
        <g id="Host-icons" transform="translate(-499.000000, -106.000000)">
            <g id="linux_active" transform="translate(499.000000, 106.000000)">
                <circle id="Oval-3" fill="#0F364E" cx="21.5" cy="21.5" r="21.5"></circle>
                <g id="Linux" transform="translate(12.000000, 10.000000)" fill="#FFFFFF">
                    <path d="M18.1768785,18.7786485 C17.8507328,19.0717752 16.0460474,19.7870541 15.5068123,20.3452344 C14.9722328,20.8998823 14.2698619,21.353702 13.8424877,21.2200287 C13.410395,21.087471 13.0331003,20.5058654 13.2187593,19.6545583 C13.410395,18.8067837 13.5723354,17.8768344 13.5449679,17.3456738 C13.516405,16.8144513 13.410395,16.0991724 13.5449679,15.9936963 C13.6794778,15.8892738 13.8937626,15.9396569 13.8937626,15.9396569 C13.8937626,15.9396569 13.7866831,16.946947 14.405693,17.2119386 C15.0235705,17.4781696 15.9115374,17.1075161 16.1818156,16.841347 C16.4508354,16.5763555 16.6413387,16.1823386 16.6413387,16.1823386 C16.6413387,16.1823386 16.9114911,16.3147724 16.8841235,16.735809 C16.8555606,17.162671 17.0698454,17.7712344 17.4745705,17.9823104 C17.8793586,18.192209 18.4971732,18.4853977 18.1768785,18.7786485 M12.8570043,15.5585301 C12.7546434,16.0393076 12.7546434,17.7806541 12.7546434,17.7806541 C12.7546434,17.7806541 11.6796334,19.2464118 10.0154348,19.4890935 C8.35111026,19.7271273 7.51781556,19.5536062 7.51781556,19.5536062 L6.5833553,18.4994034 C6.5833553,18.4994034 7.30950762,18.3938654 7.20714669,17.6750541 C7.10478576,16.9608907 4.98811026,15.9712006 4.60716656,15.0823386 C4.22622285,14.1936006 4.53689172,12.6914034 5.02623609,11.939809 C5.50954073,11.1893921 5.82134205,9.54881183 6.3047096,9.00364563 C6.79285861,8.45953296 7.16895795,7.29979211 6.99758046,6.78740901 C6.99758046,6.78740901 8.03918311,8.01507099 8.76420298,7.81347662 C9.4903553,7.60698648 11.122405,6.41216958 11.3641202,6.61742028 C11.6058354,6.82378648 13.6842593,11.3265358 13.8937626,12.7606879 C14.1033288,14.1936006 13.7544712,15.2888287 13.7544712,15.2888287 C13.7544712,15.2888287 12.9592394,15.0824006 12.8570043,15.5585301 M6.72258377,20.3182766 C6.61663675,20.8083499 6.02971291,21.1659893 6.02971291,21.1659893 C5.50475927,21.3254428 4.04062682,20.7027499 3.3750606,20.4284006 C2.7096202,20.1529358 1.01685861,20.0707611 0.798987748,19.8280794 C0.575265894,19.5806259 0.906130132,19.0353977 0.994209603,18.5182428 C1.07278907,17.9952006 0.826355298,17.6704062 0.910911589,17.3174766 C0.994146689,16.9657245 2.0726798,16.9657245 2.48696788,16.718271 C2.90125596,16.4708794 2.98449106,15.7602485 3.31913013,15.5727217 C3.64886192,15.3803611 4.25837185,16.0627949 4.50958709,16.4473921 C4.75602086,16.8226315 5.70004404,18.4631499 6.08564338,18.8712344 C6.47615,19.2828513 6.8344447,19.8280794 6.72258377,20.3182766 M7.63930232,3.06792169 C8.10826258,3.06792169 8.49040166,3.61785972 8.49040166,4.29564563 C8.49040166,4.41872169 8.47618311,4.53367944 8.45353411,4.64857521 C8.33689172,4.68495268 8.22018642,4.74475549 8.10826258,4.84093577 C8.0535904,4.88667099 8.00225265,4.92763437 7.95594801,4.97336958 C8.02968311,4.83622592 8.05830894,4.63921746 8.02496457,4.43285127 C7.96066656,4.06696958 7.70951424,3.7960907 7.46308046,3.83246817 C7.21545132,3.87349352 7.06779238,4.20888507 7.12730894,4.57947662 C7.19280232,4.95465408 7.43917318,5.22547099 7.69038841,5.18450761 C7.70473278,5.17973577 7.71788179,5.17502592 7.73203742,5.17037803 C7.61187185,5.28533577 7.49994801,5.38616394 7.38324272,5.46827662 C7.04401093,5.31223155 6.79285861,4.84558366 6.79285861,4.29564563 C6.79285861,3.61321183 7.16902086,3.06792169 7.63930232,3.06792169 M8.92255728,5.09656958 C9.21548444,5.14695268 10.0202162,5.49052451 10.317799,5.59606254 C10.6153818,5.6968907 10.9451765,5.88454141 10.9129646,6.07213014 C10.876097,6.2656062 10.7225871,6.2656062 10.317799,6.50834986 C9.9178553,6.74638366 9.04398113,7.2776062 8.76426589,7.31392169 C8.48568311,7.35023718 8.32732881,7.19543155 8.02968311,7.00666535 C7.73203742,6.81436676 7.1737394,6.36519493 7.31422616,6.12728507 C7.31422616,6.12728507 7.75110033,5.79771887 7.94166656,5.62890761 C8.13216987,5.45414704 8.6249745,5.04259211 8.92255728,5.09656958 M10.3963156,2.86149352 C10.9914811,2.86149352 11.4712626,3.44309915 11.4712626,4.15837803 C11.4712626,4.66617521 11.2295474,5.10586535 10.8760341,5.31694141 C10.7867593,5.28056394 10.6938983,5.23953859 10.5915374,5.19733577 C10.8057593,5.09297521 10.9545507,4.8268062 10.9545507,4.51954986 C10.9545507,4.11735268 10.7033354,3.78673296 10.3878851,3.78673296 C10.0807394,3.78673296 9.82480563,4.11741465 9.82480563,4.51954986 C9.82480563,4.66611324 9.86173609,4.81273859 9.92244801,4.92763437 C9.73678907,4.85382592 9.56893477,4.7904907 9.43442483,4.73998366 C9.36421291,4.56528507 9.32250099,4.36833859 9.32250099,4.15837803 C9.32250099,3.44309915 9.80108709,2.86149352 10.3963156,2.86149352 M18.5066732,17.9177358 C17.9162262,17.6797639 17.4329844,17.3044625 17.469852,16.5844738 C17.5019381,15.8703724 16.9484844,15.3943048 16.9484844,15.3943048 C16.9484844,15.3943048 17.4329844,13.823009 16.9817659,12.5214146 C16.5306103,11.2257076 15.0425705,9.14196676 13.898544,7.57538085 C12.7545805,6.00408507 13.7259712,4.19004563 12.6843685,1.87180338 C11.642703,-0.449971268 8.9416202,-0.312703662 7.48566656,0.676862535 C6.02971291,1.66661465 6.47621291,4.1208231 6.54642483,5.2852738 C6.61663675,6.44383718 6.57851093,7.27283437 6.44406391,7.57073296 C6.30949106,7.87315549 5.37024934,8.97197803 4.74645795,9.89244563 C4.12392483,10.8176851 3.67264338,12.7277808 3.21676921,13.5158146 C2.77039503,14.2992006 3.08219636,15.01324 3.08219636,15.01324 C3.08219636,15.01324 2.77026921,15.11884 2.52389834,15.6324006 C2.28224603,16.1401977 1.79894139,16.3829414 0.928716225,16.5482823 C0.0644049669,16.7229808 0.0644049669,17.2718034 0.272775828,17.8862541 C0.482216225,18.4995273 0.272775828,18.8430372 0.031060596,19.6264231 C-0.210528808,20.4096231 0.998928146,20.6477189 2.17975927,20.7849245 C3.35599768,20.9232456 4.67744139,21.6737865 5.78327914,21.8062203 C6.89515662,21.9445414 7.23916987,21.0603893 7.23916987,21.0603893 C7.23916987,21.0603893 8.49033874,20.7848625 9.80574272,20.753133 C11.122405,20.7168175 12.3687924,21.0228963 12.3687924,21.0228963 C12.3687924,21.0228963 12.6104447,21.5682485 13.0616003,21.8062203 C13.5128189,22.0489639 14.4842096,22.081809 15.1067427,21.4356907 C15.730597,20.7848625 17.3947957,19.9651611 18.3293189,19.452778 C19.269756,18.9391555 19.0971831,18.1558935 18.5066732,17.9177358" id="Fill-1"></path>
                </g>
            </g>
        </g>
    </g>
</svg>