<?xml version="1.0" encoding="UTF-8"?>
<svg width="43px" height="43px" viewBox="0 0 43 43" version="1.1" xmlns="http://www.w3.org/2000/svg" xmlns:xlink="http://www.w3.org/1999/xlink">
    <!-- Generator: Sketch 44 (41411) - http://www.bohemiancoding.com/sketch -->
    <title>mageia_active</title>
    <desc>Created with Sketch.</desc>
    <defs></defs>
    <g id="V3.1-assets" stroke="none" stroke-width="1" fill="none" fill-rule="evenodd">
        <g id="Host-icons" transform="translate(-291.000000, -106.000000)">
            <g id="mageia_active" transform="translate(291.000000, 106.000000)">
                <circle id="Oval-3" fill="#175277" cx="21.5" cy="21.5" r="21.5"></circle>
                <g transform="translate(13.000000, 9.000000)" id="Group" fill-rule="nonzero" fill="#FFFFFF">
                    <g transform="translate(0.722222, 0.833333)">
                        <path d="M6.16394654,9.02937146 L6.16495532,9.02937146 L6.16495532,9.02949017 C6.86819049,9.02877811 7.43945417,8.45638704 7.43945417,7.75196499 C7.4385641,7.04985721 6.86652906,6.47847492 6.16287846,6.47847492 C5.45964232,6.47918697 4.88731056,7.05145943 4.88837874,7.75588139 C4.8891501,8.45798917 5.46130375,9.02937146 6.16394654,9.02937146 Z" id="Shape"></path>
                        <path d="M8.41939049,6.90518694 C8.41980582,7.56071303 8.95380413,8.09411789 9.60986425,8.09411789 L9.60992356,8.09411789 L9.61093233,8.09411789 C10.2673485,8.09346514 10.800338,7.55917021 10.800338,6.90192329 C10.7996853,6.24645661 10.2657464,5.71311106 9.60879617,5.71311106 C8.95226131,5.7136451 8.4183224,6.24794003 8.41939049,6.90518694 Z" id="Shape"></path>
                        <circle id="Oval" cx="7.56703451" cy="4.69472247" r="1.06295272"></circle>
                        <circle id="Oval" cx="9.26771135" cy="2.90896735" r="1"></circle>
                        <circle id="Oval" cx="7.18435258" cy="1.16574393" r="1"></circle>
                        <path d="M13.0966671,10.2676731 C12.6607574,9.81022311 12.0314002,9.87822646 11.5731788,10.1709493 C10.2325161,10.8646902 9.50886806,11.1418661 7.9932125,11.135042 C6.52728368,11.1285146 5.75711237,10.8890789 4.41639032,10.1582507 C3.95822826,9.87822646 3.26199514,9.81022311 2.8260854,10.2676731 C1.72574869,11.6939037 0.833338431,13.2980941 0.833338431,15.2414704 C0.833338431,19.4538202 4.02985129,22.9277463 7.9932125,22.9277463 C11.9564541,22.9277463 15.1530263,19.4538202 15.1530263,15.2414704 C15.1530263,13.2977379 14.2592512,11.7445204 13.0966671,10.2676731 Z M7.9932125,21.4536879 C4.85271539,21.4536879 2.20212815,18.6951616 2.20212815,15.2414703 C2.20212815,13.8490041 3.02119456,12.5215148 3.78151453,11.4509667 C5.17119176,12.2192976 6.41056247,12.6091597 7.9932125,12.6091597 C9.57716803,12.6091597 10.8144609,12.2192976 12.2048502,11.4509667 C12.963568,12.5206842 13.6789679,13.8471645 13.6789679,15.2414703 C13.6789679,18.6951616 11.1334713,21.4536879 7.9932125,21.4536879 Z" id="Shape"></path>
                    </g>
                </g>
            </g>
        </g>
    </g>
</svg>