<?xml version="1.0" encoding="UTF-8"?>
<svg width="43px" height="43px" viewBox="0 0 43 43" version="1.1" xmlns="http://www.w3.org/2000/svg" xmlns:xlink="http://www.w3.org/1999/xlink">
    <!-- Generator: Sketch 44 (41411) - http://www.bohemiancoding.com/sketch -->
    <title>NetBSD_active</title>
    <desc>Created with Sketch.</desc>
    <defs></defs>
    <g id="V3.1-assets" stroke="none" stroke-width="1" fill="none" fill-rule="evenodd">
        <g id="Host-icons" transform="translate(-551.000000, -106.000000)">
            <g id="NetBSD_active" transform="translate(551.000000, 106.000000)">
                <circle id="Oval-3" fill="#175277" cx="21.5" cy="21.5" r="21.5"></circle>
                <g id="NetBSD" transform="translate(7.000000, 10.000000)" fill-rule="nonzero" fill="#FFFFFF">
                    <g id="g8" transform="translate(14.151774, 11.851983) scale(-1, 1) rotate(-180.000000) translate(-14.151774, -11.851983) translate(0.151774, 0.851983)">
                        <path d="M5.62068616,20.4489255 C5.62068616,20.4489255 5.53809236,20.6376709 5.30518728,20.5113556 C5.11152603,20.4058063 5.21223392,20.2109104 5.21223392,20.2109104 L8.85180659,12.6495842 L9.73469185,12.6495842 L5.62062557,20.4489255" id="path10"></path>
                        <path d="M15.9519785,0.861847285 L13.1985827,6.08250479 L12.0128536,6.08250479 L14.7787023,0.336750629 C14.7787023,0.336750629 15.057448,-0.204023012 15.6555294,0.0949031293 C16.2534088,0.393825303 15.9521131,0.861853898 15.9521131,0.861853898" id="path12"></path>
                        <path d="M26.1005817,20.9670166 C22.649817,22.5941692 19.5277446,21.8170987 16.0358513,20.7904397 C12.5205328,19.7574319 9.39368112,19.1983379 5.88105519,20.6063897 C6.26373304,19.934604 6.45530756,19.5987772 6.83818736,18.9275205 C7.18969901,18.3100305 7.54168186,17.6926066 7.89332814,17.0753812 C8.27614062,16.4037277 8.46751321,16.0681655 8.850393,15.3966443 C11.6471387,14.6200367 13.9632653,15.6271862 16.448551,16.8478814 C19.432967,18.3128743 22.128675,19.630852 25.5385131,18.8672066 C22.6568849,20.284914 20.0445785,19.9335458 17.0314868,19.1304186 C19.9814383,20.6058606 22.7587977,21.753412 26.1005817,20.9670166" id="path14"></path>
                        <path d="M5.66619015,8.89808598 C5.66619015,8.33171729 5.66619015,7.78327082 5.6838869,7.49545712 C5.62196511,7.39136273 5.3737058,7.29507212 5.1609948,7.29507212 C5.15204883,7.29507212 4.85943658,7.73949033 4.44283267,8.24494992 L2.39481618,10.7364034 C1.8896343,11.3636812 1.58812992,11.7206707 1.42852936,11.851417 C1.38430432,11.7644512 1.38430432,11.6164441 1.38430432,11.2940425 L1.38430432,9.60373217 C1.38430432,8.89808598 1.41964396,8.24494992 1.51724869,8.00951408 C1.5970759,7.82672064 1.8009015,7.77440891 2.03138329,7.73109136 L2.27963587,7.69604052 C2.35044305,7.62620337 2.33281362,7.44314539 2.27963587,7.39136273 C1.8009015,7.40835908 1.44629342,7.41748553 1.09168534,7.41748553 C0.763672867,7.41748553 0.43571963,7.40835908 0.0988823419,7.39136273 C0.0456406447,7.44314539 0.0279344736,7.62620337 0.0988823419,7.69604052 L0.249528847,7.72222945 C0.488894686,7.77454118 0.657247363,7.82672064 0.737009948,8.00951408 C0.825661968,8.24494992 0.861203552,8.89808598 0.861203552,9.60373217 L0.861203552,11.8166307 C0.861203552,12.2955707 0.861203552,12.4348482 0.799147138,12.5568648 C0.737016679,12.7050042 0.604072306,12.7922345 0.293758599,12.8530774 L0.0456406447,12.8880621 C-0.0164171155,12.957767 -0.00759970619,13.1668155 0.0809775957,13.1928061 C0.497712096,13.1758097 0.940902862,13.1668155 1.3045377,13.1668155 C1.60589398,13.1668155 1.86303196,13.1755452 2.0492214,13.1928722 C2.13800804,12.800898 2.71421252,12.1390323 3.51201338,11.2066799 L4.25670381,10.3441647 C4.65573887,9.89114907 4.90391741,9.58653741 5.10795168,9.38588788 C5.14335191,9.47318431 5.14335191,9.62145599 5.14335191,9.77792823 L5.14335191,10.9803044 C5.14335191,11.6858183 5.10795168,12.3392189 5.01027291,12.574787 C4.9304457,12.7574482 4.73549876,12.8094954 4.49613831,12.8530774 L4.25670381,12.8880621 C4.1858899,12.957767 4.20359338,13.1406266 4.25670381,13.1928061 C4.73556608,13.1758097 5.08129549,13.1668155 5.44478897,13.1668155 C5.77266682,13.1668155 6.09193525,13.1755452 6.43773198,13.1928722 C6.49097031,13.1406266 6.50853916,12.957767 6.43773198,12.8879299 L6.27813142,12.8619393 C6.04772368,12.8094954 5.87916367,12.7574482 5.79926915,12.574324 C5.70193368,12.3392189 5.66633151,11.6858183 5.66633151,10.9800398 L5.66633151,8.89795371" id="path16"></path>
                        <path d="M7.77250022,9.86515854 C7.89682845,9.86515854 8.03845628,9.88281622 8.13619564,9.94346079 C8.18048799,9.97011266 8.19798953,10.0572768 8.19798953,10.1437135 C8.19798953,10.4313288 8.02970551,10.6231164 7.72827518,10.6231164 C7.35582899,10.6231164 7.0367625,10.2746582 7.0367625,9.99603706 C7.0367625,9.87382205 7.16075416,9.86515854 7.44454833,9.86515854 L7.77250022,9.86515854 Z M7.18754498,9.48191396 C6.98365206,9.48191396 6.96581396,9.46465307 6.96581396,9.32524331 C6.96581396,8.67171045 7.39143789,8.03583528 8.21582763,8.03583528 C8.46414753,8.03583528 8.80105213,8.08788247 9.040352,8.48878474 C9.13788942,8.50611176 9.2709011,8.43647301 9.2709011,8.28866427 C8.90734031,7.54803338 8.25136922,7.29507212 7.71938978,7.29507212 C6.52254713,7.29507212 5.87546816,8.12299945 5.87546816,9.07254658 C5.87546816,10.1702331 6.682215,11.0240848 7.79033832,11.0240848 C8.71226548,11.0240848 9.20877064,10.4403891 9.20877064,9.76933086 C9.20877064,9.60386443 9.16447829,9.48191396 8.88977146,9.48191396 L7.18754498,9.48191396 L7.18754498,9.48191396 Z" id="path18"></path>
                        <path d="M10.9568377,10.4313288 C10.8416641,10.4313288 10.8327787,10.4228637 10.8327787,10.2309438 L10.8327787,8.92460558 C10.8327787,8.43647301 10.8327787,7.89629325 11.4533429,7.89629325 C11.5774691,7.89629325 11.7192316,7.95720235 11.825789,8.0268411 C11.9142391,8.0009167 11.9674842,7.90515516 11.9496461,7.80053171 C11.7014608,7.53930374 11.2227938,7.29507212 10.6731782,7.29507212 C9.93723849,7.29507212 9.68023514,7.71336754 9.68023514,8.28866427 L9.68023514,10.2309438 C9.68023514,10.4141341 9.67134975,10.4313288 9.51174919,10.4313288 L9.23704236,10.4313288 C9.13943763,10.4668426 9.11284875,10.6405757 9.18372998,10.7017494 C9.45850412,10.7972464 9.70675671,10.9543138 9.91960233,11.0935252 C10.0791356,11.2066799 10.3008666,11.3894733 10.5756407,11.7733793 C10.6375693,11.8079672 10.7973044,11.7990391 10.8416641,11.7295988 L10.8416641,11.076132 C10.8416641,10.9107318 10.8505495,10.9020021 11.0100828,10.9020021 L11.7992002,10.9020021 C11.8434925,10.8672819 11.8700141,10.8147057 11.8700141,10.7364034 C11.8700141,10.6405757 11.8434925,10.4840374 11.7548405,10.4313288 L10.9567704,10.4313288" id="path20"></path>
                        <path d="M14.1584748,8.88962087 C14.1584748,8.21003135 14.2471941,7.78327082 14.9388414,7.78327082 C15.5948798,7.78327082 15.9405352,8.27967009 15.9405352,8.98544855 C15.9405352,9.74340646 15.4972078,10.2746582 14.6462965,10.2746582 C14.1585421,10.2746582 14.1585421,10.2660608 14.1585421,9.917338 L14.1585421,8.88975314 L14.1584748,8.88962087 L14.1584748,8.88962087 Z M14.1584748,10.9020021 C14.1584748,10.6752959 14.1674948,10.6582334 14.6284584,10.6582334 C15.3908523,10.6582334 15.6745791,11.1370411 15.6745791,11.6598278 C15.6745791,12.4177195 15.1957774,12.7923667 14.5840314,12.7923667 C14.1674948,12.7923667 14.1584748,12.7223973 14.1584748,12.3392189 L14.1584748,10.9020021 L14.1584748,10.9020021 Z M12.9349827,11.7471242 C12.9349827,12.626768 12.9172792,12.7223973 12.5449676,12.7662439 L12.3055331,12.8012948 C12.2257665,12.8448769 12.2079957,13.1061048 12.3410747,13.1148345 C13.0148839,13.1582843 13.6620369,13.1933351 14.5487591,13.1933351 C15.3996704,13.1933351 15.967326,13.0973091 16.3571391,12.8707351 C16.7384034,12.6442935 16.9687505,12.2782436 16.9687505,11.7645835 C16.9687505,11.0326161 16.3394356,10.7451992 16.0646615,10.6752959 C15.9758748,10.6582334 15.8871555,10.6231164 15.8871555,10.5796005 C15.8871555,10.5535438 15.9317171,10.5276194 16.011551,10.5098956 C16.7118818,10.3616901 17.3057224,9.90913742 17.3146752,9.06421374 C17.3236279,8.26260761 16.8360081,7.7920666 16.2776417,7.60021284 C15.7188715,7.40862362 15.0541496,7.38250082 14.5132848,7.38250082 C14.1942183,7.38250082 13.8573137,7.41768393 13.6001084,7.41768393 C13.1655318,7.41768393 12.7311571,7.40862362 12.2259684,7.39136273 C12.1551545,7.44354219 12.1551545,7.66991772 12.2259684,7.69604052 L12.4831064,7.74841838 C12.8819395,7.82672064 12.9351846,7.88776201 12.9351846,8.67184272 L12.9351846,11.7471242 L12.9349827,11.7471242 Z" id="path22"></path>
                        <path d="M19.2481239,7.27800963 C18.4326868,7.27800963 17.927229,7.50451743 17.7411742,7.60887635 C17.5727555,7.80053171 17.4575819,8.42774337 17.4575819,9.02023485 C17.5195105,9.13332342 17.723538,9.14225146 17.7944192,9.04642379 C17.971656,8.48018736 18.5654966,7.67877963 19.319207,7.67877963 C19.9751108,7.67877963 20.2767431,8.12299945 20.2767431,8.55842349 C20.2767431,9.26400354 19.6030685,9.68216669 19.0710218,9.94346079 C18.4326868,10.2574634 17.7411742,10.7797871 17.7324907,11.6425007 C17.7324907,12.626768 18.5038373,13.306556 19.789258,13.306556 C20.0817356,13.306556 20.4451617,13.2715051 20.7999718,13.1668155 C20.9151453,13.1320292 20.9948447,13.1148345 21.1013348,13.0973091 C21.1719468,12.9056537 21.2609353,12.4351788 21.2609353,11.851417 C21.2165084,11.7471242 20.9948447,11.7382623 20.9151453,11.8250296 C20.7643629,12.2696463 20.382964,12.9056537 19.7446964,12.9056537 C19.1597411,12.9056537 18.8406746,12.5308742 18.8406746,12.0955825 C18.8406746,11.6946802 19.2037642,11.3290272 19.6470916,11.1024532 L20.2324508,10.7972464 C20.781999,10.5098295 21.4824644,10.0047006 21.4824644,9.04642379 C21.4824644,7.97479391 20.5867223,7.27800963 19.2481239,7.27800963" id="path24"></path>
                        <path d="M23.4297124,8.99437659 C23.4297124,8.51497367 23.4475505,8.2015001 23.6069492,8.01844213 C23.766819,7.84411379 24.0236877,7.76581153 24.3428888,7.76581153 C25.8764947,7.76581153 26.3996561,9.10706835 26.3996561,10.2921175 C26.3996561,11.8602789 25.5574282,12.7923667 23.9526718,12.7923667 C23.7137085,12.7923667 23.544886,12.7487847 23.4917756,12.6788152 C23.4385305,12.6093088 23.4297124,12.4438423 23.4297124,12.1739509 L23.4297124,8.99424433 L23.4297124,8.99437659 L23.4297124,8.99437659 Z M22.1620626,11.7557877 C22.1620626,12.5833182 22.1442918,12.7487847 21.7364387,12.7923667 L21.5680873,12.8096276 C21.4795699,12.8532097 21.4795699,13.1061048 21.5859254,13.1148345 C22.3306159,13.1582843 23.0219939,13.1933351 23.9618938,13.1933351 C24.6888135,13.1933351 25.4155985,13.1231012 26.0274791,12.9056537 C27.1889754,12.4962863 27.8270411,11.4683047 27.8270411,10.3795462 C27.8270411,9.21195634 27.259722,8.27094045 26.2403248,7.77454118 C25.6375314,7.4781301 24.9103425,7.36530607 23.9972335,7.36530607 C23.5807642,7.36530607 23.1370329,7.41768393 22.818101,7.41768393 C22.3924098,7.41768393 21.9402643,7.40862362 21.435143,7.39136273 C21.3642617,7.44354219 21.3642617,7.65252457 21.435143,7.69604052 L21.7099171,7.7396226 C22.1088175,7.80919521 22.1620626,7.87017045 22.1620626,8.67184272 L22.1620626,11.7557877 L22.1620626,11.7557877 Z" id="path26"></path>
                    </g>
                </g>
            </g>
        </g>
    </g>
</svg>