<?xml version="1.0" encoding="UTF-8"?>
<svg width="43px" height="43px" viewBox="0 0 43 43" version="1.1" xmlns="http://www.w3.org/2000/svg" xmlns:xlink="http://www.w3.org/1999/xlink">
    <!-- Generator: Sketch 44 (41411) - http://www.bohemiancoding.com/sketch -->
    <title>openBSD_active</title>
    <desc>Created with Sketch.</desc>
    <defs></defs>
    <g id="V3.1-assets" stroke="none" stroke-width="1" fill="none" fill-rule="evenodd">
        <g id="Host-icons" transform="translate(-30.000000, -106.000000)">
            <g id="openBSD_active" transform="translate(29.000000, 105.000000)">
                <g id="juUex7.tif_2_" transform="translate(0.888889, 0.833333)">
                    <circle id="Oval-3" fill="#0F364E" cx="21.6111111" cy="21.6666667" r="21.5"></circle>
                    <g id="Group" transform="translate(8.000000, 10.000000)" fill-rule="nonzero" fill="#FFFFFF">
                        <path d="M14.9861537,0.0126194444 C15.0295032,0.0704005556 15.1015176,0.123734917 15.1112901,0.186725486 C15.1557577,0.473367028 15.1904178,0.762098361 15.2139719,1.05126972 C15.2419747,1.39500443 15.2802451,1.73476333 15.4323125,2.05011926 C15.4528774,2.09276599 15.4863098,2.129666 15.5162875,2.16723082 C15.5993167,2.27127931 15.6722842,2.27722814 15.7291577,2.14302764 C15.843064,1.87424601 15.9572893,1.60559875 16.0730055,1.33307504 C16.1093066,1.34522296 16.1590295,1.36186176 16.1870379,1.37123418 C16.1804939,1.62984694 16.1717357,1.87552507 16.1687594,2.12127407 C16.165646,2.37820868 16.168077,2.37823833 16.4571988,2.44326629 C16.5706564,2.06013743 16.684674,1.67511108 16.798113,1.29204162 C17.0920431,1.36721443 17.167794,1.47656182 17.1866882,1.78308861 C17.2043028,2.0688289 17.2242039,2.35466097 17.2537698,2.63934426 C17.2720558,2.81542012 17.4329943,2.84428521 17.5616893,2.86464237 C17.6200202,2.87386876 17.7324375,2.79596032 17.7539351,2.73439814 C17.8131358,2.56487379 17.8300216,2.38104854 17.8792996,2.2073204 C17.8960408,2.14829592 17.9594824,2.10251718 18.0015858,2.05068578 C18.0580419,2.09926461 18.0993387,2.12878517 18.0879585,2.23603712 C18.0660825,2.44222883 18.1049093,2.65495524 18.1198128,2.86488164 C18.1232285,2.913008 18.1249141,2.96300268 18.1396563,3.00813051 C18.1576251,3.06312728 18.1765193,3.14296519 18.2167145,3.15959331 C18.2753107,3.18383362 18.3702135,3.1872994 18.4203073,3.15463662 C18.8762756,2.85732689 19.1916942,2.44676182 19.3897127,1.9388915 C19.4291477,1.83775015 19.3921086,1.67315381 19.563847,1.65041372 C19.6099485,1.64430962 19.6696795,1.64414367 19.7027614,1.66871172 C19.7273855,1.68699854 19.7334363,1.75335154 19.7232725,1.79182685 C19.6319005,2.13768712 19.5169502,2.47843536 19.4460781,2.8282134 C19.3960807,3.07496749 19.3956652,3.3331899 19.3889747,3.58671056 C19.3855089,3.71796911 19.5135752,3.78108344 19.616333,3.70342068 C19.7964941,3.5672629 19.9690948,3.42095979 20.1424447,3.27601507 C20.2068172,3.22219119 20.2696264,3.12818771 20.3555949,3.21120217 C20.4421511,3.29478586 20.3933015,3.388042 20.3178344,3.46343774 C20.2156106,3.56556793 20.107451,3.66256246 20.0128616,3.77134887 C19.8532247,3.95494692 19.8757181,4.13712085 20.0568471,4.20770729 C20.1756026,4.04929428 20.2877232,3.88548971 20.4163254,3.73584789 C20.4618,3.68292983 20.5545888,3.62756217 20.6132072,3.63881165 C20.7091652,3.65722739 20.7032756,3.74495285 20.6692481,3.83519189 C20.583287,4.063164 20.499147,4.29292753 20.4361486,4.52783956 C20.4147938,4.60747807 20.4320115,4.72718031 20.4817253,4.78672493 C20.5212733,4.83409014 20.6481454,4.84846328 20.7169424,4.82374181 C20.897541,4.75884549 21.0658953,4.66064006 21.2429928,4.58472506 C21.2891313,4.56494821 21.3494279,4.57820135 21.4032213,4.5762849 C21.3861648,4.63737604 21.3871569,4.71546901 21.3486473,4.75635037 C21.235924,4.87601732 21.1005664,4.97446843 20.9889168,5.09498189 C20.9499658,5.13702778 20.9239843,5.26013736 20.944538,5.27535429 C21.0068633,5.3214909 21.1033386,5.36853712 21.1715088,5.352291 C21.7213305,5.22125314 22.2423444,5.01579293 22.7164077,4.70228451 C22.8100662,4.64034589 22.900919,4.57415982 22.9915382,4.51099639 C23.1668908,4.63280047 23.1971318,4.66256029 23.0176421,4.87105228 C22.6978658,5.24249396 22.3140211,5.56260308 22.0811165,6.00427061 C22.0024765,6.15340153 21.9391591,6.31254983 21.8869234,6.47300821 C21.8500827,6.58617371 21.9447537,6.61695903 22.0298414,6.60902044 C22.243674,6.58907025 22.4565924,6.55845925 22.6693939,6.52866142 C22.7739116,6.51402587 22.8773537,6.491702 22.9812818,6.47285887 C22.991859,6.48985692 23.0024326,6.50685496 23.0130062,6.523853 C22.9460729,6.57753882 22.8848027,6.64130026 22.8110119,6.68279451 C22.6612755,6.76699761 22.5070756,6.84429035 22.3503742,6.91478599 C22.2036567,6.9807885 22.140534,7.09197446 22.179396,7.24036824 C22.2325607,7.44339176 22.2545071,7.67017796 22.4769903,7.78221422 C22.7506021,7.91999833 22.9026267,8.171163 23.0603833,8.41441417 C23.190647,8.61526993 23.316666,8.81972496 23.4302015,9.0303291 C23.5303651,9.21613574 23.4381178,9.3493645 23.2316451,9.38588632 C23.2412433,9.56250546 23.2479468,9.74021689 23.2627947,9.91724582 C23.2661084,9.95676792 23.288652,10.0045382 23.3181754,10.0305068 C23.6957208,10.362596 23.8886305,10.8047884 24.0944467,11.2499291 C24.2554743,11.5981976 24.3822575,11.9493443 24.4569346,12.3224781 C24.4778611,12.4270422 24.495142,12.532333 24.5169642,12.6531784 C24.9042561,12.596025 24.9883498,12.8890242 25.0979391,13.1559863 C25.1964728,13.396021 25.3040853,13.6283417 25.5086832,13.8047105 C25.6927087,13.9633479 25.8012207,13.9805026 26.0141557,13.8569332 C26.0724829,13.8230837 26.1362398,13.7990287 26.154216,13.9077892 C26.1613757,13.9511034 26.19351,13.9902881 26.2142715,14.0313512 C26.2142715,14.0532383 26.2142715,14.0751273 26.2142715,14.0970144 C26.1591115,14.1868232 26.107536,14.2790853 26.0481091,14.3659773 C25.8810493,14.6102401 25.6931907,14.8381454 25.3786383,14.8818176 C25.1650468,14.9114745 24.9467303,14.9073077 24.7304981,14.917707 C24.4415284,14.9316037 24.1853217,14.8424995 23.9693177,14.6731939 C23.8300028,14.8066749 23.6938274,14.9331854 23.5621025,15.0641686 C23.2926222,15.332132 23.0297953,15.6069733 22.7546148,15.8688803 C22.6815601,15.9384098 22.6566114,15.9880474 22.7192223,16.0674088 C22.8857388,16.2784691 23.0546957,16.4876547 23.21788,16.7012517 C23.2491465,16.7421794 23.2584999,16.7998483 23.2779633,16.8497939 C23.2204112,16.8481714 23.1557364,16.8627096 23.1069444,16.8412101 C23.0297897,16.807214 22.9661294,16.744006 22.8917192,16.7021047 C22.6945944,16.5911005 22.5638542,16.3848819 22.3067184,16.35152 C22.1431188,16.3302912 22.1566574,16.4177672 22.1826316,16.4896444 C22.2473008,16.668613 22.3307269,16.8415995 22.4172832,17.0115596 C22.4682152,17.1115656 22.5152271,17.1986727 22.3752132,17.2802426 C22.2470394,17.2115587 22.1136233,17.1350346 21.9755193,17.0682013 C21.907427,17.035251 21.7931776,16.9790916 21.7649374,17.0048413 C21.6835066,17.0791087 21.6129202,17.1824488 21.5787868,17.2875877 C21.5198069,17.4692619 21.607778,17.6289154 21.7238855,17.7624966 C21.9973693,18.0771437 22.2809668,18.3829918 22.5545805,18.6975295 C22.6020245,18.7520701 22.6205663,18.8317578 22.6545272,18.9042506 C22.5301826,18.9257538 22.45127,18.9394001 22.3836321,18.9510955 C22.3075975,18.8832795 22.2413131,18.8138279 22.1650801,18.7579558 C21.8435904,18.5223307 21.4514085,18.4553992 21.0921194,18.3093789 C20.8990372,18.2309113 20.7567924,18.2994321 20.6167098,18.4021102 C20.5097778,18.4804887 20.4173024,18.5785922 20.3003549,18.6842169 C20.5409942,19.0691482 20.7713678,19.4294943 20.9898658,19.7969056 C21.0190573,19.8459925 21.0140931,19.9498723 20.9804382,19.9956678 C20.8581334,20.1620824 20.6410705,20.1293343 20.5023176,19.9541912 C20.2949308,19.6924194 20.0782332,19.4376777 19.856043,19.1883692 C19.824159,19.1525929 19.7229124,19.134726 19.6818772,19.158041 C19.3853213,19.3265362 19.096003,19.5077616 18.8067143,19.6835444 C18.8698518,20.0133324 18.909411,20.3389499 18.9982537,20.6505132 C19.0869777,20.9616537 19.2250502,21.2587252 19.3414877,21.5619679 C19.3229885,21.5730829 19.3044894,21.584198 19.2859902,21.5953131 C19.2412184,21.5624092 19.1908686,21.5349571 19.1525444,21.4957502 C18.8003149,21.1354208 18.4569418,20.7661292 18.0967774,20.413985 C17.8934739,20.2152062 17.6426912,20.1288186 17.3472016,20.2209603 C17.3648978,20.3627433 17.3785292,20.4961817 17.3987474,20.628615 C17.4351171,20.8668659 17.4754663,21.1045085 17.5140946,21.3424145 C17.5395903,21.4994349 17.4447301,21.5852717 17.3222548,21.6430946 C17.255314,21.6746985 17.058703,21.5321719 17.0224037,21.4349864 C16.9757368,21.3100411 16.9333904,21.183486 16.8885722,21.0578434 C16.8069077,20.8289145 16.7247927,20.6001468 16.6432617,20.3724194 C16.5458315,20.3979781 16.4800218,20.4274662 16.4130384,20.430424 C16.2413278,20.4380084 16.1808661,20.531079 16.1282726,20.6888022 C15.949953,21.2235626 15.8268546,21.7637971 15.8351343,22.3312704 C15.8361153,22.3985487 15.7740812,22.4667467 15.7412588,22.5345182 C15.7193736,22.5345182 15.6974846,22.5345182 15.6755994,22.5345182 C15.5991829,22.2792312 15.5337738,22.019989 15.4437869,21.7695789 C15.3068309,21.3884695 15.1597165,21.0105217 14.9996179,20.6386786 C14.9715427,20.5734642 14.8636427,20.523489 14.7836249,20.5046653 C14.6861761,20.4817397 14.5792218,20.4992153 14.457095,20.4992153 C14.4245008,20.7816928 14.4131039,21.0570831 14.3544224,21.3219997 C14.3198738,21.477976 14.2102788,21.6173299 14.1344389,21.7641623 C14.1105231,21.7595653 14.0866073,21.7549684 14.0626935,21.7503713 C14.0313232,21.6144944 13.9952205,21.479504 13.9696116,21.3425498 C13.9223865,21.0899905 13.8719588,20.8373906 13.8416733,20.5825728 C13.8266993,20.4566001 13.7538876,20.4210167 13.6563627,20.4022894 C13.3126355,20.3362963 13.317123,20.3397491 13.1730535,20.6780635 C13.0408966,20.9884028 12.889124,21.2905219 12.7615139,21.6026063 C12.6974363,21.7593169 12.6703848,21.9309015 12.6209158,22.0940394 C12.6087103,22.1342922 12.5798546,22.1908985 12.5487365,22.1983012 C12.5141285,22.2065327 12.4602146,22.1757447 12.4288202,22.1466905 C12.3606036,22.0835623 12.3436157,22.0153847 12.3517786,21.907238 C12.3973107,21.3039402 12.2854053,20.7160058 12.1271889,20.13634 C12.0882008,19.9934926 11.9661965,19.9446059 11.8384825,19.9081212 C11.7057711,19.8702106 11.5731431,19.8320051 11.4086931,19.784804 C11.2842643,20.109359 11.1538401,20.4495499 11.0197193,20.7993855 C10.9783928,20.7847509 10.9557418,20.7737285 10.9318316,20.7687181 C10.6513428,20.709968 10.6409018,20.7096564 10.6559537,20.4244957 C10.6669538,20.2161038 10.7024111,20.0080142 10.740727,19.8023538 C10.7755632,19.6153705 10.7574441,19.5648872 10.5832254,19.4948423 C10.281455,19.3735111 10.2557415,19.3537547 10.0574688,19.6118398 C9.81712249,19.9246919 9.62423039,20.2742233 9.41445517,20.6101641 C9.36634086,20.6872148 9.33973814,20.7778507 9.29046475,20.8539688 C9.26281242,20.8966897 9.20900332,20.9224747 9.16697785,20.9558885 C9.12821603,20.8950727 9.05286103,20.8313381 9.05742931,20.7739752 C9.07220582,20.5884977 9.11806894,20.4056441 9.14871699,20.2212441 C9.18125279,20.0255045 9.2253385,19.8300339 9.23678826,19.6328442 C9.25203951,19.3701935 9.24260351,19.1059648 9.23847478,18.8424945 C9.23788785,18.805053 9.21773835,18.754362 9.18925243,18.7330517 C8.9582781,18.5602506 8.72315276,18.3929997 8.47708011,18.2152365 C8.26743468,18.4766966 8.01836263,18.685999 7.89693032,18.9991014 C7.8677305,19.0743906 7.78039082,19.163517 7.70659624,19.1777177 C7.5415761,19.20947 7.47980538,19.1270805 7.53289124,18.9640224 C7.63029838,18.6648314 7.73864253,18.3691712 7.84418376,18.0726673 C7.96495311,17.7333831 7.87646825,17.7438603 7.67966529,17.5496209 C7.66512153,17.535268 7.63508443,17.5338847 7.62491051,17.5182394 C7.47050014,17.2808007 7.29233079,17.3615065 7.09869689,17.4651952 C6.68438313,17.6870664 6.36072665,18.0032694 6.09054999,18.3826525 C6.03615678,18.459032 5.95786265,18.519718 5.88453444,18.580315 C5.86727585,18.5945769 5.80510078,18.5888265 5.79877181,18.5755307 C5.77982942,18.5357415 5.76113096,18.4821243 5.77342908,18.4439114 C5.80270026,18.3529585 5.85099356,18.2682602 5.88956618,18.1801481 C6.05444817,17.8035021 6.22657875,17.4297341 6.37952049,17.0482853 C6.45227567,16.8668263 6.51165249,16.6731433 6.53313996,16.4801055 C6.55115329,16.3182694 6.5183579,16.1203287 6.35931343,16.0425622 C6.25945668,15.9937385 6.08554304,16.0099939 5.98489451,16.0673328 C5.78173478,16.1830769 5.60666954,16.3477928 5.41827047,16.4899987 C5.36135814,16.5329569 5.30675347,16.662974 5.23111663,16.5545362 C5.1950956,16.5028959 5.22432313,16.3560522 5.27594501,16.3014301 C5.52244039,16.0406078 5.71311844,15.7463142 5.8636689,15.4236099 C5.87798556,15.3929239 5.88977278,15.3479203 5.87791789,15.3201641 C5.73581128,14.9874332 5.58901224,14.6567069 5.42384189,14.2808639 C5.34843594,14.3654972 5.27273046,14.4192442 5.24092897,14.4921431 C5.15350024,14.6925556 5.06689478,14.8963932 5.01171349,15.1071902 C4.88266343,15.600168 4.50940078,15.8502368 4.08528672,16.0240558 C3.81759126,16.1337676 3.5183785,16.168461 3.23128313,16.2268753 C3.18946668,16.2353831 3.13637294,16.188464 3.08849781,16.1671944 C3.11982407,16.1251354 3.1467379,16.0513798 3.1832114,16.0463026 C3.37965094,16.0189581 3.45330553,15.8755414 3.52186469,15.7218014 C3.59032236,15.5682876 3.56259031,15.4163408 3.53659026,15.2559233 C3.41175431,14.4856972 3.14027544,13.7689641 2.77404176,13.0846639 C2.47708028,12.5297984 2.1293336,12.0082207 1.72569921,11.5257775 C1.52407578,11.2847895 1.31011893,11.0534944 1.09251829,10.8266608 C0.840418542,10.5638656 0.581956861,10.5381121 0.254571722,10.7076865 C0.207953861,10.7318341 0.125715917,10.6872087 0.0599638472,10.6744136 C0.0859774028,10.6307395 0.102688444,10.5759931 0.139447583,10.5451049 C0.499624903,10.2424574 0.891054889,9.99950194 1.35441522,9.87957454 C1.88714322,9.74169311 2.38151608,9.77665724 2.82971694,10.1300142 C3.31320549,10.5111923 3.80183903,10.8858504 4.28873774,11.2626948 C4.51854754,11.4405602 4.78808069,11.3995266 4.9151549,11.1490036 C4.99945444,10.9828079 5.06699511,10.8069694 5.12614939,10.6301333 C5.13783472,10.5952026 5.08890997,10.5132619 5.04768182,10.4916678 C4.7602309,10.3410969 4.46713983,10.2013258 4.17660513,10.0565925 C4.11066104,10.0237405 4.04765521,9.98499172 3.97740622,9.94565872 C4.05536376,9.80943133 4.17409426,9.8578619 4.26220083,9.86748787 C4.47987935,9.89126639 4.69534849,9.93736411 4.91073226,9.9794694 C5.13328968,10.0229784 5.29098588,9.90987871 5.26465761,9.71102203 C5.25797543,9.6605564 5.21927292,9.60034882 5.17698776,9.57079667 C4.8478219,9.34075139 4.51585779,9.11457614 4.18099996,8.89288099 C4.06588272,8.81666654 4.01935392,8.72084772 4.05176732,8.58903558 C4.0866804,8.44705876 4.2103741,8.41890019 4.32287013,8.42308085 C4.42510882,8.42687951 4.52851107,8.47199257 4.62621396,8.51166769 C4.92203649,8.63179635 5.19920489,8.81477411 5.55960854,8.77155251 C5.61223172,8.56526718 5.66581556,8.35521662 5.72279653,8.13185158 C5.56884699,8.04517574 5.42388467,7.95461119 5.27110247,7.88007403 C5.120017,7.80636481 4.96103475,7.74883958 4.80859653,7.6593126 C5.1173606,7.52378531 5.43035082,7.73971975 5.74653149,7.64159229 C5.43578875,7.21947537 5.06685326,6.85854701 4.65664694,6.53797987 C4.57206089,6.47187635 4.47429597,6.41870328 4.40325511,6.34075128 C4.36395458,6.29762797 4.35330681,6.21427236 4.35866132,6.1515196 C4.36080682,6.12638182 4.44596124,6.08280701 4.48418989,6.09088462 C4.61783039,6.11912661 4.75893474,6.14545031 4.87645239,6.21017785 C5.20010332,6.38844179 5.5161644,6.57633093 5.88363592,6.65795181 C6.09432532,6.70474865 6.29085022,6.66740161 6.48152361,6.58936901 C6.51165706,6.57703744 6.5406529,6.47087962 6.52089735,6.44292036 C6.41684322,6.29565951 6.29841693,6.15836219 6.1820675,6.02005522 C6.11110364,5.93570007 6.03489289,5.85575929 5.961039,5.77383615 C5.97704314,5.75186558 5.99304815,5.72989511 6.00905229,5.70792454 C6.08963561,5.7354044 6.17395372,5.7551339 6.25009953,5.79182256 C6.47404489,5.89972726 6.69474701,6.01436228 6.91671838,6.12636325 C6.92525313,6.11406785 6.9337869,6.10177342 6.94232068,6.08947899 C6.88227069,6.01177821 6.82750289,5.92921719 6.76125936,5.85721403 C6.46695185,5.53731996 6.17199265,5.21792756 5.87144979,4.90392214 C5.77265286,4.80069975 5.75930785,4.71575125 5.86755838,4.61419865 C5.90388079,4.58012285 5.92278138,4.52747731 5.95228715,4.47897732 C6.2227725,4.46161022 6.40541183,4.63668469 6.60582436,4.77905099 C6.87636901,4.97123667 7.14707233,5.16471754 7.43077281,5.33600074 C7.52409194,5.39234199 7.69768106,5.4372501 7.76498528,5.38943806 C7.89824282,5.29477453 7.92917553,5.11431035 7.88313993,4.9478345 C7.78237551,4.58344678 7.55371167,4.29003594 7.32927864,3.99688654 C7.21134274,3.8428424 7.06970163,3.70645285 6.95772476,3.54863785 C6.92361279,3.50056156 6.92538739,3.38955361 6.95876232,3.33921583 C7.01967924,3.24733383 7.09448532,3.30154349 7.16068986,3.36448807 C7.43596321,3.62621156 7.69918965,3.90417281 7.99772876,4.13647393 C8.16651325,4.26780851 8.38817865,4.35028708 8.59897101,4.40331733 C8.82297578,4.45967336 8.96959029,4.25078364 8.87680617,4.04206911 C8.77328706,3.80920886 8.66140664,3.57998599 8.56213779,3.34538351 C8.5417184,3.29712639 8.56091114,3.23210767 8.56184574,3.17481519 C8.61653936,3.20120558 8.68217097,3.21607854 8.72411118,3.25590106 C8.95575401,3.47585399 9.0943754,3.79440824 9.42948446,3.90813374 C9.54629385,3.81354896 9.55840463,3.6915901 9.51374783,3.54833189 C9.37261383,3.09557801 9.23345286,2.64215019 9.10068581,2.18689567 C9.07432876,2.09651478 9.07972965,1.99687221 9.06942021,1.89050342 C9.12048015,1.88755826 9.15173,1.88652256 9.18283703,1.88383971 C9.43605911,1.86200272 9.40850322,1.87775642 9.54434493,2.11388732 C9.77538324,2.51549774 9.90076811,2.98654115 10.2822809,3.29605354 C10.4581351,3.21659304 10.5816081,3.07457257 10.6113244,2.90340439 C10.6388821,2.7446789 10.6081033,2.56597367 10.5645109,2.40659543 C10.4337744,1.92860831 10.2842104,1.45577026 10.1409921,0.977575958 C10.2859155,0.864394708 10.3190381,0.866023278 10.4215253,1.03050928 C10.6111881,1.33491196 10.78664,1.64843807 10.9832742,1.94814958 C11.1570562,2.21303192 11.3432272,2.47481665 11.6863332,2.54404937 C11.7694384,2.56081846 11.8539475,2.57063362 11.9420226,2.58429937 C12.0137142,2.41543799 12.0089578,2.26058447 11.9766769,2.09782106 C11.9465361,1.94583812 11.9396712,1.78923772 11.9213816,1.62401137 C12.0473265,1.64166683 12.1038809,1.67913054 12.1367459,1.79683972 C12.1906746,1.98998868 12.2826011,2.17312599 12.3651724,2.35749918 C12.4362577,2.51622087 12.5556808,2.58799693 12.7402087,2.52419465 C12.8504805,2.28987412 12.7543761,2.04408429 12.7432425,1.80060504 C12.7316517,1.54708332 12.7012011,1.29439712 12.6907908,1.04086111 C12.6861344,0.927398889 12.7737699,0.895028653 12.8781319,0.941429514 C13.0478342,1.01688183 13.0698882,1.1700011 13.1183483,1.32250329 C13.2282567,1.66837981 13.3557203,2.0087724 13.4821046,2.34914419 C13.4927357,2.37777565 13.5493569,2.40659708 13.5838148,2.40567367 C13.6667254,2.40345117 13.7491612,2.38361132 13.865317,2.36571115 C13.8221325,2.02577793 13.7810342,1.70225533 13.7382687,1.365602 C13.8414828,1.32978115 13.9040955,1.36501837 13.9495943,1.50768868 C14.0123126,1.70436097 14.1077365,1.89157646 14.1997428,2.07760282 C14.2635757,2.20666581 14.3420394,2.20149028 14.4278558,2.0866299 C14.6578937,1.77873597 14.7015901,1.41482668 14.7587176,1.05137171 C14.8133936,0.703518958 14.8876647,0.358745819 14.9533222,0.0126189583 C14.9642666,0.0126189583 14.9752093,0.0126189583 14.9861537,0.0126194444 Z M8.88181583,18.1188021 C9.41107524,18.439691 9.82179985,18.9307978 10.4810514,19.0644364 C10.7053305,18.8438947 10.744211,18.5129774 10.7306389,18.1691463 C10.7226837,17.9676045 10.6947383,17.7669083 10.6834703,17.5654053 C10.6805283,17.5127709 10.7063235,17.4585326 10.7189193,17.4050304 C10.737576,17.4078305 10.7562329,17.4106325 10.7748896,17.4134307 C11.0840561,18.3201141 11.1071495,19.2450203 10.9313536,20.1878637 C11.2799236,19.4626265 11.474659,18.6605238 12.1139862,18.0334938 C12.1069192,18.1416646 12.1214667,18.215118 12.0954685,18.2690113 C11.9231867,18.6261457 11.7418092,18.9788814 11.5645476,19.3336273 C11.5415868,19.3795749 11.5252563,19.4288398 11.5014008,19.4875231 C12.1576177,19.7008235 12.7869341,19.9287697 13.4604865,20.045235 C13.4761522,19.9096121 13.4981876,19.7967851 13.5006762,19.6835296 C13.5102688,19.2471026 13.3961362,18.8346952 13.2441542,18.4306954 C13.2034453,18.3224782 13.2027907,18.3227249 13.3147388,18.244452 C13.7619898,19.0547399 14.0871697,19.9034946 14.1674657,20.6899464 C14.2617343,20.138658 14.3781384,19.4540814 14.4964767,18.7698386 C14.515024,18.6626005 14.5746048,18.5980872 14.7209107,18.6126847 C14.7339951,18.6986884 14.7676963,18.7895245 14.7567648,18.8746307 C14.7312784,19.0730572 14.6824288,19.2683814 14.6465413,19.4656007 C14.6014746,19.713255 14.5599016,19.9615474 14.517062,20.2081856 C14.9732529,20.2980927 16.0824072,20.1853398 16.4057364,20.1063993 C16.5174434,19.5520049 16.1057481,19.1807198 15.9237456,18.7291983 C15.9033754,18.6786612 15.8455525,18.6411176 15.8004507,18.6030568 C15.6757371,18.4978122 15.6765863,18.4589817 15.823035,18.3562387 C16.6555047,19.1325786 16.8809271,20.2093408 17.2338594,21.2231805 C17.2332011,21.1831281 17.2182753,21.1478561 17.2132704,21.1112268 C17.0902721,20.2112934 16.900715,19.3158159 17.0189791,18.3993193 C17.0266561,18.3398219 17.0900829,18.2373812 17.1200569,18.2400311 C17.2211811,18.2489672 17.2614041,18.3202936 17.2588582,18.4358354 C17.2507045,18.8057612 17.2536919,19.1761932 17.2640151,19.546106 C17.2671898,19.6597731 17.3077615,19.7723963 17.3390577,19.9233733 C17.7106078,19.7805573 18.0582516,19.6578947 18.3965269,19.5133135 C18.6504954,19.4047607 18.8942816,19.2714985 19.1380511,19.1407545 C19.1832828,19.1164957 19.2356725,19.0520119 19.2359061,19.0058438 C19.2379106,18.608592 18.9405278,18.18924 18.5692019,18.039587 C18.4998727,18.0116473 18.4364719,17.9662469 18.3755058,17.9218125 C18.3548538,17.9067607 18.3339625,17.8621112 18.3422069,17.844847 C18.3527305,17.8228079 18.396577,17.7982097 18.4192558,17.8035614 C18.5326281,17.8302977 18.6595336,17.8423084 18.7531031,17.9033208 C19.2945411,18.2563662 19.7880233,18.6680561 20.2132314,19.157633 C20.2649775,19.2172138 20.312848,19.280164 20.3625117,19.3415509 C20.2680985,19.1261254 20.1563914,18.9219522 20.0605632,18.7105803 C19.9663132,18.5026891 19.8824773,18.2895649 19.8045475,18.0749312 C19.7252585,17.8565499 19.6474474,17.6364235 19.5898841,17.4117095 C19.534242,17.1944964 19.5052267,16.9704666 19.4645178,16.7494299 C19.4861676,16.7441505 19.5078136,16.7388711 19.5294633,16.7335917 C19.7483249,17.277724 19.9671847,17.8218547 20.1881474,18.3712145 C20.6635958,18.0287556 20.964198,17.5384091 21.3304818,17.1078474 C21.3461604,17.0894168 21.3470653,17.0566316 21.3506314,17.0299677 C21.3755429,16.8437522 21.2658552,16.6629274 21.0903135,16.591473 C21.0409391,16.5713735 20.9870198,16.5483442 20.9524748,16.5107636 C20.9285571,16.484745 20.9179057,16.4241164 20.9320081,16.3927424 C20.9430287,16.3682258 21.0019159,16.3528754 21.0382615,16.355019 C21.0912,16.3581418 21.146117,16.3738056 21.1947496,16.3960283 C21.4399637,16.5080841 21.683416,16.6240005 21.913606,16.732047 C21.8148295,16.4261136 21.7092548,16.1145688 21.6170649,15.7991114 C21.600765,15.7433358 21.6402946,15.6712473 21.6540409,15.6066912 C21.7042776,15.6530022 21.7570751,15.6969395 21.8033898,15.7468869 C21.8200568,15.7648594 21.8216498,15.7971365 21.8292286,15.8231459 C21.8663715,15.9506207 21.9032141,16.0781807 21.945642,16.2246423 C22.3803037,15.8026774 22.806795,15.4103175 23.2084101,14.9939603 C23.9050344,14.2717642 24.1795624,13.3961192 24.0673286,12.4050901 C23.9911512,11.7324537 23.6711821,11.1432417 23.3723491,10.5510219 C23.2922682,10.3923197 23.1320009,10.3856198 23.0266303,10.5289401 C22.9392674,10.6477624 22.8787205,10.7862966 22.7988899,10.9293646 C22.8639579,10.9491229 22.8997285,10.9586469 22.9345907,10.9707763 C23.2601915,11.0840577 23.5366461,11.2646082 23.5901779,11.6291433 C23.6450115,12.0025126 23.5927926,12.3739497 23.3730983,12.694438 C23.2453584,12.8807833 23.2523976,13.0724543 23.2895869,13.272737 C23.3093266,13.3790387 23.3412162,13.4842053 23.3783777,13.5859544 C23.5513957,14.0597247 23.3496703,14.8322353 22.8470961,15.1274524 C22.449099,15.361238 22.0396288,15.4826675 21.5963202,15.2624744 C21.3914572,15.1607179 21.2405563,15.1951312 21.1282484,15.4034212 C21.0641003,15.5223899 21.0239606,15.6541204 20.963078,15.7751067 C20.9268715,15.8470579 20.8713851,15.909309 20.8245679,15.9759198 C20.8074596,15.9704994 20.7903475,15.9650772 20.7732372,15.9596551 C20.7682806,15.8866523 20.7427347,15.8076155 20.7620442,15.7417225 C20.8333149,15.4985241 20.8734101,15.2278182 21.0120574,15.0275762 C21.1708876,14.7981892 21.1556318,14.6016782 21.080222,14.3714919 C21.0313669,14.2223564 21.0015116,14.0667769 20.9489682,13.9191266 C20.8792328,13.7231738 20.7956769,13.5321369 20.7180587,13.338988 C20.6967539,13.3318876 20.6754471,13.3247872 20.6541405,13.3176869 C20.5520113,13.4148464 20.4376302,13.5021704 20.350169,13.6111052 C20.1328465,13.8817759 19.9357366,14.1689024 19.7139265,14.4356271 C19.6252729,14.5422328 19.4929193,14.6122407 19.3275747,14.5735678 C19.3380612,14.5364453 19.3385525,14.5187157 19.3471717,14.506933 C19.3857536,14.4541819 19.424113,14.400904 19.4671121,14.3518078 C19.8307089,13.9366856 20.1807986,13.511611 20.4091193,13.0028506 C20.6310146,12.508406 20.8075262,12.0016613 20.7237034,11.4465362 C20.6762446,11.1322525 20.5699393,10.8293362 20.2964703,10.6480237 C20.0311697,10.4721258 19.743639,10.3202291 19.4481327,10.2022172 C19.1793534,10.0948808 18.8867324,10.0472366 18.5871187,9.9686894 C18.6729888,9.71757753 18.9127863,9.88999754 19.044502,9.80438326 C19.0093487,9.57979624 18.9752062,9.36166253 18.938308,9.12593354 C18.8456842,9.16070663 18.76277,9.19183592 18.6696789,9.22678604 C18.6145281,8.80313924 18.7871327,8.46441789 19.0083957,8.15091492 C19.4382935,7.54180739 20.027131,7.10950625 20.6526979,6.72262879 C20.6713788,6.71107519 20.6994539,6.71470975 20.7644884,6.70524876 C20.7161358,6.78914221 20.6898724,6.84430775 20.6550697,6.89342432 C20.5062345,7.10347682 20.5104699,7.10521243 20.6588693,7.320243 C20.9959746,7.8087101 21.3284237,8.30040381 21.6604665,8.79233571 C21.7104937,8.86644918 21.7481744,8.94889528 21.817346,9.07418089 C21.6710234,9.05823985 21.5715163,9.04739831 21.4681093,9.03613113 C21.5804951,9.43650186 21.6459968,9.84205279 21.5203432,10.2423716 C21.4439692,10.4856924 21.3250931,10.7203996 21.1941934,10.9404702 C21.0774518,11.136742 20.9627981,11.3109393 21.051702,11.5567357 C21.0863063,11.6524136 21.0635496,11.7734944 21.0497957,11.8808067 C21.0332176,12.0101451 20.9984204,12.1371488 20.9715081,12.2651613 C21.0998265,12.1946175 21.2134343,12.1146294 21.2944943,12.0095369 C21.4540422,11.8026805 21.5845469,11.5730746 21.7479259,11.3696338 C21.8797769,11.2054556 22.042277,11.0658959 22.2055224,10.9009185 C22.1816307,10.8273836 22.1333374,10.7065864 22.10328,10.5814074 C21.9737155,10.0418553 22.0540021,9.49440722 22.0454442,8.95000692 C22.0408286,8.65662107 22.0359999,8.35857429 21.982889,8.07158324 C21.8728082,7.47670243 21.6552576,6.91364713 21.4037146,6.36418708 C21.3786306,6.30938963 21.362633,6.25043193 21.342413,6.19340546 C21.3541919,6.18089033 21.3659709,6.16837521 21.3777498,6.15586106 C21.4612259,6.18914411 21.5447039,6.22242726 21.6041883,6.24614365 C21.6933017,6.08052181 21.7670629,5.903275 21.8763444,5.75162301 C21.9856685,5.59991357 22.1305039,5.47379068 22.2346099,5.36318329 C21.9772183,5.46278036 21.6955066,5.58977854 21.4024017,5.67959574 C21.1617087,5.75335221 20.9268419,5.72249183 20.7592665,5.49367972 C20.6852272,5.39258242 20.6025465,5.29779367 20.5233595,5.20049133 C20.4574849,5.11954819 20.3909855,5.03911781 20.3172299,4.94928768 C20.2969264,4.98663365 20.2860803,4.99960776 20.2824031,5.01436765 C20.1712097,5.46067851 20.0619764,5.90748258 19.9486468,6.35324735 C19.9333908,6.41325183 19.8980856,6.46816061 19.8720651,6.52542897 C19.8499778,6.51807829 19.8278941,6.51072849 19.8058086,6.50337781 C19.7317229,5.81419592 19.9236387,5.16566915 20.1576579,4.49706794 C19.7420554,4.96898481 19.2936603,5.33967272 18.6600639,5.41051233 C19.0705187,5.09733856 19.5512559,4.8705894 19.8481066,4.43150867 C19.5346649,4.12067318 19.084152,4.02971654 18.810212,3.69390651 C18.9220915,3.54365832 19.0261474,3.66425704 19.0967487,3.67456172 C19.1395642,3.37509638 19.1808108,3.08660508 19.2220594,2.79811476 C19.2463646,2.82048122 19.2706697,2.84284768 19.2949712,2.86521414 C19.0695748,3.05496596 18.8423221,3.24257869 18.6197369,3.4355719 C18.5358806,3.50828071 18.4546834,3.55479746 18.3394902,3.51396714 C18.1205785,3.43637301 17.897487,3.37015544 17.6804631,3.28779558 C17.5303558,3.23083036 17.3875195,3.15471236 17.2290008,3.08140272 C17.2290008,3.59398958 17.2290008,4.08220721 17.2290008,4.57133999 C16.9616679,4.61134518 16.9482423,4.60483635 16.9302049,4.32909847 C16.9095343,4.01302718 16.8912687,3.69647104 16.8850288,3.37986765 C16.877361,2.99062497 16.8832023,2.60111619 16.8832023,2.19358008 C16.786473,2.52454281 16.7053128,2.83942818 16.6017761,3.14677368 C16.4813369,3.50428449 16.2906894,3.81984672 15.9708315,4.03896238 C15.9280736,4.06825397 15.8739316,4.08092485 15.8250597,4.10129232 C15.8149478,4.08597156 15.8048361,4.07065079 15.7947242,4.0553309 C16.1749546,3.70177918 16.2936749,3.22896301 16.4291012,2.72314924 C16.1894707,2.67388149 15.9634586,2.62509314 15.7364841,2.58129667 C15.4043132,2.51720136 15.1605623,2.36133081 15.1068487,1.99738535 C15.0645524,1.71078882 15.0198325,1.42455056 14.9761881,1.13815343 C14.9786526,1.33854603 14.9592614,1.54418143 14.9255713,1.74744733 C14.8519085,2.19190747 14.6403512,2.52107897 14.1618689,2.60423518 C13.9968692,2.63291019 13.8288134,2.64399654 13.6302664,2.66677551 C13.663977,2.81831249 13.6879502,2.97182258 13.7330169,3.11886643 C13.8186849,3.39836953 13.9185982,3.67348431 14.0070293,3.95218639 C14.0220032,3.99937446 14.0091433,4.0553939 14.0091433,4.13255228 C13.7442915,3.92973 13.6517103,3.65690072 13.547634,3.39640117 C13.4432351,3.13509029 13.3625014,2.86435188 13.2704749,2.59806293 C13.1811945,2.33971811 13.0907422,2.08177667 13.0222475,1.88519518 C13.0222475,2.24605218 13.0334497,2.66569353 13.0191155,3.08446046 C13.0046124,3.50817493 12.8660375,3.89446731 12.5761387,4.22700901 C12.6521937,3.76102796 12.7282524,3.29504885 12.8064159,2.81615211 C11.5944064,3.03016642 11.1227567,2.79926811 10.7176239,1.93644889 C10.7641054,2.09632033 10.8290676,2.25180249 10.8633401,2.41377869 C10.9032979,2.60261439 10.9510674,2.80037615 10.9334286,2.98844788 C10.903832,3.3040036 10.6949005,3.50183206 10.3819334,3.60531869 C10.6166295,3.96223888 10.8088049,4.33009704 11.127832,4.60701704 C11.1652364,4.63948421 11.1773362,4.70110297 11.2011667,4.74920707 C11.1861102,4.75815064 11.1710527,4.76709333 11.1559952,4.776037 C11.0726562,4.72509197 10.9860934,4.67870686 10.9065217,4.62243425 C10.5064884,4.33953489 10.2658723,3.92800265 10.0304734,3.5154246 C9.83667358,3.17575932 9.65723675,2.82789957 9.47143468,2.48367165 C9.57150561,2.82853657 9.69936042,3.16066761 9.818459,3.49590928 C9.9977605,4.00061132 10.1243692,4.51652493 10.0943275,5.05755308 C10.0909924,5.11761046 10.0286171,5.17438931 9.99362525,5.23268968 C9.95904593,5.17216963 9.91706586,5.11445064 9.89269487,5.05006513 C9.87834021,5.01214243 9.89946699,4.96226082 9.89173247,4.920125 C9.83571944,4.61494163 9.77641778,4.31036288 9.71059882,3.96606165 C9.52061989,4.14326403 9.3733359,4.28728251 9.2189441,4.42322699 C8.92495557,4.6820864 8.60667111,4.86854569 8.14750951,4.54776535 C8.0962316,4.51194081 8.04005728,4.48312492 7.93732635,4.42201239 C8.17599446,4.86360389 8.39041214,5.26569643 7.89998679,5.64736861 C8.27120506,5.80210439 8.60809804,5.94253188 8.95420079,6.08679886 C8.8867204,6.22617771 8.76616796,6.19723563 8.65866021,6.17775181 C8.26816861,6.10698735 7.91266428,5.94576588 7.5834149,5.72953743 C7.16898525,5.45736926 6.76100512,5.1753905 6.34945529,4.89881544 C6.29995858,4.86555183 6.2455644,4.83957308 6.19344094,4.81021849 C6.18459187,4.82241278 6.1757429,4.83460707 6.16689383,4.84680233 C6.20070082,4.88352346 6.23369551,4.92102985 6.26843525,4.95684603 C6.704586,5.40651329 7.15196961,5.84598525 7.57238699,6.30989858 C7.76361299,6.52090979 7.90529308,6.77776274 8.06204642,7.01863663 C8.13021942,7.12339347 8.10270436,7.22191974 7.99184099,7.31223481 C7.93577886,7.24922528 7.88950964,7.18907058 7.83494483,7.13773424 C7.7447021,7.05283114 7.66189531,6.94212546 7.55331937,6.89803878 C7.25478114,6.77681881 6.95261953,6.75557983 6.64448964,6.90886088 C6.3436974,7.05848976 6.03831569,6.96422115 5.74194989,6.86242472 C5.60204167,6.81437069 5.46405543,6.76071822 5.32519954,6.70960169 C5.3885929,6.82615422 5.47471808,6.90918346 5.55081664,7.00056292 C5.69712335,7.17624658 5.84643237,7.35053851 5.97795149,7.53707296 C6.08088921,7.68307186 6.10118989,7.84746424 6.04858528,8.02990611 C5.96687078,8.31331181 5.90949761,8.60373529 5.84201528,8.89029429 C6.2065884,9.02693419 6.60820806,8.95227375 6.97404312,9.06362849 C6.96944247,9.09167856 6.96484269,9.11972775 6.96024292,9.14777782 C6.109096,9.40752361 5.33878557,9.06000696 4.55939896,8.77983342 C4.82938458,8.96902514 5.10369912,9.1460041 5.3709181,9.33311808 C5.81215911,9.64208525 6.21926958,9.98678606 6.4715701,10.4772883 C6.50044354,10.5334219 6.49887194,10.6052174 6.51141769,10.6697493 C6.49327924,10.6776916 6.47513981,10.6856357 6.45700135,10.6935779 C6.30398737,10.5652483 6.15555549,10.4309032 5.99689028,10.3099892 C5.75555925,10.1260805 5.51426351,10.221688 5.47275264,10.5224347 C5.43783674,10.7754 5.42334858,11.0313768 5.40520089,11.2864041 C5.3900804,11.4988886 5.38404903,11.7120091 5.37064199,11.9246363 C5.36863367,11.9564924 5.34828943,11.9871915 5.32693826,12.0434122 C5.18633743,11.837787 5.16474146,11.6363992 5.19234187,11.4077817 C5.13549167,11.4492917 5.09650264,11.4784998 5.05677093,11.5066565 C4.71563886,11.748401 4.36279462,11.7354928 4.0509875,11.460084 C3.78472082,11.224904 3.52403674,10.9833133 3.26362847,10.7416041 C2.80639217,10.3171952 2.30032299,10.0234765 1.64435794,10.1374755 C1.5173584,10.1595481 1.3886181,10.1917547 1.27105864,10.243065 C1.11204158,10.3124683 1.11084828,10.3539098 1.22684819,10.4790164 C1.28260203,10.539148 1.33082299,10.6088648 1.39502349,10.6577273 C1.44512851,10.6958623 1.51498521,10.7289368 1.57543993,10.7278966 C1.67724608,10.7261479 1.77798542,10.6850496 1.88020603,10.6794884 C2.0444376,10.670554 2.20951092,10.6770925 2.37422831,10.6770925 C2.37620046,10.6927211 2.37817212,10.7083516 2.38014418,10.7239802 C2.12544782,10.7829732 1.87075146,10.8419661 1.60106489,10.9044304 C1.70853151,11.1071683 1.85376644,11.2234223 2.069942,11.228889 C2.29955435,11.2346969 2.52964649,11.2252062 2.75902978,11.2345967 C2.85088864,11.2383574 2.94141419,11.2746807 3.03254651,11.2961821 C3.02965649,11.3205838 3.02676646,11.3449872 3.02387643,11.3693907 C2.70042432,11.3693907 2.37697182,11.3693907 2.01071354,11.3693907 C2.17247362,11.5717578 2.33540067,11.7158086 2.4213876,11.8964796 C2.56839343,12.2053577 2.78790176,12.2973251 3.10788022,12.255027 C3.20817554,12.2417683 3.31634256,12.2880588 3.42090612,12.3070902 C3.41806753,12.3260307 3.41522806,12.3449693 3.41238897,12.363908 C3.19604561,12.363908 2.97970128,12.363908 2.76337406,12.363908 C2.76590524,12.548284 2.79287429,12.5714839 3.04554561,12.5851748 C3.18101826,12.5925125 3.31721639,12.5864784 3.45308678,12.5864784 C3.45668332,12.6074643 3.46027986,12.628452 3.46387592,12.6494397 C3.29350087,12.6859022 3.12312583,12.7223627 2.95388197,12.758584 C3.08627404,13.0171958 3.2211829,13.2656754 3.34076643,13.5213221 C3.3925009,13.6319203 3.46566967,13.6502692 3.56263814,13.6175916 C3.6498421,13.5882035 3.73134008,13.542269 3.81682457,13.5072159 C3.85539496,13.4914019 3.89753496,13.4842923 3.93805562,13.4732328 C3.94800612,13.4928946 3.95795672,13.5125583 3.96790625,13.5322202 C3.87670899,13.590299 3.79047025,13.6590163 3.69331297,13.7043092 C3.47010844,13.8083633 3.46700978,13.8050718 3.577168,14.0299916 C3.5931874,14.0626989 3.61739661,14.0913952 3.64231282,14.1286773 C3.79850012,14.0328213 3.94708358,13.9416311 4.09566656,13.8504426 C4.10915983,13.8688268 4.12265311,13.8872128 4.13614736,13.905597 C4.04437756,13.9817113 3.94555554,14.0509961 3.8631039,14.1361338 C3.79899197,14.2023328 3.70334835,14.2951698 3.7124816,14.3641523 C3.73744467,14.5526838 3.81038749,14.7348643 3.8727466,14.9483872 C4.05230768,14.7974752 4.20936979,14.665472 4.38915342,14.5143746 C4.37832762,14.5711849 4.38280403,14.6097484 4.36567901,14.6276708 C4.23866878,14.7605938 4.10735179,14.8894017 3.97741818,15.0195319 C3.94458565,15.0524154 3.88169483,15.0877597 3.88404664,15.1179691 C3.89813103,15.2989164 3.92724082,15.4786935 3.95231006,15.6663183 C3.98071615,15.655105 4.00097794,15.6487278 4.01980162,15.6394393 C4.59540258,15.3554059 4.92107758,14.8864106 5.03079033,14.261782 C5.04996537,14.1526118 5.07186274,14.0593278 5.19629347,14.0287734 C5.41913089,13.9740548 5.41859685,13.9729755 5.36970826,13.7480149 C5.35587374,13.6843563 5.336758,13.62072 5.33273592,13.5562845 C5.32406768,13.4174221 5.30422035,13.2715168 5.49922372,13.1527001 C5.53482572,13.3441968 5.56616171,13.5127569 5.60045821,13.6972311 C5.96896631,13.4958525 5.97502267,13.0598241 6.21990853,12.7655361 C6.24726881,12.8018687 6.28450822,12.8283695 6.28594624,12.8566875 C6.30597713,13.251141 6.02042224,13.5076667 5.85436094,13.7870251 C6.05140501,13.8876023 6.24556187,13.9788352 6.42958361,14.0872693 C6.46640575,14.1089654 6.46459314,14.19623 6.48059446,14.2532611 C6.43399147,14.2587741 6.38147767,14.2807354 6.3419546,14.2665365 C6.24565453,14.2319414 6.15747942,14.1753072 6.0621436,14.137302 C5.94100899,14.0890105 5.81603672,14.0503507 5.65625521,13.9948774 C5.75580415,14.5338008 6.06016036,14.9171096 6.26486204,15.3747932 C6.60486206,14.8440364 6.92851211,14.3388012 7.25786056,13.8246706 C7.37105756,13.9395542 7.40949951,14.0488969 7.34160467,14.1783113 C7.25361496,14.3460276 7.16885186,14.5159766 7.07059364,14.6776069 C6.98387511,14.8202522 6.88053868,14.9527967 6.78454087,15.0898011 C6.79214939,15.101174 6.79975781,15.1125486 6.80736632,15.1239215 C7.05831126,15.0128931 7.31085746,14.9052953 7.55941219,14.7891545 C7.65900187,14.7426192 7.73934972,14.721943 7.80668642,14.8529039 C7.75196129,14.8817968 7.70568186,14.9071349 7.65862358,14.9309338 C7.25293732,15.1361121 6.89991964,15.4017371 6.64917954,15.7903715 C6.60350746,15.8611619 6.57682861,15.9139892 6.63551467,15.990632 C6.77452912,16.1721838 6.90259072,16.3622063 7.04366726,16.5420706 C7.2931074,16.8600908 7.57773042,17.1430913 7.90726251,17.3895088 C8.17499132,16.9448224 8.33982226,16.478349 8.41825182,15.9794168 C8.42662518,15.9261483 8.46859319,15.8781591 8.49497814,15.8277203 C8.5175755,15.8335876 8.54017179,15.8394511 8.56276731,15.8453182 C8.57081244,15.9338438 8.59699517,16.0252549 8.58346942,16.1103517 C8.54436265,16.3563743 8.50459303,16.6041603 8.43740469,16.8434812 C8.27681186,17.4155107 8.10034293,17.9830841 7.9486261,18.4910471 C8.09199922,18.3255764 8.27450235,18.104777 8.46817981,17.8942562 C8.66368942,17.6817477 8.86385442,17.4725788 9.07439361,17.2751889 C9.20350949,17.154134 9.35301403,17.0536365 9.50004679,16.9537437 C9.53569235,16.9295257 9.59773296,16.9441529 9.64763674,16.9409189 C9.640414,16.9949552 9.64016735,17.0513391 9.62310067,17.1020634 C9.61422661,17.1284362 9.57486026,17.143935 9.55061994,17.1658425 C9.26030875,17.4282397 9.01038279,17.7192807 8.88181583,18.1188021 Z M20.9698391,12.9758033 C21.0243687,13.179919 21.076964,13.3778337 21.1301361,13.5755926 C21.2454796,14.0046004 21.3324976,14.4459526 21.6133118,14.8083367 C21.6812855,14.8960556 21.7667922,14.9948525 21.8651811,15.0301041 C22.3046957,15.1875843 22.9015292,14.8899065 23.0385651,14.4357276 C23.1033492,14.2210161 23.1488369,13.9820698 23.1228219,13.7636607 C23.0978622,13.554108 22.981037,13.3507581 22.8807881,13.1569935 C22.8336204,13.0658236 22.7294533,13.0234736 22.6112652,13.0792251 C22.5003202,13.1315553 22.4403834,13.2092792 22.4425808,13.3323535 C22.4440439,13.4142979 22.4507827,13.4963649 22.4478046,13.578109 C22.4450008,13.6550671 22.432558,13.7316747 22.4243561,13.8084362 C22.4080154,13.8082545 22.3916748,13.8080747 22.3753359,13.8078929 C22.362411,13.7140156 22.3496529,13.620116 22.3365389,13.5262646 C22.2797026,13.1195482 22.2104587,12.9762112 21.7963192,12.9197346 C21.7425667,12.9124062 21.6893352,12.8967127 21.635542,12.8950234 C21.4102679,12.8879489 21.1794567,12.843815 20.9698391,12.9758033 Z M22.7014764,11.8684403 C22.7134649,11.8776973 22.7254515,11.8869525 22.7374381,11.8962094 C22.7302636,11.9307822 22.7336997,11.9736441 22.7142047,11.9985927 C22.5820607,12.1677072 22.4516208,12.3390229 22.3070767,12.4972449 C22.2266287,12.5853032 22.2055872,12.7530084 22.3002563,12.8032172 C22.4625042,12.8892691 22.8431036,12.878918 22.9811891,12.6979578 C23.1017897,12.5399157 23.2126753,12.3651602 23.2843113,12.1808639 C23.4718322,11.6984319 23.2760352,11.3426846 22.7768341,11.2153416 C22.7453024,11.2072992 22.7131403,11.1978808 22.6809949,11.1967182 C22.4224387,11.1873777 22.1736031,11.1534558 21.9790651,11.4151941 C21.6660072,11.8363857 21.4037052,12.3023454 20.9515698,12.6404799 C21.7163534,12.7534424 22.2540937,12.4154637 22.7014764,11.8684403 Z M20.7820288,10.8087661 C21.2219439,10.5276886 21.3877039,9.53954478 21.1660812,9.05919243 C21.0903136,8.89497807 20.992455,8.82864461 20.814714,8.84223803 C20.4399446,8.87090099 20.0643204,8.88850638 19.6889965,8.90978336 C19.3230688,8.93052728 19.2634991,8.99668272 19.2872016,9.35946268 C19.2879137,9.37036547 19.2874871,9.38137851 19.2887518,9.39220431 C19.3267329,9.71695774 19.434455,9.95113826 19.8093356,10.0426234 C20.2285598,10.1449306 20.5749091,10.3983039 20.7820288,10.8087661 Z M21.2216529,8.63651279 C21.1855539,8.56077026 21.1682897,8.50304194 21.1346404,8.45739397 C20.8961818,8.13389597 20.6560173,7.8116219 20.4128968,7.49161379 C20.2982394,7.3406934 20.2013228,7.32438885 20.0422738,7.42983374 C19.9429799,7.49566193 19.8536049,7.57625915 19.7576304,7.64732315 C19.3762298,7.92973212 19.2196897,8.36473964 18.9730311,8.76382626 C19.7311722,8.68363689 20.452901,8.48386408 21.2216529,8.63651279 Z M25.016262,14.185529 C25.0304386,14.1765836 25.0446171,14.167638 25.0587918,14.1586945 C25.1165794,14.2215204 25.173757,14.2849212 25.2322697,14.3470648 C25.3929431,14.5177203 25.4208217,14.5181987 25.5630424,14.3864348 C25.4081823,14.1820502 25.2514735,13.9853371 25.1064565,13.7803518 C25.0064245,13.6389619 24.9373679,13.4736711 24.8268124,13.3423447 C24.7385464,13.2375007 24.608546,13.1677932 24.4938108,13.0799963 C24.3756339,13.5290535 24.2688614,13.9347629 24.1571803,14.359133 C24.1905811,14.3815745 24.2495981,14.4212302 24.3226936,14.4703449 C24.3153448,14.359183 24.3097853,14.2751301 24.3042278,14.1910772 C24.413246,14.2951888 24.4693406,14.4210966 24.5585653,14.515788 C24.6640677,14.6277583 24.8085117,14.6283073 24.9508752,14.5735311 C24.8957133,14.427101 24.8425746,14.2860412 24.7894358,14.1449814 C25.0035298,14.2300968 24.9655191,14.5380292 25.261272,14.5852155 C25.1942441,14.4916793 25.1471208,14.4334114 25.1085742,14.3699328 C25.0730148,14.3113719 25.0466662,14.2472182 25.016262,14.185529 Z M22.3167936,9.27102974 C22.6461069,9.26721347 22.8138381,9.37018736 22.8324373,9.57839662 C22.8541742,9.82174793 22.7319177,9.945551 22.3938258,10.0081785 C22.4302214,10.2392401 22.4666913,10.4707763 22.5097145,10.743919 C22.6104307,10.6470487 22.6956963,10.5856821 22.7544279,10.5050024 C23.0185602,10.1421677 22.9619593,9.53101392 22.8046441,9.17945651 C22.7831354,9.13138946 22.7078239,9.08711922 22.6519352,9.07903422 C22.5430819,9.06328694 22.4303401,9.07441782 22.3079075,9.07441782 C22.3106519,9.13513903 22.3137358,9.20335558 22.3167936,9.27102974 Z M23.051694,8.90281467 C22.8514223,8.56736154 22.641445,8.28782782 22.306628,8.04920608 C22.3235305,8.30073883 22.3335756,8.51014043 22.3559689,8.71821154 C22.3592975,8.74911829 22.4173948,8.79049101 22.4560399,8.79845371 C22.6400542,8.83636717 22.826101,8.86440518 23.051694,8.90281467 Z M15.6421192,21.5416498 C15.7099668,21.2846457 15.7709884,21.0725655 15.8211491,20.8579448 C15.868313,20.6561471 15.7756503,20.5552936 15.5663981,20.5823007 C15.4831927,20.5930412 15.4037293,20.6327487 15.3135441,20.6622128 C15.4200551,20.9472937 15.5232395,21.2234664 15.6421192,21.5416498 Z M6.45031917,17.645668 C6.60816839,17.5286259 6.79002061,17.3804991 6.98592611,17.2541648 C7.08298549,17.1915744 7.07736497,17.1228237 7.0419966,17.0479833 C6.98220814,16.9214691 6.8863411,16.8294387 6.74351125,16.7998338 C6.63973256,17.099225 6.53870194,17.3906869 6.45031917,17.645668 Z M12.5879847,21.3645856 C12.6600324,21.1038579 12.7341589,20.8439313 12.8019267,20.582358 C12.8135405,20.5375362 12.8134423,20.4530457 12.792245,20.443045 C12.7210706,20.4094513 12.6379543,20.3913211 12.5592995,20.3909596 C12.5416274,20.3908761 12.5048924,20.4882711 12.5086957,20.5383817 C12.5295239,20.8128077 12.5602452,21.0864825 12.5879847,21.3645856 Z M9.45230154,19.9645943 C9.58539497,19.7737002 9.71786356,19.5893521 9.84211443,19.399617 C9.86155003,19.3699398 9.86072763,19.2919395 9.8400014,19.2770638 C9.74884351,19.2116324 9.64694694,19.1611603 9.53045479,19.0947239 C9.50150989,19.416883 9.476985,19.6898532 9.45230154,19.9645943 Z M18.7192146,20.7000937 C18.6389984,20.4402116 18.5586227,20.179814 18.4697818,19.8919977 C18.3563447,19.9698403 18.2620075,20.0345781 18.1581258,20.1058637 C18.3567619,20.3162305 18.5378297,20.5079942 18.7192146,20.7000937 Z M21.3126522,17.6401308 C21.2381864,17.7549067 21.174754,17.8526746 21.1092671,17.9536096 C21.3256198,18.0581143 21.514322,18.149262 21.6963559,18.2371887 C21.5762244,18.0502592 21.4545743,17.8609655 21.3126522,17.6401308 Z" id="Shape"></path>
                        <path d="M14.0720066,13.5059537 C14.049654,13.5270639 14.0365362,13.5500376 14.0184969,13.5549554 C13.4334053,13.714455 13.058571,14.1274707 12.7339456,14.6065927 C12.6179753,14.7777544 12.4849505,14.9379328 12.3529214,15.0975084 C12.1580275,15.3330686 11.9093068,15.475063 11.5406262,15.5700678 C11.5775819,15.7742355 11.6147378,15.9795027 11.654845,16.2010791 C11.867209,16.0661147 11.8912638,15.7486118 12.20661,15.73147 C12.097907,15.8636548 11.9879115,15.9948031 11.8808478,16.1283045 C11.7663741,16.27105 11.6546642,16.4160133 11.5417462,16.5600067 C11.5278616,16.5549498 11.5139771,16.5498929 11.5000916,16.5448343 C11.4802035,16.3203483 11.4682085,16.0948128 11.4385461,15.871625 C11.3959282,15.5509568 11.38899,15.5592977 11.0769437,15.5100643 C10.6240628,15.4386118 10.1913631,15.2997383 9.78882732,15.0765449 C9.61351738,14.9793408 9.61140522,14.8960149 9.76884747,14.7721673 C9.96164138,14.6205042 10.1638489,14.4778497 10.3383522,14.3071404 C10.4257801,14.2216096 10.4624371,14.0832905 10.5191242,13.9674111 C10.6425036,13.7152005 10.7385449,13.4451213 10.8926956,13.2135925 C11.086489,12.9225181 11.3780956,12.7727391 11.743734,12.7927124 C12.1624741,12.8155842 12.5817595,12.8283014 13.0007091,12.8476239 C13.1936355,12.8565231 13.3791018,12.8425318 13.5546603,12.746292 C13.5992931,12.7218255 13.6687409,12.7426223 13.7515198,12.7426223 C13.6355181,12.9898632 13.4601562,13.1151497 13.2376415,13.1135976 C12.9191076,13.1113742 12.5941206,13.0970381 12.2840353,13.0309169 C11.7649869,12.920239 11.4755759,13.0256431 11.1706753,13.5003535 C10.8392379,14.016383 10.5488014,14.5663584 10.0475095,14.9519963 C10.2330871,15.1309946 10.3321214,15.1207826 10.4599206,14.9210785 C10.5360044,14.8021876 10.6101966,14.6820654 10.6877222,14.5641315 C10.6981345,14.5482933 10.7231313,14.5420423 10.7688258,14.5484157 C10.6978814,14.6836435 10.6220368,14.8166276 10.5586092,14.9552953 C10.5359766,15.0047735 10.54342,15.0680093 10.5371346,15.1249643 C10.6105879,15.107498 10.7097335,15.1140124 10.7526482,15.0680389 C10.8783075,14.9334267 10.9813444,14.7777322 11.0938285,14.6307477 C11.1130693,14.6056063 11.1351892,14.5826678 11.1559785,14.5587111 C11.1693624,14.5664902 11.1827453,14.5742674 11.1961283,14.5820447 C11.0884073,14.7717519 10.9806861,14.9614574 10.8729641,15.1511647 C10.8901262,15.1631605 10.9072884,15.1751583 10.9244487,15.1871561 C11.1322203,15.0085249 11.2151346,14.7298414 11.4124262,14.5352886 C11.3166556,14.751708 11.2208849,14.9681257 11.1209948,15.1938521 C11.5906113,15.3508428 11.6217359,14.9530645 11.8131965,14.7464955 C11.7657581,14.887813 11.7183215,15.0291325 11.6586916,15.2067752 C12.0721348,15.0284463 12.148416,14.6374011 12.3386406,14.3363466 C12.3535479,14.3429926 12.368457,14.3496387 12.3833642,14.3562829 C12.3006056,14.5474255 12.2178508,14.7385681 12.1350941,14.9297087 C12.1494655,14.9397446 12.1638368,14.9497785 12.17821,14.9598125 C12.3135899,14.7825035 12.460925,14.6129031 12.5814254,14.4260015 C12.7438697,14.174045 12.937983,13.9619017 13.1917994,13.7995798 C13.383732,13.6768337 13.5596409,13.5290499 13.7514677,13.406124 C13.8738545,13.3276972 13.9904366,13.3512161 14.0720066,13.5059537 Z" id="Shape"></path>
                        <path d="M8.21317933,11.7041342 C8.22518083,11.7680875 8.25587428,11.8350747 8.24607214,11.89549 C8.19302147,12.2224742 7.99849565,12.4664216 7.76809153,12.6905182 C7.58645631,12.8671781 7.415072,13.0543783 7.25487331,13.2629983 C7.79855417,13.0767884 8.32320922,12.8357856 8.94656574,13.0567798 C8.87453467,13.0993134 8.83708856,13.1359538 8.79397915,13.144712 C8.10787833,13.2840974 7.42105331,13.4199149 6.68023747,13.5673241 C6.72709635,13.479989 6.74533504,13.416679 6.78594661,13.3753582 C6.96581093,13.1923545 7.16024594,13.0231788 7.33403436,12.8348159 C7.55857404,12.5914413 7.77645565,12.3408237 7.9808226,12.0804669 C8.06465664,11.9736647 8.10572992,11.8332965 8.16625649,11.708199 C8.18189711,11.7068434 8.19753783,11.7054897 8.21317933,11.7041342 Z" id="Shape"></path>
                        <path d="M7.8928746,8.53469322 C8.41020308,9.00789517 8.67119585,9.48833288 8.59169267,9.81746811 C8.5682099,9.78532635 8.54713874,9.76605583 8.53771664,9.74218642 C8.29692432,9.13216189 7.83497196,8.71957362 7.31602919,8.35240068 C7.19646793,8.26780539 7.10567822,8.14151285 7.00667635,8.02994762 C6.99083817,8.01210025 7.00155925,7.97068485 6.99899832,7.92048804 C7.30543333,8.03406149 7.593474,8.1510136 7.88827754,8.24724785 C8.19093985,8.34604662 8.49845413,8.43179721 8.80774951,8.5072505 C8.89129986,8.52763275 8.98911494,8.48121701 9.08018747,8.48226847 C9.13335588,8.48288321 9.18613947,8.51677915 9.23909651,8.53570112 C9.19931668,8.5710556 9.16506461,8.62505661 9.1188649,8.63875571 C8.80545001,8.73169004 8.49493079,8.67660801 8.1860591,8.60518614 C8.1026471,8.58589686 8.01955846,8.56520496 7.8928746,8.53469322 Z" id="Shape"></path>
                        <path d="M16.5473339,16.921241 C16.642513,16.8452694 16.7030395,16.8215483 16.7784177,16.9085738 C17.1130085,17.2948662 17.4529455,17.6765301 17.7729962,18.0395094 C17.7277923,17.7456869 17.6776762,17.4168001 17.6264141,17.0880951 C17.6021163,16.9322838 17.5742007,16.7770288 17.5506613,16.6211081 C17.5352515,16.51904 17.5754523,16.4675665 17.6761983,16.4357883 C17.8295507,17.3017256 17.9832184,18.1694301 18.1368841,19.0371365 C17.8937859,18.8423835 17.7862215,18.5682172 17.6334273,18.3235168 C17.4750533,18.0698747 17.3114778,17.8176994 17.1284592,17.5817294 C16.9497649,17.3513317 16.7436447,17.1422129 16.5473339,16.921241 Z" id="Shape"></path>
                        <path d="M14.4310694,17.3107489 C14.5058561,17.3645014 14.6013559,17.4034784 14.6519819,17.4744617 C14.9287388,17.8625176 15.1072049,18.2977597 15.2555542,18.7590872 C15.2844694,18.5529929 15.3117953,18.346663 15.342741,18.1408765 C15.374191,17.9317485 15.404,17.7221216 15.4452021,17.5148331 C15.4619972,17.4303351 15.5045326,17.3483555 15.6529375,17.3790193 C15.6023578,17.7012414 15.5411526,18.0197846 15.5055302,18.3411631 C15.478054,18.5890474 15.4581567,18.8428657 15.4820261,19.0894853 C15.4969408,19.2435776 15.4246687,19.3626817 15.4052053,19.499725 C15.4005174,19.5327216 15.3265153,19.5665044 15.2793642,19.5767183 C15.2641324,19.5800172 15.2191307,19.511897 15.2109121,19.4717074 C15.0720201,18.7924566 14.8224464,18.1537014 14.5078791,17.538773 C14.4769946,17.4783966 14.4282081,17.4271791 14.3877328,17.3717093 C14.4021784,17.3513911 14.416624,17.331069 14.4310694,17.3107489 Z" id="Shape"></path>
                        <path d="M17.8145006,6.63162432 C17.6426861,6.06737386 17.8002887,5.51192892 17.8736326,4.92428757 C17.5696889,5.29251469 17.3651763,5.73234365 16.87931,5.86983192 C17.33536,5.25687653 17.7838589,4.65407017 18.2604146,4.01355617 C18.2604146,4.11196275 18.2787672,4.18973956 18.2576034,4.25462751 C18.0189353,4.98637543 17.9188848,5.73691368 17.9318078,6.50494046 C17.9326719,6.55623413 17.8948095,6.60817957 17.8749585,6.6598209 C17.8548072,6.65042204 17.834652,6.64102318 17.8145006,6.63162432 Z" id="Shape"></path>
                        <path d="M11.8726516,4.54533567 C11.8800134,5.08121153 11.9867637,5.61609242 11.8227265,6.14602042 C11.8174026,6.16321971 11.7808067,6.17073819 11.7189468,6.20454051 C11.9018764,5.3207104 11.5388675,4.52111956 11.4519616,3.69258293 C11.4761259,3.68394532 11.5002901,3.67530761 11.5244544,3.66666913 C11.6268053,3.82767263 11.7311467,3.98745044 11.8311287,4.14991247 C12.1212944,4.62140836 12.4106999,5.09338181 12.6973701,5.56700657 C12.7279004,5.61744808 12.7384127,5.68000708 12.7582119,5.73694538 C12.6910337,5.71795758 12.5948532,5.72073639 12.5615285,5.67633724 C12.3865486,5.44320904 12.2205698,5.20247049 12.0657228,4.95543825 C11.9860535,4.82833517 11.9360561,4.68263299 11.8726516,4.54533567 Z" id="Shape"></path>
                        <path d="M18.9865939,15.9477338 C18.9717534,15.8713876 19.0015216,15.8084244 19.1286643,15.8609439 C19.3675605,15.9596277 19.6080904,16.0556375 19.8407282,16.1677285 C19.9901327,16.239715 20.1266493,16.3384508 20.2863121,16.4357883 C20.2030121,16.2710279 20.1233133,16.1132027 20.0434364,15.9554665 C19.987097,15.8442119 19.9329847,15.7317335 19.8732983,15.622298 C19.821274,15.5269076 19.8022686,15.432359 19.8609056,15.3346283 C19.880699,15.3016373 19.908114,15.2732172 19.9320446,15.2427091 C19.959315,15.2723512 19.9974833,15.2974074 20.0121792,15.3323399 C20.1719497,15.7120846 20.3256692,16.0943827 20.4863167,16.4737509 C20.5499326,16.6239862 20.6325279,16.7662328 20.695033,16.9168685 C20.7259509,16.9913751 20.7308909,17.0766611 20.747582,17.1570739 C20.7327953,17.1657393 20.7180123,17.1744067 20.7032256,17.1830721 C20.5981665,17.1004007 20.489851,17.0215066 20.3886842,16.9343217 C20.1290821,16.7106072 19.8848082,16.4668433 19.6105511,16.2632245 C19.4368193,16.1342386 19.2203109,16.0628713 18.9865939,15.9477338 Z" id="Shape"></path>
                        <path d="M10.8375848,6.63699274 C10.3700563,6.79751226 10.0449228,6.48506814 9.67582962,6.24685717 C9.81713512,6.54439683 9.95254935,6.81883563 10.0773066,7.09803656 C10.1208962,7.19558554 10.1552558,7.30381283 10.1617943,7.40915204 C10.1664812,7.4846415 10.1178755,7.56343817 10.0678271,7.63361667 C10.0188459,7.02505524 9.66812117,6.57778567 9.34847744,6.11395944 C9.22864085,5.94006807 9.12642908,5.75346314 9.02503885,5.56781876 C8.99935031,5.52078372 9.00762353,5.45520218 9.00029044,5.39814236 C9.01521065,5.39174757 9.03012999,5.38535278 9.04505117,5.37895896 C9.24008235,5.55120183 9.43097274,5.72844961 9.63129903,5.89429487 C9.83651249,6.06418643 10.0410631,6.23860164 10.2653543,6.38023351 C10.3864055,6.45667332 10.5483455,6.46799144 10.6914219,6.51010685 C10.7478076,6.52670433 10.8030585,6.54715989 10.8588258,6.56585932 C10.8517448,6.58957007 10.8446658,6.61328179 10.8375848,6.63699274 Z" id="Shape"></path>
                        <path d="M14.7183294,4.12732056 C14.6007014,4.65158244 14.5540437,5.19358788 14.1673841,5.6200691 C14.3421267,4.83299153 14.5168692,4.04591483 14.6968967,3.23503357 C14.8831121,4.01820776 15.0606492,4.76487686 15.2443632,5.53753764 C15.204956,5.50650576 15.1527723,5.48194928 15.1250032,5.44088436 C14.9328184,5.15669612 14.8452645,4.83323439 14.7846694,4.50067226 C14.7620127,4.37632125 14.7404112,4.25177735 14.7183294,4.12732056 Z" id="Shape"></path>
                        <path d="M8.63417537,15.3437943 C8.89325733,15.2536962 9.15653754,15.1737952 9.40981339,15.0695816 C9.55636772,15.0092813 9.65251194,15.0212105 9.71276688,15.1531839 C9.099601,15.2842431 8.55579035,15.5985917 7.98757721,15.8494337 C7.97426467,15.840097 7.9609531,15.8307584 7.94764065,15.8214198 C7.97001547,15.7712796 7.98289217,15.7134548 8.01626243,15.6722101 C8.28977129,15.3341757 8.58389428,15.0112637 8.8365759,14.6585576 C8.97478925,14.4656348 9.04466549,14.2238105 9.14603074,14.00435 C9.15724503,13.9800708 9.1729014,13.9578425 9.18700942,13.9337914 C9.30220822,13.963834 9.31011064,14.0419418 9.29714956,14.138163 C9.24908804,14.4949542 9.04119407,14.7643808 8.82005619,15.0279475 C8.74719164,15.1147949 8.68032871,15.2066769 8.61072139,15.2962558 C8.61853932,15.3121031 8.62635735,15.3279487 8.63417537,15.3437943 Z" id="Shape"></path>
                        <path d="M12.72686,19.0072737 C12.5440732,18.9127566 12.5779395,18.745999 12.5554442,18.6130502 C12.4707423,18.1124769 12.4500921,17.5962749 12.1605272,17.1506502 C12.1408208,17.120322 12.147261,17.0730042 12.1415422,17.0335878 C12.185435,17.040664 12.2493347,17.0318836 12.2697104,17.0575962 C12.3521946,17.16168 12.4515811,17.2669784 12.4894195,17.3889846 C12.5878216,17.7062668 12.6570228,18.0326019 12.7424331,18.3735142 C12.9375254,17.9845553 13.0274066,17.562889 13.2825897,17.2220471 C13.3007829,17.2204931 13.3189761,17.2189392 13.3371693,17.2173852 C13.3511605,17.2903583 13.4019127,17.3853723 13.3734278,17.4328812 C13.1026976,17.8844232 12.9555814,18.3841324 12.7875888,18.8760885 C12.7740092,18.9158535 12.7523279,18.95285 12.72686,19.0072737 Z" id="Shape"></path>
                        <path d="M10.2787362,15.7770356 C10.4368674,16.2216236 10.3377635,16.6649416 10.2669554,17.0880116 C10.4667393,16.9001179 10.6743645,16.7005547 10.8874293,16.5069791 C10.9549671,16.4456181 11.0327533,16.3916579 11.1142183,16.3511252 C11.1554641,16.3306029 11.2153471,16.347537 11.2708993,16.367362 C10.7905905,16.6353569 10.5393628,17.1027945 10.2116563,17.4983013 C10.1700128,17.5485621 10.1300373,17.6026039 10.0792424,17.6419128 C10.0520565,17.6629524 10.0034322,17.656286 9.96448221,17.6621198 C9.96035347,17.6290268 9.94738306,17.5942055 9.95347374,17.5631152 C10.0107041,17.2709523 10.0851449,16.9813948 10.1265807,16.6871383 C10.1635633,16.4245043 10.1639147,16.1567931 10.1834987,15.8915501 C10.1867596,15.8473902 10.2056973,15.8043875 10.2173901,15.7608487 C10.2378391,15.766245 10.2582882,15.7716412 10.2787362,15.7770356 Z" id="Shape"></path>
                        <path d="M10.1088669,9.22102864 C10.0667015,9.16041778 9.99509136,9.10333103 9.98734285,9.03860164 C9.94876828,8.71635994 9.75901558,8.46784886 9.5984349,8.20653983 C9.49480272,8.03790283 9.36473183,7.88569357 9.25316856,7.7215951 C9.23159018,7.68985486 9.24085838,7.6371435 9.23589606,7.59410556 C9.27334868,7.59400639 9.3215465,7.57864936 9.34653592,7.59624824 C9.52881456,7.72460471 9.69934681,7.87083169 9.88749825,7.98932857 C10.0778351,8.10920133 10.2840166,8.20396228 10.483781,8.30872564 C10.4976062,8.31597715 10.5206477,8.30945908 10.5310729,8.31872164 C10.5729806,8.355949 10.6116081,8.39686653 10.6514482,8.4364211 C10.5946342,8.45245304 10.5285945,8.49553921 10.4825942,8.47985406 C10.2788447,8.4103774 10.0808512,8.32402239 9.85866749,8.23490801 C10.0166029,8.53996432 10.1741658,8.84091503 10.16092,9.18928656 C10.1435695,9.19986657 10.1262183,9.21044668 10.1088669,9.22102864 Z" id="Shape"></path>
                        <path d="M6.724452,11.2677683 C6.6545674,11.558609 6.40088449,11.6831205 6.14429394,11.834815 C6.47058835,11.9326477 6.85685661,11.854093 7.04659638,12.228345 C6.91768544,12.2863626 6.85093101,12.2939339 6.72276179,12.2167775 C6.42123154,12.0352554 6.07315858,11.953094 5.71012176,12.043906 C5.66329993,12.05562 5.61148525,12.071028 5.56700083,12.0614428 C5.52660344,12.0527365 5.49304496,12.0122909 5.45647132,11.9858402 C5.48533456,11.9467669 5.50700286,11.8833531 5.54416985,11.8723659 C5.9385584,11.7557707 6.27064764,11.5332876 6.58615524,11.279599 C6.61590203,11.2556796 6.65542043,11.2439118 6.69040128,11.226503 C6.70175178,11.2402588 6.71310237,11.2540126 6.724452,11.2677683 Z" id="Shape"></path>
                        <path d="M17.256848,15.3700669 C17.3148692,15.207604 17.4071092,15.2295319 17.5062771,15.316765 C17.7795885,15.5571744 18.0512587,15.7994511 18.3343946,16.0505824 C18.2943477,15.8374731 18.253088,15.6311933 18.2176066,15.4239251 C18.1974681,15.3062749 18.1797923,15.1872171 18.1761429,15.0683299 C18.1750563,15.0328781 18.2252151,14.995852 18.2731244,14.9306561 C18.3988431,15.5152545 18.5129701,16.0459668 18.6330125,16.6041701 C18.0954428,16.2626367 17.8619576,15.6126478 17.256848,15.3700669 Z" id="Shape"></path>
                        <path d="M9.46425385,10.0350984 C9.29721343,10.3913129 8.93292682,10.3412544 8.61546107,10.4368414 C8.88343565,10.5892741 9.20507369,10.6479685 9.26904378,11.0166778 C9.09030412,10.8988087 8.92154842,10.7599722 8.73008782,10.6688264 C8.52882693,10.573015 8.30583376,10.5228525 8.06585461,10.4440456 C8.49573385,10.1008394 9.03810464,10.2718009 9.46425385,10.0350984 Z" id="Shape"></path>
                        <path d="M13.5991208,6.16911001 C13.525254,6.41635176 13.4714625,6.61472272 13.4043418,6.80847524 C13.3870758,6.85831874 13.3278417,6.89362401 13.2878876,6.93560788 C13.2620581,6.85944807 13.1933909,6.76424768 13.2173976,6.7102421 C13.3657191,6.3765729 13.4906385,6.03891497 13.5483797,5.64598397 C13.5799058,5.68128925 13.6259238,5.71150154 13.6404324,5.75278813 C13.7014262,5.92635497 13.7418904,6.10772779 13.8107225,6.27780475 C13.905592,6.51221151 14.019285,6.73899965 14.1224712,6.96373222 C13.9507624,6.9664841 13.8417238,6.85158201 13.7780152,6.6819899 C13.7195507,6.52635472 13.6681495,6.36806499 13.5991208,6.16911001 Z" id="Shape"></path>
                        <path d="M16.1028886,5.36061721 C16.089578,5.84382624 16.0430222,6.33184738 16.3026058,6.77120335 C16.1589461,6.83512803 16.0925283,6.81866772 16.0652542,6.69355176 C16.0233549,6.50134294 15.9738488,6.31079196 15.9257669,6.11208539 C15.5604066,6.63298718 15.5604066,6.63298718 15.3347338,6.59362638 C15.4798844,6.40368915 15.6428369,6.23174767 15.7555806,6.03153444 C15.8727358,5.82348929 15.9413436,5.58810525 16.0311803,5.36467731 C16.055083,5.36332368 16.0789858,5.36197093 16.1028886,5.36061721 Z" id="Shape"></path>
                        <path d="M11.5360339,7.87993208 C11.5043428,7.81732778 11.4514294,7.7569941 11.4444514,7.69174719 C11.4033808,7.30766614 11.3727875,6.92246042 11.3396667,6.53754665 C11.3379116,6.51714029 11.345279,6.49594954 11.3563078,6.42235242 C11.4377562,6.4782551 11.5077261,6.5081484 11.5518748,6.56001879 C11.6783992,6.70867225 11.7837884,6.87660838 11.9191961,7.01585179 C11.985475,7.08400622 12.1002509,7.10461568 12.1924278,7.14811825 C12.2441202,7.17251432 12.2944885,7.19971233 12.3457005,7.22577353 C12.3012476,7.35132621 12.2355845,7.37359438 12.141544,7.31011565 C11.9570938,7.18561346 11.773085,7.06045667 11.5733132,6.92500725 C11.5515402,7.23842953 11.659558,7.55647842 11.5874862,7.86767275 C11.5703361,7.8717589 11.553185,7.87584506 11.5360339,7.87993208 Z" id="Shape"></path>
                        <path d="M18.2460006,7.22466101 C17.9903688,7.4528195 17.731004,7.51277858 17.4249445,7.46129864 C17.4576649,7.42979669 17.4851744,7.38135135 17.5239195,7.36942772 C17.8878223,7.25743696 18.2224187,7.10407338 18.4477761,6.77591444 C18.4770936,6.73322319 18.5269539,6.70463811 18.5953818,6.64507404 C18.6021373,6.71256464 18.6191584,6.75421464 18.6074444,6.78489515 C18.4437539,7.21365906 18.2761377,7.64092457 18.0792893,8.08414979 C18.0678608,8.02608489 18.0356449,7.96282599 18.0486292,7.9108611 C18.102174,7.69656951 18.1694338,7.48570385 18.2460006,7.22466101 Z" id="Shape"></path>
                        <path d="M7.13976433,10.5189806 C7.30063435,10.5820662 7.42300494,10.6390082 7.55090058,10.6776792 C7.67782274,10.7160553 7.73789586,10.7791353 7.70092069,10.8809529 C7.41176003,10.7946599 7.12491364,10.7100082 6.83896004,10.6224375 C6.80575301,10.6122681 6.777498,10.5859305 6.74694728,10.5670902 C6.76647096,10.5374556 6.77925587,10.4972919 6.80656239,10.4798163 C7.08106894,10.3041354 7.35663619,10.1299826 7.63573874,9.96175814 C7.67344268,9.93903283 7.73227146,9.95135701 7.78131861,9.94745169 C7.7673821,9.99059172 7.76621757,10.0473706 7.73726907,10.0744795 C7.61950097,10.1847587 7.49596215,10.2894525 7.36884906,10.3889171 C7.31020101,10.434809 7.23842875,10.46393 7.13976433,10.5189806 Z" id="Shape"></path>
                        <path d="M13.268426,15.7377342 C13.3525308,15.998269 13.4319811,16.2443824 13.5045834,16.4692799 C13.5998459,16.3235657 13.6966031,16.1755668 13.7933583,16.0275679 C13.8204266,16.0414145 13.8474928,16.0552629 13.8745611,16.0691094 C13.8562992,16.3985914 13.5897192,16.6386948 13.5480831,16.9722824 C13.331673,16.8610371 13.3940872,16.674957 13.3405257,16.5368493 C13.2633191,16.3377719 13.1824409,16.1400778 13.100261,15.9429902 C13.0781347,15.8899293 13.0456314,15.8411984 13.0178938,15.7904796 C13.0771408,15.7756224 13.1362209,15.7600513 13.1957238,15.7462956 C13.2166484,15.7414595 13.2386059,15.7410831 13.268426,15.7377342 Z" id="Shape"></path>
                        <path d="M15.0536156,15.9429662 C15.1738027,16.0207402 15.2994898,16.0913564 15.4126339,16.1782965 C15.5264828,16.2657799 15.6278554,16.3694983 15.7431173,16.4737175 C15.828485,16.2365662 15.658128,15.9460927 15.9790873,15.8115862 C15.9657897,15.939836 15.9486553,16.06783 15.9400993,16.1963952 C15.9274507,16.3864307 15.9226497,16.5769853 15.9103756,16.7670524 C15.9077109,16.8083306 15.887554,16.8484795 15.8754523,16.8891495 C15.8297589,16.8703481 15.7687002,16.8642342 15.7409459,16.8306201 C15.5954727,16.6544368 15.4634918,16.4670141 15.3160548,16.2925998 C15.2547087,16.2200254 15.1646272,16.1723552 15.0916505,16.1087281 C15.0569924,16.0785113 15.0318101,16.0374258 15.0023368,16.0012638 C15.0194285,15.98183 15.036522,15.9623981 15.0536156,15.9429662 Z" id="Shape"></path>
                        <path d="M9.620653,12.6755144 C9.60439112,12.7392546 9.6030551,12.8126689 9.56915906,12.8649863 C9.45243221,13.0451454 9.32432978,13.2179372 9.19307122,13.4041601 C9.45604635,13.4432984 9.69505104,13.4788707 9.93405486,13.514443 C9.9353205,13.5407769 9.93658604,13.5671107 9.93785168,13.5934427 C9.890748,13.6090954 9.84381582,13.6376897 9.79651653,13.6383073 C9.48525647,13.6423702 9.1739166,13.6404009 8.83573853,13.6404009 C8.95033281,13.4932513 9.08329742,13.3344711 9.20257217,13.1659964 C9.32211671,12.9971377 9.42799735,12.8186048 9.53986853,12.6443129 C9.56679568,12.6547122 9.59372478,12.6651133 9.620653,12.6755144 Z" id="Shape"></path>
                        <path d="M16.6457322,15.2157336 C16.4079282,14.9254788 16.2028352,14.6751485 15.9799515,14.4031056 C16.2474532,14.3577107 16.309847,14.6183085 16.498794,14.6866846 C16.5197094,14.5919376 16.5341197,14.5022549 16.5604479,14.4162216 C16.5771465,14.361655 16.6007767,14.2999194 16.6415209,14.2649738 C16.6735402,14.2375125 16.7365126,14.2461464 16.7857368,14.2387475 C16.7893139,14.2874321 16.8127716,14.346807 16.7932637,14.3830785 C16.6607729,14.6294458 16.6011662,14.8882413 16.6457322,15.2157336 Z" id="Shape"></path>
                        <path d="M14.2098435,14.8355346 C14.28812,14.9545052 14.3663984,15.0734758 14.4495649,15.1998787 C14.5026499,15.0579604 14.5538526,14.9210673 14.6066761,14.7798462 C14.7486779,14.8427926 14.7511702,14.9213603 14.699005,15.0257834 C14.6049961,15.213972 14.518425,15.4058767 14.4134288,15.6287419 C14.3163454,15.3655535 14.2259821,15.1205768 14.1356169,14.875602 C14.1603578,14.8622449 14.1851007,14.8488917 14.2098435,14.8355346 Z" id="Shape"></path>
                        <path d="M18.0010109,13.8670564 C18.1101627,13.7005695 17.9216718,13.4925763 18.1123082,13.3522545 C18.236128,13.8027488 18.2482129,14.1702862 18.1699345,14.2236511 C18.0469344,14.1189944 17.9307027,14.0208372 17.8154222,13.9215747 C17.7782719,13.8895907 17.7325654,13.8604456 17.7112346,13.8193732 C17.6933067,13.784856 17.7050912,13.7349031 17.7037226,13.6917835 C17.7457778,13.6953494 17.7979281,13.6845181 17.8277964,13.705465 C17.8908319,13.7496694 17.9422071,13.8105038 18.0010109,13.8670564 Z" id="Shape"></path>
                        <path d="M16.2237729,8.38273158 C16.1897342,8.15496063 16.162232,7.97093519 16.1312938,7.76390903 C15.939174,7.90825476 15.7613773,8.04183781 15.5817912,8.17676806 C15.5644028,8.04781347 15.7818532,7.82472474 16.2023438,7.53404167 C16.3030397,7.78299501 16.3285483,8.21481772 16.2237729,8.38273158 Z" id="Shape"></path>
                        <path d="M12.7460657,8.46750022 C12.7258012,8.1111206 12.9434519,7.79460801 12.9343117,7.44009204 C12.955904,7.43463 12.977498,7.42916796 12.9990903,7.42370592 C13.1081401,7.63373985 13.2171898,7.84377281 13.3262396,8.05380674 C13.3090162,8.06481793 13.291791,8.07582922 13.2745676,8.08684042 C13.1895097,7.97652139 13.1044536,7.86620324 13.0071086,7.73995056 C12.9399824,7.99329319 12.8759901,8.23480311 12.8119977,8.476314 C12.7900216,8.47337575 12.7680437,8.4704375 12.7460657,8.46750022 Z" id="Shape"></path>
                        <path d="M18.721132,12.2102001 C18.8618728,12.1471461 19.0026175,12.084094 19.1764606,12.0062087 C19.026001,11.9014388 18.8932228,11.8118192 18.7642572,11.7170183 C18.7350175,11.6955244 18.7190032,11.6560393 18.696901,11.6248378 C18.7377027,11.6242203 18.7866487,11.6085287 18.8179763,11.6254497 C19.0101592,11.7292572 19.229069,11.8028792 19.3315747,12.0396856 C19.1570676,12.1864606 18.9635534,12.2584693 18.7447993,12.2628642 C18.7369108,12.2453088 18.7290224,12.2277554 18.721132,12.2102001 Z" id="Shape"></path>
                        <path d="M10.2825386,9.70033517 C10.3767692,9.85874069 10.5545019,9.95495638 10.5124309,10.1884248 C10.3424541,9.97829729 10.1924757,9.79289218 10.032009,9.59452122 C10.2382303,9.56168315 10.4056907,9.53040929 10.5745679,9.51259254 C10.6032476,9.50956806 10.6380225,9.56433032 10.6898233,9.60982167 C10.5324164,9.64480329 10.4150164,9.67089336 10.2825386,9.70033517 Z" id="Shape"></path>
                        <path d="M16.9014401,9.22176578 C17.0945353,9.09119517 17.2876305,8.96062553 17.524767,8.80027196 C17.499275,9.04630563 17.5031413,9.24262004 17.3952061,9.41448735 C17.3792586,9.41223801 17.3633092,9.40998771 17.3473616,9.40773838 C17.3578146,9.29394608 17.3682658,9.18015292 17.3801338,9.05098231 C17.2322055,9.1419826 17.0952104,9.22625521 16.9582172,9.31052967 C16.9392914,9.28094135 16.9203658,9.25135313 16.9014401,9.22176578 Z" id="Shape"></path>
                        <path d="M10.3785151,12.1642767 C10.1856331,12.0997614 9.99275025,12.0352462 9.76232668,11.9581731 C9.92753504,11.8140833 10.0643381,11.6947696 10.2011403,11.575454 C10.2182655,11.591053 10.2353905,11.6066537 10.2525146,11.6222546 C10.1773719,11.7092782 10.1022293,11.7963017 10.0221318,11.8890645 C10.1381428,11.9850132 10.3241293,11.9914776 10.4367376,12.0983762 C10.4173297,12.1203431 10.3979229,12.1423099 10.3785151,12.1642767 Z" id="Shape"></path>
                        <path d="M13.3135928,14.3739902 C13.3555757,14.4289109 13.3975605,14.4838317 13.4449877,14.5458733 C13.5250482,14.4504847 13.6111074,14.3479494 13.6971668,14.2454121 C13.7156641,14.256772 13.7341614,14.2681318 13.7526587,14.2794917 C13.7215276,14.3456889 13.6955868,14.4150126 13.6580508,14.4773545 C13.6009456,14.5722017 13.5390116,14.6646214 13.4724787,14.7530691 C13.4463062,14.7878608 13.4022298,14.8091842 13.366307,14.8366399 C13.34671,14.803354 13.3167917,14.7721822 13.3094595,14.7363836 C13.2878506,14.6308868 13.2751927,14.5235579 13.2590301,14.4169466 C13.2772194,14.4026272 13.2954052,14.3883095 13.3135928,14.3739902 Z" id="Shape"></path>
                        <path d="M14.3785927,8.05680526 C14.4476196,8.22447899 14.5166484,8.39215261 14.5856753,8.55982633 C14.5639218,8.57001143 14.54217,8.58019653 14.5204165,8.59038075 C14.4653251,8.48816899 14.4102337,8.38595722 14.3455312,8.26591296 C14.2481658,8.40865288 14.1662491,8.52874536 14.0843307,8.64883872 C14.0623879,8.63446179 14.0404452,8.62008583 14.0185006,8.6057089 C14.1143844,8.41968993 14.21027,8.23367193 14.3061518,8.04765393 C14.3302995,8.05070438 14.3544451,8.05375482 14.3785927,8.05680526 Z" id="Shape"></path>
                        <path d="M13.0848548,11.4810761 C13.1539652,11.7433818 12.8661823,11.7186816 12.8255439,11.8878796 C12.934054,11.9457933 13.0487819,12.0070246 13.1953806,12.0852639 C13.0309149,12.133891 12.7415985,12.0474441 12.7009583,11.9556177 C12.6861567,11.9221761 12.7097332,11.8663151 12.7273088,11.8256563 C12.7418952,11.7919124 12.770217,11.762059 12.7979509,11.736426 C12.8818406,11.6588913 12.9684024,11.5842493 13.0848548,11.4810761 Z" id="Shape"></path>
                        <path d="M12.2524518,9.53165169 C12.1423173,9.52102064 12.0321809,9.51038949 11.8829396,9.4959829 C11.9606488,9.65133526 12.0245706,9.77912707 12.1019126,9.93374608 C11.9392827,9.86296675 11.7276735,9.56739836 11.7381618,9.44903497 C11.7402462,9.42550301 11.7824274,9.38780374 11.8070516,9.3870491 C11.9153448,9.38372701 12.0252271,9.3831429 12.1319514,9.3989736 C12.1834305,9.40660894 12.2291981,9.45275022 12.2775489,9.48145586 C12.2691838,9.49818781 12.2608188,9.51491975 12.2524518,9.53165169 Z" id="Shape"></path>
                        <path d="M16.9664134,12.6520215 C17.07968,12.7054012 17.0872699,12.8822838 17.0005597,13.2386096 C16.7965756,13.2457582 16.6378548,13.1197168 16.5993063,12.8833853 C16.6636696,12.9387325 16.7028171,12.9762409 16.7459311,13.0084364 C16.7930506,13.0436211 16.8438417,13.0738918 16.9293113,13.1302071 C16.9429908,12.9538809 16.9545844,12.8044913 16.9664134,12.6520215 Z" id="Shape"></path>
                        <path d="M13.6960856,9.26975671 C13.8936553,9.35152779 14.0662468,9.42295988 14.267887,9.50641563 C14.0713982,9.64596879 13.9860306,9.4402945 13.8457051,9.44129579 C13.8457051,9.53800847 13.8457051,9.62858128 13.8457051,9.71902614 C13.7225122,9.72146661 13.7225122,9.72146661 13.6960856,9.26975671 Z" id="Shape"></path>
                        <path d="M11.5384251,11.4981697 C11.6393463,11.5582994 11.7317698,11.6133666 11.8241914,11.6684339 C11.8111367,11.6942207 11.7980818,11.7200075 11.7850271,11.7457962 C11.6474378,11.6944136 11.5098502,11.6430328 11.3576689,11.586202 C11.4742335,11.4163512 11.5697806,11.2771273 11.6653278,11.1379032 C11.6844705,11.1494578 11.7036149,11.1610123 11.7227594,11.1725651 C11.6608115,11.2819876 11.5988654,11.3914082 11.5384251,11.4981697 Z" id="Shape"></path>
                        <path d="M14.7928249,13.3523157 C14.8910599,13.4339727 14.9892932,13.5156298 15.0954279,13.6038549 C15.1433243,13.5249405 15.1907701,13.4467697 15.245105,13.3572519 C15.3279414,13.5085905 15.2982066,13.5025879 15.0764893,13.8093243 C14.9646598,13.669748 14.8566022,13.5348817 14.7485445,13.4000137 C14.7633052,13.3841143 14.7780641,13.368215 14.7928249,13.3523157 Z" id="Shape"></path>
                        <path d="M15.7059372,9.77834093 C15.722519,9.63792083 15.6460301,9.46721154 15.8140987,9.37417707 C15.896199,9.32873025 16.0414088,9.46610175 16.067791,9.62237568 C15.9922534,9.57190821 15.9373029,9.53519447 15.8800957,9.49697506 C15.8374285,9.60379865 15.7981197,9.70221632 15.7588127,9.80063224 C15.7411869,9.79320183 15.723563,9.78577133 15.7059372,9.77834093 Z" id="Shape"></path>
                        <path d="M16.0695304,12.0466598 C15.9687455,12.1578217 15.8679607,12.2689854 15.7671759,12.3801455 C15.7489604,12.3704508 15.7307449,12.3607544 15.7125295,12.3510578 C15.7002276,12.2365321 15.6879239,12.1220046 15.675622,12.007477 C15.6934759,12.003173 15.7113315,11.9988709 15.7291854,11.994565 C15.7585753,12.0458828 15.7879651,12.0971987 15.8178223,12.1493323 C15.8876559,12.0943281 15.9531707,12.0427266 16.0186855,11.9911251 C16.0356344,12.0096355 16.0525834,12.0281476 16.0695304,12.0466598 Z" id="Shape"></path>
                        <path d="M14.3613953,11.7583874 C14.3512056,11.8714259 14.3424623,11.9683962 14.3308483,12.0972135 C14.3102556,12.0972135 14.2497698,12.1134856 14.2117164,12.0912925 C14.1877523,12.0773143 14.1854919,12.0032453 14.194467,11.9605392 C14.2118647,11.8777641 14.2057879,11.7698696 14.3613953,11.7583874 Z" id="Shape"></path>
                        <path d="M16.6582102,10.9595818 C16.5373037,11.035813 16.4359644,11.0997089 16.3346233,11.1636048 C16.3208286,11.1527882 16.307034,11.1419718 16.2932394,11.1311552 C16.3087048,11.0903666 16.3263157,11.0136793 16.3392981,11.0144562 C16.4457888,11.0208241 16.4842002,10.7781023 16.6582102,10.9595818 Z" id="Shape"></path>
                        <path d="M17.879205,11.3451214 C17.8656347,11.229828 17.8496019,11.1241736 17.8435807,11.0179518 C17.842303,10.9953693 17.8734323,10.9627509 17.8976151,10.950438 C17.9094386,10.9444169 17.9467595,10.9694768 17.9601981,10.9889755 C18.0125693,11.0649562 17.9706234,11.2683932 17.879205,11.3451214 Z" id="Shape"></path>
                        <path d="M11.033355,12.7370424 C10.9953312,12.6508181 10.9426598,12.5881905 10.9569477,12.5520007 C10.9871321,12.4755415 11.0517095,12.4112636 11.1637272,12.4706663 C11.1264395,12.546853 11.0928755,12.6154311 11.033355,12.7370424 Z" id="Shape"></path>
                        <path d="M12.8487773,10.416894 C12.8091587,10.4834398 12.769542,10.5499874 12.7008322,10.6653958 C12.6785965,10.5739607 12.6397753,10.5051377 12.6595762,10.4755587 C12.6937039,10.4245822 12.764309,10.3980277 12.8196062,10.3612259 C12.8293287,10.3797806 12.8390529,10.3983373 12.8487773,10.416894 Z" id="Shape"></path>
                        <path d="M15.4338739,10.6215956 C15.3879022,10.6851392 15.3419306,10.7486846 15.2653824,10.8544929 C15.2461248,10.7743286 15.2105339,10.7094685 15.228818,10.6852004 C15.2686276,10.6323639 15.3358928,10.6002147 15.3919374,10.5596115 C15.4059174,10.580273 15.4198957,10.6009343 15.4338739,10.6215956 Z" id="Shape"></path>
                        <path d="M19.2959931,13.1396755 C19.2643854,13.2058003 19.2327796,13.2719234 19.1801044,13.3821173 C19.1439165,13.3091943 19.0883299,13.2438576 19.1030314,13.2170137 C19.132998,13.1622895 19.2008418,13.1283064 19.253083,13.0857802 C19.2673876,13.1037453 19.2816904,13.1217104 19.2959931,13.1396755 Z" id="Shape"></path>
                        <path d="M13.9192827,10.8203485 C13.8979612,10.7260169 13.850508,10.6232775 14.0510503,10.5593612 C14.0221241,10.6771172 14.0019559,10.7592174 13.9817897,10.8413177 C13.9609541,10.8343286 13.9401184,10.8273394 13.9192827,10.8203485 Z" id="Shape"></path>
                        <path d="M5.43718778,13.1144505 C5.29146888,12.9723689 5.30061369,12.9142215 5.47248285,12.8097707 C5.4601504,12.9162299 5.45073667,12.99749 5.43718778,13.1144505 Z" id="Shape"></path>
                        <path d="M20.3375853,9.51523037 C20.3402853,9.30618208 20.4893485,9.16763585 20.7063521,9.17247761 C20.8982105,9.1767584 21.0610776,9.34156067 21.0582701,9.52857442 C21.0555034,9.71296151 20.8653178,9.89847979 20.6841201,9.89353974 C20.4882674,9.88820107 20.3349299,9.72080268 20.3375853,9.51523037 Z" id="Shape"></path>
                    </g>
                </g>
            </g>
        </g>
    </g>
</svg>