<?xml version="1.0" encoding="UTF-8"?>
<svg width="43px" height="43px" viewBox="0 0 43 43" version="1.1" xmlns="http://www.w3.org/2000/svg" xmlns:xlink="http://www.w3.org/1999/xlink">
    <!-- Generator: Sketch 44 (41411) - http://www.bohemiancoding.com/sketch -->
    <title>macOS_active</title>
    <desc>Created with Sketch.</desc>
    <defs></defs>
    <g id="V3.1-assets" stroke="none" stroke-width="1" fill="none" fill-rule="evenodd">
        <g id="Host-icons" transform="translate(-82.000000, -106.000000)">
            <g id="macOS_active" transform="translate(82.000000, 106.000000)">
                <circle id="Oval-3" fill="#0F364E" cx="21.5" cy="21.5" r="21.5"></circle>
                <g id="macos_active" transform="translate(11.000000, 9.000000)" fill-rule="nonzero" fill="#FFFFFF">
                    <g id="iVjZV4.tif_1_" transform="translate(0.777778, 0.833333)">
                        <g id="Group">
                            <path d="M0.714089736,11.5923752 C0.714089736,11.4153704 0.714089736,11.2383673 0.714089736,11.0613643 C0.717677042,11.0441206 0.723208597,11.027027 0.724556681,11.0096108 C0.742520819,10.7774663 0.755851931,10.5448842 0.778340694,10.3131904 C0.815195306,9.93348844 0.886326972,9.55957946 0.985874944,9.19128554 C1.23612543,8.26544289 1.67100782,7.43973514 2.32268701,6.73209668 C2.93354512,6.06878417 3.66379465,5.59056244 4.5239075,5.31404387 C4.96070731,5.17361736 5.40854708,5.09089962 5.86568461,5.05582331 C6.25005403,5.02632958 6.6339979,5.02298436 7.01757272,5.06788781 C7.3286604,5.10430667 7.63519643,5.16484704 7.93018081,5.26971706 C8.19181524,5.36273208 8.44837428,5.47014718 8.70645951,5.57299692 C8.92263419,5.65914426 9.13553774,5.75338225 9.3583454,5.82257336 C9.61346731,5.90179839 9.87189369,5.93625064 10.1384608,5.89984481 C10.3865028,5.86596831 10.6263391,5.80186561 10.8600765,5.71341789 C11.1604709,5.59974703 11.4594579,5.4821691 11.7615286,5.37314254 C12.3454465,5.16238819 12.9505931,5.06042581 13.5695695,5.0382291 C14.0582489,5.02070537 14.5439262,5.05008224 15.0249674,5.1433411 C15.5696839,5.24894446 16.0863606,5.43143183 16.5708881,5.70277575 C17.190749,6.04990857 17.7104354,6.51361987 18.1540314,7.06559622 C18.1616955,7.07513139 18.1678761,7.08585986 18.1764766,7.09859189 C18.1601786,7.11086133 18.1462486,7.12182246 18.1318438,7.1321216 C17.9245664,7.28032443 17.7238535,7.43686543 17.532175,7.6048349 C17.1307417,7.95661387 16.7743287,8.34786021 16.4860099,8.79879486 C16.0796125,9.43440779 15.8518258,10.1283434 15.8129268,10.8820136 C15.7934207,11.2599651 15.8159419,11.6361382 15.8841289,12.0092535 C15.9759238,12.5115217 16.1486581,12.9833022 16.4100311,13.4221641 C16.7065647,13.9200542 17.0925456,14.3389704 17.5424464,14.7010893 C17.8925194,14.9828584 18.2704412,15.2218065 18.6676372,15.4309995 C18.6878146,15.4416269 18.707547,15.453098 18.7303556,15.4657707 C18.6984012,15.5542315 18.6690743,15.6374518 18.6383512,15.7201565 C18.1994449,16.9017256 17.6033549,17.9957556 16.8178526,18.9838975 C16.4778934,19.4115572 16.1131246,19.8164266 15.7033245,20.1790072 C15.4211362,20.4286828 15.1211424,20.6535192 14.7852646,20.8272697 C14.5267528,20.9609974 14.2561563,21.0574801 13.9654546,21.0914985 C13.9228208,21.0964886 13.8802464,21.1019701 13.8376442,21.1072235 C13.787072,21.1072235 13.7364997,21.1072235 13.6859274,21.1072235 C13.64138,21.1025486 13.5968306,21.0978682 13.5522832,21.0932026 C13.3347233,21.0704069 13.121269,21.026462 12.910001,20.9704509 C12.5642395,20.8787858 12.2290145,20.7564699 11.8962428,20.6264936 C11.7014027,20.5503904 11.5057707,20.4762176 11.3093896,20.4041902 C11.0674207,20.3154439 10.8157368,20.2687974 10.5601234,20.2438265 C10.2721105,20.2156938 9.98361933,20.2101511 9.6954656,20.242992 C9.38449944,20.2784308 9.08043335,20.3467976 8.78224375,20.4411107 C8.40365624,20.5608527 8.03439992,20.7052707 7.66832014,20.8588569 C7.32426654,21.0032026 6.96378317,21.0799475 6.59096919,21.0982852 C6.57172454,21.0992309 6.5526756,21.1041506 6.53353575,21.1072233 C6.46851421,21.1072233 6.40349179,21.1072233 6.33847025,21.1072233 C6.31919594,21.1040857 6.30002178,21.0999652 6.28062974,21.0979922 C6.22319911,21.0921454 6.16536326,21.0894343 6.10825338,21.0814401 C5.78654669,21.0364087 5.48557003,20.9292245 5.20040831,20.775466 C4.80413753,20.5617984 4.46132731,20.278733 4.14595329,19.9605664 C3.85938039,19.6714595 3.60141299,19.3579677 3.36244631,19.0288362 C2.83813522,18.3066901 2.39410063,17.5368424 2.00771365,16.7334102 C1.61252399,15.9116754 1.2980939,15.0601798 1.0777654,14.1747197 C0.972276958,13.7507818 0.889121625,13.3225603 0.830806375,12.8894878 C0.791053375,12.5942634 0.760445194,12.2982471 0.744610806,12.0007418 C0.738185389,11.8800039 0.731406764,11.7592772 0.724024583,11.6385951 C0.723073264,11.6230445 0.717513806,11.6077738 0.714089736,11.5923752 Z" id="Shape"></path>
                            <path d="M9.59760132,5.30277115 C9.5922329,5.26080868 9.58687012,5.22002561 9.58181321,5.17920453 C9.49011846,4.43899235 9.61087487,3.73389537 9.9320901,3.06201749 C10.1329124,2.64195799 10.3965719,2.26400932 10.7031042,1.91506428 C11.0627809,1.50562106 11.4660037,1.146796 11.9323788,0.861798778 C12.4185808,0.564685139 12.9417996,0.366598944 13.5049541,0.27671175 C13.6331983,0.256241903 13.762329,0.241309542 13.8910759,0.22401575 C13.8979982,0.223086208 13.9051524,0.223896167 13.9149936,0.223896167 C13.9176138,0.232981681 13.9216025,0.241005042 13.9220587,0.249224986 C13.9376261,0.528685014 13.9518176,0.808161278 13.9332647,1.08809653 C13.8824254,1.8551224 13.6536856,2.56387804 13.2299646,3.20621496 C12.8269143,3.81721307 12.3214473,4.32672722 11.6989216,4.71557401 C11.244509,4.99941361 10.751088,5.18039511 10.221301,5.26064749 C10.0283542,5.28987599 9.83404061,5.30538497 9.63872389,5.30589121 C9.62641264,5.30592271 9.61409594,5.30407481 9.59760132,5.30277115 Z" id="Shape"></path>
                        </g>
                    </g>
                </g>
            </g>
        </g>
    </g>
</svg>