<?xml version="1.0" encoding="UTF-8"?>
<svg width="43px" height="43px" viewBox="0 0 43 43" version="1.1" xmlns="http://www.w3.org/2000/svg" xmlns:xlink="http://www.w3.org/1999/xlink">
    <!-- Generator: Sketch 44 (41411) - http://www.bohemiancoding.com/sketch -->
    <title>raspbian_active</title>
    <desc>Created with Sketch.</desc>
    <defs></defs>
    <g id="V3.1-assets" stroke="none" stroke-width="1" fill="none" fill-rule="evenodd">
        <g id="Host-icons" transform="translate(-134.000000, -106.000000)">
            <g id="raspbian_active" transform="translate(134.000000, 106.000000)">
                <circle id="Oval-3" fill="#F15F5E" cx="21.5" cy="21.5" r="21.5"></circle>
                <g transform="translate(12.000000, 10.000000)" id="Shape" fill-rule="nonzero" fill="#FFFFFF">
                    <path d="M4.51133353,7.00052474 C4.48209297,6.99039243 4.46517465,6.98343949 4.44766571,6.97863583 C4.31592036,6.94248871 4.18689908,6.90083774 4.06658775,6.83313763 C3.94077821,6.76234439 3.85406337,6.66019844 3.81681939,6.52327854 C3.7976916,6.45296189 3.75887689,6.42523168 3.69497544,6.40548264 C3.58089576,6.37022646 3.46611968,6.33331254 3.36874599,6.26007339 C3.22386893,6.15110157 3.11758219,6.01533035 3.08742182,5.83162663 C3.07880647,5.77915268 3.04932296,5.7489784 3.00870118,5.72067983 C2.93342318,5.66823651 2.85695187,5.61645149 2.78771536,5.55659808 C2.60556554,5.39913454 2.48623149,5.20765168 2.4883659,4.95747071 C2.48871269,4.91681928 2.46331708,4.90052221 2.43623962,4.87940554 C2.33419664,4.79982449 2.24888181,4.70457957 2.18929732,4.58924349 C2.13663885,4.48731269 2.12427121,4.37583089 2.13960403,4.26422581 C2.15068756,4.18354974 2.13418739,4.12070335 2.07927132,4.05929138 C1.97617785,3.94400351 1.8996694,3.81333471 1.86593757,3.65879172 C1.84487661,3.56229701 1.84983893,3.46992628 1.88695964,3.3806265 C1.90551256,3.33599372 1.90070696,3.30299251 1.87248257,3.26552501 C1.80534149,3.17639489 1.74800449,3.08248415 1.71554937,2.97318499 C1.68106835,2.85706549 1.6905794,2.74722294 1.74082715,2.64000443 C1.76673454,2.58472388 1.79519343,2.52983182 1.82952425,2.47956278 C1.8566861,2.43979121 1.85842181,2.40679739 1.83749803,2.36453081 C1.78492764,2.25833954 1.75619235,2.1462394 1.76125014,2.02615897 C1.76943625,1.83181019 1.85778753,1.68662397 2.02655811,1.59203317 C2.17571596,1.50843557 2.33951683,1.49839504 2.50520265,1.50947449 C2.54305214,1.51200567 2.56989782,1.50549129 2.59232912,1.47607739 C2.7532529,1.265062 2.98276326,1.20170947 3.23126968,1.18438972 C3.32518499,1.17784424 3.42003868,1.18124011 3.51429242,1.18474021 C3.55337876,1.18619222 3.58055267,1.1805721 3.60802514,1.14807985 C3.69459628,1.04569513 3.80567286,0.986289625 3.9418881,0.983288764 C4.03357264,0.981268389 4.12539251,0.982190931 4.21707054,0.984725417 C4.25505167,0.985775417 4.2865435,0.979800236 4.31677339,0.953826056 C4.49315336,0.802278875 4.69983089,0.772170903 4.92071375,0.812279444 C4.99432381,0.82564575 5.06810342,0.845156403 5.13740944,0.872856472 C5.19091258,0.894240986 5.22861089,0.890349181 5.27422464,0.854970597 C5.39700503,0.759742792 5.53977742,0.721756125 5.69115397,0.753408278 C5.78536882,0.773108125 5.87458421,0.817098847 5.96563272,0.851281792 C5.98898754,0.860050653 6.0107624,0.873016403 6.03330415,0.883967806 C6.10785153,0.920184542 6.17877553,0.930540264 6.26493678,0.904999597 C6.43584537,0.854337875 6.60686714,0.864821931 6.76357876,0.964224847 C6.76592921,0.965716722 6.76837882,0.96705275 6.77076718,0.968485708 C6.88685985,1.03813619 7.00120844,1.07903651 7.14730749,1.05290668 C7.36752554,1.0135204 7.55584304,1.10624707 7.71365153,1.26011689 C7.76549032,1.31066136 7.81797262,1.36080664 7.86629003,1.41461117 C7.89956667,1.45166606 7.93692469,1.46635731 7.9847766,1.45873586 C7.99026926,1.45786154 7.99592876,1.45800942 8.00139732,1.45704332 C8.15986225,1.42904565 8.28744639,1.48889993 8.40620742,1.58897456 C8.54485097,1.70580388 8.68427717,1.82258215 8.79422062,1.96660336 C8.91554258,2.12553 9.03223968,2.28925388 9.13579496,2.46007536 C9.21907824,2.59745425 9.28464685,2.74640715 9.34891181,2.89420953 C9.39863475,3.00857115 9.43394382,3.12918378 9.47628643,3.24679233 C9.48230575,3.26351689 9.49187057,3.2789656 9.50512556,3.30580107 C9.51801343,3.28463443 9.52707201,3.27470707 9.53068246,3.26308756 C9.59929033,3.04233351 9.68389583,2.82870032 9.78871383,2.62190506 C9.886057,2.42985938 9.99735049,2.24703833 10.1272859,2.07684179 C10.2470391,1.91997996 10.3788419,1.77211419 10.536604,1.65043388 C10.5916694,1.60796235 10.6462027,1.56479733 10.7007174,1.52161754 C10.7645892,1.47102669 10.8371079,1.44008057 10.9179732,1.45564663 C11.0579742,1.48259614 11.1538708,1.42601154 11.2412987,1.32107658 C11.2990919,1.2517094 11.3741604,1.19353746 11.4499484,1.14303324 C11.6044152,1.04009736 11.7785199,1.02678433 11.9562257,1.06140682 C12.0125373,1.07237776 12.0599794,1.06454253 12.108002,1.03819336 C12.168968,1.00474289 12.230405,0.972143111 12.2918828,0.939641625 C12.4354979,0.863721569 12.5886761,0.857536778 12.7384013,0.903709069 C12.8331966,0.932942236 12.910698,0.917778583 12.9935678,0.877426694 C13.0660049,0.842153889 13.1408452,0.811351458 13.2160974,0.782402472 C13.3992847,0.711928611 13.5722415,0.737033042 13.7306526,0.849956167 C13.7777424,0.883522528 13.8152043,0.896469708 13.8741175,0.873212208 C14.0040159,0.821933417 14.1396462,0.793843875 14.2818427,0.797332014 C14.4359981,0.801113958 14.5711796,0.850357597 14.6880511,0.948193972 C14.7233916,0.977778986 14.7580757,0.985889556 14.8022949,0.984472833 C14.896684,0.981449708 14.9913531,0.981605069 15.0857329,0.9851005 C15.20923,0.989674319 15.3124256,1.04316492 15.3911416,1.13625685 C15.4264951,1.17806726 15.4621898,1.18985361 15.5137727,1.18385053 C15.6900377,1.16333751 15.86318,1.18384499 16.0349759,1.22616854 C16.1659739,1.25844146 16.2767334,1.32300265 16.3703085,1.41877004 C16.3838954,1.43267408 16.3961713,1.44795129 16.408234,1.46323725 C16.435712,1.4980534 16.4660976,1.51236588 16.5151976,1.5091871 C16.6516549,1.50035154 16.7868771,1.50858724 16.9177194,1.55959663 C17.1822095,1.662711 17.2983467,1.92206139 17.2374827,2.18330081 C17.2224474,2.24784022 17.1974024,2.31059007 17.1715024,2.3718565 C17.1557829,2.40903836 17.1521817,2.43865915 17.179211,2.47177722 C17.1983666,2.49524521 17.2107927,2.52411301 17.2270592,2.55004539 C17.3595759,2.76129761 17.3363778,2.96745869 17.207173,3.17025229 C17.2041838,3.17494288 17.2010573,3.17962704 17.1974023,3.18379661 C17.127934,3.26303554 17.0919148,3.34168667 17.1437963,3.45283276 C17.1691975,3.50725008 17.1576317,3.58501386 17.1461848,3.64925189 C17.1234817,3.77667007 17.06916,3.89256333 16.9862326,3.99362447 C16.979173,4.00222776 16.9739029,4.01256317 16.9659217,4.02010761 C16.8836193,4.09791407 16.8596906,4.18584632 16.8738413,4.30313501 C16.8956061,4.48353522 16.823002,4.64133438 16.693417,4.76965381 C16.6501008,4.81254806 16.6038121,4.85266729 16.5567075,4.89141706 C16.533042,4.91088794 16.5217156,4.9314871 16.5223776,4.96245694 C16.5274178,5.1973644 16.4165156,5.37944743 16.2513193,5.53184676 C16.176019,5.60131224 16.0901785,5.65995571 16.0057566,5.71867696 C15.961886,5.74919239 15.9332935,5.78295485 15.9229888,5.83679175 C15.8799898,6.06148903 15.7423327,6.21563797 15.5450874,6.31763643 C15.4641759,6.35947835 15.374927,6.38605696 15.287909,6.41486925 C15.2441366,6.42936207 15.2160189,6.45100996 15.2044291,6.49701211 C15.1544299,6.69545161 15.0184788,6.81547361 14.8358329,6.88772343 C14.7454827,6.92346261 14.6511603,6.94914931 14.5586756,6.97950529 C14.5437479,6.98440549 14.5290298,6.98994258 14.4988167,7.00063489 C14.5249632,7.02110338 14.5393216,7.0354386 14.5563094,7.04517861 C14.7884761,7.17826378 15.007208,7.33001396 15.2169516,7.49671876 C15.357216,7.60820144 15.48498,7.73213713 15.6048851,7.86267244 C15.7649522,8.03692451 15.9009867,8.23076978 16.0135672,8.44044953 C16.1903978,8.76978319 16.3085246,9.11997754 16.369129,9.48704665 C16.4153324,9.76691229 16.4401975,10.0503597 16.4393205,10.3350309 C16.439276,10.3489572 16.438512,10.362954 16.4395745,10.3768024 C16.4442086,10.4372399 16.5926729,10.6800488 16.6441037,10.7127227 C16.821307,10.8252921 16.9746113,10.9648925 17.120676,11.1154893 C17.2887503,11.2887743 17.4325583,11.479941 17.5549798,11.685581 C17.6756546,11.8882855 17.7825273,12.0986542 17.8604831,12.3238503 C17.9538171,12.5934679 18.0290301,12.8666216 18.0568159,13.1503342 C18.0708869,13.2939883 18.0666478,13.4395858 18.0677715,13.5843284 C18.0705753,13.9458798 17.9845327,14.2890526 17.8611951,14.626755 C17.785142,14.835006 17.6818537,15.0284554 17.5661134,15.2142963 C17.4694267,15.3695402 17.3505228,15.5111304 17.2386379,15.6565981 C17.210763,15.6928379 17.1894823,15.7284232 17.1795151,15.7736327 C17.1244052,16.0235457 17.0688687,16.2733883 16.9818285,16.514888 C16.9064299,16.7240846 16.8281738,16.9324227 16.7600276,17.1439894 C16.7244256,17.2545244 16.7062158,17.37086 16.6830473,17.4851631 C16.6253208,17.7699735 16.5372551,18.0434814 16.4117905,18.3069239 C16.2840747,18.5750931 16.12446,18.8202831 15.9415842,19.0531358 C15.775496,19.2646171 15.5837823,19.450115 15.3778864,19.6200436 C15.1258409,19.8280571 14.8528855,20.0068088 14.5466257,20.1259111 C14.4434098,20.1660508 14.3517892,20.219284 14.2655167,20.2860913 C14.0342475,20.4651805 13.7945168,20.632461 13.5425455,20.7808846 C13.3389008,20.9008399 13.134557,21.0209657 12.9228662,21.1255057 C12.726142,21.2226541 12.520031,21.3011086 12.3164438,21.3838393 C12.2558209,21.4084782 12.205154,21.4411096 12.1572464,21.4859166 C12.0232239,21.6112681 11.8911781,21.7402856 11.7461092,21.8519538 C11.4157334,22.106258 11.057848,22.3125896 10.6588976,22.4441458 C10.3796541,22.5362318 10.095745,22.6045875 9.80214868,22.6177942 C9.54929099,22.6291689 9.29585647,22.6335953 9.04295794,22.6030316 C8.76471767,22.5694045 8.49705653,22.4975775 8.23495106,22.4006404 C7.93788894,22.2907711 7.66475371,22.138203 7.40738519,21.9542313 C7.20288564,21.8080515 7.01286033,21.6462339 6.83653694,21.4673599 C6.80844886,21.438862 6.77095074,21.415701 6.73351483,21.4009884 C6.42774278,21.2807995 6.12553469,21.1534397 5.8367181,20.9954458 C5.55314926,20.8403207 5.27781379,20.6726581 5.01722333,20.481115 C4.89616747,20.3921333 4.77491046,20.3033665 4.65187875,20.2171663 C4.6135416,20.1903077 4.57089206,20.1674155 4.52713642,20.1508412 C4.27014989,20.0535018 4.03217906,19.9223202 3.81525985,19.7538899 C3.68795289,19.655041 3.55754833,19.5589774 3.43935839,19.4499295 C3.32313224,19.342697 3.21852462,19.2224784 3.1128044,19.1043905 C3.04977543,19.0339895 2.98897168,18.9603358 2.93680272,18.881746 C2.84147254,18.7381346 2.74175579,18.5955708 2.66469756,18.442109 C2.53242099,18.1786814 2.41365899,17.9081534 2.35811885,17.615271 C2.33634486,17.5004542 2.31819619,17.3847009 2.29021476,17.2713935 C2.26830447,17.1826769 2.23394769,17.0970219 2.20483042,17.0101003 C2.10856185,16.7227142 2.00912519,16.4363351 1.91737581,16.1475138 C1.8829884,16.0392633 1.86331267,15.9259281 1.84274219,15.8138446 C1.82967358,15.7426314 1.79762914,15.685489 1.75307618,15.6295521 C1.65438396,15.5056433 1.55201926,15.3830752 1.46831132,15.2492289 C1.36974986,15.0916337 1.27805239,14.9276409 1.20347254,14.7576103 C1.06186293,14.4347614 0.970781069,14.0951155 0.942179264,13.743268 C0.910080181,13.3483862 0.955851528,12.9592677 1.06897901,12.5790076 C1.14927864,12.3090897 1.25010518,12.0481172 1.39020629,11.8021411 C1.52438453,11.5665605 1.6778779,11.3471945 1.8619989,11.1473624 C2.01772771,10.9783461 2.18624697,10.8269927 2.38036767,10.7040445 C2.39635324,10.6939197 2.41247696,10.6803698 2.42213822,10.6645131 C2.4699141,10.5860974 2.51650697,10.5069122 2.56109337,10.4266516 C2.56991085,10.4107782 2.57085011,10.3889875 2.57077039,10.3699451 C2.56960304,10.0909204 2.59483824,9.81324383 2.63530144,9.53819857 C2.66190514,9.35735697 2.7139655,9.17966975 2.76317949,9.00295417 C2.79440892,8.89082156 2.83528279,8.78034765 2.88287511,8.67407667 C2.93393136,8.56007019 2.99526458,8.45035385 3.05679157,8.34140789 C3.22006764,8.05229447 3.43885322,7.80818843 3.68493696,7.58846913 C3.89513782,7.40078775 4.12903553,7.24433668 4.36646406,7.09348396 C4.39684697,7.07418 4.43071414,7.06043453 4.46177012,7.04208461 C4.47668654,7.03327093 4.48880568,7.01972019 4.51133353,7.00052474 Z M12.5659451,1.42682082 C12.5062641,1.46366289 12.4600422,1.48825603 12.4181316,1.5187701 C12.2580664,1.63530775 12.1043635,1.75863385 11.9848811,1.91975926 C11.9385553,1.98223193 11.9075985,1.98033211 11.8625708,1.91908522 C11.8465305,1.89726583 11.8307554,1.87077336 11.8276419,1.84487628 C11.8214113,1.79305596 11.8235512,1.74017874 11.8231229,1.68773124 C11.8228929,1.65952629 11.8391242,1.62956901 11.8141904,1.59862522 C11.543451,1.80039935 11.3547617,2.07645893 11.1238764,2.31077576 C11.0653433,2.275617 11.0676242,2.21599907 11.0480867,2.16927368 C11.027403,2.1198075 11.0180274,2.06561272 11.0041493,2.01508215 C10.9888619,2.01707929 10.9818302,2.01585546 10.9783662,2.01881218 C10.9615174,2.03320574 10.9446037,2.04777001 10.9295407,2.06397346 C10.6935855,2.31778899 10.4868588,2.5923039 10.3266675,2.90112543 C10.2329719,3.08175285 10.1430889,3.26288553 10.090462,3.46101343 C10.0423301,3.6422166 10.0055319,3.82421339 10.0107279,4.01280807 C10.0165988,4.22583217 10.0663255,4.42761504 10.1834788,4.60644744 C10.3098651,4.79937483 10.4891286,4.93485672 10.6905221,5.04344471 C10.7311476,5.06534946 10.7597067,5.06208853 10.7951176,5.03277651 C10.9043639,4.94234828 11.0126256,4.84994526 11.1282305,4.76814638 C11.3849064,4.58653244 11.6408998,4.40315597 11.9062264,4.23476835 C12.2491952,4.01710461 12.6044659,3.82031925 12.9690604,3.63954629 C13.3258925,3.46262207 13.6859196,3.29393588 14.0566372,3.14868704 C14.3181437,3.04622775 14.5816511,2.94886699 14.8443703,2.84952114 C14.8562531,2.84502801 14.8692225,2.84340547 14.8816821,2.84044583 C14.8264386,2.88606785 14.7645565,2.915977 14.7043008,2.9488595 C14.3966762,3.1167335 14.0861069,3.279571 13.7830644,3.45537328 C13.4775242,3.63262475 13.1793178,3.8225435 12.8785803,4.00802551 C12.8146826,4.04743542 12.753596,4.09142478 12.6914859,4.13370711 C12.5512531,4.22917272 12.4076677,4.32017671 12.2719206,4.42165406 C12.0869827,4.55990357 11.9087892,4.70713846 11.726403,4.84884451 C11.512487,5.0150496 11.326149,5.21059713 11.1333598,5.39942922 C11.0962558,5.43577108 11.0919944,5.47124699 11.106668,5.51922314 C11.2059063,5.84371689 11.3894312,6.11177217 11.6574594,6.31673343 C11.8163286,6.43822038 11.9917813,6.53344303 12.1808136,6.60722643 C12.6839645,6.80361775 13.2067587,6.85156522 13.7397965,6.8364985 C13.7572479,6.83600519 13.7745269,6.82929706 13.8047735,6.82265658 C13.7129007,6.75162972 13.6152572,6.70366835 13.5745705,6.5892131 C13.6049895,6.57627146 13.6311881,6.55945882 13.6595283,6.55419706 C13.7278358,6.54151315 13.7969444,6.53228861 13.8660937,6.52520121 C13.990733,6.51242553 14.1158342,6.50405683 14.2403753,6.49046429 C14.3711656,6.47618935 14.4970531,6.44067738 14.6188886,6.39136782 C14.6395092,6.38302226 14.6579713,6.36934533 14.6953145,6.34782636 C14.5740038,6.31322663 14.4683512,6.28997476 14.4223555,6.17001489 C14.4649725,6.15482489 14.5010677,6.14129263 14.537597,6.12905196 C14.716866,6.06897971 14.8981415,6.01424438 15.0748682,5.94746778 C15.1757327,5.90935589 15.2696749,5.85261321 15.365683,5.80225511 C15.3821739,5.79360544 15.3933835,5.77488929 15.4070335,5.76082299 C15.4053442,5.75437161 15.4036512,5.74792121 15.40196,5.74146993 C15.2725475,5.75002043 15.1454417,5.74989706 15.0338237,5.65812356 C15.0534484,5.64268224 15.0664698,5.62865861 15.0824785,5.62049933 C15.1493433,5.58641701 15.217877,5.55557054 15.2844024,5.52086046 C15.511438,5.40240354 15.7395141,5.28544861 15.9327873,5.11315849 C15.9507747,5.09712469 15.9739505,5.08516588 15.9704105,5.05090924 C15.845875,5.03245831 15.7145562,5.06187503 15.5920084,4.98761135 C15.7316849,4.88371949 15.8639309,4.78856265 15.9926573,4.68886078 C16.1870525,4.53829457 16.318642,4.40763588 16.3389696,4.35089407 C16.277896,4.35089407 16.2173324,4.35216428 16.1568485,4.35054358 C16.0938241,4.34885522 16.0289176,4.35114529 15.9718551,4.29674003 C15.9925294,4.27468974 16.0099289,4.25388379 16.0296149,4.23553203 C16.1090671,4.16146678 16.1892721,4.08821188 16.2691027,4.01455544 C16.3860891,3.90661924 16.4954003,3.79182186 16.5843432,3.65905947 C16.6003946,3.63510013 16.6261777,3.61338457 16.6104991,3.57343499 C16.4609407,3.60241878 16.3094834,3.66766276 16.1591518,3.54233165 C16.2062712,3.49546811 16.2455004,3.45303926 16.2882992,3.41458156 C16.3835357,3.32899975 16.4881146,3.25239029 16.574567,3.15888293 C16.6493128,3.07803254 16.7044932,2.97904369 16.7675324,2.88752793 C16.7712894,2.88207794 16.7680201,2.87178989 16.7680201,2.85322307 C16.7390085,2.85456931 16.7125263,2.85568289 16.6860571,2.85705051 C16.6082145,2.86107172 16.5304071,2.8672115 16.4525255,2.86827871 C16.421604,2.8687024 16.3905285,2.85796382 16.3553863,2.85155328 C16.4027227,2.55187093 16.5692597,2.32116726 16.7360693,2.07024556 C16.5576922,2.06496892 16.3976158,2.06568661 16.2376562,2.06153561 C16.0754288,2.05732618 15.912289,2.06402508 15.7341475,2.03869257 C15.8186009,1.94218765 15.9141267,1.87748967 15.9720516,1.77652867 C15.9561857,1.76903147 15.9466783,1.76294633 15.9362772,1.75997192 C15.9175851,1.75462528 15.8985278,1.75006031 15.8793295,1.74705575 C15.7013381,1.71919993 15.5231632,1.72198379 15.3475658,1.7597099 C15.2062908,1.79006268 15.067421,1.83164492 14.9275073,1.86831782 C14.8688184,1.88369983 14.8268967,1.85708311 14.827785,1.79682089 C14.8282411,1.76574731 14.8398791,1.73009154 14.8581558,1.70503485 C14.8940193,1.6558719 14.9381773,1.61277874 14.978634,1.56693972 C14.9905595,1.55342885 15.0015892,1.53913028 15.0158753,1.52172468 C15.0013481,1.51643744 14.9933243,1.51027161 14.9869657,1.51167219 C14.7995393,1.55297219 14.6117012,1.59265471 14.4252353,1.63796843 C14.3335368,1.66025235 14.2449203,1.69492811 14.15396,1.72064115 C14.0998403,1.73593965 14.0675354,1.70921871 14.0709122,1.6531385 C14.0723401,1.62940169 14.0800654,1.60217957 14.094331,1.58386261 C14.1266099,1.54241289 14.1640441,1.50484856 14.200677,1.46695824 C14.234408,1.43207063 14.2698338,1.39882189 14.3045123,1.36485031 C14.3002881,1.35820653 14.2960638,1.35156236 14.2918433,1.34491819 C13.9600711,1.41077925 13.641871,1.51284965 13.3672598,1.71540768 C13.2813025,1.64918272 13.262158,1.5793551 13.3078088,1.49972494 C13.3325404,1.45657938 13.3661175,1.41851153 13.3955927,1.37806922 C13.4078333,1.36127418 13.4197754,1.34426185 13.4318529,1.32734722 C13.3207318,1.34014604 13.2303816,1.39349994 13.1410381,1.44612215 C13.0526906,1.49815986 12.9668185,1.55520529 12.8842009,1.615958 C12.8000943,1.67780767 12.72128,1.74685547 12.6416183,1.81155754 C12.5124503,1.69504983 12.5064737,1.66630161 12.5659451,1.42682082 Z M5.26599118,6.80895476 C5.26740236,6.81514004 5.26881354,6.82132435 5.27022472,6.82750953 C5.28807025,6.83064436 5.30591383,6.83647818 5.32376033,6.83648188 C5.44625333,6.83650599 5.56876111,6.83622599 5.69123651,6.8343354 C6.06447885,6.82857392 6.42722351,6.76514808 6.78031625,6.64228233 C7.06525086,6.5431321 7.32540547,6.40445053 7.54277249,6.19226089 C7.73572768,6.00390265 7.87447507,5.78333499 7.9479321,5.52184056 C7.96400206,5.4646315 7.95078411,5.42398289 7.9135095,5.38600731 C7.83159472,5.30255428 7.75170674,5.21676296 7.66546012,5.13798117 C7.41676082,4.91080638 7.16028237,4.69242689 6.88666414,4.49567954 C6.68111964,4.34788378 6.47221407,4.20455139 6.26138,4.06438349 C6.06210789,3.93190013 5.86059665,3.80245515 5.65594504,3.67848418 C5.46333012,3.56180371 5.26650208,3.45189263 5.06940794,3.3428336 C4.81138026,3.20005567 4.5511681,3.0612304 4.29217053,2.92019654 C4.25345965,2.89911701 4.2162565,2.87526704 4.1783551,2.85269856 C4.29800629,2.87815347 4.41283974,2.91106008 4.52276287,2.95598589 C4.91685568,3.11705433 5.31394332,3.27199963 5.70091712,3.4489081 C6.02953135,3.59913685 6.35118047,3.76686803 6.66587024,3.94463128 C6.96109378,4.11139821 7.24468021,4.29908794 7.53032687,4.48234289 C7.66131933,4.56638003 7.78678578,4.65943307 7.91144372,4.75282357 C8.03383561,4.8445155 8.15259294,4.94111414 8.27165633,5.03715638 C8.30155431,5.0612706 8.32775278,5.06855546 8.36158942,5.04633639 C8.45688343,4.98376261 8.56090606,4.9318756 8.64747894,4.85910933 C8.91406646,4.63503875 9.04417624,4.34403213 9.05067019,3.99521269 C9.05586614,3.71607583 8.97745049,3.45504496 8.87846261,3.20050619 C8.79879717,2.99564692 8.68808215,2.80474632 8.56807687,2.61994194 C8.44036849,2.42328083 8.29422404,2.24118381 8.13597981,2.06865451 C8.11536665,2.04618053 8.09990492,2.01143156 8.05816129,2.0135335 C8.01984825,2.11109269 8.01967578,2.22281269 7.9331306,2.31148947 C7.85355606,2.22259394 7.7772581,2.13886374 7.70263469,2.05366479 C7.56877165,1.90083622 7.43430408,1.74867479 7.27578539,1.62024647 C7.26469904,1.6112644 7.24928922,1.60762051 7.22531043,1.59665803 C7.22849718,1.63816433 7.23215118,1.66808681 7.23277515,1.69807335 C7.23370236,1.74249613 7.23843378,1.788025 7.23074097,1.83115569 C7.21996058,1.89159418 7.20024217,1.95104333 7.12934325,1.96680636 C7.02930012,1.86681146 6.93512708,1.76485189 6.83247121,1.67230236 C6.73159732,1.58136186 6.63105914,1.4861536 6.47426594,1.43482756 C6.56217039,1.58768996 6.54054097,1.70657436 6.42018521,1.81312117 C6.36408876,1.76850142 6.30738128,1.72862096 6.25672558,1.68214494 C6.08820447,1.5275306 5.88982428,1.42184936 5.68456629,1.3270819 C5.67027744,1.32048499 5.65191275,1.32271488 5.61990826,1.31907147 C5.71471558,1.44571178 5.84243787,1.55284872 5.71282033,1.71028864 C5.55499794,1.62988839 5.40931803,1.54040778 5.25243393,1.48004629 C5.09561944,1.41971125 4.93315644,1.36488181 4.74243581,1.3466329 C4.76865654,1.37788178 4.77942575,1.39355906 4.79295801,1.40630275 C4.83143701,1.44254029 4.87370826,1.47512753 4.90938444,1.51385279 C4.93913687,1.54614894 4.96836168,1.582323 4.98483492,1.62215057 C4.99430242,1.64504271 4.98376956,1.6814045 4.97171711,1.70668558 C4.95662628,1.73834192 4.92539315,1.72802421 4.89784844,1.71934071 C4.87666878,1.71266407 4.8539074,1.71053296 4.83327753,1.70264542 C4.6427349,1.62979243 4.44500279,1.5831421 4.24591987,1.54188896 C4.18239108,1.52872439 4.1175634,1.52182978 4.05332907,1.51206653 C4.05028232,1.51765467 4.04723654,1.52324232 4.04418979,1.52883046 C4.07017962,1.55587039 4.09739718,1.58185235 4.12186646,1.61020517 C4.15631783,1.65012364 4.19170381,1.68979274 4.22112053,1.73333099 C4.24666071,1.77113225 4.24145456,1.81166264 4.21449026,1.85032344 C4.1860026,1.89116864 4.15142143,1.87448589 4.11711006,1.86473654 C4.02881721,1.83964883 3.94115757,1.81216528 3.85235285,1.78906907 C3.62889331,1.73095371 3.402629,1.71159414 3.17342751,1.74823126 C3.14506128,1.75276522 3.11782058,1.76433408 3.07957618,1.77577976 C3.14937639,1.87864894 3.24092278,1.94366582 3.32774144,2.03860565 C3.28320608,2.04413536 3.25732562,2.04965399 3.23133667,2.05021953 C2.96960949,2.05591801 2.70786004,2.06066606 2.44612644,2.06608367 C2.41141267,2.06680224 2.37674624,2.06976547 2.32309571,2.07274086 C2.49519022,2.32154313 2.65537317,2.55739724 2.70296733,2.8568376 C2.66148699,2.86173964 2.62923954,2.86940561 2.59721376,2.86857018 C2.51932389,2.86653775 2.4415536,2.86026633 2.36370261,2.85634896 C2.34060183,2.85518628 2.31739256,2.8561691 2.28804078,2.8561691 C2.29348153,2.87889158 2.29346665,2.89076417 2.29879978,2.89928958 C2.37107186,3.01481758 2.43897604,3.13318739 2.54841054,3.22067076 C2.63311987,3.28838857 2.71391465,3.36103894 2.79574037,3.43231149 C2.81662517,3.45050099 2.83699915,3.47010351 2.85380333,3.49197949 C2.89313906,3.54318322 2.88576796,3.56842853 2.82703183,3.59291735 C2.7521469,3.62413929 2.6753604,3.62469472 2.59738244,3.60673885 C2.54701696,3.59514072 2.49648075,3.58427225 2.43758051,3.57120364 C2.44368325,3.59516765 2.44338099,3.61067294 2.45074742,3.62031836 C2.52160462,3.71309694 2.58728446,3.81101314 2.66719004,3.89539046 C2.76457025,3.99821978 2.87457875,4.08904565 2.97838243,4.18585847 C3.0164285,4.22134089 3.05235406,4.25909947 3.09645551,4.30299696 C2.96968824,4.37865607 2.83888954,4.33873526 2.70078372,4.35181778 C2.82320993,4.47931014 2.93600365,4.59556594 3.0687151,4.69166019 C3.20025278,4.78690414 3.32938528,4.88547211 3.46614389,4.9874836 C3.34418124,5.06411532 3.21097843,5.02891942 3.07963918,5.05541928 C3.09626544,5.07884915 3.10387668,5.09752544 3.11772044,5.10782274 C3.22264704,5.18587021 3.32325474,5.27184985 3.43583982,5.33698164 C3.61140478,5.43854717 3.7954831,5.5253705 3.97554487,5.61922368 C3.99339594,5.62852892 4.00841162,5.64327393 4.02934192,5.658934 C3.969839,5.70526253 3.91046587,5.72894751 3.84740628,5.73752485 C3.78345476,5.74622371 3.71818385,5.74522047 3.65349053,5.74846565 C3.65157681,5.75473522 3.64966221,5.76100392 3.64774751,5.76727358 C3.68064956,5.78966046 3.71188268,5.8151459 3.74672712,5.83392788 C3.96320776,5.95061574 4.19044458,6.03980244 4.42904969,6.10064421 C4.49831119,6.11830424 4.5652659,6.14501274 4.64055965,6.16998825 C4.61562954,6.22888761 4.57696689,6.2645285 4.5310361,6.28915538 C4.48453228,6.31408918 4.43334439,6.33028426 4.37203528,6.35526814 C4.47147106,6.40940079 4.56233504,6.44507513 4.65796564,6.46035049 C4.81171121,6.48490969 4.96686514,6.50071822 5.12148775,6.51970417 C5.20986499,6.53055407 5.2984741,6.53955889 5.38676325,6.55105406 C5.4222901,6.55567979 5.45825279,6.56280793 5.4821259,6.59990365 C5.44431365,6.70433694 5.34975571,6.75141 5.26599118,6.80895476 Z M9.03396985,11.8434881 C9.02938212,11.6165525 8.99117661,11.3680785 8.91891756,11.1227644 C8.8541241,10.9027883 8.74948596,10.7035996 8.61683197,10.5220701 C8.44468185,10.2864913 8.22690504,10.1003445 7.96595107,9.95953304 C7.58508457,9.75401363 7.17997406,9.69634092 6.76021585,9.74369407 C6.30552424,9.79498958 5.89665394,9.97742213 5.52902668,10.2467244 C5.16196224,10.515615 4.87133662,10.8548807 4.65640804,11.2555055 C4.45278747,11.6350554 4.32045986,12.0376718 4.30399401,12.4721666 C4.29200836,12.7884307 4.31262793,13.1005262 4.41999024,13.4028566 C4.51136415,13.6601667 4.63584126,13.899137 4.81691561,14.1029801 C5.01684699,14.3280502 5.2538489,14.5055539 5.53839132,14.6152249 C5.72400235,14.6867626 5.91335721,14.7397067 6.11198406,14.7561382 C6.4416895,14.7834122 6.7606304,14.735028 7.07404996,14.6301358 C7.30873118,14.551596 7.52281043,14.4356146 7.72610375,14.2984916 C7.90186801,14.1799382 8.05900518,14.0393754 8.20580986,13.8852645 C8.37425864,13.7084357 8.51957426,13.5146118 8.63804421,13.3035422 C8.75481364,13.0954971 8.85670185,12.8793039 8.91858583,12.6453403 C8.98590649,12.3908211 9.03004226,12.1343362 9.03396985,11.8434881 Z M14.7154824,12.5065169 C14.7087733,12.2954435 14.6981107,12.0844797 14.6481856,11.8772227 C14.5924823,11.6459943 14.5093732,11.4242473 14.4030865,11.2130404 C14.2929686,10.9942122 14.1562258,10.7914966 13.9971342,10.602926 C13.8214719,10.3947214 13.6220459,10.2143545 13.3983165,10.0620295 C13.0671544,9.83656628 12.7035373,9.69059615 12.3050245,9.63116178 C11.9203584,9.57378949 11.5481128,9.61899714 11.1919019,9.76745217 C10.9052762,9.88690863 10.6611284,10.0719781 10.4658544,10.3154416 C10.2954733,10.5278686 10.164516,10.7619657 10.0907289,11.0265504 C10.0442233,11.1933062 10.0049162,11.3612581 9.993052,11.5340424 C9.95898174,12.0302691 10.0499236,12.5029934 10.2618944,12.9533245 C10.4358896,13.3229759 10.6718708,13.6455318 10.9722726,13.9228505 C11.1142503,14.0539208 11.2665642,14.1708053 11.4321871,14.2676682 C11.7294124,14.4414984 12.0426947,14.5713782 12.3898562,14.6158033 C12.6558076,14.6498383 12.9206297,14.6510121 13.1786982,14.5908713 C13.6698328,14.4764179 14.0648408,14.2073493 14.3470587,13.786855 C14.6059042,13.4011821 14.7232448,12.9711043 14.7154824,12.5065169 Z M12.0431694,16.6022437 C12.0586923,16.1873904 11.9284916,15.8041262 11.7093649,15.4488443 C11.6085596,15.2854078 11.4835383,15.1403463 11.3439174,15.0060234 C11.1816826,14.8499414 11.0025099,14.7174599 10.804931,14.6159295 C10.5550142,14.4875054 10.2927771,14.3911877 10.010333,14.3466477 C9.65543131,14.2906811 9.30387857,14.2992724 8.95633683,14.3737252 C8.64154878,14.441161 8.34986062,14.572491 8.08163015,14.7545193 C7.74503846,14.9829402 7.47891926,15.2747007 7.29698917,15.6373166 C7.09441724,16.0410771 7.02143028,16.4708377 7.0892315,16.9191401 C7.12302731,17.1425987 7.18783185,17.3585379 7.29193886,17.5610867 C7.39039367,17.7526372 7.51011719,17.9281382 7.65593808,18.0880087 C7.78841036,18.2332446 7.93614769,18.3591431 8.09811554,18.4673546 C8.38604674,18.6597247 8.70310639,18.7828844 9.04277449,18.8520819 C9.56360122,18.9581869 10.0690311,18.8980183 10.5599933,18.7099262 C10.7650992,18.6313437 10.9556706,18.5195106 11.1310473,18.3844218 C11.4218417,18.1604291 11.656777,17.8918501 11.8202617,17.5598684 C11.9681974,17.2594665 12.0519239,16.9467312 12.0431694,16.6022437 Z M16.0176577,16.8419151 C16.0243056,16.5278539 15.9813937,16.245497 15.9108852,15.9658195 C15.8675505,15.7939289 15.7963873,15.6362874 15.7101814,15.4822154 C15.6294257,15.3378882 15.5015856,15.2613548 15.3560475,15.2078303 C15.1450057,15.1302121 14.9332611,15.1542836 14.725038,15.2227061 C14.4545026,15.3116026 14.2162776,15.4613594 13.9932901,15.633784 C13.7840434,15.7955849 13.5888694,15.974446 13.4054614,16.165646 C13.2320095,16.3464709 13.0603749,16.5279986 12.9181653,16.736307 C12.7526075,16.9788192 12.6164617,17.2356157 12.5056874,17.5070579 C12.3788969,17.8177459 12.2816205,18.1354861 12.2442032,18.4707686 C12.2158239,18.7250208 12.2142737,18.9769717 12.2823178,19.2251546 C12.3358663,19.4204565 12.4505961,19.5686705 12.6377665,19.6543052 C12.8073929,19.7319067 12.9882641,19.7621477 13.1726179,19.7738506 C13.3975025,19.7881311 13.6184113,19.7542128 13.8338721,19.6964271 C14.1403581,19.6142341 14.4205399,19.4724585 14.6787531,19.28786 C14.705888,19.2684596 14.7336517,19.2496044 14.7588099,19.2278249 C14.8912043,19.1132121 15.0304931,19.0052231 15.152618,18.8804724 C15.2748059,18.7556624 15.3808701,18.6148621 15.4916964,18.4791818 C15.671798,18.2586995 15.8051511,18.0102848 15.8860293,17.7392172 C15.9753911,17.4397276 16.0301005,17.1321438 16.0176577,16.8419151 Z M5.65379585,19.7221118 C5.76156979,19.7110246 5.870283,19.7055783 5.97693869,19.6877857 C6.28895261,19.6357373 6.49521471,19.4643772 6.57813087,19.1509854 C6.62657992,18.9678667 6.63980622,18.7825932 6.6241479,18.5963202 C6.59052262,18.1962647 6.4841655,17.8152813 6.31305011,17.4513192 C6.17598087,17.1597794 6.01121944,16.8876251 5.78935931,16.6525303 C5.6844819,16.5413963 5.58285328,16.4262253 5.46942635,16.3243872 C5.34144904,16.2094851 5.20487029,16.1034709 5.0666866,16.0007835 C4.78998817,15.7951601 4.4926164,15.6296784 4.15175315,15.5539757 C3.96484411,15.5124639 3.77864625,15.4998783 3.58914381,15.5419891 C3.41691581,15.5802614 3.2717745,15.6531824 3.16741257,15.8023274 C3.09897999,15.9001267 3.05785936,16.0086906 3.02335607,16.1195334 C2.95231803,16.347743 2.93658281,16.5825948 2.94826532,16.8210237 C2.96352308,17.1324627 3.03331678,17.4332762 3.13075814,17.7263719 C3.19190129,17.9102898 3.27944407,18.0859577 3.36268661,18.2617535 C3.39920192,18.3388674 3.4487135,18.411781 3.50256431,18.4783158 C3.60915049,18.6100055 3.71620129,18.7425518 3.83547692,18.8623884 C3.95668299,18.9841684 4.08690029,19.0989278 4.22396399,19.2024774 C4.39474376,19.3314968 4.58032971,19.4376056 4.77936353,19.5215193 C5.0596901,19.6397057 5.34689349,19.7174388 5.65379585,19.7221118 Z M9.59963324,9.52702336 C9.80937142,9.53082757 10.0536694,9.51081156 10.2959201,9.47542004 C10.5585559,9.43704944 10.8114786,9.35896396 11.0536625,9.25004863 C11.2987189,9.13984082 11.5139572,8.9898105 11.6600942,8.75779404 C11.7653759,8.59063676 11.8029509,8.41028575 11.7539919,8.21472238 C11.7130623,8.05122843 11.6265766,7.91195439 11.5196482,7.78690794 C11.3390199,7.57567614 11.1192681,7.4133754 10.8768227,7.27604289 C10.5926522,7.1150774 10.2914955,7.00757694 9.97400199,6.94019669 C9.45016564,6.82902649 8.94356378,6.89931251 8.45299843,7.09717344 C8.18368879,7.2057939 7.93586935,7.35557106 7.71250343,7.54314218 C7.56231269,7.66926322 7.43157894,7.81168697 7.3302906,7.98132808 C7.21718353,8.17076558 7.2206076,8.35984142 7.31374036,8.55443403 C7.38091664,8.69479103 7.47270686,8.81597114 7.58968872,8.91731967 C7.76761336,9.07146579 7.96517757,9.19310576 8.1853929,9.27942558 C8.3828385,9.35682128 8.58297472,9.42316679 8.79161692,9.46207425 C9.0468095,9.50966365 9.30455533,9.52770576 9.59963324,9.52702336 Z M9.69844135,19.621837 C9.12914146,19.6169025 8.63279061,19.6740838 8.14812218,19.8149099 C7.84836011,19.9020059 7.55413047,20.0037698 7.29812035,20.1917507 C7.20834301,20.2576753 7.13834437,20.3392006 7.09108864,20.4382943 C7.05484322,20.514301 7.05181125,20.5977828 7.09075206,20.6730274 C7.13403578,20.7566593 7.17984514,20.8416672 7.23960297,20.9135684 C7.39151551,21.0963496 7.57122681,21.2517604 7.76760976,21.3843291 C7.9493915,21.5070455 8.13722396,21.6207757 8.34171612,21.7055721 C8.52203661,21.7803457 8.70259257,21.853074 8.89415612,21.8922717 C9.13251828,21.9410434 9.37431286,21.9601508 9.61685294,21.942499 C9.77184461,21.931217 9.92911157,21.9177802 10.0793376,21.880832 C10.4891656,21.7800416 10.861567,21.5934144 11.2025164,21.346231 C11.3670117,21.2269767 11.5178867,21.0913576 11.6546296,20.9394757 C11.7491169,20.8345297 11.8245377,20.7192121 11.8801836,20.5910903 C11.9417596,20.4493184 11.9194034,20.317497 11.8119151,20.2055637 C11.7660084,20.15776 11.7128047,20.116415 11.6600665,20.0758433 C11.5620317,20.0004206 11.44794,19.9554412 11.3347123,19.9084904 C11.1385964,19.8271708 10.9367189,19.7622532 10.7287331,19.7239364 C10.3670833,19.6573073 10.0031194,19.6047675 9.69844135,19.621837 Z M15.2598745,12.3261704 C15.2643657,12.4212049 15.2685584,12.5241426 15.2742142,12.6270025 C15.2898354,12.9109431 15.3265556,13.1922469 15.3728851,13.4728182 C15.424685,13.7865214 15.4947726,14.0950602 15.5938756,14.3974147 C15.669595,14.6284262 15.7576773,14.8530308 15.8915719,15.0574098 C15.953339,15.1516914 16.0259226,15.2357684 16.1259861,15.2908895 C16.2068235,15.3354203 16.2961094,15.3502626 16.3697167,15.2884732 C16.4588098,15.2136829 16.5438899,15.1307927 16.6158097,15.0396505 C16.7224191,14.9045451 16.8173366,14.7611524 16.8902708,14.6025466 C17.0074501,14.3477362 17.0928084,14.0855177 17.1304335,13.8069417 C17.1679585,13.5290741 17.1724553,13.2523692 17.1316555,12.9744794 C17.1024252,12.7754187 17.0583468,12.5812294 16.9808046,12.3947673 C16.8928,12.1831377 16.793241,11.9779706 16.6452217,11.8011919 C16.545403,11.6819784 16.4463038,11.5603282 16.3328926,11.4548055 C16.1967134,11.3281003 16.0460944,11.2171925 15.8841377,11.1227811 C15.7883745,11.0669573 15.694384,11.0634654 15.5989527,11.1159292 C15.5265805,11.1557183 15.4671425,11.2120465 15.4346484,11.2884891 C15.3999162,11.3701943 15.3680433,11.4539523 15.3446207,11.5394702 C15.2748541,11.7941878 15.2682006,12.0563434 15.2598745,12.3261704 Z M3.53800793,12.3785248 C3.52518967,12.2037693 3.5176915,12.0284129 3.49806953,11.8544214 C3.47805808,11.6769752 3.4330545,11.5051681 3.35254624,11.3433802 C3.28008778,11.1977716 3.13667567,11.1150482 2.99239944,11.1514291 C2.94250033,11.1640091 2.89429231,11.190851 2.85064147,11.2193452 C2.66634061,11.3396491 2.49439261,11.4740202 2.34097711,11.6343005 C2.14846787,11.8354251 1.99117311,12.0575783 1.8758695,12.3106641 C1.75979725,12.5654355 1.67972571,12.8281028 1.65051578,13.1090431 C1.6211639,13.39135 1.62495051,13.6720604 1.67211729,13.9492178 C1.73276529,14.3055843 1.85900407,14.6405646 2.06114764,14.9440169 C2.15112894,15.0790946 2.25456367,15.2020205 2.37455232,15.3113076 C2.46104743,15.3900867 2.55479211,15.3991935 2.65975575,15.3505738 C2.74356753,15.3117489 2.80839997,15.2524407 2.85916874,15.1779304 C2.9690631,15.0166487 3.05520685,14.8444652 3.12583228,14.6610071 C3.26161089,14.3083066 3.34703694,13.9438512 3.4135911,13.5739366 C3.48466521,13.1788936 3.5256226,12.7805219 3.53800793,12.3785248 Z M6.10000375,7.3075531 C5.90908653,7.32866228 5.71458754,7.34284263 5.52263646,7.37315963 C5.25496696,7.41543544 4.99860537,7.50038774 4.75460317,7.61833569 C4.65726564,7.66538843 4.56721482,7.72728438 4.47214325,7.77930954 C4.32897497,7.85765656 4.20839112,7.96637988 4.09216497,8.07680001 C3.96967849,8.19316801 3.86166625,8.32424768 3.76452433,8.46498113 C3.58992275,8.71792972 3.47049594,8.99471624 3.38802486,9.28795926 C3.32072521,9.52725971 3.29476046,9.77399619 3.28301951,10.021849 C3.27920228,10.1023916 3.28042806,10.1833439 3.28318547,10.2639773 C3.28642599,10.3587318 3.33214172,10.404097 3.42538756,10.3971449 C3.48267633,10.3928762 3.54332803,10.3824973 3.59458553,10.358218 C3.74508961,10.2869269 3.89504857,10.2131287 4.03874156,10.1292186 C4.16570629,10.0550773 4.28823643,9.97163079 4.40522471,9.88245244 C4.69040587,9.66506317 4.97699268,9.44885796 5.25206944,9.21907596 C5.48888508,9.02125304 5.71321058,8.80812881 5.93827604,8.59668 C6.20429704,8.34675589 6.45547007,8.08210339 6.67210461,7.78756876 C6.7289836,7.71023607 6.7729645,7.62078054 6.80864437,7.53122575 C6.84499644,7.43998814 6.80801292,7.38477156 6.71003469,7.37285639 C6.50862457,7.34836222 6.30655149,7.32933263 6.10000375,7.3075531 Z M15.5025276,10.1118322 C15.4988244,9.90798913 15.4692417,9.70735221 15.4316778,9.50727714 C15.3975927,9.32573097 15.3403521,9.15247835 15.2675663,8.98313017 C15.1836692,8.78792933 15.079973,8.6056191 14.9536108,8.43411151 C14.8536938,8.2985045 14.7386323,8.17749404 14.6144379,8.06730481 C14.483883,7.95147085 14.3417459,7.84885396 14.1879225,7.76176268 C13.9457273,7.62463686 13.6884303,7.53056765 13.4194172,7.46683489 C13.0445607,7.3780256 12.6647549,7.36542696 12.2826608,7.40561765 C12.2079798,7.41347272 12.1333342,7.42375242 12.0595693,7.43766015 C11.9781052,7.45301893 11.9451679,7.50637274 11.9737196,7.58374899 C11.9995435,7.65372536 12.02699,7.72610497 12.0694828,7.78629681 C12.1543887,7.90656643 12.2458275,8.02290381 12.3421934,8.13426875 C12.56443,8.39108835 12.8043942,8.6314245 13.0574393,8.85753111 C13.3187326,9.09100513 13.5839014,9.32056274 13.8551211,9.54236172 C14.0594408,9.70945133 14.2736813,9.86477492 14.4877309,10.0194921 C14.6998519,10.172813 14.9219642,10.3111488 15.164903,10.411496 C15.2232377,10.4355935 15.2865514,10.4527631 15.3491195,10.4602974 C15.4470004,10.4720874 15.4965954,10.427069 15.5017803,10.3289136 C15.5055948,10.2567435 15.5025276,10.1842063 15.5025276,10.1118322 Z"></path>
                </g>
            </g>
        </g>
    </g>
</svg>