<?xml version="1.0" encoding="UTF-8"?>
<svg width="43px" height="43px" viewBox="0 0 43 43" version="1.1" xmlns="http://www.w3.org/2000/svg" xmlns:xlink="http://www.w3.org/1999/xlink">
    <!-- Generator: Sketch 44 (41411) - http://www.bohemiancoding.com/sketch -->
    <title>redhat_active</title>
    <desc>Created with Sketch.</desc>
    <defs></defs>
    <g id="V3.1-assets" stroke="none" stroke-width="1" fill="none" fill-rule="evenodd">
        <g id="Host-icons" transform="translate(-395.000000, -106.000000)">
            <g id="redhat_active" transform="translate(395.000000, 106.000000)">
                <circle id="Oval-3" fill="#F15F5E" cx="21.5" cy="21.5" r="21.5"></circle>
                <g transform="translate(6.000000, 9.000000)" id="Group" fill-rule="nonzero" fill="#FFFFFF">
                    <g transform="translate(0.916667, 0.833333)">
                        <path d="M18.6569302,16.0277534 C17.8409921,16.0583338 16.9056829,15.9432276 15.9708948,15.8009254 C15.588517,15.7427131 15.2055439,15.7030594 14.8350748,15.5820119 C14.6998989,15.5378464 14.5511991,15.5370138 14.4112445,15.5051057 C14.2105166,15.4593474 14.0118454,15.4043617 13.8129572,15.3508539 C13.7523787,15.3345558 13.6948396,15.3071113 13.6344429,15.2899435 C13.2209413,15.1724118 12.8049383,15.0631582 12.3940014,14.9373282 C12.1025487,14.8480831 11.8158284,14.7421821 11.5304543,14.6345546 C11.086264,14.4670292 10.6422182,14.2984784 10.2035075,14.1172975 C9.92221028,14.0011307 9.65028225,13.8621682 9.37476507,13.73214 C9.14834599,13.625284 8.91976935,13.5224278 8.69751604,13.4074293 C8.19691678,13.1484021 7.69690347,12.8879841 7.201922,12.6184501 C6.83276951,12.4174348 6.45668537,12.2234421 6.11082558,11.9866803 C5.57865758,11.6223714 5.06467529,11.2306773 4.55316867,10.8373531 C4.30469142,10.6462903 4.07299015,10.4318717 3.84488446,10.2161903 C3.44409139,9.83722824 3.10016476,9.40323689 2.84447907,8.92028842 C2.58608651,8.43222285 2.48153451,7.90020963 2.77541133,7.37189775 C2.93211411,7.09019257 3.16547875,6.86636213 3.43733726,6.71367356 C4.02328937,6.38458654 4.66732671,6.20999138 5.33662276,6.17396471 C5.91042219,6.14308119 6.48687064,6.16117046 7.06215271,6.15853914 C7.10691343,6.15833147 7.15199119,6.16350885 7.19644868,6.16961431 C7.45201567,6.20470268 7.48136103,6.2603939 7.39818246,6.50442489 C7.26483868,6.89563506 7.27875847,7.27164035 7.47399178,7.650748 C7.74832683,8.18346579 8.17751997,8.55364193 8.67516893,8.85140132 C9.09665906,9.10359703 9.52891567,9.34034685 9.96970421,9.55685986 C10.2656167,9.70221068 10.5845213,9.80086207 10.893533,9.91938578 C11.1356317,10.0122414 11.376959,10.1073481 11.6210659,10.1946461 C12.0179004,10.33657 12.4114388,10.4914635 12.8160643,10.6068811 C13.3070395,10.7469266 13.8053727,10.8649996 14.3057773,10.9667395 C14.6124117,11.0290795 14.9282048,11.0562183 15.2412775,11.0727462 C15.3892004,11.0805606 15.5459259,11.043043 15.6886732,10.9958437 C15.8541624,10.9411251 15.8811787,10.7994069 15.7444396,10.6875534 C15.4939277,10.4826292 15.3194354,10.2271661 15.1909705,9.93670553 C15.1333498,9.80641958 15.0717903,9.67315553 15.0448093,9.53484476 C14.9177685,8.88364867 14.5391625,8.47628882 13.9142353,8.25326785 C13.2260669,8.00767547 12.5130795,7.8821961 11.8053855,7.72100438 C11.3102918,7.60823943 10.8036037,7.51433424 10.332461,7.30171721 C10.0555475,7.176757 9.76200312,7.08889154 9.48381194,6.96645143 C9.04653099,6.77398488 8.65021665,6.52375937 8.33046812,6.15516971 C8.03912112,5.81930864 7.98274837,5.42746983 8.03233696,5.01834181 C8.08186983,4.60967743 8.11698786,4.19387092 8.28272744,3.80711304 C8.30373464,3.75809097 8.312682,3.70352996 8.32419107,3.65087518 C8.43341975,3.15128003 8.52835501,2.64806519 8.65460954,2.15283056 C8.77867686,1.66619746 8.99389556,1.21564431 9.41485631,0.916004542 C9.68985607,0.720263153 9.98627846,0.559183625 10.3468165,0.529462694 C11.1154478,0.466101806 11.8677087,0.515677361 12.62185,0.688393028 C13.4020183,0.867071431 14.1896994,0.884594278 14.9617984,0.608457792 C15.0708853,0.569440083 15.1904734,0.560823764 15.3030779,0.530302306 C15.4065979,0.502241542 15.5355394,0.491778778 15.6032609,0.423756375 C15.7430894,0.283317319 15.9051593,0.284218083 16.0746372,0.283875472 C16.5781572,0.282859694 17.0816845,0.28316575 17.5852044,0.284614944 C17.7107209,0.284975639 17.8280634,0.290061722 17.9278802,0.399909222 C17.9820463,0.459518792 18.0864008,0.480614944 18.1723062,0.503084361 C18.5830187,0.610530958 18.9385768,0.822880139 19.2227975,1.12706115 C19.4536365,1.37409251 19.661956,1.65103565 19.8340376,1.94204422 C20.1027872,2.39651942 20.3416352,2.86957485 20.5752873,3.34356206 C20.7173801,3.63181039 20.8265429,3.93634101 20.9493391,4.23403828 C21.0927168,4.58161988 21.2403448,4.9276011 21.3755949,5.27834154 C21.4690624,5.52070264 21.5648089,5.76519815 21.6242507,6.01706379 C21.7660356,6.61776267 22.0006203,7.19498811 22.0098347,7.82986672 C22.0178048,8.37883346 21.8465596,8.84837858 21.5405501,9.2852025 C21.5199889,9.31455068 21.4952294,9.34210842 21.4805614,9.37421674 C21.4411691,9.46042903 21.4170493,9.56365696 21.5078818,9.61654906 C21.5648739,9.6497274 21.6757428,9.65138426 21.7299812,9.61658522 C21.8801756,9.52022303 22.0284489,9.41140696 22.1495725,9.28149746 C22.3133742,9.10580271 22.4777045,8.92672929 22.5585771,8.68719979 C22.6009012,8.56182882 22.6765519,8.44597454 22.7479748,8.33263375 C22.8232435,8.21319032 22.927993,8.18975199 23.0736387,8.21764913 C23.4818201,8.29582921 23.875975,8.42358115 24.248762,8.59471142 C24.9872246,8.93371471 25.6889763,9.33849233 26.1420649,10.0495029 C26.5517037,10.6923247 26.6386568,11.3926338 26.4168152,12.1176058 C26.3231234,12.4237859 26.1727176,12.7133359 26.0394294,13.0065057 C25.8299509,13.4672528 25.4686294,13.807913 25.1089545,14.146257 C24.7870197,14.4490918 24.4157792,14.6888429 24.0290084,14.8967804 C23.7624265,15.0400989 23.4748124,15.1478487 23.1894068,15.2517358 C22.7944824,15.3954993 22.3936351,15.5233115 21.9934942,15.6522939 C21.8658914,15.6934238 21.7337678,15.7243156 21.6014606,15.7463177 C21.3090065,15.7949485 21.0129105,15.8237171 20.7222683,15.880789 C20.0829697,16.0063187 19.4371382,16.0290606 18.6569302,16.0277534 Z M9.41080544,3.44572307 C9.40232912,3.78074871 9.55117081,4.04461769 9.84655564,4.2667031 C9.97322463,4.36193878 10.0785536,4.48609506 10.1907196,4.59992633 C10.2973197,4.70811104 10.3926898,4.82849004 10.506292,4.9283885 C10.7256738,5.12129917 10.8418833,5.10955637 11.0666826,4.91813389 C11.2093686,4.79663207 11.350307,4.64989049 11.5190368,4.58740294 C11.7945141,4.48537658 12.0891025,4.42264521 12.3809937,4.38027207 C12.7716077,4.32356274 13.1670514,4.29856778 13.5609894,4.26697678 C13.7609346,4.25094211 13.9335428,4.18388999 14.0424015,4.01367487 C14.0787397,3.95685432 14.096384,3.8401544 14.0629387,3.79605849 C13.9789822,3.68537137 13.8757051,3.55037064 13.7538862,3.51456749 C13.3672508,3.40094951 12.9736447,3.31571819 12.5594117,3.36230358 C12.1133697,3.41247258 11.6635449,3.42896157 11.2153991,3.46056278 C11.0292254,3.47368243 10.8587377,3.43375239 10.708559,3.31803704 C10.5385256,3.18702417 10.3656467,3.05965051 10.1969438,2.92696872 C9.94729419,2.73063204 9.817164,2.73881261 9.58555821,2.95284646 C9.43768817,3.08949647 9.42243692,3.26503635 9.41080544,3.44572307 Z M15.4748498,1.30030561 C15.576586,1.32419778 15.6593037,1.35256858 15.7440965,1.36173664 C15.9406112,1.38299097 16.1379751,1.39741836 16.3352927,1.41003781 C16.5458782,1.42351349 16.7423614,1.47765032 16.9196407,1.59458765 C17.0847275,1.70348306 17.1089326,1.79525422 16.9785873,1.94374687 C16.9051971,2.02735799 16.7982742,2.08448081 16.6996424,2.14181226 C16.6470173,2.17239536 16.573844,2.16742944 16.5208888,2.19767411 C16.4556782,2.23491722 16.4018737,2.29212628 16.3431366,2.34070696 C16.4007277,2.40159412 16.4562827,2.46463894 16.5171875,2.52200929 C16.5346482,2.53846221 16.5671311,2.54105367 16.5934836,2.54567474 C16.9329124,2.60519156 17.2713584,2.62762199 17.6086789,2.52837812 C17.7378837,2.49037571 17.8684312,2.45389657 18.0007977,2.4303405 C18.2697977,2.38247742 18.4447256,2.20371375 18.6031127,2.00554307 C18.7024827,1.88121937 18.7044965,1.74914299 18.6100628,1.60810592 C18.4231946,1.32903536 18.1444388,1.17942319 17.839859,1.10443394 C17.1384189,0.931729847 16.4291088,0.988540681 15.7237484,1.10041001 C15.6320538,1.11495563 15.5235065,1.12613608 15.4748498,1.30030561 Z" id="Shape"></path>
                        <path d="M14.5233223,27.0340485 C13.5926657,27.0060068 12.6691837,26.9733848 11.7601101,26.7586045 C11.2366928,26.6349442 10.705045,26.5438725 10.1858751,26.4052661 C9.84094436,26.3131783 9.51148829,26.1630784 9.17522482,26.0386133 C9.14996931,26.0292673 9.12660428,26.014017 9.10086839,26.0069036 C8.64892865,25.8819416 8.25035478,25.6362528 7.82531069,25.4516951 C7.40336897,25.2684744 7.01038703,25.0384105 6.62206864,24.8027594 C6.19420871,24.5431147 5.78840374,24.2444245 5.38804233,23.9427653 C4.69065538,23.4172952 4.04877832,22.8276326 3.46603386,22.1771968 C2.90855425,21.5549511 2.38585783,20.9045115 1.95323596,20.1865879 C1.71775732,19.7958135 1.4779381,19.4075147 1.25042215,19.0121415 C1.14813572,18.8343856 1.06557938,18.644478 0.984043278,18.4557684 C0.856152694,18.1597874 0.740443472,17.858527 0.611795431,17.562889 C0.563030222,17.4508314 0.480862083,17.3528634 0.435834292,17.2397525 C0.39836125,17.1456063 0.364329486,17.0321933 0.385241111,16.9401462 C0.395947319,16.8930397 0.529759125,16.8487463 0.609094889,16.8466323 C1.01339554,16.8358436 1.4180809,16.8398286 1.8226249,16.8374867 C2.15838437,16.835547 2.48327644,16.7734814 2.80003753,16.6625624 C2.90144779,16.6270531 3.00918411,16.6095887 3.11056472,16.5740071 C3.24451449,16.526986 3.37389364,16.4670566 3.50732035,16.4183776 C3.79343154,16.3139934 4.07523219,16.1906799 4.36932319,16.1172563 C4.67770946,16.0402648 5.23122678,16.2779891 5.42735949,16.534689 C5.53064954,16.6698779 5.62338924,16.813074 5.72375494,16.9505642 C6.12347478,17.4981512 6.64892822,17.7538498 7.33322382,17.6453008 C7.47828258,17.6222955 7.58272239,17.5515311 7.65049853,17.4231755 C7.7060025,17.318057 7.71334579,17.2111769 7.62631392,17.1237101 C7.53234942,17.0292728 7.43800293,16.9230843 7.32226085,16.8649296 C7.06863724,16.7374956 6.90644782,16.5359501 6.76677789,16.3000635 C6.66670142,16.1310435 6.54804792,15.9725694 6.43173281,15.8137466 C6.31526933,15.6547327 6.18048006,15.5080968 6.07503517,15.342463 C6.01459853,15.2475306 5.97586082,15.1277682 5.96409771,15.0153378 C5.94456936,14.8287237 5.94308769,14.6383247 5.9542946,14.4507332 C5.99776469,13.7233912 6.85949347,13.2638309 7.48870889,13.4923742 C8.01468519,13.6834222 8.38597113,14.0303482 8.66317482,14.5040778 C8.77595649,14.6968318 8.90675149,14.8828767 9.05331408,15.0510993 C9.25739267,15.2853336 9.47030642,15.2924563 9.71621865,15.1047572 C10.0237023,14.8700686 10.2663898,14.9088638 10.4905076,15.2253541 C10.9146523,15.8243071 11.4197772,16.3484865 12.0142389,16.7756881 C12.7899215,17.33312 13.6633912,17.4254378 14.5835707,17.2579533 C15.0607363,17.1711003 15.5407002,17.0980049 16.0211684,17.0314628 C16.3779709,16.9820476 16.722603,17.0560257 17.0423831,17.2131166 C17.245987,17.3131337 17.4238393,17.3129854 17.632094,17.2196105 C17.8599215,17.1174609 18.1067006,17.0559441 18.3480705,16.986665 C18.4137818,16.9678043 18.4926202,16.9722084 18.5605847,16.9874884 C18.8761256,17.0584272 19.1916182,17.1307753 19.5037583,17.2151138 C19.6834742,17.2636704 19.8542781,17.2739157 20.0320172,17.2101997 C20.3183592,17.1075549 20.607646,17.0130991 20.8958647,16.9157078 C21.0622292,16.8594889 21.1678483,16.9266893 21.1585154,17.1026335 C21.151962,17.2260695 21.1227985,17.3524742 21.0804465,17.4691065 C20.905526,17.9508097 20.7416259,18.4324759 20.7246788,18.95354 C20.7177101,19.1679975 20.69907,19.3904121 20.6338927,19.5924917 C20.5549875,19.8371291 20.4467742,20.0809356 20.3055956,20.2950037 C20.039342,20.6987105 19.7374566,21.0787592 19.4563365,21.4728937 C19.3158756,21.6698238 19.1815675,21.8719293 19.0568354,22.0791288 C18.8391291,22.4407767 18.6235571,22.8029531 18.3317613,23.1122596 C18.2947722,23.1514702 18.2557359,23.1896813 18.2246011,23.2333164 C18.1113438,23.3920668 18.1649758,23.5033956 18.363673,23.5224993 C18.4079535,23.5267588 18.4563431,23.5300614 18.4976269,23.5171346 C18.8487642,23.4072355 19.2062323,23.3032204 19.4749041,23.032837 C19.7027909,22.8034964 19.9244878,22.5668922 20.1345876,22.3212331 C20.4754628,21.9226537 20.9011864,21.6496891 21.3770448,21.4470957 C21.4585498,21.412395 21.5495806,21.3898904 21.6378243,21.383261 C21.8410407,21.3679995 21.9932304,21.2539207 22.1295561,21.1257562 C22.1934297,21.0656988 22.2361283,20.9592248 22.2455022,20.8693177 C22.2814695,20.5242052 22.365808,20.4352883 22.6969645,20.3275403 C23.6981426,20.0017912 24.7260367,19.9719247 25.7627426,20.0282455 C25.9958328,20.0409072 26.2288915,20.0657353 26.4601254,20.0981236 C26.7491618,20.1386137 26.8163957,20.3115056 26.651637,20.5508542 C25.9964595,21.5026673 25.2311253,22.3590917 24.3847905,23.1422631 C23.7847861,23.697492 23.1471472,24.2071981 22.4437117,24.6296043 C22.0677815,24.8553494 21.7009878,25.0971198 21.3182076,25.3103665 C21.0617487,25.4532454 20.785168,25.5603351 20.5162867,25.6805203 C20.2145459,25.8153996 19.9156295,25.9581561 19.6075784,26.0769691 C19.281501,26.2027397 18.9489889,26.3139424 18.6141922,26.4145752 C17.8902326,26.6321851 17.1465592,26.7694157 16.4009369,26.8763384 C15.7802863,26.9653294 15.1495753,26.9841475 14.5233223,27.0340485 Z M15.6980525,18.9441994 C15.6485297,18.9497754 15.5572097,18.9502966 15.4711188,18.9717663 C15.2897377,19.0170018 15.1283113,19.2236023 15.1383601,19.3829017 C15.1486037,19.5453294 15.3331187,19.7002154 15.5389479,19.7170661 C15.5835343,19.7207155 15.6288624,19.7149688 15.6735044,19.7182492 C15.8739633,19.7329728 16.0482181,19.8016159 16.2218777,19.9128427 C16.8014618,20.2840406 17.3782756,20.0428895 17.6838159,19.5165256 C17.7432242,19.4141868 17.75782,19.2751686 17.7574973,19.1531662 C17.7573323,19.0887547 17.6926019,18.9915655 17.6345175,18.9701142 C17.5830904,18.9511218 17.4928254,19.0055753 17.4335673,19.0472892 C17.3546157,19.1028721 17.2971767,19.1902164 17.2163616,19.2417382 C16.8898632,19.4498815 16.5875105,19.3166694 16.3150781,19.1325864 C16.133417,19.0098365 15.9482901,18.9531801 15.6980525,18.9441994 Z" id="Shape"></path>
                    </g>
                </g>
            </g>
        </g>
    </g>
</svg>