<?xml version="1.0" encoding="UTF-8"?>
<svg width="43px" height="43px" viewBox="0 0 43 43" version="1.1" xmlns="http://www.w3.org/2000/svg" xmlns:xlink="http://www.w3.org/1999/xlink">
    <!-- Generator: Sketch 44 (41411) - http://www.bohemiancoding.com/sketch -->
    <title>suze_active</title>
    <desc>Created with Sketch.</desc>
    <defs></defs>
    <g id="V3.1-assets" stroke="none" stroke-width="1" fill="none" fill-rule="evenodd">
        <g id="Host-icons" transform="translate(-812.000000, -106.000000)">
            <g id="suze_active" transform="translate(812.000000, 106.000000)">
                <circle id="Oval-3" fill="#13CD62" cx="21.5" cy="21.5" r="21.5"></circle>
                <g transform="translate(7.000000, 14.000000)" id="Group" fill-rule="nonzero" fill="#FFFFFF">
                    <g transform="translate(0.888889, 0.694444)">
                        <path d="M19.7793838,1.35978024 C19.7820411,1.32487269 19.7853586,1.29888558 19.7857907,1.27284937 C19.7896423,1.03971564 19.7928466,0.806570722 19.7967407,0.573437861 C19.7970634,0.554066236 19.8010428,0.534754889 19.8045735,0.504816083 C19.8334164,0.504816083 19.8601507,0.501287208 19.8856502,0.505397472 C20.0347709,0.529435667 20.1836023,0.555278986 20.3325359,0.580478014 C20.4765775,0.604848125 20.6207898,0.628275278 20.7646256,0.653802431 C20.8840505,0.674997847 21.0031287,0.698180194 21.1221957,0.721327347 C21.2533124,0.746815611 21.3844773,0.772158333 21.5151842,0.799626139 C21.638711,0.825584472 21.7616555,0.854329 21.8848986,0.881641056 C21.981487,0.903046958 22.0782719,0.923575722 22.174738,0.945515667 C22.2831739,0.970176861 22.391684,0.994647111 22.4995618,1.0215976 C22.6794743,1.06654187 22.8592607,1.11209068 23.0384297,1.15989164 C23.1602578,1.19239497 23.2812349,1.22821018 23.4020692,1.26429712 C23.546261,1.30735918 23.6907291,1.34978249 23.8335432,1.39710871 C23.9835504,1.44681775 24.1322799,1.50053692 24.2806125,1.55510444 C24.5659402,1.66006906 24.8422594,1.78524899 25.1077343,1.93358346 C25.1966122,1.9832434 25.279623,2.04179228 25.3509345,2.11557471 C25.4112904,2.17801685 25.4735062,2.23870558 25.5326365,2.30227511 C25.6471362,2.42537167 25.7218339,2.57402882 25.7952909,2.72278893 C25.9114466,2.95802276 26.0100767,3.20077975 26.096377,3.44842303 C26.1834451,3.6982646 26.271127,3.94795236 26.3532402,4.19943874 C26.4107552,4.37558411 26.4593786,4.55463244 26.5119165,4.73239861 C26.5140249,4.7395249 26.5151264,4.74696833 26.5174944,4.75399458 C26.549154,4.84790717 26.5298538,4.92135399 26.4499825,4.98123704 C26.1701456,5.19102899 25.8733023,5.37249728 25.5528399,5.51421908 C25.3943527,5.58430862 25.2310108,5.64135999 25.0635782,5.6840735 C24.8884091,5.72876189 24.7092625,5.75070465 24.5286769,5.76708796 C24.3662918,5.78182092 24.2069832,5.76049756 24.0467417,5.75127574 C23.9533503,5.74590178 23.8606393,5.72341204 23.7683938,5.70480157 C23.6618586,5.68330758 23.5553753,5.66062865 23.4503384,5.6328966 C23.3430726,5.6045711 23.2362833,5.57321936 23.1316432,5.53647325 C22.9828747,5.48423206 22.8349964,5.42895519 22.6889799,5.36947269 C22.3386715,5.22676622 21.9971972,5.06460364 21.6680639,4.87830846 C21.3710926,4.71021571 21.0782621,4.53476479 20.7848271,4.36049512 C20.6956265,4.30751776 20.6106928,4.24738057 20.5232928,4.19131475 C20.5098598,4.18269658 20.493673,4.17836844 20.4663748,4.16681582 C20.4749772,4.19692982 20.478291,4.21532601 20.4853338,4.23216276 C20.6066762,4.52220708 20.7295651,4.81161246 20.8492459,5.10233831 C20.8727258,5.15937489 20.9106235,5.19529218 20.9638086,5.22145915 C21.2826967,5.37835151 21.6034056,5.5309975 21.929587,5.67257649 C22.2333582,5.80442751 22.5391655,5.93069507 22.8521214,6.03852647 C23.0484451,6.10617194 23.2468531,6.16881796 23.4470302,6.22387412 C23.5923346,6.26383761 23.7409844,6.29522085 23.8901144,6.31679086 C24.0716532,6.34304874 24.2552949,6.35474972 24.438727,6.32781693 C24.5904456,6.30553856 24.7434383,6.28929058 24.8933862,6.25836167 C25.0236721,6.23148818 25.1520129,6.19238706 25.2784658,6.15040971 C25.4493364,6.09368647 25.6196155,6.03406669 25.7863676,5.96637494 C25.9510132,5.89953612 26.1115494,5.82242228 26.2648221,5.7312746 C26.3008932,5.70982514 26.3391154,5.69110344 26.3781926,5.67584568 C26.4189033,5.65995004 26.4482431,5.67784836 26.4523672,5.72083633 C26.4551747,5.75007232 26.4540639,5.78117371 26.4471545,5.80960674 C26.4003503,6.00211597 26.3458986,6.19255943 26.2669805,6.37462301 C26.2341786,6.45029972 26.1809361,6.51196671 26.1150134,6.56417271 C25.9703449,6.67873364 25.8094619,6.76674192 25.644885,6.84615332 C25.4335985,6.94810453 25.2183436,7.0423954 25.0016089,7.13229883 C24.8514423,7.19458697 24.6972035,7.2479575 24.5423824,7.29787149 C24.3803552,7.35010714 24.2168668,7.39931461 24.0514203,7.43903144 C23.8831457,7.47942883 23.7121991,7.50952893 23.5415121,7.5388075 C23.3731968,7.56767997 23.2043048,7.595056 23.0346265,7.61359044 C22.8525333,7.63348221 22.6694219,7.64652214 22.4864034,7.65477961 C22.3031308,7.66304826 22.1194001,7.66510656 21.935918,7.66370656 C21.7253621,7.66210064 21.5150917,7.65507264 21.3053443,7.62928765 C21.0816595,7.60178922 20.8565987,7.58563954 20.6323112,7.56282712 C20.5066074,7.55004124 20.3814395,7.53186661 20.2556819,7.51971121 C20.1520766,7.50969761 20.0476962,7.50763747 19.9441372,7.49728078 C19.7827943,7.48114412 19.6222933,7.49019522 19.4618869,7.50660828 C19.2430457,7.52899787 19.0391061,7.59227447 18.8724022,7.74260054 C18.7675897,7.83711386 18.696,7.95685411 18.6475176,8.08852343 C18.5704205,8.29790928 18.5442275,8.51418964 18.5529597,8.73791712 C18.5654397,9.0576396 18.6548962,9.35701229 18.7751054,9.64870793 C18.9114366,9.97951587 19.0868318,10.2896235 19.291363,10.5832327 C19.3050353,10.6028612 19.3159557,10.6244071 19.3360477,10.6584181 C19.294458,10.6609437 19.2663513,10.6641221 19.2382391,10.6641407 C18.7838618,10.6644448 18.3294844,10.6643483 17.8751072,10.6643483 C17.726131,10.6643465 17.577103,10.6621528 17.4282029,10.6655296 C17.373679,10.6667664 17.3408067,10.6490016 17.3170356,10.6000537 C17.2176267,10.3953447 17.1138081,10.1927644 17.0155452,9.98751931 C16.8529766,9.64796437 16.6875188,9.31007836 16.4721118,8.99983719 C16.2291713,8.64994044 15.9270856,8.36478339 15.5453086,8.170225 C15.4153305,8.10398886 15.2798394,8.04926461 15.1386664,8.01084404 C15.031432,7.98165997 14.9243925,7.95002639 14.8153668,7.92963762 C14.706076,7.90919879 14.594699,7.8982191 14.4837523,7.88878407 C14.3505402,7.87745574 14.21687,7.86697489 14.0832962,7.86551918 C13.9121753,7.86365183 13.74279,7.88486767 13.5742688,7.91753044 C13.3931288,7.95263914 13.2204204,8.00921401 13.0593668,8.09834608 C12.739012,8.27564208 12.5181959,8.53963162 12.3795319,8.87745269 C12.3092422,9.04869418 12.2635505,9.22593642 12.2402393,9.40763279 C12.2118397,9.62900342 12.2050174,9.85170171 12.2279318,10.0753642 C12.2456688,10.2485046 12.2714853,10.419277 12.3172994,10.5871231 C12.3228847,10.607586 12.323059,10.6295268 12.3255921,10.6496115 C12.26394,10.6677528 10.6369288,10.6750274 10.4660693,10.6590502 C10.4470983,10.6022881 10.4249284,10.5425218 10.4070866,10.4814909 C10.3027293,10.1244901 10.1678871,9.77928301 10.0052092,9.44505197 C9.83242118,9.09005018 9.62870135,8.75390542 9.39202853,8.43735385 C9.23127158,8.22234185 9.05850867,8.01789051 8.86937246,7.82793851 C8.61876225,7.57624904 8.34792272,7.34847526 8.05247567,7.14986524 C7.8510775,7.01447979 7.64354422,6.89068596 7.42634783,6.78265982 C7.20024122,6.67020356 6.96708425,6.57401208 6.7251904,6.50304171 C6.55471571,6.45302204 6.38038761,6.41194964 6.20506279,6.3838041 C6.02458743,6.35482964 5.84052214,6.34898279 5.65856608,6.32827883 C5.42945258,6.30220831 5.20209054,6.330289 4.97596624,6.35428636 C4.76975878,6.37616972 4.56716274,6.42422569 4.36780993,6.48731864 C4.03354087,6.59310837 3.72963335,6.7530364 3.45569933,6.97011039 C3.12217753,7.23440025 2.86819332,7.56381743 2.66597187,7.93653029 C2.56473175,8.12312404 2.49028131,8.31960354 2.44449693,8.52493386 C2.38052267,8.8118415 2.36085753,9.10215376 2.39799224,9.39674954 C2.41978479,9.56963214 2.44977221,9.74015603 2.50071811,9.90555806 C2.57069449,10.1327439 2.66512769,10.3497475 2.78848014,10.5549851 C2.94469525,10.8148968 3.13482021,11.0444971 3.36448029,11.2411638 C3.55352462,11.4030463 3.76169403,11.5350252 3.98899628,11.6386547 C4.14951493,11.7118373 4.31484929,11.7697603 4.48526001,11.8104729 C4.65617425,11.8513024 4.83045967,11.8771893 5.00706121,11.8820904 C5.08629178,11.8842878 5.16541667,11.8914345 5.24464179,11.8924878 C5.43359435,11.8950042 5.62192011,11.8786988 5.80619132,11.8399017 C6.14915642,11.7676908 6.4598519,11.6275007 6.70385129,11.3665487 C6.85983968,11.1997261 6.97657761,11.0074505 7.04519287,10.7888726 C7.07701662,10.6874925 7.10333001,10.5838631 7.12377633,10.4796142 C7.13702675,10.4120541 7.13937253,10.3415158 7.13918703,10.2723313 C7.13878278,10.1209111 7.12657089,9.97104121 7.08500333,9.82361907 C7.0187635,9.58869858 6.90567218,9.37906618 6.76039642,9.18480082 C6.63248221,9.01375592 6.47777706,8.87349711 6.2912815,8.76885343 C6.14331783,8.68583158 5.9848075,8.63402429 5.81872764,8.59984456 C5.66146992,8.5674784 5.50328596,8.55836975 5.34551831,8.57756618 C5.10113499,8.60730092 4.87638949,8.68746336 4.71770201,8.88935017 C4.53832264,9.11755785 4.52920096,9.43280382 4.72682739,9.65459911 C4.81853974,9.7575276 4.93497074,9.82848125 5.07256206,9.84032136 C5.15700432,9.84758862 5.24492169,9.82697917 5.32989712,9.81137101 C5.39272494,9.79982947 5.45349437,9.77670915 5.51488778,9.75779651 C5.79403951,9.67180025 6.12608422,9.84160829 6.21482964,10.1417431 C6.29842169,10.424445 6.1771674,10.6805072 5.94668356,10.8184775 C5.80679381,10.9022189 5.65297785,10.9453459 5.49639232,10.9826576 C5.36340087,11.0143487 5.22954892,11.0366809 5.09243612,11.039594 C4.89858619,11.0437126 4.71261544,11.0037862 4.53209935,10.9383475 C4.22291061,10.8262621 3.96075322,10.643709 3.7505125,10.391059 C3.59021221,10.1984218 3.47960667,9.97948418 3.4164655,9.73501929 C3.34231956,9.44794851 3.33745699,9.1600599 3.40051658,8.87304843 C3.47553451,8.53160574 3.63860758,8.23485697 3.88295231,7.98277249 C4.06792351,7.79194335 4.27992678,7.64113136 4.52173896,7.53134171 C4.66138021,7.46794096 4.80626747,7.42264425 4.95505072,7.3847095 C5.14398014,7.33653676 5.33629182,7.31818967 5.52864803,7.31253017 C5.69887607,7.30752342 5.86932578,7.32786396 6.0388826,7.35536793 C6.23583022,7.38731681 6.42539382,7.443009 6.60953339,7.51509753 C6.81203668,7.59437544 7.003514,7.69749303 7.18448442,7.81938617 C7.34339161,7.9264184 7.49213315,8.04654424 7.62524146,8.18338354 C7.84242492,8.40665117 8.02294004,8.6570296 8.16086328,8.93802924 C8.28508362,9.19111317 8.37480622,9.45540312 8.42842797,9.731281 C8.47297354,9.96046586 8.49719257,10.1930851 8.48492497,10.4265442 C8.46846836,10.739756 8.41077164,11.0447753 8.29324281,11.3385459 C8.19237174,11.5906787 8.06959971,11.8292522 7.9121315,12.0503242 C7.77321436,12.2453517 7.61306204,12.4208082 7.43014912,12.5751304 C7.14739803,12.8136891 6.83198046,12.9946771 6.48287461,13.1191051 C6.32664793,13.1747918 6.16886637,13.2248059 6.00685497,13.2564395 C5.846799,13.2876911 5.6841469,13.3081838 5.52172017,13.3240237 C5.36912522,13.338905 5.21508857,13.3510956 5.0621376,13.3471124 C4.87675378,13.3422837 4.69132543,13.3237623 4.50689944,13.3026039 C4.36455085,13.2862725 4.22272793,13.2613962 4.08251462,13.2316392 C3.96663157,13.207041 3.85246701,13.1728632 3.73926117,13.1374355 C3.47924422,13.0560566 3.22881844,12.9508287 2.98786804,12.8235135 C2.75547465,12.7007174 2.53332061,12.5614877 2.32936618,12.3954459 C2.20642674,12.295362 2.08381979,12.1937093 1.97076085,12.082872 C1.67322031,11.791169 1.42818054,11.4589146 1.22806561,11.0932299 C1.10184122,10.8625707 0.989368722,10.6252637 0.909064917,10.3752265 C0.848655208,10.1871306 0.795899903,9.99517031 0.759168083,9.80124989 C0.716819931,9.57768185 0.684833042,9.35127851 0.691019194,9.1217246 C0.694963403,8.97535012 0.689220875,8.82857335 0.697241514,8.6824919 C0.70429275,8.55405843 0.723029708,8.42616464 0.739318028,8.29837837 C0.749651972,8.2173036 0.76345675,8.13658669 0.778377931,8.05620735 C0.799615056,7.94180586 0.817970028,7.82646987 0.847260653,7.71406183 C0.886505958,7.56345207 0.927703097,7.41256036 0.981441708,7.26671993 C1.04714983,7.08839843 1.12297714,6.91349643 1.20108732,6.74011683 C1.34984743,6.40991536 1.52893796,6.09586532 1.72588607,5.79228319 C1.93110701,5.47594862 2.15358374,5.17192336 2.40340858,4.88915651 C2.56752747,4.70339625 2.7315119,4.51670421 2.90739206,4.3423696 C3.10269769,4.1487811 3.30793624,3.96473243 3.51518767,3.78378982 C3.82334449,3.51474997 4.1507199,3.27007557 4.48830647,3.03892497 C4.89908767,2.75765739 5.3209134,2.49415464 5.75736087,2.2548505 C6.08232285,2.07667551 6.4090391,1.90134612 6.73953544,1.73374289 C6.95961817,1.62213324 7.18586108,1.52199551 7.41273828,1.42462833 C7.67369128,1.31263757 7.93644299,1.20422011 8.20206712,1.1039314 C8.41428642,1.02380697 8.6313465,0.956209722 8.84743776,0.886725681 C9.03309789,0.827027153 9.21956933,0.769463917 9.40730914,0.716753528 C9.54282719,0.678704736 9.6810174,0.65016875 9.81801431,0.617385417 C9.92614428,0.5915105 10.0337226,0.562981125 10.1425433,0.540443069 C10.2683788,0.514379931 10.3952416,0.493230889 10.5217863,0.470668819 C10.5802128,0.460251944 10.6389721,0.451711653 10.6975312,0.442023458 C10.8001036,0.425053222 10.90232,0.405530417 11.0052763,0.391381667 C11.1156695,0.376211111 11.2266989,0.365579083 11.3375315,0.353733431 C11.4927735,0.337140514 11.6480397,0.320741458 11.8034041,0.305349333 C11.8576591,0.299974403 11.9122332,0.297806736 11.9666626,0.294209222 C12.0827477,0.286536736 12.1987662,0.277513444 12.3149442,0.271673986 C12.4041076,0.267192917 12.4934733,0.265032542 12.5827555,0.264805431 C12.8956039,0.264008986 13.2084985,0.261289583 13.5212876,0.265651069 C13.7218207,0.2684465 13.9221794,0.282882736 14.1226569,0.291080028 C14.1895977,0.293816153 14.2567443,0.291703125 14.323661,0.294775736 C14.4448958,0.300342583 14.5661325,0.306732708 14.6871837,0.315350875 C14.847846,0.326788583 15.0084694,0.339194333 15.168848,0.354031125 C15.287318,0.364991375 15.4054763,0.379630611 15.5235754,0.394218028 C15.6513727,0.410002444 15.7790051,0.427155264 15.9065818,0.444633583 C15.9802169,0.454722236 16.0537611,0.465662069 16.1270623,0.477918583 C16.3003937,0.506901403 16.4738604,0.535233319 16.64668,0.567044042 C16.7730142,0.590297847 16.8983175,0.619106347 17.0242401,0.644647403 C17.1866623,0.677590181 17.3496722,0.707771944 17.5116271,0.742830569 C17.6542594,0.773705819 17.7959368,0.809066708 17.9377717,0.843529167 C18.0771663,0.877400125 18.2164645,0.911709556 18.3553659,0.947536917 C18.4846171,0.980874708 18.6134603,1.01583786 18.7421645,1.05124328 C18.8684061,1.08597096 18.994579,1.12103328 19.1201771,1.15799736 C19.2647491,1.20054394 19.408711,1.24516739 19.5528343,1.2892216 C19.6251821,1.31133674 19.6973041,1.33418901 19.7793838,1.35978024 Z M23.8160547,5.1044281 C24.6526356,5.11158783 25.3540312,4.43251686 25.3518134,3.56868789 C25.3495751,2.69753147 24.6618406,2.03202796 23.8181186,2.02491187 C22.952669,2.01761126 22.2853046,2.71763742 22.2687711,3.53307947 C22.2511453,4.40251233 22.9779792,5.12224485 23.8160547,5.1044281 Z" id="Shape"></path>
                        <path d="M24.8822265,3.55954686 C24.9008851,4.14217874 24.401621,4.62929299 23.8125555,4.6285995 C23.2141328,4.62789483 22.7440434,4.12856306 22.7407315,3.55486736 C22.7374011,2.97867762 23.2149153,2.47838704 23.8074282,2.47832307 C24.4138265,2.47825637 24.9026523,2.98220465 24.8822265,3.55954686 Z M24.0281201,3.65980601 C24.0979111,3.64682549 24.1691354,3.63889157 24.2371295,3.61958392 C24.3214364,3.59564314 24.394276,3.54981803 24.4502352,3.47937897 C24.5122878,3.40127579 24.5215411,3.28789981 24.4576563,3.20480844 C24.432333,3.17187762 24.4030841,3.13836464 24.3683482,3.11686978 C24.1599619,2.98791432 23.9435127,2.98932462 23.7253317,3.08976082 C23.6881683,3.10686824 23.6533118,3.13487942 23.6255687,3.16530958 C23.5709482,3.22521588 23.5297239,3.29439299 23.5533781,3.38035493 C23.5736835,3.45414572 23.6173297,3.51385728 23.6822715,3.55621379 C23.7867482,3.62435607 23.9006416,3.65824365 24.0281201,3.65980601 Z" id="Shape"></path>
                    </g>
                </g>
            </g>
        </g>
    </g>
</svg>