<?xml version="1.0" encoding="UTF-8"?>
<svg width="43px" height="43px" viewBox="0 0 43 43" version="1.1" xmlns="http://www.w3.org/2000/svg" xmlns:xlink="http://www.w3.org/1999/xlink">
    <!-- Generator: Sketch 44 (41411) - http://www.bohemiancoding.com/sketch -->
    <title>ubuntu_active</title>
    <desc>Created with Sketch.</desc>
    <defs></defs>
    <g id="V3.1-assets" stroke="none" stroke-width="1" fill="none" fill-rule="evenodd">
        <g id="Host-icons" transform="translate(-708.000000, -106.000000)">
            <g id="ubuntu_active" transform="translate(708.000000, 106.000000)">
                <circle id="Oval-3" fill="#F15F5E" cx="21.5" cy="21.5" r="21.5"></circle>
                <g transform="translate(8.000000, 10.000000)" id="Shape" fill-rule="nonzero" fill="#FFFFFF">
                    <path d="M2.89617104,9.37125469 C1.72484364,9.37125469 0.775724042,10.3203743 0.775724042,11.4917017 C0.775724042,12.6625823 1.72484364,13.6118121 2.89617104,13.6118121 C4.06705064,13.6118121 5.01628243,12.6625822 5.01628243,11.4917017 C5.01628243,10.320263 4.06716283,9.37125469 2.89617104,9.37125469 Z M18.0358014,19.0083457 C17.0215778,19.5938416 16.6744254,20.8901126 17.259697,21.9038875 C17.845306,22.9181111 19.1414638,23.2654878 20.1556875,22.6799919 C21.1695773,22.0946072 21.5169503,20.7983381 20.9314563,19.7842257 C20.3460735,18.770449 19.0496894,18.422963 18.0358014,19.0083457 Z M7.50192099,11.4913661 C7.50192099,9.39579446 8.54326286,7.54484347 10.1356994,6.42405403 L8.58550815,3.82736669 C6.72985171,5.0671611 5.34953804,6.96248615 4.77614471,9.18232722 C5.44590675,9.72826762 5.87385097,10.5596136 5.87385097,11.4915886 C5.87385097,12.4233393 5.44590675,13.2546871 4.77603251,13.8005144 C5.34931463,16.0205789 6.72973951,17.9159049 8.58539693,19.155588 L10.1356995,16.5586753 C8.54326286,15.4381112 7.50192099,13.5872733 7.50192099,11.4913661 Z M13.6958508,5.29743815 C16.9317077,5.29743815 19.5859926,7.77848257 19.8642292,10.9420656 L22.886172,10.8979149 C22.7374721,8.56220656 21.7171959,6.46473229 20.1491879,4.92316944 C19.3430539,5.22773896 18.4117501,5.18157172 17.6068474,4.71676083 C16.8009378,4.25150117 16.295226,3.46665708 16.1567252,2.61491497 C15.3732237,2.39808569 14.5485998,2.27986522 13.695962,2.27986522 C12.2295899,2.27986522 10.8442343,2.62410335 9.61362926,3.23369115 L11.0867242,5.87374475 C11.8797489,5.50474247 12.7634269,5.29743815 13.6958508,5.29743815 Z M13.6958508,17.6854052 C12.7633139,17.6854052 11.8797489,17.4781 11.0866112,17.1090978 L9.61329181,19.7493766 C10.8440099,20.35874 12.2294769,20.7030905 13.6958508,20.7030905 C14.5484886,20.7030905 15.3731125,20.5848727 16.1567253,20.3680416 C16.2952261,19.5162994 16.801051,18.7314554 17.6070718,18.2658591 C18.4119745,17.8012735 19.3432783,17.7551053 20.1494123,18.0597871 C21.717309,16.5181129 22.7375834,14.4206369 22.8860589,12.0849286 L19.8641161,12.0407779 C19.5861058,15.2048096 16.9317077,17.6854052 13.6958508,17.6854052 Z M18.0354658,3.97427326 C19.0495781,4.5599935 20.3459622,4.21250562 20.9312319,3.19872985 C21.5168391,2.18450626 21.1696886,0.888235278 20.1554631,0.302627139 C19.1414638,-0.282756125 17.8451929,0.0646191667 17.2595858,1.07884372 C16.6742011,2.09261862 17.0215778,3.38900181 18.0354658,3.97427326 Z"></path>
                </g>
            </g>
        </g>
    </g>
</svg>