<svg width="547" height="80" viewBox="0 0 547 80" fill="none" xmlns="http://www.w3.org/2000/svg">
<path d="M265.5 8L281.5 8L273.5 0L265.5 8Z" fill="url(#paint0_linear_4565_1500)"/>
<rect x="8" y="8" width="531" height="64" rx="4" fill="url(#paint1_linear_4565_1500)"/>
<path d="M32.7656 49H29.1328V34.8906H24.4805V31.8672H37.418V34.8906H32.7656V49ZM45.1406 35.6289C46.8984 35.6289 48.2461 36.0117 49.1836 36.7773C50.1211 37.543 50.5898 38.707 50.5898 40.2695V49H48.0938L47.4023 47.2188H47.3086C46.9336 47.6875 46.5508 48.0703 46.1602 48.3672C45.7695 48.6641 45.3203 48.8828 44.8125 49.0234C44.3047 49.1641 43.6875 49.2344 42.9609 49.2344C42.1875 49.2344 41.4922 49.0859 40.875 48.7891C40.2656 48.4922 39.7852 48.0391 39.4336 47.4297C39.082 46.8125 38.9062 46.0312 38.9062 45.0859C38.9062 43.6953 39.3945 42.6719 40.3711 42.0156C41.3477 41.3516 42.8125 40.9844 44.7656 40.9141L47.0391 40.8438V40.2695C47.0391 39.582 46.8594 39.0781 46.5 38.7578C46.1406 38.4375 45.6406 38.2773 45 38.2773C44.3672 38.2773 43.7461 38.3672 43.1367 38.5469C42.5273 38.7266 41.918 38.9531 41.3086 39.2266L40.125 36.8125C40.8203 36.4453 41.5977 36.1562 42.457 35.9453C43.3242 35.7344 44.2188 35.6289 45.1406 35.6289ZM47.0391 42.9297L45.6562 42.9766C44.5 43.0078 43.6953 43.2148 43.2422 43.5977C42.7969 43.9805 42.5742 44.4844 42.5742 45.1094C42.5742 45.6562 42.7344 46.0469 43.0547 46.2812C43.375 46.5078 43.793 46.6211 44.3086 46.6211C45.0742 46.6211 45.7188 46.3945 46.2422 45.9414C46.7734 45.4883 47.0391 44.8438 47.0391 44.0078V42.9297ZM61.5703 35.6523C63.0469 35.6523 64.2383 36.2266 65.1445 37.375C66.0586 38.5234 66.5156 40.207 66.5156 42.4258C66.5156 43.9102 66.3008 45.1602 65.8711 46.1758C65.4414 47.1836 64.8477 47.9453 64.0898 48.4609C63.332 48.9766 62.4609 49.2344 61.4766 49.2344C60.8438 49.2344 60.3008 49.1562 59.8477 49C59.3945 48.8359 59.0078 48.6289 58.6875 48.3789C58.3672 48.1211 58.0898 47.8477 57.8555 47.5586H57.668C57.7305 47.8711 57.7773 48.1914 57.8086 48.5195C57.8398 48.8477 57.8555 49.168 57.8555 49.4805V54.7656H54.2812V35.8984H57.1875L57.6914 37.5977H57.8555C58.0898 37.2461 58.375 36.9219 58.7109 36.625C59.0469 36.3281 59.4492 36.0938 59.918 35.9219C60.3945 35.7422 60.9453 35.6523 61.5703 35.6523ZM60.4219 38.5117C59.7969 38.5117 59.3008 38.6406 58.9336 38.8984C58.5664 39.1562 58.2969 39.543 58.125 40.0586C57.9609 40.5742 57.8711 41.2266 57.8555 42.0156V42.4023C57.8555 43.2461 57.9336 43.9609 58.0898 44.5469C58.2539 45.1328 58.5234 45.5781 58.8984 45.8828C59.2812 46.1875 59.8047 46.3398 60.4688 46.3398C61.0156 46.3398 61.4648 46.1875 61.8164 45.8828C62.168 45.5781 62.4297 45.1328 62.6016 44.5469C62.7812 43.9531 62.8711 43.2305 62.8711 42.3789C62.8711 41.0977 62.6719 40.1328 62.2734 39.4844C61.875 38.8359 61.2578 38.5117 60.4219 38.5117ZM84.2227 31.8672C84.0742 32.5 83.9219 33.1641 83.7656 33.8594C83.6172 34.5547 83.4805 35.2383 83.3555 35.9102C83.2305 36.5742 83.125 37.1836 83.0391 37.7383H79.7578L79.5938 37.4805C79.7344 36.9102 79.9141 36.3047 80.1328 35.6641C80.3594 35.0156 80.6016 34.3672 80.8594 33.7188C81.125 33.0625 81.3906 32.4453 81.6562 31.8672H84.2227ZM78.75 31.8672C78.6016 32.5 78.4492 33.1641 78.293 33.8594C78.1445 34.5547 78.0078 35.2383 77.8828 35.9102C77.7578 36.5742 77.6523 37.1836 77.5664 37.7383H74.2852L74.1211 37.4805C74.2617 36.9102 74.4414 36.3047 74.6602 35.6641C74.8867 35.0156 75.1289 34.3672 75.3867 33.7188C75.6523 33.0625 75.918 32.4453 76.1836 31.8672H78.75ZM103.02 44.2422C103.02 45.2578 102.773 46.1406 102.281 46.8906C101.789 47.6406 101.07 48.2188 100.125 48.625C99.1875 49.0312 98.0469 49.2344 96.7031 49.2344C96.1094 49.2344 95.5273 49.1953 94.957 49.1172C94.3945 49.0391 93.8516 48.9258 93.3281 48.7773C92.8125 48.6211 92.3203 48.4297 91.8516 48.2031V44.8281C92.6641 45.1875 93.5078 45.5117 94.3828 45.8008C95.2578 46.0898 96.125 46.2344 96.9844 46.2344C97.5781 46.2344 98.0547 46.1562 98.4141 46C98.7812 45.8438 99.0469 45.6289 99.2109 45.3555C99.375 45.082 99.457 44.7695 99.457 44.418C99.457 43.9883 99.3125 43.6211 99.0234 43.3164C98.7344 43.0117 98.3359 42.7266 97.8281 42.4609C97.3281 42.1953 96.7617 41.9102 96.1289 41.6055C95.7305 41.418 95.2969 41.1914 94.8281 40.9258C94.3594 40.6523 93.9141 40.3203 93.4922 39.9297C93.0703 39.5391 92.7227 39.0664 92.4492 38.5117C92.1836 37.9492 92.0508 37.2773 92.0508 36.4961C92.0508 35.4727 92.2852 34.5977 92.7539 33.8711C93.2227 33.1445 93.8906 32.5898 94.7578 32.207C95.6328 31.8164 96.6641 31.6211 97.8516 31.6211C98.7422 31.6211 99.5898 31.7266 100.395 31.9375C101.207 32.1406 102.055 32.4375 102.938 32.8281L101.766 35.6523C100.977 35.332 100.27 35.0859 99.6445 34.9141C99.0195 34.7344 98.3828 34.6445 97.7344 34.6445C97.2812 34.6445 96.8945 34.7188 96.5742 34.8672C96.2539 35.0078 96.0117 35.2109 95.8477 35.4766C95.6836 35.7344 95.6016 36.0352 95.6016 36.3789C95.6016 36.7852 95.7188 37.1289 95.9531 37.4102C96.1953 37.6836 96.5547 37.9492 97.0312 38.207C97.5156 38.4648 98.1172 38.7656 98.8359 39.1094C99.7109 39.5234 100.457 39.957 101.074 40.4102C101.699 40.8555 102.18 41.3828 102.516 41.9922C102.852 42.5938 103.02 43.3438 103.02 44.2422ZM109.418 30.7656V34.4805C109.418 35.1289 109.395 35.7461 109.348 36.332C109.309 36.918 109.277 37.332 109.254 37.5742H109.441C109.723 37.1211 110.055 36.7539 110.438 36.4727C110.828 36.1914 111.258 35.9844 111.727 35.8516C112.195 35.7188 112.699 35.6523 113.238 35.6523C114.184 35.6523 115.008 35.8203 115.711 36.1562C116.414 36.4844 116.961 37.0039 117.352 37.7148C117.742 38.418 117.938 39.332 117.938 40.457V49H114.363V41.3477C114.363 40.4102 114.191 39.7031 113.848 39.2266C113.504 38.75 112.973 38.5117 112.254 38.5117C111.535 38.5117 110.969 38.6797 110.555 39.0156C110.141 39.3438 109.848 39.832 109.676 40.4805C109.504 41.1211 109.418 41.9062 109.418 42.8359V49H105.844V30.7656H109.418ZM126.984 35.6289C128.742 35.6289 130.09 36.0117 131.027 36.7773C131.965 37.543 132.434 38.707 132.434 40.2695V49H129.938L129.246 47.2188H129.152C128.777 47.6875 128.395 48.0703 128.004 48.3672C127.613 48.6641 127.164 48.8828 126.656 49.0234C126.148 49.1641 125.531 49.2344 124.805 49.2344C124.031 49.2344 123.336 49.0859 122.719 48.7891C122.109 48.4922 121.629 48.0391 121.277 47.4297C120.926 46.8125 120.75 46.0312 120.75 45.0859C120.75 43.6953 121.238 42.6719 122.215 42.0156C123.191 41.3516 124.656 40.9844 126.609 40.9141L128.883 40.8438V40.2695C128.883 39.582 128.703 39.0781 128.344 38.7578C127.984 38.4375 127.484 38.2773 126.844 38.2773C126.211 38.2773 125.59 38.3672 124.98 38.5469C124.371 38.7266 123.762 38.9531 123.152 39.2266L121.969 36.8125C122.664 36.4453 123.441 36.1562 124.301 35.9453C125.168 35.7344 126.062 35.6289 126.984 35.6289ZM128.883 42.9297L127.5 42.9766C126.344 43.0078 125.539 43.2148 125.086 43.5977C124.641 43.9805 124.418 44.4844 124.418 45.1094C124.418 45.6562 124.578 46.0469 124.898 46.2812C125.219 46.5078 125.637 46.6211 126.152 46.6211C126.918 46.6211 127.562 46.3945 128.086 45.9414C128.617 45.4883 128.883 44.8438 128.883 44.0078V42.9297ZM143.438 35.6523C143.617 35.6523 143.824 35.6641 144.059 35.6875C144.301 35.7031 144.496 35.7266 144.645 35.7578L144.375 39.1094C144.258 39.0703 144.09 39.043 143.871 39.0273C143.66 39.0039 143.477 38.9922 143.32 38.9922C142.859 38.9922 142.41 39.0508 141.973 39.168C141.543 39.2852 141.156 39.4766 140.812 39.7422C140.469 40 140.195 40.3438 139.992 40.7734C139.797 41.1953 139.699 41.7148 139.699 42.332V49H136.125V35.8984H138.832L139.359 38.1016H139.535C139.793 37.6562 140.113 37.25 140.496 36.8828C140.887 36.5078 141.328 36.2109 141.82 35.9922C142.32 35.7656 142.859 35.6523 143.438 35.6523ZM152.426 35.6523C153.637 35.6523 154.68 35.8867 155.555 36.3555C156.43 36.8164 157.105 37.4883 157.582 38.3711C158.059 39.2539 158.297 40.332 158.297 41.6055V43.3398H149.848C149.887 44.3477 150.188 45.1406 150.75 45.7188C151.32 46.2891 152.109 46.5742 153.117 46.5742C153.953 46.5742 154.719 46.4883 155.414 46.3164C156.109 46.1445 156.824 45.8867 157.559 45.543V48.3086C156.91 48.6289 156.23 48.8633 155.52 49.0117C154.816 49.1602 153.961 49.2344 152.953 49.2344C151.641 49.2344 150.477 48.9922 149.461 48.5078C148.453 48.0234 147.66 47.2852 147.082 46.293C146.512 45.3008 146.227 44.0508 146.227 42.543C146.227 41.0117 146.484 39.7383 147 38.7227C147.523 37.6992 148.25 36.9336 149.18 36.4258C150.109 35.9102 151.191 35.6523 152.426 35.6523ZM152.449 38.1953C151.754 38.1953 151.176 38.418 150.715 38.8633C150.262 39.3086 150 40.0078 149.93 40.9609H154.945C154.938 40.4297 154.84 39.957 154.652 39.543C154.473 39.1289 154.199 38.8008 153.832 38.5586C153.473 38.3164 153.012 38.1953 152.449 38.1953ZM169.547 31.8672L169.723 32.125C169.582 32.6953 169.398 33.3047 169.172 33.9531C168.945 34.5938 168.703 35.2383 168.445 35.8867C168.188 36.5352 167.926 37.1523 167.66 37.7383H165.094C165.242 37.1055 165.391 36.4414 165.539 35.7461C165.688 35.0508 165.824 34.3672 165.949 33.6953C166.082 33.0234 166.188 32.4141 166.266 31.8672H169.547ZM164.086 31.8672L164.25 32.125C164.109 32.6953 163.926 33.3047 163.699 33.9531C163.48 34.5938 163.238 35.2383 162.973 35.8867C162.715 36.5352 162.453 37.1523 162.188 37.7383H159.621C159.73 37.2695 159.84 36.7773 159.949 36.2617C160.066 35.7461 160.176 35.2305 160.277 34.7148C160.387 34.1992 160.484 33.6992 160.57 33.2148C160.656 32.7305 160.73 32.2812 160.793 31.8672H164.086ZM183.645 46.3867C184.035 46.3867 184.414 46.3477 184.781 46.2695C185.156 46.1914 185.527 46.0938 185.895 45.9766V48.6367C185.512 48.8086 185.035 48.9492 184.465 49.0586C183.902 49.1758 183.285 49.2344 182.613 49.2344C181.832 49.2344 181.129 49.1094 180.504 48.8594C179.887 48.6016 179.398 48.1602 179.039 47.5352C178.688 46.9023 178.512 46.0234 178.512 44.8984V38.582H176.801V37.0703L178.77 35.875L179.801 33.1094H182.086V35.8984H185.754V38.582H182.086V44.8984C182.086 45.3984 182.227 45.7734 182.508 46.0234C182.797 46.2656 183.176 46.3867 183.645 46.3867ZM200.461 42.4258C200.461 43.5195 200.312 44.4883 200.016 45.332C199.727 46.1758 199.301 46.8906 198.738 47.4766C198.184 48.0547 197.512 48.4922 196.723 48.7891C195.941 49.0859 195.059 49.2344 194.074 49.2344C193.152 49.2344 192.305 49.0859 191.531 48.7891C190.766 48.4922 190.098 48.0547 189.527 47.4766C188.965 46.8906 188.527 46.1758 188.215 45.332C187.91 44.4883 187.758 43.5195 187.758 42.4258C187.758 40.9727 188.016 39.7422 188.531 38.7344C189.047 37.7266 189.781 36.9609 190.734 36.4375C191.688 35.9141 192.824 35.6523 194.145 35.6523C195.371 35.6523 196.457 35.9141 197.402 36.4375C198.355 36.9609 199.102 37.7266 199.641 38.7344C200.188 39.7422 200.461 40.9727 200.461 42.4258ZM191.402 42.4258C191.402 43.2852 191.496 44.0078 191.684 44.5938C191.871 45.1797 192.164 45.6211 192.562 45.918C192.961 46.2148 193.48 46.3633 194.121 46.3633C194.754 46.3633 195.266 46.2148 195.656 45.918C196.055 45.6211 196.344 45.1797 196.523 44.5938C196.711 44.0078 196.805 43.2852 196.805 42.4258C196.805 41.5586 196.711 40.8398 196.523 40.2695C196.344 39.6914 196.055 39.2578 195.656 38.9688C195.258 38.6797 194.738 38.5352 194.098 38.5352C193.152 38.5352 192.465 38.8594 192.035 39.5078C191.613 40.1562 191.402 41.1289 191.402 42.4258ZM216.961 35.6523C217.141 35.6523 217.348 35.6641 217.582 35.6875C217.824 35.7031 218.02 35.7266 218.168 35.7578L217.898 39.1094C217.781 39.0703 217.613 39.043 217.395 39.0273C217.184 39.0039 217 38.9922 216.844 38.9922C216.383 38.9922 215.934 39.0508 215.496 39.168C215.066 39.2852 214.68 39.4766 214.336 39.7422C213.992 40 213.719 40.3438 213.516 40.7734C213.32 41.1953 213.223 41.7148 213.223 42.332V49H209.648V35.8984H212.355L212.883 38.1016H213.059C213.316 37.6562 213.637 37.25 214.02 36.8828C214.41 36.5078 214.852 36.2109 215.344 35.9922C215.844 35.7656 216.383 35.6523 216.961 35.6523ZM225.949 35.6523C227.16 35.6523 228.203 35.8867 229.078 36.3555C229.953 36.8164 230.629 37.4883 231.105 38.3711C231.582 39.2539 231.82 40.332 231.82 41.6055V43.3398H223.371C223.41 44.3477 223.711 45.1406 224.273 45.7188C224.844 46.2891 225.633 46.5742 226.641 46.5742C227.477 46.5742 228.242 46.4883 228.938 46.3164C229.633 46.1445 230.348 45.8867 231.082 45.543V48.3086C230.434 48.6289 229.754 48.8633 229.043 49.0117C228.34 49.1602 227.484 49.2344 226.477 49.2344C225.164 49.2344 224 48.9922 222.984 48.5078C221.977 48.0234 221.184 47.2852 220.605 46.293C220.035 45.3008 219.75 44.0508 219.75 42.543C219.75 41.0117 220.008 39.7383 220.523 38.7227C221.047 37.6992 221.773 36.9336 222.703 36.4258C223.633 35.9102 224.715 35.6523 225.949 35.6523ZM225.973 38.1953C225.277 38.1953 224.699 38.418 224.238 38.8633C223.785 39.3086 223.523 40.0078 223.453 40.9609H228.469C228.461 40.4297 228.363 39.957 228.176 39.543C227.996 39.1289 227.723 38.8008 227.355 38.5586C226.996 38.3164 226.535 38.1953 225.973 38.1953ZM240.246 46.3867C240.637 46.3867 241.016 46.3477 241.383 46.2695C241.758 46.1914 242.129 46.0938 242.496 45.9766V48.6367C242.113 48.8086 241.637 48.9492 241.066 49.0586C240.504 49.1758 239.887 49.2344 239.215 49.2344C238.434 49.2344 237.73 49.1094 237.105 48.8594C236.488 48.6016 236 48.1602 235.641 47.5352C235.289 46.9023 235.113 46.0234 235.113 44.8984V38.582H233.402V37.0703L235.371 35.875L236.402 33.1094H238.688V35.8984H242.355V38.582H238.688V44.8984C238.688 45.3984 238.828 45.7734 239.109 46.0234C239.398 46.2656 239.777 46.3867 240.246 46.3867ZM257.18 35.8984V49H254.438L253.957 47.3242H253.77C253.488 47.7695 253.137 48.1328 252.715 48.4141C252.293 48.6953 251.828 48.9023 251.32 49.0352C250.812 49.168 250.285 49.2344 249.738 49.2344C248.801 49.2344 247.984 49.0703 247.289 48.7422C246.594 48.4062 246.051 47.8867 245.66 47.1836C245.277 46.4805 245.086 45.5664 245.086 44.4414V35.8984H248.66V43.5508C248.66 44.4883 248.828 45.1953 249.164 45.6719C249.5 46.1484 250.035 46.3867 250.77 46.3867C251.496 46.3867 252.066 46.2227 252.48 45.8945C252.895 45.5586 253.184 45.0703 253.348 44.4297C253.52 43.7812 253.605 42.9922 253.605 42.0625V35.8984H257.18ZM268.242 35.6523C268.422 35.6523 268.629 35.6641 268.863 35.6875C269.105 35.7031 269.301 35.7266 269.449 35.7578L269.18 39.1094C269.062 39.0703 268.895 39.043 268.676 39.0273C268.465 39.0039 268.281 38.9922 268.125 38.9922C267.664 38.9922 267.215 39.0508 266.777 39.168C266.348 39.2852 265.961 39.4766 265.617 39.7422C265.273 40 265 40.3438 264.797 40.7734C264.602 41.1953 264.504 41.7148 264.504 42.332V49H260.93V35.8984H263.637L264.164 38.1016H264.34C264.598 37.6562 264.918 37.25 265.301 36.8828C265.691 36.5078 266.133 36.2109 266.625 35.9922C267.125 35.7656 267.664 35.6523 268.242 35.6523ZM279.27 35.6523C280.668 35.6523 281.793 36.0352 282.645 36.8008C283.496 37.5586 283.922 38.7773 283.922 40.457V49H280.348V41.3477C280.348 40.4102 280.176 39.7031 279.832 39.2266C279.496 38.75 278.965 38.5117 278.238 38.5117C277.145 38.5117 276.398 38.8828 276 39.625C275.602 40.3672 275.402 41.4375 275.402 42.8359V49H271.828V35.8984H274.559L275.039 37.5742H275.238C275.52 37.1211 275.867 36.7539 276.281 36.4727C276.703 36.1914 277.168 35.9844 277.676 35.8516C278.191 35.7188 278.723 35.6523 279.27 35.6523ZM299.355 46.3867C299.746 46.3867 300.125 46.3477 300.492 46.2695C300.867 46.1914 301.238 46.0938 301.605 45.9766V48.6367C301.223 48.8086 300.746 48.9492 300.176 49.0586C299.613 49.1758 298.996 49.2344 298.324 49.2344C297.543 49.2344 296.84 49.1094 296.215 48.8594C295.598 48.6016 295.109 48.1602 294.75 47.5352C294.398 46.9023 294.223 46.0234 294.223 44.8984V38.582H292.512V37.0703L294.48 35.875L295.512 33.1094H297.797V35.8984H301.465V38.582H297.797V44.8984C297.797 45.3984 297.938 45.7734 298.219 46.0234C298.508 46.2656 298.887 46.3867 299.355 46.3867ZM316.172 42.4258C316.172 43.5195 316.023 44.4883 315.727 45.332C315.438 46.1758 315.012 46.8906 314.449 47.4766C313.895 48.0547 313.223 48.4922 312.434 48.7891C311.652 49.0859 310.77 49.2344 309.785 49.2344C308.863 49.2344 308.016 49.0859 307.242 48.7891C306.477 48.4922 305.809 48.0547 305.238 47.4766C304.676 46.8906 304.238 46.1758 303.926 45.332C303.621 44.4883 303.469 43.5195 303.469 42.4258C303.469 40.9727 303.727 39.7422 304.242 38.7344C304.758 37.7266 305.492 36.9609 306.445 36.4375C307.398 35.9141 308.535 35.6523 309.855 35.6523C311.082 35.6523 312.168 35.9141 313.113 36.4375C314.066 36.9609 314.812 37.7266 315.352 38.7344C315.898 39.7422 316.172 40.9727 316.172 42.4258ZM307.113 42.4258C307.113 43.2852 307.207 44.0078 307.395 44.5938C307.582 45.1797 307.875 45.6211 308.273 45.918C308.672 46.2148 309.191 46.3633 309.832 46.3633C310.465 46.3633 310.977 46.2148 311.367 45.918C311.766 45.6211 312.055 45.1797 312.234 44.5938C312.422 44.0078 312.516 43.2852 312.516 42.4258C312.516 41.5586 312.422 40.8398 312.234 40.2695C312.055 39.6914 311.766 39.2578 311.367 38.9688C310.969 38.6797 310.449 38.5352 309.809 38.5352C308.863 38.5352 308.176 38.8594 307.746 39.5078C307.324 40.1562 307.113 41.1289 307.113 42.4258ZM323.484 35.8984H327.398L329.871 43.2695C329.949 43.5039 330.016 43.7422 330.07 43.9844C330.125 44.2266 330.172 44.4766 330.211 44.7344C330.25 44.9922 330.281 45.2617 330.305 45.543H330.375C330.422 45.1211 330.484 44.7266 330.562 44.3594C330.648 43.9922 330.754 43.6289 330.879 43.2695L333.305 35.8984H337.137L331.594 50.6758C331.258 51.582 330.82 52.3359 330.281 52.9375C329.742 53.5469 329.121 54.0039 328.418 54.3086C327.723 54.6133 326.957 54.7656 326.121 54.7656C325.715 54.7656 325.363 54.7422 325.066 54.6953C324.77 54.6562 324.516 54.6133 324.305 54.5664V51.7305C324.469 51.7695 324.676 51.8047 324.926 51.8359C325.176 51.8672 325.438 51.8828 325.711 51.8828C326.211 51.8828 326.641 51.7773 327 51.5664C327.359 51.3555 327.66 51.0703 327.902 50.7109C328.145 50.3594 328.336 49.9727 328.477 49.5508L328.688 48.9062L323.484 35.8984ZM350.93 42.4258C350.93 43.5195 350.781 44.4883 350.484 45.332C350.195 46.1758 349.77 46.8906 349.207 47.4766C348.652 48.0547 347.98 48.4922 347.191 48.7891C346.41 49.0859 345.527 49.2344 344.543 49.2344C343.621 49.2344 342.773 49.0859 342 48.7891C341.234 48.4922 340.566 48.0547 339.996 47.4766C339.434 46.8906 338.996 46.1758 338.684 45.332C338.379 44.4883 338.227 43.5195 338.227 42.4258C338.227 40.9727 338.484 39.7422 339 38.7344C339.516 37.7266 340.25 36.9609 341.203 36.4375C342.156 35.9141 343.293 35.6523 344.613 35.6523C345.84 35.6523 346.926 35.9141 347.871 36.4375C348.824 36.9609 349.57 37.7266 350.109 38.7344C350.656 39.7422 350.93 40.9727 350.93 42.4258ZM341.871 42.4258C341.871 43.2852 341.965 44.0078 342.152 44.5938C342.34 45.1797 342.633 45.6211 343.031 45.918C343.43 46.2148 343.949 46.3633 344.59 46.3633C345.223 46.3633 345.734 46.2148 346.125 45.918C346.523 45.6211 346.812 45.1797 346.992 44.5938C347.18 44.0078 347.273 43.2852 347.273 42.4258C347.273 41.5586 347.18 40.8398 346.992 40.2695C346.812 39.6914 346.523 39.2578 346.125 38.9688C345.727 38.6797 345.207 38.5352 344.566 38.5352C343.621 38.5352 342.934 38.8594 342.504 39.5078C342.082 40.1562 341.871 41.1289 341.871 42.4258ZM365.906 35.8984V49H363.164L362.684 47.3242H362.496C362.215 47.7695 361.863 48.1328 361.441 48.4141C361.02 48.6953 360.555 48.9023 360.047 49.0352C359.539 49.168 359.012 49.2344 358.465 49.2344C357.527 49.2344 356.711 49.0703 356.016 48.7422C355.32 48.4062 354.777 47.8867 354.387 47.1836C354.004 46.4805 353.812 45.5664 353.812 44.4414V35.8984H357.387V43.5508C357.387 44.4883 357.555 45.1953 357.891 45.6719C358.227 46.1484 358.762 46.3867 359.496 46.3867C360.223 46.3867 360.793 46.2227 361.207 45.8945C361.621 45.5586 361.91 45.0703 362.074 44.4297C362.246 43.7812 362.332 42.9922 362.332 42.0625V35.8984H365.906ZM376.969 35.6523C377.148 35.6523 377.355 35.6641 377.59 35.6875C377.832 35.7031 378.027 35.7266 378.176 35.7578L377.906 39.1094C377.789 39.0703 377.621 39.043 377.402 39.0273C377.191 39.0039 377.008 38.9922 376.852 38.9922C376.391 38.9922 375.941 39.0508 375.504 39.168C375.074 39.2852 374.688 39.4766 374.344 39.7422C374 40 373.727 40.3438 373.523 40.7734C373.328 41.1953 373.23 41.7148 373.23 42.332V49H369.656V35.8984H372.363L372.891 38.1016H373.066C373.324 37.6562 373.645 37.25 374.027 36.8828C374.418 36.5078 374.859 36.2109 375.352 35.9922C375.852 35.7656 376.391 35.6523 376.969 35.6523ZM398.695 42.4258C398.695 43.5195 398.547 44.4883 398.25 45.332C397.961 46.1758 397.535 46.8906 396.973 47.4766C396.418 48.0547 395.746 48.4922 394.957 48.7891C394.176 49.0859 393.293 49.2344 392.309 49.2344C391.387 49.2344 390.539 49.0859 389.766 48.7891C389 48.4922 388.332 48.0547 387.762 47.4766C387.199 46.8906 386.762 46.1758 386.449 45.332C386.145 44.4883 385.992 43.5195 385.992 42.4258C385.992 40.9727 386.25 39.7422 386.766 38.7344C387.281 37.7266 388.016 36.9609 388.969 36.4375C389.922 35.9141 391.059 35.6523 392.379 35.6523C393.605 35.6523 394.691 35.9141 395.637 36.4375C396.59 36.9609 397.336 37.7266 397.875 38.7344C398.422 39.7422 398.695 40.9727 398.695 42.4258ZM389.637 42.4258C389.637 43.2852 389.73 44.0078 389.918 44.5938C390.105 45.1797 390.398 45.6211 390.797 45.918C391.195 46.2148 391.715 46.3633 392.355 46.3633C392.988 46.3633 393.5 46.2148 393.891 45.918C394.289 45.6211 394.578 45.1797 394.758 44.5938C394.945 44.0078 395.039 43.2852 395.039 42.4258C395.039 41.5586 394.945 40.8398 394.758 40.2695C394.578 39.6914 394.289 39.2578 393.891 38.9688C393.492 38.6797 392.973 38.5352 392.332 38.5352C391.387 38.5352 390.699 38.8594 390.27 39.5078C389.848 40.1562 389.637 41.1289 389.637 42.4258ZM408.961 35.6523C409.141 35.6523 409.348 35.6641 409.582 35.6875C409.824 35.7031 410.02 35.7266 410.168 35.7578L409.898 39.1094C409.781 39.0703 409.613 39.043 409.395 39.0273C409.184 39.0039 409 38.9922 408.844 38.9922C408.383 38.9922 407.934 39.0508 407.496 39.168C407.066 39.2852 406.68 39.4766 406.336 39.7422C405.992 40 405.719 40.3438 405.516 40.7734C405.32 41.1953 405.223 41.7148 405.223 42.332V49H401.648V35.8984H404.355L404.883 38.1016H405.059C405.316 37.6562 405.637 37.25 406.02 36.8828C406.41 36.5078 406.852 36.2109 407.344 35.9922C407.844 35.7656 408.383 35.6523 408.961 35.6523ZM416.121 35.8984V49H412.547V35.8984H416.121ZM414.34 30.7656C414.871 30.7656 415.328 30.8906 415.711 31.1406C416.094 31.3828 416.285 31.8398 416.285 32.5117C416.285 33.1758 416.094 33.6367 415.711 33.8945C415.328 34.1445 414.871 34.2695 414.34 34.2695C413.801 34.2695 413.34 34.1445 412.957 33.8945C412.582 33.6367 412.395 33.1758 412.395 32.5117C412.395 31.8398 412.582 31.3828 412.957 31.1406C413.34 30.8906 413.801 30.7656 414.34 30.7656ZM423.715 54.7656C421.887 54.7656 420.488 54.4453 419.52 53.8047C418.559 53.1719 418.078 52.2812 418.078 51.1328C418.078 50.3438 418.324 49.6836 418.816 49.1523C419.309 48.6211 420.031 48.2422 420.984 48.0156C420.617 47.8594 420.297 47.6055 420.023 47.2539C419.75 46.8945 419.613 46.5156 419.613 46.1172C419.613 45.6172 419.758 45.2031 420.047 44.875C420.336 44.5391 420.754 44.2109 421.301 43.8906C420.613 43.5938 420.066 43.1172 419.66 42.4609C419.262 41.8047 419.062 41.0312 419.062 40.1406C419.062 39.1875 419.27 38.3789 419.684 37.7148C420.105 37.043 420.715 36.5312 421.512 36.1797C422.316 35.8281 423.293 35.6523 424.441 35.6523C424.684 35.6523 424.965 35.668 425.285 35.6992C425.605 35.7305 425.898 35.7656 426.164 35.8047C426.438 35.8438 426.621 35.875 426.715 35.8984H431.285V37.7148L429.234 38.2422C429.422 38.5312 429.562 38.8398 429.656 39.168C429.75 39.4961 429.797 39.8438 429.797 40.2109C429.797 41.6172 429.305 42.7148 428.32 43.5039C427.344 44.2852 425.984 44.6758 424.242 44.6758C423.828 44.6523 423.438 44.6211 423.07 44.582C422.891 44.7227 422.754 44.8711 422.66 45.0273C422.566 45.1836 422.52 45.3477 422.52 45.5195C422.52 45.6914 422.59 45.8359 422.73 45.9531C422.879 46.0625 423.098 46.1484 423.387 46.2109C423.684 46.2656 424.051 46.293 424.488 46.293H426.715C428.152 46.293 429.246 46.6016 429.996 47.2188C430.754 47.8359 431.133 48.7422 431.133 49.9375C431.133 51.4688 430.492 52.6562 429.211 53.5C427.938 54.3438 426.105 54.7656 423.715 54.7656ZM423.867 52.4336C424.719 52.4336 425.449 52.3516 426.059 52.1875C426.676 52.0312 427.148 51.8047 427.477 51.5078C427.805 51.2188 427.969 50.8711 427.969 50.4648C427.969 50.1367 427.871 49.875 427.676 49.6797C427.488 49.4922 427.199 49.3594 426.809 49.2812C426.426 49.2031 425.934 49.1641 425.332 49.1641H423.48C423.043 49.1641 422.648 49.2344 422.297 49.375C421.953 49.5156 421.68 49.7109 421.477 49.9609C421.273 50.2188 421.172 50.5156 421.172 50.8516C421.172 51.3438 421.406 51.7305 421.875 52.0117C422.352 52.293 423.016 52.4336 423.867 52.4336ZM424.441 42.4961C425.113 42.4961 425.605 42.2891 425.918 41.875C426.23 41.4609 426.387 40.8984 426.387 40.1875C426.387 39.3984 426.223 38.8086 425.895 38.418C425.574 38.0195 425.09 37.8203 424.441 37.8203C423.785 37.8203 423.293 38.0195 422.965 38.418C422.637 38.8086 422.473 39.3984 422.473 40.1875C422.473 40.8984 422.633 41.4609 422.953 41.875C423.281 42.2891 423.777 42.4961 424.441 42.4961ZM437.027 35.8984V49H433.453V35.8984H437.027ZM435.246 30.7656C435.777 30.7656 436.234 30.8906 436.617 31.1406C437 31.3828 437.191 31.8398 437.191 32.5117C437.191 33.1758 437 33.6367 436.617 33.8945C436.234 34.1445 435.777 34.2695 435.246 34.2695C434.707 34.2695 434.246 34.1445 433.863 33.8945C433.488 33.6367 433.301 33.1758 433.301 32.5117C433.301 31.8398 433.488 31.3828 433.863 31.1406C434.246 30.8906 434.707 30.7656 435.246 30.7656ZM448.23 35.6523C449.629 35.6523 450.754 36.0352 451.605 36.8008C452.457 37.5586 452.883 38.7773 452.883 40.457V49H449.309V41.3477C449.309 40.4102 449.137 39.7031 448.793 39.2266C448.457 38.75 447.926 38.5117 447.199 38.5117C446.105 38.5117 445.359 38.8828 444.961 39.625C444.562 40.3672 444.363 41.4375 444.363 42.8359V49H440.789V35.8984H443.52L444 37.5742H444.199C444.48 37.1211 444.828 36.7539 445.242 36.4727C445.664 36.1914 446.129 35.9844 446.637 35.8516C447.152 35.7188 447.684 35.6523 448.23 35.6523ZM461.93 35.6289C463.688 35.6289 465.035 36.0117 465.973 36.7773C466.91 37.543 467.379 38.707 467.379 40.2695V49H464.883L464.191 47.2188H464.098C463.723 47.6875 463.34 48.0703 462.949 48.3672C462.559 48.6641 462.109 48.8828 461.602 49.0234C461.094 49.1641 460.477 49.2344 459.75 49.2344C458.977 49.2344 458.281 49.0859 457.664 48.7891C457.055 48.4922 456.574 48.0391 456.223 47.4297C455.871 46.8125 455.695 46.0312 455.695 45.0859C455.695 43.6953 456.184 42.6719 457.16 42.0156C458.137 41.3516 459.602 40.9844 461.555 40.9141L463.828 40.8438V40.2695C463.828 39.582 463.648 39.0781 463.289 38.7578C462.93 38.4375 462.43 38.2773 461.789 38.2773C461.156 38.2773 460.535 38.3672 459.926 38.5469C459.316 38.7266 458.707 38.9531 458.098 39.2266L456.914 36.8125C457.609 36.4453 458.387 36.1562 459.246 35.9453C460.113 35.7344 461.008 35.6289 461.93 35.6289ZM463.828 42.9297L462.445 42.9766C461.289 43.0078 460.484 43.2148 460.031 43.5977C459.586 43.9805 459.363 44.4844 459.363 45.1094C459.363 45.6562 459.523 46.0469 459.844 46.2812C460.164 46.5078 460.582 46.6211 461.098 46.6211C461.863 46.6211 462.508 46.3945 463.031 45.9414C463.562 45.4883 463.828 44.8438 463.828 44.0078V42.9297ZM474.645 49H471.07V30.7656H474.645V49ZM490.16 46.3867C490.551 46.3867 490.93 46.3477 491.297 46.2695C491.672 46.1914 492.043 46.0938 492.41 45.9766V48.6367C492.027 48.8086 491.551 48.9492 490.98 49.0586C490.418 49.1758 489.801 49.2344 489.129 49.2344C488.348 49.2344 487.645 49.1094 487.02 48.8594C486.402 48.6016 485.914 48.1602 485.555 47.5352C485.203 46.9023 485.027 46.0234 485.027 44.8984V38.582H483.316V37.0703L485.285 35.875L486.316 33.1094H488.602V35.8984H492.27V38.582H488.602V44.8984C488.602 45.3984 488.742 45.7734 489.023 46.0234C489.312 46.2656 489.691 46.3867 490.16 46.3867ZM500.438 35.6289C502.195 35.6289 503.543 36.0117 504.48 36.7773C505.418 37.543 505.887 38.707 505.887 40.2695V49H503.391L502.699 47.2188H502.605C502.23 47.6875 501.848 48.0703 501.457 48.3672C501.066 48.6641 500.617 48.8828 500.109 49.0234C499.602 49.1641 498.984 49.2344 498.258 49.2344C497.484 49.2344 496.789 49.0859 496.172 48.7891C495.562 48.4922 495.082 48.0391 494.73 47.4297C494.379 46.8125 494.203 46.0312 494.203 45.0859C494.203 43.6953 494.691 42.6719 495.668 42.0156C496.645 41.3516 498.109 40.9844 500.062 40.9141L502.336 40.8438V40.2695C502.336 39.582 502.156 39.0781 501.797 38.7578C501.438 38.4375 500.938 38.2773 500.297 38.2773C499.664 38.2773 499.043 38.3672 498.434 38.5469C497.824 38.7266 497.215 38.9531 496.605 39.2266L495.422 36.8125C496.117 36.4453 496.895 36.1562 497.754 35.9453C498.621 35.7344 499.516 35.6289 500.438 35.6289ZM502.336 42.9297L500.953 42.9766C499.797 43.0078 498.992 43.2148 498.539 43.5977C498.094 43.9805 497.871 44.4844 497.871 45.1094C497.871 45.6562 498.031 46.0469 498.352 46.2812C498.672 46.5078 499.09 46.6211 499.605 46.6211C500.371 46.6211 501.016 46.3945 501.539 45.9414C502.07 45.4883 502.336 44.8438 502.336 44.0078V42.9297ZM513.152 30.7656V35.0078C513.152 35.5 513.137 35.9883 513.105 36.4727C513.082 36.957 513.051 37.332 513.012 37.5977H513.152C513.496 37.0586 513.965 36.6016 514.559 36.2266C515.152 35.8438 515.922 35.6523 516.867 35.6523C518.336 35.6523 519.527 36.2266 520.441 37.375C521.355 38.5234 521.812 40.207 521.812 42.4258C521.812 43.918 521.602 45.1719 521.18 46.1875C520.758 47.1953 520.168 47.957 519.41 48.4727C518.652 48.9805 517.773 49.2344 516.773 49.2344C515.812 49.2344 515.055 49.0625 514.5 48.7188C513.945 48.375 513.496 47.9883 513.152 47.5586H512.906L512.309 49H509.578V30.7656H513.152ZM515.719 38.5117C515.094 38.5117 514.598 38.6406 514.23 38.8984C513.863 39.1562 513.594 39.543 513.422 40.0586C513.258 40.5742 513.168 41.2266 513.152 42.0156V42.4023C513.152 43.6758 513.34 44.6523 513.715 45.332C514.09 46.0039 514.773 46.3398 515.766 46.3398C516.5 46.3398 517.082 46 517.512 45.3203C517.949 44.6406 518.168 43.6602 518.168 42.3789C518.168 41.0977 517.949 40.1328 517.512 39.4844C517.074 38.8359 516.477 38.5117 515.719 38.5117Z" fill="white"/>
<defs>
<linearGradient id="paint0_linear_4565_1500" x1="265.5" y1="4" x2="281.5" y2="4" gradientUnits="userSpaceOnUse">
<stop stop-color="#00BCD4"/>
<stop offset="1" stop-color="#7977FF"/>
</linearGradient>
<linearGradient id="paint1_linear_4565_1500" x1="8" y1="40" x2="539" y2="40" gradientUnits="userSpaceOnUse">
<stop stop-color="#00BCD4"/>
<stop offset="1" stop-color="#7977FF"/>
</linearGradient>
</defs>
</svg>
