<svg width="151" height="48" viewBox="0 0 151 48" fill="none" xmlns="http://www.w3.org/2000/svg">
<rect x="0.5" y="0.5" width="150" height="47" rx="23.5" fill="white"/>
<path d="M35.7954 29H30.4507V19.7197H35.7954V21.332H32.4185V23.3696H35.5605V24.9819H32.4185V27.375H35.7954V29ZM41.6162 21.77C42.3737 21.77 42.9831 21.9774 43.4443 22.3921C43.9056 22.8026 44.1362 23.4627 44.1362 24.3726V29H42.2002V24.855C42.2002 24.3472 42.1071 23.9642 41.9209 23.7061C41.7389 23.4479 41.4512 23.3188 41.0576 23.3188C40.4652 23.3188 40.061 23.5199 39.8452 23.9219C39.6294 24.3239 39.5215 24.9036 39.5215 25.6611V29H37.5854V21.9033H39.0645L39.3247 22.811H39.4326C39.585 22.5656 39.7733 22.3667 39.9976 22.2144C40.2261 22.062 40.4779 21.9499 40.7529 21.8779C41.0322 21.806 41.32 21.77 41.6162 21.77ZM48.3765 29.127C47.5851 29.127 46.9398 28.818 46.4404 28.2002C45.9453 27.5781 45.6978 26.6662 45.6978 25.4644C45.6978 24.2498 45.9495 23.3315 46.4531 22.7095C46.9567 22.0832 47.6147 21.77 48.4272 21.77C48.7658 21.77 49.0641 21.8166 49.3223 21.9097C49.5804 22.0028 49.8026 22.1276 49.9888 22.2842C50.1792 22.4408 50.34 22.6164 50.4712 22.811H50.5347C50.5093 22.6756 50.4775 22.4767 50.4395 22.2144C50.4056 21.9478 50.3887 21.6748 50.3887 21.3955V19.123H52.3311V29H50.8457L50.4712 28.0796H50.3887C50.266 28.2743 50.1115 28.452 49.9253 28.6128C49.7433 28.7694 49.5254 28.8942 49.2715 28.9873C49.0176 29.0804 48.7192 29.127 48.3765 29.127ZM49.0557 27.5845C49.5846 27.5845 49.957 27.4279 50.1729 27.1147C50.3929 26.7974 50.5093 26.3213 50.522 25.6865V25.4771C50.522 24.7873 50.4162 24.2604 50.2046 23.8965C49.993 23.5283 49.5994 23.3442 49.0239 23.3442C48.5965 23.3442 48.2622 23.5283 48.021 23.8965C47.7798 24.2646 47.6592 24.7957 47.6592 25.4897C47.6592 26.1838 47.7798 26.7064 48.021 27.0576C48.2664 27.4089 48.6113 27.5845 49.0557 27.5845ZM60.5894 19.7197C61.4315 19.7197 62.1255 19.8213 62.6714 20.0244C63.2215 20.2275 63.6299 20.5343 63.8965 20.9448C64.1631 21.3553 64.2964 21.8737 64.2964 22.5C64.2964 22.9232 64.216 23.2935 64.0552 23.6108C63.8944 23.9282 63.6828 24.1969 63.4204 24.417C63.158 24.637 62.8745 24.8169 62.5698 24.9565L65.2993 29H63.1157L60.9004 25.439H59.853V29H57.8853V19.7197H60.5894ZM60.4497 21.332H59.853V23.8394H60.4878C61.1395 23.8394 61.605 23.7314 61.8843 23.5156C62.1678 23.2956 62.3096 22.974 62.3096 22.5508C62.3096 22.1107 62.1572 21.7975 61.8525 21.6113C61.5521 21.4251 61.0845 21.332 60.4497 21.332ZM69.2412 21.77C69.8971 21.77 70.4621 21.897 70.936 22.1509C71.41 22.4006 71.776 22.7645 72.0342 23.2427C72.2923 23.7209 72.4214 24.3049 72.4214 24.9946V25.9341H67.8447C67.8659 26.48 68.0288 26.9095 68.3335 27.2227C68.6424 27.5316 69.0698 27.686 69.6157 27.686C70.0685 27.686 70.4832 27.6395 70.8599 27.5464C71.2365 27.4533 71.6237 27.3136 72.0215 27.1274V28.6255C71.6702 28.799 71.3021 28.9259 70.917 29.0063C70.5361 29.0868 70.0728 29.127 69.5269 29.127C68.8159 29.127 68.1854 28.9958 67.6353 28.7334C67.0894 28.471 66.6598 28.0711 66.3467 27.5337C66.0378 26.9963 65.8833 26.3192 65.8833 25.5024C65.8833 24.673 66.0229 23.9832 66.3022 23.4331C66.5858 22.8787 66.9793 22.464 67.4829 22.189C67.9865 21.9097 68.5726 21.77 69.2412 21.77ZM69.2539 23.1475C68.8773 23.1475 68.5641 23.2681 68.3145 23.5093C68.069 23.7505 67.9272 24.1292 67.8892 24.6455H70.606C70.6017 24.3577 70.5488 24.1017 70.4473 23.8774C70.3499 23.6532 70.2018 23.4754 70.0029 23.3442C69.8083 23.2131 69.5586 23.1475 69.2539 23.1475ZM76.8774 29.127C76.175 29.127 75.5762 29 75.0811 28.7461C74.5859 28.488 74.2093 28.0902 73.9512 27.5527C73.693 27.0153 73.564 26.3276 73.564 25.4897C73.564 24.6222 73.71 23.9155 74.002 23.3696C74.2982 22.8195 74.7065 22.4154 75.2271 22.1572C75.7518 21.8991 76.359 21.77 77.0488 21.77C77.5397 21.77 77.9629 21.8187 78.3184 21.916C78.6781 22.0091 78.9912 22.1213 79.2578 22.2524L78.6865 23.7505C78.3818 23.6278 78.0983 23.5283 77.8359 23.4521C77.5736 23.3717 77.3112 23.3315 77.0488 23.3315C76.7103 23.3315 76.4289 23.4119 76.2046 23.5728C75.9803 23.7293 75.8132 23.9663 75.7031 24.2837C75.5931 24.6011 75.5381 24.9989 75.5381 25.4771C75.5381 25.9468 75.5973 26.3361 75.7158 26.645C75.8343 26.9539 76.0057 27.1846 76.23 27.3369C76.4543 27.485 76.7272 27.5591 77.0488 27.5591C77.4508 27.5591 77.8084 27.5062 78.1216 27.4004C78.4347 27.2904 78.7394 27.138 79.0356 26.9434V28.6001C78.7394 28.7863 78.4284 28.9196 78.1025 29C77.7809 29.0846 77.3726 29.127 76.8774 29.127ZM87.1353 25.439C87.1353 26.0314 87.0549 26.5562 86.894 27.0132C86.7375 27.4702 86.5068 27.8574 86.2021 28.1748C85.9017 28.488 85.5378 28.7249 85.1104 28.8857C84.6872 29.0465 84.209 29.127 83.6758 29.127C83.1764 29.127 82.7173 29.0465 82.2983 28.8857C81.8836 28.7249 81.5218 28.488 81.2129 28.1748C80.9082 27.8574 80.6712 27.4702 80.502 27.0132C80.3369 26.5562 80.2544 26.0314 80.2544 25.439C80.2544 24.6519 80.394 23.9854 80.6733 23.4395C80.9526 22.8936 81.3504 22.4788 81.8667 22.1953C82.383 21.9118 82.9987 21.77 83.7139 21.77C84.3783 21.77 84.9665 21.9118 85.4785 22.1953C85.9948 22.4788 86.3989 22.8936 86.6909 23.4395C86.9871 23.9854 87.1353 24.6519 87.1353 25.439ZM82.2285 25.439C82.2285 25.9045 82.2793 26.2959 82.3809 26.6133C82.4824 26.9307 82.6411 27.1698 82.8569 27.3306C83.0728 27.4914 83.3542 27.5718 83.7012 27.5718C84.0439 27.5718 84.3211 27.4914 84.5327 27.3306C84.7485 27.1698 84.9051 26.9307 85.0024 26.6133C85.104 26.2959 85.1548 25.9045 85.1548 25.439C85.1548 24.9692 85.104 24.5799 85.0024 24.271C84.9051 23.9578 84.7485 23.723 84.5327 23.5664C84.3169 23.4098 84.0355 23.3315 83.6885 23.3315C83.1764 23.3315 82.804 23.5072 82.5713 23.8584C82.3428 24.2096 82.2285 24.7365 82.2285 25.439ZM92.6958 21.77C92.7931 21.77 92.9053 21.7764 93.0322 21.7891C93.1634 21.7975 93.2692 21.8102 93.3496 21.8271L93.2036 23.6426C93.1401 23.6214 93.0492 23.6066 92.9307 23.5981C92.8164 23.5854 92.717 23.5791 92.6323 23.5791C92.3826 23.5791 92.1393 23.6108 91.9023 23.6743C91.6696 23.7378 91.4601 23.8415 91.2739 23.9854C91.0877 24.125 90.9396 24.3112 90.8296 24.5439C90.7238 24.7725 90.6709 25.0539 90.6709 25.3882V29H88.7349V21.9033H90.2012L90.4868 23.0967H90.582C90.7217 22.8555 90.8952 22.6354 91.1025 22.4365C91.3141 22.2334 91.5532 22.0726 91.8198 21.9541C92.0907 21.8314 92.3826 21.77 92.6958 21.77ZM96.8853 29.127C96.0939 29.127 95.4486 28.818 94.9492 28.2002C94.4541 27.5781 94.2065 26.6662 94.2065 25.4644C94.2065 24.2498 94.4583 23.3315 94.9619 22.7095C95.4655 22.0832 96.1235 21.77 96.936 21.77C97.2746 21.77 97.5729 21.8166 97.8311 21.9097C98.0892 22.0028 98.3114 22.1276 98.4976 22.2842C98.688 22.4408 98.8488 22.6164 98.98 22.811H99.0435C99.0181 22.6756 98.9863 22.4767 98.9482 22.2144C98.9144 21.9478 98.8975 21.6748 98.8975 21.3955V19.123H100.84V29H99.3545L98.98 28.0796H98.8975C98.7747 28.2743 98.6203 28.452 98.4341 28.6128C98.2521 28.7694 98.0342 28.8942 97.7803 28.9873C97.5264 29.0804 97.228 29.127 96.8853 29.127ZM97.5645 27.5845C98.0934 27.5845 98.4658 27.4279 98.6816 27.1147C98.9017 26.7974 99.0181 26.3213 99.0308 25.6865V25.4771C99.0308 24.7873 98.925 24.2604 98.7134 23.8965C98.5018 23.5283 98.1082 23.3442 97.5327 23.3442C97.1053 23.3442 96.771 23.5283 96.5298 23.8965C96.2886 24.2646 96.168 24.7957 96.168 25.4897C96.168 26.1838 96.2886 26.7064 96.5298 27.0576C96.7752 27.4089 97.1201 27.5845 97.5645 27.5845ZM104.801 21.9033V29H102.865V21.9033H104.801ZM103.836 19.123C104.124 19.123 104.371 19.1908 104.579 19.3262C104.786 19.4574 104.89 19.7049 104.89 20.0688C104.89 20.4285 104.786 20.6782 104.579 20.8179C104.371 20.9533 104.124 21.021 103.836 21.021C103.544 21.021 103.294 20.9533 103.087 20.8179C102.884 20.6782 102.782 20.4285 102.782 20.0688C102.782 19.7049 102.884 19.4574 103.087 19.3262C103.294 19.1908 103.544 19.123 103.836 19.123ZM110.869 21.77C111.627 21.77 112.236 21.9774 112.697 22.3921C113.159 22.8026 113.389 23.4627 113.389 24.3726V29H111.453V24.855C111.453 24.3472 111.36 23.9642 111.174 23.7061C110.992 23.4479 110.704 23.3188 110.311 23.3188C109.718 23.3188 109.314 23.5199 109.098 23.9219C108.882 24.3239 108.774 24.9036 108.774 25.6611V29H106.838V21.9033H108.317L108.578 22.811H108.686C108.838 22.5656 109.026 22.3667 109.25 22.2144C109.479 22.062 109.731 21.9499 110.006 21.8779C110.285 21.806 110.573 21.77 110.869 21.77ZM117.458 32.123C116.468 32.123 115.71 31.9495 115.186 31.6025C114.665 31.2598 114.405 30.7773 114.405 30.1553C114.405 29.7279 114.538 29.3703 114.805 29.0825C115.071 28.7948 115.463 28.5895 115.979 28.4668C115.78 28.3822 115.607 28.2446 115.458 28.0542C115.31 27.8595 115.236 27.6543 115.236 27.4385C115.236 27.1676 115.315 26.9434 115.471 26.7656C115.628 26.5837 115.854 26.4059 116.15 26.2324C115.778 26.0716 115.482 25.8135 115.262 25.458C115.046 25.1025 114.938 24.6836 114.938 24.2012C114.938 23.6849 115.05 23.2469 115.274 22.8872C115.503 22.5233 115.833 22.2461 116.265 22.0557C116.701 21.8652 117.229 21.77 117.852 21.77C117.983 21.77 118.135 21.7785 118.309 21.7954C118.482 21.8123 118.641 21.8314 118.785 21.8525C118.933 21.8737 119.032 21.8906 119.083 21.9033H121.559V22.8872L120.448 23.1729C120.549 23.3294 120.625 23.4966 120.676 23.6743C120.727 23.8521 120.752 24.0404 120.752 24.2393C120.752 25.001 120.486 25.5955 119.953 26.0229C119.424 26.4461 118.687 26.6577 117.744 26.6577C117.519 26.645 117.308 26.6281 117.109 26.6069C117.012 26.6831 116.938 26.7635 116.887 26.8481C116.836 26.9328 116.811 27.0216 116.811 27.1147C116.811 27.2078 116.849 27.2861 116.925 27.3496C117.005 27.4089 117.124 27.4554 117.28 27.4893C117.441 27.5189 117.64 27.5337 117.877 27.5337H119.083C119.862 27.5337 120.454 27.7008 120.86 28.0352C121.271 28.3695 121.476 28.8604 121.476 29.5078C121.476 30.3372 121.129 30.9805 120.435 31.4375C119.745 31.8945 118.753 32.123 117.458 32.123ZM117.541 30.8599C118.002 30.8599 118.397 30.8154 118.728 30.7266C119.062 30.6419 119.318 30.5192 119.496 30.3584C119.673 30.2018 119.762 30.0135 119.762 29.7935C119.762 29.6157 119.709 29.474 119.604 29.3682C119.502 29.2666 119.345 29.1947 119.134 29.1523C118.926 29.11 118.66 29.0889 118.334 29.0889H117.331C117.094 29.0889 116.88 29.127 116.69 29.2031C116.504 29.2793 116.356 29.3851 116.246 29.5205C116.136 29.6602 116.081 29.821 116.081 30.0029C116.081 30.2695 116.208 30.479 116.461 30.6313C116.72 30.7837 117.079 30.8599 117.541 30.8599ZM117.852 25.4771C118.215 25.4771 118.482 25.3649 118.651 25.1406C118.821 24.9163 118.905 24.6117 118.905 24.2266C118.905 23.7992 118.816 23.4797 118.639 23.2681C118.465 23.0522 118.203 22.9443 117.852 22.9443C117.496 22.9443 117.229 23.0522 117.052 23.2681C116.874 23.4797 116.785 23.7992 116.785 24.2266C116.785 24.6117 116.872 24.9163 117.045 25.1406C117.223 25.3649 117.492 25.4771 117.852 25.4771Z" fill="url(#paint0_linear_4558_11541)"/>
<rect x="0.5" y="0.5" width="150" height="47" rx="23.5" stroke="url(#paint1_linear_4558_11541)"/>
<defs>
<linearGradient id="paint0_linear_4558_11541" x1="29" y1="24" x2="122" y2="24" gradientUnits="userSpaceOnUse">
<stop stop-color="#00BCD4"/>
<stop offset="1" stop-color="#7977FF"/>
</linearGradient>
<linearGradient id="paint1_linear_4558_11541" x1="0" y1="24" x2="151" y2="24" gradientUnits="userSpaceOnUse">
<stop stop-color="#00BCD4"/>
<stop offset="1" stop-color="#7977FF"/>
</linearGradient>
</defs>
</svg>
