<svg width="16" height="16" viewBox="0 0 16 16" fill="none" xmlns="http://www.w3.org/2000/svg">
<path d="M13.3333 8.00001C13.3333 5.05449 10.9455 2.66668 8.00001 2.66668C5.05449 2.66668 2.66668 5.05449 2.66668 8.00001C2.66668 10.9455 5.05449 13.3333 8.00001 13.3333C10.9455 13.3333 13.3333 10.9455 13.3333 8.00001ZM14.6667 8.00001C14.6667 11.6819 11.6819 14.6667 8.00001 14.6667C4.31811 14.6667 1.33334 11.6819 1.33334 8.00001C1.33334 4.31811 4.31811 1.33334 8.00001 1.33334C11.6819 1.33334 14.6667 4.31811 14.6667 8.00001ZM6.99828 5.73459C6.78675 5.97257 6.66668 6.30872 6.66668 6.66668C6.66668 7.03487 6.3682 7.33334 6.00001 7.33334C5.63182 7.33334 5.33334 7.03487 5.33334 6.66668C5.33334 6.02463 5.54661 5.36079 6.00174 4.84877C6.46777 4.32448 7.15244 4.00001 8.00001 4.00001C8.7432 4.00001 9.4118 4.19655 9.90585 4.61763C10.4113 5.0484 10.6667 5.65811 10.6667 6.33334C10.6667 6.76319 10.5774 7.17871 10.3491 7.57034C10.1246 7.95544 9.79092 8.27397 9.36981 8.55471C8.89827 8.86907 8.74577 9.05285 8.69667 9.13467C8.67144 9.17672 8.66668 9.18467 8.66668 9.33334C8.66668 9.70153 8.3682 10 8.00001 10C7.63182 10 7.33334 9.70153 7.33334 9.33334L7.33334 9.32243C7.33325 9.13632 7.3331 8.81577 7.55335 8.44868C7.75425 8.11384 8.10175 7.79761 8.63021 7.44531C8.93753 7.24043 9.10386 7.05896 9.19724 6.8988C9.28681 6.74516 9.33334 6.57017 9.33334 6.33334C9.33334 6.00858 9.21995 5.78495 9.04095 5.63239C8.85058 5.47014 8.51918 5.33334 8.00001 5.33334C7.51425 5.33334 7.19892 5.50888 6.99828 5.73459ZM8.66668 11.3333C8.66668 11.7015 8.3682 12 8.00001 12C7.63182 12 7.33334 11.7015 7.33334 11.3333C7.33334 10.9652 7.63182 10.6667 8.00001 10.6667C8.3682 10.6667 8.66668 10.9652 8.66668 11.3333Z" fill="black" fill-opacity="0.6"/>
</svg>
