<svg width="16" height="16" viewBox="0 0 16 16" fill="none" xmlns="http://www.w3.org/2000/svg">
<path d="M13.3178 2.58596C12.5369 1.80473 11.2707 1.80467 10.4899 2.58582L9.46511 3.61095C9.46094 3.61491 9.45681 3.61894 9.45272 3.62303C9.44857 3.62718 9.44448 3.63137 9.44046 3.6356L2.19521 10.8834C2.07021 11.0085 1.99999 11.1781 2 11.3549L2.0001 13.3352C2.00011 13.512 2.07034 13.6816 2.19535 13.8067C2.32037 13.9317 2.48991 14.002 2.66669 14.002L4.64621 14.002C4.82298 14.0021 4.99251 13.9318 5.1175 13.8068L13.4122 5.50918C14.193 4.72803 14.193 3.46147 13.412 2.68025L13.3178 2.58596ZM9.92442 5.03752L10.9615 6.07462L4.37003 12.6685L3.33316 12.6684L3.33311 11.6312L9.92442 5.03752ZM11.9042 5.13165L10.8671 4.09454L11.4326 3.52885C11.6928 3.26846 12.1149 3.26848 12.3752 3.52889L12.4694 3.62318C12.7298 3.88358 12.7298 4.30577 12.4695 4.56615L11.9042 5.13165Z" fill="white"/>
</svg>
