<svg width="16" height="16" viewBox="0 0 16 16" fill="none" xmlns="http://www.w3.org/2000/svg">
<path d="M7.33329 2C6.22872 2 5.33329 2.89543 5.33329 4V4.66667H4.66663C3.56206 4.66667 2.66663 5.5621 2.66663 6.66667V12C2.66663 13.1046 3.56206 14 4.66663 14H8.66663C9.7712 14 10.6666 13.1046 10.6666 12V11.3333H11.3333C12.4379 11.3333 13.3333 10.4379 13.3333 9.33333V4C13.3333 2.89543 12.4379 2 11.3333 2H7.33329ZM10.6666 10V6.66667C10.6666 5.5621 9.7712 4.66667 8.66663 4.66667H6.66663V4C6.66663 3.63181 6.9651 3.33333 7.33329 3.33333H11.3333C11.7015 3.33333 12 3.63181 12 4V9.33333C12 9.70152 11.7015 10 11.3333 10H10.6666ZM3.99996 6.66667C3.99996 6.29848 4.29844 6 4.66663 6H8.66663C9.03482 6 9.33329 6.29848 9.33329 6.66667V12C9.33329 12.3682 9.03482 12.6667 8.66663 12.6667H4.66663C4.29844 12.6667 3.99996 12.3682 3.99996 12V6.66667Z" fill="white"/>
</svg>
