<svg width="16" height="16" viewBox="0 0 16 16" fill="none" xmlns="http://www.w3.org/2000/svg">
<path fill-rule="evenodd" clip-rule="evenodd" d="M14.3614 9.83566L13.5247 12.9699L13.1363 11.3487L13.5949 9.63101C13.6514 9.41934 13.8688 9.29355 14.0805 9.35006C14.2922 9.40657 14.418 9.62398 14.3614 9.83566ZM11.8886 9.62904L12.0675 10.2853L13.1635 14.861L13.1709 14.8815C13.3958 15.5082 13.9804 15.9251 14.6301 15.8639C15.3757 15.7938 15.9111 15.2181 15.9111 14.4689C15.9111 14.1001 15.7721 13.7615 15.5129 13.4882C15.2522 13.2132 14.8852 13.0682 14.4968 13.0682C14.2782 13.0682 14.101 13.2459 14.101 13.465C14.101 13.6842 14.2782 13.8619 14.4968 13.8619C14.6762 13.8619 14.8341 13.9243 14.9391 14.0351C15.0604 14.1629 15.1195 14.3068 15.1195 14.4689C15.1195 14.8044 14.899 15.0414 14.5561 15.0737C14.2898 15.0988 14.0345 14.9211 13.9226 14.6312L13.683 13.6306C15.1153 12.185 16 10.1958 16 8C16 3.58172 12.4183 0 8 0C3.58172 0 0 3.58172 0 8C0 12.4183 3.58172 16 8 16C8.96034 16 9.88115 15.8308 10.7343 15.5206C10.4434 15.2678 10.2673 14.8957 10.2673 14.4667C10.2673 14.0981 10.4067 13.7596 10.6664 13.4864C10.9277 13.2115 11.2955 13.0666 11.6847 13.0666C11.7899 13.0666 11.9009 13.0879 12.0203 13.1301L11.1231 9.83763C11.0655 9.62625 11.1902 9.4082 11.4016 9.3506C11.613 9.29299 11.831 9.41766 11.8886 9.62904ZM10.8889 14.5356C10.8889 14.9776 11.2433 15.3359 11.6805 15.3359C12.1178 15.3359 12.4722 14.9776 12.4722 14.5356C12.4722 14.0935 12.1178 13.7352 11.6805 13.7352C11.2433 13.7352 10.8889 14.0935 10.8889 14.5356ZM6.11023 8.46533C5.64343 7.0352 5.43067 6.43478 5.17136 5.88141C5.09727 5.7233 5.02685 5.58975 4.96214 5.48239C4.88564 5.73067 4.83222 6.09172 4.81073 6.55731C4.75579 7.7481 4.9109 9.52683 5.27973 11.8759C5.34826 12.3124 5.04998 12.7218 4.6135 12.7903C4.17702 12.8589 3.76762 12.5606 3.69909 12.1241C3.31498 9.67768 3.15154 7.80337 3.21243 6.48357C3.24518 5.77387 3.34266 5.20623 3.51913 4.76742C3.74605 4.20319 4.12378 3.81096 4.6582 3.68847C5.16286 3.5728 5.61061 3.77442 5.96917 4.1618C6.20364 4.4151 6.41184 4.75789 6.62018 5.20249C6.91857 5.83925 7.14145 6.46825 7.63125 7.96886L7.63508 7.98059C8.08616 9.36257 8.2891 9.93952 8.53906 10.4915C8.68211 10.8073 8.81276 11.0367 8.92196 11.1709L8.93015 11.1808C8.96118 11.1657 8.98694 11.1404 9.01721 11.0999C9.11925 10.9634 9.2085 10.7121 9.2651 10.3586C9.37928 9.64555 9.34729 8.63853 9.1953 7.39349C9.02277 5.98014 8.74923 4.86814 8.38436 4.06383C8.20184 3.66147 8.38005 3.18732 8.78241 3.00479C9.18477 2.82226 9.65892 3.00048 9.84145 3.40284C10.282 4.37404 10.5928 5.63752 10.7835 7.19962C10.9522 8.58129 10.9883 9.7168 10.845 10.6116C10.7509 11.1989 10.579 11.683 10.2987 12.0579C9.94274 12.534 9.42984 12.8 8.82074 12.8C8.36275 12.8 7.99248 12.5635 7.68112 12.181C7.46981 11.9214 7.27653 11.5821 7.08156 11.1515C6.79774 10.5248 6.58551 9.92144 6.11406 8.47705L6.11023 8.46533Z" fill="black" fill-opacity="0.3"/>
</svg>
