<svg width="18" height="18" viewBox="0 0 18 18" fill="none" xmlns="http://www.w3.org/2000/svg">
    <path fill-rule="evenodd" clip-rule="evenodd" d="M14.4053 4.65533C14.6982 4.36244 14.6982 3.88756 14.4053 3.59467C14.1124 3.30178 13.6376 3.30178 13.3447 3.59467L8.99527 7.94407L4.60808 3.63279C4.31264 3.34246 3.83779 3.34661 3.54746 3.64204C3.25713 3.93748 3.26128 4.41234 3.55672 4.70266L7.93457 9.00477L3.59467 13.3447C3.30178 13.6376 3.30178 14.1124 3.59467 14.4053C3.88756 14.6982 4.36244 14.6982 4.65533 14.4053L9.00449 10.0562L13.3914 14.3672C13.6869 14.6575 14.1617 14.6534 14.452 14.358C14.7424 14.0625 14.7382 13.5877 14.4428 13.2973L10.0652 8.99547L14.4053 4.65533Z" fill="#737373"/>
</svg>
