<svg width="16" height="16" viewBox="0 0 16 16" fill="none" xmlns="http://www.w3.org/2000/svg">
<g clip-path="url(#clip0_3070_9789)">
<path fill-rule="evenodd" clip-rule="evenodd" d="M0 8C0 3.58172 3.58172 0 8 0C12.4183 0 16 3.58172 16 8C16 12.4183 12.4183 16 8 16C3.58172 16 0 12.4183 0 8ZM4 5.13617L4.00299 7.86308L7.27078 7.84447L7.26935 4.69092L4 5.13617ZM4.00235 8.18664L7.26779 8.20782L7.27033 11.3641L4.00254 10.9148L4.00235 8.18664ZM7.66411 4.63267V7.83877L11.999 7.80436V4L7.66411 4.63267ZM7.65803 8.23041L12 8.2375L11.999 12.0247L7.6641 11.4129L7.65803 8.23041Z" fill="black" fill-opacity="0.3"/>
</g>
<defs>
<clipPath id="clip0_3070_9789">
<rect width="16" height="16" fill="white"/>
</clipPath>
</defs>
</svg>
