<svg width="20" height="20" viewBox="0 0 20 20" fill="none" xmlns="http://www.w3.org/2000/svg">
<g clip-path="url(#clip0_2720_6014)">
<path d="M7.03247 3H12.9409L18.4974 12.1H12.5757L7.03247 3Z" fill="url(#paint0_linear_2720_6014)"/>
<path d="M18.4974 12.1001L15.5366 16.9623H4.45007L7.41754 12.1001H18.4974Z" fill="url(#paint1_linear_2720_6014)"/>
<path d="M4.4495 16.9622L1.50195 12.1L7.03193 3L9.9994 7.87477L4.4495 16.9622Z" fill="url(#paint2_linear_2720_6014)"/>
<path opacity="0.1" d="M4.45007 16.9623L9.96677 12.1001H7.41754L4.45007 16.9623Z" fill="black"/>
<path opacity="0.1" d="M18.4974 12.1H12.5824L11.2812 9.96851L18.4974 12.1Z" fill="black"/>
<path opacity="0.1" d="M7.03247 3L8.7386 9.93694L9.99994 7.87477L7.03247 3Z" fill="black"/>
</g>
<defs>
<linearGradient id="paint0_linear_2720_6014" x1="7.03247" y1="3" x2="15.8949" y2="14.1656" gradientUnits="userSpaceOnUse">
<stop stop-color="#F6C338"/>
<stop offset="0.52278" stop-color="#FFD351"/>
<stop offset="1" stop-color="#F6C338"/>
</linearGradient>
<linearGradient id="paint1_linear_2720_6014" x1="18.4974" y1="12.1001" x2="15.4917" y2="20.7841" gradientUnits="userSpaceOnUse">
<stop stop-color="#286EE6"/>
<stop offset="0.52105" stop-color="#4286FB"/>
<stop offset="1" stop-color="#286EE6"/>
</linearGradient>
<linearGradient id="paint2_linear_2720_6014" x1="7.04985" y1="3" x2="1.12532" y2="15.3087" gradientUnits="userSpaceOnUse">
<stop stop-color="#069B5A"/>
<stop offset="0.53103" stop-color="#11AA62"/>
<stop offset="1" stop-color="#069B5A"/>
</linearGradient>
<clipPath id="clip0_2720_6014">
<rect width="17" height="14" fill="white" transform="translate(1.5 3)"/>
</clipPath>
</defs>
</svg>
