<svg width="16" height="16" viewBox="0 0 16 16" fill="none" xmlns="http://www.w3.org/2000/svg">
<mask id="path-1-inside-1" fill="white">
<path d="M10.0474 5.17156C9.78707 4.91121 9.36496 4.91121 9.10461 5.17156C8.84426 5.43191 8.84426 5.85402 9.10461 6.11437L10.3236 7.33332L6.27619 7.33332C5.908 7.33332 5.60952 7.6318 5.60952 7.99999C5.60952 8.36818 5.908 8.66666 6.27619 8.66666H10.3236L9.10461 9.88561C8.84426 10.146 8.84426 10.5681 9.10461 10.8284C9.36496 11.0888 9.78708 11.0888 10.0474 10.8284L12.1687 8.7071C12.5593 8.31657 12.5593 7.68341 12.1687 7.29288L10.0474 5.17156Z"/>
<path d="M13.3299 11.007C13.6452 11.1872 13.7558 11.5886 13.5438 11.8816C12.7967 12.9142 11.7641 13.7181 10.5639 14.192C9.15881 14.7469 7.60591 14.8174 6.15543 14.3921C4.70495 13.9668 3.44136 13.0705 2.56827 11.8476C1.69518 10.6247 1.26344 9.14648 1.34261 7.65108C1.42178 6.15567 2.00726 4.7302 3.0047 3.60435C4.00214 2.4785 5.35346 1.71785 6.8409 1.44496C8.32835 1.17207 9.86529 1.40283 11.2041 2.10007C12.3476 2.69564 13.2897 3.60192 13.9237 4.70615C14.1035 5.0195 13.9512 5.40724 13.6186 5.55384C13.286 5.70043 12.8996 5.5497 12.7122 5.24068C12.204 4.40257 11.4715 3.71411 10.5902 3.25512C9.51348 2.69438 8.27743 2.5088 7.08118 2.72826C5.88494 2.94773 4.79818 3.55946 3.99601 4.4649C3.19384 5.37034 2.72298 6.51674 2.65931 7.71938C2.59564 8.92203 2.94286 10.1109 3.64502 11.0943C4.34718 12.0778 5.3634 12.7987 6.52991 13.1407C7.69642 13.4827 8.9453 13.4261 10.0753 12.9798C11.0003 12.6145 11.8015 12.0056 12.3954 11.2247C12.6144 10.9367 13.0145 10.8268 13.3299 11.007Z"/>
</mask>
<path d="M9.10461 6.11437L10.5188 4.70016L9.10461 6.11437ZM10.3236 7.33332L10.3236 9.33332L15.152 9.33332L11.7378 5.91911L10.3236 7.33332ZM6.27619 7.33332L6.27619 9.33332H6.27619L6.27619 7.33332ZM5.60952 7.99999L7.60952 7.99999V7.99999L5.60952 7.99999ZM6.27619 8.66666V6.66666H6.27619L6.27619 8.66666ZM10.3236 8.66666L11.7378 10.0809L15.152 6.66666H10.3236V8.66666ZM10.0474 10.8284L11.4616 12.2426L10.0474 10.8284ZM12.1687 8.7071L10.7545 7.29288V7.29288L12.1687 8.7071ZM13.5438 11.8816L11.9234 10.7093L11.9234 10.7093L13.5438 11.8816ZM10.5639 14.192L9.82926 12.3318H9.82926L10.5639 14.192ZM2.56827 11.8476L4.19599 10.6855L2.56827 11.8476ZM1.34261 7.65108L-0.654595 7.54534L1.34261 7.65108ZM3.0047 3.60435L4.5017 4.93061L3.0047 3.60435ZM6.8409 1.44496L6.48 -0.522212H6.48L6.8409 1.44496ZM11.2041 2.10007L10.2803 3.87392L11.2041 2.10007ZM13.9237 4.70615L12.1892 5.70189L12.1892 5.70189L13.9237 4.70615ZM13.6186 5.55384L14.4252 7.38398L14.4252 7.38398L13.6186 5.55384ZM12.7122 5.24068L14.4224 4.20369V4.20369L12.7122 5.24068ZM10.5902 3.25512L9.66634 5.02897V5.02898L10.5902 3.25512ZM3.99601 4.4649L2.49901 3.13863L2.49901 3.13863L3.99601 4.4649ZM2.65931 7.71938L0.662109 7.61364L2.65931 7.71938ZM3.64502 11.0943L5.27274 9.93222L5.27274 9.93222L3.64502 11.0943ZM6.52991 13.1407L5.96717 15.0599L6.52991 13.1407ZM10.0753 12.9798L10.8099 14.84L10.8099 14.84L10.0753 12.9798ZM12.3954 11.2247L10.8035 10.014L10.8035 10.014L12.3954 11.2247ZM11.4616 3.75735C10.4202 2.71595 8.7318 2.71595 7.6904 3.75735L10.5188 6.58578C9.99813 7.10648 9.15391 7.10648 8.63321 6.58578L11.4616 3.75735ZM7.6904 3.75735C6.649 4.79875 6.649 6.48719 7.6904 7.52859L10.5188 4.70016C11.0395 5.22086 11.0395 6.06508 10.5188 6.58578L7.6904 3.75735ZM7.6904 7.52858L8.90935 8.74754L11.7378 5.91911L10.5188 4.70016L7.6904 7.52858ZM10.3236 5.33332L6.27619 5.33332L6.27619 9.33332L10.3236 9.33332L10.3236 5.33332ZM6.27619 5.33332C4.80343 5.33332 3.60952 6.52723 3.60952 7.99999L7.60952 7.99999C7.60952 8.73637 7.01257 9.33332 6.27619 9.33332L6.27619 5.33332ZM3.60952 7.99999C3.60952 9.47275 4.80343 10.6667 6.27619 10.6667L6.27619 6.66666C7.01257 6.66666 7.60952 7.26361 7.60952 7.99999L3.60952 7.99999ZM6.27619 10.6667H10.3236V6.66666H6.27619V10.6667ZM8.90935 7.25244L7.6904 8.47139L10.5188 11.2998L11.7378 10.0809L8.90935 7.25244ZM7.6904 8.47139C6.649 9.51279 6.649 11.2012 7.6904 12.2426L10.5188 9.4142C11.0395 9.9349 11.0395 10.7791 10.5188 11.2998L7.6904 8.47139ZM7.6904 12.2426C8.7318 13.284 10.4202 13.284 11.4616 12.2426L8.63321 9.4142C9.15391 8.8935 9.99813 8.8935 10.5188 9.4142L7.6904 12.2426ZM11.4616 12.2426L13.583 10.1213L10.7545 7.29288L8.63321 9.4142L11.4616 12.2426ZM13.583 10.1213C14.7545 8.94974 14.7545 7.05024 13.583 5.87867L10.7545 8.7071C10.364 8.31657 10.364 7.68341 10.7545 7.29288L13.583 10.1213ZM13.583 5.87867L11.4616 3.75735L8.63321 6.58578L10.7545 8.7071L13.583 5.87867ZM12.3375 12.7435C11.7484 12.4068 11.3546 11.4954 11.9234 10.7093L15.1642 13.0539C16.1569 11.6818 15.542 9.96769 14.3222 9.27059L12.3375 12.7435ZM11.9234 10.7093C11.4004 11.4322 10.6754 11.9977 9.82926 12.3318L11.2985 16.0522C12.8528 15.4384 14.193 14.3963 15.1642 13.0539L11.9234 10.7093ZM9.82926 12.3318C8.83829 12.7232 7.74194 12.7731 6.71817 12.4729L5.5927 16.3113C7.46989 16.8617 9.47932 16.7707 11.2985 16.0522L9.82926 12.3318ZM6.71817 12.4729C5.69464 12.1728 4.80718 11.5415 4.19599 10.6855L0.940554 13.0097C2.07555 14.5995 3.71526 15.7608 5.5927 16.3113L6.71817 12.4729ZM4.19599 10.6855C3.58509 9.82984 3.28467 8.79829 3.33981 7.75682L-0.654595 7.54534C-0.7578 9.49468 -0.194728 11.4196 0.940554 13.0097L4.19599 10.6855ZM3.33981 7.75682C3.39495 6.71529 3.80277 5.71953 4.5017 4.93061L1.5077 2.27808C0.211747 3.74087 -0.551392 5.59606 -0.654595 7.54534L3.33981 7.75682ZM4.5017 4.93061C5.20097 4.14132 6.15146 3.60482 7.20181 3.41212L6.48 -0.522212C4.55546 -0.16913 2.80331 0.815677 1.5077 2.27808L4.5017 4.93061ZM7.20181 3.41212C8.25231 3.2194 9.33707 3.38271 10.2803 3.87392L12.1279 0.326216C10.3935 -0.577045 8.40438 -0.875263 6.48 -0.522212L7.20181 3.41212ZM10.2803 3.87392C11.0856 4.29332 11.746 4.92993 12.1892 5.70189L15.6582 3.7104C14.8335 2.27392 13.6097 1.09795 12.1279 0.326216L10.2803 3.87392ZM12.1892 5.70189C11.7045 4.85771 12.1957 3.99529 12.812 3.72369L14.4252 7.38398C15.7066 6.8192 16.5026 5.18128 15.6582 3.7104L12.1892 5.70189ZM12.812 3.72369C13.5229 3.41036 14.1628 3.77557 14.4224 4.20369L11.0021 6.27768C11.6364 7.32384 13.049 7.99049 14.4252 7.38398L12.812 3.72369ZM14.4224 4.20369C13.7242 3.05222 12.7195 2.10908 11.514 1.48127L9.66634 5.02898C10.2235 5.31914 10.6839 5.75292 11.0021 6.27768L14.4224 4.20369ZM11.514 1.48127C10.0417 0.714507 8.35346 0.461466 6.72028 0.761093L7.44209 4.69543C8.20139 4.55613 8.98525 4.67426 9.66634 5.02897L11.514 1.48127ZM6.72028 0.761093C5.08694 1.06075 3.59935 1.89664 2.49901 3.13863L5.49301 5.79117C5.99701 5.22229 6.68294 4.8347 7.44209 4.69543L6.72028 0.761093ZM2.49901 3.13863C1.39833 4.38101 0.749812 5.95712 0.662109 7.61364L4.65652 7.82512C4.69616 7.07636 4.98935 6.35967 5.49301 5.79117L2.49901 3.13863ZM0.662109 7.61364C0.574404 9.27022 1.05295 10.9058 2.0173 12.2565L5.27274 9.93222C4.83277 9.31598 4.61688 8.57383 4.65652 7.82512L0.662109 7.61364ZM2.0173 12.2565C2.98137 13.6068 4.37371 14.5927 5.96717 15.0599L7.09265 11.2215C6.35309 11.0046 5.713 10.5489 5.27274 9.93222L2.0173 12.2565ZM5.96717 15.0599C7.5604 15.5271 9.26582 15.4498 10.8099 14.84L9.34068 11.1196C8.62478 11.4023 7.83245 11.4384 7.09265 11.2215L5.96717 15.0599ZM10.8099 14.84C12.0742 14.3407 13.172 13.5074 13.9873 12.4354L10.8035 10.014C10.4309 10.5039 9.92631 10.8883 9.34067 11.1196L10.8099 14.84ZM13.9873 12.4354C13.6866 12.8308 13.0138 13.13 12.3375 12.7435L14.3222 9.27059C13.0153 8.52365 11.5422 9.0427 10.8035 10.014L13.9873 12.4354Z" fill="black" fill-opacity="0.6" mask="url(#path-1-inside-1)"/>
</svg>
