<svg width="16" height="16" viewBox="0 0 16 16" fill="none" xmlns="http://www.w3.org/2000/svg">
<path fill-rule="evenodd" clip-rule="evenodd" d="M8 16C12.4183 16 16 12.4183 16 8C16 3.58172 12.4183 0 8 0C3.58172 0 0 3.58172 0 8C0 12.4183 3.58172 16 8 16Z" fill="black" fill-opacity="0.3"/>
<path fill-rule="evenodd" clip-rule="evenodd" d="M6.10446 5.88153C6.36375 6.43488 6.57648 7.03528 7.04324 8.46536L7.04707 8.47709C7.51847 9.92142 7.73069 10.5248 8.01449 11.1515C8.20943 11.582 8.4027 11.9213 8.61399 12.1809C8.92532 12.5634 9.29556 12.7999 9.7535 12.7999C10.3625 12.7999 10.8754 12.5339 11.2313 12.0579C11.5116 11.6829 11.6835 11.1988 11.7776 10.6116C11.9208 9.7168 11.8847 8.58132 11.7161 7.19969C11.5254 5.63765 11.2147 4.3742 10.7741 3.40304C10.5916 3.00069 10.1175 2.82248 9.71518 3.005C9.31285 3.18752 9.13466 3.66166 9.31717 4.06401C9.682 4.86829 9.95551 5.98025 10.128 7.39356C10.28 8.63856 10.312 9.64555 10.1978 10.3586C10.1412 10.7121 10.052 10.9634 9.94996 11.0998C9.91968 11.1403 9.89394 11.1657 9.86291 11.1807C9.86025 11.1776 9.85752 11.1743 9.85472 11.1708C9.74553 11.0367 9.61489 10.8073 9.47185 10.4914C9.22191 9.93951 9.019 9.36257 8.56796 7.98064L8.56413 7.96891C8.07437 6.46835 7.85151 5.83937 7.55315 5.20263C7.34482 4.75804 7.13664 4.41527 6.9022 4.16197C6.54367 3.77461 6.09595 3.57299 5.59134 3.68866C5.05697 3.81114 4.67927 4.20336 4.45238 4.76757C4.27592 5.20637 4.17845 5.77399 4.14571 6.48367C4.08482 7.80342 4.24824 9.67767 4.63232 12.124C4.70084 12.5605 5.1102 12.8587 5.54664 12.7902C5.98308 12.7217 6.28134 12.3123 6.21281 11.8758C5.84402 9.52683 5.68892 7.74816 5.74386 6.55741C5.76534 6.09183 5.81876 5.73079 5.89526 5.48252C5.95996 5.58988 6.03037 5.72342 6.10446 5.88153Z" fill="white"/>
</svg>
