<svg width="16" height="16" viewBox="0 0 16 16" fill="none" xmlns="http://www.w3.org/2000/svg">
<path fill-rule="evenodd" clip-rule="evenodd" d="M4.66667 4.66667H4C2.89543 4.66667 2 5.5621 2 6.66667V10C2 11.1046 2.89543 12 4 12H4.66667C4.66667 13.1046 5.5621 14 6.66667 14H9.33333C10.4379 14 11.3333 13.1046 11.3333 12H12C13.1046 12 14 11.1046 14 10V6.66667C14 5.5621 13.1046 4.66667 12 4.66667H11.3333V4C11.3333 2.89543 10.4379 2 9.33333 2H6.66667C5.5621 2 4.66667 2.89543 4.66667 4V4.66667ZM6 4.66667H10V4C10 3.63181 9.70152 3.33333 9.33333 3.33333H6.66667C6.29848 3.33333 6 3.63181 6 4V4.66667ZM4 6C3.63181 6 3.33333 6.29848 3.33333 6.66667V10C3.33333 10.3682 3.63181 10.6667 4 10.6667H4.66667V8.66667H11.3333V10.6667H12C12.3682 10.6667 12.6667 10.3682 12.6667 10V6.66667C12.6667 6.29848 12.3682 6 12 6H4ZM6 10V12C6 12.3682 6.29848 12.6667 6.66667 12.6667H9.33333C9.70152 12.6667 10 12.3682 10 12V10H6Z" fill="#414141"/>
</svg>
