<svg width="16" height="16" viewBox="0 0 16 16" fill="none" xmlns="http://www.w3.org/2000/svg">
<path d="M4.00004 7.33325H4.66671V6.66659H4.00004V7.33325Z" fill="#414141"/>
<path d="M8.00004 6.66659H8.07936C8.25367 6.66659 8.41898 6.74401 8.53057 6.87792C8.61854 6.98348 8.66671 7.11653 8.66671 7.25394V8.7459C8.66671 8.8833 8.61854 9.01636 8.53057 9.12191C8.41898 9.25583 8.25367 9.33325 8.07936 9.33325H8.00004V6.66659Z" fill="#414141"/>
<path fill-rule="evenodd" clip-rule="evenodd" d="M2.66671 3.33325C2.66671 2.22868 3.56214 1.33325 4.66671 1.33325H10C11.6127 1.33325 12.9578 2.47843 13.2667 3.99992H13.3334C14.0698 3.99992 14.6667 4.59687 14.6667 5.33325V10.6666C14.6667 11.403 14.0698 11.9999 13.3334 11.9999V12.6666C13.3334 13.7712 12.4379 14.6666 11.3334 14.6666H4.66671C3.56214 14.6666 2.66671 13.7712 2.66671 12.6666L2.66671 11.9999C1.93033 11.9999 1.33337 11.403 1.33337 10.6666V5.33325C1.33337 4.59687 1.93033 3.99992 2.66671 3.99992V3.33325ZM10 2.66659C10.8709 2.66659 11.6117 3.22312 11.8862 3.99992H4.00004V3.33325C4.00004 2.96506 4.29852 2.66659 4.66671 2.66659H10ZM4.00004 12.6666V11.9999H12V12.6666C12 13.0348 11.7016 13.3333 11.3334 13.3333H4.66671C4.29852 13.3333 4.00004 13.0348 4.00004 12.6666ZM2.66671 6.66659C2.66671 5.93021 3.26366 5.33325 4.00004 5.33325H4.66671C5.40309 5.33325 6.00004 5.93021 6.00004 6.66659V7.33325C6.00004 8.06963 5.40309 8.66659 4.66671 8.66659H4.00004V9.99992C4.00004 10.3681 3.70156 10.6666 3.33337 10.6666C2.96518 10.6666 2.66671 10.3681 2.66671 9.99992V6.66659ZM7.36209 5.33325C6.97804 5.33325 6.66671 5.64458 6.66671 6.02863V9.9712C6.66671 10.3553 6.97805 10.6666 7.36209 10.6666H8.07936C8.64938 10.6666 9.18995 10.4134 9.55487 9.97549C9.84251 9.63032 10 9.19522 10 8.7459V7.25394C10 6.80462 9.84251 6.36952 9.55487 6.02434C9.18995 5.58644 8.64938 5.33325 8.07936 5.33325H7.36209ZM12 5.33325C11.2637 5.33325 10.6667 5.93021 10.6667 6.66659V9.99992C10.6667 10.3681 10.9652 10.6666 11.3334 10.6666C11.7016 10.6666 12 10.3681 12 9.99992V8.66659C12.3682 8.66659 12.6667 8.36811 12.6667 7.99992C12.6667 7.63173 12.3682 7.33325 12 7.33325V6.66659H12.6667C13.0349 6.66659 13.3334 6.36811 13.3334 5.99992C13.3334 5.63173 13.0349 5.33325 12.6667 5.33325H12Z" fill="#414141"/>
</svg>
