<svg width="16" height="16" viewBox="0 0 16 16" fill="none" xmlns="http://www.w3.org/2000/svg">
<path d="M7.33337 5.33337C7.33337 4.96518 7.63185 4.66671 8.00004 4.66671C8.36823 4.66671 8.66671 4.96518 8.66671 5.33337V8.66671C8.66671 9.0349 8.36823 9.33337 8.00004 9.33337C7.63185 9.33337 7.33337 9.0349 7.33337 8.66671V5.33337Z" fill="white" fill-opacity="0.7"/>
<path d="M8.00004 10.6667C7.63185 10.6667 7.33337 10.9652 7.33337 11.3334C7.33337 11.7016 7.63185 12 8.00004 12C8.36823 12 8.66671 11.7016 8.66671 11.3334C8.66671 10.9652 8.36823 10.6667 8.00004 10.6667Z" fill="white" fill-opacity="0.7"/>
<path d="M1.33337 8.00004C1.33337 11.6819 4.31814 14.6667 8.00004 14.6667C11.6819 14.6667 14.6667 11.6819 14.6667 8.00004C14.6667 4.31814 11.6819 1.33337 8.00004 1.33337C4.31814 1.33337 1.33337 4.31814 1.33337 8.00004ZM8.00004 13.3334C5.05452 13.3334 2.66671 10.9456 2.66671 8.00004C2.66671 5.05452 5.05452 2.66671 8.00004 2.66671C10.9456 2.66671 13.3334 5.05452 13.3334 8.00004C13.3334 10.9456 10.9456 13.3334 8.00004 13.3334Z" fill="white" fill-opacity="0.7"/>
</svg>
