<svg width="24" height="24" viewBox="0 0 24 24" fill="none" xmlns="http://www.w3.org/2000/svg">
    <path d="M6.5 13.5625H3.0625C1.89375 13.5625 1 14.4562 1 15.625V19.0625C1 20.2312 1.89375 21.125 3.0625 21.125H6.5C7.66875 21.125 8.5625 20.2312 8.5625 19.0625V15.625C8.5625 14.4562 7.66875 13.5625 6.5 13.5625Z" fill="url(#paint0_linear_16371_225999)"/>
    <path d="M11.5188 13.6313C11.2438 13.5625 10.9 13.6312 10.7625 13.8375L9.3875 15.625C9.31875 15.7625 9.25 15.9 9.25 16.0375V18.7188C9.25 18.8563 9.31875 18.9938 9.3875 19.1313L10.7625 20.9188C10.9 21.0563 11.1063 21.1938 11.3125 21.1938C11.3812 21.1938 11.45 21.1938 11.5188 21.125C11.7938 21.0563 12 20.7813 12 20.5063V14.3188C12 13.975 11.7938 13.7 11.5188 13.6313Z" fill="url(#paint1_linear_16371_225999)"/>
    <path d="M20.9375 6H14.8188L13.2375 3.59375C13.1687 3.3875 12.8938 3.25 12.6875 3.25H5.8125C4.64375 3.25 3.75 4.14375 3.75 5.3125V12.1875H6.5C7.6 12.1875 8.63125 12.7375 9.25 13.5625L9.73125 13.0125C10.2812 12.325 11.175 12.05 12 12.325C12.825 12.6 13.375 13.425 13.375 14.25V19.75H20.9375C22.1063 19.75 23 18.8562 23 17.6875V8.0625C23 6.89375 22.1063 6 20.9375 6ZM21.625 16.725L15.7125 7.375H20.9375C21.35 7.375 21.625 7.65 21.625 8.0625V16.725Z" fill="url(#paint2_linear_16371_225999)"/>
    <defs>
        <linearGradient id="paint0_linear_16371_225999" x1="4.78125" y1="13.5625" x2="4.78125" y2="21.125" gradientUnits="userSpaceOnUse">
            <stop stop-color="#176984"/>
            <stop offset="1" stop-color="#64CCC5"/>
        </linearGradient>
        <linearGradient id="paint1_linear_16371_225999" x1="10.625" y1="13.6055" x2="10.625" y2="21.1938" gradientUnits="userSpaceOnUse">
            <stop stop-color="#176984"/>
            <stop offset="1" stop-color="#64CCC5"/>
        </linearGradient>
        <linearGradient id="paint2_linear_16371_225999" x1="13.375" y1="3.25" x2="13.375" y2="19.75" gradientUnits="userSpaceOnUse">
            <stop stop-color="#176984"/>
            <stop offset="1" stop-color="#64CCC5"/>
        </linearGradient>
    </defs>
</svg>
