<svg width="16" height="16" viewBox="0 0 16 16" fill="none" xmlns="http://www.w3.org/2000/svg">
<path d="M8.00003 2.66667C8.36822 2.66667 8.66669 2.96515 8.66669 3.33334L8.66668 8.39052L9.5286 7.5286C9.78895 7.26825 10.2111 7.26825 10.4714 7.5286C10.7318 7.78895 10.7318 8.21106 10.4714 8.47141L8.47376 10.4691C8.46617 10.4767 8.4584 10.4842 8.45045 10.4915C8.39355 10.5437 8.32978 10.5843 8.26221 10.6131C8.18173 10.6476 8.0931 10.6667 8.00001 10.6667C7.91065 10.6667 7.8254 10.6491 7.74752 10.6172C7.70797 10.601 7.66965 10.5809 7.63318 10.5568C7.59621 10.5324 7.56114 10.504 7.5286 10.4714L5.5286 8.47141C5.26825 8.21106 5.26825 7.78895 5.5286 7.5286C5.78894 7.26825 6.21106 7.26825 6.47141 7.5286L7.33335 8.39054L7.33336 3.33334C7.33336 2.96515 7.63184 2.66667 8.00003 2.66667Z" fill="#414141"/>
<path d="M14 10C14 9.63182 13.7015 9.33334 13.3333 9.33334C12.9651 9.33334 12.6667 9.63182 12.6667 10V11.3333C12.6667 11.7015 12.3682 12 12 12L4 12C3.63181 12 3.33333 11.7015 3.33333 11.3333L3.33333 10C3.33333 9.63182 3.03486 9.33334 2.66667 9.33334C2.29848 9.33334 2 9.63182 2 10V11.3333C2 12.4379 2.89543 13.3333 4 13.3333L12 13.3333C13.1046 13.3333 14 12.4379 14 11.3333V10Z" fill="#414141"/>
</svg>
