<svg width="20" height="20" viewBox="0 0 20 20" fill="none" xmlns="http://www.w3.org/2000/svg">
<path d="M4.87561 12.1146C4.87561 13.0445 4.12404 13.7961 3.19409 13.7961C2.26414 13.7961 1.51257 13.0445 1.51257 12.1146C1.51257 11.1847 2.26414 10.4331 3.19415 10.4331H4.87555V12.1146L4.87561 12.1146ZM5.7164 12.1146C5.7164 11.1847 6.46797 10.4331 7.39792 10.4331C8.32787 10.4331 9.07944 11.1847 9.07944 12.1146V16.3184C9.07944 17.2483 8.32787 18 7.39786 18C6.46803 18 5.7164 17.2483 5.7164 16.3184V12.1146V12.1146Z" fill="#E01E5A"/>
<path d="M7.39795 5.36304C6.468 5.36304 5.71637 4.61147 5.71637 3.68152C5.71637 2.75157 6.46807 2 7.39795 2C8.32784 2 9.07947 2.75157 9.07947 3.68152V5.3631H7.39789L7.39795 5.36304ZM7.39795 6.21656C8.3279 6.21656 9.07947 6.96813 9.07947 7.89808C9.07947 8.82802 8.3279 9.57959 7.39789 9.57959H3.18146C2.25145 9.57959 1.49988 8.82802 1.49988 7.89801C1.49988 6.96819 2.25145 6.21656 3.1814 6.21656H7.39789H7.39795Z" fill="#36C5F0"/>
<path d="M14.1368 7.89808C14.1368 6.96813 14.8884 6.21649 15.8183 6.21649C16.7482 6.21649 17.4998 6.96813 17.4998 7.89808C17.4998 8.82802 16.7482 9.57959 15.8183 9.57959H14.1368V7.89801V7.89808ZM13.296 7.89808C13.296 8.82802 12.5444 9.57959 11.6144 9.57959C10.6846 9.57959 9.93298 8.82802 9.93298 7.89801V3.68158C9.93298 2.75157 10.6846 2 11.6144 2C12.5443 2 13.296 2.75157 13.296 3.68152V7.89801L13.296 7.89808Z" fill="#2EB67D"/>
<path d="M11.6144 14.6369C12.5444 14.6369 13.296 15.3885 13.296 16.3184C13.296 17.2483 12.5444 18 11.6144 18C10.6846 18 9.93298 17.2483 9.93298 16.3184V14.6369H11.6145H11.6144ZM11.6144 13.7961C10.6846 13.7961 9.93298 13.0445 9.93298 12.1146C9.93298 11.1847 10.6846 10.4331 11.6145 10.4331H15.831C16.7609 10.4331 17.5126 11.1847 17.5126 12.1146C17.5126 13.0445 16.7609 13.7961 15.831 13.7961H11.6145H11.6144Z" fill="#ECB22E"/>
</svg>
