<svg width="20" height="20" viewBox="0 0 20 20" fill="none" xmlns="http://www.w3.org/2000/svg">
    <rect width="20" height="20" rx="10" fill="#14B8A6"/>
    <path d="M11.1112 5.22157C11.1112 4.91475 10.8625 4.66602 10.5557 4.66602C10.2489 4.66602 10.0001 4.91475 10.0001 5.22157L10.0001 15.2216C10.0001 15.5284 10.2489 15.7771 10.5557 15.7771C10.8625 15.7771 11.1112 15.5284 11.1112 15.2216V5.22157Z" fill="white"/>
    <path d="M8.88902 5.77713H6.11125C5.19077 5.77713 4.44458 6.52332 4.44458 7.44379V12.9993C4.44458 13.9198 5.19077 14.666 6.11125 14.666H8.88902C9.19585 14.666 9.44458 14.4173 9.44458 14.1105C9.44458 13.8036 9.19585 13.5549 8.88902 13.5549H6.11125C5.80442 13.5549 5.55569 13.3062 5.55569 12.9993V7.44379C5.55569 7.13697 5.80442 6.88824 6.11125 6.88824H8.88902C9.19585 6.88824 9.44458 6.63951 9.44458 6.33268C9.44458 6.02586 9.19585 5.77713 8.88902 5.77713Z" fill="white"/>
    <path d="M13.889 13.5549H12.2224C11.9155 13.5549 11.6668 13.8036 11.6668 14.1105C11.6668 14.4173 11.9155 14.666 12.2224 14.666H13.889C14.8095 14.666 15.5557 13.9198 15.5557 12.9993V7.44379C15.5557 6.52332 14.8095 5.77713 13.889 5.77713H12.2224C11.9155 5.77713 11.6668 6.02586 11.6668 6.33268C11.6668 6.63951 11.9155 6.88824 12.2224 6.88824H13.889C14.1958 6.88824 14.4446 7.13697 14.4446 7.44379V12.9993C14.4446 13.3062 14.1958 13.5549 13.889 13.5549Z" fill="white"/>
    <path d="M12.2224 7.99935C11.9155 7.99935 11.6668 8.24808 11.6668 8.5549C11.6668 8.86173 11.9155 9.11046 12.2224 9.11046H13.3335C13.6403 9.11046 13.889 8.86173 13.889 8.5549C13.889 8.24808 13.6403 7.99935 13.3335 7.99935H12.2224Z" fill="white"/>
    <path d="M11.6668 11.8882C11.6668 11.5814 11.9155 11.3327 12.2224 11.3327H13.3335C13.6403 11.3327 13.889 11.5814 13.889 11.8882C13.889 12.1951 13.6403 12.4438 13.3335 12.4438H12.2224C11.9155 12.4438 11.6668 12.1951 11.6668 11.8882Z" fill="white"/>
    <path d="M12.2224 9.66602C11.9155 9.66602 11.6668 9.91475 11.6668 10.2216C11.6668 10.5284 11.9155 10.7771 12.2224 10.7771H13.3335C13.6403 10.7771 13.889 10.5284 13.889 10.2216C13.889 9.91475 13.6403 9.66602 13.3335 9.66602H12.2224Z" fill="white"/>
    <path d="M8.83325 10.045C9.05547 10.1733 9.05547 10.494 8.83325 10.6223L7.33325 11.4884C7.11103 11.6167 6.83325 11.4563 6.83325 11.1997V9.46763C6.83325 9.21103 7.11103 9.05066 7.33325 9.17896L8.83325 10.045Z" fill="white"/>
</svg>
