<svg width="24px" height="24px"  viewBox="0 0 20 16" fill="none" xmlns="http://www.w3.org/2000/svg">
<path d="M3 0C1.34315 0 0 1.34315 0 3V13C0 14.6569 1.34315 16 3 16H17C18.6569 16 20 14.6569 20 13V3C20 1.34315 18.6569 0 17 0H3ZM2 3C2 2.44772 2.44772 2 3 2H17C17.5523 2 18 2.44772 18 3V13C18 13.5523 17.5523 14 17 14H3C2.44772 14 2 13.5523 2 13V3ZM8.75725 5.45435C8.42399 5.25439 8 5.49445 8 5.8831V10.1169C8 10.5056 8.42399 10.7456 8.75725 10.5457L12.2854 8.42875C12.6091 8.23454 12.6091 7.76545 12.2854 7.57125L8.75725 5.45435Z" fill="black" fill-opacity="0.6"/>
</svg>
