<svg width="24" height="24" viewBox="0 0 24 24" fill="none" xmlns="http://www.w3.org/2000/svg">
<path d="M16.9378 16C17.8131 16 18.266 14.955 17.6675 14.3163L14.8503 11.3093C14.4551 10.8876 13.7859 10.8876 13.3907 11.3093L11.4709 13.3584C11.0826 13.7729 10.4274 13.7811 10.0288 13.3765L9.40691 12.7452C9.01521 12.3476 8.37385 12.3476 7.98215 12.7452L6.45227 14.2982C5.82957 14.9303 6.27735 16 7.16465 16L16.9378 16Z" fill="black" fill-opacity="0.54"/>
<path d="M7.5 11C8.32843 11 9 10.3284 9 9.49999C9 8.67157 8.32843 7.99999 7.5 7.99999C6.67158 7.99999 6 8.67157 6 9.49999C6 10.3284 6.67158 11 7.5 11Z" fill="black" fill-opacity="0.54"/>
<path d="M8.69874 3.99994C9.1337 3.99951 9.51613 3.99913 9.88133 4.09141C10.3438 4.20826 10.7717 4.43368 11.1296 4.74898C11.4122 4.99798 11.6282 5.3136 11.8738 5.67256L11.9247 5.74697C12.2506 6.22214 12.3212 6.3125 12.3926 6.37533C12.5119 6.48043 12.6545 6.55557 12.8086 6.59452C12.9008 6.61781 13.0153 6.62499 13.5914 6.62499L17.8385 6.62499C18.3657 6.62498 18.8205 6.62496 19.195 6.65556C19.5904 6.68786 19.9836 6.75918 20.362 6.95197C20.9265 7.23959 21.3854 7.69854 21.673 8.26302C21.8658 8.6414 21.9371 9.03462 21.9694 9.42997C22 9.80455 22 10.2593 22 10.7865V15.8385C22 16.3656 22 16.8204 21.9694 17.195C21.9371 17.5904 21.8658 17.9836 21.673 18.362C21.3854 18.9265 20.9265 19.3854 20.362 19.673C19.9836 19.8658 19.5904 19.9371 19.195 19.9694C18.8205 20 18.3658 20 17.8387 20H6.16148C5.63438 20 5.17952 20 4.80497 19.9694C4.40963 19.9371 4.01641 19.8658 3.63803 19.673C3.07354 19.3854 2.6146 18.9265 2.32698 18.362C2.13419 17.9836 2.06287 17.5904 2.03057 17.195C1.99997 16.8205 1.99998 16.3657 2 15.8386V8.16145C1.99998 7.63432 1.99997 7.17953 2.03057 6.80497C2.06287 6.40962 2.13419 6.0164 2.32698 5.63802C2.6146 5.07354 3.07354 4.61459 3.63803 4.32697C4.01641 4.13418 4.40963 4.06286 4.80497 4.03056C5.17955 3.99996 5.63431 3.99998 6.16145 3.99999L8.69874 3.99994ZM9.39137 6.03047C9.29922 6.00718 9.18473 5.99999 8.60857 5.99999H6.2C5.62345 5.99999 5.25118 6.00077 4.96784 6.02392C4.69618 6.04612 4.59546 6.08379 4.54601 6.10899C4.35785 6.20486 4.20487 6.35784 4.109 6.546C4.0838 6.59545 4.04613 6.69617 4.02393 6.96783C4.00078 7.25117 4 7.62344 4 8.19999V15.8C4 16.3765 4.00078 16.7488 4.02393 17.0322C4.04613 17.3038 4.0838 17.4045 4.109 17.454C4.20487 17.6421 4.35785 17.7951 4.54601 17.891C4.59546 17.9162 4.69618 17.9539 4.96784 17.9761C5.25118 17.9992 5.62345 18 6.2 18H17.8C18.3766 18 18.7488 17.9992 19.0322 17.9761C19.3038 17.9539 19.4045 17.9162 19.454 17.891C19.6422 17.7951 19.7951 17.6421 19.891 17.454C19.9162 17.4045 19.9539 17.3038 19.9761 17.0322C19.9992 16.7488 20 16.3765 20 15.8V10.825C20 10.2484 19.9992 9.87617 19.9761 9.59283C19.9539 9.32117 19.9162 9.22045 19.891 9.171C19.7951 8.98284 19.6422 8.82986 19.454 8.73399C19.4045 8.70879 19.3038 8.67112 19.0322 8.64892C18.7488 8.62577 18.3766 8.62499 17.8 8.62499L13.5013 8.62505C13.0663 8.62548 12.6839 8.62586 12.3187 8.53358C11.8562 8.41673 11.4283 8.19131 11.0705 7.87601C10.7878 7.627 10.5718 7.31139 10.3262 6.95242L10.2753 6.87802C9.94944 6.40285 9.87877 6.31249 9.80745 6.24966C9.68815 6.14456 9.54552 6.06942 9.39137 6.03047Z" fill="black" fill-opacity="0.54"/>
</svg>
