<svg width="1347" height="190" viewBox="0 0 1347 190" fill="none" xmlns="http://www.w3.org/2000/svg">
<path fill-rule="evenodd" clip-rule="evenodd" d="M47.5 7.34091C47.5 11.06 44.4619 14.25 40.6107 14.25H14.25V40.7143C14.25 44.4619 11.06 47.5 7.125 47.5C3.18997 47.5 0 44.4619 0 40.7143V7.34091V6.78571C0 4.6239 1.06147 2.69819 2.71512 1.45555C3.86749 0.536417 5.31003 0 6.88931 0H7.125H40.6107C44.4619 0 47.5 3.18997 47.5 7.34091ZM190.006 40.7143C190.006 44.4619 186.816 47.5 182.881 47.5C178.946 47.5 175.756 44.4619 175.756 40.7143V14.25H149.424C145.572 14.25 142.534 11.06 142.534 7.34091C142.534 3.18997 145.572 0 149.424 0H182.881H183.145C184.941 0 186.56 0.693653 187.776 1.85494C189.115 3.06056 189.963 4.75514 190.005 6.63855C190.024 6.86927 190.034 7.10348 190.034 7.34091C190.034 7.54755 190.025 7.75256 190.006 7.95548V40.7143ZM40.6107 175.75C44.4619 175.75 47.5 178.94 47.5 182.659C47.5 186.81 44.4619 190 40.6107 190H7.125H6.88931C5.31004 190 3.86751 189.463 2.71514 188.544C1.06148 187.302 0 185.376 0 183.214V182.659V149.286C0 145.538 3.18997 142.5 7.125 142.5C11.06 142.5 14.25 145.538 14.25 149.286V175.75H40.6107ZM7.12505 71.2499C11.0601 71.2499 14.25 74.288 14.25 78.0356V111.964C14.25 115.712 11.0601 118.75 7.12505 118.75C3.19002 118.75 4.7643e-05 115.712 4.7643e-05 111.964V78.0356C4.7643e-05 74.288 3.19002 71.2499 7.12505 71.2499ZM190 78.0356C190 74.288 186.81 71.2499 182.875 71.2499C178.94 71.2499 175.75 74.288 175.75 78.0356V111.964C175.75 115.712 178.94 118.75 182.875 118.75C186.81 118.75 190 115.712 190 111.964V78.0356ZM118.75 182.875C118.75 186.81 115.56 190 111.625 190H73.6251C69.69 190 66.5001 186.81 66.5001 182.875C66.5001 178.94 69.69 175.75 73.6251 175.75H111.625C115.56 175.75 118.75 178.94 118.75 182.875ZM111.625 14.25C115.56 14.25 118.75 11.06 118.75 7.125C118.75 3.18997 115.56 0 111.625 0H73.6251C69.69 0 66.5001 3.18997 66.5001 7.125C66.5001 11.06 69.69 14.25 73.6251 14.25H111.625ZM152 180.101C152 185.568 156.253 190 161.5 190C166.747 190 171 185.568 171 180.101V171H180.101C185.568 171 190 166.747 190 161.5C190 156.253 185.568 152 180.101 152H171V142.899C171 137.432 166.747 133 161.5 133C156.253 133 152 137.432 152 142.899V152H142.899C137.432 152 133 156.253 133 161.5C133 166.747 137.432 171 142.899 171H152V180.101Z" fill="#161616"/>
<path fill-rule="evenodd" clip-rule="evenodd" d="M71.4628 70.9317C71.693 71.3757 71.9281 71.8442 72.1673 72.3365C75.0329 78.2347 77.4098 84.7047 82.6252 100.116L82.6682 100.243C87.9888 115.965 90.3845 122.535 93.6137 129.412C95.863 134.203 98.1056 138 100.589 140.942C104.321 145.364 108.796 148.122 114.318 148.122C121.505 148.122 127.622 145.062 131.89 139.557C135.24 135.235 137.274 129.711 138.377 123.068C140.025 113.143 139.614 100.676 137.697 85.5326C135.532 68.4241 131.993 54.5479 126.951 43.8275C124.522 38.6628 118.366 36.4452 113.201 38.8743C108.037 41.3034 105.819 47.4593 108.248 52.624C112.253 61.1397 115.278 72.9997 117.193 88.1277C118.878 101.443 119.232 112.188 117.988 119.683C117.427 123.061 116.585 125.437 115.691 126.709C114.71 125.32 113.565 123.274 112.322 120.628C109.555 114.735 107.288 108.517 102.246 93.6178L102.203 93.4907C96.6729 77.15 94.1564 70.3004 90.7576 63.3046C88.3457 58.3403 85.9196 54.4877 83.1483 51.5999C78.8326 47.1028 73.4213 44.7526 67.338 46.0974C60.8988 47.5208 56.3005 52.1264 53.5653 58.6861C51.4853 63.6745 50.3532 70.0332 49.9755 77.9278C49.2836 92.3916 51.1306 112.82 55.4653 139.448C56.3823 145.082 61.6923 148.905 67.3255 147.988C72.9587 147.071 76.782 141.761 75.865 136.128C71.7422 110.801 70.0109 91.6517 70.6201 78.9154C70.7705 75.7718 71.0622 73.1013 71.4628 70.9317Z" fill="#00A1B7"/>
<path fill-rule="evenodd" clip-rule="evenodd" d="M578.268 76.4469C588.629 76.4469 597.608 80.4186 605.207 88.362C612.805 96.3055 616.604 105.936 616.604 117.253C616.604 128.571 612.791 138.201 605.167 146.145C597.542 154.088 588.576 158.06 578.268 158.06C575.345 158.06 572.49 157.715 569.7 157.024C566.911 156.333 564.533 155.47 562.567 154.434C560.601 153.397 558.861 152.335 557.347 151.245C555.832 150.156 554.756 149.293 554.119 148.655L552.923 147.46V156.466H536.664V42.1758H552.923V87.1267C553.667 86.3828 554.73 85.3999 556.111 84.1779C557.493 82.9558 560.388 81.3618 564.798 79.3959C569.208 77.4299 573.698 76.4469 578.268 76.4469ZM338.467 42.1759H320.535V124.666L256.854 42.1759H241.393V156.466H259.325V74.056L323.006 156.466H338.467V42.1759ZM378.684 156.466V78.1206H362.345V156.466H378.684ZM380.357 53.6526C380.357 56.4686 379.427 58.8065 377.568 60.6661C375.708 62.5258 373.37 63.4556 370.554 63.4556C367.738 63.4556 365.4 62.5258 363.541 60.6661C361.681 58.8065 360.751 56.4686 360.751 53.6526C360.751 50.8365 361.681 48.4987 363.541 46.639C365.4 44.7794 367.738 43.8495 370.554 43.8495C373.37 43.8495 375.708 44.7794 377.568 46.639C379.427 48.4987 380.357 50.8365 380.357 53.6526ZM499.715 110.798L499.716 156.466H516.054V110.798C516.054 99.5865 513.437 91.0586 508.204 85.214C502.97 79.3693 495.784 76.4469 486.645 76.4469C483.297 76.4469 480.069 76.9118 476.961 77.8417C473.853 78.7716 471.342 79.8077 469.429 80.95C467.517 82.0923 465.723 83.4339 464.05 84.9748C462.376 86.5156 461.287 87.5783 460.782 88.1627C460.277 88.7472 459.919 89.1988 459.706 89.5176L458.909 88.2424C458.378 87.3923 457.488 86.303 456.239 84.9746C454.99 83.6463 453.516 82.3312 451.816 81.0295C450.115 79.7277 447.844 78.6385 445.001 77.7618C442.159 76.8851 439.17 76.4467 436.035 76.4467C432.103 76.4467 428.317 77.35 424.678 79.1565C421.038 80.9631 418.647 82.411 417.505 83.5003C416.362 84.5895 415.472 85.5061 414.835 86.2499V78.1205H398.496V156.466L414.835 156.466V114.065C414.835 106.945 416.548 101.353 419.975 97.2884C423.403 93.2237 427.666 91.1913 432.767 91.1913C437.762 91.1913 441.734 92.8517 444.682 96.1726C447.631 99.4934 449.106 104.368 449.106 110.798V156.466H465.444V114.065C465.444 106.945 467.158 101.353 470.585 97.2885C474.012 93.2238 478.276 91.1914 483.377 91.1914C488.371 91.1914 492.343 92.8518 495.292 96.1727C498.241 99.4935 499.715 104.369 499.715 110.798ZM593.092 135.744C588.31 140.845 582.824 143.395 576.634 143.395C570.444 143.395 564.944 140.845 560.136 135.744C555.327 130.643 552.923 124.493 552.923 117.293C552.923 110.094 555.327 103.944 560.136 98.8427C564.944 93.7419 570.444 91.1915 576.634 91.1915C582.824 91.1915 588.31 93.7419 593.092 98.8427C597.874 103.944 600.265 110.094 600.265 117.293C600.265 124.493 597.874 130.643 593.092 135.744ZM686.149 156.466L686.149 148.336L685.113 149.372C684.635 149.851 683.639 150.634 682.125 151.724C680.61 152.813 678.976 153.796 677.223 154.672C675.47 155.549 673.264 156.333 670.608 157.024C667.951 157.714 665.241 158.06 662.478 158.06C653.021 158.06 645.356 154.965 639.485 148.775C633.614 142.585 630.678 134.256 630.678 123.789V78.1205H647.016V123.789C647.016 129.421 648.81 134.097 652.396 137.816C655.983 141.535 660.433 143.395 665.746 143.395C671.963 143.395 676.917 141.389 680.61 137.378C684.303 133.366 686.149 127.747 686.149 120.521V78.1205L702.488 78.1205V156.466H686.149ZM761.513 97.7267L772.113 87.1267L771.077 85.9312C770.44 85.2936 769.417 84.4302 768.009 83.341C766.601 82.2517 764.967 81.1891 763.107 80.153C761.247 79.1169 758.843 78.2402 755.894 77.5229C752.945 76.8056 749.903 76.4469 746.769 76.4469C738.852 76.4469 732.25 78.7582 726.963 83.3808C721.676 88.0034 719.033 93.3168 719.033 99.3209C719.033 103.678 720.016 107.41 721.982 110.519C723.948 113.627 726.432 115.912 729.434 117.373C732.436 118.834 735.651 120.162 739.078 121.358C742.505 122.553 745.706 123.563 748.681 124.387C751.657 125.21 754.128 126.379 756.094 127.893C758.06 129.408 759.043 131.307 759.043 133.592C759.043 136.567 757.953 138.945 755.775 140.725C753.596 142.505 750.329 143.395 745.972 143.395C742.359 143.395 738.839 142.505 735.411 140.725C731.984 138.945 729.753 137.497 728.717 136.381C727.681 135.266 726.897 134.336 726.365 133.592L715.765 144.192L716.961 145.706C717.705 146.663 718.913 147.818 720.587 149.173C722.261 150.528 724.214 151.87 726.445 153.198C728.677 154.526 731.533 155.669 735.013 156.625C738.493 157.582 742.146 158.06 745.972 158.06C754.686 158.06 761.766 155.669 767.212 150.887C772.658 146.105 775.381 140.34 775.381 133.592C775.381 129.235 774.398 125.516 772.432 122.434C770.466 119.352 767.982 117.067 764.98 115.579C761.978 114.092 758.763 112.75 755.336 111.555C751.909 110.359 748.708 109.363 745.732 108.566C742.757 107.769 740.286 106.6 738.32 105.059C736.354 103.518 735.371 101.605 735.371 99.3206C735.371 97.1422 736.394 95.2427 738.44 93.6221C740.486 92.0016 743.262 91.1913 746.769 91.1913C749.372 91.1913 751.962 91.789 754.539 92.9845C757.116 94.18 758.816 95.163 759.64 95.9334C760.464 96.7039 761.088 97.3017 761.513 97.7267Z" fill="#161616"/>
<path fill-rule="evenodd" clip-rule="evenodd" d="M1079.87 50.9077V67.2463C1079.87 73.7817 1077.16 77.0494 1071.74 77.0494H1063.53V91.7142H1078.28V132.521C1078.22 148.833 1085.82 156.989 1101.07 156.989C1105.48 156.989 1109.31 156.457 1112.55 155.395V140.73L1111.35 141.049C1110.61 141.367 1109.56 141.66 1108.21 141.925C1106.85 142.191 1105.56 142.324 1104.34 142.324C1101.52 142.324 1099.19 141.394 1097.33 139.534C1095.47 137.675 1094.54 135.284 1094.54 132.361V91.7142H1110.88V77.0494H1094.54V50.9077H1079.87ZM940.78 155.395L957.119 155.395V104.785C957.119 96.4962 954.064 89.5224 947.953 83.8637C941.843 78.205 934.006 75.3757 924.442 75.3757C920.616 75.3757 916.91 75.8937 913.324 76.9298C909.737 77.9659 906.855 79.1481 904.676 80.4765C902.498 81.8048 900.439 83.3058 898.499 84.9795C896.56 86.6532 895.311 87.8222 894.754 88.4863C894.196 89.1505 893.757 89.6951 893.438 90.1201L904.039 100.72L906.191 97.9307C907.466 96.1773 909.79 94.4372 913.164 92.7104C916.538 90.9835 920.297 90.1201 924.442 90.1201C929.224 90.1201 933.142 91.5282 936.198 94.3442C939.253 97.1603 940.78 100.641 940.78 104.785L912.168 109.726C905.101 110.895 899.536 113.658 895.471 118.015C891.406 122.372 889.374 127.765 889.374 134.194C889.374 140.145 892.004 145.432 897.264 150.055C902.524 154.677 909.139 156.989 917.109 156.989C919.819 156.989 922.503 156.643 925.159 155.953C927.816 155.262 930.021 154.478 931.774 153.601C933.528 152.725 935.162 151.742 936.676 150.653C938.19 149.563 939.2 148.78 939.704 148.301C940.209 147.823 940.568 147.478 940.78 147.265V155.395ZM820.585 87.57C812.482 95.6994 808.431 105.25 808.431 116.222C808.431 127.194 812.482 136.732 820.585 144.834C828.688 152.937 838.239 156.989 849.237 156.989C853.01 156.989 856.756 156.391 860.475 155.195C864.194 154 867.223 152.698 869.561 151.29C871.899 149.882 874.13 148.262 876.256 146.428C878.381 144.595 879.762 143.294 880.4 142.523C881.038 141.753 881.516 141.155 881.835 140.73L871.234 130.13L868.764 133.158C867.17 135.124 864.553 137.143 860.913 139.216C857.274 141.288 853.382 142.324 849.237 142.324C842.596 142.324 836.844 139.8 831.982 134.752C827.12 129.705 824.69 123.528 824.69 116.222C824.69 108.916 827.12 102.739 831.982 97.6917C836.844 92.6441 842.596 90.1202 849.237 90.1202C853.382 90.1202 857.274 91.1829 860.913 93.3082C864.553 95.4336 866.917 97.1206 868.007 98.3693C869.096 99.6179 869.906 100.667 870.438 101.518L881.038 90.9174L877.611 87.1715C875.326 84.5679 871.553 81.9511 866.293 79.321C861.033 76.6909 855.348 75.3759 849.237 75.3759C838.239 75.3759 828.688 79.4406 820.585 87.57ZM919.58 142.324C926.222 142.324 931.416 140.345 935.162 136.386C938.907 132.428 940.78 126.782 940.78 119.45V117.856L915.436 121.921C912.513 122.452 910.149 123.648 908.342 125.507C906.536 127.367 905.632 129.705 905.632 132.521C905.632 135.124 906.894 137.409 909.418 139.375C911.942 141.341 915.329 142.324 919.58 142.324ZM1009.13 155.952C1011.89 156.643 1014.74 156.989 1017.66 156.989C1028.02 156.989 1037.01 153.017 1044.64 145.073C1052.26 137.13 1056.07 127.5 1056.07 116.182C1056.07 104.865 1052.26 95.2343 1044.64 87.2908C1037.01 79.3474 1028.02 75.3757 1017.66 75.3757C1013.09 75.3757 1008.6 76.3586 1004.19 78.3246C999.779 80.2905 996.897 81.8845 995.542 83.1066C994.187 84.3286 993.137 85.3116 992.394 86.0554V77.0493H976.055V189.666H992.394V146.388L993.509 147.584C994.2 148.222 995.303 149.085 996.817 150.174C998.331 151.263 1000.07 152.326 1002.04 153.362C1004 154.398 1006.37 155.262 1009.13 155.952ZM1016.06 90.1202C1009.85 90.1202 1004.35 92.6706 999.567 97.7714C994.785 102.872 992.394 109.022 992.394 116.222C992.394 123.422 994.785 129.572 999.567 134.673C1004.35 139.773 1009.85 142.324 1016.06 142.324C1022.28 142.324 1027.78 139.773 1032.56 134.673C1037.34 129.572 1039.74 123.422 1039.74 116.222C1039.74 109.022 1037.34 102.872 1032.56 97.7714C1027.78 92.6706 1022.28 90.1202 1016.06 90.1202ZM1183.69 155.395L1183.69 147.265L1182.65 148.301C1182.17 148.779 1181.18 149.563 1179.66 150.652C1178.15 151.742 1176.52 152.725 1174.76 153.601C1173.01 154.478 1170.8 155.262 1168.15 155.952C1165.49 156.643 1162.78 156.988 1160.02 156.988C1150.56 156.988 1142.9 153.893 1137.02 147.703C1131.15 141.513 1128.22 133.185 1128.22 122.717V77.0492H1144.56V122.717C1144.56 128.35 1146.35 133.025 1149.94 136.745C1153.52 140.464 1157.97 142.324 1163.29 142.324C1169.5 142.324 1174.46 140.318 1178.15 136.306C1181.84 132.295 1183.69 126.676 1183.69 119.45V77.0493L1200.03 77.0492V155.395H1183.69ZM1256.58 90.1202C1259.29 90.1202 1261.74 90.3858 1263.91 90.9172V75.3757H1259.85C1257.14 75.3757 1254.44 75.7343 1251.76 76.4516C1249.08 77.1689 1246.87 77.9659 1245.14 78.8426C1243.42 79.7193 1241.78 80.7023 1240.24 81.7915C1238.7 82.8808 1237.69 83.6645 1237.21 84.1427L1236.18 85.1788V77.0494H1219.84V155.395H1236.18V112.994C1236.18 105.768 1238.02 100.149 1241.72 96.1375C1245.41 92.126 1250.37 90.1202 1256.58 90.1202ZM1345.65 121.921L1284.44 121.92C1285.29 127.446 1288.02 132.228 1292.61 136.266C1297.21 140.305 1302.67 142.324 1308.99 142.324C1313.56 142.324 1317.83 141.288 1321.78 139.215C1325.74 137.143 1328.54 135.124 1330.19 133.158L1332.66 130.13L1343.26 140.73C1342.94 141.155 1342.45 141.752 1341.79 142.523C1341.12 143.293 1339.7 144.595 1337.52 146.428C1335.35 148.261 1333.03 149.882 1330.59 151.29C1328.15 152.698 1324.97 154 1321.07 155.195C1317.16 156.391 1313.14 156.989 1308.99 156.989C1297.89 156.989 1288.31 152.911 1280.26 144.755C1272.21 136.599 1268.19 126.809 1268.19 115.385C1268.19 104.387 1272.1 94.9686 1279.94 87.1314C1287.78 79.2943 1297.18 75.3757 1308.16 75.3757C1319.13 75.3757 1328.27 79.0286 1335.57 86.3344C1342.88 93.6403 1346.53 102.793 1346.53 113.791L1345.65 121.921ZM1293.25 94.5435C1297.26 91.0633 1302.22 89.3232 1308.12 89.3232C1314.12 89.3232 1319.11 91.0633 1323.1 94.5435C1327.08 98.0238 1329.55 102.527 1330.51 108.053H1285.16C1286.54 102.527 1289.24 98.0238 1293.25 94.5435Z" fill="#00A1B7"/>
</svg>
