<svg width="196" height="48" viewBox="0 0 196 48" fill="none" xmlns="http://www.w3.org/2000/svg">
<path d="M12.5957 13H9.05469L5.4043 5.95898H5.34277C5.36556 6.17318 5.38607 6.43066 5.4043 6.73145C5.42253 7.03223 5.43848 7.33984 5.45215 7.6543C5.46582 7.96419 5.47266 8.24447 5.47266 8.49512V13H3.08008V3.00586H6.60742L10.2441 9.95117H10.2852C10.2715 9.73242 10.2578 9.47949 10.2441 9.19238C10.2305 8.90072 10.2168 8.60677 10.2031 8.31055C10.194 8.01432 10.1895 7.75228 10.1895 7.52441V3.00586H12.5957V13Z" fill="#0CA789"/>
<rect x="0.5" y="-0.5" width="15.0238" height="14.9977" transform="matrix(1 0 0 -1 0 15.1254)" stroke="#5C6563" stroke-linecap="square" stroke-linejoin="round" stroke-dasharray="4 4"/>
<path d="M28.082 12H25.0469L21.918 5.96484H21.8652C21.8848 6.14844 21.9023 6.36914 21.918 6.62695C21.9336 6.88477 21.9473 7.14844 21.959 7.41797C21.9707 7.68359 21.9766 7.92383 21.9766 8.13867V12H19.9258V3.43359H22.9492L26.0664 9.38672H26.1016C26.0898 9.19922 26.0781 8.98242 26.0664 8.73633C26.0547 8.48633 26.043 8.23438 26.0312 7.98047C26.0234 7.72656 26.0195 7.50195 26.0195 7.30664V3.43359H28.082V12ZM32.1016 5.36133V12H29.8105V5.36133H32.1016ZM30.9648 2.68945C31.293 2.68945 31.5781 2.75781 31.8203 2.89453C32.0664 3.03125 32.1895 3.30273 32.1895 3.70898C32.1895 4.10352 32.0664 4.37109 31.8203 4.51172C31.5781 4.64844 31.293 4.7168 30.9648 4.7168C30.6289 4.7168 30.3418 4.64844 30.1035 4.51172C29.8691 4.37109 29.752 4.10352 29.752 3.70898C29.752 3.30273 29.8691 3.03125 30.1035 2.89453C30.3418 2.75781 30.6289 2.68945 30.9648 2.68945ZM41.8047 5.24414C42.5625 5.24414 43.1406 5.4375 43.5391 5.82422C43.9414 6.21094 44.1426 6.83008 44.1426 7.68164V12H41.8516V8.39062C41.8516 7.88672 41.7832 7.53711 41.6465 7.3418C41.5137 7.14258 41.3145 7.04297 41.0488 7.04297C40.6777 7.04297 40.4199 7.20508 40.2754 7.5293C40.1348 7.85352 40.0645 8.3125 40.0645 8.90625V12H37.7676V8.39062C37.7676 8.07031 37.7383 7.8125 37.6797 7.61719C37.625 7.41797 37.541 7.27344 37.4277 7.18359C37.3145 7.08984 37.1719 7.04297 37 7.04297C36.7383 7.04297 36.5332 7.12305 36.3848 7.2832C36.2402 7.43945 36.1387 7.66992 36.0801 7.97461C36.0215 8.2793 35.9922 8.65234 35.9922 9.09375V12H33.7012V5.36133H35.4297L35.7637 6.18164H35.8281C35.9453 6.00195 36.0957 5.8418 36.2793 5.70117C36.4668 5.56055 36.6875 5.44922 36.9414 5.36719C37.1992 5.28516 37.4922 5.24414 37.8203 5.24414C38.3086 5.24414 38.7109 5.32617 39.0273 5.49023C39.3438 5.6543 39.6016 5.88086 39.8008 6.16992H39.8711C40.082 5.87305 40.3535 5.64453 40.6855 5.48438C41.0176 5.32422 41.3906 5.24414 41.8047 5.24414ZM47.9922 2.88281V4.94531C47.9922 5.17969 47.9844 5.4043 47.9688 5.61914C47.9531 5.83008 47.9336 6.0293 47.9102 6.2168H47.9922C48.1641 5.94727 48.3887 5.71875 48.666 5.53125C48.9434 5.33984 49.3066 5.24414 49.7559 5.24414C50.4473 5.24414 51.0117 5.53711 51.4492 6.12305C51.8906 6.70898 52.1113 7.55664 52.1113 8.66602C52.1113 9.41992 52.0098 10.0547 51.8066 10.5703C51.6035 11.082 51.3184 11.4688 50.9512 11.7305C50.5879 11.9883 50.166 12.1172 49.6855 12.1172C49.2168 12.1172 48.8594 12.0371 48.6133 11.877C48.3711 11.7129 48.1641 11.5371 47.9922 11.3496H47.8516L47.4883 12H45.7012V2.88281H47.9922ZM48.918 7.04297C48.707 7.04297 48.5332 7.0918 48.3965 7.18945C48.2598 7.28711 48.1582 7.43945 48.0918 7.64648C48.0254 7.84961 47.9922 8.10938 47.9922 8.42578V8.74805C47.9922 9.26367 48.0605 9.64648 48.1973 9.89648C48.3379 10.1465 48.5859 10.2715 48.9414 10.2715C49.2109 10.2715 49.418 10.1328 49.5625 9.85547C49.707 9.57812 49.7793 9.17383 49.7793 8.64258C49.7793 8.11133 49.709 7.71289 49.5684 7.44727C49.4277 7.17773 49.2109 7.04297 48.918 7.04297ZM55.7148 12H53.4238V2.88281H55.7148V12ZM60.291 5.24414C60.9355 5.24414 61.4922 5.35742 61.9609 5.58398C62.4297 5.80664 62.791 6.14258 63.0449 6.5918C63.2988 7.04102 63.4258 7.60352 63.4258 8.2793V9.29883H59.3301C59.3496 9.64648 59.4785 9.93164 59.7168 10.1543C59.959 10.377 60.3145 10.4883 60.7832 10.4883C61.1973 10.4883 61.5762 10.4473 61.9199 10.3652C62.2676 10.2832 62.625 10.1562 62.9922 9.98438V11.6309C62.6719 11.7988 62.3223 11.9219 61.9434 12C61.5645 12.0781 61.0859 12.1172 60.5078 12.1172C59.8398 12.1172 59.2422 11.998 58.7148 11.7598C58.1875 11.5215 57.7715 11.1523 57.4668 10.6523C57.166 10.1523 57.0156 9.50977 57.0156 8.72461C57.0156 7.92773 57.1523 7.27344 57.4258 6.76172C57.6992 6.24609 58.082 5.86523 58.5742 5.61914C59.0664 5.36914 59.6387 5.24414 60.291 5.24414ZM60.373 6.80273C60.1035 6.80273 59.877 6.88867 59.6934 7.06055C59.5137 7.22852 59.4082 7.49414 59.377 7.85742H61.3457C61.3418 7.66211 61.3027 7.48438 61.2285 7.32422C61.1543 7.16406 61.0449 7.03711 60.9004 6.94336C60.7598 6.84961 60.584 6.80273 60.373 6.80273Z" fill="#0CA789"/>
<path d="M70.8613 12.1172C70.1895 12.1172 69.6055 11.998 69.1094 11.7598C68.6133 11.5176 68.2285 11.1465 67.9551 10.6465C67.6855 10.1426 67.5508 9.49805 67.5508 8.71289C67.5508 7.9082 67.7012 7.25 68.002 6.73828C68.3066 6.22656 68.7227 5.84961 69.25 5.60742C69.7773 5.36523 70.375 5.24414 71.043 5.24414C71.4492 5.24414 71.834 5.28906 72.1973 5.37891C72.5645 5.46875 72.9043 5.5918 73.2168 5.74805L72.543 7.44141C72.2695 7.32031 72.0137 7.22461 71.7754 7.1543C71.541 7.08008 71.2969 7.04297 71.043 7.04297C70.8125 7.04297 70.6094 7.10352 70.4336 7.22461C70.2578 7.3457 70.1211 7.5293 70.0234 7.77539C69.9258 8.01758 69.877 8.32617 69.877 8.70117C69.877 9.08398 69.9258 9.39258 70.0234 9.62695C70.125 9.86133 70.2637 10.0312 70.4395 10.1367C70.6191 10.2422 70.8242 10.2949 71.0547 10.2949C71.3867 10.2949 71.7168 10.2441 72.0449 10.1426C72.377 10.0371 72.6914 9.89258 72.9883 9.70898V11.5312C72.7148 11.7109 72.4062 11.8535 72.0625 11.959C71.7188 12.0645 71.3184 12.1172 70.8613 12.1172ZM77.5469 5.24414C78.3867 5.24414 79.043 5.45312 79.5156 5.87109C79.9883 6.28516 80.2246 6.87695 80.2246 7.64648V12H78.6367L78.1973 11.1211H78.1504C77.9629 11.3555 77.7695 11.5469 77.5703 11.6953C77.375 11.8398 77.1504 11.9453 76.8965 12.0117C76.6426 12.082 76.332 12.1172 75.9648 12.1172C75.582 12.1172 75.2383 12.0391 74.9336 11.8828C74.6289 11.7266 74.3887 11.4902 74.2129 11.1738C74.0371 10.8574 73.9492 10.457 73.9492 9.97266C73.9492 9.26172 74.1953 8.73438 74.6875 8.39062C75.1797 8.04688 75.8926 7.85352 76.8262 7.81055L77.9336 7.77539V7.68164C77.9336 7.38477 77.8594 7.17383 77.7109 7.04883C77.5664 6.92383 77.3711 6.86133 77.125 6.86133C76.8633 6.86133 76.5703 6.9082 76.2461 7.00195C75.9258 7.0918 75.6035 7.20898 75.2793 7.35352L74.6172 5.8418C75 5.64648 75.4336 5.49805 75.918 5.39648C76.4023 5.29492 76.9453 5.24414 77.5469 5.24414ZM77.9453 9.03516L77.418 9.05859C76.9961 9.07422 76.6992 9.14844 76.5273 9.28125C76.3594 9.41016 76.2754 9.5957 76.2754 9.83789C76.2754 10.0645 76.3359 10.2324 76.457 10.3418C76.5781 10.4473 76.7383 10.5 76.9375 10.5C77.2148 10.5 77.4512 10.4121 77.6465 10.2363C77.8457 10.0605 77.9453 9.83203 77.9453 9.55078V9.03516ZM85.8379 5.24414C86.5723 5.24414 87.1484 5.53906 87.5664 6.12891C87.9844 6.71484 88.1934 7.56055 88.1934 8.66602C88.1934 9.41992 88.0879 10.0547 87.877 10.5703C87.666 11.082 87.377 11.4688 87.0098 11.7305C86.6465 11.9883 86.2324 12.1172 85.7676 12.1172C85.4551 12.1172 85.1895 12.0781 84.9707 12C84.7559 11.9219 84.5762 11.8242 84.4316 11.707C84.291 11.5898 84.1719 11.4707 84.0742 11.3496H84.0039C84.0234 11.502 84.0391 11.666 84.0508 11.8418C84.0664 12.0176 84.0742 12.2227 84.0742 12.457V14.8828H81.7832V5.36133H83.6465L83.9688 6.20508H84.0742C84.1836 6.0332 84.3164 5.875 84.4727 5.73047C84.6289 5.58203 84.8184 5.46484 85.041 5.37891C85.2676 5.28906 85.5332 5.24414 85.8379 5.24414ZM84.9766 7.04297C84.7539 7.04297 84.5781 7.0957 84.4492 7.20117C84.3203 7.30664 84.2266 7.4668 84.168 7.68164C84.1133 7.89258 84.082 8.15625 84.0742 8.47266V8.6543C84.0742 9.00586 84.1016 9.30273 84.1562 9.54492C84.2109 9.7832 84.3047 9.96484 84.4375 10.0898C84.5703 10.2109 84.7539 10.2715 84.9883 10.2715C85.1797 10.2715 85.3398 10.2168 85.4688 10.1074C85.5977 9.99805 85.6953 9.82422 85.7617 9.58594C85.8281 9.34766 85.8613 9.0332 85.8613 8.64258C85.8613 8.06055 85.7852 7.64844 85.6328 7.40625C85.4844 7.16406 85.2656 7.04297 84.9766 7.04297ZM92.7578 10.3066C92.9648 10.3066 93.1543 10.2852 93.3262 10.2422C93.498 10.1992 93.6777 10.1445 93.8652 10.0781V11.748C93.6152 11.8574 93.3496 11.9453 93.0684 12.0117C92.791 12.082 92.4355 12.1172 92.002 12.1172C91.5723 12.1172 91.1934 12.0508 90.8652 11.918C90.5371 11.7812 90.2812 11.5469 90.0977 11.2148C89.918 10.8789 89.8281 10.4121 89.8281 9.81445V7.07812H89.0254V6.14648L90.0449 5.42578L90.6367 4.03125H92.1367V5.36133H93.7656V7.07812H92.1367V9.66211C92.1367 9.87695 92.1914 10.0391 92.3008 10.1484C92.4102 10.2539 92.5625 10.3066 92.7578 10.3066ZM101.482 5.36133V12H99.7539L99.4668 11.1738H99.332C99.1953 11.3965 99.0215 11.5781 98.8105 11.7188C98.6035 11.8555 98.373 11.9551 98.1191 12.0176C97.8652 12.084 97.6016 12.1172 97.3281 12.1172C96.8945 12.1172 96.502 12.0332 96.1504 11.8652C95.8027 11.6973 95.5254 11.4336 95.3184 11.0742C95.1152 10.7148 95.0137 10.252 95.0137 9.68555V5.36133H97.3047V8.98828C97.3047 9.41797 97.3652 9.74609 97.4863 9.97266C97.6113 10.1953 97.8145 10.3066 98.0957 10.3066C98.3848 10.3066 98.6074 10.2285 98.7637 10.0723C98.9238 9.91602 99.0352 9.68555 99.0977 9.38086C99.1602 9.07617 99.1914 8.70508 99.1914 8.26758V5.36133H101.482ZM107.072 5.24414C107.197 5.24414 107.328 5.25391 107.465 5.27344C107.602 5.28906 107.703 5.30273 107.77 5.31445L107.564 7.47656C107.49 7.45703 107.395 7.44141 107.277 7.42969C107.16 7.41406 106.996 7.40625 106.785 7.40625C106.641 7.40625 106.486 7.41992 106.322 7.44727C106.158 7.47461 106.002 7.5332 105.854 7.62305C105.709 7.70898 105.59 7.8418 105.496 8.02148C105.402 8.19727 105.355 8.43555 105.355 8.73633V12H103.064V5.36133H104.77L105.127 6.42188H105.238C105.359 6.20312 105.514 6.00586 105.701 5.83008C105.893 5.65039 106.105 5.50781 106.34 5.40234C106.578 5.29688 106.822 5.24414 107.072 5.24414ZM111.689 5.24414C112.334 5.24414 112.891 5.35742 113.359 5.58398C113.828 5.80664 114.189 6.14258 114.443 6.5918C114.697 7.04102 114.824 7.60352 114.824 8.2793V9.29883H110.729C110.748 9.64648 110.877 9.93164 111.115 10.1543C111.357 10.377 111.713 10.4883 112.182 10.4883C112.596 10.4883 112.975 10.4473 113.318 10.3652C113.666 10.2832 114.023 10.1562 114.391 9.98438V11.6309C114.07 11.7988 113.721 11.9219 113.342 12C112.963 12.0781 112.484 12.1172 111.906 12.1172C111.238 12.1172 110.641 11.998 110.113 11.7598C109.586 11.5215 109.17 11.1523 108.865 10.6523C108.564 10.1523 108.414 9.50977 108.414 8.72461C108.414 7.92773 108.551 7.27344 108.824 6.76172C109.098 6.24609 109.48 5.86523 109.973 5.61914C110.465 5.36914 111.037 5.24414 111.689 5.24414ZM111.771 6.80273C111.502 6.80273 111.275 6.88867 111.092 7.06055C110.912 7.22852 110.807 7.49414 110.775 7.85742H112.744C112.74 7.66211 112.701 7.48438 112.627 7.32422C112.553 7.16406 112.443 7.03711 112.299 6.94336C112.158 6.84961 111.982 6.80273 111.771 6.80273Z" fill="#5C6563"/>
</svg>
