<?xml version="1.0" encoding="UTF-8"?>
<svg width="50px" height="50px" viewBox="0 0 50 50" version="1.1" xmlns="http://www.w3.org/2000/svg" xmlns:xlink="http://www.w3.org/1999/xlink">
    <!-- Generator: Sketch 42 (36781) - http://www.bohemiancoding.com/sketch -->
    <title>large-port-forwarding</title>
    <desc>Created with Sketch.</desc>
    <defs></defs>
    <g id="v3.1" stroke="none" stroke-width="1" fill="none" fill-rule="evenodd">
        <g id="Empty-States---Port-Forwarding" transform="translate(-754.000000, -284.000000)">
            <g id="large-port-forwarding" transform="translate(754.000000, 284.000000)">
                <rect id="Rectangle-9" fill="#9EA5B3" x="0" y="0" width="50" height="50" rx="11"></rect>
                <g id="Settings-icon-Copy" transform="translate(10.000000, 13.000000)" fill-rule="nonzero" fill="#FFFFFF">
                    <g id="Layer_1">
                        <g id="Page-1">
                            <path d="M6.77823256,18.5877132 L0.645673934,18.5877132 C0.423114632,18.5877132 0.216512409,18.4681187 0.0989339092,18.2711395 C-0.0194844371,18.0741603 -0.0320821335,17.827057 0.0645002057,17.6177665 L4.582874,7.81717216 C4.69037434,7.58325936 4.91629301,7.43464562 5.16404772,7.43464562 L11.2974462,7.43464562 C11.5191656,7.43464562 11.7257678,7.55424012 11.8433464,7.75121933 C11.9617647,7.9481985 11.9752023,8.19530188 11.8786199,8.40459228 L7.35940629,18.2051867 C7.25190594,18.4390995 7.02598724,18.5877132 6.77823256,18.5877132" id="Fill-1"></path>
                            <path d="M17.1069159,24.7271327 C17.0288102,24.7271327 16.9507044,24.7121834 16.8759581,24.6822847 C16.6256839,24.5820364 16.461074,24.3314155 16.461074,24.0508961 L16.461074,18.9259195 L9.68351329,18.9259195 C9.46263369,18.9259195 9.25687132,18.8080837 9.13845297,18.6128633 C9.02003462,18.4176428 9.00491738,18.1731776 9.09814033,17.9638872 L13.617354,7.82473478 C13.7231746,7.58730448 13.950773,7.43517321 14.2018871,7.43517321 L16.138573,7.43517321 L16.138573,0.675445183 C16.138573,0.397563816 16.3015032,0.147822335 16.548418,0.0466946221 C16.7961727,-0.0544330904 17.0775213,0.0123991369 17.2580882,0.216413305 L27.6133947,11.933158 C27.8409931,12.1890551 27.8426728,12.5847722 27.6192736,12.8441868 L17.5864682,24.5037723 C17.4613311,24.6488686 17.286643,24.7271327 17.1069159,24.7271327" id="Fill-3"></path>
                        </g>
                    </g>
                </g>
            </g>
        </g>
    </g>
</svg>