<?xml version="1.0" encoding="UTF-8"?>
<svg width="50px" height="50px" viewBox="0 0 50 50" version="1.1" xmlns="http://www.w3.org/2000/svg" xmlns:xlink="http://www.w3.org/1999/xlink">
    <!-- Generator: Sketch 42 (36781) - http://www.bohemiancoding.com/sketch -->
    <title>large-snippets</title>
    <desc>Created with Sketch.</desc>
    <defs></defs>
    <g id="v3.1" stroke="none" stroke-width="1" fill="none" fill-rule="evenodd">
        <g id="Empty-States---Snippets" transform="translate(-754.000000, -274.000000)">
            <g id="large-snippets" transform="translate(754.000000, 274.000000)">
                <rect id="Rectangle-9" fill="#9EA5B3" x="0" y="0" width="50" height="50" rx="11"></rect>
                <g id="Group-2" transform="translate(12.000000, 13.000000)" fill-rule="nonzero" fill="#FFFFFF">
                    <path d="M25.50625,12.65 C25.2875,13.8458333 24.5145833,14.1083333 23.4645833,14.4291667 C20.8833333,15.0854167 22.35625,18.1625 22.00625,20.0583333 C21.372268,22.3392749 19.2530729,23.8848986 16.8875,23.7916667 C16.4009871,23.7092244 15.9821378,23.4015207 15.7580196,22.9619042 C15.5339014,22.5222878 15.5309275,22.0025691 15.75,21.5604167 C16.2166667,20.2333333 17.5583333,20.56875 18.24375,19.6208333 C18.9291667,18.6729167 18.41875,16.9958333 18.4333333,16.0041667 C18.421954,15.3602285 18.5205932,14.7190736 18.725,14.1083333 C18.8217248,13.8490094 18.9438463,13.5998816 19.0895833,13.3645833 C19.1916667,13.1895833 20.0375,12.3729167 20.0520833,12.2416667 C20.0666667,12.1104167 18.8854167,10.59375 18.76875,10.2583333 C18.5986051,9.78903984 18.4955062,9.29809263 18.4625,8.8 C18.375,7.75 18.9583333,5.75208333 18.24375,4.83333333 C17.5291667,3.91458333 16.3770833,4.26458333 15.8520833,3.06875 C15.5748669,2.56307465 15.5599344,1.95440316 15.8120209,1.43574247 C16.0641074,0.917081778 16.5519415,0.552771718 17.1208333,0.458333333 C19.3083333,0.0645833333 21.6854167,2.35416667 22.0208333,4.38125 C22.2395833,5.69375 21.7583333,7.00625 22.0208333,8.33333333 C22.2833333,9.66041667 22.6479167,9.79166667 23.8,10.0833333 C24.6815552,10.2422272 25.3693843,10.9358854 25.5208333,11.81875" id="Shape"></path>
                    <path d="M0.74375,12.65 C0.9625,13.8458333 1.73541667,14.1083333 2.78541667,14.4291667 C5.36666667,15.0854167 3.89375,18.1625 4.24375,20.0583333 C4.87773202,22.3392749 6.99692706,23.8848986 9.3625,23.7916667 C9.84901295,23.7092244 10.2678622,23.4015207 10.4919804,22.9619042 C10.7160986,22.5222878 10.7190725,22.0025691 10.5,21.5604167 C10.0333333,20.2333333 8.69166667,20.56875 8.00625,19.6208333 C7.32083333,18.6729167 7.83125,16.9958333 7.81666667,16.0041667 C7.82804602,15.3602285 7.72940681,14.7190736 7.525,14.1083333 C7.42827523,13.8490094 7.30615373,13.5998816 7.16041667,13.3645833 C7.05833333,13.1895833 6.2125,12.3729167 6.19791667,12.2416667 C6.18333333,12.1104167 7.36458333,10.59375 7.48125,10.2583333 C7.65139491,9.78903984 7.75449383,9.29809263 7.7875,8.8 C7.875,7.75 7.29166667,5.75208333 8.00625,4.83333333 C8.72083333,3.91458333 9.87291667,4.26458333 10.3979167,3.06875 C10.6751331,2.56307465 10.6900656,1.95440316 10.4379791,1.43574247 C10.1858926,0.917081778 9.69805848,0.552771718 9.12916667,0.458333333 C6.94166667,0.09375 4.56458333,2.36875 4.22916667,4.39583333 C4.01041667,5.70833333 4.49166667,7.02083333 4.22916667,8.34791667 C3.96666667,9.675 3.60208333,9.80625 2.45,10.0979167 C1.57279139,10.254887 0.886136968,10.9415414 0.729166667,11.81875" id="Shape"></path>
                </g>
            </g>
        </g>
    </g>
</svg>