<?xml version="1.0" encoding="UTF-8"?>
<svg width="12px" height="8px" viewBox="0 0 12 8" version="1.1" xmlns="http://www.w3.org/2000/svg" xmlns:xlink="http://www.w3.org/1999/xlink">
    <!-- Generator: Sketch 44 (41411) - http://www.bohemiancoding.com/sketch -->
    <title>terminal-prompt</title>
    <desc>Created with Sketch.</desc>
    <defs></defs>
    <g id="V3-assets" stroke="none" stroke-width="1" fill="none" fill-rule="evenodd">
        <g id="Assets" transform="translate(-1127.000000, -653.000000)">
            <g id="terminal-prompt" transform="translate(1127.000000, 653.000000)">
                <path d="M1.11715556,7.71368889 C0.988266667,7.71368889 0.859377778,7.66302222 0.763377778,7.56168889 C0.576711111,7.36613333 0.583822222,7.0568 0.779377778,6.87102222 L3.79271111,3.99991111 L0.779377778,1.12968889 C0.583822222,0.943022222 0.576711111,0.633688889 0.763377778,0.438133333 C0.949155556,0.242577778 1.25848889,0.234577778 1.45404444,0.421244444 L4.83893333,3.64613333 C4.93582222,3.73857778 4.99093333,3.86657778 4.99093333,3.99991111 C4.99093333,4.13413333 4.93582222,4.26213333 4.83893333,4.35368889 L1.45404444,7.57857778 C1.35982222,7.66924444 1.23804444,7.71368889 1.11715556,7.71368889" id="Fill-3" stroke="#FFFFFF" stroke-width="0.5" fill="#FFFFFF"></path>
                <path d="M10.9112889,7.71368889 L6.07484444,7.71368889 C5.82062222,7.71368889 5.6144,7.50746667 5.6144,7.25324444 C5.6144,6.99902222 5.82062222,6.7928 6.07484444,6.7928 L10.9112889,6.7928 C11.1655111,6.7928 11.3717333,6.99902222 11.3717333,7.25324444 C11.3717333,7.50746667 11.1655111,7.71368889 10.9112889,7.71368889" id="Fill-7" fill="#FFFFFF"></path>
                <path d="M10.9112889,7.71368889 L6.07484444,7.71368889 C5.82062222,7.71368889 5.6144,7.50746667 5.6144,7.25324444 C5.6144,6.99902222 5.82062222,6.7928 6.07484444,6.7928 L10.9112889,6.7928 C11.1655111,6.7928 11.3717333,6.99902222 11.3717333,7.25324444 C11.3717333,7.50746667 11.1655111,7.71368889 10.9112889,7.71368889 Z" id="Stroke-9" stroke="#FFFFFF" stroke-width="0.5"></path>
            </g>
        </g>
    </g>
</svg>