<?xml version="1.0" encoding="UTF-8"?>
<svg width="50px" height="50px" viewBox="0 0 50 50" version="1.1" xmlns="http://www.w3.org/2000/svg" xmlns:xlink="http://www.w3.org/1999/xlink">
    <!-- Generator: Sketch 42 (36781) - http://www.bohemiancoding.com/sketch -->
    <title>large-keychain</title>
    <desc>Created with Sketch.</desc>
    <defs></defs>
    <g id="v3.1" stroke="none" stroke-width="1" fill="none" fill-rule="evenodd">
        <g id="Empty-States---Preferences---Keychain" transform="translate(-256.000000, -256.000000)">
            <g id="Group" transform="translate(256.000000, 256.000000)">
                <g id="large-keychain">
                    <rect id="Rectangle-9" fill="#9EA5B3" x="0" y="0" width="50" height="50" rx="11"></rect>
                    <path d="M25.8863636,22.6666667 C24.7681818,19.3658333 21.7409091,17 18.1818182,17 C13.6681818,17 10,20.8108333 10,25.5 C10,30.1891667 13.6681818,34 18.1818182,34 C21.7409091,34 24.7681818,31.6341667 25.8863636,28.3333333 L31.8181818,28.3333333 L31.8181818,34 L37.2727273,34 L37.2727273,28.3333333 L40,28.3333333 L40,22.6666667 L25.8863636,22.6666667 Z M18.1818182,28.3333333 C16.6818182,28.3333333 15.4545455,27.0583333 15.4545455,25.5 C15.4545455,23.9416667 16.6818182,22.6666667 18.1818182,22.6666667 C19.6818182,22.6666667 20.9090909,23.9416667 20.9090909,25.5 C20.9090909,27.0583333 19.6818182,28.3333333 18.1818182,28.3333333 Z" id="Key-icon" fill="#30333C"></path>
                </g>
            </g>
        </g>
    </g>
</svg>