<?xml version="1.0" encoding="UTF-8"?>
<svg width="50px" height="50px" viewBox="0 0 50 50" version="1.1" xmlns="http://www.w3.org/2000/svg" xmlns:xlink="http://www.w3.org/1999/xlink">
    <!-- Generator: Sketch 42 (36781) - http://www.bohemiancoding.com/sketch -->
    <title>large-terminals</title>
    <desc>Created with Sketch.</desc>
    <defs></defs>
    <g id="v3.1" stroke="none" stroke-width="1" fill="none" fill-rule="evenodd">
        <g id="Empty-states---Terminals" transform="translate(-754.000000, -284.000000)">
            <g id="large-terminals" transform="translate(754.000000, 284.000000)">
                <rect id="Rectangle-9" fill="#9EA5B3" x="0" y="0" width="50" height="50" rx="11"></rect>
                <g id="Terminal-icon" transform="translate(13.500000, 16.666667)">
                    <path d="M1.32740741,16.0701852 C1.05888889,16.0701852 0.79037037,15.9646296 0.59037037,15.7535185 C0.201481481,15.3461111 0.216296296,14.7016667 0.623703704,14.3146296 L6.90148148,8.33314815 L0.623703704,2.35351852 C0.216296296,1.96462963 0.201481481,1.32018519 0.59037037,0.912777778 C0.977407407,0.50537037 1.62185185,0.488703704 2.02925926,0.877592593 L9.08111111,7.59611111 C9.28296296,7.7887037 9.39777778,8.05537037 9.39777778,8.33314815 C9.39777778,8.61277778 9.28296296,8.87944444 9.08111111,9.07018519 L2.02925926,15.7887037 C1.83296296,15.9775926 1.57925926,16.0701852 1.32740741,16.0701852" id="Fill-3" stroke="#FFFFFF" stroke-width="0.5" fill="#FFFFFF"></path>
                    <path d="M21.7318519,16.0701852 L11.6559259,16.0701852 C11.1262963,16.0701852 10.6966667,15.6405556 10.6966667,15.1109259 C10.6966667,14.5812963 11.1262963,14.1516667 11.6559259,14.1516667 L21.7318519,14.1516667 C22.2614815,14.1516667 22.6911111,14.5812963 22.6911111,15.1109259 C22.6911111,15.6405556 22.2614815,16.0701852 21.7318519,16.0701852" id="Fill-7" fill="#FFFFFF"></path>
                    <path d="M21.7318519,16.0701852 L11.6559259,16.0701852 C11.1262963,16.0701852 10.6966667,15.6405556 10.6966667,15.1109259 C10.6966667,14.5812963 11.1262963,14.1516667 11.6559259,14.1516667 L21.7318519,14.1516667 C22.2614815,14.1516667 22.6911111,14.5812963 22.6911111,15.1109259 C22.6911111,15.6405556 22.2614815,16.0701852 21.7318519,16.0701852 Z" id="Stroke-9" stroke="#FFFFFF" stroke-width="0.5"></path>
                </g>
            </g>
        </g>
    </g>
</svg>