<svg xmlns="http://www.w3.org/2000/svg" viewBox="0 0 349.17 92.57" height="20px"><path fill="#fff" d="M47.74 72.00L40.18 72.00L12.66 29.32L12.38 29.32L12.55 32.17Q12.97 38.57 12.97 43.28L12.97 72.00L7.00 72.00L7.00 20.60L14.48 20.60L16.07 23.10L32.94 49.18L41.91 63.14L42.19 63.14Q42.12 62.30 41.91 57.11Q41.70 51.93 41.70 49.61L41.70 20.60L47.74 20.60L47.74 72.00ZM94.36 52.63Q94.36 62.09 89.58 67.39Q84.80 72.70 76.36 72.70Q71.12 72.70 67.08 70.26Q63.04 67.82 60.86 63.25Q58.68 58.68 58.68 52.63Q58.68 43.21 63.39 37.95Q68.10 32.70 76.61 32.70Q84.76 32.70 89.56 38.06Q94.36 43.42 94.36 52.63M65.21 52.63Q65.21 59.91 68.08 63.69Q70.95 67.46 76.54 67.46Q82.05 67.46 84.94 63.69Q87.82 59.91 87.82 52.63Q87.82 45.35 84.92 41.68Q82.02 38.00 76.43 38.00Q65.21 38.00 65.21 52.63ZM117.28 67.54Q118.51 67.54 120.16 67.29Q121.82 67.04 122.66 66.73L122.66 71.58Q121.78 71.96 119.94 72.33Q118.09 72.70 116.19 72.70Q104.87 72.70 104.87 60.79L104.87 38.32L99.42 38.32L99.42 35.30L104.94 32.77L107.47 24.54L111.23 24.54L111.23 33.40L122.38 33.40L122.38 38.32L111.23 38.32L111.23 60.61Q111.23 63.95 112.83 65.74Q114.43 67.54 117.28 67.54ZM163.90 52.63Q163.90 62.09 159.12 67.39Q154.34 72.70 145.90 72.70Q140.66 72.70 136.62 70.26Q132.57 67.82 130.39 63.25Q128.21 58.68 128.21 52.63Q128.21 43.21 132.93 37.95Q137.64 32.70 146.14 32.70Q154.30 32.70 159.10 38.06Q163.90 43.42 163.90 52.63M134.75 52.63Q134.75 59.91 137.62 63.69Q140.48 67.46 146.07 67.46Q151.59 67.46 154.48 63.69Q157.36 59.91 157.36 52.63Q157.36 45.35 154.46 41.68Q151.56 38.00 145.97 38.00Q134.75 38.00 134.75 52.63ZM222.64 58.25Q222.64 64.97 217.79 68.84Q212.94 72.70 204.29 72.70Q195.15 72.70 190.16 70.28L190.16 64.09Q193.43 65.50 197.31 66.30Q201.20 67.11 204.57 67.11Q210.34 67.11 213.26 64.90Q216.18 62.68 216.18 58.82Q216.18 56.25 215.12 54.60Q214.07 52.95 211.59 51.50Q209.11 50.06 204.08 48.23Q196.95 45.63 193.89 42.10Q190.83 38.57 190.83 32.98Q190.83 26.96 195.35 23.41Q199.86 19.86 207.25 19.86Q214.95 19.86 221.41 22.75L219.41 28.30Q212.80 25.56 207.11 25.56Q202.54 25.56 199.95 27.53Q197.37 29.50 197.37 33.05Q197.37 35.58 198.37 37.25Q199.37 38.92 201.60 40.29Q203.84 41.66 208.62 43.42Q214.35 45.53 217.16 47.51Q219.97 49.50 221.31 52.08Q222.64 54.67 222.64 58.25ZM255.97 72.00L254.74 66.52L254.46 66.52Q251.58 70.14 248.71 71.42Q245.85 72.70 241.49 72.70Q235.79 72.70 232.56 69.71Q229.32 66.73 229.32 61.28Q229.32 49.54 247.85 48.97L254.39 48.73L254.39 46.44Q254.39 42.05 252.49 39.96Q250.59 37.86 246.41 37.86Q243.35 37.86 240.63 38.78Q237.90 39.69 235.51 40.82L233.58 36.07Q236.50 34.52 239.94 33.64Q243.39 32.77 246.76 32.77Q253.76 32.77 257.17 35.86Q260.58 38.95 260.58 45.70L260.58 72.00L255.97 72.00M242.93 67.61Q248.24 67.61 251.28 64.74Q254.32 61.88 254.32 56.60L254.32 53.12L248.63 53.37Q241.98 53.61 238.94 55.48Q235.90 57.34 235.90 61.35Q235.90 64.37 237.74 65.99Q239.59 67.61 242.93 67.61ZM298.83 72.00L298.83 47.32Q298.83 42.61 296.74 40.31Q294.64 38.00 290.18 38.00Q284.24 38.00 281.55 41.29Q278.86 44.58 278.86 52.00L278.86 72.00L272.53 72.00L272.53 33.40L277.63 33.40L278.58 38.67L278.93 38.67Q280.72 35.82 283.96 34.26Q287.19 32.70 291.09 32.70Q298.20 32.70 301.64 36.14Q305.09 39.59 305.09 46.86L305.09 72.00L298.83 72.00ZM342.18 61.35Q342.18 66.76 338.13 69.73Q334.09 72.70 326.78 72.70Q319.15 72.70 314.65 70.28L314.65 64.51Q321.01 67.61 326.92 67.61Q331.70 67.61 333.88 66.06Q336.06 64.51 336.06 61.91Q336.06 59.63 333.97 58.04Q331.88 56.46 326.53 54.42Q321.08 52.31 318.87 50.82Q316.65 49.32 315.62 47.46Q314.58 45.60 314.58 42.93Q314.58 38.18 318.45 35.44Q322.31 32.70 329.06 32.70Q335.64 32.70 341.37 35.30L339.22 40.32Q333.35 37.86 328.64 37.86Q324.70 37.86 322.66 39.11Q320.63 40.36 320.63 42.54Q320.63 44.65 322.38 46.04Q324.14 47.43 330.57 49.89Q335.39 51.68 337.69 53.23Q340.00 54.77 341.09 56.71Q342.18 58.64 342.18 61.35Z"></path></svg>