<?xml version="1.0" standalone="no"?>
<!DOCTYPE svg PUBLIC "-//W3C//DTD SVG 1.1//EN" "http://www.w3.org/Graphics/SVG/1.1/DTD/svg11.dtd" >
<svg xmlns="http://www.w3.org/2000/svg">
<metadata>Generated by IcoMoon</metadata>
<defs>
<font id="icomoon" horiz-adv-x="1024">
<font-face units-per-em="1024" ascent="960" descent="-64" />
<missing-glyph horiz-adv-x="1024" />
<glyph unicode="&#x20;" d="" horiz-adv-x="512" />
<glyph unicode="&#xe000;" d="M321.008-64c-68.248 142.010-31.902 223.378 20.55 300.044 57.44 83.956 72.242 167.068 72.242 167.068s45.154-58.702 27.094-150.51c79.77 88.8 94.826 230.282 82.782 284.464 180.314-126.012 257.376-398.856 153.522-601.066 552.374 312.534 137.4 780.172 65.154 832.85 24.082-52.678 28.65-141.85-20-185.128-82.352 312.278-285.974 376.278-285.974 376.278 24.082-161.044-87.296-337.144-194.694-468.728-3.774 64.214-7.782 108.528-41.55 169.978-7.582-116.656-96.734-211.75-120.876-328.63-32.702-158.286 24.496-274.18 241.748-396.622z" />
<glyph unicode="&#xe001;" d="M1024 352l-192 192v288h-128v-160l-192 192-512-512v-32h128v-320h320v192h128v-192h320v320h128z" />
<glyph unicode="&#xe002;" d="M658.746 210.746l-210.746 210.746v282.51h128v-229.49l173.254-173.254zM512 960c-282.77 0-512-229.23-512-512s229.23-512 512-512 512 229.23 512 512-229.23 512-512 512zM512 64c-212.078 0-384 171.922-384 384s171.922 384 384 384c212.078 0 384-171.922 384-384s-171.922-384-384-384z" />
<glyph unicode="&#xe003;" d="M1024 601.846c0-86.364-37.218-164.030-96.49-217.846h0.49l-320-320c-32-32-64-64-96-64s-64 32-96 64l-320 320h0.49c-59.272 53.816-96.49 131.48-96.49 217.846 0 162.456 131.698 294.154 294.154 294.154 86.362 0 164.030-37.218 217.846-96.49 53.816 59.272 131.48 96.49 217.846 96.49 162.456 0 294.154-131.698 294.154-294.154z" />
<glyph unicode="&#xe004;" d="M128 64h896v-128h-1024v1024h128zM288 128c-53.020 0-96 42.98-96 96s42.98 96 96 96c2.826 0 5.622-0.15 8.39-0.386l103.192 171.986c-9.84 15.070-15.58 33.062-15.58 52.402 0 53.020 42.98 96 96 96s96-42.98 96-96c0-19.342-5.74-37.332-15.578-52.402l103.192-171.986c2.766 0.238 5.562 0.386 8.39 0.386 2.134 0 4.25-0.094 6.35-0.23l170.356 298.124c-10.538 15.408-16.706 34.036-16.706 54.11 0 53.020 42.98 96 96 96s96-42.98 96-96c0-53.020-42.98-96-96-96-2.14 0-4.25 0.094-6.35 0.23l-170.356-298.122c10.538-15.406 16.706-34.038 16.706-54.11 0-53.020-42.98-96-96-96s-96 42.98-96 96c0 19.338 5.74 37.332 15.576 52.402l-103.188 171.984c-2.766-0.238-5.56-0.386-8.39-0.386s-5.622 0.146-8.39 0.386l-103.192-171.986c9.84-15.068 15.58-33.062 15.58-52.4 0-53.020-42.98-96-96-96z" />
<glyph unicode="&#xe005;" d="M320 576h128v-128h-128zM512 576h128v-128h-128zM704 576h128v-128h-128zM128 192h128v-128h-128zM320 192h128v-128h-128zM512 192h128v-128h-128zM320 384h128v-128h-128zM512 384h128v-128h-128zM704 384h128v-128h-128zM128 384h128v-128h-128zM832 960v-64h-128v64h-448v-64h-128v64h-128v-1024h960v1024h-128zM896 0h-832v704h832v-704z" />
<glyph unicode="&#xe006;" d="M512 801.274l-344.834-737.274h689.67l-344.834 737.274zM512 960v0c22.072 0 44.14-14.882 60.884-44.65l437.072-871.11c33.49-59.53 5-108.24-63.302-108.24h-869.308c-68.304 0-96.79 48.71-63.304 108.24l437.074 871.11c16.746 29.768 38.814 44.65 60.884 44.65zM448 192c0-35.346 28.654-64 64-64s64 28.654 64 64c0 35.346-28.654 64-64 64s-64-28.654-64-64zM512 576c35.346 0 64-28.654 64-64l-20-192h-88l-20 192c0 35.346 28.654 64 64 64z" />
<glyph unicode="&#xe007;" d="M1024 704l-256 256v-192c-130.774 0-230.752-31.206-305.65-95.408-5.25-4.5-10.284-9.1-15.162-13.774 27.52-38.164 48.714-77.514 67.772-115.090 48.322 58.402 118.056 96.272 253.040 96.272v-384c-216.446 0-265.128 97.36-326.758 220.622-34.306 68.612-69.782 139.56-135.594 195.97-74.898 64.202-174.878 95.408-305.65 95.408v-128c216.446 0 265.128-97.36 326.758-220.622 34.306-68.614 69.782-139.562 135.594-195.97 74.898-64.198 174.88-95.408 305.65-95.408v-192l256 256-256 256 256 256zM0 256v-128c130.772 0 230.75 31.206 305.65 95.408 5.25 4.498 10.284 9.1 15.162 13.776-27.52 38.162-48.718 77.514-67.772 115.090-48.32-58.402-118.052-96.274-253.040-96.274z" />
<glyph unicode="&#xe008;" d="M1024 562.952l-353.78 51.408-158.22 320.582-158.216-320.584-353.784-51.406 256-249.538-60.432-352.352 316.432 166.356 316.432-166.36-60.434 352.352 256.002 249.542z" />
<glyph unicode="&#xe009;" d="M832 768v128h-640v-128h-192v-128c0-106.038 85.96-192 192-192 20.074 0 39.43 3.086 57.622 8.802 46.174-66.006 116.608-113.798 198.378-130.394v-198.408h-64c-70.694 0-128-57.304-128-128h512c0 70.694-57.304 128-128 128h-64v198.408c81.77 16.6 152.206 64.386 198.38 130.394 18.19-5.716 37.544-8.802 57.62-8.802 106.040 0 192 85.962 192 192v128h-192zM192 524c-63.962 0-116 52.038-116 116v64h116v-64c0-40.184 7.432-78.63 20.954-114.068-6.802-1.246-13.796-1.932-20.954-1.932zM948 640c0-63.962-52.038-116-116-116-7.158 0-14.15 0.686-20.952 1.932 13.522 35.438 20.952 73.882 20.952 114.068v64h116v-64z" />
<glyph unicode="&#xe00a;" d="M832 787.694c76.466 0 145.092 41.624 192 73.106v-595.688c-46.908-31.486-115.534-73.11-192-73.11s-145.092 22.67-192 54.154c-46.908 31.48-115.534 54.15-192 54.15s-145.090-38.918-192-70.394v595.688c46.91 31.482 115.534 70.4 192 70.4s145.092-22.668 192-54.15c46.908-31.486 115.534-54.154 192-54.154zM128 960c35.346 0 64-28.654 64-64v-960h-128v960c0 35.346 28.654 64 64 64z" />
<glyph unicode="&#xe00b;" d="M992 896h-224c-52.8 0-126.546-30.546-163.88-67.88l-376.238-376.238c-37.336-37.336-37.336-98.428 0-135.764l280.236-280.232c37.334-37.336 98.426-37.336 135.766 0l376.232 376.232c37.338 37.336 67.886 111.082 67.886 163.884v224c0 52.8-43.2 96-96 96zM864 576c-53.020 0-96 42.98-96 96s42.98 96 96 96 96-42.98 96-96-42.98-96-96-96zM86.626 361.374l342.378-342.376c-36.262-19.162-82.462-13.538-112.884 16.886l-280.238 280.236c-37.332 37.336-37.332 98.43 0 135.762l376.238 376.238c37.334 37.336 111.082 67.88 163.88 67.88l-489.374-489.37c-12.442-12.446-12.442-32.808 0-45.254z" horiz-adv-x="1088" />
<glyph unicode="&#xe00c;" d="M0 512v-192h1024v192h-1024zM0 128v-192h1024v192h-1024zM0 896v-192h1024v192h-1024z" />
<glyph unicode="&#xe00d;" d="M831.84 349.824h-42.368c-6.88-24.928-16.736-48.576-29.376-70.496l39.168-39.136c25.056-25.056 25.056-65.696 0-90.752l-22.688-22.688c-25.056-25.056-65.696-25.056-90.752 0l-39.424 39.392c-21.856-12.448-45.408-22.144-70.208-28.896v-41.088c0-35.424-28.704-64.16-64.16-64.16h-32.064c-35.424 0-64.192 28.704-64.192 64.16v41.088c-24.768 6.752-48.352 16.48-70.208 28.896l-39.392-39.392c-25.024-25.056-65.664-25.056-90.72 0l-22.72 22.688c-25.056 25.056-25.056 65.696 0 90.752l39.168 39.136c-12.64 21.952-22.496 45.568-29.408 70.496h-42.336c-35.456 0-64.16 28.704-64.16 64.128v32.096c0 35.424 28.704 64.16 64.16 64.16h41.856c6.624 24.672 16.096 48.16 28.384 69.952l-37.664 37.632c-25.056 25.056-25.056 65.696 0 90.752l22.688 22.656c25.056 25.056 65.696 25.056 90.72 0l36.896-36.896c22.592 13.152 46.976 23.392 72.704 30.4v43.136c0.032 35.456 28.8 64.16 64.224 64.16h32.064c35.424 0 64.16-28.704 64.16-64.16v-43.104c25.792-7.040 50.144-17.28 72.704-30.432l36.896 36.896c25.056 25.056 65.696 25.056 90.752 0l22.688-22.656c25.056-25.056 25.056-65.696 0-90.752l-37.632-37.632c12.288-21.792 21.76-45.28 28.416-69.984h41.856c35.424 0 64.16-28.736 64.16-64.16v-32.096c-0.032-35.392-28.736-64.096-64.192-64.096zM496 605.44c-97.44 0-176.448-79.008-176.448-176.448s79.008-176.448 176.448-176.448 176.448 79.008 176.448 176.448-79.008 176.448-176.448 176.448zM496 350.816c-44.288 0-80.224 35.872-80.224 80.192 0 44.288 35.936 80.192 80.224 80.192s80.192-35.904 80.192-80.192c0-44.32-35.904-80.192-80.192-80.192z" />
<glyph unicode="&#xe00e;" d="M512.002 960l-512.002-512h320v-511.998l384-0.002v512h320z" />
<glyph unicode="&#xe00f;" d="M864 832l-480-480-224 224-160-160 384-384 640 640z" />
<glyph unicode="&#xe010;" d="M1014.664 137.34c-0.004 0.004-0.010 0.010-0.010 0.010l-310.644 310.65 310.644 310.65c0.004 0.004 0.010 0.006 0.010 0.010 3.344 3.346 5.762 7.254 7.312 11.418 4.246 11.376 1.824 24.68-7.322 33.83l-146.748 146.746c-9.148 9.144-22.45 11.566-33.828 7.32-4.16-1.55-8.072-3.968-11.418-7.31 0-0.004-0.004-0.008-0.010-0.010l-310.648-310.654-310.65 310.65c-0.004 0.004-0.008 0.006-0.008 0.010-3.346 3.342-7.254 5.76-11.414 7.31-11.382 4.25-24.682 1.826-33.832-7.32l-146.748-146.746c-9.148-9.148-11.568-22.454-7.32-33.83 1.552-4.16 3.97-8.072 7.312-11.418 0.006-0.002 0.006-0.006 0.010-0.010l310.652-310.646-310.652-310.652c-0.002-0.004-0.006-0.006-0.010-0.010-3.342-3.346-5.76-7.254-7.314-11.414-4.248-11.376-1.826-24.682 7.32-33.832l146.748-146.746c9.15-9.148 22.454-11.568 33.832-7.322 4.16 1.552 8.070 3.97 11.418 7.312 0.002 0.004 0.008 0.006 0.008 0.010l310.65 310.65 310.65-310.65c0.004-0.002 0.010-0.006 0.010-0.010 3.35-3.344 7.254-5.762 11.414-7.314 11.378-4.246 24.682-1.826 33.828 7.322l146.746 146.748c9.148 9.148 11.57 22.456 7.322 33.832-1.552 4.162-3.968 8.068-7.312 11.414z" />
<glyph unicode="&#xe011;" d="M992.264 88.602l-242.552 206.294c-25.074 22.568-51.89 32.926-73.552 31.928 57.256 67.068 91.842 154.078 91.842 249.176 0 212.078-171.922 384-384 384-212.074 0-384-171.922-384-384s171.922-384 384-384c95.096 0 182.106 34.586 249.174 91.846-1-21.662 9.36-48.478 31.928-73.552l206.294-242.552c35.322-39.246 93.022-42.554 128.22-7.356s31.894 92.898-7.352 128.22zM384 320c-141.384 0-256 114.616-256 256s114.618 256 256 256 256-114.616 256-256-114.616-256-256-256z" />
<glyph unicode="&#xe012;" d="M864 224h-704l-96-96v-32l32-32h288c0-70.688 57.312-128 128-128s128 57.312 128 128h288l32 32v32l-96 96zM832 480c0 131.2-79.040 243.776-192 293.184v58.816c0 70.688-57.312 128-128 128s-128-57.312-128-128v-58.816c-112.96-49.408-192-161.984-192-293.184v-224h640v224zM448 832c0 35.328 28.672 64 64 64s64-28.672 64-64h-128z" />
<glyph unicode="&#xe013;" d="M622.826 257.264c-22.11 3.518-22.616 64.312-22.616 64.312s64.97 64.316 79.126 150.802c38.088 0 61.618 91.946 23.522 124.298 1.592 34.052 48.962 267.322-190.86 267.322s-192.45-233.27-190.864-267.322c-38.094-32.35-14.57-124.298 23.522-124.298 14.158-86.486 79.128-150.802 79.128-150.802s-0.504-60.794-22.616-64.312c-71.218-11.332-337.17-128.634-337.17-257.264h896c0 128.63-265.952 245.932-337.174 257.264z" />
<glyph unicode="&#xe014;" d="M575.87-64h-191.87v512h-128v176.45l128 0.058-0.208 103.952c0 143.952 39.034 231.54 208.598 231.54h141.176v-176.486h-88.23c-66.032 0-69.206-24.656-69.206-70.682l-0.264-88.324h158.69l-18.704-176.45-139.85-0.058-0.13-512z" />
<glyph unicode="&#xe015;" d="M789.534 896c0 0-200.956 0-267.94 0-120.12 0-233.17-91.006-233.17-196.424 0-107.726 81.88-194.664 204.086-194.664 8.498 0 16.758 0.168 24.84 0.752-7.928-15.186-13.6-32.288-13.6-50.040 0-29.938 16.102-54.21 36.47-74.024-15.384 0-30.242-0.448-46.452-0.448-148.782 0.002-263.3-94.76-263.3-193.022 0-96.778 125.544-157.312 274.334-157.312 169.624 0 263.306 96.246 263.306 193.028 0 77.602-22.896 124.072-93.688 174.134-24.216 17.144-70.534 58.836-70.534 83.344 0 28.72 8.198 42.868 51.428 76.646 44.312 34.624 75.674 83.302 75.674 139.914 0 67.406-30.024 133.096-86.376 154.774h84.956l59.968 43.342zM695.948 240.542c2.126-8.972 3.284-18.208 3.284-27.626 0-78.198-50.39-139.31-194.974-139.31-102.842 0-177.116 65.104-177.116 143.3 0 76.642 92.126 140.442 194.964 139.332 24-0.254 46.368-4.116 66.668-10.69 55.826-38.83 95.874-60.76 107.174-105.006zM531.288 532.224c-69.038 2.064-134.634 77.226-146.552 167.862-11.916 90.664 34.37 160.040 103.388 157.99 69.008-2.076 134.638-74.816 146.558-165.462 11.906-90.658-34.39-162.456-103.392-160.39z" />
<glyph unicode="&#xe016;" d="M559.066 896c0 0-200.956 0-267.94 0-120.118 0-233.168-91.006-233.168-196.424 0-107.726 81.882-194.664 204.086-194.664 8.498 0 16.758 0.168 24.842 0.752-7.928-15.186-13.602-32.288-13.602-50.040 0-29.938 16.104-54.21 36.468-74.024-15.384 0-30.242-0.448-46.452-0.448-148.778 0.002-263.298-94.758-263.298-193.020 0-96.778 125.544-157.314 274.334-157.314 169.622 0 263.306 96.246 263.306 193.028 0 77.6-22.896 124.072-93.688 174.134-24.216 17.144-70.53 58.836-70.53 83.344 0 28.72 8.198 42.868 51.428 76.646 44.31 34.624 75.67 83.302 75.67 139.914 0 67.406-30.022 133.096-86.372 154.774h84.952l59.962 43.342zM465.48 240.542c2.126-8.972 3.286-18.206 3.286-27.626 0-78.198-50.392-139.31-194.974-139.31-102.842 0-177.116 65.104-177.116 143.3 0 76.642 92.126 140.442 194.966 139.332 24-0.254 46.368-4.116 66.67-10.69 55.824-38.826 95.874-60.764 107.17-105.006zM300.818 532.224c-69.038 2.064-134.634 77.226-146.552 167.862-11.914 90.664 34.37 160.040 103.388 157.99 69.010-2.072 134.638-74.814 146.558-165.458 11.908-90.66-34.39-162.458-103.392-160.392zM832 704v192h-64v-192h-192v-64h192v-192h64v192h192v64z" />
<glyph unicode="&#xe017;" d="M874.024 810.020c-92.654 92.656-220.638 149.98-362.024 149.98-219.488 0-406.69-138.128-479.498-332.188l119.878-44.952c54.604 145.544 195.006 249.14 359.62 249.14 106.040 0 202.020-43 271.506-112.494l-143.506-143.506h384v384l-149.976-149.98zM512 64c-106.040 0-202.024 42.992-271.512 112.486l143.512 143.514h-384v-384l149.992 149.992c92.646-92.662 220.618-149.992 362.008-149.992 219.49 0 406.692 138.128 479.5 332.188l-119.876 44.952c-54.602-145.544-195.006-249.14-359.622-249.14z" />
<glyph unicode="&#xe018;" d="M1024 765.582c-37.674-16.708-78.164-28.002-120.662-33.082 43.37 26 76.686 67.17 92.374 116.23-40.596-24.078-85.558-41.562-133.41-50.98-38.32 40.83-92.922 66.342-153.346 66.342-116.024 0-210.086-94.058-210.086-210.078 0-16.466 1.858-32.5 5.44-47.878-174.6 8.762-329.402 92.4-433.016 219.506-18.086-31.028-28.446-67.116-28.446-105.618 0-72.888 37.088-137.192 93.46-174.866-34.438 1.094-66.832 10.542-95.154 26.278-0.022-0.876-0.022-1.754-0.022-2.642 0-101.786 72.418-186.696 168.522-206-17.626-4.8-36.188-7.37-55.348-7.37-13.538 0-26.698 1.322-39.528 3.77 26.736-83.462 104.32-144.206 196.25-145.894-71.9-56.35-162.486-89.934-260.916-89.934-16.958 0-33.68 0.994-50.116 2.938 92.972-59.61 203.402-94.394 322.040-94.394 386.424 0 597.736 320.124 597.736 597.744 0 9.11-0.206 18.168-0.61 27.178 41.056 29.62 76.672 66.62 104.836 108.748z" />
<glyph unicode="&#xe019;" d="M512 960c-282.752 0-512-229.248-512-512s229.248-512 512-512 512 229.248 512 512-229.248 512-512 512zM320 192v512l512.256-256-512.256-256z" />
<glyph unicode="&#xe01a;" d="M877.248 173.248l-146.752 146.752-90.496-90.496 146.752-146.752-146.752-146.752h384v384zM384 960h-384v-384l146.752 146.752 145.376-145.248 90.496 90.496-145.376 145.248zM384 229.504l-90.496 90.496-146.752-146.752-146.752 146.752v-384h384l-146.752 146.752zM1024 960h-384l146.752-146.752-145.376-145.248 90.496-90.496 145.376 145.248 146.752-146.752z" />
<glyph unicode="&#xe01b;" d="M786.752 82.752l146.752-146.752 90.496 90.496-146.752 146.752 146.752 146.752h-384v-384zM0 576h384v384l-146.752-146.752-145.248 145.376-90.496-90.496 145.248-145.376zM0 26.496l90.496-90.496 146.752 146.752 146.752-146.752v384h-384l146.752-146.752zM640 576h384l-146.752 146.752 145.504 145.376-90.496 90.496-145.504-145.376-146.752 146.752z" />
<glyph unicode="&#xe01c;" d="M746.4 34.112l-268.16 186.88v424.032l268.16 184.864c35.36 0 86.048-26.752 86.048-59.744v-676.256c0.032-33.024-50.656-59.776-86.048-59.776zM448.416 227.264h-192.864c-35.36 0-64 42.304-64 75.328v258.88c0 32.96 28.672 79.84 64 79.84h192.864v-414.048z" />
<glyph unicode="&#xe01d;" d="M756.698 621.174l-31.65-64.544c30.274-25.96 49.456-64.48 49.456-107.448 0-47.378-10.744-90.214-46.45-115.918l30.594-54.568c46.706 41.912 76.12 102.716 76.12 170.426-0.034 68.57-30.246 130.142-78.068 172.054zM991.606 847.192l-44.534-54.028c83.054-90.664 135.61-211.472 135.61-344.112 0-132.414-52.46-253.062-135.226-343.696l44.47-55.144c94.726 106.648 152.108 244.496 152.108 398.842-0.034 153.932-58.154 291.558-152.428 398.14zM873.448 736.808l-39.64-57c58.886-59.144 96.226-140.664 96.226-230.718 0-91.88-38.842-174.836-99.838-234.298l41.208-54.698c73.688 75.254 118.058 175.318 118.058 288.966 0.002 111.534-44.69 212.842-116.016 287.746zM0 575.654v-258.626c0-32.96 28.644-75.254 63.938-75.254h192.678l-0.002 413.642h-192.674c-35.294 0-63.938-46.834-63.938-79.762zM554.37 843.806l-267.93-184.682v-423.586l267.928-186.698c35.294 0 85.932 26.726 85.932 59.688l0.002 675.596c0 32.96-50.64 59.684-85.932 59.684z" horiz-adv-x="1144" />
<glyph unicode="&#xe01e;" d="M585.576 728.782c-21.4-20.89-230.502-240.434-230.502-240.434-11.416-11.164-17.102-25.754-17.102-40.346s5.682-29.184 17.102-40.344c0 0 209.102-219.544 230.502-240.384 21.4-20.89 59.904-22.322 82.738 0 22.784 22.272 24.576 53.35-0.050 80.64l-191.846 200.088 191.846 200.088c24.626 27.342 22.834 58.418 0.050 80.69-22.886 22.274-61.386 20.892-82.738 0.002z" />
<glyph unicode="&#xe01f;" d="M554.668 787.2v44.8h21.332c11.776 0 21.332 9.558 21.332 21.332v85.332c0 11.778-9.558 21.336-21.332 21.336h-128c-11.776 0-21.332-9.558-21.332-21.332v-85.332c0-11.778 9.558-21.336 21.332-21.336h21.332v-44.972c-38.442-3.924-75.392-12.972-110.208-26.412l-44.672 43.138-77.952 77.908-150.1-150.1 96.896-96.896c-61.184-73.814-97.962-168.576-97.962-272 0-235.648 191.018-426.668 426.668-426.668s426.666 191.020 426.666 426.666c0 221.27-168.364 403.114-384 424.534zM469.334 917.332h85.334v-42.668h-85.332v42.668zM146.73 731.562l89.77 89.77 49.792-49.75-89.77-89.77-49.792 49.75zM512 21.332c-188.202 0-341.334 153.13-341.334 341.332s153.132 341.334 341.334 341.334 341.334-153.132 341.334-341.334-153.13-341.334-341.334-341.334zM478.166 556.416c-16.682 16.682-43.648 16.682-60.332 0s-16.682-43.648 0-60.33l83.796-83.84-112.126-156.672c-11.562-20.524-4.31-46.548 16.256-58.068 6.612-3.754 13.782-5.504 20.864-5.504 14.932 0 29.396 7.85 37.204 21.76l128 184.918c9.428 16.682 6.528 37.548-6.996 51.072l-106.668 106.668z" />
<glyph unicode="&#xe020;" d="M438.426 728.782c21.402-20.89 230.502-240.434 230.502-240.434 11.47-11.164 17.152-25.754 17.152-40.346s-5.682-29.184-17.152-40.344c0 0-209.102-219.544-230.502-240.384-21.402-20.89-59.854-22.322-82.738 0-22.834 22.272-24.626 53.35 0 80.64l191.898 200.088-191.846 200.088c-24.626 27.342-22.834 58.418 0 80.69 22.836 22.274 61.336 20.892 82.688 0.002z" />
<glyph unicode="&#xe021;" d="M778.904 568.882c-14.080 0-27.954-1.23-41.422-3.48-33.586 109.824-137.626 189.848-260.914 189.848-150.426 0-272.334-119.192-272.334-266.24 0-13.106 1.024-26.010 2.92-38.656-7.218 0.822-14.49 1.382-21.962 1.382-102.246 0-185.192-81.1-185.192-181.042 0-99.992 82.944-181.042 185.192-181.042l255.128-0.002v194.56h-107.52l179.2 235.52 179.2-235.52h-107.52v-194.56h195.176c135.424 0 245.096 107.314 245.096 239.616 0.050 132.352-109.672 239.616-245.044 239.616z" />
<glyph unicode="&#xe022;" d="M64 192v-192h192l-192 192zM795.424 896l-27.424-27.424 164.576-164.576 27.424 27.424-164.576 164.576zM731.424 832l-603.424-603.424 164.576-164.576 603.424 603.424-164.576 164.576z" />
<glyph unicode="&#xe023;" d="M596.416 582.496v313.504h-168.832v-313.504h-235.584l320-326.496 320 326.496zM896 384v-256h-768v256h-128v-384h1024v384z" />
<glyph unicode="&#xe024;" d="M402.746 813.254l-320-320c-24.994-24.992-24.994-65.514 0-90.506l320-320c24.994-24.992 65.514-24.992 90.51 0s24.996 65.514 0 90.508l-210.748 210.746h613.492c35.346 0 64 28.65 64 64 0 35.346-28.654 64-64 64h-613.494l210.746 210.746c12.498 12.496 18.748 28.878 18.748 45.254s-6.25 32.76-18.742 45.254c-24.998 24.992-65.518 24.992-90.512 0z" />
<glyph unicode="&#xe025;" d="M341.792 377.376l-70.688-181.44 178.304 73.824-107.616 107.616zM859.36 764.896l-22.624 22.624c-24.96 24.992-65.504 24.992-90.496 0l-45.248-45.248 113.12-113.152 45.248 45.248c25.024 24.992 25.024 65.536 0 90.528zM345.376 386.624l16.192 16.192 113.12-113.12 316.8 316.8-113.12 113.12 22.624 22.656-355.616-355.648zM736.128 127.872l-544.832-0.192 0.096 544.832 381.472 0.128 59.776 63.36h-473.76c-17.664 0-32-14.304-32-32v-608c0-17.696 14.336-32 32-32h608c17.696 0 32 14.304 32 32v449.856l-64.48-63.264 1.728-354.72z" />
<glyph unicode="&#xe026;" d="M85.332 746.668h341.334v-85.332h85.332l0.002 85.332c0 46.932-38.4 85.332-85.332 85.332h-341.334c-46.932 0-85.332-38.4-85.332-85.332v-597.332c0-46.932 32.47-85.332 79.36-85.332l48.64-0.002v170.668h-42.668v512zM896 576h-597.332c-46.932 0-85.332-38.4-85.332-85.332v-341.332c0-46.932 38.4-85.332 85.332-85.332h597.332c46.932 0 85.332 38.4 85.332 85.332v341.334c0 46.934-38.4 85.334-85.332 85.334zM341.334 277.332h-85.334v85.332h85.332v-85.332zM896 149.332h-512v341.334h512v-341.334z" />
<glyph unicode="&#xe027;" d="M896 576h-298.666v-85.332h298.666v-341.332h-298.666c0-46.932-42.668-85.332-42.668-85.332h341.332c46.932 0 85.332 38.4 85.332 85.332v341.334c0.002 46.934-38.398 85.334-85.33 85.334zM426.666 832h-341.334c-46.932 0-85.332-38.4-85.332-85.332v-597.332c0-46.932 38.4-85.332 85.332-85.332h341.334c46.932 0 85.334 38.4 85.334 85.332l0.002 597.332c0 46.932-38.4 85.332-85.332 85.332zM298.666 106.668h-85.334v85.332h85.332l0.002-85.332zM426.666 234.668h-341.334v512h341.334l0.002-512z" />
<glyph unicode="&#xe028;" d="M682.668 832h-341.334c-46.932 0-85.332-38.4-85.332-85.332v-597.332c0-46.932 38.4-85.332 85.332-85.332h341.334c46.932 0 85.332 38.4 85.332 85.332l0.002 597.332c0 46.932-38.4 85.332-85.332 85.332zM554.668 106.668h-85.332v85.332h85.332v-85.332zM682.668 234.668h-341.334v512h341.334l0.002-512z" />
<glyph unicode="&#xe029;" d="M698.778 583.014c-6.76 18.176 181.248 186.112 71.576 322.15-25.702 31.794-112.69-152.37-236.288-235.726-68.146-45.978-226.866-143.872-226.866-197.992v-350.258c0-65.076 251.598-133.99 442.83-133.99 70.092 0 171.57 439.040 171.57 508.824 0 69.992-216.064 68.762-222.822 86.99zM256 578.152c-33.64 0-153.6-20.48-153.6-159.848v-248.216c0-139.366 119.96-154.674 153.6-154.674s-51.2 29.288-51.2 115.662v326.296c0 90.522 84.838 120.782 51.2 120.782z" />
<glyph unicode="&#xe02a;" d="M325.274 312.934c6.706-18.176-181.248-186.062-71.576-322.098 25.702-31.846 112.69 152.32 236.288 235.726 68.146 45.976 226.816 143.92 226.816 197.99v350.208c0 65.128-251.544 134.042-442.776 134.042-70.094 0-171.622-439.040-171.622-508.824 0-69.99 216.114-68.76 222.872-87.040zM768 317.85c33.688 0 153.6 20.43 153.6 159.846v248.168c0 139.366-119.91 154.726-153.6 154.726-33.64 0 51.2-29.336 51.2-115.662v-326.298c0-90.52-84.838-120.782-51.2-120.782z" />
<glyph unicode="&#xe02b;" d="M930.91 75.636h-837.818c-51.384 0-93.090 41.706-93.090 93.090v558.546c0 51.384 41.704 93.090 93.090 93.090h837.818c51.384 0 93.090-41.706 93.090-93.090v-558.546c0.002-51.384-41.702-93.090-93.088-93.090zM884.364 168.726l-266.798 233.472-105.566-93.836-105.566 93.836-266.798-233.472h744.726zM93.090 215.274l261.818 232.726-261.818 232.726v-465.454zM139.638 727.274l372.362-325.818 372.364 325.818h-744.726zM930.91 680.726l-261.818-232.726 261.818-232.726v465.454z" />
<glyph unicode="&#xe02c;" d="M930.91 122.182h-321.256c-2.606-14.106-4.562-29.278-4.562-46.546 0-93.090 93.090-93.090 93.090-93.090 25.74 0 46.546-10.472 46.546-23.274 0-12.846-20.808-23.274-46.546-23.274h-372.362c-25.694 0-46.546 10.424-46.546 23.274 0.002 12.8 20.856 23.274 46.546 23.274 0 0 93.090 0 93.090 93.090 0 17.27-1.954 32.442-4.562 46.546h-321.254c-51.384 0-93.090 41.706-93.090 93.090v651.636c0 51.384 41.704 93.090 93.090 93.090h837.818c51.384 0 93.090-41.706 93.090-93.090v-651.636c0.002-51.388-41.702-93.090-93.088-93.090zM930.91 866.91h-837.818v-558.546h837.818l0.002 558.546z" />
<glyph unicode="&#xe02d;" d="M800 960h-640c-52.8 0-96-43.2-96-96v-832c0-52.8 43.2-96 96-96h640c52.8 0 96 43.2 96 96v832c0 52.8-43.2 96-96 96zM480-32c-17.674 0-32 14.326-32 32s14.326 32 32 32 32-14.326 32-32-14.326-32-32-32zM768 64h-576v768h576v-768z" />
<glyph unicode="&#xe600;" d="M60.538 960l82.144-921.63 368.756-102.37 369.724 102.524 82.3 921.476h-902.924zM810.762 97.176l-297.226-82.376v-0.466l-0.776 0.234-0.782-0.234v0.466l-297.222 82.376-70.242 787.486h736.496l-70.248-787.486zM650.754 429.796l-13.070-146.552-126.21-34.070-125.862 33.916-8.050 90.234h-113.49l15.83-177.512 232.076-64.176 231.342 64.176 31.040 347.012h-411.966l-10.302 115.748h432.534l10.112 113.026h-566.218l30.498-341.802z" />
<glyph unicode="&#xe601;" d="M258.278 513.458l-146.532 253.802c93.818 117.464 238.234 192.74 400.254 192.74 187.432 0 351.31-100.736 440.532-251h-417.77c-7.504 0.65-15.092 1-22.762 1-121.874 0-224.578-83.644-253.722-196.542zM695.306 635h293.46c22.74-57.93 35.234-121.004 35.234-187 0-280.826-226.1-508.804-506.186-511.926l209.394 362.678c29.48 42.378 46.792 93.826 46.792 149.248 0 73.17-30.164 139.42-78.694 187zM326 448c0 102.56 83.44 186 186 186s186-83.44 186-186c0-102.56-83.44-186-186-186s-186 83.44-186 186zM582.182 195.558l-146.578-253.878c-246.532 36.884-435.604 249.516-435.604 506.32 0 91.218 23.884 176.846 65.696 251.024l209.030-362.054c41.868-89.112 132.476-150.97 237.274-150.97 24.3 0 47.836 3.34 70.182 9.558z" />
<glyph unicode="&#xe602;" d="M256 320c0 35.346 28.654 64 64 64s64-28.654 64-64c0-35.346-28.654-64-64-64s-64 28.654-64 64zM640 320c0 35.346 28.654 64 64 64s64-28.654 64-64c0-35.346-28.654-64-64-64s-64 28.654-64 64zM643.112 183.222c16.482 12.986 40.376 10.154 53.364-6.332s10.152-40.378-6.334-53.366c-45.896-36.158-115.822-59.524-178.142-59.524s-132.248 23.366-178.144 59.522c-16.486 12.99-19.32 36.882-6.332 53.368 12.99 16.482 36.882 19.318 53.366 6.332 26.422-20.818 78.722-43.222 131.11-43.222s104.688 22.404 131.112 43.222zM1024 448c0 70.692-57.308 128-128 128-48.116 0-89.992-26.57-111.852-65.82-65.792 35.994-145.952 59.246-233.28 64.608l76.382 171.526 146.194-42.2c13.152-37.342 48.718-64.114 90.556-64.114 53.020 0 96 42.98 96 96s-42.98 96-96 96c-36.56 0-68.342-20.442-84.554-50.514l-162.906 47.024c-18.224 5.258-37.538-3.722-45.252-21.052l-103.77-233.026c-85.138-5.996-163.262-29.022-227.636-64.236-21.864 39.25-63.766 65.804-111.882 65.804-70.692 0-128-57.308-128-128 0-52.312 31.402-97.254 76.372-117.102-8.070-24.028-12.372-49.104-12.372-74.898 0-176.73 200.576-320 448-320s448 143.27 448 320c0 25.792-4.3 50.862-12.368 74.886 44.97 19.85 76.368 64.802 76.368 117.114zM864 772c19.882 0 36-16.118 36-36s-16.118-36-36-36-36 16.118-36 36 16.118 36 36 36zM64 448c0 35.29 28.71 64 64 64 25.508 0 47.572-15.004 57.846-36.646-33.448-25.366-61.166-54.626-81.666-86.738-23.524 9.47-40.18 32.512-40.18 59.384zM512 12c-205.45 0-372 109.242-372 244s166.55 244 372 244c205.45 0 372-109.242 372-244s-166.55-244-372-244zM919.82 388.616c-20.5 32.112-48.218 61.372-81.666 86.738 10.276 21.642 32.338 36.646 57.846 36.646 35.29 0 64-28.71 64-64 0-26.872-16.656-49.914-40.18-59.384z" />
<glyph unicode="&#xe603;" d="M192 832l640-384-640-384z" />
<glyph unicode="&#xe604;" d="M128 832h320v-768h-320zM576 832h320v-768h-320z" />
<glyph unicode="&#xe605;" d="M0 896h1024v-128h-1024zM384 704h640v-128h-640zM384 512h640v-128h-640zM384 320h640v-128h-640zM0 128h1024v-128h-1024zM0 256v384l256-192z" />
<glyph unicode="&#xe606;" d="M0 896h1024v-128h-1024zM384 704h640v-128h-640zM384 512h640v-128h-640zM384 320h640v-128h-640zM0 128h1024v-128h-1024zM256 640v-384l-256 192z" />
<glyph unicode="&#xe607;" d="M894.016 576q-4.992-16.992-16-28l-128-128-44.992 12v528h127.008q27.008 0 45.504-19.008t18.496-44.992v-320h-2.016zM480 640l-96-192v512h256.992v-512l-96 192h-64.992zM146.016 548q-11.008 11.008-16 28h-0.992v6.016q-2.016 10.016 0 20.992v292.992q0 26.016 18.496 44.992t45.504 19.008h127.008v-528l-46.016-12zM416 360.992l96 214.016 96-214.016 224.992-40.992-164.992-151.008 42.016-232.992-198.016 114.016-196.992-114.016 42.016 232.992-164.992 151.008z" />
<glyph unicode="&#xe608;" d="M496 960c-273.952 0-496-222.048-496-496s222.048-496 496-496 496 222.048 496 496-222.048 496-496 496zM927.2 480h-191.872c-1.76 70.88-14.368 138.592-36.736 200.576 43.2 18.016 83.136 41.984 119.552 70.304 64.736-72.672 105.216-167.040 109.056-270.88zM478.304 32.896c-53.184 44.288-97.792 101.792-130.432 168.576 41.888 13.088 86.272 20.256 132.128 21.728v-190.368c-0.576 0-1.12 0.032-1.696 0.064zM513.632 895.104c60.352-50.24 109.6-117.536 142.912-196.032-45.632-15.584-94.112-24.64-144.576-26.24v222.368c0.608-0.032 1.12-0.064 1.664-0.096zM566.944 889.664c88.32-14.688 167.552-55.936 229.248-115.648-33.504-25.696-70.112-47.456-109.696-63.936-29.12 69.024-69.984 130.048-119.552 179.584zM480 895.2v-222.368c-50.464 1.632-98.976 10.656-144.576 26.24 33.312 78.496 82.56 145.792 142.912 196.032 0.576 0.032 1.088 0.064 1.664 0.096zM305.472 710.048c-39.52 16.48-76.16 38.24-109.664 63.936 61.664 59.712 140.928 100.96 229.248 115.648-49.6-49.504-90.432-110.528-119.584-179.584zM323.36 669.568c49.344-17.12 101.92-27.104 156.64-28.768v-160.8h-191.328c1.728 67.008 13.6 131.040 34.688 189.568zM480 448v-192.8c-50.464-1.536-99.264-9.792-145.248-24.608-27.712 65.984-44.064 139.488-46.080 217.408h191.328zM425.056 38.336c-79.136 13.152-151.008 47.616-209.44 97.664 31.52 21.856 65.6 40.352 102.016 54.4 27.904-57.856 64.416-109.216 107.424-152.064zM512 32.8v190.368c45.824-1.472 90.24-8.64 132.128-21.728-32.672-66.784-77.248-124.288-130.432-168.576-0.544 0-1.12-0.032-1.696-0.064zM674.368 190.4c36.384-14.048 70.432-32.576 102.016-54.4-58.432-50.016-130.304-84.512-209.44-97.664 43.008 42.848 79.488 94.208 107.424 152.064zM657.248 230.592c-46.016 14.816-94.816 23.072-145.248 24.608v192.8h191.328c-2.016-77.92-18.4-151.424-46.080-217.408zM512 480v160.8c54.688 1.664 107.264 11.616 156.64 28.736 21.056-58.528 32.928-122.56 34.688-189.568h-191.328zM173.888 750.88c36.416-28.32 76.352-52.288 119.52-70.304-22.368-61.984-34.976-129.696-36.736-200.576h-191.872c3.84 103.84 44.32 198.208 109.088 270.88zM64.8 448h191.872c1.984-81.76 19.072-158.976 48.096-228.384-40.544-15.808-78.336-36.864-113.216-61.792-75.136 74.784-122.56 177.024-126.752 290.176zM800.448 157.856c-34.88 24.896-72.672 45.984-113.248 61.792 29.056 69.408 46.112 146.624 48.128 228.384h191.872c-4.192-113.184-51.648-215.424-126.752-290.176z" />
<glyph unicode="&#xe609;" d="M977.582 765.538c-33.984 9.708-69.41-9.97-79.12-43.956l-5.022-17.582h-596.942l-8.992 71.938c-4.004 32.028-31.23 56.062-63.506 56.062h-160c-35.346 0-64-28.654-64-64s28.654-64 64-64h103.502l56.992-455.938c4.004-32.026 31.23-56.062 63.506-56.062h544c28.574 0 53.688 18.944 61.538 46.418l128 448c9.71 33.986-9.97 69.41-43.956 79.12zM512 448v64h127.996v-64h-127.996zM639.996 384v-64h-127.996v64h127.996zM512 576v64h127.996v-64h-127.996zM304.498 640h143.502v-64h-135.502l-8 64zM320.498 512h127.502v-64h-119.502l-8 64zM336.498 384h111.502v-64h-103.502l-8 64zM783.724 320h-79.728v64h98.014l-18.286-64zM820.296 448h-116.3v64h134.586l-18.286-64zM856.868 576h-152.872v64h171.158l-18.286-64zM256 32c0 53.020 42.98 96 96 96s96-42.98 96-96c0-53.020-42.98-96-96-96s-96 42.98-96 96zM640 32c0 53.020 42.98 96 96 96s96-42.98 96-96c0-53.020-42.98-96-96-96s-96 42.98-96 96z" />
<glyph unicode="&#xe60a;" d="M383.232 460.8c0-13.21 13.414-22.63 13.414-22.63l372.48-233.932c27.596-18.074 50.074-4.762 50.074 29.44v454.246c0 34.254-22.476 47.566-50.074 29.49l-372.48-233.984c0-0.050-13.414-9.42-13.414-22.63zM204.8 698.522v-475.442c0-45.466 31.334-59.392 76.8-59.392s76.8 13.926 76.8 59.342v475.494c0 45.518-31.334 59.442-76.8 59.442s-76.8-13.978-76.8-59.442z" />
<glyph unicode="&#xe60b;" d="M627.354 483.43l-372.48 233.984c-27.546 18.022-50.074 4.762-50.074-29.542v-454.196c0-34.304 22.528-47.514 50.074-29.49l372.48 233.932c0 0 13.466 9.472 13.466 22.63s-13.466 22.682-13.466 22.682zM742.4 757.964c-45.466 0-76.8-13.978-76.8-59.442v-475.442c0-45.518 31.334-59.494 76.8-59.494s76.8 13.978 76.8 59.494v475.442c0 45.466-31.334 59.442-76.8 59.442z" />
<glyph unicode="&#xe60c;" d="M853.344 960h-682.66c-93.872 0-170.684-76.814-170.684-170.688v-682.626c0-93.938 76.812-170.686 170.684-170.686l682.66 0.002c93.876 0 170.656 76.746 170.656 170.688v682.622c0 93.874-76.782 170.688-170.656 170.688zM870.592 448h-166.592v-448h-192v448h-92.526v146.564h92.526v95.186c0 129.342 55.792 206.25 207.87 206.25h175.244v-158.57h-143.13c-42.482 0.070-47.752-22.152-47.752-63.512l-0.232-79.354h192l-25.408-146.564z" />
<glyph unicode="&#xe60e;" d="M192 960v-1024l320 320 320-320v1024z" />
<glyph unicode="&#xe60f;" d="M256 832v-896l320 320 320-320v896zM768 960h-640v-896l64 64v768h576z" />
<glyph unicode="&#xe610;" d="M896 0h-768q-52.992 0-90.496 37.504t-37.504 90.496v320q0 52.992 37.504 90.496t90.496 37.504h192v128q0 52.992 37.504 90.496t90.496 37.504h128q52.992 0 90.496-37.504t37.504-90.496v-256h192q52.992 0 90.496-37.504t37.504-90.496v-192q0-52.992-37.504-90.496t-90.496-37.504zM288 256q12.992 0 22.496 9.504t9.504 22.496v128q0 12.992-9.504 22.496t-22.496 9.504h-128q-12.992 0-22.496-9.504t-9.504-22.496 9.504-22.496 22.496-9.504h96v-64h-96q-12.992 0-22.496-9.504t-9.504-22.496v-128q0-12.992 9.504-22.496t22.496-9.504h128q12.992 0 22.496 9.504t9.504 22.496-9.504 22.496-22.496 9.504h-96v64h96zM576 736q0 12.992-9.504 22.496t-22.496 9.504h-64q-12.992 0-22.496-9.504t-9.504-22.496 9.504-22.496 22.496-9.504h32v-224q0-12.992 9.504-22.496t22.496-9.504 22.496 9.504 9.504 22.496v256zM896 224v128q0 12.992-9.504 22.496t-22.496 9.504h-128q-12.992 0-22.496-9.504t-9.504-22.496 9.504-22.496 22.496-9.504h96v-64h-96q-12.992 0-22.496-9.504t-9.504-22.496 9.504-22.496 22.496-9.504h96v-64h-96q-12.992 0-22.496-9.504t-9.504-22.496 9.504-22.496 22.496-9.504h128q12.992 0 22.496 9.504t9.504 22.496v128z" />
<glyph unicode="&#xe611;" d="M512 952.32c-271.514 0-491.571-220.058-491.571-491.52 0-271.514 220.058-491.571 491.571-491.571 271.411 0 491.52 220.058 491.52 491.571 0 271.462-220.109 491.52-491.52 491.52zM557.875 774.861c47.923 0 62.003-27.802 62.003-59.597 0-39.68-31.744-76.39-85.965-76.39-45.363 0-66.97 22.784-65.638 60.518 0 31.795 26.573 75.469 89.6 75.469zM435.098 166.4c-32.768 0-56.678 19.917-33.792 107.213l37.53 154.88c6.502 24.781 7.578 34.714 0 34.714-9.779 0-52.326-17.101-77.414-33.997l-16.333 26.778c79.616 66.509 171.162 105.523 210.33 105.523 32.768 0 38.195-38.707 21.862-98.304l-43.008-162.816c-7.629-28.774-4.352-38.707 3.277-38.707 9.83 0 41.984 11.878 73.626 36.813l18.534-24.883c-77.466-77.414-161.894-107.213-194.611-107.213z" />
<glyph unicode="&#xf045;" d="M804.572 394.856v-148q0-68-48.286-116.286t-116.286-48.286h-475.428q-68 0-116.286 48.286t-48.286 116.286v475.428q0 68 48.286 116.286t116.286 48.286h145.714q7.428 0 12.858-5.428t5.428-12.858q0-15.428-14.856-18.286-44-14.856-76-34.286-5.714-2.286-9.144-2.286h-64q-37.714 0-64.57-26.856t-26.856-64.572v-475.428q0-37.714 26.856-64.572t64.57-26.856h475.428q37.714 0 64.572 26.856t26.856 64.572v122.286q0 10.856 10.286 16.572 16 7.428 30.856 21.144 9.144 9.144 20 4.572 12-5.144 12-16.572zM940 678.286l-219.428-219.43q-10.286-10.856-25.714-10.856-6.856 0-14.286 2.858-22.286 9.714-22.286 33.714v109.714h-91.428q-184.572 0-250.286-74.858-68-78.286-42.286-270.286 1.714-13.144-11.428-19.428-4.572-1.144-6.856-1.144-9.144 0-14.856 7.428-5.714 8-12 17.714t-22.57 39.144-28.286 56.856-22 65.144-10 69.714q0 28 2 52t8 51.43 16 50.286 26.856 46.57 39.144 42.286 54 35.142 71.144 27.714 91.144 17.428 112.286 6.286h91.428v109.714q0 24 22.286 33.714 7.428 2.856 14.286 2.856 14.856 0 25.714-10.856l219.428-219.43q10.856-10.856 10.856-25.714t-10.856-25.714z" horiz-adv-x="952" />
<glyph unicode="&#xf055;" d="M694.856 411.428v73.144q0 14.856-10.856 25.714t-25.714 10.858h-146.286v146.286q0 14.856-10.856 25.714t-25.714 10.856h-73.142q-14.856 0-25.714-10.856t-10.858-25.714v-146.286h-146.286q-14.856 0-25.714-10.856t-10.856-25.714v-73.142q0-14.856 10.856-25.714t25.714-10.856h146.286v-146.286q0-14.856 10.856-25.714t25.714-10.856h73.142q14.856 0 25.714 10.856t10.858 25.714v146.286h146.286q14.856 0 25.714 10.856t10.856 25.714zM877.714 448q0-119.428-58.856-220.286t-159.714-159.714-220.286-58.856-220.286 58.856-159.714 159.714-58.856 220.286 58.856 220.286 159.714 159.714 220.286 58.856 220.286-58.856 159.714-159.714 58.856-220.286z" horiz-adv-x="878" />
<glyph unicode="&#xf056;" d="M694.856 411.428v73.144q0 14.856-10.856 25.714t-25.714 10.858h-438.858q-14.856 0-25.714-10.856t-10.856-25.714v-73.142q0-14.856 10.856-25.714t25.714-10.856h438.858q14.856 0 25.714 10.856t10.856 25.714zM877.714 448q0-119.428-58.856-220.286t-159.714-159.714-220.286-58.856-220.286 58.856-159.714 159.714-58.856 220.286 58.856 220.286 159.714 159.714 220.286 58.856 220.286-58.856 159.714-159.714 58.856-220.286z" horiz-adv-x="878" />
<glyph unicode="&#xf0c0;" d="M338.858 448q-92.57-2.856-151.43-73.144h-76.57q-46.856 0-78.856 23.144t-32 67.714q0 201.714 70.856 201.714 3.43 0 24.856-12t55.714-24.286 68-12.286q38.286 0 76 13.144-2.858-21.144-2.858-37.714 0-79.43 46.286-146.286zM950.856 84q0-68.572-41.714-108.286t-110.856-39.714h-499.428q-69.144 0-110.856 39.714t-41.714 108.286q0 30.286 2 59.144t8 62.286 15.144 62 24.57 55.714 35.43 46.286 48.856 30.572 63.714 11.428q5.714 0 24.572-12.286t41.714-27.428 61.144-27.428 77.144-12.286 77.144 12.286 61.144 27.428 41.714 27.428 24.572 12.286q34.856 0 63.714-11.428t48.856-30.572 35.428-46.286 24.572-55.714 15.144-62 8-62.286 2-59.144zM365.714 813.714q0-60.57-42.858-103.428t-103.43-42.856-103.43 42.856-42.856 103.428 42.856 103.43 103.43 42.856 103.43-42.856 42.856-103.43zM768 594.286q0-90.858-64.286-155.144t-155.144-64.286-155.144 64.286-64.286 155.144 64.286 155.144 155.144 64.286 155.144-64.286 64.286-155.144zM1097.144 465.714q0-44.57-32-67.714t-78.856-23.144h-76.572q-58.856 70.286-151.428 73.144 46.286 66.856 46.286 146.286 0 16.57-2.856 37.714 37.714-13.144 76-13.144 33.714 0 68 12.286t55.714 24.286 24.856 12q70.856 0 70.856-201.714zM1024 813.714q0-60.57-42.856-103.428t-103.428-42.856-103.428 42.856-42.856 103.428 42.856 103.43 103.428 42.856 103.428-42.856 42.856-103.43z" horiz-adv-x="1098" />
<glyph unicode="&#xf11e;" d="M475.428 388.572v109.714q-103.428-9.142-219.43-66.858v-105.714q117.144 54.856 219.43 62.856zM475.428 627.428v112.572q-98.286-4.572-219.43-72v-108q122.856 63.428 219.43 67.428zM950.856 362.856v105.144q-134.286-66.286-219.428-40.572v128q-11.428 3.428-22.286 8.572-2.856 1.714-18.856 9.714t-19.714 9.714-18 8.572-19.714 8.856-18.572 7.428-20.572 7.142-20 4.858-22.572 4.286-22.572 2.286-25.144 1.144q-13.144 0-28-1.714v-126.856h10.856q58.286 0 110-16.572t112.856-46.856q10.856-5.144 22.286-8.572v-107.428q24-9.714 52-9.714 68.572 0 167.428 52.572zM950.856 606.856v108q-96.572-52-174.856-52-25.714 0-44.572 4.572v-112q84.572-24 219.428 51.428zM182.856 813.714q0-20-10-36.57t-26.57-26.286v-723.428q0-8-5.144-13.144t-13.144-5.144h-36.57q-8 0-13.144 5.144t-5.144 13.144v723.428q-16.57 9.714-26.57 26.286t-10 36.57q0 30.286 21.43 51.714t51.714 21.428 51.714-21.428 21.43-51.714zM1024 777.144v-436q0-22.286-20-32.572-5.714-2.856-9.714-5.144-124.572-66.286-210.856-66.286-50.286 0-90.286 20l-16 8q-36.572 18.856-56.572 27.428t-52 16.572-65.144 8q-58.286 0-134.572-25.144t-130.57-58.286q-8.57-5.144-18.856-5.144-9.144 0-18.286 4.572-18.286 10.856-18.286 32v424q0 20 17.714 31.428 20 12 44.856 24.286t65.144 29.714 87.142 28.286 88.572 10.856q64 0 119.428-17.714t119.428-49.144q21.714-10.856 50.856-10.856 69.714 0 177.144 64 12.572 6.856 17.714 9.714 17.714 9.144 35.428-1.144 17.714-11.428 17.714-31.428z" />
<glyph unicode="&#xf128;" d="M402.286 242.286v-137.144q0-9.144-6.858-16t-16-6.856h-137.144q-9.144 0-16 6.856t-6.856 16v137.144q0 9.144 6.856 16t16 6.856h137.144q9.144 0 16-6.856t6.858-16zM582.856 585.144q0-30.858-8.856-57.714t-20-43.714-31.428-34-32.856-24.858-34.856-20.286q-23.428-13.144-39.144-37.144t-15.714-38.286q0-9.714-6.858-18.572t-16-8.856h-137.144q-8.57 0-14.57 10.572t-6 21.428v25.714q0 47.428 37.142 89.428t81.714 62q33.714 15.428 48 32t14.286 43.428q0 24-26.572 42.286t-61.428 18.286q-37.144 0-61.714-16.572-20-14.286-61.144-65.714-7.43-9.144-17.714-9.144-6.856 0-14.286 4.572l-93.714 71.428q-7.43 5.714-8.856 14.286t3.144 16q91.43 152 265.142 152 45.714 0 92-17.714t83.428-47.428 60.572-72.856 23.428-90.572z" horiz-adv-x="586" />
<glyph unicode="&#xf167;" d="M554.856 249.144v-120.572q0-38.286-22.286-38.286-13.144 0-25.714 12.572v172q12.57 12.572 25.714 12.572 22.286 0 22.286-38.286zM748 248.572v-26.286h-51.428v26.286q0 38.856 25.714 38.856t25.714-38.856zM196 373.144h61.144v53.714h-178.286v-53.714h60v-325.144h57.144v325.144zM360.572 48h50.856v282.286h-50.856v-216q-17.144-24-32.572-24-10.286 0-12 12-0.572 1.714-0.572 20v208h-50.856v-223.428q0-28 4.572-41.714 6.858-21.144 33.144-21.144 27.428 0 58.286 34.856v-30.856zM605.714 132.572v112.572q0 41.714-5.144 56.572-9.714 32-40.572 32-28.572 0-53.144-30.856v124h-50.856v-378.858h50.856v27.428q25.714-31.428 53.144-31.428 30.856 0 40.572 31.428 5.144 15.428 5.144 57.144zM798.856 138.286v7.428h-52q0-29.144-1.144-34.856-4-20.572-22.856-20.572-26.286 0-26.286 39.428v49.714h102.286v58.856q0 45.144-15.428 66.286-22.286 29.144-60.572 29.144-38.856 0-61.144-29.144-16-21.144-16-66.286v-98.856q0-45.144 16.572-66.286 22.286-29.144 61.714-29.144 41.144 0 61.714 30.286 10.286 15.428 12 30.856 1.144 5.144 1.144 33.144zM451.428 660v120q0 39.428-24.572 39.428t-24.572-39.428v-120q0-40 24.572-40t24.572 40zM862.286 230.856q0-133.714-14.856-200-8-33.714-33.144-56.572t-58.286-26.286q-105.144-12-317.142-12t-317.142 12q-33.144 3.428-58.57 26.286t-32.856 56.572q-14.856 64-14.856 200 0 133.714 14.856 200 8 33.714 33.144 56.572t58.856 26.856q104.57 11.428 316.572 11.428t317.142-11.428q33.144-4 58.572-26.856t32.856-56.572q14.856-64 14.856-200zM292 960h58.286l-69.142-228v-154.856h-57.144v154.856q-8 42.286-34.856 121.144-21.144 58.856-37.144 106.856h60.57l40.57-150.286zM503.428 769.714v-100q0-46.286-16-67.428-21.144-29.144-60.572-29.144-38.286 0-60 29.144-16 21.714-16 67.428v100q0 45.714 16 66.856 21.714 29.144 60 29.144 39.428 0 60.572-29.144 16-21.144 16-66.856zM694.856 862.286v-285.144h-52v31.428q-30.286-35.428-58.856-35.428-26.286 0-33.714 21.144-4.572 13.714-4.572 42.856v225.144h52v-209.714q0-18.856 0.572-20 1.714-12.572 12-12.572 15.428 0 32.572 24.572v217.714h52z" horiz-adv-x="878" />
<glyph unicode="&#xf1c0;" d="M438.857 521.143q135.429 0 253.143 24.571t185.714 72.571v-97.143q0-39.429-58.857-73.143t-160-53.429-220-19.714-220 19.714-160 53.429-58.857 73.143v97.143q68-48 185.714-72.571t253.143-24.571zM438.857 82.286q135.429 0 253.143 24.571t185.714 72.571v-97.143q0-39.429-58.857-73.143t-160-53.429-220-19.714-220 19.714-160 53.429-58.857 73.143v97.143q68-48 185.714-72.571t253.143-24.571zM438.857 301.714q135.429 0 253.143 24.571t185.714 72.571v-97.143q0-39.429-58.857-73.143t-160-53.429-220-19.714-220 19.714-160 53.429-58.857 73.143v97.143q68-48 185.714-72.571t253.143-24.571zM438.857 960q118.857 0 220-19.714t160-53.429 58.857-73.143v-73.143q0-39.429-58.857-73.143t-160-53.429-220-19.714-220 19.714-160 53.429-58.857 73.143v73.143q0 39.429 58.857 73.143t160 53.429 220 19.714z" />
<glyph unicode="&#xf228;" d="M512-64q-139 0-257 68.5t-186.502 186.5-68.502 257 68.502 257 186.502 186.5 257 68.5 257-68.5 186.5-186.5 68.5-257-68.5-257-186.5-186.5-257-68.5zM133.002 510q-5.002-34-5.002-62 0-142 91.498-248.5t228.502-129.5v192q-84 17-138 68.5t-54 117.5q0 10 2 21-78 15-125.002 41zM512 832q-108 0-198.5-55.5t-140.502-147.5q119.002-53 339-53t339 53q-50 92-140.5 147.5t-198.5 55.5zM766 469q2-11 2-21 0-66-54-118t-138-68v-192q137 23 228.5 129.5t91.5 248.5q0 28-5 62-46-26-125-41z" />
<glyph unicode="&#xf2d7;" d="M1024 640q0-87-43-161t-116.5-116.5-160.5-42.5h-32q-96-43-96-128 0-102 80-139 52-9 82-23t30-30q0-27-75-45.5t-181-18.5-181 18.5-75.002 45.5q0 16 30 30t82 23q80 37 80 139 0 85-96 128h-32q-87.002 0-160.502 42.5t-116.502 116.5-43 161q0 96 52.5 166t140.502 100q-1.002 31-1.002 54h640q0-24-1-54 88-30 140.5-100t52.5-166zM205.002 772q-77.002-43-77.002-132 0-77 53.498-132.5t129.498-58.5q-78 121-106 323zM570 767l-58 129-58-129-134-18 99-97-26-140 119 68 119-68-26 140 99 97zM819 772q-28-202-106-323 76 3 129.5 58.5t53.5 132.5q0 89-77 132z" />
</font>
</defs>
</svg>
