<?xml version="1.0" encoding="UTF-8"?>
<svg width="30px" height="25px" viewBox="0 0 30 25" version="1.1" xmlns="http://www.w3.org/2000/svg" xmlns:xlink="http://www.w3.org/1999/xlink">
    <!-- Generator: Sketch 45.2 (43514) - http://www.bohemiancoding.com/sketch -->
    <title>Logo Copy</title>
    <desc>Created with Sketch.</desc>
    <defs></defs>
    <g id="v3.1-SFTP,-Login-+-History" stroke="none" stroke-width="1" fill="none" fill-rule="evenodd">
        <g id="Logo-Copy" transform="translate(1.000000, 1.000000)" fill="#9EA5B3">
            <g id="Group-3" transform="translate(0.000000, 0.080184)">
                <path d="M20.8132442,20.3625991 C24.8550774,20.3625991 28.1421382,17.0755064 28.1421382,13.0337051 C28.1421382,10.9860986 27.2545405,8.99358116 25.7442722,7.61317039 C25.7444424,3.64675666 22.5582253,0.460571429 18.6404332,0.460571429 C17.448108,0.460571429 16.2892855,0.756219651 15.2514402,1.32085266 C13.9253418,0.00427502622 12.1384193,-0.738046083 10.2496498,-0.738046083 C6.38838738,-0.738046083 3.23787475,2.35687303 3.14780552,6.19683098 C0.7613856,7.47140172 -0.75002765,9.96493683 -0.75002765,12.6965622 C-0.75002765,16.7590691 2.55377565,20.0629677 6.61619355,20.0629677 C6.86079105,20.0629677 7.10563004,20.0508518 7.34890053,20.0267626 C8.68874402,22.3906268 11.2176769,23.8836129 13.9580369,23.8836129 L13.9580369,22.3836129 C11.6118176,22.3836129 9.45408595,21.0155032 8.44843242,18.8914716 L8.20372204,18.3746211 L7.64052918,18.4737748 C7.30423931,18.5329807 6.95983122,18.5629677 6.61619355,18.5629677 C3.38221246,18.5629677 0.74997235,15.9306517 0.74997235,12.6965622 C0.74997235,10.3884146 2.10547394,8.29311787 4.21076041,7.34481494 L4.6757891,7.13534793 L4.65191522,6.62587943 C4.64786604,6.53946995 4.64582488,6.45219008 4.64582488,6.36587097 C4.64582488,3.27652783 7.16032326,0.761953917 10.2496498,0.761953917 C11.9119336,0.761953917 13.4705357,1.48841659 14.5407291,2.76140232 L14.972763,3.27530285 L15.5311782,2.9025838 C16.4556339,2.28554783 17.5279623,1.96057143 18.6404332,1.96057143 C21.7298015,1.96057143 24.2444424,4.47518715 24.2444424,7.56448848 C24.2444424,7.67605753 24.2410143,7.78869518 24.2342312,7.89948542 L24.2108323,8.28166819 L24.5066595,8.52476782 C25.8434622,9.62330177 26.6421382,11.309586 26.6421382,13.0337051 C26.6421382,16.2470825 24.026647,18.8625991 20.8132442,18.8625991 C20.5650721,18.8625991 20.3137136,18.8464919 20.0657053,18.8146834 L19.5568666,18.7494218 L19.3115801,19.1999887 C18.2409138,21.1666964 16.1951581,22.3836129 13.9580369,22.3836129 L13.9580369,23.8836129 C16.5769385,23.8836129 18.9876411,22.5434436 20.3750577,20.3494548 C20.5213071,20.3582017 20.6676037,20.3625991 20.8132442,20.3625991 Z" id="Combined-Shape" fill-rule="nonzero"></path>
                <path d="M15.7659263,14.3989217 C15.1375392,14.3989217 14.5175392,14.2700737 13.9233456,14.0159724 C13.7517327,13.9445438 13.6309954,13.8943134 13.6309954,13.6430691 L13.6309954,13.3026083 C13.6309954,13.0693364 13.7508111,12.9355115 13.9595668,12.9355115 L13.9771705,12.9355115 L13.9934839,12.941871 C14.5646359,13.1671244 15.1606728,13.281318 15.7649124,13.281318 C16.3703502,13.281318 17.002977,13.1667558 17.6452811,12.940765 L17.6601198,12.9355115 L17.6758802,12.9355115 C17.8847281,12.9355115 18.0045438,13.0693364 18.0045438,13.3026083 L18.0045438,13.6430691 C18.0045438,13.8899816 17.8880461,13.9401198 17.7267558,14.0095207 L17.7123779,14.015788 C17.0466636,14.2704424 16.393023,14.3989217 15.7659263,14.3989217" id="Fill-4"></path>
                <path d="M9.42358525,12.1434654 C9.2899447,12.1434654 9.2102212,12.0542488 9.2102212,11.9047558 L9.2102212,11.3339724 C9.2102212,11.0779355 9.36054378,11.0080737 9.4502212,10.9891797 L11.7492074,10.3856774 L9.44579724,9.78106912 C9.3577788,9.75802765 9.2102212,9.68263594 9.2102212,9.43729032 L9.2102212,8.85775115 C9.2102212,8.63756682 9.36404608,8.62042396 9.41123502,8.62042396 C9.45123502,8.62042396 9.49510599,8.62964055 9.54552074,8.64853456 L12.8255207,9.70964055 C13.0226636,9.77535484 13.1264424,9.92705991 13.1264424,10.1485346 L13.1264424,10.6227281 C13.1264424,10.8442949 13.0226636,10.996 12.8263502,11.0614378 L9.54146544,12.1241106 C9.49621198,12.1374747 9.45851613,12.1434654 9.42358525,12.1434654" id="Fill-6"></path>
            </g>
        </g>
    </g>
</svg>