<svg width="16" height="16" viewBox="0 0 16 16" fill="none" xmlns="http://www.w3.org/2000/svg">
<path fill-rule="evenodd" clip-rule="evenodd" d="M2 0H0V7H2V0ZM2 9H0V16H2V9Z" fill="#5A5A5A"/>
<path fill-rule="evenodd" clip-rule="evenodd" d="M11 8.89753C10.9215 6.43226 8 4 8 4C8 4 5.0805 6.43226 5 8.89803C5 8.90953 5 8.92004 5 8.93154C5 8.96605 5 8.98306 5 8.99906C5 9.01507 5 9.03607 5 9.05408C5 10.716 6.34315 12 8 12C9.65685 12 11 10.716 11 9.05858C11 9.03507 11 9.01707 11 8.99806C11 8.97906 11 8.96455 11 8.94905C11 8.91954 11 8.90903 11 8.89753Z" fill="#5A5A5A"/>
<path fill-rule="evenodd" clip-rule="evenodd" d="M7 0H0V2H7V0ZM9 2H16V0H9V2Z" fill="#5A5A5A"/>
<path fill-rule="evenodd" clip-rule="evenodd" d="M16 0H14V7H16V0ZM16 9H14V16H16V9Z" fill="#5A5A5A"/>
<path fill-rule="evenodd" clip-rule="evenodd" d="M7 14H0V16H7V14ZM9 16H16V14H9V16Z" fill="#5A5A5A"/>
</svg>
