<svg width="24" height="24" viewBox="0 0 24 24" fill="none" xmlns="http://www.w3.org/2000/svg">
<path d="M6.11678 13.0309H2.43982C1.18965 13.0309 0.233643 13.9869 0.233643 15.2371V18.914C0.233643 20.1642 1.18965 21.1202 2.43982 21.1202H6.11678C7.36695 21.1202 8.32296 20.1642 8.32296 18.914V15.2371C8.32296 13.9869 7.36695 13.0309 6.11678 13.0309Z" fill="#5A5A5A"/>
<path d="M11.4851 13.1044C11.191 13.0309 10.8233 13.1044 10.6762 13.325L9.20543 15.2371C9.13189 15.3841 9.05835 15.5312 9.05835 15.6783V18.5463C9.05835 18.6934 9.13189 18.8405 9.20543 18.9876L10.6762 20.8996C10.8233 21.0467 11.0439 21.1937 11.2645 21.1937C11.3381 21.1937 11.4116 21.1937 11.4851 21.1202C11.7793 21.0467 11.9999 20.7525 11.9999 20.4583V13.8398C11.9999 13.4721 11.7793 13.178 11.4851 13.1044Z" fill="#5A5A5A"/>
<path d="M21.75 5H15.075L13.35 2.375C13.275 2.15 12.975 2 12.75 2H5.25C3.975 2 3 2.975 3 4.25V11.75H6C7.2 11.75 8.325 12.35 9 13.25L9.525 12.65C10.125 11.9 11.1 11.6 12 11.9C12.9 12.2 13.5 13.1 13.5 14V20H21.75C23.025 20 24 19.025 24 17.75V7.25C24 5.975 23.025 5 21.75 5ZM22.5 16.7L16.05 6.5H21.75C22.2 6.5 22.5 6.8 22.5 7.25V16.7Z" fill="#5A5A5A"/>
</svg>
