<?xml version="1.0" encoding="UTF-8" standalone="no"?>
<!DOCTYPE svg PUBLIC "-//W3C//DTD SVG 1.1//EN" "http://www.w3.org/Graphics/SVG/1.1/DTD/svg11.dtd">
<svg width="100%" height="100%" viewBox="0 0 64 64" version="1.1" xmlns="http://www.w3.org/2000/svg" xmlns:xlink="http://www.w3.org/1999/xlink" xml:space="preserve" style="fill-rule:evenodd;clip-rule:evenodd;stroke-linejoin:round;stroke-miterlimit:1.41421;">
    <g transform="matrix(1.02885,0,0,1.02885,-749.505,-2640.17)">
        <g>
            <path d="M742.215,2571.98L784.365,2571.98L784.462,2571.99C784.494,2572 784.526,2572.01 784.556,2572.02C784.678,2572.07 784.776,2572.17 784.827,2572.29C784.86,2572.37 784.856,2572.39 784.865,2572.48L784.865,2579.87C784.856,2579.96 784.86,2579.98 784.827,2580.07C784.776,2580.19 784.678,2580.28 784.556,2580.34C784.475,2580.37 784.451,2580.37 784.365,2580.37L780.061,2580.37L780.061,2606.49C780.059,2606.52 780.059,2606.54 780.055,2606.57C780.042,2606.65 780.011,2606.72 779.965,2606.79C779.95,2606.81 779.931,2606.83 779.914,2606.85L769.575,2617.14C769.555,2617.16 769.537,2617.18 769.516,2617.2C769.452,2617.24 769.378,2617.27 769.3,2617.28C769.275,2617.29 769.248,2617.29 769.222,2617.29L742.715,2617.29L742.715,2622.02C742.707,2622.11 742.711,2622.13 742.677,2622.22C742.627,2622.34 742.529,2622.43 742.407,2622.49C742.326,2622.52 742.302,2622.51 742.215,2622.52L734.823,2622.52C734.737,2622.51 734.712,2622.52 734.631,2622.49C734.51,2622.43 734.411,2622.34 734.361,2622.22C734.327,2622.13 734.331,2622.11 734.323,2622.02L734.323,2572.48C734.331,2572.39 734.327,2572.37 734.361,2572.29C734.411,2572.17 734.51,2572.07 734.631,2572.02C734.712,2571.99 734.737,2571.99 734.823,2571.98L742.215,2571.98ZM741.715,2584.72L741.715,2580.37L735.323,2580.37L735.323,2621.52L741.715,2621.52L741.715,2617.29L739.208,2617.29L739.208,2616.29L741.715,2616.29L741.715,2610.97L739.208,2610.97L739.208,2609.97L741.715,2609.97L741.715,2604.66L739.313,2604.66L739.313,2603.66L741.715,2603.66L741.715,2598.35L739.313,2598.35L739.313,2597.35L741.715,2597.35L741.715,2592.03L739.313,2592.03L739.313,2591.03L741.715,2591.03L741.715,2585.72L739.313,2585.72L739.313,2584.72L741.715,2584.72ZM779.061,2605.86L779.061,2580.37L742.715,2580.37L742.715,2616.29L768.93,2616.29L768.93,2606.36C768.932,2606.3 768.94,2606.24 768.96,2606.19C769.01,2606.05 769.121,2605.94 769.259,2605.89C769.315,2605.87 769.371,2605.86 769.43,2605.86L779.061,2605.86ZM769.93,2606.86L769.93,2615.38L778.483,2606.86L769.93,2606.86ZM748.985,2598.83L745.137,2598.83L745.137,2597.83L748.985,2597.83L748.985,2598.83ZM755.341,2598.83L751.193,2598.83L751.193,2597.83L755.341,2597.83L755.341,2598.83ZM760.545,2598.83L757.69,2598.83L757.69,2597.83L760.045,2597.83L760.045,2594.88L761.045,2594.88C761.045,2596.03 761.045,2597.18 761.045,2598.33C761.044,2598.39 761.034,2598.45 761.012,2598.51C760.959,2598.65 760.842,2598.76 760.7,2598.81C760.65,2598.82 760.598,2598.83 760.545,2598.83ZM761.045,2592.45L760.045,2592.45L760.045,2588.45L761.045,2588.45L761.045,2592.45ZM761.045,2586.16L760.045,2586.16L760.045,2582.37L761.045,2582.37L761.045,2586.16ZM741.715,2579.37L741.715,2572.98L735.323,2572.98L735.323,2579.37L741.715,2579.37ZM783.865,2572.98L742.715,2572.98L742.715,2579.37L747.486,2579.37L747.486,2576.92L748.486,2576.92L748.486,2579.37L753.799,2579.37L753.799,2576.92L754.799,2576.92L754.799,2579.37L760.113,2579.37L760.113,2577.03L761.113,2577.03L761.113,2579.37L766.427,2579.37L766.427,2577.03L767.427,2577.03L767.427,2579.37L772.74,2579.37L772.74,2577.03L773.74,2577.03L773.74,2579.37L779.054,2579.37L779.054,2577.03L780.054,2577.03L780.054,2579.37L783.865,2579.37L783.865,2572.98Z" style="fill:rgb(173,173,173);"/>
        </g>
    </g>
</svg>
