<?xml version="1.0" encoding="UTF-8" standalone="no"?>
<!DOCTYPE svg PUBLIC "-//W3C//DTD SVG 1.1//EN" "http://www.w3.org/Graphics/SVG/1.1/DTD/svg11.dtd">
<svg width="100%" height="100%" viewBox="0 0 64 64" version="1.1" xmlns="http://www.w3.org/2000/svg" xmlns:xlink="http://www.w3.org/1999/xlink" xml:space="preserve" style="fill-rule:evenodd;clip-rule:evenodd;stroke-linejoin:round;stroke-miterlimit:1.41421;">
    <g transform="matrix(1.02732,0,0,1.0326,-903.521,-2650.53)">
        <path d="M896.771,2587.25L916.954,2572.76C917.027,2572.72 917.044,2572.7 917.128,2572.68C917.159,2572.68 917.192,2572.67 917.223,2572.67C917.256,2572.67 917.288,2572.67 917.32,2572.67C917.351,2572.68 917.383,2572.69 917.413,2572.7C917.474,2572.72 917.53,2572.75 917.578,2572.8C917.602,2572.82 917.622,2572.84 917.643,2572.87L935.182,2595.9L936.43,2595.92C936.515,2595.93 936.539,2595.93 936.618,2595.96C936.8,2596.04 936.922,2596.22 936.923,2596.42C936.923,2596.51 936.911,2596.53 936.887,2596.61L926.428,2622.71C926.413,2622.74 926.4,2622.77 926.382,2622.8C926.309,2622.91 926.193,2622.99 926.062,2623.02C926.03,2623.02 925.997,2623.02 925.964,2623.03L884.859,2623.03C884.775,2623.02 884.751,2623.02 884.672,2622.99C884.49,2622.92 884.366,2622.74 884.359,2622.54C884.359,2622.53 884.359,2622.52 884.359,2622.51L884.359,2587.7C884.365,2587.63 884.362,2587.61 884.384,2587.55C884.433,2587.4 884.554,2587.28 884.705,2587.23C884.771,2587.2 884.79,2587.21 884.859,2587.2L896.771,2587.2L896.771,2587.25ZM892.105,2604.18L892.149,2604.23L892.058,2604.3M885.575,2622.03L925.626,2622.03L935.688,2596.91L894.976,2596.33C891.842,2604.89 888.708,2613.46 885.575,2622.03ZM885.359,2619.7L890.966,2604.38L885.359,2597.78L885.359,2619.7ZM933.911,2595.89L917.142,2573.86L885.592,2596.51L891.361,2603.3L894.159,2595.65C894.171,2595.62 894.181,2595.6 894.196,2595.57C894.256,2595.47 894.351,2595.39 894.462,2595.35C894.537,2595.32 894.558,2595.33 894.635,2595.32L901.236,2595.42L898.78,2592.6L899.534,2591.95L902.58,2595.44L908.995,2595.53L903.465,2589.05L904.225,2588.4C906.245,2590.77 910.358,2595.55 910.358,2595.55L916.433,2595.63L908.041,2585.39L908.814,2584.76C911.75,2588.34 917.756,2595.65 917.756,2595.65L923.74,2595.74L912.585,2581.94L913.362,2581.31C917.188,2586.05 925.069,2595.76 925.069,2595.76L933.911,2595.89ZM885.359,2588.2L885.359,2595.45L895.451,2588.2L885.359,2588.2Z" style="fill:rgb(173,173,173);"/>
    </g>
</svg>
