<?xml version="1.0" encoding="UTF-8" standalone="no"?>
<!DOCTYPE svg PUBLIC "-//W3C//DTD SVG 1.1//EN" "http://www.w3.org/Graphics/SVG/1.1/DTD/svg11.dtd">
<svg width="100%" height="100%" viewBox="0 0 21 34" version="1.1" xmlns="http://www.w3.org/2000/svg" xmlns:xlink="http://www.w3.org/1999/xlink" xml:space="preserve" style="fill-rule:evenodd;clip-rule:evenodd;stroke-linejoin:round;stroke-miterlimit:1.41421;">
    <g transform="matrix(1,0,0,1,-8618,-9574)">
        <g transform="matrix(1,0,0,1,1.6291,1.69182)">
            <g transform="matrix(1,0,0,1,1.89473,1.62571)">
                <g transform="matrix(0.89286,0,0,0.89286,758.13,1028.55)">
                    <g id="iphone.-blk">
                        <path d="M8801.54,9569.37C8801.48,9569.37 8801.42,9569.39 8801.36,9569.41C8801.21,9569.45 8801.08,9569.58 8801.02,9569.73C8801,9569.79 8800.98,9569.92 8800.98,9569.92L8800.98,9600.83C8800.98,9600.83 8801,9600.95 8801.02,9601C8801.09,9601.15 8801.2,9601.26 8801.35,9601.31C8801.41,9601.33 8801.53,9601.34 8801.53,9601.34L8819.11,9601.34C8819.11,9601.34 8819.24,9601.33 8819.3,9601.3C8819.43,9601.24 8819.54,9601.12 8819.59,9600.98C8819.61,9600.92 8819.63,9600.8 8819.63,9600.8L8819.63,9569.9C8819.63,9569.9 8819.6,9569.76 8819.58,9569.71C8819.49,9569.51 8819.3,9569.38 8819.09,9569.37C8813.24,9569.3 8807.39,9569.37 8801.54,9569.37ZM8810.35,9595.77C8810.63,9595.78 8810.9,9595.84 8811.15,9595.96C8811.54,9596.16 8811.86,9596.48 8812.05,9596.88C8812.14,9597.05 8812.19,9597.24 8812.22,9597.43C8812.25,9597.62 8812.25,9597.83 8812.22,9598.02C8812.19,9598.21 8812.14,9598.4 8812.05,9598.57C8811.95,9598.78 8811.81,9598.98 8811.64,9599.14C8811.47,9599.31 8811.27,9599.44 8811.06,9599.53C8810.82,9599.63 8810.56,9599.68 8810.31,9599.68C8810.05,9599.68 8809.79,9599.63 8809.55,9599.53C8809.33,9599.44 8809.14,9599.31 8808.97,9599.14C8808.8,9598.98 8808.66,9598.78 8808.56,9598.57C8808.47,9598.4 8808.42,9598.21 8808.39,9598.02C8808.36,9597.83 8808.36,9597.62 8808.39,9597.43C8808.42,9597.24 8808.47,9597.05 8808.56,9596.88C8808.75,9596.48 8809.07,9596.16 8809.46,9595.96C8809.71,9595.84 8809.98,9595.78 8810.26,9595.77C8810.31,9595.77 8810.3,9595.77 8810.35,9595.77ZM8810.34,9596.46C8810.51,9596.47 8810.69,9596.5 8810.85,9596.58C8811.21,9596.75 8811.47,9597.1 8811.54,9597.5C8811.57,9597.64 8811.57,9597.78 8811.55,9597.92C8811.53,9598.04 8811.49,9598.17 8811.44,9598.27C8811.37,9598.41 8811.28,9598.54 8811.17,9598.64C8811.06,9598.75 8810.93,9598.83 8810.79,9598.9C8810.64,9598.96 8810.47,9598.99 8810.31,9598.99C8810.14,9598.99 8809.97,9598.96 8809.82,9598.9C8809.68,9598.83 8809.55,9598.75 8809.44,9598.64C8809.33,9598.54 8809.24,9598.41 8809.17,9598.27C8809.12,9598.17 8809.08,9598.04 8809.06,9597.92C8809.04,9597.78 8809.04,9597.64 8809.07,9597.5C8809.14,9597.1 8809.4,9596.75 8809.76,9596.58C8809.92,9596.5 8810.09,9596.47 8810.27,9596.46L8810.34,9596.46ZM8818.11,9594.88C8818.16,9594.88 8818.17,9594.88 8818.21,9594.86C8818.32,9594.83 8818.4,9594.74 8818.43,9594.64C8818.45,9594.59 8818.45,9594.58 8818.45,9594.54L8818.45,9572.68C8818.45,9572.63 8818.45,9572.62 8818.43,9572.57C8818.41,9572.49 8818.34,9572.41 8818.26,9572.37C8818.22,9572.35 8818.21,9572.35 8818.16,9572.34L8802.5,9572.34C8802.45,9572.34 8802.44,9572.34 8802.4,9572.35C8802.29,9572.39 8802.21,9572.47 8802.18,9572.57C8802.16,9572.62 8802.16,9572.63 8802.16,9572.68L8802.16,9594.54C8802.16,9594.58 8802.16,9594.59 8802.18,9594.64C8802.21,9594.74 8802.29,9594.83 8802.4,9594.86C8802.44,9594.88 8802.45,9594.88 8802.5,9594.88L8818.11,9594.88ZM8817.77,9573.03L8817.77,9594.19L8802.84,9594.19L8802.84,9573.03L8817.77,9573.03ZM8811.9,9571.48L8811.9,9570.79L8808.71,9570.79L8808.71,9571.48L8811.9,9571.48Z" style="fill:rgb(114,114,114);"/>
                    </g>
                </g>
                <g transform="matrix(0.709107,0,0,0.895125,2825.33,1008.88)">
                    <rect x="8164" y="9564.92" width="28.271" height="36.874" style="fill:rgb(255,33,33);fill-opacity:0;"/>
                </g>
            </g>
        </g>
    </g>
</svg>
