<?xml version="1.0" encoding="UTF-8" standalone="no"?>
<!DOCTYPE svg PUBLIC "-//W3C//DTD SVG 1.1//EN" "http://www.w3.org/Graphics/SVG/1.1/DTD/svg11.dtd">
<svg width="100%" height="100%" viewBox="0 0 21 33" version="1.1" xmlns="http://www.w3.org/2000/svg" xmlns:xlink="http://www.w3.org/1999/xlink" xml:space="preserve" style="fill-rule:evenodd;clip-rule:evenodd;stroke-linejoin:round;stroke-miterlimit:1.41421;">
    <g transform="matrix(1,0,0,1,-8568,-9574)">
        <g transform="matrix(1,0,0,1,1.6291,1.69182)">
            <g transform="matrix(1,0,0,1,0.526316,1.6073)">
                <g transform="matrix(0.609108,0,0,0.614599,8113.17,8081.11)">
                    <g id="iphone">
                        <path d="M772.488,2424.87C772.488,2424.87 772.851,2424.91 773.025,2424.97C773.527,2425.14 773.939,2425.53 774.134,2426.02C774.212,2426.22 774.26,2426.64 774.26,2426.64L774.26,2471.55C774.26,2471.55 774.218,2471.94 774.15,2472.13C773.967,2472.63 773.565,2473.03 773.067,2473.21C772.881,2473.28 772.489,2473.32 772.489,2473.32L746.699,2473.32C746.699,2473.32 746.306,2473.28 746.12,2473.21C745.637,2473.04 745.242,2472.65 745.053,2472.17C744.975,2471.97 744.928,2471.55 744.928,2471.55L744.928,2426.64C744.928,2426.64 744.975,2426.22 745.053,2426.03C745.248,2425.53 745.66,2425.14 746.163,2424.97C746.336,2424.91 746.7,2424.87 746.7,2424.87L772.488,2424.87ZM746.749,2425.87C746.658,2425.87 746.57,2425.89 746.483,2425.92C746.258,2425.99 746.071,2426.17 745.984,2426.39C745.949,2426.48 745.927,2426.67 745.927,2426.67L745.93,2471.57C745.93,2471.57 745.957,2471.74 745.991,2471.82C746.079,2472.03 746.253,2472.2 746.465,2472.27C746.549,2472.3 746.725,2472.32 746.725,2472.32L772.505,2472.32C772.505,2472.32 772.691,2472.29 772.778,2472.25C772.977,2472.16 773.135,2471.99 773.211,2471.79C773.241,2471.7 773.26,2471.53 773.26,2471.53L773.258,2426.63C773.258,2426.63 773.227,2426.44 773.188,2426.36C773.059,2426.07 772.775,2425.88 772.464,2425.87C763.893,2425.76 755.321,2425.87 746.749,2425.87ZM759.667,2464.22C760.069,2464.23 760.463,2464.32 760.827,2464.5C761.404,2464.78 761.878,2465.25 762.156,2465.83C762.278,2466.08 762.362,2466.35 762.404,2466.63C762.448,2466.91 762.448,2467.21 762.404,2467.49C762.362,2467.77 762.278,2468.04 762.156,2468.29C762.008,2468.6 761.803,2468.88 761.555,2469.12C761.307,2469.36 761.016,2469.55 760.701,2469.68C760.351,2469.83 759.973,2469.9 759.594,2469.9C759.214,2469.9 758.836,2469.83 758.487,2469.68C758.171,2469.55 757.881,2469.36 757.632,2469.12C757.384,2468.88 757.18,2468.6 757.031,2468.29C756.909,2468.04 756.825,2467.77 756.783,2467.49C756.739,2467.21 756.739,2466.91 756.783,2466.63C756.825,2466.35 756.909,2466.08 757.031,2465.83C757.309,2465.25 757.784,2464.78 758.361,2464.5C758.724,2464.32 759.118,2464.23 759.521,2464.22C759.594,2464.22 759.593,2464.22 759.667,2464.22ZM759.546,2465.22C759.286,2465.23 759.031,2465.28 758.795,2465.4C758.268,2465.65 757.882,2466.16 757.779,2466.73C757.743,2466.93 757.741,2467.14 757.772,2467.34C757.799,2467.52 757.853,2467.7 757.932,2467.86C758.028,2468.06 758.161,2468.24 758.322,2468.39C758.483,2468.55 758.672,2468.67 758.877,2468.76C759.103,2468.86 759.348,2468.9 759.594,2468.9C759.839,2468.9 760.084,2468.86 760.31,2468.76C760.516,2468.67 760.704,2468.55 760.865,2468.39C761.026,2468.24 761.159,2468.06 761.256,2467.86C761.334,2467.7 761.388,2467.52 761.416,2467.34C761.447,2467.14 761.444,2466.93 761.408,2466.73C761.305,2466.16 760.919,2465.65 760.392,2465.4C760.157,2465.28 759.902,2465.23 759.641,2465.22C759.593,2465.22 759.594,2465.22 759.546,2465.22ZM771.033,2462.93L748.154,2462.93C748.085,2462.92 748.066,2462.92 748,2462.9C747.849,2462.85 747.728,2462.73 747.678,2462.58C747.657,2462.51 747.659,2462.49 747.654,2462.43L747.654,2430.68C747.659,2430.61 747.657,2430.59 747.678,2430.52C747.728,2430.37 747.849,2430.25 748,2430.2C748.066,2430.18 748.085,2430.18 748.154,2430.18L771.112,2430.18C771.179,2430.2 771.198,2430.2 771.26,2430.23C771.378,2430.29 771.468,2430.4 771.509,2430.52C771.531,2430.59 771.528,2430.61 771.533,2430.68L771.533,2462.43C771.528,2462.49 771.531,2462.51 771.509,2462.58C771.46,2462.73 771.339,2462.85 771.188,2462.9C771.121,2462.92 771.103,2462.92 771.033,2462.93ZM770.533,2431.18L748.654,2431.18L748.654,2461.93L770.533,2461.93L770.533,2431.18ZM761.937,2428.93L757.25,2428.93L757.25,2427.93L761.937,2427.93L761.937,2428.93Z" style="fill:rgb(173,173,173);"/>
                    </g>
                </g>
                <g transform="matrix(0.707455,0,0,0.894626,2790.19,1013.68)">
                    <rect x="8164" y="9564.92" width="28.271" height="36.874" style="fill:rgb(255,33,33);fill-opacity:0;"/>
                </g>
            </g>
        </g>
    </g>
</svg>
