<?xml version="1.0" encoding="UTF-8" standalone="no"?>
<!DOCTYPE svg PUBLIC "-//W3C//DTD SVG 1.1//EN" "http://www.w3.org/Graphics/SVG/1.1/DTD/svg11.dtd">
<svg width="100%" height="100%" viewBox="0 0 37 41" version="1.1" xmlns="http://www.w3.org/2000/svg" xmlns:xlink="http://www.w3.org/1999/xlink" xml:space="preserve" style="fill-rule:evenodd;clip-rule:evenodd;stroke-linejoin:round;stroke-miterlimit:1.41421;">
    <g transform="matrix(1,0,0,1,-8458,-9566)">
        <g transform="matrix(1,0,0,1,1.6291,1.69182)">
            <g transform="matrix(1,0,0,1,0.354826,0.643853)">
                <g transform="matrix(0.627214,0,0,0.626329,7904.37,8052.21)">
                    <g id="social">
                        <path d="M913.339,2422.59L916.68,2414.57C916.709,2414.51 916.714,2414.49 916.754,2414.44C916.816,2414.37 916.898,2414.31 916.991,2414.28C917.052,2414.26 917.069,2414.26 917.133,2414.26C917.157,2414.26 917.181,2414.26 917.205,2414.26C917.268,2414.28 917.285,2414.28 917.345,2414.3C917.404,2414.33 917.415,2414.34 917.467,2414.38L937.229,2431.27C937.246,2431.29 937.265,2431.3 937.28,2431.32C937.328,2431.38 937.363,2431.44 937.384,2431.51C937.447,2431.72 937.36,2431.95 937.176,2432.07C937.115,2432.11 937.047,2432.14 936.976,2432.14C936.952,2432.15 936.928,2432.15 936.905,2432.15L924.24,2432.15C924.353,2432.25 924.465,2432.35 924.575,2432.45C925.381,2433.18 926.131,2433.97 926.807,2434.83C927.61,2435.84 928.307,2436.94 928.863,2438.11C929.527,2439.51 929.984,2441.01 930.19,2442.54C930.317,2443.48 930.35,2444.44 930.289,2445.39C930.237,2446.2 930.116,2447.01 929.928,2447.8C929.835,2448.19 929.724,2448.58 929.601,2448.96L929.553,2449.11L929.523,2449.2C929.952,2449.45 930.365,2449.73 930.757,2450.03C931.102,2450.3 931.432,2450.6 931.743,2450.9C933.713,2452.85 934.925,2455.47 935.427,2458.17C935.521,2458.68 935.59,2459.18 935.635,2459.69C935.686,2460.28 935.709,2460.88 935.676,2461.48C935.628,2462.35 935.467,2463.21 935.199,2464.04C934.975,2464.74 934.675,2465.41 934.28,2466.03C934.096,2466.32 933.892,2466.59 933.665,2466.85C933.495,2467.04 933.313,2467.22 933.119,2467.38C932.956,2467.52 932.785,2467.65 932.606,2467.76C932.467,2467.85 932.323,2467.94 932.175,2468.01C931.544,2468.34 930.812,2468.58 930.096,2468.44C929.998,2468.42 929.901,2468.39 929.807,2468.36C929.671,2468.31 929.541,2468.25 929.419,2468.17C929.264,2468.07 929.123,2467.94 928.999,2467.81C928.626,2467.39 928.409,2466.86 928.273,2466.32C928.204,2466.05 928.155,2465.78 928.121,2465.5C927.968,2465.68 927.806,2465.86 927.636,2466.03C927.011,2466.64 926.272,2467.13 925.467,2467.47C924.633,2467.82 923.734,2468.01 922.829,2468.02C921.922,2468.03 921.013,2467.87 920.169,2467.53C919.616,2467.31 919.092,2467.03 918.613,2466.68C917.841,2466.11 917.186,2465.39 916.7,2464.57C916.337,2463.96 916.068,2463.29 915.908,2462.59C915.747,2461.9 915.695,2461.18 915.748,2460.47C915.803,2459.75 915.972,2459.03 916.247,2458.36C916.556,2457.6 917,2456.9 917.55,2456.3C918.136,2455.65 918.843,2455.12 919.624,2454.73C920.216,2454.43 920.849,2454.22 921.499,2454.11C921.82,2454.05 922.143,2454.02 922.468,2454C922.589,2454 922.709,2454 922.829,2454C923.127,2454 923.424,2454.02 923.719,2454.07C924.404,2454.16 925.074,2454.36 925.701,2454.65C927.081,2455.3 928.232,2456.39 928.943,2457.74C929.264,2458.35 929.495,2459.01 929.624,2459.68C929.764,2460.41 929.787,2461.16 929.694,2461.9C929.602,2462.62 929.4,2463.32 929.094,2463.97C929.081,2464 929.068,2464.03 929.055,2464.05C929.05,2464.27 929.05,2464.49 929.059,2464.71C929.068,2464.91 929.083,2465.12 929.107,2465.33C929.124,2465.47 929.146,2465.61 929.172,2465.76C929.192,2465.86 929.215,2465.97 929.242,2466.08C929.264,2466.16 929.288,2466.25 929.316,2466.33C929.337,2466.4 929.359,2466.46 929.384,2466.52C929.516,2466.86 929.717,2467.21 930.052,2467.38C930.105,2467.41 930.161,2467.43 930.218,2467.44C930.309,2467.47 930.405,2467.48 930.5,2467.48C930.686,2467.48 930.872,2467.45 931.051,2467.4C931.328,2467.32 931.593,2467.2 931.845,2467.05C932.189,2466.86 932.5,2466.62 932.774,2466.34C933.26,2465.84 933.633,2465.23 933.918,2464.6C934.337,2463.67 934.583,2462.65 934.663,2461.64C934.699,2461.18 934.695,2460.73 934.673,2460.28C934.642,2459.68 934.573,2459.08 934.468,2458.49C934.034,2456.03 932.982,2453.64 931.248,2451.83C931.008,2451.57 930.756,2451.34 930.492,2451.11C929.863,2450.57 929.169,2450.11 928.43,2449.74C927.778,2449.41 927.091,2449.15 926.387,2448.96C925.2,2448.64 923.967,2448.5 922.739,2448.5C921.392,2448.5 920.039,2448.66 918.748,2449.06C918.006,2449.28 917.287,2449.58 916.61,2449.96C915.894,2450.36 915.226,2450.84 914.625,2451.39C913.379,2452.55 912.432,2453.99 911.786,2455.55C910.916,2457.66 910.565,2459.97 910.75,2462.24C910.82,2463.09 910.967,2463.94 911.21,2464.77C911.507,2465.77 911.949,2466.74 912.542,2467.61C912.896,2468.13 913.303,2468.62 913.754,2469.05C914.072,2469.37 914.413,2469.65 914.772,2469.92C915.06,2470.13 915.361,2470.33 915.67,2470.51C917.789,2471.74 920.292,2472.22 922.725,2472.15C923.132,2472.14 923.539,2472.11 923.944,2472.07C925.113,2471.96 926.285,2471.73 927.376,2471.28C927.699,2471.15 928.015,2471 928.316,2470.82C928.512,2470.71 928.702,2470.58 928.876,2470.44L928.894,2470.42L928.91,2470.41L929.59,2471.14C929.415,2471.3 929.217,2471.44 929.016,2471.57C928.714,2471.76 928.395,2471.93 928.068,2472.08C926.922,2472.59 925.678,2472.88 924.435,2473.03C923.951,2473.08 923.464,2473.12 922.977,2473.14C920.477,2473.23 917.922,2472.81 915.685,2471.66C915.335,2471.47 914.993,2471.28 914.663,2471.06C914.253,2470.79 913.86,2470.49 913.49,2470.17C913.005,2469.75 912.56,2469.28 912.16,2468.78C911.389,2467.8 910.799,2466.69 910.4,2465.52C910.118,2464.69 909.929,2463.83 909.82,2462.96C908.776,2463.1 907.727,2463.19 906.674,2463.23C906.036,2463.25 905.397,2463.26 904.759,2463.23C904.178,2463.21 903.598,2463.15 903.02,2463.09C902.268,2463 901.519,2462.89 900.772,2462.76C899.141,2462.49 897.522,2462.16 895.911,2461.78C895.807,2461.92 895.701,2462.05 895.594,2462.18C894.896,2463.02 894.128,2463.8 893.287,2464.49C891.824,2465.71 890.162,2466.66 888.393,2467.35C887.699,2467.62 886.988,2467.85 886.268,2468.04C886.036,2468.1 885.804,2468.16 885.571,2468.21C885.529,2468.22 885.272,2468.28 885.228,2468.29C885.138,2468.31 885.05,2468.3 884.962,2468.28C884.759,2468.21 884.62,2468.01 884.623,2467.8C884.624,2467.7 884.65,2467.62 884.697,2467.54C884.712,2467.51 884.733,2467.49 884.751,2467.47C884.856,2467.35 884.855,2467.35 884.959,2467.23C885.125,2467.03 885.287,2466.84 885.439,2466.63C885.744,2466.21 886.016,2465.78 886.252,2465.32C887.023,2463.83 887.384,2462.16 887.45,2460.48C887.492,2459.41 887.413,2458.35 887.268,2457.28L887.263,2457.25C887.119,2457.13 886.979,2457 886.839,2456.87C886.693,2456.74 886.548,2456.6 886.405,2456.46C885.418,2455.49 884.503,2454.45 883.689,2453.34C883.114,2452.55 882.59,2451.72 882.139,2450.85C881.414,2449.46 880.874,2447.96 880.673,2446.39C880.611,2445.91 880.582,2445.42 880.589,2444.93C880.595,2444.48 880.634,2444.03 880.687,2443.58C880.758,2442.98 880.862,2442.39 880.999,2441.8C881.57,2439.35 882.706,2437.06 884.233,2435.07C885.367,2433.59 886.71,2432.28 888.188,2431.14C888.818,2430.66 889.472,2430.21 890.147,2429.8C893.121,2427.95 896.473,2426.76 899.913,2426.15C901.693,2425.84 903.497,2425.69 905.304,2425.67C905.413,2425.67 905.522,2425.67 905.631,2425.67C906.177,2425.68 906.722,2425.7 907.267,2425.72L905.385,2420.88L905.371,2420.84C905.357,2420.78 905.348,2420.72 905.353,2420.66C905.368,2420.47 905.485,2420.31 905.653,2420.24C905.709,2420.21 905.766,2420.2 905.827,2420.2C905.872,2420.2 905.872,2420.2 905.917,2420.2C905.961,2420.21 905.961,2420.21 906.005,2420.22L913.339,2422.59ZM928.107,2463.71C928.312,2463.31 928.471,2462.88 928.579,2462.44C928.73,2461.82 928.781,2461.18 928.732,2460.55C928.685,2459.93 928.541,2459.31 928.306,2458.74C928.04,2458.09 927.659,2457.49 927.188,2456.97C926.685,2456.41 926.079,2455.95 925.409,2455.62C924.902,2455.37 924.36,2455.19 923.803,2455.09C923.528,2455.04 923.251,2455.01 922.972,2455C922.868,2455 922.765,2455 922.661,2455C922.431,2455 922.202,2455.02 921.973,2455.05C921.361,2455.12 920.76,2455.3 920.201,2455.56C918.95,2456.14 917.921,2457.16 917.321,2458.4C917.096,2458.87 916.933,2459.36 916.836,2459.87C916.716,2460.5 916.696,2461.14 916.776,2461.77C916.854,2462.39 917.028,2462.99 917.29,2463.55C917.596,2464.2 918.023,2464.8 918.541,2465.31C919.076,2465.83 919.71,2466.26 920.4,2466.55C921.115,2466.85 921.886,2467.01 922.661,2467.02C923.439,2467.03 924.218,2466.89 924.942,2466.6C925.483,2466.39 925.991,2466.1 926.449,2465.74C927.119,2465.21 927.671,2464.54 928.065,2463.79L928.066,2463.78L928.071,2463.71L928.107,2463.71ZM907.665,2426.75C907.523,2426.74 907.382,2426.73 907.241,2426.72C906.973,2426.71 906.705,2426.7 906.437,2426.69C904.8,2426.64 903.16,2426.71 901.535,2426.92C898.485,2427.3 895.485,2428.15 892.724,2429.51C892.023,2429.86 891.338,2430.23 890.673,2430.64C890.026,2431.05 889.399,2431.48 888.796,2431.94C887.388,2433.02 886.107,2434.27 885.026,2435.68C883.609,2437.52 882.545,2439.65 881.999,2441.91C881.867,2442.47 881.764,2443.02 881.694,2443.59C881.637,2444.04 881.595,2444.49 881.589,2444.94C881.581,2445.43 881.615,2445.93 881.685,2446.41C881.945,2448.23 882.698,2449.95 883.658,2451.5C884.35,2452.62 885.158,2453.67 886.04,2454.64C886.647,2455.31 887.29,2455.96 887.975,2456.55L888.053,2456.61C888.074,2456.63 888.097,2456.65 888.116,2456.68C888.154,2456.72 888.184,2456.78 888.204,2456.83C888.213,2456.86 888.218,2456.89 888.225,2456.92C888.258,2457.14 888.258,2457.14 888.288,2457.37C888.404,2458.28 888.473,2459.2 888.46,2460.12C888.435,2461.79 888.152,2463.46 887.504,2465C887.305,2465.47 887.073,2465.93 886.808,2466.37C886.692,2466.57 886.568,2466.76 886.442,2466.94L886.431,2466.96C888.498,2466.36 890.464,2465.41 892.174,2464.1C892.89,2463.55 893.559,2462.95 894.173,2462.29C894.525,2461.91 894.857,2461.51 895.174,2461.11L895.243,2461.01L895.312,2460.92L895.367,2460.86C895.389,2460.84 895.409,2460.83 895.432,2460.81C895.501,2460.76 895.581,2460.73 895.664,2460.73C895.737,2460.72 895.756,2460.73 895.828,2460.74C896.17,2460.82 896.513,2460.9 896.856,2460.97C898.408,2461.32 899.968,2461.63 901.538,2461.87C902.621,2462.04 903.711,2462.18 904.806,2462.24C905.416,2462.26 906.027,2462.25 906.638,2462.23C907.672,2462.19 908.702,2462.1 909.728,2461.97C909.694,2461.38 909.691,2460.8 909.722,2460.22C909.758,2459.57 909.835,2458.93 909.95,2458.29C910.413,2455.74 911.501,2453.27 913.26,2451.35C913.553,2451.03 913.864,2450.72 914.191,2450.44C914.655,2450.04 915.152,2449.67 915.676,2449.35C916.932,2448.57 918.333,2448.05 919.779,2447.77C920.681,2447.6 921.596,2447.52 922.513,2447.5C922.739,2447.5 922.739,2447.5 922.965,2447.5C923.33,2447.51 923.695,2447.52 924.06,2447.55C924.741,2447.61 925.419,2447.71 926.085,2447.86C926.878,2448.03 927.654,2448.29 928.396,2448.62C928.473,2448.65 928.55,2448.69 928.627,2448.72C928.649,2448.66 928.671,2448.59 928.693,2448.52C928.734,2448.39 928.775,2448.25 928.814,2448.11C928.914,2447.75 929.002,2447.38 929.074,2447.01C929.218,2446.27 929.299,2445.51 929.315,2444.75C929.334,2443.91 929.272,2443.07 929.132,2442.23C928.899,2440.84 928.444,2439.5 927.811,2438.24C927.244,2437.11 926.537,2436.05 925.727,2435.09C925.086,2434.32 924.381,2433.6 923.629,2432.94C923.316,2432.67 922.993,2432.41 922.665,2432.15L910.104,2432.15C910.032,2432.14 909.967,2432.14 909.9,2432.11C909.779,2432.05 909.686,2431.95 909.639,2431.83L909.638,2431.83L907.665,2426.75ZM911.969,2441.59C912.282,2441.6 912.588,2441.67 912.871,2441.81C913.504,2442.11 913.965,2442.72 914.088,2443.41C914.128,2443.63 914.134,2443.86 914.105,2444.08C914.077,2444.3 914.018,2444.51 913.927,2444.71C913.817,2444.95 913.664,2445.17 913.475,2445.36C913.287,2445.55 913.064,2445.7 912.822,2445.81C912.554,2445.93 912.263,2446 911.969,2446.01C911.673,2446.02 911.377,2445.97 911.101,2445.86C910.853,2445.76 910.623,2445.62 910.425,2445.43C910.228,2445.26 910.064,2445.04 909.943,2444.81C909.844,2444.61 909.774,2444.4 909.735,2444.19C909.696,2443.97 909.69,2443.74 909.719,2443.52C909.808,2442.82 910.239,2442.19 910.858,2441.86C911.132,2441.71 911.432,2441.62 911.742,2441.59C911.818,2441.59 911.893,2441.59 911.969,2441.59ZM898.549,2441.59C898.862,2441.6 899.168,2441.67 899.451,2441.81C900.067,2442.1 900.521,2442.68 900.658,2443.35C900.703,2443.57 900.715,2443.8 900.692,2444.03C900.668,2444.26 900.605,2444.49 900.508,2444.71C900.398,2444.95 900.244,2445.17 900.056,2445.36C899.867,2445.55 899.645,2445.7 899.402,2445.81C899.134,2445.93 898.843,2446 898.549,2446.01C898.253,2446.02 897.957,2445.97 897.681,2445.86C897.433,2445.76 897.203,2445.62 897.005,2445.43C896.809,2445.26 896.644,2445.04 896.523,2444.81C896.424,2444.61 896.354,2444.4 896.315,2444.19C896.276,2443.97 896.27,2443.74 896.299,2443.52C896.388,2442.82 896.819,2442.19 897.438,2441.86C897.712,2441.71 898.012,2441.62 898.322,2441.59C898.398,2441.59 898.473,2441.59 898.549,2441.59ZM905.259,2441.59C905.572,2441.6 905.878,2441.67 906.161,2441.81C906.794,2442.11 907.255,2442.72 907.379,2443.41C907.418,2443.63 907.424,2443.86 907.395,2444.08C907.368,2444.3 907.308,2444.51 907.217,2444.71C907.108,2444.95 906.954,2445.17 906.765,2445.36C906.577,2445.55 906.355,2445.7 906.112,2445.81C905.844,2445.93 905.553,2446 905.259,2446.01C904.963,2446.02 904.667,2445.97 904.391,2445.86C904.143,2445.76 903.913,2445.62 903.715,2445.43C903.518,2445.26 903.354,2445.04 903.233,2444.81C903.134,2444.61 903.064,2444.4 903.025,2444.19C902.986,2443.97 902.98,2443.74 903.009,2443.52C903.098,2442.82 903.529,2442.19 904.148,2441.86C904.422,2441.71 904.722,2441.62 905.032,2441.59C905.108,2441.59 905.183,2441.59 905.259,2441.59ZM910.854,2431.15L935.55,2431.15L917.339,2415.59C915.177,2420.77 913.016,2425.96 910.854,2431.15ZM910.121,2430.31L912.953,2423.51L906.698,2421.49L910.121,2430.31Z" style="fill:rgb(173,173,173);"/>
                    </g>
                </g>
                <g transform="matrix(1.30795,0,0,1.08545,-2222.05,-818.6)">
                    <rect x="8164" y="9564.92" width="28.271" height="36.874" style="fill:rgb(255,33,33);fill-opacity:0;"/>
                </g>
            </g>
        </g>
    </g>
</svg>
