<?xml version="1.0" encoding="UTF-8" standalone="no"?>
<!DOCTYPE svg PUBLIC "-//W3C//DTD SVG 1.1//EN" "http://www.w3.org/Graphics/SVG/1.1/DTD/svg11.dtd">
<svg width="100%" height="100%" viewBox="0 0 30 40" version="1.1" xmlns="http://www.w3.org/2000/svg" xmlns:xlink="http://www.w3.org/1999/xlink" xml:space="preserve" style="fill-rule:evenodd;clip-rule:evenodd;stroke-linejoin:round;stroke-miterlimit:1.41421;">
    <g transform="matrix(1,0,0,1,-8208,-9566)">
        <g transform="matrix(1,0,0,1,1.6291,1.69182)">
            <g transform="matrix(1,0,0,1,1.11123,0.579602)">
                <g transform="matrix(1,0,0,1,-4.13305,1.10225)">
                    <path d="M8211.02,9564.68C8210.96,9564.68 8210.9,9564.69 8210.84,9564.71C8210.69,9564.76 8210.56,9564.89 8210.5,9565.04C8210.48,9565.1 8210.46,9565.23 8210.46,9565.23L8210.46,9599.59C8210.46,9599.59 8210.48,9599.71 8210.51,9599.77C8210.57,9599.91 8210.68,9600.03 8210.83,9600.08C8210.89,9600.1 8211.01,9600.11 8211.01,9600.11L8236.82,9600.11C8236.82,9600.11 8236.94,9600.09 8237,9600.06C8237.14,9600 8237.24,9599.88 8237.3,9599.75C8237.32,9599.68 8237.33,9599.57 8237.33,9599.57L8237.33,9565.2C8237.33,9565.2 8237.31,9565.07 8237.28,9565.02C8237.19,9564.82 8237,9564.69 8236.79,9564.68C8230.94,9564.6 8216.87,9564.68 8211.02,9564.68ZM8223.94,9594.54C8224.21,9594.54 8224.48,9594.6 8224.73,9594.73C8225.12,9594.92 8225.45,9595.25 8225.64,9595.64C8225.72,9595.82 8225.78,9596 8225.81,9596.19C8225.84,9596.39 8225.84,9596.59 8225.81,9596.79C8225.78,9596.98 8225.72,9597.17 8225.64,9597.34C8225.54,9597.55 8225.4,9597.74 8225.23,9597.91C8225.06,9598.07 8224.86,9598.2 8224.65,9598.29C8224.41,9598.4 8224.15,9598.44 8223.89,9598.44C8223.63,9598.44 8223.37,9598.4 8223.14,9598.29C8222.92,9598.2 8222.72,9598.07 8222.55,9597.91C8222.38,9597.74 8222.24,9597.55 8222.14,9597.34C8222.06,9597.17 8222,9596.98 8221.97,9596.79C8221.94,9596.59 8221.94,9596.39 8221.97,9596.19C8222,9596 8222.06,9595.82 8222.14,9595.64C8222.33,9595.25 8222.66,9594.92 8223.05,9594.73C8223.3,9594.6 8223.57,9594.54 8223.84,9594.54C8223.89,9594.54 8223.89,9594.54 8223.94,9594.54ZM8223.92,9595.22C8224.1,9595.23 8224.27,9595.26 8224.43,9595.35C8224.79,9595.52 8225.06,9595.87 8225.13,9596.26C8225.15,9596.4 8225.16,9596.55 8225.13,9596.68C8225.11,9596.81 8225.08,9596.93 8225.02,9597.04C8224.96,9597.18 8224.87,9597.3 8224.76,9597.41C8224.65,9597.52 8224.52,9597.6 8224.38,9597.66C8224.23,9597.73 8224.06,9597.76 8223.89,9597.76C8223.72,9597.76 8223.56,9597.73 8223.4,9597.66C8223.26,9597.6 8223.13,9597.52 8223.02,9597.41C8222.91,9597.3 8222.82,9597.18 8222.76,9597.04C8222.7,9596.93 8222.67,9596.81 8222.65,9596.68C8222.63,9596.55 8222.63,9596.4 8222.65,9596.26C8222.72,9595.87 8222.99,9595.52 8223.34,9595.35C8223.51,9595.26 8223.68,9595.23 8223.86,9595.22L8223.92,9595.22ZM8235.81,9593.65C8235.86,9593.64 8235.87,9593.64 8235.92,9593.63C8236.02,9593.59 8236.1,9593.51 8236.14,9593.41C8236.15,9593.36 8236.15,9593.34 8236.15,9593.3L8236.15,9566.18C8236.15,9566.14 8236.15,9566.12 8236.14,9566.07C8236.11,9565.99 8236.05,9565.92 8235.97,9565.88C8235.92,9565.85 8235.91,9565.85 8235.86,9565.84L8211.98,9565.84C8211.93,9565.84 8211.92,9565.84 8211.88,9565.85C8211.77,9565.89 8211.69,9565.97 8211.66,9566.07C8211.64,9566.12 8211.64,9566.14 8211.64,9566.18L8211.64,9593.3C8211.64,9593.34 8211.64,9593.36 8211.66,9593.41C8211.69,9593.51 8211.77,9593.59 8211.88,9593.63C8211.92,9593.64 8211.93,9593.64 8211.98,9593.65L8235.81,9593.65ZM8235.47,9566.53L8235.47,9592.96L8212.32,9592.96L8212.32,9566.53L8235.47,9566.53Z" style="fill:rgb(114,114,114);"/>
                </g>
                <g transform="matrix(1.02601,0,0,1.08371,-171.061,-801.87)">
                    <rect x="8164" y="9564.92" width="28.271" height="36.874" style="fill:rgb(255,33,33);fill-opacity:0;"/>
                </g>
            </g>
        </g>
    </g>
</svg>
