<?xml version="1.0" encoding="UTF-8" standalone="no"?>
<!DOCTYPE svg PUBLIC "-//W3C//DTD SVG 1.1//EN" "http://www.w3.org/Graphics/SVG/1.1/DTD/svg11.dtd">
<svg width="100%" height="100%" viewBox="0 0 35 29" version="1.1" xmlns="http://www.w3.org/2000/svg" xmlns:xlink="http://www.w3.org/1999/xlink" xml:space="preserve" style="fill-rule:evenodd;clip-rule:evenodd;stroke-linejoin:round;stroke-miterlimit:1.41421;">
    <g transform="matrix(1,0,0,1,-8650.04,-9578)">
        <g transform="matrix(1,0,0,1,1.6291,1.69182)">
            <g transform="matrix(1,0,0,1,0,0.665485)">
                <g transform="matrix(1.23672,0,0,0.760607,-1448.19,2300.5)">
                    <rect x="8164" y="9564.92" width="28.271" height="36.874" style="fill:rgb(255,33,33);fill-opacity:0;"/>
                </g>
                <g transform="matrix(0.593846,0,0,0.593846,8309.18,8047.14)">
                    <g id="web">
                        <path d="M628.361,2616.97L572.992,2616.97C572.906,2616.96 572.882,2616.97 572.801,2616.93C572.679,2616.88 572.581,2616.78 572.531,2616.66C572.497,2616.58 572.492,2616.47 572.492,2616.47L572.493,2577.65C572.493,2577.65 572.549,2577.16 572.641,2576.93C572.857,2576.38 573.3,2575.93 573.847,2575.72C574.081,2575.63 574.577,2575.57 574.577,2575.57L626.777,2575.57C626.777,2575.57 627.273,2575.63 627.507,2575.72C628.087,2575.95 628.549,2576.43 628.749,2577.02C628.824,2577.24 628.861,2577.71 628.861,2577.71L628.861,2616.47C628.861,2616.47 628.857,2616.58 628.823,2616.66C628.773,2616.78 628.675,2616.88 628.553,2616.93C628.472,2616.97 628.361,2616.97 628.361,2616.97ZM627.861,2583.13L573.492,2583.13L573.492,2615.97L627.861,2615.97L627.861,2583.13ZM574.635,2576.57C574.635,2576.57 574.367,2576.59 574.24,2576.64C573.919,2576.76 573.662,2577.02 573.552,2577.34C573.512,2577.46 573.494,2577.59 573.492,2577.71L573.492,2582.13L627.861,2582.13C627.861,2582.13 627.917,2579.14 627.86,2577.65C627.851,2577.51 627.82,2577.37 627.761,2577.24C627.624,2576.94 627.354,2576.7 627.034,2576.61C626.931,2576.58 626.719,2576.57 626.719,2576.57L574.635,2576.57ZM576.751,2577.96C577.609,2577.96 578.306,2578.66 578.306,2579.52C578.306,2580.38 577.609,2581.07 576.751,2581.07C575.893,2581.07 575.196,2580.38 575.196,2579.52C575.196,2578.66 575.893,2577.96 576.751,2577.96ZM580.986,2577.96C581.845,2577.96 582.541,2578.66 582.541,2579.52C582.541,2580.38 581.845,2581.07 580.986,2581.07C580.128,2581.07 579.432,2580.38 579.432,2579.52C579.432,2578.66 580.128,2577.96 580.986,2577.96ZM585.222,2577.96C586.08,2577.96 586.777,2578.66 586.777,2579.52C586.777,2580.38 586.08,2581.07 585.222,2581.07C584.364,2581.07 583.667,2580.38 583.667,2579.52C583.667,2578.66 584.364,2577.96 585.222,2577.96Z" style="fill:rgb(173,173,173);"/>
                    </g>
                </g>
            </g>
        </g>
    </g>
</svg>
