<?xml version="1.0" encoding="UTF-8" standalone="no"?>
<!DOCTYPE svg PUBLIC "-//W3C//DTD SVG 1.1//EN" "http://www.w3.org/Graphics/SVG/1.1/DTD/svg11.dtd">
<svg width="100%" height="100%" viewBox="0 0 29 41" version="1.1" xmlns="http://www.w3.org/2000/svg" xmlns:xlink="http://www.w3.org/1999/xlink" xml:space="preserve" style="fill-rule:evenodd;clip-rule:evenodd;stroke-linejoin:round;stroke-miterlimit:1.41421;">
    <g transform="matrix(1,0,0,1,-8164,-9566)">
        <g transform="matrix(1,0,0,1,1.6291,1.69182)">
            <g transform="matrix(1,0,0,1,1.27273,0.644309)">
                <g transform="matrix(0.682198,0,0,0.688348,7653.28,7898.71)">
                    <g id="ipad">
                        <path d="M784.539,2419.85C784.539,2419.85 784.902,2419.89 785.076,2419.95C785.578,2420.12 785.99,2420.51 786.185,2421C786.263,2421.2 786.311,2421.62 786.311,2421.62L786.311,2471.55C786.311,2471.55 786.269,2471.94 786.201,2472.13C786.018,2472.63 785.616,2473.03 785.118,2473.21C784.932,2473.28 784.54,2473.32 784.54,2473.32L746.699,2473.32C746.699,2473.32 746.306,2473.28 746.12,2473.21C745.637,2473.04 745.242,2472.65 745.053,2472.17C744.975,2471.97 744.928,2471.55 744.928,2471.55L744.928,2421.62C744.928,2421.62 744.975,2421.2 745.053,2421.01C745.248,2420.51 745.66,2420.12 746.163,2419.95C746.336,2419.89 746.7,2419.85 746.7,2419.85L784.539,2419.85ZM746.749,2420.85C746.658,2420.85 746.57,2420.87 746.483,2420.9C746.258,2420.97 746.071,2421.15 745.984,2421.37C745.949,2421.46 745.927,2421.65 745.927,2421.65L745.93,2471.57C745.93,2471.57 745.957,2471.74 745.991,2471.82C746.079,2472.03 746.253,2472.2 746.465,2472.27C746.549,2472.3 746.725,2472.32 746.725,2472.32L784.556,2472.32C784.556,2472.32 784.742,2472.29 784.829,2472.25C785.028,2472.16 785.186,2471.99 785.262,2471.79C785.292,2471.7 785.311,2471.53 785.311,2471.53L785.309,2421.61C785.309,2421.61 785.278,2421.42 785.239,2421.34C785.11,2421.05 784.826,2420.86 784.515,2420.85C775.944,2420.74 755.321,2420.85 746.749,2420.85ZM765.684,2464.22C766.086,2464.23 766.48,2464.32 766.844,2464.5C767.421,2464.78 767.895,2465.25 768.173,2465.83C768.295,2466.08 768.379,2466.35 768.421,2466.63C768.465,2466.91 768.465,2467.21 768.421,2467.49C768.379,2467.77 768.295,2468.04 768.173,2468.29C768.025,2468.6 767.82,2468.88 767.572,2469.12C767.324,2469.36 767.033,2469.55 766.718,2469.68C766.368,2469.83 765.99,2469.9 765.611,2469.9C765.231,2469.9 764.853,2469.83 764.504,2469.68C764.188,2469.55 763.898,2469.36 763.649,2469.12C763.401,2468.88 763.197,2468.6 763.048,2468.29C762.926,2468.04 762.842,2467.77 762.8,2467.49C762.756,2467.21 762.756,2466.91 762.8,2466.63C762.842,2466.35 762.926,2466.08 763.048,2465.83C763.326,2465.25 763.801,2464.78 764.378,2464.5C764.741,2464.32 765.135,2464.23 765.538,2464.22C765.611,2464.22 765.61,2464.22 765.684,2464.22ZM765.563,2465.22C765.303,2465.23 765.048,2465.28 764.812,2465.4C764.285,2465.65 763.899,2466.16 763.796,2466.73C763.76,2466.93 763.758,2467.14 763.789,2467.34C763.816,2467.52 763.87,2467.7 763.949,2467.86C764.045,2468.06 764.178,2468.24 764.339,2468.39C764.5,2468.55 764.689,2468.67 764.894,2468.76C765.12,2468.86 765.365,2468.9 765.611,2468.9C765.856,2468.9 766.101,2468.86 766.327,2468.76C766.533,2468.67 766.721,2468.55 766.882,2468.39C767.043,2468.24 767.176,2468.06 767.273,2467.86C767.351,2467.7 767.405,2467.52 767.433,2467.34C767.464,2467.14 767.461,2466.93 767.425,2466.73C767.322,2466.16 766.936,2465.65 766.409,2465.4C766.174,2465.28 765.919,2465.23 765.658,2465.22C765.61,2465.22 765.611,2465.22 765.563,2465.22ZM783.084,2462.93L748.154,2462.93C748.085,2462.92 748.066,2462.92 748,2462.9C747.849,2462.85 747.728,2462.73 747.678,2462.58C747.657,2462.51 747.659,2462.49 747.654,2462.43L747.654,2423.03C747.659,2422.96 747.657,2422.94 747.678,2422.87C747.728,2422.72 747.849,2422.6 748,2422.55C748.066,2422.53 748.085,2422.53 748.154,2422.53L783.163,2422.53C783.23,2422.55 783.249,2422.55 783.311,2422.58C783.429,2422.64 783.519,2422.75 783.56,2422.87C783.582,2422.94 783.579,2422.96 783.584,2423.03L783.584,2462.43C783.579,2462.49 783.582,2462.51 783.56,2462.58C783.511,2462.73 783.39,2462.85 783.239,2462.9C783.172,2462.92 783.154,2462.92 783.084,2462.93ZM782.584,2423.53L748.654,2423.53L748.654,2461.93L782.584,2461.93L782.584,2423.53Z" style="fill:rgb(173,173,173);"/>
                    </g>
                </g>
                <g transform="matrix(1.02444,0,0,1.08546,-202.463,-818.719)">
                    <rect x="8164" y="9564.92" width="28.271" height="36.874" style="fill:rgb(255,33,33);fill-opacity:0;"/>
                </g>
            </g>
        </g>
    </g>
</svg>
