<?xml version="1.0" encoding="UTF-8" standalone="no"?>
<!DOCTYPE svg PUBLIC "-//W3C//DTD SVG 1.1//EN" "http://www.w3.org/Graphics/SVG/1.1/DTD/svg11.dtd">
<svg width="100%" height="100%" viewBox="0 0 39 38" version="1.1" xmlns="http://www.w3.org/2000/svg" xmlns:xlink="http://www.w3.org/1999/xlink" xml:space="preserve" style="fill-rule:evenodd;clip-rule:evenodd;stroke-linejoin:round;stroke-miterlimit:1.41421;">
    <g transform="matrix(1,0,0,1,-8304,-9568)">
        <g transform="matrix(1,0,0,1,1.6291,1.69182)">
            <g transform="matrix(1,0,0,1,0.862064,-0.372735)">
                <g transform="matrix(1,0,0,1,-17.0558,0.0286061)">
                    <g id="print.-blk">
                        <path d="M8348.03,9589.79L8348.03,9601.18L8328.07,9601.18L8328.07,9589.79L8348.03,9589.79ZM8344.79,9598.24L8344.79,9597.56L8331.31,9597.56L8331.31,9598.24L8344.79,9598.24ZM8344.79,9595.77L8344.79,9595.1L8331.31,9595.1L8331.31,9595.77L8344.79,9595.77ZM8353.54,9578.88C8353.55,9578.88 8353.94,9578.92 8354.13,9578.99C8354.62,9579.17 8355.02,9579.56 8355.21,9580.04C8355.29,9580.24 8355.34,9580.66 8355.34,9580.66L8355.34,9592.27C8355.34,9592.27 8355.29,9592.7 8355.21,9592.89C8355.02,9593.37 8354.62,9593.77 8354.13,9593.94C8353.94,9594.01 8353.74,9594.05 8353.54,9594.05C8351.93,9594.08 8350.33,9594.06 8348.72,9594.05L8348.72,9589.45C8348.71,9589.42 8348.72,9589.4 8348.7,9589.36C8348.67,9589.26 8348.61,9589.18 8348.52,9589.15C8348.48,9589.13 8348.47,9589.13 8348.42,9589.12C8348.41,9589.12 8348.39,9589.12 8348.38,9589.12L8327.73,9589.12C8327.69,9589.12 8327.68,9589.12 8327.64,9589.13C8327.52,9589.16 8327.44,9589.25 8327.4,9589.36C8327.39,9589.4 8327.39,9589.42 8327.39,9589.45L8327.39,9594.05L8322.61,9594.05C8322.4,9594.05 8322.18,9594.02 8321.98,9593.94C8321.47,9593.76 8321.06,9593.35 8320.88,9592.85C8320.81,9592.66 8320.76,9592.27 8320.76,9592.27L8320.76,9580.66C8320.76,9580.66 8320.81,9580.24 8320.89,9580.04C8321.09,9579.54 8321.51,9579.14 8322.02,9578.97C8322.19,9578.91 8322.56,9578.88 8322.56,9578.88L8353.54,9578.88ZM8344.79,9593.32L8344.79,9592.64L8331.31,9592.64L8331.31,9593.32L8344.79,9593.32ZM8324.86,9580.74C8324.95,9580.74 8325.04,9580.75 8325.14,9580.76C8325.37,9580.8 8325.59,9580.87 8325.8,9580.98C8326.04,9581.1 8326.25,9581.26 8326.43,9581.45C8326.6,9581.64 8326.73,9581.85 8326.83,9582.07C8326.92,9582.27 8326.97,9582.49 8326.99,9582.7C8327.01,9582.93 8327,9583.15 8326.96,9583.37C8326.87,9583.81 8326.63,9584.24 8326.28,9584.54C8326.11,9584.7 8325.92,9584.82 8325.71,9584.92C8325.44,9585.03 8325.15,9585.1 8324.86,9585.11C8324.56,9585.12 8324.27,9585.07 8323.99,9584.96C8323.75,9584.86 8323.52,9584.72 8323.32,9584.54C8323.12,9584.36 8322.96,9584.15 8322.84,9583.92C8322.74,9583.73 8322.67,9583.52 8322.63,9583.31C8322.59,9583.1 8322.59,9582.86 8322.62,9582.65C8322.64,9582.43 8322.7,9582.22 8322.79,9582.02C8323,9581.58 8323.36,9581.2 8323.8,9580.98C8323.99,9580.88 8324.2,9580.81 8324.41,9580.78C8324.5,9580.76 8324.6,9580.75 8324.69,9580.74C8324.75,9580.74 8324.8,9580.74 8324.86,9580.74ZM8324.76,9581.41C8324.53,9581.43 8324.31,9581.48 8324.11,9581.58C8323.95,9581.67 8323.8,9581.78 8323.68,9581.91C8323.56,9582.04 8323.47,9582.18 8323.4,9582.34C8323.34,9582.48 8323.31,9582.62 8323.29,9582.77C8323.27,9582.93 8323.28,9583.1 8323.32,9583.26C8323.43,9583.72 8323.75,9584.11 8324.18,9584.3C8324.36,9584.38 8324.56,9584.42 8324.76,9584.43C8324.97,9584.44 8325.17,9584.4 8325.36,9584.33C8325.53,9584.26 8325.69,9584.16 8325.82,9584.04C8325.96,9583.92 8326.07,9583.77 8326.15,9583.61C8326.22,9583.48 8326.27,9583.34 8326.3,9583.19C8326.32,9583.04 8326.33,9582.89 8326.31,9582.73C8326.25,9582.27 8325.97,9581.85 8325.56,9581.62C8325.36,9581.5 8325.14,9581.44 8324.92,9581.42C8324.87,9581.42 8324.81,9581.41 8324.76,9581.41ZM8343.06,9569.34L8343.06,9573.79C8343.06,9573.82 8343.07,9573.85 8343.08,9573.89C8343.1,9573.98 8343.17,9574.05 8343.25,9574.09C8343.28,9574.1 8343.32,9574.11 8343.35,9574.12L8348.03,9574.12L8348.03,9576.21L8328.07,9576.21L8328.07,9569.34L8343.06,9569.34ZM8343.74,9573.45L8347.51,9573.45L8343.74,9569.63L8343.74,9573.45Z" style="fill:rgb(114,114,114);"/>
                    </g>
                </g>
                <g transform="matrix(1.37865,0,0,1.00364,-2953.8,-33.0988)">
                    <rect x="8164" y="9564.92" width="28.271" height="36.874" style="fill:rgb(255,33,33);fill-opacity:0;"/>
                </g>
            </g>
        </g>
    </g>
</svg>
