<?xml version="1.0" encoding="UTF-8" standalone="no"?>
<!DOCTYPE svg PUBLIC "-//W3C//DTD SVG 1.1//EN" "http://www.w3.org/Graphics/SVG/1.1/DTD/svg11.dtd">
<svg width="100%" height="100%" viewBox="0 0 39 37" version="1.1" xmlns="http://www.w3.org/2000/svg" xmlns:xlink="http://www.w3.org/1999/xlink" xml:space="preserve" style="fill-rule:evenodd;clip-rule:evenodd;stroke-linejoin:round;stroke-miterlimit:1.41421;">
    <g transform="matrix(1,0,0,1,-8254,-9568)">
        <g transform="matrix(1,0,0,1,1.6291,1.69182)">
            <g transform="matrix(1,0,0,1,0.402943,-0.414462)">
                <g transform="matrix(0.683319,0,0,0.678009,7861.29,7923.93)">
                    <g id="print">
                        <path d="M583.955,2463.32C581.593,2463.33 579.229,2463.36 576.867,2463.32C576.464,2463.31 576.068,2463.24 575.688,2463.1C574.703,2462.74 573.9,2461.95 573.514,2460.98C573.355,2460.57 573.258,2459.72 573.258,2459.72L573.258,2442.55C573.258,2442.55 573.355,2441.69 573.514,2441.28C573.912,2440.28 574.75,2439.48 575.774,2439.13C576.128,2439.01 576.867,2438.94 576.867,2438.94L622.252,2438.94C622.252,2438.94 623.051,2439.02 623.43,2439.16C624.416,2439.53 625.219,2440.31 625.604,2441.28C625.764,2441.69 625.86,2442.55 625.86,2442.55L625.86,2459.71C625.86,2459.71 625.775,2460.51 625.636,2460.89C625.265,2461.91 624.445,2462.73 623.43,2463.1C623.022,2463.25 622.594,2463.32 622.16,2463.32L615.166,2463.32L615.166,2473.34C615.162,2473.4 615.164,2473.42 615.146,2473.48C615.099,2473.64 614.969,2473.77 614.807,2473.82C614.746,2473.83 614.729,2473.83 614.666,2473.84L584.455,2473.84C584.392,2473.83 584.376,2473.83 584.315,2473.82C584.153,2473.77 584.023,2473.64 583.976,2473.48C583.958,2473.42 583.96,2473.4 583.955,2473.34L583.955,2463.32ZM614.166,2456.04L584.955,2456.04L584.955,2472.84L614.166,2472.84L614.166,2456.04ZM609.422,2468.49L589.697,2468.49L589.697,2467.49L609.422,2467.49L609.422,2468.49ZM609.422,2464.86L589.697,2464.86L589.697,2463.86L609.422,2463.86L609.422,2464.86ZM615.166,2462.32C617.52,2462.33 619.873,2462.36 622.226,2462.32C622.52,2462.31 622.809,2462.26 623.086,2462.16C623.805,2461.9 624.393,2461.32 624.674,2460.61C624.79,2460.32 624.861,2459.69 624.861,2459.69L624.861,2442.57C624.861,2442.57 624.79,2441.95 624.674,2441.65C624.392,2440.94 623.806,2440.37 623.086,2440.1C622.809,2440 622.226,2439.94 622.226,2439.94L576.892,2439.94C576.892,2439.94 576.353,2439.99 576.095,2440.08C575.347,2440.33 574.735,2440.92 574.445,2441.65C574.328,2441.95 574.258,2442.57 574.258,2442.57L574.258,2459.69C574.258,2459.69 574.32,2460.27 574.421,2460.55C574.693,2461.29 575.292,2461.89 576.033,2462.16C576.333,2462.27 576.646,2462.32 576.966,2462.32L583.955,2462.32L583.955,2455.54C583.96,2455.48 583.958,2455.46 583.976,2455.4C584.023,2455.24 584.153,2455.11 584.315,2455.06C584.376,2455.04 584.392,2455.05 584.455,2455.04L614.666,2455.04C614.69,2455.04 614.714,2455.04 614.737,2455.05C614.799,2455.06 614.816,2455.06 614.874,2455.09C615.005,2455.14 615.105,2455.26 615.146,2455.4C615.164,2455.46 615.162,2455.48 615.166,2455.54L615.166,2462.32ZM609.422,2461.24L589.697,2461.24L589.697,2460.24L609.422,2460.24L609.422,2461.24ZM580.25,2442.69C580.386,2442.69 580.522,2442.7 580.657,2442.72C580.997,2442.77 581.328,2442.88 581.634,2443.04C581.979,2443.22 582.292,2443.45 582.552,2443.74C582.797,2444.01 582.995,2444.32 583.137,2444.65C583.261,2444.95 583.341,2445.26 583.374,2445.58C583.407,2445.91 583.39,2446.24 583.325,2446.56C583.188,2447.22 582.837,2447.84 582.334,2448.29C582.085,2448.52 581.8,2448.71 581.494,2448.85C581.104,2449.02 580.678,2449.12 580.25,2449.13C579.819,2449.14 579.387,2449.07 578.985,2448.91C578.623,2448.76 578.288,2448.55 578,2448.29C577.713,2448.03 577.473,2447.72 577.297,2447.38C577.152,2447.09 577.05,2446.79 576.994,2446.48C576.936,2446.16 576.928,2445.82 576.969,2445.5C577.01,2445.18 577.097,2444.87 577.229,2444.58C577.528,2443.92 578.053,2443.37 578.699,2443.04C578.981,2442.89 579.285,2442.79 579.597,2442.74C579.731,2442.71 579.866,2442.7 580.001,2442.69C580.084,2442.69 580.167,2442.68 580.25,2442.69ZM580.109,2443.68C579.777,2443.7 579.453,2443.78 579.156,2443.93C578.917,2444.05 578.702,2444.22 578.521,2444.41C578.353,2444.6 578.216,2444.81 578.118,2445.04C578.033,2445.25 577.977,2445.46 577.955,2445.68C577.93,2445.92 577.945,2446.17 578,2446.41C578.155,2447.08 578.627,2447.65 579.253,2447.93C579.522,2448.06 579.815,2448.12 580.109,2448.13C580.407,2448.14 580.705,2448.09 580.982,2447.98C581.231,2447.88 581.463,2447.73 581.661,2447.55C581.859,2447.37 582.025,2447.16 582.147,2446.92C582.247,2446.72 582.317,2446.52 582.355,2446.3C582.395,2446.08 582.401,2445.85 582.372,2445.62C582.285,2444.94 581.87,2444.32 581.273,2443.98C580.985,2443.81 580.668,2443.72 580.338,2443.69C580.262,2443.69 580.186,2443.68 580.109,2443.68ZM584.955,2436.01L583.955,2436.01L583.955,2425.37L583.961,2425.3C583.974,2425.24 583.974,2425.22 584.001,2425.16C584.06,2425.03 584.177,2424.93 584.315,2424.89C584.376,2424.88 584.455,2424.87 584.455,2424.87L607.743,2424.88C607.743,2424.88 607.87,2424.91 607.93,2424.94C607.981,2424.97 607.99,2424.98 608.034,2425.02L615.024,2432.17C615.04,2432.18 615.058,2432.2 615.073,2432.22C615.118,2432.29 615.148,2432.36 615.16,2432.44C615.164,2432.46 615.164,2432.49 615.166,2432.51L615.166,2436.01L614.166,2436.01L614.166,2432.93L607.388,2432.93C607.35,2432.93 607.351,2432.93 607.313,2432.93C607.264,2432.91 607.216,2432.9 607.171,2432.88C607.046,2432.82 606.951,2432.71 606.91,2432.58C606.895,2432.53 606.89,2432.48 606.888,2432.43L606.888,2425.87L584.955,2425.87L584.955,2436.01ZM607.888,2431.93L613.394,2431.93L607.888,2426.3L607.888,2431.93Z" style="fill:rgb(173,173,173);"/>
                    </g>
                </g>
                <g transform="matrix(1.3449,0,0,1.00251,-2727.77,-22.2333)">
                    <rect x="8164" y="9564.92" width="28.271" height="36.874" style="fill:rgb(255,33,33);fill-opacity:0;"/>
                </g>
            </g>
        </g>
    </g>
</svg>
