<?xml version="1.0" encoding="UTF-8" standalone="no"?>
<!DOCTYPE svg PUBLIC "-//W3C//DTD SVG 1.1//EN" "http://www.w3.org/Graphics/SVG/1.1/DTD/svg11.dtd">
<svg width="100%" height="100%" viewBox="0 0 37 41" version="1.1" xmlns="http://www.w3.org/2000/svg" xmlns:xlink="http://www.w3.org/1999/xlink" xml:space="preserve" style="fill-rule:evenodd;clip-rule:evenodd;stroke-linejoin:round;stroke-miterlimit:1.41421;">
    <g transform="matrix(1,0,0,1,-8510,-9566)">
        <g transform="matrix(1,0,0,1,1.6291,1.69182)">
            <g transform="matrix(1,0,0,1,1.71082,0.628689)">
                <g transform="matrix(0.921148,0,0,0.921148,501.343,756.942)">
                    <g id="social.-blk">
                        <path d="M8724.48,9600.19C8724.36,9600.29 8724.24,9600.38 8724.1,9600.45C8723.9,9600.57 8723.68,9600.67 8723.46,9600.76C8722.72,9601.07 8721.92,9601.22 8721.13,9601.3C8720.85,9601.33 8720.57,9601.35 8720.3,9601.35C8718.64,9601.4 8716.94,9601.07 8715.49,9600.24C8715.28,9600.11 8715.08,9599.98 8714.88,9599.84C8714.64,9599.65 8714.41,9599.46 8714.19,9599.25C8713.88,9598.95 8713.6,9598.62 8713.36,9598.27C8712.96,9597.67 8712.66,9597.01 8712.46,9596.34C8712.29,9595.77 8712.19,9595.19 8712.14,9594.61C8712.02,9593.07 8712.26,9591.5 8712.85,9590.07C8713.29,9589.01 8713.93,9588.03 8714.78,9587.24C8715.19,9586.86 8715.65,9586.54 8716.13,9586.26C8716.59,9586.01 8717.08,9585.8 8717.59,9585.65C8718.47,9585.38 8719.39,9585.27 8720.31,9585.27C8721.14,9585.27 8721.98,9585.37 8722.79,9585.59C8723.27,9585.71 8723.74,9585.89 8724.18,9586.11C8724.68,9586.37 8725.16,9586.68 8725.59,9587.05C8725.76,9587.2 8725.94,9587.36 8726.1,9587.54C8727.28,9588.77 8728,9590.39 8728.29,9592.06C8728.36,9592.47 8728.41,9592.87 8728.43,9593.28C8728.45,9593.59 8728.45,9593.89 8728.42,9594.21C8728.37,9594.89 8728.2,9595.59 8727.92,9596.22C8727.72,9596.65 8727.47,9597.06 8727.14,9597.4C8726.95,9597.59 8726.74,9597.76 8726.51,9597.89C8726.34,9597.99 8726.15,9598.07 8725.97,9598.12C8725.84,9598.16 8725.72,9598.18 8725.59,9598.18C8725.53,9598.18 8725.46,9598.17 8725.4,9598.15C8725.36,9598.14 8725.32,9598.13 8725.29,9598.11C8725.06,9597.99 8724.92,9597.76 8724.83,9597.52C8724.81,9597.48 8724.8,9597.44 8724.78,9597.4C8724.76,9597.34 8724.75,9597.28 8724.73,9597.23C8724.72,9597.15 8724.7,9597.08 8724.69,9597.01C8724.67,9596.91 8724.65,9596.81 8724.64,9596.72C8724.63,9596.57 8724.62,9596.43 8724.61,9596.29C8724.6,9596.14 8724.6,9596 8724.61,9595.84C8724.62,9595.83 8724.62,9595.81 8724.63,9595.79C8724.84,9595.35 8724.98,9594.87 8725.04,9594.38C8725.1,9593.88 8725.09,9593.37 8724.99,9592.87C8724.91,9592.42 8724.75,9591.97 8724.53,9591.56C8724.05,9590.64 8723.26,9589.9 8722.32,9589.45C8721.9,9589.26 8721.44,9589.12 8720.97,9589.06C8720.77,9589.02 8720.57,9589.01 8720.37,9589.01C8720.29,9589.01 8720.2,9589.01 8720.12,9589.01C8719.9,9589.02 8719.68,9589.05 8719.46,9589.09C8719.02,9589.16 8718.59,9589.3 8718.18,9589.51C8717.65,9589.77 8717.17,9590.13 8716.77,9590.58C8716.4,9590.98 8716.1,9591.46 8715.89,9591.98C8715.7,9592.43 8715.58,9592.92 8715.55,9593.41C8715.51,9593.89 8715.55,9594.38 8715.66,9594.85C8715.76,9595.33 8715.95,9595.78 8716.19,9596.2C8716.52,9596.76 8716.97,9597.25 8717.5,9597.63C8717.82,9597.87 8718.18,9598.06 8718.56,9598.21C8719.13,9598.44 8719.75,9598.55 8720.37,9598.54C8720.98,9598.54 8721.6,9598.41 8722.16,9598.17C8722.71,9597.94 8723.22,9597.61 8723.64,9597.19C8723.76,9597.08 8723.87,9596.95 8723.97,9596.83C8723.99,9597.02 8724.03,9597.2 8724.07,9597.39C8724.17,9597.76 8724.32,9598.12 8724.57,9598.4C8724.65,9598.49 8724.75,9598.58 8724.85,9598.65C8724.94,9598.7 8725.03,9598.74 8725.12,9598.78C8725.18,9598.8 8725.25,9598.82 8725.32,9598.83C8725.8,9598.93 8726.3,9598.76 8726.73,9598.54C8726.82,9598.5 8726.91,9598.44 8727,9598.39C8726.01,9599.15 8724.48,9600.19 8724.48,9600.19L8724.48,9600.19ZM8720.47,9589.69C8720.66,9589.7 8720.84,9589.72 8721.03,9589.75C8721.41,9589.82 8721.78,9589.94 8722.12,9590.11C8722.58,9590.34 8722.99,9590.65 8723.34,9591.03C8723.66,9591.39 8723.92,9591.79 8724.1,9592.23C8724.26,9592.62 8724.35,9593.04 8724.39,9593.47C8724.42,9593.89 8724.39,9594.33 8724.28,9594.75C8724.21,9595.05 8724.1,9595.34 8723.96,9595.61L8723.94,9595.61L8723.93,9595.66L8723.93,9595.67C8723.66,9596.18 8723.29,9596.63 8722.83,9596.99C8722.52,9597.24 8722.17,9597.44 8721.81,9597.58C8721.31,9597.78 8720.78,9597.87 8720.25,9597.86C8719.73,9597.86 8719.2,9597.75 8718.71,9597.55C8718.24,9597.35 8717.81,9597.06 8717.45,9596.7C8717.09,9596.35 8716.8,9595.95 8716.6,9595.51C8716.42,9595.12 8716.3,9594.72 8716.25,9594.3C8716.19,9593.87 8716.2,9593.43 8716.29,9593C8716.35,9592.66 8716.46,9592.32 8716.62,9592C8717.03,9591.16 8717.73,9590.47 8718.58,9590.07C8718.96,9589.9 8719.37,9589.77 8719.78,9589.73C8719.94,9589.7 8720.1,9589.69 8720.25,9589.69L8720.47,9589.69ZM8708.79,9570.43C8708.93,9570.43 8709.07,9570.44 8709.21,9570.44C8709.39,9570.45 8709.57,9570.46 8709.75,9570.46C8709.85,9570.47 8709.94,9570.48 8710.04,9570.48L8711.39,9573.94L8711.39,9573.94C8711.42,9574.02 8711.48,9574.09 8711.56,9574.13C8711.61,9574.15 8711.65,9574.15 8711.7,9574.16L8720.26,9574.16C8720.48,9574.33 8720.7,9574.51 8720.91,9574.69C8721.42,9575.14 8721.9,9575.63 8722.34,9576.15C8722.89,9576.81 8723.37,9577.53 8723.76,9578.3C8724.19,9579.15 8724.5,9580.06 8724.66,9581.01C8724.75,9581.58 8724.8,9582.15 8724.78,9582.72C8724.77,9583.24 8724.72,9583.76 8724.62,9584.26C8724.57,9584.51 8724.51,9584.76 8724.44,9585.01C8724.42,9585.1 8724.39,9585.2 8724.36,9585.28C8724.34,9585.33 8724.33,9585.38 8724.32,9585.42C8724.3,9585.42 8724.29,9585.41 8724.28,9585.41L8724.2,9585.37C8724.18,9585.36 8724.17,9585.36 8724.16,9585.35C8723.65,9585.13 8723.12,9584.95 8722.58,9584.84C8722.13,9584.74 8721.67,9584.67 8721.21,9584.63C8720.96,9584.61 8720.71,9584.6 8720.46,9584.59C8720.31,9584.59 8720.31,9584.59 8720.15,9584.59C8719.53,9584.61 8718.91,9584.66 8718.29,9584.78C8717.31,9584.97 8716.35,9585.32 8715.5,9585.85C8715.14,9586.07 8714.8,9586.32 8714.49,9586.59C8714.26,9586.78 8714.05,9586.99 8713.85,9587.21C8712.65,9588.51 8711.91,9590.19 8711.6,9591.93C8711.52,9592.36 8711.47,9592.8 8711.44,9593.24C8711.42,9593.64 8711.42,9594.03 8711.45,9594.43C8710.75,9594.52 8710.05,9594.58 8709.34,9594.61C8708.93,9594.62 8708.51,9594.63 8708.09,9594.61C8707.35,9594.57 8706.61,9594.48 8705.87,9594.36C8704.8,9594.2 8703.74,9593.99 8702.68,9593.75C8702.45,9593.7 8702.22,9593.65 8701.98,9593.59C8701.93,9593.59 8701.92,9593.58 8701.87,9593.59C8701.81,9593.59 8701.76,9593.61 8701.71,9593.64C8701.7,9593.66 8701.68,9593.66 8701.67,9593.68L8701.63,9593.72L8701.58,9593.78L8701.54,9593.85C8701.32,9594.12 8701.09,9594.39 8700.85,9594.65C8700.44,9595.1 8699.98,9595.51 8699.49,9595.88C8698.33,9596.77 8696.99,9597.42 8695.58,9597.82L8695.59,9597.81C8695.68,9597.69 8695.76,9597.56 8695.84,9597.42C8696.02,9597.12 8696.18,9596.81 8696.31,9596.49C8696.76,9595.44 8696.95,9594.31 8696.97,9593.17C8696.97,9592.55 8696.93,9591.92 8696.85,9591.3C8696.83,9591.15 8696.83,9591.15 8696.81,9591C8696.8,9590.98 8696.8,9590.96 8696.79,9590.94C8696.78,9590.9 8696.76,9590.86 8696.73,9590.83C8696.72,9590.81 8696.7,9590.8 8696.69,9590.79L8696.64,9590.75C8696.17,9590.34 8695.73,9589.9 8695.32,9589.45C8694.72,9588.79 8694.17,9588.07 8693.7,9587.31C8693.04,9586.26 8692.53,9585.09 8692.35,9583.85C8692.31,9583.52 8692.28,9583.18 8692.29,9582.85C8692.29,9582.55 8692.32,9582.24 8692.36,9581.93C8692.41,9581.55 8692.48,9581.17 8692.57,9580.79C8692.94,9579.25 8693.66,9577.81 8694.63,9576.56C8695.36,9575.6 8696.24,9574.75 8697.19,9574.01C8697.6,9573.7 8698.03,9573.41 8698.47,9573.13C8698.92,9572.85 8699.39,9572.6 8699.87,9572.36C8701.75,9571.43 8703.79,9570.86 8705.87,9570.6C8706.77,9570.48 8707.67,9570.43 8708.58,9570.43L8708.79,9570.43ZM8728.12,9597.26C8728,9597.43 8727.88,9597.59 8727.75,9597.75C8727.9,9597.57 8728.04,9597.39 8728.16,9597.19L8728.12,9597.26ZM8724.36,9585.28C8724.39,9585.2 8723.65,9585.13 8724.16,9585.35C8724.21,9585.37 8724.34,9585.33 8724.36,9585.28ZM8712.97,9580.57C8713.19,9580.58 8713.39,9580.63 8713.59,9580.72C8714.02,9580.93 8714.33,9581.34 8714.42,9581.81C8714.44,9581.96 8714.45,9582.12 8714.43,9582.27C8714.41,9582.42 8714.37,9582.56 8714.31,9582.69C8714.23,9582.86 8714.13,9583.01 8714,9583.14C8713.87,9583.27 8713.72,9583.37 8713.55,9583.44C8713.37,9583.52 8713.17,9583.57 8712.97,9583.58C8712.77,9583.59 8712.57,9583.55 8712.38,9583.48C8712.21,9583.41 8712.06,9583.31 8711.92,9583.18C8711.79,9583.07 8711.68,9582.92 8711.59,9582.76C8711.53,9582.63 8711.48,9582.48 8711.45,9582.34C8711.42,9582.19 8711.42,9582.03 8711.44,9581.89C8711.5,9581.41 8711.8,9580.98 8712.22,9580.76C8712.4,9580.66 8712.61,9580.59 8712.82,9580.57C8712.87,9580.57 8712.92,9580.57 8712.97,9580.57ZM8703.84,9580.57C8704.05,9580.58 8704.26,9580.63 8704.45,9580.72C8704.87,9580.92 8705.18,9581.32 8705.27,9581.77C8705.3,9581.92 8705.31,9582.08 8705.29,9582.23C8705.28,9582.39 8705.24,9582.55 8705.17,9582.69C8705.09,9582.86 8704.99,9583.01 8704.86,9583.14C8704.73,9583.27 8704.58,9583.37 8704.42,9583.44C8704.23,9583.52 8704.03,9583.57 8703.84,9583.58C8703.63,9583.59 8703.43,9583.55 8703.24,9583.48C8703.08,9583.41 8702.92,9583.31 8702.78,9583.18C8702.65,9583.07 8702.54,9582.92 8702.46,9582.76C8702.39,9582.63 8702.34,9582.48 8702.31,9582.34C8702.29,9582.19 8702.28,9582.03 8702.3,9581.89C8702.36,9581.41 8702.66,9580.98 8703.08,9580.76C8703.26,9580.66 8703.47,9580.59 8703.68,9580.57C8703.73,9580.57 8703.78,9580.57 8703.84,9580.57ZM8708.4,9580.57C8708.62,9580.58 8708.83,9580.63 8709.02,9580.72C8709.45,9580.93 8709.76,9581.34 8709.85,9581.81C8709.87,9581.96 8709.88,9582.12 8709.86,9582.27C8709.84,9582.42 8709.8,9582.56 8709.74,9582.69C8709.66,9582.86 8709.56,9583.01 8709.43,9583.14C8709.3,9583.27 8709.15,9583.37 8708.99,9583.44C8708.8,9583.52 8708.6,9583.57 8708.4,9583.58C8708.2,9583.59 8708,9583.55 8707.81,9583.48C8707.64,9583.41 8707.49,9583.31 8707.35,9583.18C8707.22,9583.07 8707.11,9582.92 8707.02,9582.76C8706.96,9582.63 8706.91,9582.48 8706.88,9582.34C8706.86,9582.19 8706.85,9582.03 8706.87,9581.89C8706.93,9581.41 8707.23,9580.98 8707.65,9580.76C8707.83,9580.66 8708.04,9580.59 8708.25,9580.57C8708.3,9580.57 8708.35,9580.57 8708.4,9580.57ZM8712.21,9573.48L8729.03,9573.48L8716.63,9562.9C8715.16,9566.42 8713.69,9569.95 8712.21,9573.48ZM8711.71,9572.9L8713.64,9568.28L8709.38,9566.91L8711.71,9572.9Z" style="fill:rgb(114,114,114);"/>
                    </g>
                </g>
                <g transform="matrix(1.30795,0,0,1.08504,-2171.4,-814.652)">
                    <rect x="8164" y="9564.92" width="28.271" height="36.874" style="fill:rgb(255,33,33);fill-opacity:0;"/>
                </g>
            </g>
        </g>
    </g>
</svg>
