<?xml version="1.0" encoding="UTF-8" standalone="no"?>
<!DOCTYPE svg PUBLIC "-//W3C//DTD SVG 1.1//EN" "http://www.w3.org/Graphics/SVG/1.1/DTD/svg11.dtd">
<svg width="100%" height="100%" viewBox="0 0 40 36" version="1.1" xmlns="http://www.w3.org/2000/svg" xmlns:xlink="http://www.w3.org/1999/xlink" xml:space="preserve" style="fill-rule:evenodd;clip-rule:evenodd;stroke-linejoin:round;stroke-miterlimit:1.41421;">
    <g transform="matrix(1,0,0,1,-8352,-9570)">
        <g transform="matrix(1,0,0,1,1.6291,1.69182)">
            <g transform="matrix(1,0,0,1,1.15883,0.583936)">
                <g transform="matrix(1.00438,0,0,1.00438,-38.3445,-43.1692)">
                    <path d="M8356.91,9591.88L8356.91,9571.83C8356.91,9570.73 8357.8,9569.83 8358.91,9569.83L8381.49,9569.83C8382.59,9569.83 8383.49,9570.73 8383.49,9571.83L8383.49,9578.09L8388.23,9578.09C8389.33,9578.09 8390.23,9578.98 8390.23,9580.09L8390.23,9590.8C8390.23,9591.91 8389.33,9592.8 8388.23,9592.8L8383.49,9592.8L8383.49,9598.28C8383.49,9599.38 8382.59,9600.28 8381.49,9600.28L8370.56,9600.28L8370.56,9600.87C8370.56,9601.97 8369.66,9602.87 8368.56,9602.87L8353.6,9602.87C8352.5,9602.87 8351.6,9601.97 8351.6,9600.87L8351.6,9593.88C8351.6,9592.77 8352.5,9591.88 8353.6,9591.88L8356.91,9591.88ZM8368.64,9592.67L8353.52,9592.67C8352.91,9592.67 8352.42,9593.16 8352.42,9593.77L8352.42,9601C8352.42,9601.61 8352.91,9602.1 8353.52,9602.1L8368.64,9602.1C8369.25,9602.1 8369.74,9601.61 8369.74,9601L8369.74,9593.77C8369.74,9593.16 8369.25,9592.67 8368.64,9592.67ZM8356.78,9594.72C8356.9,9594.72 8357.01,9594.73 8357.12,9594.75C8357.41,9594.79 8357.69,9594.88 8357.95,9595.01C8358.24,9595.16 8358.5,9595.36 8358.72,9595.6C8358.94,9595.84 8359.12,9596.13 8359.24,9596.43C8359.34,9596.7 8359.41,9597 8359.42,9597.29C8359.44,9597.56 8359.41,9597.84 8359.34,9598.1C8359.21,9598.59 8358.95,9599.04 8358.58,9599.39C8358.35,9599.62 8358.07,9599.8 8357.77,9599.93C8357.43,9600.07 8357.07,9600.14 8356.71,9600.14C8356.35,9600.14 8355.99,9600.07 8355.66,9599.93C8355.37,9599.81 8355.11,9599.64 8354.89,9599.44C8354.51,9599.1 8354.24,9598.66 8354.1,9598.17C8354.01,9597.86 8353.98,9597.54 8354.01,9597.22C8354.03,9596.95 8354.09,9596.68 8354.19,9596.43C8354.3,9596.15 8354.46,9595.88 8354.66,9595.65C8354.89,9595.39 8355.17,9595.17 8355.48,9595.01C8355.71,9594.89 8355.97,9594.8 8356.23,9594.76C8356.37,9594.73 8356.5,9594.72 8356.64,9594.72C8356.71,9594.71 8356.71,9594.71 8356.78,9594.72ZM8365.3,9600.07L8364.63,9600.07L8364.63,9594.78L8365.3,9594.78L8365.3,9600.07ZM8362.62,9600.07L8361.95,9600.07L8361.95,9594.78L8362.62,9594.78L8362.62,9600.07ZM8367.98,9600.07L8367.32,9600.07L8367.32,9594.78L8367.98,9594.78L8367.98,9600.07ZM8367.14,9570.65L8367.14,9591.88L8368.56,9591.88C8369.66,9591.88 8370.56,9592.77 8370.56,9593.88L8370.56,9599.48L8381.52,9599.48C8382.17,9599.48 8382.69,9598.95 8382.69,9598.31L8382.69,9592.76L8382.72,9592.76C8381.81,9592.57 8381.14,9591.76 8381.14,9590.8L8381.14,9580.09C8381.14,9579.14 8381.8,9578.34 8382.69,9578.14L8382.69,9571.82C8382.69,9571.17 8382.17,9570.65 8381.52,9570.65L8367.14,9570.65ZM8356.66,9595.38C8356.56,9595.39 8356.45,9595.39 8356.35,9595.41C8356.15,9595.45 8355.96,9595.51 8355.78,9595.6C8355.39,9595.81 8355.06,9596.14 8354.87,9596.54C8354.77,9596.74 8354.71,9596.95 8354.68,9597.17C8354.66,9597.37 8354.66,9597.59 8354.7,9597.79C8354.73,9597.99 8354.8,9598.18 8354.89,9598.36C8355,9598.58 8355.15,9598.78 8355.34,9598.94C8355.52,9599.11 8355.73,9599.24 8355.96,9599.33C8356.22,9599.43 8356.49,9599.48 8356.76,9599.47C8357.04,9599.47 8357.31,9599.41 8357.55,9599.29C8358,9599.09 8358.37,9598.72 8358.58,9598.27C8358.65,9598.12 8358.7,9597.95 8358.73,9597.79C8358.76,9597.59 8358.77,9597.37 8358.74,9597.17C8358.72,9596.97 8358.66,9596.77 8358.58,9596.59C8358.48,9596.36 8358.33,9596.16 8358.16,9595.98C8357.98,9595.81 8357.78,9595.66 8357.55,9595.56C8357.35,9595.47 8357.14,9595.41 8356.92,9595.39C8356.83,9595.38 8356.75,9595.38 8356.66,9595.38ZM8381.11,9597.95L8376.95,9597.95L8376.95,9597.28L8381.11,9597.28L8381.11,9597.95ZM8388.55,9578.94L8382.85,9578.94C8382.37,9578.94 8381.98,9579.33 8381.98,9579.81L8381.98,9591.14C8381.98,9591.62 8382.37,9592.01 8382.85,9592.01L8388.55,9592.01C8389.03,9592.01 8389.42,9591.62 8389.42,9591.14L8389.42,9579.81C8389.42,9579.33 8389.03,9578.94 8388.55,9578.94ZM8357.77,9591.88L8366.35,9591.88L8366.35,9570.65L8358.95,9570.65C8358.3,9570.65 8357.77,9571.17 8357.77,9571.82L8357.77,9591.88ZM8388.31,9590.45L8383.02,9590.45L8383.02,9589.78L8388.31,9589.78L8388.31,9590.45ZM8379.02,9590.15L8368.96,9590.15L8368.96,9589.49L8379.02,9589.49L8379.02,9590.15ZM8388.31,9588.55L8383.02,9588.55L8383.02,9587.89L8388.31,9587.89L8388.31,9588.55ZM8379.02,9587.03L8368.96,9587.03L8368.96,9586.37L8379.02,9586.37L8379.02,9587.03ZM8364.61,9587.03L8359.32,9587.03L8359.32,9586.37L8364.61,9586.37L8364.61,9587.03ZM8385.73,9580.43C8385.85,9580.43 8385.96,9580.44 8386.07,9580.46C8386.34,9580.5 8386.6,9580.58 8386.84,9580.69C8387.41,9580.97 8387.87,9581.44 8388.14,9582.02C8388.24,9582.25 8388.31,9582.48 8388.34,9582.73C8388.39,9583 8388.39,9583.28 8388.34,9583.55C8388.3,9583.82 8388.22,9584.07 8388.11,9584.32C8387.96,9584.61 8387.77,9584.88 8387.53,9585.1C8387.3,9585.33 8387.02,9585.51 8386.72,9585.64C8386.38,9585.78 8386.02,9585.85 8385.66,9585.85C8385.3,9585.85 8384.94,9585.78 8384.6,9585.64C8384.3,9585.51 8384.03,9585.33 8383.79,9585.1C8383.55,9584.88 8383.36,9584.61 8383.22,9584.32C8383.1,9584.07 8383.02,9583.82 8382.98,9583.55C8382.94,9583.28 8382.94,9583 8382.98,9582.73C8383.02,9582.48 8383.09,9582.25 8383.19,9582.02C8383.45,9581.44 8383.91,9580.97 8384.49,9580.69C8384.73,9580.58 8384.98,9580.5 8385.25,9580.46C8385.36,9580.44 8385.48,9580.43 8385.59,9580.43C8385.66,9580.42 8385.66,9580.42 8385.73,9580.43ZM8385.61,9581.09C8385.32,9581.1 8385.04,9581.17 8384.77,9581.29C8384.34,9581.5 8383.99,9581.86 8383.8,9582.3C8383.73,9582.45 8383.68,9582.61 8383.65,9582.78C8383.61,9582.98 8383.6,9583.19 8383.63,9583.4C8383.66,9583.6 8383.71,9583.8 8383.8,9583.98C8383.9,9584.2 8384.04,9584.41 8384.21,9584.59C8384.39,9584.76 8384.59,9584.9 8384.82,9585C8385.07,9585.12 8385.34,9585.18 8385.61,9585.18C8385.88,9585.19 8386.16,9585.14 8386.41,9585.04C8386.64,9584.95 8386.85,9584.82 8387.04,9584.65C8387.22,9584.49 8387.37,9584.29 8387.48,9584.07C8387.58,9583.89 8387.64,9583.7 8387.67,9583.5C8387.71,9583.31 8387.72,9583.12 8387.7,9582.93C8387.67,9582.71 8387.62,9582.5 8387.53,9582.3C8387.34,9581.89 8387.03,9581.55 8386.64,9581.34C8386.44,9581.24 8386.24,9581.16 8386.02,9581.12C8385.94,9581.11 8385.85,9581.1 8385.77,9581.09C8385.71,9581.09 8385.66,9581.09 8385.61,9581.09ZM8364.61,9583.92L8359.32,9583.92L8359.32,9583.25L8364.61,9583.25L8364.61,9583.92ZM8379.02,9583.92L8368.96,9583.92L8368.96,9583.25L8379.02,9583.25L8379.02,9583.92ZM8373.72,9580.8L8368.96,9580.8L8368.96,9580.13L8373.72,9580.13L8373.72,9580.8ZM8364.61,9580.8L8359.32,9580.8L8359.32,9580.13L8364.61,9580.13L8364.61,9580.8ZM8362.03,9572.3C8362.15,9572.31 8362.26,9572.32 8362.37,9572.34C8362.64,9572.38 8362.9,9572.45 8363.14,9572.57C8363.43,9572.71 8363.7,9572.91 8363.93,9573.15C8364.15,9573.38 8364.33,9573.66 8364.46,9573.96C8364.58,9574.23 8364.65,9574.52 8364.67,9574.81C8364.69,9575.08 8364.67,9575.36 8364.61,9575.63C8364.54,9575.93 8364.41,9576.22 8364.25,9576.48C8363.95,9576.94 8363.52,9577.3 8363.02,9577.52C8362.68,9577.66 8362.32,9577.73 8361.96,9577.73C8361.6,9577.73 8361.24,9577.66 8360.91,9577.52C8360.38,9577.3 8359.93,9576.91 8359.64,9576.42C8359.52,9576.22 8359.42,9575.99 8359.35,9575.76C8359.26,9575.43 8359.23,9575.08 8359.26,9574.74C8359.29,9574.47 8359.36,9574.21 8359.46,9573.96C8359.59,9573.66 8359.77,9573.38 8360,9573.15C8360.22,9572.91 8360.49,9572.71 8360.78,9572.57C8361.03,9572.45 8361.28,9572.38 8361.55,9572.34C8361.66,9572.32 8361.78,9572.31 8361.89,9572.3C8361.96,9572.3 8361.96,9572.3 8362.03,9572.3ZM8361.91,9572.97C8361.62,9572.98 8361.34,9573.05 8361.08,9573.17C8360.55,9573.42 8360.15,9573.9 8359.99,9574.46C8359.92,9574.72 8359.9,9575 8359.93,9575.28C8359.96,9575.48 8360.01,9575.68 8360.1,9575.86C8360.2,9576.08 8360.34,9576.29 8360.51,9576.46C8360.69,9576.64 8360.9,9576.78 8361.12,9576.88C8361.37,9576.99 8361.64,9577.06 8361.91,9577.06C8362.18,9577.07 8362.46,9577.02 8362.71,9576.92C8363.11,9576.76 8363.45,9576.48 8363.69,9576.12C8363.8,9575.94 8363.89,9575.74 8363.94,9575.53C8364,9575.33 8364.02,9575.12 8364.01,9574.91C8364,9574.71 8363.95,9574.51 8363.88,9574.31C8363.8,9574.08 8363.67,9573.86 8363.51,9573.68C8363.34,9573.48 8363.13,9573.31 8362.89,9573.19C8362.64,9573.06 8362.35,9572.99 8362.07,9572.97C8362.01,9572.97 8361.96,9572.97 8361.91,9572.97Z" style="fill:rgb(178,178,178);"/>
                </g>
                <g transform="matrix(1.41475,0,0,0.97535,-3200.81,238.578)">
                    <rect x="8164" y="9564.92" width="28.271" height="36.874" style="fill:rgb(255,33,33);fill-opacity:0;"/>
                </g>
            </g>
        </g>
    </g>
</svg>
