<?xml version="1.0" encoding="UTF-8" standalone="no"?>
<!DOCTYPE svg PUBLIC "-//W3C//DTD SVG 1.1//EN" "http://www.w3.org/Graphics/SVG/1.1/DTD/svg11.dtd">
<svg width="100%" height="100%" viewBox="0 0 35 28" version="1.1" xmlns="http://www.w3.org/2000/svg" xmlns:xlink="http://www.w3.org/1999/xlink" xml:space="preserve" style="fill-rule:evenodd;clip-rule:evenodd;stroke-linejoin:round;stroke-miterlimit:1.41421;">
    <g transform="matrix(1,0,0,1,-8686,-9578)">
        <g transform="matrix(1,0,0,1,1.6291,1.69182)">
            <g id="web.-blk" transform="matrix(1.23657,0,0,0.758524,-1410.98,2321.08)">
                <rect x="8164" y="9564.92" width="28.271" height="36.874" style="fill:rgb(255,33,33);fill-opacity:0;"/>
                <g transform="matrix(0.712122,0,0,1.16092,1826.44,-1548.46)">
                    <path d="M8937.72,9579.09L8937.72,9601.24L8901.05,9601.24L8901.05,9579.09L8937.72,9579.09ZM8936.94,9574.67C8936.95,9574.67 8937.09,9574.68 8937.16,9574.7C8937.37,9574.76 8937.56,9574.92 8937.65,9575.12C8937.69,9575.21 8937.71,9575.31 8937.72,9575.4C8937.75,9576.4 8937.72,9578.42 8937.72,9578.42L8901.05,9578.42L8901.05,9575.44C8901.05,9575.36 8901.06,9575.27 8901.09,9575.19C8901.17,9574.98 8901.34,9574.8 8901.56,9574.72C8901.64,9574.68 8901.82,9574.67 8901.82,9574.67L8936.94,9574.67ZM8903.25,9575.61C8903.83,9575.61 8904.3,9576.08 8904.3,9576.66C8904.3,9577.24 8903.83,9577.71 8903.25,9577.71C8902.67,9577.71 8902.2,9577.24 8902.2,9576.66C8902.2,9576.08 8902.67,9575.61 8903.25,9575.61ZM8906.1,9575.61C8906.68,9575.61 8907.15,9576.08 8907.15,9576.66C8907.15,9577.24 8906.68,9577.71 8906.1,9577.71C8905.52,9577.71 8905.06,9577.24 8905.06,9576.66C8905.06,9576.08 8905.52,9575.61 8906.1,9575.61ZM8908.96,9575.61C8909.54,9575.61 8910.01,9576.08 8910.01,9576.66C8910.01,9577.24 8909.54,9577.71 8908.96,9577.71C8908.38,9577.71 8907.91,9577.24 8907.91,9576.66C8907.91,9576.08 8908.38,9575.61 8908.96,9575.61Z" style="fill:rgb(114,114,114);"/>
                </g>
            </g>
        </g>
    </g>
</svg>
