<?xml version="1.0" encoding="UTF-8" standalone="no"?>
<!DOCTYPE svg PUBLIC "-//W3C//DTD SVG 1.1//EN" "http://www.w3.org/Graphics/SVG/1.1/DTD/svg11.dtd">
<svg width="100%" height="100%" viewBox="0 0 40 36" version="1.1" xmlns="http://www.w3.org/2000/svg" xmlns:xlink="http://www.w3.org/1999/xlink" xml:space="preserve" style="fill-rule:evenodd;clip-rule:evenodd;stroke-linejoin:round;stroke-miterlimit:1.41421;">
    <g transform="matrix(1,0,0,1,-8400,-9570)">
        <g transform="matrix(1,0,0,1,1.6291,1.69182)">
            <g transform="matrix(1,0,0,1,0.362394,-0.340122)">
                <g transform="matrix(1,0,0,1,-1.10824,-52.128)">
                    <path d="M8416.82,9643.62C8417.43,9643.62 8417.92,9644.11 8417.92,9644.72L8417.92,9651.98C8417.92,9652.6 8417.43,9653.09 8416.82,9653.09L8401.63,9653.09C8401.02,9653.09 8400.52,9652.6 8400.52,9651.98L8400.52,9644.72C8400.52,9644.11 8401.02,9643.62 8401.63,9643.62L8416.82,9643.62ZM8404.9,9645.68C8405.02,9645.68 8405.14,9645.68 8405.25,9645.71C8405.54,9645.75 8405.82,9645.84 8406.08,9645.97C8406.37,9646.12 8406.63,9646.32 8406.85,9646.56C8407.07,9646.8 8407.25,9647.09 8407.37,9647.39C8407.48,9647.66 8407.55,9647.97 8407.56,9648.26C8407.58,9648.53 8407.55,9648.81 8407.48,9649.07C8407.34,9649.56 8407.08,9650.01 8406.71,9650.37C8406.48,9650.6 8406.2,9650.78 8405.9,9650.91C8405.56,9651.05 8405.19,9651.12 8404.83,9651.12C8404.47,9651.12 8404.11,9651.05 8403.78,9650.91C8403.49,9650.79 8403.23,9650.62 8403.01,9650.42C8402.62,9650.08 8402.35,9649.63 8402.21,9649.14C8402.12,9648.83 8402.09,9648.51 8402.12,9648.19C8402.14,9647.92 8402.2,9647.64 8402.3,9647.39C8402.41,9647.11 8402.57,9646.84 8402.77,9646.61C8403.01,9646.35 8403.29,9646.13 8403.6,9645.97C8403.83,9645.85 8404.09,9645.76 8404.35,9645.72C8404.49,9645.68 8404.62,9645.68 8404.76,9645.68C8404.83,9645.67 8404.83,9645.67 8404.9,9645.68ZM8413.46,9651.05L8413.46,9645.74L8412.79,9645.74L8412.79,9651.05L8413.46,9651.05ZM8410.77,9651.05L8410.77,9645.74L8410.1,9645.74L8410.1,9651.05L8410.77,9651.05ZM8416.15,9651.05L8416.15,9645.74L8415.49,9645.74L8415.49,9651.05L8416.15,9651.05ZM8429.75,9621.5C8430.41,9621.5 8430.93,9622.02 8430.93,9622.68L8430.93,9629.02C8430.03,9629.22 8429.37,9630.03 8429.37,9630.98L8429.37,9641.74C8429.37,9642.7 8430.04,9643.52 8430.96,9643.71L8430.93,9643.71L8430.93,9649.28C8430.93,9649.92 8430.41,9650.46 8429.75,9650.46L8418.74,9650.46L8418.74,9644.83C8418.74,9643.72 8417.84,9642.82 8416.74,9642.82L8415.31,9642.82L8415.31,9621.5L8429.75,9621.5ZM8404.78,9646.34C8404.68,9646.35 8404.57,9646.35 8404.47,9646.37C8404.27,9646.41 8404.08,9646.47 8403.9,9646.56C8403.51,9646.77 8403.18,9647.1 8402.99,9647.5C8402.89,9647.7 8402.83,9647.92 8402.79,9648.14C8402.77,9648.34 8402.77,9648.56 8402.82,9648.76C8402.84,9648.96 8402.92,9649.15 8403.01,9649.33C8403.12,9649.55 8403.27,9649.75 8403.46,9649.91C8403.64,9650.09 8403.85,9650.22 8404.08,9650.31C8404.34,9650.41 8404.61,9650.46 8404.88,9650.45C8405.17,9650.45 8405.44,9650.39 8405.68,9650.26C8406.13,9650.07 8406.5,9649.69 8406.71,9649.24C8406.78,9649.09 8406.83,9648.92 8406.86,9648.76C8406.89,9648.56 8406.9,9648.34 8406.87,9648.14C8406.85,9647.93 8406.79,9647.73 8406.71,9647.55C8406.61,9647.32 8406.46,9647.12 8406.29,9646.94C8406.11,9646.77 8405.91,9646.62 8405.68,9646.52C8405.48,9646.43 8405.26,9646.37 8405.04,9646.35C8404.95,9646.34 8404.87,9646.34 8404.78,9646.34ZM8429.34,9648.92L8429.34,9648.25L8425.16,9648.25L8425.16,9648.92L8429.34,9648.92ZM8436.81,9629.83C8437.3,9629.83 8437.69,9630.22 8437.69,9630.7L8437.69,9642.08C8437.69,9642.56 8437.3,9642.95 8436.81,9642.95L8431.09,9642.95C8430.61,9642.95 8430.21,9642.56 8430.21,9642.08L8430.21,9630.7C8430.21,9630.22 8430.61,9629.83 8431.09,9629.83L8436.81,9629.83ZM8414.52,9621.5L8414.52,9642.82L8405.9,9642.82L8405.9,9622.68C8405.9,9622.02 8406.43,9621.5 8407.08,9621.5L8414.52,9621.5ZM8436.57,9641.39L8436.57,9640.71L8431.26,9640.71L8431.26,9641.39L8436.57,9641.39ZM8427.24,9641.09L8427.24,9640.42L8417.14,9640.42L8417.14,9641.09L8427.24,9641.09ZM8436.57,9639.48L8436.57,9638.82L8431.26,9638.82L8431.26,9639.48L8436.57,9639.48ZM8427.24,9637.95L8427.24,9637.29L8417.14,9637.29L8417.14,9637.95L8427.24,9637.95ZM8412.77,9637.95L8412.77,9637.29L8407.45,9637.29L8407.45,9637.95L8412.77,9637.95ZM8433.98,9631.32C8434.1,9631.32 8434.21,9631.33 8434.32,9631.35C8434.59,9631.39 8434.85,9631.47 8435.09,9631.58C8435.67,9631.86 8436.13,9632.34 8436.4,9632.92C8436.5,9633.15 8436.57,9633.38 8436.6,9633.63C8436.65,9633.9 8436.65,9634.18 8436.6,9634.46C8436.56,9634.73 8436.48,9634.98 8436.37,9635.23C8436.22,9635.52 8436.03,9635.79 8435.79,9636.01C8435.56,9636.24 8435.28,9636.43 8434.98,9636.56C8434.63,9636.7 8434.27,9636.77 8433.91,9636.77C8433.55,9636.77 8433.19,9636.7 8432.84,9636.56C8432.54,9636.43 8432.27,9636.24 8432.03,9636.01C8431.79,9635.79 8431.6,9635.52 8431.46,9635.23C8431.34,9634.98 8431.26,9634.73 8431.22,9634.46C8431.18,9634.18 8431.18,9633.9 8431.22,9633.63C8431.26,9633.38 8431.33,9633.15 8431.43,9632.92C8431.69,9632.34 8432.15,9631.86 8432.74,9631.58C8432.98,9631.47 8433.23,9631.39 8433.5,9631.35C8433.61,9631.33 8433.73,9631.32 8433.84,9631.32C8433.91,9631.31 8433.91,9631.31 8433.98,9631.32ZM8434.02,9631.99C8434.1,9632 8434.19,9632.01 8434.27,9632.02C8434.49,9632.06 8434.69,9632.14 8434.89,9632.24C8435.29,9632.45 8435.6,9632.79 8435.79,9633.2C8435.88,9633.4 8435.93,9633.61 8435.96,9633.83C8435.98,9634.02 8435.97,9634.22 8435.93,9634.41C8435.9,9634.61 8435.84,9634.8 8435.74,9634.98C8435.63,9635.2 8435.48,9635.4 8435.3,9635.56C8435.1,9635.73 8434.89,9635.86 8434.66,9635.95C8434.41,9636.05 8434.13,9636.1 8433.86,9636.09C8433.59,9636.09 8433.32,9636.03 8433.07,9635.91C8432.84,9635.81 8432.64,9635.67 8432.45,9635.5C8432.28,9635.32 8432.14,9635.11 8432.04,9634.89C8431.95,9634.71 8431.9,9634.51 8431.87,9634.31C8431.84,9634.09 8431.85,9633.88 8431.89,9633.68C8431.92,9633.51 8431.97,9633.35 8432.04,9633.2C8432.23,9632.76 8432.58,9632.4 8433.02,9632.19C8433.29,9632.07 8433.57,9632 8433.86,9631.99L8434.02,9631.99ZM8412.77,9634.83L8412.77,9634.16L8407.45,9634.16L8407.45,9634.83L8412.77,9634.83ZM8427.24,9634.83L8427.24,9634.16L8417.14,9634.16L8417.14,9634.83L8427.24,9634.83ZM8421.92,9631.69L8421.92,9631.02L8417.14,9631.02L8417.14,9631.69L8421.92,9631.69ZM8412.77,9631.69L8412.77,9631.02L8407.45,9631.02L8407.45,9631.69L8412.77,9631.69ZM8410.18,9623.16C8410.3,9623.17 8410.41,9623.18 8410.52,9623.2C8410.79,9623.24 8411.05,9623.31 8411.29,9623.43C8411.58,9623.57 8411.85,9623.77 8412.09,9624.01C8412.31,9624.24 8412.49,9624.52 8412.62,9624.83C8412.74,9625.1 8412.81,9625.39 8412.83,9625.68C8412.85,9625.95 8412.83,9626.23 8412.77,9626.5C8412.7,9626.8 8412.57,9627.09 8412.41,9627.36C8412.1,9627.82 8411.67,9628.18 8411.17,9628.4C8410.83,9628.54 8410.47,9628.61 8410.11,9628.61C8409.75,9628.61 8409.38,9628.54 8409.05,9628.4C8408.52,9628.18 8408.07,9627.79 8407.78,9627.3C8407.66,9627.09 8407.56,9626.86 8407.49,9626.63C8407.4,9626.3 8407.36,9625.95 8407.4,9625.61C8407.42,9625.34 8407.5,9625.08 8407.59,9624.83C8407.73,9624.52 8407.91,9624.24 8408.14,9624.01C8408.36,9623.77 8408.63,9623.57 8408.92,9623.43C8409.17,9623.31 8409.42,9623.24 8409.69,9623.2C8409.81,9623.18 8409.93,9623.17 8410.04,9623.16C8410.11,9623.16 8410.11,9623.16 8410.18,9623.16ZM8410.22,9623.83C8410.5,9623.85 8410.79,9623.92 8411.04,9624.05C8411.28,9624.17 8411.49,9624.34 8411.66,9624.54C8411.82,9624.72 8411.95,9624.94 8412.03,9625.18C8412.1,9625.38 8412.16,9625.58 8412.17,9625.78C8412.17,9625.99 8412.16,9626.2 8412.09,9626.4C8412.05,9626.61 8411.95,9626.81 8411.84,9626.99C8411.6,9627.36 8411.26,9627.64 8410.86,9627.8C8410.61,9627.9 8410.33,9627.95 8410.06,9627.94C8409.78,9627.94 8409.51,9627.87 8409.26,9627.76C8409.04,9627.66 8408.83,9627.52 8408.65,9627.34C8408.48,9627.17 8408.34,9626.95 8408.24,9626.73C8408.15,9626.55 8408.1,9626.35 8408.07,9626.15C8408.04,9625.87 8408.06,9625.59 8408.13,9625.33C8408.29,9624.76 8408.69,9624.28 8409.22,9624.03C8409.48,9623.91 8409.76,9623.84 8410.06,9623.83L8410.22,9623.83Z" style="fill:rgb(114,114,114);"/>
                </g>
                <g transform="matrix(1.41407,0,0,0.95029,-3146.44,479.197)">
                    <rect x="8164" y="9564.92" width="28.271" height="36.874" style="fill:rgb(255,33,33);fill-opacity:0;"/>
                </g>
            </g>
        </g>
    </g>
</svg>
