<svg xmlns="http://www.w3.org/2000/svg" viewBox="0 0 362.67 109.09" height="100%"><path fill="#fff" d="M51.68 46.23Q51.68 58.57 45.44 65.64Q39.20 72.70 28.09 72.70Q16.73 72.70 10.56 65.76Q4.39 58.82 4.39 46.16Q4.39 33.61 10.58 26.70Q16.77 19.79 28.16 19.79Q39.23 19.79 45.46 26.82Q51.68 33.86 51.68 46.23M10.72 46.23Q10.72 56.67 15.17 62.07Q19.62 67.46 28.09 67.46Q36.63 67.46 40.99 62.09Q45.35 56.71 45.35 46.23Q45.35 35.86 41.01 30.50Q36.67 25.14 28.16 25.14Q19.62 25.14 15.17 30.53Q10.72 35.93 10.72 46.23ZM80.19 72.70Q76.43 72.70 73.32 71.31Q70.21 69.93 68.10 67.04L67.68 67.04Q68.10 70.42 68.10 73.44L68.10 89.30L62.26 89.30L62.26 33.47L67.01 33.47L67.82 38.74L68.10 38.74Q70.35 35.58 73.34 34.17Q76.32 32.77 80.19 32.77Q87.86 32.77 92.02 38.00Q96.19 43.24 96.19 52.70Q96.19 62.19 91.95 67.45Q87.71 72.70 80.19 72.70M79.35 37.72Q73.44 37.72 70.80 40.99Q68.17 44.26 68.10 51.40L68.10 52.70Q68.10 60.82 70.80 64.32Q73.51 67.82 79.49 67.82Q84.48 67.82 87.31 63.77Q90.14 59.73 90.14 52.63Q90.14 45.42 87.31 41.57Q84.48 37.72 79.35 37.72ZM122.66 72.70Q114.12 72.70 109.18 67.50Q104.24 62.30 104.24 53.05Q104.24 43.73 108.83 38.25Q113.41 32.77 121.15 32.77Q128.39 32.77 132.61 37.53Q136.83 42.29 136.83 50.10L136.83 53.79L110.29 53.79Q110.46 60.57 113.71 64.09Q116.96 67.61 122.87 67.61Q129.09 67.61 135.18 65.00L135.18 70.21Q132.08 71.54 129.32 72.12Q126.56 72.70 122.66 72.70M121.08 37.65Q116.44 37.65 113.68 40.68Q110.92 43.70 110.43 49.04L130.57 49.04Q130.57 43.52 128.11 40.59Q125.65 37.65 121.08 37.65ZM173.14 72.00L173.14 47.07Q173.14 42.36 171.00 40.04Q168.86 37.72 164.29 37.72Q158.24 37.72 155.43 40.99Q152.61 44.26 152.61 51.79L152.61 72.00L146.78 72.00L146.78 33.47L151.52 33.47L152.47 38.74L152.75 38.74Q154.55 35.89 157.78 34.33Q161.02 32.77 164.99 32.77Q171.95 32.77 175.46 36.12Q178.98 39.48 178.98 46.86L178.98 72.00L173.14 72.00ZM239.55 58.32Q239.55 65.11 234.63 68.91Q229.71 72.70 221.27 72.70Q212.13 72.70 207.21 70.35L207.21 64.58Q210.38 65.92 214.10 66.69Q217.83 67.46 221.48 67.46Q227.46 67.46 230.48 65.20Q233.51 62.93 233.51 58.89Q233.51 56.21 232.44 54.51Q231.36 52.80 228.85 51.36Q226.34 49.92 221.20 48.09Q214.03 45.53 210.96 42.01Q207.88 38.50 207.88 32.84Q207.88 26.89 212.34 23.38Q216.81 19.86 224.16 19.86Q231.82 19.86 238.25 22.68L236.39 27.88Q230.03 25.21 224.02 25.21Q219.27 25.21 216.60 27.25Q213.93 29.29 213.93 32.91Q213.93 35.58 214.91 37.28Q215.89 38.99 218.23 40.41Q220.57 41.84 225.39 43.56Q233.47 46.44 236.51 49.75Q239.55 53.05 239.55 58.32ZM272.88 72.00L271.72 66.52L271.44 66.52Q268.56 70.14 265.69 71.42Q262.83 72.70 258.54 72.70Q252.81 72.70 249.56 69.75Q246.30 66.80 246.30 61.35Q246.30 49.68 264.97 49.11L271.51 48.90L271.51 46.51Q271.51 41.98 269.56 39.81Q267.61 37.65 263.32 37.65Q258.50 37.65 252.42 40.61L250.63 36.14Q253.48 34.59 256.87 33.71Q260.26 32.84 263.67 32.84Q270.56 32.84 273.88 35.89Q277.21 38.95 277.21 45.70L277.21 72.00L272.88 72.00M259.70 67.89Q265.15 67.89 268.26 64.90Q271.37 61.91 271.37 56.53L271.37 53.05L265.54 53.30Q258.57 53.54 255.50 55.46Q252.42 57.38 252.42 61.42Q252.42 64.58 254.34 66.23Q256.25 67.89 259.70 67.89ZM315.60 72.00L315.60 47.07Q315.60 42.36 313.45 40.04Q311.31 37.72 306.74 37.72Q300.69 37.72 297.88 40.99Q295.07 44.26 295.07 51.79L295.07 72.00L289.23 72.00L289.23 33.47L293.98 33.47L294.93 38.74L295.21 38.74Q297.00 35.89 300.23 34.33Q303.47 32.77 307.44 32.77Q314.40 32.77 317.92 36.12Q321.43 39.48 321.43 46.86L321.43 72.00L315.60 72.00ZM358.28 61.49Q358.28 66.87 354.27 69.79Q350.26 72.70 343.02 72.70Q335.36 72.70 331.07 70.28L331.07 64.86Q333.84 66.27 337.03 67.08Q340.21 67.89 343.16 67.89Q347.73 67.89 350.19 66.43Q352.65 64.97 352.65 61.98Q352.65 59.73 350.70 58.13Q348.75 56.53 343.09 54.35Q337.71 52.35 335.44 50.85Q333.18 49.36 332.07 47.46Q330.96 45.56 330.96 42.93Q330.96 38.21 334.79 35.49Q338.63 32.77 345.30 32.77Q351.53 32.77 357.47 35.30L355.39 40.04Q349.59 37.65 344.88 37.65Q340.73 37.65 338.63 38.95Q336.52 40.25 336.52 42.54Q336.52 44.09 337.31 45.18Q338.10 46.27 339.86 47.25Q341.61 48.23 346.61 50.10Q353.46 52.59 355.87 55.13Q358.28 57.66 358.28 61.49Z"/></svg>